<?xml version="1.0" encoding="utf-8" standalone="no"?>
<!DOCTYPE svg PUBLIC "-//W3C//DTD SVG 1.1//EN"
  "http://www.w3.org/Graphics/SVG/1.1/DTD/svg11.dtd">
<svg xmlns:xlink="http://www.w3.org/1999/xlink" width="739.875957pt" height="421.945312pt" viewBox="0 0 739.875957 421.945312" xmlns="http://www.w3.org/2000/svg" version="1.1">
 <metadata>
  <rdf:RDF xmlns:dc="http://purl.org/dc/elements/1.1/" xmlns:cc="http://creativecommons.org/ns#" xmlns:rdf="http://www.w3.org/1999/02/22-rdf-syntax-ns#">
   <cc:Work>
    <dc:type rdf:resource="http://purl.org/dc/dcmitype/StillImage"/>
    <dc:date>2026-02-19T12:21:12.527720</dc:date>
    <dc:format>image/svg+xml</dc:format>
    <dc:creator>
     <cc:Agent>
      <dc:title>Matplotlib v3.10.3, https://matplotlib.org/</dc:title>
     </cc:Agent>
    </dc:creator>
   </cc:Work>
  </rdf:RDF>
 </metadata>
 <defs>
  <style type="text/css">*{stroke-linejoin: round; stroke-linecap: butt}</style>
 </defs>
 <g id="figure_1">
  <g id="patch_1">
   <path d="M 0 421.945312 
L 739.875957 421.945312 
L 739.875957 0 
L 0 0 
z
" style="fill: #ffffff"/>
  </g>
  <g id="axes_1">
   <g id="patch_2">
    <path d="M 65.057031 365.384375 
L 703.014882 365.384375 
L 703.014882 29.084375 
L 65.057031 29.084375 
z
" style="fill: #ffffff"/>
   </g>
   <g id="matplotlib.axis_1">
    <g id="xtick_1">
     <g id="line2d_1">
      <path d="M 94.055115 365.384375 
L 94.055115 29.084375 
" clip-path="url(#p28ac54383d)" style="fill: none; stroke: #b0b0b0; stroke-linecap: square"/>
     </g>
     <g id="line2d_2">
      <defs>
       <path id="mf82e436c20" d="M 0 0 
L 0 -6 
" style="stroke: #000000"/>
      </defs>
      <g>
       <use xlink:href="#mf82e436c20" x="94.055115" y="365.384375" style="stroke: #000000"/>
      </g>
     </g>
     <g id="line2d_3">
      <defs>
       <path id="mc48f751f5c" d="M 0 0 
L 0 6 
" style="stroke: #000000"/>
      </defs>
      <g>
       <use xlink:href="#mc48f751f5c" x="94.055115" y="29.084375" style="stroke: #000000"/>
      </g>
     </g>
     <g id="text_1">
      <!-- 0 -->
      <g transform="translate(87.805115 386.24375) scale(0.25 -0.25)">
       <defs>
        <path id="TimesNewRomanPSMT-30" d="M 231 2094 
Q 231 2819 450 3342 
Q 669 3866 1031 4122 
Q 1313 4325 1613 4325 
Q 2100 4325 2488 3828 
Q 2972 3213 2972 2159 
Q 2972 1422 2759 906 
Q 2547 391 2217 158 
Q 1888 -75 1581 -75 
Q 975 -75 572 641 
Q 231 1244 231 2094 
z
M 844 2016 
Q 844 1141 1059 588 
Q 1238 122 1591 122 
Q 1759 122 1940 273 
Q 2122 425 2216 781 
Q 2359 1319 2359 2297 
Q 2359 3022 2209 3506 
Q 2097 3866 1919 4016 
Q 1791 4119 1609 4119 
Q 1397 4119 1231 3928 
Q 1006 3669 925 3112 
Q 844 2556 844 2016 
z
" transform="scale(0.015625)"/>
       </defs>
       <use xlink:href="#TimesNewRomanPSMT-30"/>
      </g>
     </g>
    </g>
    <g id="xtick_2">
     <g id="line2d_4">
      <path d="M 209.434826 365.384375 
L 209.434826 29.084375 
" clip-path="url(#p28ac54383d)" style="fill: none; stroke: #b0b0b0; stroke-linecap: square"/>
     </g>
     <g id="line2d_5">
      <g>
       <use xlink:href="#mf82e436c20" x="209.434826" y="365.384375" style="stroke: #000000"/>
      </g>
     </g>
     <g id="line2d_6">
      <g>
       <use xlink:href="#mc48f751f5c" x="209.434826" y="29.084375" style="stroke: #000000"/>
      </g>
     </g>
     <g id="text_2">
      <!-- 10000 -->
      <g transform="translate(178.184826 386.24375) scale(0.25 -0.25)">
       <defs>
        <path id="TimesNewRomanPSMT-31" d="M 750 3822 
L 1781 4325 
L 1884 4325 
L 1884 747 
Q 1884 391 1914 303 
Q 1944 216 2037 169 
Q 2131 122 2419 116 
L 2419 0 
L 825 0 
L 825 116 
Q 1125 122 1212 167 
Q 1300 213 1334 289 
Q 1369 366 1369 747 
L 1369 3034 
Q 1369 3497 1338 3628 
Q 1316 3728 1258 3775 
Q 1200 3822 1119 3822 
Q 1003 3822 797 3725 
L 750 3822 
z
" transform="scale(0.015625)"/>
       </defs>
       <use xlink:href="#TimesNewRomanPSMT-31"/>
       <use xlink:href="#TimesNewRomanPSMT-30" transform="translate(50 0)"/>
       <use xlink:href="#TimesNewRomanPSMT-30" transform="translate(100 0)"/>
       <use xlink:href="#TimesNewRomanPSMT-30" transform="translate(150 0)"/>
       <use xlink:href="#TimesNewRomanPSMT-30" transform="translate(200 0)"/>
      </g>
     </g>
    </g>
    <g id="xtick_3">
     <g id="line2d_7">
      <path d="M 324.814537 365.384375 
L 324.814537 29.084375 
" clip-path="url(#p28ac54383d)" style="fill: none; stroke: #b0b0b0; stroke-linecap: square"/>
     </g>
     <g id="line2d_8">
      <g>
       <use xlink:href="#mf82e436c20" x="324.814537" y="365.384375" style="stroke: #000000"/>
      </g>
     </g>
     <g id="line2d_9">
      <g>
       <use xlink:href="#mc48f751f5c" x="324.814537" y="29.084375" style="stroke: #000000"/>
      </g>
     </g>
     <g id="text_3">
      <!-- 20000 -->
      <g transform="translate(293.564537 386.24375) scale(0.25 -0.25)">
       <defs>
        <path id="TimesNewRomanPSMT-32" d="M 2934 816 
L 2638 0 
L 138 0 
L 138 116 
Q 1241 1122 1691 1759 
Q 2141 2397 2141 2925 
Q 2141 3328 1894 3587 
Q 1647 3847 1303 3847 
Q 991 3847 742 3664 
Q 494 3481 375 3128 
L 259 3128 
Q 338 3706 661 4015 
Q 984 4325 1469 4325 
Q 1984 4325 2329 3994 
Q 2675 3663 2675 3213 
Q 2675 2891 2525 2569 
Q 2294 2063 1775 1497 
Q 997 647 803 472 
L 1909 472 
Q 2247 472 2383 497 
Q 2519 522 2628 598 
Q 2738 675 2819 816 
L 2934 816 
z
" transform="scale(0.015625)"/>
       </defs>
       <use xlink:href="#TimesNewRomanPSMT-32"/>
       <use xlink:href="#TimesNewRomanPSMT-30" transform="translate(50 0)"/>
       <use xlink:href="#TimesNewRomanPSMT-30" transform="translate(100 0)"/>
       <use xlink:href="#TimesNewRomanPSMT-30" transform="translate(150 0)"/>
       <use xlink:href="#TimesNewRomanPSMT-30" transform="translate(200 0)"/>
      </g>
     </g>
    </g>
    <g id="xtick_4">
     <g id="line2d_10">
      <path d="M 440.194248 365.384375 
L 440.194248 29.084375 
" clip-path="url(#p28ac54383d)" style="fill: none; stroke: #b0b0b0; stroke-linecap: square"/>
     </g>
     <g id="line2d_11">
      <g>
       <use xlink:href="#mf82e436c20" x="440.194248" y="365.384375" style="stroke: #000000"/>
      </g>
     </g>
     <g id="line2d_12">
      <g>
       <use xlink:href="#mc48f751f5c" x="440.194248" y="29.084375" style="stroke: #000000"/>
      </g>
     </g>
     <g id="text_4">
      <!-- 30000 -->
      <g transform="translate(408.944248 386.24375) scale(0.25 -0.25)">
       <defs>
        <path id="TimesNewRomanPSMT-33" d="M 325 3431 
Q 506 3859 782 4092 
Q 1059 4325 1472 4325 
Q 1981 4325 2253 3994 
Q 2459 3747 2459 3466 
Q 2459 3003 1878 2509 
Q 2269 2356 2469 2072 
Q 2669 1788 2669 1403 
Q 2669 853 2319 450 
Q 1863 -75 997 -75 
Q 569 -75 414 31 
Q 259 138 259 259 
Q 259 350 332 419 
Q 406 488 509 488 
Q 588 488 669 463 
Q 722 447 909 348 
Q 1097 250 1169 231 
Q 1284 197 1416 197 
Q 1734 197 1970 444 
Q 2206 691 2206 1028 
Q 2206 1275 2097 1509 
Q 2016 1684 1919 1775 
Q 1784 1900 1550 2001 
Q 1316 2103 1072 2103 
L 972 2103 
L 972 2197 
Q 1219 2228 1467 2375 
Q 1716 2522 1828 2728 
Q 1941 2934 1941 3181 
Q 1941 3503 1739 3701 
Q 1538 3900 1238 3900 
Q 753 3900 428 3381 
L 325 3431 
z
" transform="scale(0.015625)"/>
       </defs>
       <use xlink:href="#TimesNewRomanPSMT-33"/>
       <use xlink:href="#TimesNewRomanPSMT-30" transform="translate(50 0)"/>
       <use xlink:href="#TimesNewRomanPSMT-30" transform="translate(100 0)"/>
       <use xlink:href="#TimesNewRomanPSMT-30" transform="translate(150 0)"/>
       <use xlink:href="#TimesNewRomanPSMT-30" transform="translate(200 0)"/>
      </g>
     </g>
    </g>
    <g id="xtick_5">
     <g id="line2d_13">
      <path d="M 555.573958 365.384375 
L 555.573958 29.084375 
" clip-path="url(#p28ac54383d)" style="fill: none; stroke: #b0b0b0; stroke-linecap: square"/>
     </g>
     <g id="line2d_14">
      <g>
       <use xlink:href="#mf82e436c20" x="555.573958" y="365.384375" style="stroke: #000000"/>
      </g>
     </g>
     <g id="line2d_15">
      <g>
       <use xlink:href="#mc48f751f5c" x="555.573958" y="29.084375" style="stroke: #000000"/>
      </g>
     </g>
     <g id="text_5">
      <!-- 40000 -->
      <g transform="translate(524.323958 386.24375) scale(0.25 -0.25)">
       <defs>
        <path id="TimesNewRomanPSMT-34" d="M 2978 1563 
L 2978 1119 
L 2409 1119 
L 2409 0 
L 1894 0 
L 1894 1119 
L 100 1119 
L 100 1519 
L 2066 4325 
L 2409 4325 
L 2409 1563 
L 2978 1563 
z
M 1894 1563 
L 1894 3666 
L 406 1563 
L 1894 1563 
z
" transform="scale(0.015625)"/>
       </defs>
       <use xlink:href="#TimesNewRomanPSMT-34"/>
       <use xlink:href="#TimesNewRomanPSMT-30" transform="translate(50 0)"/>
       <use xlink:href="#TimesNewRomanPSMT-30" transform="translate(100 0)"/>
       <use xlink:href="#TimesNewRomanPSMT-30" transform="translate(150 0)"/>
       <use xlink:href="#TimesNewRomanPSMT-30" transform="translate(200 0)"/>
      </g>
     </g>
    </g>
    <g id="xtick_6">
     <g id="line2d_16">
      <path d="M 670.953669 365.384375 
L 670.953669 29.084375 
" clip-path="url(#p28ac54383d)" style="fill: none; stroke: #b0b0b0; stroke-linecap: square"/>
     </g>
     <g id="line2d_17">
      <g>
       <use xlink:href="#mf82e436c20" x="670.953669" y="365.384375" style="stroke: #000000"/>
      </g>
     </g>
     <g id="line2d_18">
      <g>
       <use xlink:href="#mc48f751f5c" x="670.953669" y="29.084375" style="stroke: #000000"/>
      </g>
     </g>
     <g id="text_6">
      <!-- 50000 -->
      <g transform="translate(639.703669 386.24375) scale(0.25 -0.25)">
       <defs>
        <path id="TimesNewRomanPSMT-35" d="M 2778 4238 
L 2534 3706 
L 1259 3706 
L 981 3138 
Q 1809 3016 2294 2522 
Q 2709 2097 2709 1522 
Q 2709 1188 2573 903 
Q 2438 619 2231 419 
Q 2025 219 1772 97 
Q 1413 -75 1034 -75 
Q 653 -75 479 54 
Q 306 184 306 341 
Q 306 428 378 495 
Q 450 563 559 563 
Q 641 563 702 538 
Q 763 513 909 409 
Q 1144 247 1384 247 
Q 1750 247 2026 523 
Q 2303 800 2303 1197 
Q 2303 1581 2056 1914 
Q 1809 2247 1375 2428 
Q 1034 2569 447 2591 
L 1259 4238 
L 2778 4238 
z
" transform="scale(0.015625)"/>
       </defs>
       <use xlink:href="#TimesNewRomanPSMT-35"/>
       <use xlink:href="#TimesNewRomanPSMT-30" transform="translate(50 0)"/>
       <use xlink:href="#TimesNewRomanPSMT-30" transform="translate(100 0)"/>
       <use xlink:href="#TimesNewRomanPSMT-30" transform="translate(150 0)"/>
       <use xlink:href="#TimesNewRomanPSMT-30" transform="translate(200 0)"/>
      </g>
     </g>
    </g>
    <g id="xtick_7">
     <g id="line2d_19">
      <defs>
       <path id="mffeb864132" d="M 0 0 
L 0 -3 
" style="stroke: #000000"/>
      </defs>
      <g>
       <use xlink:href="#mffeb864132" x="70.979173" y="365.384375" style="stroke: #000000"/>
      </g>
     </g>
     <g id="line2d_20">
      <defs>
       <path id="m68dc4e114b" d="M 0 0 
L 0 3 
" style="stroke: #000000"/>
      </defs>
      <g>
       <use xlink:href="#m68dc4e114b" x="70.979173" y="29.084375" style="stroke: #000000"/>
      </g>
     </g>
    </g>
    <g id="xtick_8">
     <g id="line2d_21">
      <g>
       <use xlink:href="#mffeb864132" x="117.131058" y="365.384375" style="stroke: #000000"/>
      </g>
     </g>
     <g id="line2d_22">
      <g>
       <use xlink:href="#m68dc4e114b" x="117.131058" y="29.084375" style="stroke: #000000"/>
      </g>
     </g>
    </g>
    <g id="xtick_9">
     <g id="line2d_23">
      <g>
       <use xlink:href="#mffeb864132" x="140.207" y="365.384375" style="stroke: #000000"/>
      </g>
     </g>
     <g id="line2d_24">
      <g>
       <use xlink:href="#m68dc4e114b" x="140.207" y="29.084375" style="stroke: #000000"/>
      </g>
     </g>
    </g>
    <g id="xtick_10">
     <g id="line2d_25">
      <g>
       <use xlink:href="#mffeb864132" x="163.282942" y="365.384375" style="stroke: #000000"/>
      </g>
     </g>
     <g id="line2d_26">
      <g>
       <use xlink:href="#m68dc4e114b" x="163.282942" y="29.084375" style="stroke: #000000"/>
      </g>
     </g>
    </g>
    <g id="xtick_11">
     <g id="line2d_27">
      <g>
       <use xlink:href="#mffeb864132" x="186.358884" y="365.384375" style="stroke: #000000"/>
      </g>
     </g>
     <g id="line2d_28">
      <g>
       <use xlink:href="#m68dc4e114b" x="186.358884" y="29.084375" style="stroke: #000000"/>
      </g>
     </g>
    </g>
    <g id="xtick_12">
     <g id="line2d_29">
      <g>
       <use xlink:href="#mffeb864132" x="232.510768" y="365.384375" style="stroke: #000000"/>
      </g>
     </g>
     <g id="line2d_30">
      <g>
       <use xlink:href="#m68dc4e114b" x="232.510768" y="29.084375" style="stroke: #000000"/>
      </g>
     </g>
    </g>
    <g id="xtick_13">
     <g id="line2d_31">
      <g>
       <use xlink:href="#mffeb864132" x="255.58671" y="365.384375" style="stroke: #000000"/>
      </g>
     </g>
     <g id="line2d_32">
      <g>
       <use xlink:href="#m68dc4e114b" x="255.58671" y="29.084375" style="stroke: #000000"/>
      </g>
     </g>
    </g>
    <g id="xtick_14">
     <g id="line2d_33">
      <g>
       <use xlink:href="#mffeb864132" x="278.662653" y="365.384375" style="stroke: #000000"/>
      </g>
     </g>
     <g id="line2d_34">
      <g>
       <use xlink:href="#m68dc4e114b" x="278.662653" y="29.084375" style="stroke: #000000"/>
      </g>
     </g>
    </g>
    <g id="xtick_15">
     <g id="line2d_35">
      <g>
       <use xlink:href="#mffeb864132" x="301.738595" y="365.384375" style="stroke: #000000"/>
      </g>
     </g>
     <g id="line2d_36">
      <g>
       <use xlink:href="#m68dc4e114b" x="301.738595" y="29.084375" style="stroke: #000000"/>
      </g>
     </g>
    </g>
    <g id="xtick_16">
     <g id="line2d_37">
      <g>
       <use xlink:href="#mffeb864132" x="347.890479" y="365.384375" style="stroke: #000000"/>
      </g>
     </g>
     <g id="line2d_38">
      <g>
       <use xlink:href="#m68dc4e114b" x="347.890479" y="29.084375" style="stroke: #000000"/>
      </g>
     </g>
    </g>
    <g id="xtick_17">
     <g id="line2d_39">
      <g>
       <use xlink:href="#mffeb864132" x="370.966421" y="365.384375" style="stroke: #000000"/>
      </g>
     </g>
     <g id="line2d_40">
      <g>
       <use xlink:href="#m68dc4e114b" x="370.966421" y="29.084375" style="stroke: #000000"/>
      </g>
     </g>
    </g>
    <g id="xtick_18">
     <g id="line2d_41">
      <g>
       <use xlink:href="#mffeb864132" x="394.042363" y="365.384375" style="stroke: #000000"/>
      </g>
     </g>
     <g id="line2d_42">
      <g>
       <use xlink:href="#m68dc4e114b" x="394.042363" y="29.084375" style="stroke: #000000"/>
      </g>
     </g>
    </g>
    <g id="xtick_19">
     <g id="line2d_43">
      <g>
       <use xlink:href="#mffeb864132" x="417.118305" y="365.384375" style="stroke: #000000"/>
      </g>
     </g>
     <g id="line2d_44">
      <g>
       <use xlink:href="#m68dc4e114b" x="417.118305" y="29.084375" style="stroke: #000000"/>
      </g>
     </g>
    </g>
    <g id="xtick_20">
     <g id="line2d_45">
      <g>
       <use xlink:href="#mffeb864132" x="463.27019" y="365.384375" style="stroke: #000000"/>
      </g>
     </g>
     <g id="line2d_46">
      <g>
       <use xlink:href="#m68dc4e114b" x="463.27019" y="29.084375" style="stroke: #000000"/>
      </g>
     </g>
    </g>
    <g id="xtick_21">
     <g id="line2d_47">
      <g>
       <use xlink:href="#mffeb864132" x="486.346132" y="365.384375" style="stroke: #000000"/>
      </g>
     </g>
     <g id="line2d_48">
      <g>
       <use xlink:href="#m68dc4e114b" x="486.346132" y="29.084375" style="stroke: #000000"/>
      </g>
     </g>
    </g>
    <g id="xtick_22">
     <g id="line2d_49">
      <g>
       <use xlink:href="#mffeb864132" x="509.422074" y="365.384375" style="stroke: #000000"/>
      </g>
     </g>
     <g id="line2d_50">
      <g>
       <use xlink:href="#m68dc4e114b" x="509.422074" y="29.084375" style="stroke: #000000"/>
      </g>
     </g>
    </g>
    <g id="xtick_23">
     <g id="line2d_51">
      <g>
       <use xlink:href="#mffeb864132" x="532.498016" y="365.384375" style="stroke: #000000"/>
      </g>
     </g>
     <g id="line2d_52">
      <g>
       <use xlink:href="#m68dc4e114b" x="532.498016" y="29.084375" style="stroke: #000000"/>
      </g>
     </g>
    </g>
    <g id="xtick_24">
     <g id="line2d_53">
      <g>
       <use xlink:href="#mffeb864132" x="578.6499" y="365.384375" style="stroke: #000000"/>
      </g>
     </g>
     <g id="line2d_54">
      <g>
       <use xlink:href="#m68dc4e114b" x="578.6499" y="29.084375" style="stroke: #000000"/>
      </g>
     </g>
    </g>
    <g id="xtick_25">
     <g id="line2d_55">
      <g>
       <use xlink:href="#mffeb864132" x="601.725843" y="365.384375" style="stroke: #000000"/>
      </g>
     </g>
     <g id="line2d_56">
      <g>
       <use xlink:href="#m68dc4e114b" x="601.725843" y="29.084375" style="stroke: #000000"/>
      </g>
     </g>
    </g>
    <g id="xtick_26">
     <g id="line2d_57">
      <g>
       <use xlink:href="#mffeb864132" x="624.801785" y="365.384375" style="stroke: #000000"/>
      </g>
     </g>
     <g id="line2d_58">
      <g>
       <use xlink:href="#m68dc4e114b" x="624.801785" y="29.084375" style="stroke: #000000"/>
      </g>
     </g>
    </g>
    <g id="xtick_27">
     <g id="line2d_59">
      <g>
       <use xlink:href="#mffeb864132" x="647.877727" y="365.384375" style="stroke: #000000"/>
      </g>
     </g>
     <g id="line2d_60">
      <g>
       <use xlink:href="#m68dc4e114b" x="647.877727" y="29.084375" style="stroke: #000000"/>
      </g>
     </g>
    </g>
    <g id="xtick_28">
     <g id="line2d_61">
      <g>
       <use xlink:href="#mffeb864132" x="694.029611" y="365.384375" style="stroke: #000000"/>
      </g>
     </g>
     <g id="line2d_62">
      <g>
       <use xlink:href="#m68dc4e114b" x="694.029611" y="29.084375" style="stroke: #000000"/>
      </g>
     </g>
    </g>
    <g id="text_7">
     <!-- Time (μs) -->
     <g transform="translate(335.078925 412.950781) scale(0.25 -0.25)">
      <defs>
       <path id="TimesNewRomanPSMT-54" d="M 3703 4238 
L 3750 3244 
L 3631 3244 
Q 3597 3506 3538 3619 
Q 3441 3800 3280 3886 
Q 3119 3972 2856 3972 
L 2259 3972 
L 2259 734 
Q 2259 344 2344 247 
Q 2463 116 2709 116 
L 2856 116 
L 2856 0 
L 1059 0 
L 1059 116 
L 1209 116 
Q 1478 116 1591 278 
Q 1659 378 1659 734 
L 1659 3972 
L 1150 3972 
Q 853 3972 728 3928 
Q 566 3869 450 3700 
Q 334 3531 313 3244 
L 194 3244 
L 244 4238 
L 3703 4238 
z
" transform="scale(0.015625)"/>
       <path id="TimesNewRomanPSMT-69" d="M 928 4444 
Q 1059 4444 1151 4351 
Q 1244 4259 1244 4128 
Q 1244 3997 1151 3903 
Q 1059 3809 928 3809 
Q 797 3809 703 3903 
Q 609 3997 609 4128 
Q 609 4259 701 4351 
Q 794 4444 928 4444 
z
M 1188 2947 
L 1188 647 
Q 1188 378 1227 289 
Q 1266 200 1342 156 
Q 1419 113 1622 113 
L 1622 0 
L 231 0 
L 231 113 
Q 441 113 512 153 
Q 584 194 626 287 
Q 669 381 669 647 
L 669 1750 
Q 669 2216 641 2353 
Q 619 2453 572 2492 
Q 525 2531 444 2531 
Q 356 2531 231 2484 
L 188 2597 
L 1050 2947 
L 1188 2947 
z
" transform="scale(0.015625)"/>
       <path id="TimesNewRomanPSMT-6d" d="M 1050 2338 
Q 1363 2650 1419 2697 
Q 1559 2816 1721 2881 
Q 1884 2947 2044 2947 
Q 2313 2947 2506 2790 
Q 2700 2634 2766 2338 
Q 3088 2713 3309 2830 
Q 3531 2947 3766 2947 
Q 3994 2947 4170 2830 
Q 4347 2713 4450 2447 
Q 4519 2266 4519 1878 
L 4519 647 
Q 4519 378 4559 278 
Q 4591 209 4675 161 
Q 4759 113 4950 113 
L 4950 0 
L 3538 0 
L 3538 113 
L 3597 113 
Q 3781 113 3884 184 
Q 3956 234 3988 344 
Q 4000 397 4000 647 
L 4000 1878 
Q 4000 2228 3916 2372 
Q 3794 2572 3525 2572 
Q 3359 2572 3192 2489 
Q 3025 2406 2788 2181 
L 2781 2147 
L 2788 2013 
L 2788 647 
Q 2788 353 2820 281 
Q 2853 209 2943 161 
Q 3034 113 3253 113 
L 3253 0 
L 1806 0 
L 1806 113 
Q 2044 113 2133 169 
Q 2222 225 2256 338 
Q 2272 391 2272 647 
L 2272 1878 
Q 2272 2228 2169 2381 
Q 2031 2581 1784 2581 
Q 1616 2581 1450 2491 
Q 1191 2353 1050 2181 
L 1050 647 
Q 1050 366 1089 281 
Q 1128 197 1204 155 
Q 1281 113 1516 113 
L 1516 0 
L 100 0 
L 100 113 
Q 297 113 375 155 
Q 453 197 493 289 
Q 534 381 534 647 
L 534 1741 
Q 534 2213 506 2350 
Q 484 2453 437 2492 
Q 391 2531 309 2531 
Q 222 2531 100 2484 
L 53 2597 
L 916 2947 
L 1050 2947 
L 1050 2338 
z
" transform="scale(0.015625)"/>
       <path id="TimesNewRomanPSMT-65" d="M 681 1784 
Q 678 1147 991 784 
Q 1303 422 1725 422 
Q 2006 422 2214 576 
Q 2422 731 2563 1106 
L 2659 1044 
Q 2594 616 2278 264 
Q 1963 -88 1488 -88 
Q 972 -88 605 314 
Q 238 716 238 1394 
Q 238 2128 614 2539 
Q 991 2950 1559 2950 
Q 2041 2950 2350 2633 
Q 2659 2316 2659 1784 
L 681 1784 
z
M 681 1966 
L 2006 1966 
Q 1991 2241 1941 2353 
Q 1863 2528 1708 2628 
Q 1553 2728 1384 2728 
Q 1125 2728 920 2526 
Q 716 2325 681 1966 
z
" transform="scale(0.015625)"/>
       <path id="TimesNewRomanPSMT-20" transform="scale(0.015625)"/>
       <path id="TimesNewRomanPSMT-28" d="M 1988 -1253 
L 1988 -1369 
Q 1516 -1131 1200 -813 
Q 750 -359 506 256 
Q 263 872 263 1534 
Q 263 2503 741 3301 
Q 1219 4100 1988 4444 
L 1988 4313 
Q 1603 4100 1356 3731 
Q 1109 3363 987 2797 
Q 866 2231 866 1616 
Q 866 947 969 400 
Q 1050 -31 1165 -292 
Q 1281 -553 1476 -793 
Q 1672 -1034 1988 -1253 
z
" transform="scale(0.015625)"/>
       <path id="TimesNewRomanPSMT-3bc" d="M 2275 519 
Q 1709 -88 1291 -88 
Q 1022 -88 791 119 
L 791 -47 
Q 791 -334 878 -625 
Q 978 -947 978 -1050 
Q 978 -1194 887 -1287 
Q 797 -1381 663 -1381 
Q 525 -1381 444 -1272 
Q 363 -1163 363 -1009 
Q 363 -897 444 -603 
Q 538 -278 538 28 
L 538 2863 
L 1053 2863 
L 1053 1009 
Q 1053 728 1101 597 
Q 1150 466 1273 383 
Q 1397 300 1553 300 
Q 1831 300 2275 681 
L 2275 2863 
L 2794 2863 
L 2794 691 
Q 2794 416 2850 311 
Q 2906 206 3041 206 
Q 3253 206 3316 622 
L 3428 622 
Q 3369 -88 2828 -88 
Q 2594 -88 2439 70 
Q 2284 228 2275 519 
z
" transform="scale(0.015625)"/>
       <path id="TimesNewRomanPSMT-73" d="M 2050 2947 
L 2050 1972 
L 1947 1972 
Q 1828 2431 1642 2597 
Q 1456 2763 1169 2763 
Q 950 2763 815 2647 
Q 681 2531 681 2391 
Q 681 2216 781 2091 
Q 878 1963 1175 1819 
L 1631 1597 
Q 2266 1288 2266 781 
Q 2266 391 1970 151 
Q 1675 -88 1309 -88 
Q 1047 -88 709 6 
Q 606 38 541 38 
Q 469 38 428 -44 
L 325 -44 
L 325 978 
L 428 978 
Q 516 541 762 319 
Q 1009 97 1316 97 
Q 1531 97 1667 223 
Q 1803 350 1803 528 
Q 1803 744 1651 891 
Q 1500 1038 1047 1263 
Q 594 1488 453 1669 
Q 313 1847 313 2119 
Q 313 2472 555 2709 
Q 797 2947 1181 2947 
Q 1350 2947 1591 2875 
Q 1750 2828 1803 2828 
Q 1853 2828 1881 2850 
Q 1909 2872 1947 2947 
L 2050 2947 
z
" transform="scale(0.015625)"/>
       <path id="TimesNewRomanPSMT-29" d="M 144 4313 
L 144 4444 
Q 619 4209 934 3891 
Q 1381 3434 1625 2820 
Q 1869 2206 1869 1541 
Q 1869 572 1392 -226 
Q 916 -1025 144 -1369 
L 144 -1253 
Q 528 -1038 776 -670 
Q 1025 -303 1145 264 
Q 1266 831 1266 1447 
Q 1266 2113 1163 2663 
Q 1084 3094 967 3353 
Q 850 3613 656 3853 
Q 463 4094 144 4313 
z
" transform="scale(0.015625)"/>
      </defs>
      <use xlink:href="#TimesNewRomanPSMT-54"/>
      <use xlink:href="#TimesNewRomanPSMT-69" transform="translate(57.583984 0)"/>
      <use xlink:href="#TimesNewRomanPSMT-6d" transform="translate(85.367188 0)"/>
      <use xlink:href="#TimesNewRomanPSMT-65" transform="translate(163.150391 0)"/>
      <use xlink:href="#TimesNewRomanPSMT-20" transform="translate(207.535156 0)"/>
      <use xlink:href="#TimesNewRomanPSMT-28" transform="translate(232.535156 0)"/>
      <use xlink:href="#TimesNewRomanPSMT-3bc" transform="translate(265.835938 0)"/>
      <use xlink:href="#TimesNewRomanPSMT-73" transform="translate(319.449219 0)"/>
      <use xlink:href="#TimesNewRomanPSMT-29" transform="translate(358.365234 0)"/>
     </g>
    </g>
   </g>
   <g id="matplotlib.axis_2">
    <g id="ytick_1">
     <g id="line2d_63">
      <path d="M 65.057031 350.098011 
L 703.014882 350.098011 
" clip-path="url(#p28ac54383d)" style="fill: none; stroke: #b0b0b0; stroke-linecap: square"/>
     </g>
     <g id="line2d_64">
      <defs>
       <path id="m07a9a213bf" d="M 0 0 
L 6 0 
" style="stroke: #000000"/>
      </defs>
      <g>
       <use xlink:href="#m07a9a213bf" x="65.057031" y="350.098011" style="stroke: #000000"/>
      </g>
     </g>
     <g id="line2d_65">
      <defs>
       <path id="m87941049a0" d="M 0 0 
L -6 0 
" style="stroke: #000000"/>
      </defs>
      <g>
       <use xlink:href="#m87941049a0" x="703.014882" y="350.098011" style="stroke: #000000"/>
      </g>
     </g>
     <g id="text_8">
      <!-- 0.0 -->
      <g transform="translate(30.307031 358.777699) scale(0.25 -0.25)">
       <defs>
        <path id="TimesNewRomanPSMT-2e" d="M 800 606 
Q 947 606 1047 504 
Q 1147 403 1147 259 
Q 1147 116 1045 14 
Q 944 -88 800 -88 
Q 656 -88 554 14 
Q 453 116 453 259 
Q 453 406 554 506 
Q 656 606 800 606 
z
" transform="scale(0.015625)"/>
       </defs>
       <use xlink:href="#TimesNewRomanPSMT-30"/>
       <use xlink:href="#TimesNewRomanPSMT-2e" transform="translate(50 0)"/>
       <use xlink:href="#TimesNewRomanPSMT-30" transform="translate(75 0)"/>
      </g>
     </g>
    </g>
    <g id="ytick_2">
     <g id="line2d_66">
      <path d="M 65.057031 288.952557 
L 703.014882 288.952557 
" clip-path="url(#p28ac54383d)" style="fill: none; stroke: #b0b0b0; stroke-linecap: square"/>
     </g>
     <g id="line2d_67">
      <g>
       <use xlink:href="#m07a9a213bf" x="65.057031" y="288.952557" style="stroke: #000000"/>
      </g>
     </g>
     <g id="line2d_68">
      <g>
       <use xlink:href="#m87941049a0" x="703.014882" y="288.952557" style="stroke: #000000"/>
      </g>
     </g>
     <g id="text_9">
      <!-- 0.2 -->
      <g transform="translate(30.307031 297.632244) scale(0.25 -0.25)">
       <use xlink:href="#TimesNewRomanPSMT-30"/>
       <use xlink:href="#TimesNewRomanPSMT-2e" transform="translate(50 0)"/>
       <use xlink:href="#TimesNewRomanPSMT-32" transform="translate(75 0)"/>
      </g>
     </g>
    </g>
    <g id="ytick_3">
     <g id="line2d_69">
      <path d="M 65.057031 227.807102 
L 703.014882 227.807102 
" clip-path="url(#p28ac54383d)" style="fill: none; stroke: #b0b0b0; stroke-linecap: square"/>
     </g>
     <g id="line2d_70">
      <g>
       <use xlink:href="#m07a9a213bf" x="65.057031" y="227.807102" style="stroke: #000000"/>
      </g>
     </g>
     <g id="line2d_71">
      <g>
       <use xlink:href="#m87941049a0" x="703.014882" y="227.807102" style="stroke: #000000"/>
      </g>
     </g>
     <g id="text_10">
      <!-- 0.4 -->
      <g transform="translate(30.307031 236.48679) scale(0.25 -0.25)">
       <use xlink:href="#TimesNewRomanPSMT-30"/>
       <use xlink:href="#TimesNewRomanPSMT-2e" transform="translate(50 0)"/>
       <use xlink:href="#TimesNewRomanPSMT-34" transform="translate(75 0)"/>
      </g>
     </g>
    </g>
    <g id="ytick_4">
     <g id="line2d_72">
      <path d="M 65.057031 166.661648 
L 703.014882 166.661648 
" clip-path="url(#p28ac54383d)" style="fill: none; stroke: #b0b0b0; stroke-linecap: square"/>
     </g>
     <g id="line2d_73">
      <g>
       <use xlink:href="#m07a9a213bf" x="65.057031" y="166.661648" style="stroke: #000000"/>
      </g>
     </g>
     <g id="line2d_74">
      <g>
       <use xlink:href="#m87941049a0" x="703.014882" y="166.661648" style="stroke: #000000"/>
      </g>
     </g>
     <g id="text_11">
      <!-- 0.6 -->
      <g transform="translate(30.307031 175.341335) scale(0.25 -0.25)">
       <defs>
        <path id="TimesNewRomanPSMT-36" d="M 2869 4325 
L 2869 4209 
Q 2456 4169 2195 4045 
Q 1934 3922 1679 3669 
Q 1425 3416 1258 3105 
Q 1091 2794 978 2366 
Q 1428 2675 1881 2675 
Q 2316 2675 2634 2325 
Q 2953 1975 2953 1425 
Q 2953 894 2631 456 
Q 2244 -75 1606 -75 
Q 1172 -75 869 213 
Q 275 772 275 1663 
Q 275 2231 503 2743 
Q 731 3256 1154 3653 
Q 1578 4050 1965 4187 
Q 2353 4325 2688 4325 
L 2869 4325 
z
M 925 2138 
Q 869 1716 869 1456 
Q 869 1156 980 804 
Q 1091 453 1309 247 
Q 1469 100 1697 100 
Q 1969 100 2183 356 
Q 2397 613 2397 1088 
Q 2397 1622 2184 2012 
Q 1972 2403 1581 2403 
Q 1463 2403 1327 2353 
Q 1191 2303 925 2138 
z
" transform="scale(0.015625)"/>
       </defs>
       <use xlink:href="#TimesNewRomanPSMT-30"/>
       <use xlink:href="#TimesNewRomanPSMT-2e" transform="translate(50 0)"/>
       <use xlink:href="#TimesNewRomanPSMT-36" transform="translate(75 0)"/>
      </g>
     </g>
    </g>
    <g id="ytick_5">
     <g id="line2d_75">
      <path d="M 65.057031 105.516193 
L 703.014882 105.516193 
" clip-path="url(#p28ac54383d)" style="fill: none; stroke: #b0b0b0; stroke-linecap: square"/>
     </g>
     <g id="line2d_76">
      <g>
       <use xlink:href="#m07a9a213bf" x="65.057031" y="105.516193" style="stroke: #000000"/>
      </g>
     </g>
     <g id="line2d_77">
      <g>
       <use xlink:href="#m87941049a0" x="703.014882" y="105.516193" style="stroke: #000000"/>
      </g>
     </g>
     <g id="text_12">
      <!-- 0.8 -->
      <g transform="translate(30.307031 114.195881) scale(0.25 -0.25)">
       <defs>
        <path id="TimesNewRomanPSMT-38" d="M 1228 2134 
Q 725 2547 579 2797 
Q 434 3047 434 3316 
Q 434 3728 753 4026 
Q 1072 4325 1600 4325 
Q 2113 4325 2425 4047 
Q 2738 3769 2738 3413 
Q 2738 3175 2569 2928 
Q 2400 2681 1866 2347 
Q 2416 1922 2594 1678 
Q 2831 1359 2831 1006 
Q 2831 559 2490 242 
Q 2150 -75 1597 -75 
Q 994 -75 656 303 
Q 388 606 388 966 
Q 388 1247 577 1523 
Q 766 1800 1228 2134 
z
M 1719 2469 
Q 2094 2806 2194 3001 
Q 2294 3197 2294 3444 
Q 2294 3772 2109 3958 
Q 1925 4144 1606 4144 
Q 1288 4144 1088 3959 
Q 888 3775 888 3528 
Q 888 3366 970 3203 
Q 1053 3041 1206 2894 
L 1719 2469 
z
M 1375 2016 
Q 1116 1797 991 1539 
Q 866 1281 866 981 
Q 866 578 1086 336 
Q 1306 94 1647 94 
Q 1984 94 2187 284 
Q 2391 475 2391 747 
Q 2391 972 2272 1150 
Q 2050 1481 1375 2016 
z
" transform="scale(0.015625)"/>
       </defs>
       <use xlink:href="#TimesNewRomanPSMT-30"/>
       <use xlink:href="#TimesNewRomanPSMT-2e" transform="translate(50 0)"/>
       <use xlink:href="#TimesNewRomanPSMT-38" transform="translate(75 0)"/>
      </g>
     </g>
    </g>
    <g id="ytick_6">
     <g id="line2d_78">
      <path d="M 65.057031 44.370739 
L 703.014882 44.370739 
" clip-path="url(#p28ac54383d)" style="fill: none; stroke: #b0b0b0; stroke-linecap: square"/>
     </g>
     <g id="line2d_79">
      <g>
       <use xlink:href="#m07a9a213bf" x="65.057031" y="44.370739" style="stroke: #000000"/>
      </g>
     </g>
     <g id="line2d_80">
      <g>
       <use xlink:href="#m87941049a0" x="703.014882" y="44.370739" style="stroke: #000000"/>
      </g>
     </g>
     <g id="text_13">
      <!-- 1.0 -->
      <g transform="translate(30.307031 53.050426) scale(0.25 -0.25)">
       <use xlink:href="#TimesNewRomanPSMT-31"/>
       <use xlink:href="#TimesNewRomanPSMT-2e" transform="translate(50 0)"/>
       <use xlink:href="#TimesNewRomanPSMT-30" transform="translate(75 0)"/>
      </g>
     </g>
    </g>
    <g id="ytick_7">
     <g id="line2d_81">
      <defs>
       <path id="mef5b9dbb3f" d="M 0 0 
L 3 0 
" style="stroke: #000000"/>
      </defs>
      <g>
       <use xlink:href="#mef5b9dbb3f" x="65.057031" y="365.384375" style="stroke: #000000"/>
      </g>
     </g>
     <g id="line2d_82">
      <defs>
       <path id="m9dc473a8ac" d="M 0 0 
L -3 0 
" style="stroke: #000000"/>
      </defs>
      <g>
       <use xlink:href="#m9dc473a8ac" x="703.014882" y="365.384375" style="stroke: #000000"/>
      </g>
     </g>
    </g>
    <g id="ytick_8">
     <g id="line2d_83">
      <g>
       <use xlink:href="#mef5b9dbb3f" x="65.057031" y="334.811648" style="stroke: #000000"/>
      </g>
     </g>
     <g id="line2d_84">
      <g>
       <use xlink:href="#m9dc473a8ac" x="703.014882" y="334.811648" style="stroke: #000000"/>
      </g>
     </g>
    </g>
    <g id="ytick_9">
     <g id="line2d_85">
      <g>
       <use xlink:href="#mef5b9dbb3f" x="65.057031" y="319.525284" style="stroke: #000000"/>
      </g>
     </g>
     <g id="line2d_86">
      <g>
       <use xlink:href="#m9dc473a8ac" x="703.014882" y="319.525284" style="stroke: #000000"/>
      </g>
     </g>
    </g>
    <g id="ytick_10">
     <g id="line2d_87">
      <g>
       <use xlink:href="#mef5b9dbb3f" x="65.057031" y="304.23892" style="stroke: #000000"/>
      </g>
     </g>
     <g id="line2d_88">
      <g>
       <use xlink:href="#m9dc473a8ac" x="703.014882" y="304.23892" style="stroke: #000000"/>
      </g>
     </g>
    </g>
    <g id="ytick_11">
     <g id="line2d_89">
      <g>
       <use xlink:href="#mef5b9dbb3f" x="65.057031" y="273.666193" style="stroke: #000000"/>
      </g>
     </g>
     <g id="line2d_90">
      <g>
       <use xlink:href="#m9dc473a8ac" x="703.014882" y="273.666193" style="stroke: #000000"/>
      </g>
     </g>
    </g>
    <g id="ytick_12">
     <g id="line2d_91">
      <g>
       <use xlink:href="#mef5b9dbb3f" x="65.057031" y="258.37983" style="stroke: #000000"/>
      </g>
     </g>
     <g id="line2d_92">
      <g>
       <use xlink:href="#m9dc473a8ac" x="703.014882" y="258.37983" style="stroke: #000000"/>
      </g>
     </g>
    </g>
    <g id="ytick_13">
     <g id="line2d_93">
      <g>
       <use xlink:href="#mef5b9dbb3f" x="65.057031" y="243.093466" style="stroke: #000000"/>
      </g>
     </g>
     <g id="line2d_94">
      <g>
       <use xlink:href="#m9dc473a8ac" x="703.014882" y="243.093466" style="stroke: #000000"/>
      </g>
     </g>
    </g>
    <g id="ytick_14">
     <g id="line2d_95">
      <g>
       <use xlink:href="#mef5b9dbb3f" x="65.057031" y="212.520739" style="stroke: #000000"/>
      </g>
     </g>
     <g id="line2d_96">
      <g>
       <use xlink:href="#m9dc473a8ac" x="703.014882" y="212.520739" style="stroke: #000000"/>
      </g>
     </g>
    </g>
    <g id="ytick_15">
     <g id="line2d_97">
      <g>
       <use xlink:href="#mef5b9dbb3f" x="65.057031" y="197.234375" style="stroke: #000000"/>
      </g>
     </g>
     <g id="line2d_98">
      <g>
       <use xlink:href="#m9dc473a8ac" x="703.014882" y="197.234375" style="stroke: #000000"/>
      </g>
     </g>
    </g>
    <g id="ytick_16">
     <g id="line2d_99">
      <g>
       <use xlink:href="#mef5b9dbb3f" x="65.057031" y="181.948011" style="stroke: #000000"/>
      </g>
     </g>
     <g id="line2d_100">
      <g>
       <use xlink:href="#m9dc473a8ac" x="703.014882" y="181.948011" style="stroke: #000000"/>
      </g>
     </g>
    </g>
    <g id="ytick_17">
     <g id="line2d_101">
      <g>
       <use xlink:href="#mef5b9dbb3f" x="65.057031" y="151.375284" style="stroke: #000000"/>
      </g>
     </g>
     <g id="line2d_102">
      <g>
       <use xlink:href="#m9dc473a8ac" x="703.014882" y="151.375284" style="stroke: #000000"/>
      </g>
     </g>
    </g>
    <g id="ytick_18">
     <g id="line2d_103">
      <g>
       <use xlink:href="#mef5b9dbb3f" x="65.057031" y="136.08892" style="stroke: #000000"/>
      </g>
     </g>
     <g id="line2d_104">
      <g>
       <use xlink:href="#m9dc473a8ac" x="703.014882" y="136.08892" style="stroke: #000000"/>
      </g>
     </g>
    </g>
    <g id="ytick_19">
     <g id="line2d_105">
      <g>
       <use xlink:href="#mef5b9dbb3f" x="65.057031" y="120.802557" style="stroke: #000000"/>
      </g>
     </g>
     <g id="line2d_106">
      <g>
       <use xlink:href="#m9dc473a8ac" x="703.014882" y="120.802557" style="stroke: #000000"/>
      </g>
     </g>
    </g>
    <g id="ytick_20">
     <g id="line2d_107">
      <g>
       <use xlink:href="#mef5b9dbb3f" x="65.057031" y="90.22983" style="stroke: #000000"/>
      </g>
     </g>
     <g id="line2d_108">
      <g>
       <use xlink:href="#m9dc473a8ac" x="703.014882" y="90.22983" style="stroke: #000000"/>
      </g>
     </g>
    </g>
    <g id="ytick_21">
     <g id="line2d_109">
      <g>
       <use xlink:href="#mef5b9dbb3f" x="65.057031" y="74.943466" style="stroke: #000000"/>
      </g>
     </g>
     <g id="line2d_110">
      <g>
       <use xlink:href="#m9dc473a8ac" x="703.014882" y="74.943466" style="stroke: #000000"/>
      </g>
     </g>
    </g>
    <g id="ytick_22">
     <g id="line2d_111">
      <g>
       <use xlink:href="#mef5b9dbb3f" x="65.057031" y="59.657102" style="stroke: #000000"/>
      </g>
     </g>
     <g id="line2d_112">
      <g>
       <use xlink:href="#m9dc473a8ac" x="703.014882" y="59.657102" style="stroke: #000000"/>
      </g>
     </g>
    </g>
    <g id="ytick_23">
     <g id="line2d_113">
      <g>
       <use xlink:href="#mef5b9dbb3f" x="65.057031" y="29.084375" style="stroke: #000000"/>
      </g>
     </g>
     <g id="line2d_114">
      <g>
       <use xlink:href="#m9dc473a8ac" x="703.014882" y="29.084375" style="stroke: #000000"/>
      </g>
     </g>
    </g>
    <g id="text_14">
     <!-- Population -->
     <g transform="translate(20.959375 251.402344) rotate(-90) scale(0.25 -0.25)">
      <defs>
       <path id="TimesNewRomanPSMT-50" d="M 1313 1984 
L 1313 750 
Q 1313 350 1400 253 
Q 1519 116 1759 116 
L 1922 116 
L 1922 0 
L 106 0 
L 106 116 
L 266 116 
Q 534 116 650 291 
Q 713 388 713 750 
L 713 3488 
Q 713 3888 628 3984 
Q 506 4122 266 4122 
L 106 4122 
L 106 4238 
L 1659 4238 
Q 2228 4238 2556 4120 
Q 2884 4003 3109 3725 
Q 3334 3447 3334 3066 
Q 3334 2547 2992 2222 
Q 2650 1897 2025 1897 
Q 1872 1897 1694 1919 
Q 1516 1941 1313 1984 
z
M 1313 2163 
Q 1478 2131 1606 2115 
Q 1734 2100 1825 2100 
Q 2150 2100 2386 2351 
Q 2622 2603 2622 3003 
Q 2622 3278 2509 3514 
Q 2397 3750 2190 3867 
Q 1984 3984 1722 3984 
Q 1563 3984 1313 3925 
L 1313 2163 
z
" transform="scale(0.015625)"/>
       <path id="TimesNewRomanPSMT-6f" d="M 1600 2947 
Q 2250 2947 2644 2453 
Q 2978 2031 2978 1484 
Q 2978 1100 2793 706 
Q 2609 313 2286 112 
Q 1963 -88 1566 -88 
Q 919 -88 538 428 
Q 216 863 216 1403 
Q 216 1797 411 2186 
Q 606 2575 925 2761 
Q 1244 2947 1600 2947 
z
M 1503 2744 
Q 1338 2744 1170 2645 
Q 1003 2547 900 2300 
Q 797 2053 797 1666 
Q 797 1041 1045 587 
Q 1294 134 1700 134 
Q 2003 134 2200 384 
Q 2397 634 2397 1244 
Q 2397 2006 2069 2444 
Q 1847 2744 1503 2744 
z
" transform="scale(0.015625)"/>
       <path id="TimesNewRomanPSMT-70" d="M -6 2578 
L 875 2934 
L 994 2934 
L 994 2266 
Q 1216 2644 1439 2795 
Q 1663 2947 1909 2947 
Q 2341 2947 2628 2609 
Q 2981 2197 2981 1534 
Q 2981 794 2556 309 
Q 2206 -88 1675 -88 
Q 1444 -88 1275 -22 
Q 1150 25 994 166 
L 994 -706 
Q 994 -1000 1030 -1079 
Q 1066 -1159 1155 -1206 
Q 1244 -1253 1478 -1253 
L 1478 -1369 
L -22 -1369 
L -22 -1253 
L 56 -1253 
Q 228 -1256 350 -1188 
Q 409 -1153 442 -1076 
Q 475 -1000 475 -688 
L 475 2019 
Q 475 2297 450 2372 
Q 425 2447 370 2484 
Q 316 2522 222 2522 
Q 147 2522 31 2478 
L -6 2578 
z
M 994 2081 
L 994 1013 
Q 994 666 1022 556 
Q 1066 375 1236 237 
Q 1406 100 1666 100 
Q 1978 100 2172 344 
Q 2425 663 2425 1241 
Q 2425 1897 2138 2250 
Q 1938 2494 1663 2494 
Q 1513 2494 1366 2419 
Q 1253 2363 994 2081 
z
" transform="scale(0.015625)"/>
       <path id="TimesNewRomanPSMT-75" d="M 2709 2863 
L 2709 1128 
Q 2709 631 2732 520 
Q 2756 409 2807 365 
Q 2859 322 2928 322 
Q 3025 322 3147 375 
L 3191 266 
L 2334 -88 
L 2194 -88 
L 2194 519 
Q 1825 119 1631 15 
Q 1438 -88 1222 -88 
Q 981 -88 804 51 
Q 628 191 559 409 
Q 491 628 491 1028 
L 491 2306 
Q 491 2509 447 2587 
Q 403 2666 317 2708 
Q 231 2750 6 2747 
L 6 2863 
L 1009 2863 
L 1009 947 
Q 1009 547 1148 422 
Q 1288 297 1484 297 
Q 1619 297 1789 381 
Q 1959 466 2194 703 
L 2194 2325 
Q 2194 2569 2105 2655 
Q 2016 2741 1734 2747 
L 1734 2863 
L 2709 2863 
z
" transform="scale(0.015625)"/>
       <path id="TimesNewRomanPSMT-6c" d="M 1184 4444 
L 1184 647 
Q 1184 378 1223 290 
Q 1263 203 1344 158 
Q 1425 113 1647 113 
L 1647 0 
L 244 0 
L 244 113 
Q 441 113 512 153 
Q 584 194 625 287 
Q 666 381 666 647 
L 666 3247 
Q 666 3731 644 3842 
Q 622 3953 573 3993 
Q 525 4034 450 4034 
Q 369 4034 244 3984 
L 191 4094 
L 1044 4444 
L 1184 4444 
z
" transform="scale(0.015625)"/>
       <path id="TimesNewRomanPSMT-61" d="M 1822 413 
Q 1381 72 1269 19 
Q 1100 -59 909 -59 
Q 613 -59 420 144 
Q 228 347 228 678 
Q 228 888 322 1041 
Q 450 1253 767 1440 
Q 1084 1628 1822 1897 
L 1822 2009 
Q 1822 2438 1686 2597 
Q 1550 2756 1291 2756 
Q 1094 2756 978 2650 
Q 859 2544 859 2406 
L 866 2225 
Q 866 2081 792 2003 
Q 719 1925 600 1925 
Q 484 1925 411 2006 
Q 338 2088 338 2228 
Q 338 2497 613 2722 
Q 888 2947 1384 2947 
Q 1766 2947 2009 2819 
Q 2194 2722 2281 2516 
Q 2338 2381 2338 1966 
L 2338 994 
Q 2338 584 2353 492 
Q 2369 400 2405 369 
Q 2441 338 2488 338 
Q 2538 338 2575 359 
Q 2641 400 2828 588 
L 2828 413 
Q 2478 -56 2159 -56 
Q 2006 -56 1915 50 
Q 1825 156 1822 413 
z
M 1822 616 
L 1822 1706 
Q 1350 1519 1213 1441 
Q 966 1303 859 1153 
Q 753 1003 753 825 
Q 753 600 887 451 
Q 1022 303 1197 303 
Q 1434 303 1822 616 
z
" transform="scale(0.015625)"/>
       <path id="TimesNewRomanPSMT-74" d="M 1031 3803 
L 1031 2863 
L 1700 2863 
L 1700 2644 
L 1031 2644 
L 1031 788 
Q 1031 509 1111 412 
Q 1191 316 1316 316 
Q 1419 316 1516 380 
Q 1613 444 1666 569 
L 1788 569 
Q 1678 263 1478 108 
Q 1278 -47 1066 -47 
Q 922 -47 784 33 
Q 647 113 581 261 
Q 516 409 516 719 
L 516 2644 
L 63 2644 
L 63 2747 
Q 234 2816 414 2980 
Q 594 3144 734 3369 
Q 806 3488 934 3803 
L 1031 3803 
z
" transform="scale(0.015625)"/>
       <path id="TimesNewRomanPSMT-6e" d="M 1034 2341 
Q 1538 2947 1994 2947 
Q 2228 2947 2397 2830 
Q 2566 2713 2666 2444 
Q 2734 2256 2734 1869 
L 2734 647 
Q 2734 375 2778 278 
Q 2813 200 2889 156 
Q 2966 113 3172 113 
L 3172 0 
L 1756 0 
L 1756 113 
L 1816 113 
Q 2016 113 2095 173 
Q 2175 234 2206 353 
Q 2219 400 2219 647 
L 2219 1819 
Q 2219 2209 2117 2386 
Q 2016 2563 1775 2563 
Q 1403 2563 1034 2156 
L 1034 647 
Q 1034 356 1069 288 
Q 1113 197 1189 155 
Q 1266 113 1500 113 
L 1500 0 
L 84 0 
L 84 113 
L 147 113 
Q 366 113 442 223 
Q 519 334 519 647 
L 519 1709 
Q 519 2225 495 2337 
Q 472 2450 423 2490 
Q 375 2531 294 2531 
Q 206 2531 84 2484 
L 38 2597 
L 900 2947 
L 1034 2947 
L 1034 2341 
z
" transform="scale(0.015625)"/>
      </defs>
      <use xlink:href="#TimesNewRomanPSMT-50"/>
      <use xlink:href="#TimesNewRomanPSMT-6f" transform="translate(55.615234 0)"/>
      <use xlink:href="#TimesNewRomanPSMT-70" transform="translate(105.615234 0)"/>
      <use xlink:href="#TimesNewRomanPSMT-75" transform="translate(155.615234 0)"/>
      <use xlink:href="#TimesNewRomanPSMT-6c" transform="translate(205.615234 0)"/>
      <use xlink:href="#TimesNewRomanPSMT-61" transform="translate(233.398438 0)"/>
      <use xlink:href="#TimesNewRomanPSMT-74" transform="translate(277.783203 0)"/>
      <use xlink:href="#TimesNewRomanPSMT-69" transform="translate(305.566406 0)"/>
      <use xlink:href="#TimesNewRomanPSMT-6f" transform="translate(333.349609 0)"/>
      <use xlink:href="#TimesNewRomanPSMT-6e" transform="translate(383.349609 0)"/>
     </g>
    </g>
   </g>
   <g id="line2d_115">
    <path d="M 94.055115 350.098011 
L 94.635658 350.021633 
L 95.2162 349.792618 
L 95.796742 349.411221 
L 96.377284 348.877923 
L 97.538369 347.358588 
L 98.699453 345.242169 
L 99.860538 342.539198 
L 101.021622 339.263437 
L 102.182707 335.431086 
L 103.924333 328.681838 
L 105.66596 320.80031 
L 107.407587 311.87531 
L 109.729755 298.527627 
L 112.051924 283.771768 
L 114.954635 263.799764 
L 119.018431 234.116156 
L 125.404396 187.448526 
L 128.307107 167.854508 
L 130.629276 153.509746 
L 132.951444 140.659741 
L 134.693071 132.159188 
L 136.434698 124.740695 
L 138.176324 118.487854 
L 139.337409 115.001878 
L 140.498493 112.083364 
L 141.659578 109.747009 
L 142.820662 108.003318 
L 143.981747 106.862349 
L 144.562289 106.519414 
L 145.142831 106.329495 
L 145.723373 106.291572 
L 146.303916 106.406474 
L 146.884458 106.674596 
L 147.465 107.094325 
L 148.626085 108.388909 
L 149.787169 110.283116 
L 150.948253 112.768864 
L 152.109338 115.832694 
L 153.270422 119.459016 
L 155.012049 125.914181 
L 156.753676 133.521778 
L 158.495302 142.196088 
L 160.236929 151.839371 
L 162.559098 166.015283 
L 165.461809 185.449354 
L 168.945062 210.476754 
L 177.653196 273.992836 
L 180.555907 293.169379 
L 182.878076 307.075563 
L 184.619702 316.483072 
L 186.361329 324.895753 
L 188.102956 332.218816 
L 189.844582 338.369748 
L 191.005667 341.78433 
L 192.166751 344.629828 
L 193.327836 346.891984 
L 194.48892 348.559309 
L 195.650005 349.623591 
L 196.230547 349.927783 
L 196.811089 350.079448 
L 197.391631 350.07838 
L 197.972174 349.924594 
L 198.552716 349.618257 
L 199.133258 349.159802 
L 200.294343 347.788889 
L 201.455427 345.818823 
L 202.616511 343.259303 
L 203.777596 340.123258 
L 204.93868 336.426517 
L 206.680307 329.870994 
L 208.421934 322.169795 
L 210.16356 313.409694 
L 212.485729 300.254444 
L 214.807898 285.656746 
L 217.710609 265.828929 
L 221.774405 236.240047 
L 228.160369 189.45992 
L 231.06308 169.712435 
L 233.385249 155.202789 
L 235.707418 142.153519 
L 237.449045 133.484004 
L 239.190672 125.881627 
L 240.932298 119.432048 
L 242.093383 115.809378 
L 243.254467 112.749156 
L 244.415552 110.268157 
L 245.576636 108.377727 
L 246.737721 107.08714 
L 247.318263 106.669705 
L 247.898805 106.404185 
L 248.479347 106.29081 
L 249.059889 106.33095 
L 249.640432 106.52353 
L 250.220974 106.86802 
L 250.801516 107.365281 
L 251.962601 108.812268 
L 253.123685 110.858167 
L 254.284769 113.49124 
L 255.445854 116.699088 
L 256.606938 120.466197 
L 258.348565 127.121588 
L 260.090192 134.915801 
L 261.831818 143.761015 
L 264.153987 157.015427 
L 266.476156 171.694693 
L 269.378867 191.597857 
L 273.442663 221.236124 
L 279.828627 267.960782 
L 282.731338 287.629627 
L 285.053507 302.055492 
L 287.375676 315.00255 
L 289.117303 323.585561 
L 290.85893 331.093716 
L 292.600556 337.442416 
L 293.761641 340.994893 
L 294.922725 343.982049 
L 296.08381 346.389181 
L 297.244894 348.204054 
L 298.405979 349.417579 
L 298.986521 349.796865 
L 299.567063 350.023758 
L 300.147605 350.097997 
L 300.728147 350.019487 
L 301.30869 349.788327 
L 301.889232 349.40483 
L 302.469774 348.869414 
L 303.630859 347.345889 
L 304.791943 345.225261 
L 305.953027 342.518334 
L 307.114112 339.238605 
L 308.275196 335.402324 
L 310.016823 328.647606 
L 311.75845 320.760998 
L 313.500076 311.831364 
L 315.822245 298.478319 
L 318.144414 283.718318 
L 321.047125 263.741948 
L 325.110921 234.056169 
L 331.496885 187.391413 
L 334.399596 167.802395 
L 336.721765 153.461817 
L 339.043934 140.617744 
L 340.785561 132.121965 
L 342.527188 124.708666 
L 344.268814 118.461378 
L 345.429899 114.979374 
L 346.590983 112.065385 
L 347.752068 109.732475 
L 348.913152 107.993216 
L 350.074237 106.856849 
L 350.654779 106.51572 
L 351.235321 106.327567 
L 351.815863 106.292435 
L 352.396405 106.409231 
L 352.976948 106.679044 
L 353.55749 107.101538 
L 354.718574 108.399686 
L 355.879659 110.298605 
L 357.040743 112.788454 
L 358.201828 115.85571 
L 359.362912 119.486532 
L 361.104539 125.947273 
L 362.846165 133.56007 
L 364.587792 142.239143 
L 366.329419 151.886701 
L 368.651588 166.066932 
L 371.554299 185.506121 
L 375.037552 210.536659 
L 383.745686 274.048788 
L 386.648397 293.220183 
L 388.970566 307.121516 
L 390.712192 316.52461 
L 392.453819 324.932413 
L 394.195446 332.25019 
L 395.937072 338.395489 
L 397.098157 341.806158 
L 398.259241 344.647721 
L 399.420326 346.90567 
L 400.58141 348.568833 
L 401.742495 349.628904 
L 402.323037 349.930952 
L 402.903579 350.080482 
L 403.484121 350.07728 
L 404.064663 349.921365 
L 404.645206 349.612917 
L 405.225748 349.152305 
L 406.386832 347.777237 
L 407.547917 345.802962 
L 408.709001 343.239348 
L 409.870086 340.099448 
L 411.03117 336.398717 
L 412.772797 329.837654 
L 414.514423 322.131289 
L 416.25605 313.366453 
L 418.578219 300.205963 
L 420.900388 285.603656 
L 423.803099 265.771705 
L 427.866895 236.180122 
L 434.252859 189.402663 
L 437.15557 169.659405 
L 439.477739 155.154273 
L 441.799908 142.111171 
L 443.541535 133.446389 
L 445.283161 125.849164 
L 447.024788 119.405098 
L 448.185873 115.785645 
L 449.346957 112.73 
L 450.508041 110.253069 
L 451.669126 108.366228 
L 452.83021 107.080543 
L 453.410753 106.66456 
L 453.991295 106.401627 
L 454.571837 106.290636 
L 455.152379 106.33222 
L 455.732921 106.527313 
L 456.313464 106.874268 
L 456.894006 107.372956 
L 458.05509 108.824863 
L 459.216175 110.874436 
L 460.377259 113.511404 
L 461.538344 116.72387 
L 462.699428 120.494227 
L 464.441055 127.155062 
L 466.182682 134.954346 
L 467.924308 143.804199 
L 470.246477 157.064667 
L 472.568646 171.748193 
L 475.471357 191.65553 
L 479.535153 221.296511 
L 485.921117 268.01769 
L 488.823828 287.68213 
L 491.145997 302.103317 
L 493.468166 315.045001 
L 495.209793 323.623197 
L 496.951419 331.126114 
L 498.693046 337.469213 
L 499.854131 341.017654 
L 501.015215 344.000911 
L 502.176299 346.403947 
L 503.337384 348.214586 
L 504.498468 349.423936 
L 505.079011 349.80107 
L 505.659553 350.025848 
L 506.240095 350.097952 
L 506.820637 350.017317 
L 507.401179 349.784016 
L 507.981722 349.398379 
L 509.142806 348.172141 
L 510.303891 346.344819 
L 511.464975 343.925388 
L 512.626059 340.926141 
L 513.787144 337.362143 
L 514.948228 333.250942 
L 516.689855 326.104484 
L 518.431482 317.85479 
L 520.173108 308.594815 
L 522.495277 294.858697 
L 524.817446 279.787921 
L 527.720157 259.534525 
L 532.945037 221.055789 
L 537.589375 187.334675 
L 540.492086 167.750273 
L 542.814255 153.41441 
L 545.136424 140.575446 
L 546.878051 132.084501 
L 548.619677 124.676464 
L 550.361304 118.434805 
L 551.522389 114.95743 
L 552.683473 112.046942 
L 553.844557 109.718003 
L 555.005642 107.983602 
L 556.166726 106.850815 
L 556.747269 106.512463 
L 557.327811 106.32586 
L 557.908353 106.292745 
L 558.488895 106.412361 
L 559.069437 106.683788 
L 559.64998 107.108191 
L 560.811064 108.410829 
L 561.972149 110.314322 
L 563.133233 112.80751 
L 564.294318 115.8792 
L 565.455402 119.514115 
L 567.197029 125.980353 
L 568.938655 133.598272 
L 570.680282 142.282036 
L 572.421909 151.933803 
L 574.744078 166.119107 
L 577.646789 185.562519 
L 581.130042 210.596155 
L 589.838175 274.104408 
L 592.740887 293.271221 
L 595.063055 307.167258 
L 596.804682 316.565977 
L 598.546309 324.968941 
L 600.287935 332.281467 
L 602.029562 338.421161 
L 603.190647 341.828065 
L 604.351731 344.665514 
L 605.512815 346.919324 
L 606.6739 348.578369 
L 607.834984 349.634163 
L 608.415527 349.934102 
L 608.996069 350.081488 
L 609.576611 350.076156 
L 610.157153 349.918095 
L 610.737695 349.607537 
L 611.318238 349.144815 
L 612.479322 347.765527 
L 613.640407 345.787038 
L 614.801491 343.219465 
L 615.962576 340.075524 
L 617.12366 336.370865 
L 618.865287 329.804283 
L 620.606913 322.092779 
L 622.34854 313.323245 
L 624.670709 300.157189 
L 626.992878 285.550687 
L 629.895589 265.714129 
L 633.959384 236.120153 
L 640.345349 189.345204 
L 643.24806 169.606892 
L 645.570229 155.105762 
L 647.892398 142.068314 
L 649.634025 133.408232 
L 651.375651 125.816137 
L 653.117278 119.377576 
L 654.278362 115.762312 
L 655.439447 112.711047 
L 656.600531 110.237431 
L 657.761616 108.355256 
L 658.9227 107.073985 
L 659.503242 106.659988 
L 660.083785 106.398589 
L 660.664327 106.290416 
L 661.244869 106.3341 
L 661.825411 106.53067 
L 662.405954 106.880386 
L 662.986496 107.381263 
L 664.14758 108.837249 
L 665.308665 110.89041 
L 666.469749 113.532204 
L 667.630834 116.748301 
L 668.791918 120.522118 
L 670.533545 127.188477 
L 672.275171 134.99291 
L 674.016798 143.847481 
L 674.016798 143.847481 
" clip-path="url(#p28ac54383d)" style="fill: none; stroke: #0000ff; stroke-width: 4; stroke-linecap: square"/>
   </g>
   <g id="line2d_116">
    <path d="M 94.055115 44.370739 
L 95.2162 44.73272 
L 95.796742 45.057722 
L 96.957827 46.335031 
L 97.538369 47.111 
L 98.699453 49.288934 
L 99.860538 51.970467 
L 101.021622 55.208757 
L 102.763249 61.16195 
L 104.504875 68.299885 
L 106.246502 76.542139 
L 107.988129 85.795765 
L 110.310298 99.525788 
L 113.213009 118.532129 
L 116.11572 139.065049 
L 120.760058 173.295787 
L 124.823853 202.972407 
L 127.726564 222.829118 
L 130.048733 237.537594 
L 132.370902 250.78782 
L 134.693071 262.313542 
L 136.434698 269.732655 
L 137.595782 274.066659 
L 139.337409 279.502104 
L 140.498493 282.410548 
L 141.659578 284.727781 
L 142.820662 286.500142 
L 143.981747 287.630369 
L 144.562289 287.984008 
L 145.723373 288.200806 
L 146.303916 288.097104 
L 147.465 287.397806 
L 148.045542 286.838232 
L 149.206627 285.230373 
L 150.367711 283.022223 
L 151.528796 280.276595 
L 153.270422 275.047834 
L 155.012049 268.59413 
L 156.753676 260.988256 
L 158.495302 252.315841 
L 160.817471 239.22634 
L 163.13964 224.720711 
L 165.461809 209.0709 
L 169.525605 179.729852 
L 177.072654 124.505786 
L 180.555907 101.299467 
L 183.458618 84.202246 
L 185.200245 75.119345 
L 186.941871 67.063994 
L 188.102956 62.296015 
L 189.844582 56.141539 
L 191.586209 51.228233 
L 192.747294 48.637506 
L 193.908378 46.738123 
L 194.48892 45.915098 
L 195.069463 45.332067 
L 196.230547 44.549344 
L 196.811089 44.41572 
L 197.972174 44.555589 
L 198.552716 44.872803 
L 199.7138 45.933773 
L 200.294343 46.698185 
L 201.455427 48.668305 
L 202.616511 51.282526 
L 203.777596 54.356594 
L 205.519223 60.103375 
L 207.260849 67.04694 
L 209.002476 75.109107 
L 211.324645 87.500549 
L 213.646814 101.393158 
L 215.968983 116.559829 
L 220.032778 145.42161 
L 229.321454 213.138675 
L 232.224165 232.195008 
L 234.546334 246.036728 
L 236.868503 258.220289 
L 238.610129 266.189525 
L 240.351756 273.032943 
L 241.51284 276.958649 
L 243.254467 281.759574 
L 244.415552 284.212013 
L 245.576636 286.106003 
L 246.737721 287.420386 
L 247.898805 288.075492 
L 248.479347 288.216524 
L 249.059889 288.153382 
L 249.640432 287.955896 
L 250.220974 287.639391 
L 251.382058 286.465328 
L 251.962601 285.695461 
L 253.123685 283.620525 
L 254.284769 280.99434 
L 255.445854 277.809959 
L 257.187481 271.957134 
L 258.929107 264.914107 
L 260.670734 256.76014 
L 262.992903 244.299541 
L 265.315072 230.277157 
L 267.637241 215.036634 
L 271.120494 190.384446 
L 281.570254 114.552528 
L 284.472965 95.895672 
L 286.795134 82.575283 
L 289.117303 70.954934 
L 290.278387 65.7713 
L 292.020014 59.023936 
L 293.761641 53.485361 
L 295.503267 49.217997 
L 296.664352 47.126181 
L 297.244894 46.269993 
L 298.405979 45.084384 
L 298.986521 44.674564 
L 300.147605 44.408499 
L 300.728147 44.449754 
L 301.889232 45.106084 
L 302.469774 45.598096 
L 303.630859 47.16931 
L 304.211401 48.106647 
L 305.953027 51.947198 
L 307.694654 57.076414 
L 309.436281 63.436534 
L 311.177907 70.955834 
L 313.500076 82.67662 
L 315.822245 96.055022 
L 318.144414 110.755008 
L 321.627668 134.885377 
L 327.43309 177.664751 
L 330.916343 202.991364 
L 333.819054 222.905202 
L 336.721765 241.050796 
L 339.043934 253.878811 
L 340.785561 262.375116 
L 342.527188 269.788723 
L 344.268814 276.0362 
L 346.010441 281.04717 
L 347.171525 283.676921 
L 348.33261 285.683998 
L 349.493694 287.148607 
L 350.654779 287.985009 
L 351.235321 288.170437 
L 352.396405 288.091218 
L 352.976948 287.819296 
L 354.138032 286.825394 
L 355.299117 285.197175 
L 356.460201 283.029591 
L 357.621285 280.249777 
L 358.78237 276.869315 
L 359.943454 272.995112 
L 361.685081 266.143347 
L 363.426708 258.167044 
L 365.748877 245.900299 
L 367.490503 235.666856 
L 369.812672 220.854676 
L 372.715383 200.780939 
L 376.779179 171.068038 
L 383.745686 120.430125 
L 387.228939 97.644326 
L 390.13165 81.007263 
L 391.873277 72.2614 
L 393.614903 64.575393 
L 394.775988 60.098489 
L 395.937072 56.068906 
L 397.678699 51.164824 
L 399.420326 47.55827 
L 400.58141 45.961809 
L 401.161952 45.289847 
L 402.323037 44.603347 
L 402.903579 44.385157 
L 403.484121 44.434942 
L 404.645206 44.854361 
L 405.80629 45.999784 
L 406.386832 46.692153 
L 407.547917 48.738865 
L 408.709001 51.258547 
L 410.450628 56.175199 
L 412.192255 62.332866 
L 413.933881 69.662216 
L 416.25605 81.174869 
L 417.997677 90.897422 
L 419.739304 101.469532 
L 422.061472 116.646687 
L 424.964184 137.053138 
L 429.608521 171.224752 
L 433.672317 200.990549 
L 436.575028 220.987035 
L 438.897197 235.843708 
L 441.219366 249.292512 
L 443.541535 261.026186 
L 445.283161 268.624396 
L 447.024788 275.069326 
L 448.185873 278.723728 
L 449.346957 281.758036 
L 450.508041 284.222631 
L 451.669126 286.142076 
L 452.83021 287.406383 
L 453.410753 287.843545 
L 454.571837 288.195923 
L 455.152379 288.175929 
L 456.313464 287.61197 
L 456.894006 287.135513 
L 458.05509 285.661029 
L 459.216175 283.602543 
L 460.377259 280.998612 
L 461.538344 277.761076 
L 462.699428 273.983349 
L 464.441055 267.323047 
L 466.182682 259.52455 
L 467.924308 250.675779 
L 470.246477 237.414772 
L 472.568646 222.772903 
L 476.051899 198.729468 
L 483.018406 147.416173 
L 486.501659 122.451748 
L 489.40437 103.052349 
L 492.307082 85.753972 
L 494.048708 76.515955 
L 495.790335 68.289753 
L 496.951419 63.377153 
L 498.693046 57.029726 
L 500.434673 51.91348 
L 502.176299 48.086102 
L 503.337384 46.265433 
L 503.917926 45.590745 
L 505.079011 44.683073 
L 505.659553 44.455615 
L 506.820637 44.471225 
L 507.401179 44.693481 
L 508.562264 45.632192 
L 509.142806 46.301757 
L 510.303891 48.152895 
L 510.884433 49.262317 
L 512.626059 53.541833 
L 514.367686 59.092124 
L 516.109313 65.850581 
L 517.85094 73.741164 
L 520.173108 85.929426 
L 522.495277 99.66556 
L 524.817446 114.675969 
L 528.3007 139.121404 
L 538.75046 215.167097 
L 541.653171 234.10787 
L 543.97534 247.693432 
L 545.716966 256.855127 
L 547.458593 264.996183 
L 549.20022 272.024875 
L 550.941846 277.862076 
L 552.102931 281.079587 
L 553.264015 283.664898 
L 554.4251 285.713223 
L 555.586184 287.166715 
L 556.166726 287.638834 
L 557.327811 288.181566 
L 557.908353 288.197237 
L 559.069437 287.823552 
L 559.64998 287.382193 
L 560.811064 286.096653 
L 561.972149 284.158683 
L 563.133233 281.684213 
L 564.294318 278.629127 
L 565.455402 274.957573 
L 566.616486 270.801456 
L 568.358113 263.560218 
L 570.09974 255.223465 
L 572.421909 242.534008 
L 574.163535 232.022037 
L 576.485704 216.919671 
L 579.388415 196.556267 
L 583.452211 166.707727 
L 589.257633 124.456703 
L 591.579802 108.658122 
L 593.901971 94.084365 
L 596.22414 81.00544 
L 597.965767 72.260087 
L 599.707393 64.574298 
L 600.868478 60.008357 
L 602.610104 54.272766 
L 604.351731 49.799583 
L 606.093358 46.63928 
L 607.254442 45.334027 
L 607.834984 44.827422 
L 608.996069 44.439486 
L 609.576611 44.38452 
L 610.737695 44.918008 
L 611.318238 45.315523 
L 612.479322 46.764241 
L 613.059864 47.609967 
L 614.220949 49.957205 
L 614.801491 51.241994 
L 616.543118 56.170626 
L 618.284744 62.340358 
L 620.026371 69.681589 
L 621.767998 78.111568 
L 624.090167 90.895578 
L 626.992878 108.928923 
L 629.895589 128.823643 
L 632.7983 149.766484 
L 639.184265 196.883104 
L 642.667518 221.075982 
L 645.570229 239.403049 
L 647.892398 252.436946 
L 650.214567 263.71348 
L 651.956193 270.930591 
L 653.117278 275.127551 
L 654.858905 280.339792 
L 656.019989 283.096295 
L 657.181073 285.248257 
L 658.342158 286.865769 
L 659.503242 287.835722 
L 660.083785 288.106071 
L 661.244869 288.16122 
L 661.825411 287.974271 
L 662.986496 287.113785 
L 663.567038 286.471926 
L 664.728122 284.705156 
L 665.889207 282.331853 
L 667.050291 279.438589 
L 668.791918 273.986944 
L 670.533545 267.3224 
L 672.275171 259.520056 
L 674.016798 250.667835 
L 674.016798 250.667835 
" clip-path="url(#p28ac54383d)" style="fill: none; stroke: #ffa500; stroke-width: 4; stroke-linecap: square"/>
   </g>
   <g id="line2d_117">
    <path d="M 94.055115 350.098011 
L 95.2162 350.041393 
L 96.377284 350.048729 
L 100.44108 350.033294 
L 101.602164 350.061262 
L 103.924333 350.030611 
L 105.085418 350.069792 
L 106.246502 350.087752 
L 110.89084 350.032157 
L 112.051924 350.084414 
L 113.213009 350.076648 
L 117.276804 350.091603 
L 118.437889 350.06906 
L 120.760058 350.094298 
L 121.921142 350.065173 
L 124.243311 350.095459 
L 125.404396 350.06257 
L 127.726564 350.095394 
L 130.048733 350.062169 
L 169.525605 350.079194 
L 175.331027 350.092194 
L 176.492111 350.065096 
L 178.81428 350.095358 
L 179.975365 350.056504 
L 181.136449 350.040475 
L 186.361329 350.047255 
L 190.425125 350.031906 
L 191.586209 350.057683 
L 193.908378 350.026394 
L 195.069463 350.065753 
L 196.230547 350.087889 
L 199.7138 350.081382 
L 215.38844 350.050583 
L 216.549525 350.046309 
L 249.640432 350.084686 
L 251.962601 350.056375 
L 254.865312 350.085896 
L 257.187481 350.054105 
L 260.090192 350.088312 
L 262.412361 350.051133 
L 265.315072 350.091694 
L 266.476156 350.066899 
L 268.798325 350.093958 
L 269.95941 350.060594 
L 272.281578 350.095716 
L 273.442663 350.053181 
L 274.603747 350.051055 
L 298.405979 350.061325 
L 300.728147 350.093979 
L 301.889232 350.052293 
L 303.050316 350.02958 
L 306.53357 350.036956 
L 325.691463 350.082371 
L 326.852548 350.076887 
L 332.65797 350.089609 
L 333.819054 350.069067 
L 336.141223 350.090904 
L 337.302308 350.066708 
L 339.624476 350.091132 
L 341.366103 350.090975 
L 343.688272 350.05804 
L 353.55749 350.089837 
L 355.879659 350.061878 
L 442.38045 350.067317 
L 444.702619 350.049619 
L 446.444246 350.050437 
L 448.766415 350.085321 
L 453.410753 350.052295 
L 455.732921 350.083746 
L 462.118886 350.049126 
L 464.441055 350.082124 
L 476.632442 350.068951 
L 478.95461 350.089904 
L 480.115695 350.061641 
L 482.437864 350.093305 
L 483.598948 350.052999 
L 484.760033 350.036106 
L 489.984913 350.04211 
L 494.048708 350.025812 
L 495.209793 350.052307 
L 497.531962 350.018765 
L 498.693046 350.060692 
L 499.273588 350.01604 
L 500.434673 350.065055 
L 501.015215 350.013896 
L 502.176299 350.069496 
L 502.756842 350.012532 
L 503.917926 350.073838 
L 504.498468 350.011739 
L 505.659553 350.077991 
L 506.240095 350.011842 
L 507.401179 350.081908 
L 507.981722 350.012521 
L 509.142806 350.085469 
L 509.723348 350.014006 
L 510.884433 350.088622 
L 511.464975 350.016162 
L 512.626059 350.091297 
L 513.787144 350.052488 
L 514.367686 350.093467 
L 515.528771 350.048142 
L 516.109313 350.09508 
L 517.270397 350.044177 
L 517.85094 350.096145 
L 519.012024 350.04058 
L 519.592566 350.09665 
L 520.753651 350.037361 
L 521.334193 350.096617 
L 522.495277 350.034814 
L 523.07582 350.096087 
L 524.236904 350.032616 
L 525.397988 350.049188 
L 527.720157 350.030162 
L 528.881242 350.058423 
L 531.203411 350.029921 
L 532.364495 350.066657 
L 533.52558 350.085651 
L 538.169917 350.034597 
L 539.331002 350.078348 
L 540.492086 350.077111 
L 556.747269 350.08451 
L 559.069437 350.051052 
L 563.713775 350.085915 
L 566.035944 350.049449 
L 570.680282 350.089399 
L 571.841366 350.05799 
L 574.163535 350.091314 
L 575.32462 350.052087 
L 576.485704 350.048331 
L 674.016798 350.040867 
L 674.016798 350.040867 
" clip-path="url(#p28ac54383d)" style="fill: none; stroke: #008000; stroke-width: 4; stroke-linecap: square"/>
   </g>
   <g id="line2d_118">
    <path d="M 94.055115 350.098011 
L 94.635658 350.036904 
L 95.2162 349.853641 
L 96.377284 349.121508 
L 97.538369 347.904537 
L 98.699453 346.207592 
L 99.860538 344.037456 
L 101.021622 341.4028 
L 102.182707 338.314156 
L 103.924333 332.857445 
L 105.66596 326.456493 
L 107.407587 319.168835 
L 109.149213 311.059975 
L 111.471382 299.097696 
L 113.793551 285.996894 
L 116.696262 268.340044 
L 120.760058 242.026197 
L 129.468191 184.992932 
L 132.370902 167.494692 
L 134.693071 154.55912 
L 137.01524 142.793332 
L 138.756867 134.850484 
L 140.498493 127.743173 
L 142.24012 121.535283 
L 143.981747 116.282613 
L 145.142831 113.335194 
L 146.303916 110.845265 
L 147.465 108.822778 
L 148.626085 107.275817 
L 149.787169 106.210563 
L 150.948253 105.631275 
L 151.528796 105.524667 
L 152.109338 105.540266 
L 152.68988 105.678057 
L 153.270422 105.937901 
L 154.431507 106.822591 
L 155.592591 108.1908 
L 156.753676 110.03706 
L 157.91476 112.353993 
L 159.075845 115.132337 
L 160.236929 118.360991 
L 161.978556 124.019594 
L 163.720182 130.611088 
L 165.461809 138.076224 
L 167.783978 149.271707 
L 170.106147 161.721413 
L 173.008858 178.74275 
L 176.492111 200.743625 
L 189.26404 283.448589 
L 192.166751 299.897217 
L 194.48892 311.780145 
L 196.811089 322.322009 
L 198.552716 329.246175 
L 200.294343 335.258559 
L 202.035969 340.305119 
L 203.197054 343.110154 
L 204.358138 345.454376 
L 205.519223 347.328416 
L 206.680307 348.724785 
L 207.841391 349.637902 
L 209.002476 350.064118 
L 209.583018 350.094029 
L 210.16356 350.001729 
L 210.744103 349.78731 
L 211.905187 348.993092 
L 213.066271 347.714549 
L 214.227356 345.956793 
L 215.38844 343.726846 
L 216.549525 341.033623 
L 217.710609 337.887885 
L 219.452236 332.348799 
L 221.193863 325.870043 
L 222.935489 318.509853 
L 224.677116 310.334384 
L 226.999285 298.293533 
L 229.321454 285.127002 
L 232.224165 267.407628 
L 236.28796 241.045547 
L 244.415552 187.701583 
L 247.318263 170.015907 
L 250.220974 153.771236 
L 252.543143 142.086692 
L 254.284769 134.212261 
L 256.026396 127.179104 
L 257.768023 121.050438 
L 259.509649 115.88135 
L 260.670734 112.991703 
L 261.831818 110.560919 
L 262.992903 108.598715 
L 264.153987 107.112931 
L 265.315072 106.109506 
L 266.476156 105.592449 
L 267.056698 105.517031 
L 267.637241 105.563828 
L 268.217783 105.732793 
L 269.378867 106.436429 
L 270.539952 107.625127 
L 271.701036 109.294137 
L 272.862121 111.436788 
L 274.023205 114.044518 
L 275.18429 117.106903 
L 276.925916 122.525705 
L 278.667543 128.890825 
L 280.40917 136.145049 
L 282.150796 144.223175 
L 284.472965 156.149148 
L 286.795134 169.219511 
L 289.697845 186.847295 
L 293.761641 213.13844 
L 302.469774 270.196896 
L 305.372485 287.725254 
L 307.694654 300.692043 
L 310.016823 312.494846 
L 312.338992 322.945172 
L 314.080619 329.794066 
L 315.822245 335.726254 
L 317.563872 340.688415 
L 318.724956 343.435221 
L 319.886041 345.719915 
L 321.047125 347.533366 
L 322.20821 348.868327 
L 323.369294 349.719462 
L 323.949836 349.962456 
L 324.530379 350.08337 
L 325.110921 350.082083 
L 325.691463 349.958597 
L 326.272005 349.713034 
L 327.43309 348.856783 
L 328.594174 347.516753 
L 329.755259 345.698298 
L 330.916343 343.408688 
L 332.077428 340.657071 
L 333.238512 337.454445 
L 334.980139 331.833344 
L 336.721765 325.277207 
L 338.463392 317.844963 
L 340.785561 306.688998 
L 343.10773 294.273274 
L 346.010441 277.285818 
L 349.493694 255.311904 
L 356.460201 209.227698 
L 360.523997 183.149723 
L 363.426708 165.785583 
L 365.748877 152.988173 
L 368.071046 141.385634 
L 369.812672 133.580133 
L 371.554299 126.621588 
L 373.295926 120.572545 
L 375.037552 115.487375 
L 376.198637 112.655689 
L 377.359721 110.28421 
L 378.520806 108.382415 
L 379.68189 106.957905 
L 380.842974 106.016373 
L 382.004059 105.561583 
L 382.584601 105.51736 
L 383.165143 105.595351 
L 383.745686 105.795479 
L 384.90677 106.561222 
L 386.067854 107.811528 
L 387.228939 109.541401 
L 388.390023 111.743928 
L 389.551108 114.410305 
L 390.712192 117.529876 
L 392.453819 123.031217 
L 394.195446 129.474332 
L 395.937072 136.801308 
L 397.678699 144.946285 
L 400.000868 156.951188 
L 402.323037 170.087673 
L 405.225748 187.778507 
L 409.289543 214.118673 
L 417.997677 271.121211 
L 420.900388 288.583609 
L 423.222557 301.482122 
L 425.544726 313.204032 
L 427.286352 321.109913 
L 429.027979 328.177145 
L 430.769606 334.342205 
L 432.511232 339.549678 
L 433.672317 342.465852 
L 434.833401 344.923788 
L 435.994486 346.913664 
L 437.15557 348.427525 
L 438.316655 349.459322 
L 439.477739 350.004932 
L 440.058281 350.094659 
L 440.638824 350.062174 
L 441.219366 349.907509 
L 442.38045 349.23238 
L 443.541535 348.071971 
L 444.702619 346.430919 
L 445.863704 344.315782 
L 447.024788 341.735014 
L 448.185873 338.698929 
L 449.927499 333.318111 
L 451.669126 326.988911 
L 453.410753 319.768219 
L 455.152379 311.720938 
L 457.474548 299.831434 
L 459.796717 286.791689 
L 462.699428 269.193215 
L 466.763224 242.925131 
L 475.471357 185.842266 
L 478.374068 168.28403 
L 480.696237 155.286202 
L 483.018406 143.446546 
L 485.340575 132.954142 
L 487.082202 126.070661 
L 488.823828 120.101635 
L 490.565455 115.100715 
L 491.726539 112.327175 
L 492.887624 110.015153 
L 494.048708 108.173892 
L 495.209793 106.810749 
L 496.370877 105.931173 
L 496.951419 105.673896 
L 497.531962 105.538678 
L 498.112504 105.525652 
L 498.693046 105.634833 
L 499.273588 105.866111 
L 500.434673 106.693911 
L 501.595757 108.005744 
L 502.756842 109.796368 
L 503.917926 112.058626 
L 505.079011 114.783476 
L 506.240095 117.96003 
L 507.981722 123.543552 
L 509.723348 130.064244 
L 511.464975 137.463493 
L 513.787144 148.579788 
L 516.109313 160.961358 
L 519.012024 177.914702 
L 522.495277 199.861353 
L 528.881242 242.10706 
L 533.52558 272.042706 
L 536.428291 289.438006 
L 538.75046 302.267403 
L 541.072629 313.907656 
L 542.814255 321.744842 
L 544.555882 328.737672 
L 546.297509 334.823292 
L 548.039135 339.947 
L 549.20022 342.805299 
L 550.361304 345.204003 
L 551.522389 347.133527 
L 552.683473 348.586158 
L 553.844557 349.556091 
L 555.005642 350.03945 
L 555.586184 350.097984 
L 556.166726 350.034303 
L 556.747269 349.84847 
L 557.908353 349.111212 
L 559.069437 347.889159 
L 560.230522 346.187193 
L 561.391606 344.012117 
L 562.552691 341.372623 
L 563.713775 338.279261 
L 565.455402 332.81574 
L 567.197029 326.408354 
L 568.938655 319.114694 
L 570.680282 311.000319 
L 573.002451 299.031528 
L 575.32462 285.925271 
L 578.227331 268.263219 
L 582.291126 241.945328 
L 590.99926 184.916677 
L 593.901971 167.423878 
L 596.22414 154.493939 
L 598.546309 142.734824 
L 600.287935 134.797601 
L 602.029562 127.69639 
L 603.771189 121.495021 
L 605.512815 116.249234 
L 606.6739 113.306573 
L 607.834984 110.821518 
L 608.996069 108.804 
L 610.157153 107.262082 
L 611.318238 106.201926 
L 612.479322 105.62777 
L 613.059864 105.523736 
L 613.640407 105.541909 
L 614.220949 105.682272 
L 615.382033 106.328884 
L 616.543118 107.460989 
L 617.704202 109.074061 
L 618.865287 111.161654 
L 620.026371 113.715425 
L 621.187456 116.725167 
L 622.929082 122.067928 
L 624.670709 128.361122 
L 626.412336 135.548182 
L 628.153962 143.564508 
L 630.476131 155.41738 
L 632.7983 168.426328 
L 635.701011 185.995252 
L 639.764807 212.239915 
L 648.47294 269.346406 
L 651.375651 286.93428 
L 653.69782 299.962968 
L 656.019989 311.839315 
L 658.342158 322.373654 
L 660.083785 329.291626 
L 661.825411 335.297409 
L 663.567038 340.337019 
L 664.728122 343.137256 
L 665.889207 345.476573 
L 667.050291 347.345619 
L 668.211376 348.736925 
L 669.37246 349.644931 
L 670.533545 350.066008 
L 671.114087 350.093345 
L 671.694629 349.998472 
L 672.275171 349.781482 
L 673.436256 348.982145 
L 674.016798 348.400595 
L 674.016798 348.400595 
" clip-path="url(#p28ac54383d)" style="fill: none; stroke-dasharray: 7.4,3.2; stroke-dashoffset: 0; stroke: #000000; stroke-width: 2"/>
   </g>
   <g id="patch_3">
    <path d="M 65.057031 365.384375 
L 65.057031 29.084375 
" style="fill: none; stroke: #000000; stroke-linejoin: miter; stroke-linecap: square"/>
   </g>
   <g id="patch_4">
    <path d="M 703.014882 365.384375 
L 703.014882 29.084375 
" style="fill: none; stroke: #000000; stroke-linejoin: miter; stroke-linecap: square"/>
   </g>
   <g id="patch_5">
    <path d="M 65.057031 365.384375 
L 703.014882 365.384375 
" style="fill: none; stroke: #000000; stroke-linejoin: miter; stroke-linecap: square"/>
   </g>
   <g id="patch_6">
    <path d="M 65.057031 29.084375 
L 703.014882 29.084375 
" style="fill: none; stroke: #000000; stroke-linejoin: miter; stroke-linecap: square"/>
   </g>
   <g id="text_15">
    <!-- Dynamics of three-Level system with two-level approximation -->
    <g transform="translate(31.795957 23.0425) scale(0.28 -0.28)">
     <defs>
      <path id="TimesNewRomanPSMT-44" d="M 109 0 
L 109 116 
L 269 116 
Q 538 116 650 288 
Q 719 391 719 750 
L 719 3488 
Q 719 3884 631 3984 
Q 509 4122 269 4122 
L 109 4122 
L 109 4238 
L 1834 4238 
Q 2784 4238 3279 4022 
Q 3775 3806 4076 3303 
Q 4378 2800 4378 2141 
Q 4378 1256 3841 663 
Q 3238 0 2003 0 
L 109 0 
z
M 1319 306 
Q 1716 219 1984 219 
Q 2709 219 3187 728 
Q 3666 1238 3666 2109 
Q 3666 2988 3187 3494 
Q 2709 4000 1959 4000 
Q 1678 4000 1319 3909 
L 1319 306 
z
" transform="scale(0.015625)"/>
      <path id="TimesNewRomanPSMT-79" d="M 38 2863 
L 1372 2863 
L 1372 2747 
L 1306 2747 
Q 1166 2747 1095 2686 
Q 1025 2625 1025 2534 
Q 1025 2413 1128 2197 
L 1825 753 
L 2466 2334 
Q 2519 2463 2519 2588 
Q 2519 2644 2497 2672 
Q 2472 2706 2419 2726 
Q 2366 2747 2231 2747 
L 2231 2863 
L 3163 2863 
L 3163 2747 
Q 3047 2734 2984 2696 
Q 2922 2659 2847 2556 
Q 2819 2513 2741 2316 
L 1575 -541 
Q 1406 -956 1132 -1168 
Q 859 -1381 606 -1381 
Q 422 -1381 303 -1275 
Q 184 -1169 184 -1031 
Q 184 -900 270 -820 
Q 356 -741 506 -741 
Q 609 -741 788 -809 
Q 913 -856 944 -856 
Q 1038 -856 1148 -759 
Q 1259 -663 1372 -384 
L 1575 113 
L 547 2272 
Q 500 2369 397 2513 
Q 319 2622 269 2659 
Q 197 2709 38 2747 
L 38 2863 
z
" transform="scale(0.015625)"/>
      <path id="TimesNewRomanPSMT-63" d="M 2631 1088 
Q 2516 522 2178 217 
Q 1841 -88 1431 -88 
Q 944 -88 581 321 
Q 219 731 219 1428 
Q 219 2103 620 2525 
Q 1022 2947 1584 2947 
Q 2006 2947 2278 2723 
Q 2550 2500 2550 2259 
Q 2550 2141 2473 2067 
Q 2397 1994 2259 1994 
Q 2075 1994 1981 2113 
Q 1928 2178 1911 2362 
Q 1894 2547 1784 2644 
Q 1675 2738 1481 2738 
Q 1169 2738 978 2506 
Q 725 2200 725 1697 
Q 725 1184 976 792 
Q 1228 400 1656 400 
Q 1963 400 2206 609 
Q 2378 753 2541 1131 
L 2631 1088 
z
" transform="scale(0.015625)"/>
      <path id="TimesNewRomanPSMT-66" d="M 1319 2638 
L 1319 756 
Q 1319 356 1406 250 
Q 1522 113 1716 113 
L 1975 113 
L 1975 0 
L 266 0 
L 266 113 
L 394 113 
Q 519 113 622 175 
Q 725 238 764 344 
Q 803 450 803 756 
L 803 2638 
L 247 2638 
L 247 2863 
L 803 2863 
L 803 3050 
Q 803 3478 940 3775 
Q 1078 4072 1361 4255 
Q 1644 4438 1997 4438 
Q 2325 4438 2600 4225 
Q 2781 4084 2781 3909 
Q 2781 3816 2700 3733 
Q 2619 3650 2525 3650 
Q 2453 3650 2373 3701 
Q 2294 3753 2178 3923 
Q 2063 4094 1966 4153 
Q 1869 4213 1750 4213 
Q 1606 4213 1506 4136 
Q 1406 4059 1362 3898 
Q 1319 3738 1319 3069 
L 1319 2863 
L 2056 2863 
L 2056 2638 
L 1319 2638 
z
" transform="scale(0.015625)"/>
      <path id="TimesNewRomanPSMT-68" d="M 1041 4444 
L 1041 2350 
Q 1388 2731 1591 2839 
Q 1794 2947 1997 2947 
Q 2241 2947 2416 2812 
Q 2591 2678 2675 2391 
Q 2734 2191 2734 1659 
L 2734 647 
Q 2734 375 2778 275 
Q 2809 200 2884 156 
Q 2959 113 3159 113 
L 3159 0 
L 1753 0 
L 1753 113 
L 1819 113 
Q 2019 113 2097 173 
Q 2175 234 2206 353 
Q 2216 403 2216 647 
L 2216 1659 
Q 2216 2128 2167 2275 
Q 2119 2422 2012 2495 
Q 1906 2569 1756 2569 
Q 1603 2569 1437 2487 
Q 1272 2406 1041 2159 
L 1041 647 
Q 1041 353 1073 281 
Q 1106 209 1195 161 
Q 1284 113 1503 113 
L 1503 0 
L 84 0 
L 84 113 
Q 275 113 384 172 
Q 447 203 484 290 
Q 522 378 522 647 
L 522 3238 
Q 522 3728 498 3840 
Q 475 3953 426 3993 
Q 378 4034 297 4034 
Q 231 4034 84 3984 
L 41 4094 
L 897 4444 
L 1041 4444 
z
" transform="scale(0.015625)"/>
      <path id="TimesNewRomanPSMT-72" d="M 1038 2947 
L 1038 2303 
Q 1397 2947 1775 2947 
Q 1947 2947 2059 2842 
Q 2172 2738 2172 2600 
Q 2172 2478 2090 2393 
Q 2009 2309 1897 2309 
Q 1788 2309 1652 2417 
Q 1516 2525 1450 2525 
Q 1394 2525 1328 2463 
Q 1188 2334 1038 2041 
L 1038 669 
Q 1038 431 1097 309 
Q 1138 225 1241 169 
Q 1344 113 1538 113 
L 1538 0 
L 72 0 
L 72 113 
Q 291 113 397 181 
Q 475 231 506 341 
Q 522 394 522 644 
L 522 1753 
Q 522 2253 501 2348 
Q 481 2444 426 2487 
Q 372 2531 291 2531 
Q 194 2531 72 2484 
L 41 2597 
L 906 2947 
L 1038 2947 
z
" transform="scale(0.015625)"/>
      <path id="TimesNewRomanPSMT-2d" d="M 259 1672 
L 1875 1672 
L 1875 1200 
L 259 1200 
L 259 1672 
z
" transform="scale(0.015625)"/>
      <path id="TimesNewRomanPSMT-4c" d="M 3669 1172 
L 3772 1150 
L 3409 0 
L 128 0 
L 128 116 
L 288 116 
Q 556 116 672 291 
Q 738 391 738 753 
L 738 3488 
Q 738 3884 650 3984 
Q 528 4122 288 4122 
L 128 4122 
L 128 4238 
L 2047 4238 
L 2047 4122 
Q 1709 4125 1573 4059 
Q 1438 3994 1388 3894 
Q 1338 3794 1338 3416 
L 1338 753 
Q 1338 494 1388 397 
Q 1425 331 1503 300 
Q 1581 269 1991 269 
L 2300 269 
Q 2788 269 2984 341 
Q 3181 413 3343 595 
Q 3506 778 3669 1172 
z
" transform="scale(0.015625)"/>
      <path id="TimesNewRomanPSMT-76" d="M 53 2863 
L 1400 2863 
L 1400 2747 
L 1313 2747 
Q 1191 2747 1127 2687 
Q 1063 2628 1063 2528 
Q 1063 2419 1128 2269 
L 1794 688 
L 2463 2328 
Q 2534 2503 2534 2594 
Q 2534 2638 2509 2666 
Q 2475 2713 2422 2730 
Q 2369 2747 2206 2747 
L 2206 2863 
L 3141 2863 
L 3141 2747 
Q 2978 2734 2916 2681 
Q 2806 2588 2719 2369 
L 1703 -88 
L 1575 -88 
L 553 2328 
Q 484 2497 421 2570 
Q 359 2644 263 2694 
Q 209 2722 53 2747 
L 53 2863 
z
" transform="scale(0.015625)"/>
      <path id="TimesNewRomanPSMT-77" d="M 41 2863 
L 1241 2863 
L 1241 2747 
Q 1075 2734 1023 2687 
Q 972 2641 972 2553 
Q 972 2456 1025 2319 
L 1638 672 
L 2253 2013 
L 2091 2434 
Q 2016 2622 1894 2694 
Q 1825 2738 1638 2747 
L 1638 2863 
L 3000 2863 
L 3000 2747 
Q 2775 2738 2681 2666 
Q 2619 2616 2619 2506 
Q 2619 2444 2644 2378 
L 3294 734 
L 3897 2319 
Q 3959 2488 3959 2588 
Q 3959 2647 3898 2694 
Q 3838 2741 3659 2747 
L 3659 2863 
L 4563 2863 
L 4563 2747 
Q 4291 2706 4163 2378 
L 3206 -88 
L 3078 -88 
L 2363 1741 
L 1528 -88 
L 1413 -88 
L 494 2319 
Q 403 2547 315 2626 
Q 228 2706 41 2747 
L 41 2863 
z
" transform="scale(0.015625)"/>
      <path id="TimesNewRomanPSMT-78" d="M 84 2863 
L 1431 2863 
L 1431 2747 
Q 1303 2747 1251 2703 
Q 1200 2659 1200 2588 
Q 1200 2513 1309 2356 
Q 1344 2306 1413 2200 
L 1616 1875 
L 1850 2200 
Q 2075 2509 2075 2591 
Q 2075 2656 2022 2701 
Q 1969 2747 1850 2747 
L 1850 2863 
L 2819 2863 
L 2819 2747 
Q 2666 2738 2553 2663 
Q 2400 2556 2134 2200 
L 1744 1678 
L 2456 653 
Q 2719 275 2831 198 
Q 2944 122 3122 113 
L 3122 0 
L 1772 0 
L 1772 113 
Q 1913 113 1991 175 
Q 2050 219 2050 291 
Q 2050 363 1850 653 
L 1431 1266 
L 972 653 
Q 759 369 759 316 
Q 759 241 829 180 
Q 900 119 1041 113 
L 1041 0 
L 106 0 
L 106 113 
Q 219 128 303 191 
Q 422 281 703 653 
L 1303 1450 
L 759 2238 
Q 528 2575 401 2661 
Q 275 2747 84 2747 
L 84 2863 
z
" transform="scale(0.015625)"/>
     </defs>
     <use xlink:href="#TimesNewRomanPSMT-44"/>
     <use xlink:href="#TimesNewRomanPSMT-79" transform="translate(72.216797 0)"/>
     <use xlink:href="#TimesNewRomanPSMT-6e" transform="translate(122.216797 0)"/>
     <use xlink:href="#TimesNewRomanPSMT-61" transform="translate(172.216797 0)"/>
     <use xlink:href="#TimesNewRomanPSMT-6d" transform="translate(216.601562 0)"/>
     <use xlink:href="#TimesNewRomanPSMT-69" transform="translate(294.384766 0)"/>
     <use xlink:href="#TimesNewRomanPSMT-63" transform="translate(322.167969 0)"/>
     <use xlink:href="#TimesNewRomanPSMT-73" transform="translate(366.552734 0)"/>
     <use xlink:href="#TimesNewRomanPSMT-20" transform="translate(405.46875 0)"/>
     <use xlink:href="#TimesNewRomanPSMT-6f" transform="translate(430.46875 0)"/>
     <use xlink:href="#TimesNewRomanPSMT-66" transform="translate(480.46875 0)"/>
     <use xlink:href="#TimesNewRomanPSMT-20" transform="translate(513.769531 0)"/>
     <use xlink:href="#TimesNewRomanPSMT-74" transform="translate(538.769531 0)"/>
     <use xlink:href="#TimesNewRomanPSMT-68" transform="translate(566.552734 0)"/>
     <use xlink:href="#TimesNewRomanPSMT-72" transform="translate(616.552734 0)"/>
     <use xlink:href="#TimesNewRomanPSMT-65" transform="translate(649.853516 0)"/>
     <use xlink:href="#TimesNewRomanPSMT-65" transform="translate(694.238281 0)"/>
     <use xlink:href="#TimesNewRomanPSMT-2d" transform="translate(738.623047 0)"/>
     <use xlink:href="#TimesNewRomanPSMT-4c" transform="translate(771.923828 0)"/>
     <use xlink:href="#TimesNewRomanPSMT-65" transform="translate(833.007812 0)"/>
     <use xlink:href="#TimesNewRomanPSMT-76" transform="translate(877.392578 0)"/>
     <use xlink:href="#TimesNewRomanPSMT-65" transform="translate(927.392578 0)"/>
     <use xlink:href="#TimesNewRomanPSMT-6c" transform="translate(971.777344 0)"/>
     <use xlink:href="#TimesNewRomanPSMT-20" transform="translate(999.560547 0)"/>
     <use xlink:href="#TimesNewRomanPSMT-73" transform="translate(1024.560547 0)"/>
     <use xlink:href="#TimesNewRomanPSMT-79" transform="translate(1063.476562 0)"/>
     <use xlink:href="#TimesNewRomanPSMT-73" transform="translate(1113.476562 0)"/>
     <use xlink:href="#TimesNewRomanPSMT-74" transform="translate(1152.392578 0)"/>
     <use xlink:href="#TimesNewRomanPSMT-65" transform="translate(1180.175781 0)"/>
     <use xlink:href="#TimesNewRomanPSMT-6d" transform="translate(1224.560547 0)"/>
     <use xlink:href="#TimesNewRomanPSMT-20" transform="translate(1302.34375 0)"/>
     <use xlink:href="#TimesNewRomanPSMT-77" transform="translate(1327.34375 0)"/>
     <use xlink:href="#TimesNewRomanPSMT-69" transform="translate(1399.560547 0)"/>
     <use xlink:href="#TimesNewRomanPSMT-74" transform="translate(1427.34375 0)"/>
     <use xlink:href="#TimesNewRomanPSMT-68" transform="translate(1455.126953 0)"/>
     <use xlink:href="#TimesNewRomanPSMT-20" transform="translate(1505.126953 0)"/>
     <use xlink:href="#TimesNewRomanPSMT-74" transform="translate(1530.126953 0)"/>
     <use xlink:href="#TimesNewRomanPSMT-77" transform="translate(1557.910156 0)"/>
     <use xlink:href="#TimesNewRomanPSMT-6f" transform="translate(1630.126953 0)"/>
     <use xlink:href="#TimesNewRomanPSMT-2d" transform="translate(1680.126953 0)"/>
     <use xlink:href="#TimesNewRomanPSMT-6c" transform="translate(1713.427734 0)"/>
     <use xlink:href="#TimesNewRomanPSMT-65" transform="translate(1741.210938 0)"/>
     <use xlink:href="#TimesNewRomanPSMT-76" transform="translate(1785.595703 0)"/>
     <use xlink:href="#TimesNewRomanPSMT-65" transform="translate(1835.595703 0)"/>
     <use xlink:href="#TimesNewRomanPSMT-6c" transform="translate(1879.980469 0)"/>
     <use xlink:href="#TimesNewRomanPSMT-20" transform="translate(1907.763672 0)"/>
     <use xlink:href="#TimesNewRomanPSMT-61" transform="translate(1932.763672 0)"/>
     <use xlink:href="#TimesNewRomanPSMT-70" transform="translate(1977.148438 0)"/>
     <use xlink:href="#TimesNewRomanPSMT-70" transform="translate(2027.148438 0)"/>
     <use xlink:href="#TimesNewRomanPSMT-72" transform="translate(2077.148438 0)"/>
     <use xlink:href="#TimesNewRomanPSMT-6f" transform="translate(2110.449219 0)"/>
     <use xlink:href="#TimesNewRomanPSMT-78" transform="translate(2160.449219 0)"/>
     <use xlink:href="#TimesNewRomanPSMT-69" transform="translate(2210.449219 0)"/>
     <use xlink:href="#TimesNewRomanPSMT-6d" transform="translate(2238.232422 0)"/>
     <use xlink:href="#TimesNewRomanPSMT-61" transform="translate(2316.015625 0)"/>
     <use xlink:href="#TimesNewRomanPSMT-74" transform="translate(2360.400391 0)"/>
     <use xlink:href="#TimesNewRomanPSMT-69" transform="translate(2388.183594 0)"/>
     <use xlink:href="#TimesNewRomanPSMT-6f" transform="translate(2415.966797 0)"/>
     <use xlink:href="#TimesNewRomanPSMT-6e" transform="translate(2465.966797 0)"/>
    </g>
   </g>
   <g id="legend_1">
    <g id="patch_7">
     <path d="M 388.854882 184.484375 
L 688.314882 184.484375 
Q 692.514882 184.484375 692.514882 180.284375 
L 692.514882 43.784375 
Q 692.514882 39.584375 688.314882 39.584375 
L 388.854882 39.584375 
Q 384.654882 39.584375 384.654882 43.784375 
L 384.654882 180.284375 
Q 384.654882 184.484375 388.854882 184.484375 
z
" style="fill: #ffffff; opacity: 0.8; stroke: #cccccc; stroke-linejoin: miter"/>
    </g>
    <g id="line2d_119">
     <path d="M 393.054882 59.744375 
L 414.054882 59.744375 
L 435.054882 59.744375 
" style="fill: none; stroke: #0000ff; stroke-width: 4; stroke-linecap: square"/>
    </g>
    <g id="text_16">
     <!-- $|C_b(t)|^2$ - (3-level system) -->
     <g transform="translate(451.854882 67.094375) scale(0.21 -0.21)">
      <defs>
       <path id="DejaVuSans-7c" d="M 1344 4891 
L 1344 -1509 
L 813 -1509 
L 813 4891 
L 1344 4891 
z
" transform="scale(0.015625)"/>
       <path id="DejaVuSans-Oblique-43" d="M 4447 4306 
L 4319 3641 
Q 4019 3944 3683 4091 
Q 3347 4238 2956 4238 
Q 2422 4238 2017 3981 
Q 1613 3725 1319 3200 
Q 1131 2863 1032 2486 
Q 934 2109 934 1728 
Q 934 1091 1264 756 
Q 1594 422 2222 422 
Q 2656 422 3056 561 
Q 3456 700 3834 978 
L 3688 231 
Q 3316 72 2936 -9 
Q 2556 -91 2175 -91 
Q 1278 -91 773 396 
Q 269 884 269 1753 
Q 269 2309 461 2846 
Q 653 3384 1013 3828 
Q 1394 4300 1883 4525 
Q 2372 4750 3022 4750 
Q 3422 4750 3780 4639 
Q 4138 4528 4447 4306 
z
" transform="scale(0.015625)"/>
       <path id="DejaVuSans-Oblique-62" d="M 3169 2138 
Q 3169 2591 2961 2847 
Q 2753 3103 2388 3103 
Q 2122 3103 1889 2973 
Q 1656 2844 1484 2597 
Q 1303 2338 1198 1995 
Q 1094 1653 1094 1313 
Q 1094 881 1298 636 
Q 1503 391 1863 391 
Q 2134 391 2365 517 
Q 2597 644 2772 891 
Q 2950 1147 3059 1487 
Q 3169 1828 3169 2138 
z
M 1381 2969 
Q 1594 3256 1914 3420 
Q 2234 3584 2584 3584 
Q 3122 3584 3439 3221 
Q 3756 2859 3756 2241 
Q 3756 1734 3570 1259 
Q 3384 784 3041 416 
Q 2816 172 2522 40 
Q 2228 -91 1906 -91 
Q 1566 -91 1316 65 
Q 1066 222 909 531 
L 806 0 
L 231 0 
L 1178 4863 
L 1753 4863 
L 1381 2969 
z
" transform="scale(0.015625)"/>
       <path id="DejaVuSans-28" d="M 1984 4856 
Q 1566 4138 1362 3434 
Q 1159 2731 1159 2009 
Q 1159 1288 1364 580 
Q 1569 -128 1984 -844 
L 1484 -844 
Q 1016 -109 783 600 
Q 550 1309 550 2009 
Q 550 2706 781 3412 
Q 1013 4119 1484 4856 
L 1984 4856 
z
" transform="scale(0.015625)"/>
       <path id="DejaVuSans-Oblique-74" d="M 2706 3500 
L 2619 3053 
L 1472 3053 
L 1100 1153 
Q 1081 1047 1072 975 
Q 1063 903 1063 863 
Q 1063 663 1183 572 
Q 1303 481 1569 481 
L 2150 481 
L 2053 0 
L 1503 0 
Q 991 0 739 200 
Q 488 400 488 806 
Q 488 878 497 964 
Q 506 1050 525 1153 
L 897 3053 
L 409 3053 
L 500 3500 
L 978 3500 
L 1172 4494 
L 1747 4494 
L 1556 3500 
L 2706 3500 
z
" transform="scale(0.015625)"/>
       <path id="DejaVuSans-29" d="M 513 4856 
L 1013 4856 
Q 1481 4119 1714 3412 
Q 1947 2706 1947 2009 
Q 1947 1309 1714 600 
Q 1481 -109 1013 -844 
L 513 -844 
Q 928 -128 1133 580 
Q 1338 1288 1338 2009 
Q 1338 2731 1133 3434 
Q 928 4138 513 4856 
z
" transform="scale(0.015625)"/>
       <path id="DejaVuSans-32" d="M 1228 531 
L 3431 531 
L 3431 0 
L 469 0 
L 469 531 
Q 828 903 1448 1529 
Q 2069 2156 2228 2338 
Q 2531 2678 2651 2914 
Q 2772 3150 2772 3378 
Q 2772 3750 2511 3984 
Q 2250 4219 1831 4219 
Q 1534 4219 1204 4116 
Q 875 4013 500 3803 
L 500 4441 
Q 881 4594 1212 4672 
Q 1544 4750 1819 4750 
Q 2544 4750 2975 4387 
Q 3406 4025 3406 3419 
Q 3406 3131 3298 2873 
Q 3191 2616 2906 2266 
Q 2828 2175 2409 1742 
Q 1991 1309 1228 531 
z
" transform="scale(0.015625)"/>
      </defs>
      <use xlink:href="#DejaVuSans-7c" transform="translate(0 0.765625)"/>
      <use xlink:href="#DejaVuSans-Oblique-43" transform="translate(33.691406 0.765625)"/>
      <use xlink:href="#DejaVuSans-Oblique-62" transform="translate(103.515625 -15.640625) scale(0.7)"/>
      <use xlink:href="#DejaVuSans-28" transform="translate(150.683594 0.765625)"/>
      <use xlink:href="#DejaVuSans-Oblique-74" transform="translate(189.697266 0.765625)"/>
      <use xlink:href="#DejaVuSans-29" transform="translate(228.90625 0.765625)"/>
      <use xlink:href="#DejaVuSans-7c" transform="translate(267.919922 0.765625)"/>
      <use xlink:href="#DejaVuSans-32" transform="translate(302.568359 39.046875) scale(0.7)"/>
      <use xlink:href="#TimesNewRomanPSMT-20" transform="translate(349.838867 0.765625)"/>
      <use xlink:href="#TimesNewRomanPSMT-2d" transform="translate(374.838867 0.765625)"/>
      <use xlink:href="#TimesNewRomanPSMT-20" transform="translate(408.139648 0.765625)"/>
      <use xlink:href="#TimesNewRomanPSMT-28" transform="translate(433.139648 0.765625)"/>
      <use xlink:href="#TimesNewRomanPSMT-33" transform="translate(466.44043 0.765625)"/>
      <use xlink:href="#TimesNewRomanPSMT-2d" transform="translate(516.44043 0.765625)"/>
      <use xlink:href="#TimesNewRomanPSMT-6c" transform="translate(549.741211 0.765625)"/>
      <use xlink:href="#TimesNewRomanPSMT-65" transform="translate(577.524414 0.765625)"/>
      <use xlink:href="#TimesNewRomanPSMT-76" transform="translate(621.90918 0.765625)"/>
      <use xlink:href="#TimesNewRomanPSMT-65" transform="translate(671.90918 0.765625)"/>
      <use xlink:href="#TimesNewRomanPSMT-6c" transform="translate(716.293945 0.765625)"/>
      <use xlink:href="#TimesNewRomanPSMT-20" transform="translate(744.077148 0.765625)"/>
      <use xlink:href="#TimesNewRomanPSMT-73" transform="translate(769.077148 0.765625)"/>
      <use xlink:href="#TimesNewRomanPSMT-79" transform="translate(807.993164 0.765625)"/>
      <use xlink:href="#TimesNewRomanPSMT-73" transform="translate(857.993164 0.765625)"/>
      <use xlink:href="#TimesNewRomanPSMT-74" transform="translate(896.90918 0.765625)"/>
      <use xlink:href="#TimesNewRomanPSMT-65" transform="translate(924.692383 0.765625)"/>
      <use xlink:href="#TimesNewRomanPSMT-6d" transform="translate(969.077148 0.765625)"/>
      <use xlink:href="#TimesNewRomanPSMT-29" transform="translate(1046.860352 0.765625)"/>
     </g>
    </g>
    <g id="line2d_120">
     <path d="M 393.054882 94.394375 
L 414.054882 94.394375 
L 435.054882 94.394375 
" style="fill: none; stroke: #ffa500; stroke-width: 4; stroke-linecap: square"/>
    </g>
    <g id="text_17">
     <!-- $|C_a(t)|^2$ - (3-level system) -->
     <g transform="translate(451.854882 101.744375) scale(0.21 -0.21)">
      <defs>
       <path id="DejaVuSans-Oblique-61" d="M 3438 1997 
L 3047 0 
L 2472 0 
L 2578 531 
Q 2325 219 2001 64 
Q 1678 -91 1281 -91 
Q 834 -91 548 182 
Q 263 456 263 884 
Q 263 1497 752 1853 
Q 1241 2209 2100 2209 
L 2900 2209 
L 2931 2363 
Q 2938 2388 2941 2417 
Q 2944 2447 2944 2509 
Q 2944 2788 2717 2942 
Q 2491 3097 2081 3097 
Q 1800 3097 1504 3025 
Q 1209 2953 897 2809 
L 997 3341 
Q 1322 3463 1633 3523 
Q 1944 3584 2234 3584 
Q 2853 3584 3176 3315 
Q 3500 3047 3500 2534 
Q 3500 2431 3484 2292 
Q 3469 2153 3438 1997 
z
M 2816 1759 
L 2241 1759 
Q 1534 1759 1195 1570 
Q 856 1381 856 984 
Q 856 709 1029 553 
Q 1203 397 1509 397 
Q 1978 397 2328 733 
Q 2678 1069 2791 1631 
L 2816 1759 
z
" transform="scale(0.015625)"/>
      </defs>
      <use xlink:href="#DejaVuSans-7c" transform="translate(0 0.765625)"/>
      <use xlink:href="#DejaVuSans-Oblique-43" transform="translate(33.691406 0.765625)"/>
      <use xlink:href="#DejaVuSans-Oblique-61" transform="translate(103.515625 -15.640625) scale(0.7)"/>
      <use xlink:href="#DejaVuSans-28" transform="translate(149.145508 0.765625)"/>
      <use xlink:href="#DejaVuSans-Oblique-74" transform="translate(188.15918 0.765625)"/>
      <use xlink:href="#DejaVuSans-29" transform="translate(227.368164 0.765625)"/>
      <use xlink:href="#DejaVuSans-7c" transform="translate(266.381836 0.765625)"/>
      <use xlink:href="#DejaVuSans-32" transform="translate(301.030273 39.046875) scale(0.7)"/>
      <use xlink:href="#TimesNewRomanPSMT-20" transform="translate(348.300781 0.765625)"/>
      <use xlink:href="#TimesNewRomanPSMT-2d" transform="translate(373.300781 0.765625)"/>
      <use xlink:href="#TimesNewRomanPSMT-20" transform="translate(406.601562 0.765625)"/>
      <use xlink:href="#TimesNewRomanPSMT-28" transform="translate(431.601562 0.765625)"/>
      <use xlink:href="#TimesNewRomanPSMT-33" transform="translate(464.902344 0.765625)"/>
      <use xlink:href="#TimesNewRomanPSMT-2d" transform="translate(514.902344 0.765625)"/>
      <use xlink:href="#TimesNewRomanPSMT-6c" transform="translate(548.203125 0.765625)"/>
      <use xlink:href="#TimesNewRomanPSMT-65" transform="translate(575.986328 0.765625)"/>
      <use xlink:href="#TimesNewRomanPSMT-76" transform="translate(620.371094 0.765625)"/>
      <use xlink:href="#TimesNewRomanPSMT-65" transform="translate(670.371094 0.765625)"/>
      <use xlink:href="#TimesNewRomanPSMT-6c" transform="translate(714.755859 0.765625)"/>
      <use xlink:href="#TimesNewRomanPSMT-20" transform="translate(742.539062 0.765625)"/>
      <use xlink:href="#TimesNewRomanPSMT-73" transform="translate(767.539062 0.765625)"/>
      <use xlink:href="#TimesNewRomanPSMT-79" transform="translate(806.455078 0.765625)"/>
      <use xlink:href="#TimesNewRomanPSMT-73" transform="translate(856.455078 0.765625)"/>
      <use xlink:href="#TimesNewRomanPSMT-74" transform="translate(895.371094 0.765625)"/>
      <use xlink:href="#TimesNewRomanPSMT-65" transform="translate(923.154297 0.765625)"/>
      <use xlink:href="#TimesNewRomanPSMT-6d" transform="translate(967.539062 0.765625)"/>
      <use xlink:href="#TimesNewRomanPSMT-29" transform="translate(1045.322266 0.765625)"/>
     </g>
    </g>
    <g id="line2d_121">
     <path d="M 393.054882 129.044375 
L 414.054882 129.044375 
L 435.054882 129.044375 
" style="fill: none; stroke: #008000; stroke-width: 4; stroke-linecap: square"/>
    </g>
    <g id="text_18">
     <!-- $|C_c(t)|^2$ - (3-level system) -->
     <g transform="translate(451.854882 136.394375) scale(0.21 -0.21)">
      <defs>
       <path id="DejaVuSans-Oblique-63" d="M 3431 3366 
L 3316 2797 
Q 3109 2947 2876 3022 
Q 2644 3097 2394 3097 
Q 2119 3097 1870 3000 
Q 1622 2903 1453 2725 
Q 1184 2453 1037 2087 
Q 891 1722 891 1331 
Q 891 859 1127 628 
Q 1363 397 1844 397 
Q 2081 397 2348 469 
Q 2616 541 2906 684 
L 2797 116 
Q 2547 13 2283 -39 
Q 2019 -91 1741 -91 
Q 1044 -91 669 257 
Q 294 606 294 1253 
Q 294 1797 489 2255 
Q 684 2713 1069 3078 
Q 1331 3328 1684 3456 
Q 2038 3584 2456 3584 
Q 2700 3584 2940 3529 
Q 3181 3475 3431 3366 
z
" transform="scale(0.015625)"/>
      </defs>
      <use xlink:href="#DejaVuSans-7c" transform="translate(0 0.765625)"/>
      <use xlink:href="#DejaVuSans-Oblique-43" transform="translate(33.691406 0.765625)"/>
      <use xlink:href="#DejaVuSans-Oblique-63" transform="translate(103.515625 -15.640625) scale(0.7)"/>
      <use xlink:href="#DejaVuSans-28" transform="translate(144.736328 0.765625)"/>
      <use xlink:href="#DejaVuSans-Oblique-74" transform="translate(183.75 0.765625)"/>
      <use xlink:href="#DejaVuSans-29" transform="translate(222.958984 0.765625)"/>
      <use xlink:href="#DejaVuSans-7c" transform="translate(261.972656 0.765625)"/>
      <use xlink:href="#DejaVuSans-32" transform="translate(296.621094 39.046875) scale(0.7)"/>
      <use xlink:href="#TimesNewRomanPSMT-20" transform="translate(343.891602 0.765625)"/>
      <use xlink:href="#TimesNewRomanPSMT-2d" transform="translate(368.891602 0.765625)"/>
      <use xlink:href="#TimesNewRomanPSMT-20" transform="translate(402.192383 0.765625)"/>
      <use xlink:href="#TimesNewRomanPSMT-28" transform="translate(427.192383 0.765625)"/>
      <use xlink:href="#TimesNewRomanPSMT-33" transform="translate(460.493164 0.765625)"/>
      <use xlink:href="#TimesNewRomanPSMT-2d" transform="translate(510.493164 0.765625)"/>
      <use xlink:href="#TimesNewRomanPSMT-6c" transform="translate(543.793945 0.765625)"/>
      <use xlink:href="#TimesNewRomanPSMT-65" transform="translate(571.577148 0.765625)"/>
      <use xlink:href="#TimesNewRomanPSMT-76" transform="translate(615.961914 0.765625)"/>
      <use xlink:href="#TimesNewRomanPSMT-65" transform="translate(665.961914 0.765625)"/>
      <use xlink:href="#TimesNewRomanPSMT-6c" transform="translate(710.34668 0.765625)"/>
      <use xlink:href="#TimesNewRomanPSMT-20" transform="translate(738.129883 0.765625)"/>
      <use xlink:href="#TimesNewRomanPSMT-73" transform="translate(763.129883 0.765625)"/>
      <use xlink:href="#TimesNewRomanPSMT-79" transform="translate(802.045898 0.765625)"/>
      <use xlink:href="#TimesNewRomanPSMT-73" transform="translate(852.045898 0.765625)"/>
      <use xlink:href="#TimesNewRomanPSMT-74" transform="translate(890.961914 0.765625)"/>
      <use xlink:href="#TimesNewRomanPSMT-65" transform="translate(918.745117 0.765625)"/>
      <use xlink:href="#TimesNewRomanPSMT-6d" transform="translate(963.129883 0.765625)"/>
      <use xlink:href="#TimesNewRomanPSMT-29" transform="translate(1040.913086 0.765625)"/>
     </g>
    </g>
    <g id="line2d_122">
     <path d="M 393.054882 163.694375 
L 414.054882 163.694375 
L 435.054882 163.694375 
" style="fill: none; stroke-dasharray: 7.4,3.2; stroke-dashoffset: 0; stroke: #000000; stroke-width: 2"/>
    </g>
    <g id="text_19">
     <!-- $|C_b(t)|^2$ - (2-level approx.) -->
     <g transform="translate(451.854882 171.044375) scale(0.21 -0.21)">
      <use xlink:href="#DejaVuSans-7c" transform="translate(0 0.765625)"/>
      <use xlink:href="#DejaVuSans-Oblique-43" transform="translate(33.691406 0.765625)"/>
      <use xlink:href="#DejaVuSans-Oblique-62" transform="translate(103.515625 -15.640625) scale(0.7)"/>
      <use xlink:href="#DejaVuSans-28" transform="translate(150.683594 0.765625)"/>
      <use xlink:href="#DejaVuSans-Oblique-74" transform="translate(189.697266 0.765625)"/>
      <use xlink:href="#DejaVuSans-29" transform="translate(228.90625 0.765625)"/>
      <use xlink:href="#DejaVuSans-7c" transform="translate(267.919922 0.765625)"/>
      <use xlink:href="#DejaVuSans-32" transform="translate(302.568359 39.046875) scale(0.7)"/>
      <use xlink:href="#TimesNewRomanPSMT-20" transform="translate(349.838867 0.765625)"/>
      <use xlink:href="#TimesNewRomanPSMT-2d" transform="translate(374.838867 0.765625)"/>
      <use xlink:href="#TimesNewRomanPSMT-20" transform="translate(408.139648 0.765625)"/>
      <use xlink:href="#TimesNewRomanPSMT-28" transform="translate(433.139648 0.765625)"/>
      <use xlink:href="#TimesNewRomanPSMT-32" transform="translate(466.44043 0.765625)"/>
      <use xlink:href="#TimesNewRomanPSMT-2d" transform="translate(516.44043 0.765625)"/>
      <use xlink:href="#TimesNewRomanPSMT-6c" transform="translate(549.741211 0.765625)"/>
      <use xlink:href="#TimesNewRomanPSMT-65" transform="translate(577.524414 0.765625)"/>
      <use xlink:href="#TimesNewRomanPSMT-76" transform="translate(621.90918 0.765625)"/>
      <use xlink:href="#TimesNewRomanPSMT-65" transform="translate(671.90918 0.765625)"/>
      <use xlink:href="#TimesNewRomanPSMT-6c" transform="translate(716.293945 0.765625)"/>
      <use xlink:href="#TimesNewRomanPSMT-20" transform="translate(744.077148 0.765625)"/>
      <use xlink:href="#TimesNewRomanPSMT-61" transform="translate(769.077148 0.765625)"/>
      <use xlink:href="#TimesNewRomanPSMT-70" transform="translate(813.461914 0.765625)"/>
      <use xlink:href="#TimesNewRomanPSMT-70" transform="translate(863.461914 0.765625)"/>
      <use xlink:href="#TimesNewRomanPSMT-72" transform="translate(913.461914 0.765625)"/>
      <use xlink:href="#TimesNewRomanPSMT-6f" transform="translate(946.762695 0.765625)"/>
      <use xlink:href="#TimesNewRomanPSMT-78" transform="translate(996.762695 0.765625)"/>
      <use xlink:href="#TimesNewRomanPSMT-2e" transform="translate(1046.762695 0.765625)"/>
      <use xlink:href="#TimesNewRomanPSMT-29" transform="translate(1071.762695 0.765625)"/>
     </g>
    </g>
   </g>
  </g>
 </g>
 <defs>
  <clipPath id="p28ac54383d">
   <rect x="65.057031" y="29.084375" width="637.957851" height="336.3"/>
  </clipPath>
 </defs>
</svg>
