<?xml version="1.0" encoding="utf-8" standalone="no"?>
<!DOCTYPE svg PUBLIC "-//W3C//DTD SVG 1.1//EN"
  "http://www.w3.org/Graphics/SVG/1.1/DTD/svg11.dtd">
<svg xmlns:xlink="http://www.w3.org/1999/xlink" width="903.591406pt" height="535.850625pt" viewBox="0 0 903.591406 535.850625" xmlns="http://www.w3.org/2000/svg" version="1.1">
 <metadata>
  <rdf:RDF xmlns:dc="http://purl.org/dc/elements/1.1/" xmlns:cc="http://creativecommons.org/ns#" xmlns:rdf="http://www.w3.org/1999/02/22-rdf-syntax-ns#">
   <cc:Work>
    <dc:type rdf:resource="http://purl.org/dc/dcmitype/StillImage"/>
    <dc:date>2026-02-19T12:59:07.882911</dc:date>
    <dc:format>image/svg+xml</dc:format>
    <dc:creator>
     <cc:Agent>
      <dc:title>Matplotlib v3.10.3, https://matplotlib.org/</dc:title>
     </cc:Agent>
    </dc:creator>
   </cc:Work>
  </rdf:RDF>
 </metadata>
 <defs>
  <style type="text/css">*{stroke-linejoin: round; stroke-linecap: butt}</style>
 </defs>
 <g id="figure_1">
  <g id="patch_1">
   <path d="M 0 535.850625 
L 903.591406 535.850625 
L 903.591406 0 
L 0 0 
z
" style="fill: #ffffff"/>
  </g>
  <g id="axes_1">
   <g id="patch_2">
    <path d="M 90.959375 476.36 
L 872.159375 476.36 
L 872.159375 32.84 
L 90.959375 32.84 
z
" style="fill: #ffffff"/>
   </g>
   <g id="patch_3">
    <path d="M 714.342826 476.36 
L 722.154826 476.36 
L 722.154826 347.787187 
L 714.342826 347.787187 
z
" clip-path="url(#pe5be2ff420)" style="fill: #ff0000; opacity: 0.1"/>
   </g>
   <g id="patch_4">
    <path d="M 658.640978 476.36 
L 666.452978 476.36 
L 666.452978 280.747776 
L 658.640978 280.747776 
z
" clip-path="url(#pe5be2ff420)" style="fill: #ff0000; opacity: 0.1"/>
   </g>
   <g id="patch_5">
    <path d="M 574.844095 476.36 
L 582.656095 476.36 
L 582.656095 237.512242 
L 574.844095 237.512242 
z
" clip-path="url(#pe5be2ff420)" style="fill: #ff0000; opacity: 0.1"/>
   </g>
   <g id="patch_6">
    <path d="M 470.661581 476.36 
L 478.473581 476.36 
L 478.473581 220.464983 
L 470.661581 220.464983 
z
" clip-path="url(#pe5be2ff420)" style="fill: #ff0000; opacity: 0.1"/>
   </g>
   <g id="patch_7">
    <path d="M 356.658383 476.36 
L 364.470383 476.36 
L 364.470383 227.355474 
L 356.658383 227.355474 
z
" clip-path="url(#pe5be2ff420)" style="fill: #ff0000; opacity: 0.1"/>
   </g>
   <g id="patch_8">
    <path d="M 236.5727 476.36 
L 244.3847 476.36 
L 244.3847 252.512528 
L 236.5727 252.512528 
z
" clip-path="url(#pe5be2ff420)" style="fill: #ff0000; opacity: 0.1"/>
   </g>
   <g id="patch_9">
    <path d="M 114.714063 476.36 
L 122.526063 476.36 
L 122.526063 288.647396 
L 114.714063 288.647396 
z
" clip-path="url(#pe5be2ff420)" style="fill: #ff0000; opacity: 0.1"/>
   </g>
   <g id="patch_10">
    <path d="M -9.814986 476.36 
L -2.002986 476.36 
L -2.002986 328.638579 
L -9.814986 328.638579 
z
" clip-path="url(#pe5be2ff420)" style="fill: #ff0000; opacity: 0.1"/>
   </g>
   <g id="patch_11">
    <path d="M -133.993964 476.36 
L -126.181964 476.36 
L -126.181964 366.828362 
L -133.993964 366.828362 
z
" clip-path="url(#pe5be2ff420)" style="fill: #ff0000; opacity: 0.1"/>
   </g>
   <g id="patch_12">
    <path d="M -258.568823 476.36 
L -250.756823 476.36 
L -250.756823 399.624602 
L -258.568823 399.624602 
z
" clip-path="url(#pe5be2ff420)" style="fill: #ff0000; opacity: 0.1"/>
   </g>
   <g id="patch_13">
    <path d="M -383.294881 476.36 
L -375.482881 476.36 
L -375.482881 425.462809 
L -383.294881 425.462809 
z
" clip-path="url(#pe5be2ff420)" style="fill: #ff0000; opacity: 0.1"/>
   </g>
   <g id="patch_14">
    <path d="M -508.094669 476.36 
L -500.282669 476.36 
L -500.282669 444.349345 
L -508.094669 444.349345 
z
" clip-path="url(#pe5be2ff420)" style="fill: #ff0000; opacity: 0.1"/>
   </g>
   <g id="patch_15">
    <path d="M -632.822434 476.36 
L -625.010434 476.36 
L -625.010434 457.248009 
L -632.822434 457.248009 
z
" clip-path="url(#pe5be2ff420)" style="fill: #ff0000; opacity: 0.1"/>
   </g>
   <g id="patch_16">
    <path d="M -757.463202 476.36 
L -749.651202 476.36 
L -749.651202 465.517565 
L -757.463202 465.517565 
z
" clip-path="url(#pe5be2ff420)" style="fill: #ff0000; opacity: 0.1"/>
   </g>
   <g id="matplotlib.axis_1">
    <g id="xtick_1">
     <g id="line2d_1">
      <defs>
       <path id="mc3daa5cc27" d="M 0 0 
L 0 -6 
" style="stroke: #000000"/>
      </defs>
      <g>
       <use xlink:href="#mc3daa5cc27" x="90.959375" y="476.36" style="stroke: #000000"/>
      </g>
     </g>
     <g id="line2d_2">
      <defs>
       <path id="m102a68f7cc" d="M 0 0 
L 0 6 
" style="stroke: #000000"/>
      </defs>
      <g>
       <use xlink:href="#m102a68f7cc" x="90.959375" y="32.84" style="stroke: #000000"/>
      </g>
     </g>
     <g id="text_1">
      <!-- −0.05 -->
      <g transform="translate(52.652734 498.856094) scale(0.25 -0.25)">
       <defs>
        <path id="DejaVuSans-2212" d="M 678 2272 
L 4684 2272 
L 4684 1741 
L 678 1741 
L 678 2272 
z
" transform="scale(0.015625)"/>
        <path id="DejaVuSans-30" d="M 2034 4250 
Q 1547 4250 1301 3770 
Q 1056 3291 1056 2328 
Q 1056 1369 1301 889 
Q 1547 409 2034 409 
Q 2525 409 2770 889 
Q 3016 1369 3016 2328 
Q 3016 3291 2770 3770 
Q 2525 4250 2034 4250 
z
M 2034 4750 
Q 2819 4750 3233 4129 
Q 3647 3509 3647 2328 
Q 3647 1150 3233 529 
Q 2819 -91 2034 -91 
Q 1250 -91 836 529 
Q 422 1150 422 2328 
Q 422 3509 836 4129 
Q 1250 4750 2034 4750 
z
" transform="scale(0.015625)"/>
        <path id="DejaVuSans-2e" d="M 684 794 
L 1344 794 
L 1344 0 
L 684 0 
L 684 794 
z
" transform="scale(0.015625)"/>
        <path id="DejaVuSans-35" d="M 691 4666 
L 3169 4666 
L 3169 4134 
L 1269 4134 
L 1269 2991 
Q 1406 3038 1543 3061 
Q 1681 3084 1819 3084 
Q 2600 3084 3056 2656 
Q 3513 2228 3513 1497 
Q 3513 744 3044 326 
Q 2575 -91 1722 -91 
Q 1428 -91 1123 -41 
Q 819 9 494 109 
L 494 744 
Q 775 591 1075 516 
Q 1375 441 1709 441 
Q 2250 441 2565 725 
Q 2881 1009 2881 1497 
Q 2881 1984 2565 2268 
Q 2250 2553 1709 2553 
Q 1456 2553 1204 2497 
Q 953 2441 691 2322 
L 691 4666 
z
" transform="scale(0.015625)"/>
       </defs>
       <use xlink:href="#DejaVuSans-2212"/>
       <use xlink:href="#DejaVuSans-30" transform="translate(83.789062 0)"/>
       <use xlink:href="#DejaVuSans-2e" transform="translate(147.412109 0)"/>
       <use xlink:href="#DejaVuSans-30" transform="translate(179.199219 0)"/>
       <use xlink:href="#DejaVuSans-35" transform="translate(242.822266 0)"/>
      </g>
     </g>
    </g>
    <g id="xtick_2">
     <g id="line2d_3">
      <g>
       <use xlink:href="#mc3daa5cc27" x="247.199375" y="476.36" style="stroke: #000000"/>
      </g>
     </g>
     <g id="line2d_4">
      <g>
       <use xlink:href="#m102a68f7cc" x="247.199375" y="32.84" style="stroke: #000000"/>
      </g>
     </g>
     <g id="text_2">
      <!-- −0.04 -->
      <g transform="translate(208.892734 498.856094) scale(0.25 -0.25)">
       <defs>
        <path id="DejaVuSans-34" d="M 2419 4116 
L 825 1625 
L 2419 1625 
L 2419 4116 
z
M 2253 4666 
L 3047 4666 
L 3047 1625 
L 3713 1625 
L 3713 1100 
L 3047 1100 
L 3047 0 
L 2419 0 
L 2419 1100 
L 313 1100 
L 313 1709 
L 2253 4666 
z
" transform="scale(0.015625)"/>
       </defs>
       <use xlink:href="#DejaVuSans-2212"/>
       <use xlink:href="#DejaVuSans-30" transform="translate(83.789062 0)"/>
       <use xlink:href="#DejaVuSans-2e" transform="translate(147.412109 0)"/>
       <use xlink:href="#DejaVuSans-30" transform="translate(179.199219 0)"/>
       <use xlink:href="#DejaVuSans-34" transform="translate(242.822266 0)"/>
      </g>
     </g>
    </g>
    <g id="xtick_3">
     <g id="line2d_5">
      <g>
       <use xlink:href="#mc3daa5cc27" x="403.439375" y="476.36" style="stroke: #000000"/>
      </g>
     </g>
     <g id="line2d_6">
      <g>
       <use xlink:href="#m102a68f7cc" x="403.439375" y="32.84" style="stroke: #000000"/>
      </g>
     </g>
     <g id="text_3">
      <!-- −0.03 -->
      <g transform="translate(365.132734 498.856094) scale(0.25 -0.25)">
       <defs>
        <path id="DejaVuSans-33" d="M 2597 2516 
Q 3050 2419 3304 2112 
Q 3559 1806 3559 1356 
Q 3559 666 3084 287 
Q 2609 -91 1734 -91 
Q 1441 -91 1130 -33 
Q 819 25 488 141 
L 488 750 
Q 750 597 1062 519 
Q 1375 441 1716 441 
Q 2309 441 2620 675 
Q 2931 909 2931 1356 
Q 2931 1769 2642 2001 
Q 2353 2234 1838 2234 
L 1294 2234 
L 1294 2753 
L 1863 2753 
Q 2328 2753 2575 2939 
Q 2822 3125 2822 3475 
Q 2822 3834 2567 4026 
Q 2313 4219 1838 4219 
Q 1578 4219 1281 4162 
Q 984 4106 628 3988 
L 628 4550 
Q 988 4650 1302 4700 
Q 1616 4750 1894 4750 
Q 2613 4750 3031 4423 
Q 3450 4097 3450 3541 
Q 3450 3153 3228 2886 
Q 3006 2619 2597 2516 
z
" transform="scale(0.015625)"/>
       </defs>
       <use xlink:href="#DejaVuSans-2212"/>
       <use xlink:href="#DejaVuSans-30" transform="translate(83.789062 0)"/>
       <use xlink:href="#DejaVuSans-2e" transform="translate(147.412109 0)"/>
       <use xlink:href="#DejaVuSans-30" transform="translate(179.199219 0)"/>
       <use xlink:href="#DejaVuSans-33" transform="translate(242.822266 0)"/>
      </g>
     </g>
    </g>
    <g id="xtick_4">
     <g id="line2d_7">
      <g>
       <use xlink:href="#mc3daa5cc27" x="559.679375" y="476.36" style="stroke: #000000"/>
      </g>
     </g>
     <g id="line2d_8">
      <g>
       <use xlink:href="#m102a68f7cc" x="559.679375" y="32.84" style="stroke: #000000"/>
      </g>
     </g>
     <g id="text_4">
      <!-- −0.02 -->
      <g transform="translate(521.372734 498.856094) scale(0.25 -0.25)">
       <defs>
        <path id="DejaVuSans-32" d="M 1228 531 
L 3431 531 
L 3431 0 
L 469 0 
L 469 531 
Q 828 903 1448 1529 
Q 2069 2156 2228 2338 
Q 2531 2678 2651 2914 
Q 2772 3150 2772 3378 
Q 2772 3750 2511 3984 
Q 2250 4219 1831 4219 
Q 1534 4219 1204 4116 
Q 875 4013 500 3803 
L 500 4441 
Q 881 4594 1212 4672 
Q 1544 4750 1819 4750 
Q 2544 4750 2975 4387 
Q 3406 4025 3406 3419 
Q 3406 3131 3298 2873 
Q 3191 2616 2906 2266 
Q 2828 2175 2409 1742 
Q 1991 1309 1228 531 
z
" transform="scale(0.015625)"/>
       </defs>
       <use xlink:href="#DejaVuSans-2212"/>
       <use xlink:href="#DejaVuSans-30" transform="translate(83.789062 0)"/>
       <use xlink:href="#DejaVuSans-2e" transform="translate(147.412109 0)"/>
       <use xlink:href="#DejaVuSans-30" transform="translate(179.199219 0)"/>
       <use xlink:href="#DejaVuSans-32" transform="translate(242.822266 0)"/>
      </g>
     </g>
    </g>
    <g id="xtick_5">
     <g id="line2d_9">
      <g>
       <use xlink:href="#mc3daa5cc27" x="715.919375" y="476.36" style="stroke: #000000"/>
      </g>
     </g>
     <g id="line2d_10">
      <g>
       <use xlink:href="#m102a68f7cc" x="715.919375" y="32.84" style="stroke: #000000"/>
      </g>
     </g>
     <g id="text_5">
      <!-- −0.01 -->
      <g transform="translate(677.612734 498.856094) scale(0.25 -0.25)">
       <defs>
        <path id="DejaVuSans-31" d="M 794 531 
L 1825 531 
L 1825 4091 
L 703 3866 
L 703 4441 
L 1819 4666 
L 2450 4666 
L 2450 531 
L 3481 531 
L 3481 0 
L 794 0 
L 794 531 
z
" transform="scale(0.015625)"/>
       </defs>
       <use xlink:href="#DejaVuSans-2212"/>
       <use xlink:href="#DejaVuSans-30" transform="translate(83.789062 0)"/>
       <use xlink:href="#DejaVuSans-2e" transform="translate(147.412109 0)"/>
       <use xlink:href="#DejaVuSans-30" transform="translate(179.199219 0)"/>
       <use xlink:href="#DejaVuSans-31" transform="translate(242.822266 0)"/>
      </g>
     </g>
    </g>
    <g id="xtick_6">
     <g id="line2d_11">
      <g>
       <use xlink:href="#mc3daa5cc27" x="872.159375" y="476.36" style="stroke: #000000"/>
      </g>
     </g>
     <g id="line2d_12">
      <g>
       <use xlink:href="#m102a68f7cc" x="872.159375" y="32.84" style="stroke: #000000"/>
      </g>
     </g>
     <g id="text_6">
      <!-- 0.00 -->
      <g transform="translate(844.327344 498.856094) scale(0.25 -0.25)">
       <use xlink:href="#DejaVuSans-30"/>
       <use xlink:href="#DejaVuSans-2e" transform="translate(63.623047 0)"/>
       <use xlink:href="#DejaVuSans-30" transform="translate(95.410156 0)"/>
       <use xlink:href="#DejaVuSans-30" transform="translate(159.033203 0)"/>
      </g>
     </g>
    </g>
    <g id="xtick_7">
     <g id="line2d_13">
      <defs>
       <path id="m4073f9ff9b" d="M 0 0 
L 0 -3 
" style="stroke: #000000"/>
      </defs>
      <g>
       <use xlink:href="#m4073f9ff9b" x="122.207375" y="476.36" style="stroke: #000000"/>
      </g>
     </g>
     <g id="line2d_14">
      <defs>
       <path id="m47bfa468af" d="M 0 0 
L 0 3 
" style="stroke: #000000"/>
      </defs>
      <g>
       <use xlink:href="#m47bfa468af" x="122.207375" y="32.84" style="stroke: #000000"/>
      </g>
     </g>
    </g>
    <g id="xtick_8">
     <g id="line2d_15">
      <g>
       <use xlink:href="#m4073f9ff9b" x="153.455375" y="476.36" style="stroke: #000000"/>
      </g>
     </g>
     <g id="line2d_16">
      <g>
       <use xlink:href="#m47bfa468af" x="153.455375" y="32.84" style="stroke: #000000"/>
      </g>
     </g>
    </g>
    <g id="xtick_9">
     <g id="line2d_17">
      <g>
       <use xlink:href="#m4073f9ff9b" x="184.703375" y="476.36" style="stroke: #000000"/>
      </g>
     </g>
     <g id="line2d_18">
      <g>
       <use xlink:href="#m47bfa468af" x="184.703375" y="32.84" style="stroke: #000000"/>
      </g>
     </g>
    </g>
    <g id="xtick_10">
     <g id="line2d_19">
      <g>
       <use xlink:href="#m4073f9ff9b" x="215.951375" y="476.36" style="stroke: #000000"/>
      </g>
     </g>
     <g id="line2d_20">
      <g>
       <use xlink:href="#m47bfa468af" x="215.951375" y="32.84" style="stroke: #000000"/>
      </g>
     </g>
    </g>
    <g id="xtick_11">
     <g id="line2d_21">
      <g>
       <use xlink:href="#m4073f9ff9b" x="278.447375" y="476.36" style="stroke: #000000"/>
      </g>
     </g>
     <g id="line2d_22">
      <g>
       <use xlink:href="#m47bfa468af" x="278.447375" y="32.84" style="stroke: #000000"/>
      </g>
     </g>
    </g>
    <g id="xtick_12">
     <g id="line2d_23">
      <g>
       <use xlink:href="#m4073f9ff9b" x="309.695375" y="476.36" style="stroke: #000000"/>
      </g>
     </g>
     <g id="line2d_24">
      <g>
       <use xlink:href="#m47bfa468af" x="309.695375" y="32.84" style="stroke: #000000"/>
      </g>
     </g>
    </g>
    <g id="xtick_13">
     <g id="line2d_25">
      <g>
       <use xlink:href="#m4073f9ff9b" x="340.943375" y="476.36" style="stroke: #000000"/>
      </g>
     </g>
     <g id="line2d_26">
      <g>
       <use xlink:href="#m47bfa468af" x="340.943375" y="32.84" style="stroke: #000000"/>
      </g>
     </g>
    </g>
    <g id="xtick_14">
     <g id="line2d_27">
      <g>
       <use xlink:href="#m4073f9ff9b" x="372.191375" y="476.36" style="stroke: #000000"/>
      </g>
     </g>
     <g id="line2d_28">
      <g>
       <use xlink:href="#m47bfa468af" x="372.191375" y="32.84" style="stroke: #000000"/>
      </g>
     </g>
    </g>
    <g id="xtick_15">
     <g id="line2d_29">
      <g>
       <use xlink:href="#m4073f9ff9b" x="434.687375" y="476.36" style="stroke: #000000"/>
      </g>
     </g>
     <g id="line2d_30">
      <g>
       <use xlink:href="#m47bfa468af" x="434.687375" y="32.84" style="stroke: #000000"/>
      </g>
     </g>
    </g>
    <g id="xtick_16">
     <g id="line2d_31">
      <g>
       <use xlink:href="#m4073f9ff9b" x="465.935375" y="476.36" style="stroke: #000000"/>
      </g>
     </g>
     <g id="line2d_32">
      <g>
       <use xlink:href="#m47bfa468af" x="465.935375" y="32.84" style="stroke: #000000"/>
      </g>
     </g>
    </g>
    <g id="xtick_17">
     <g id="line2d_33">
      <g>
       <use xlink:href="#m4073f9ff9b" x="497.183375" y="476.36" style="stroke: #000000"/>
      </g>
     </g>
     <g id="line2d_34">
      <g>
       <use xlink:href="#m47bfa468af" x="497.183375" y="32.84" style="stroke: #000000"/>
      </g>
     </g>
    </g>
    <g id="xtick_18">
     <g id="line2d_35">
      <g>
       <use xlink:href="#m4073f9ff9b" x="528.431375" y="476.36" style="stroke: #000000"/>
      </g>
     </g>
     <g id="line2d_36">
      <g>
       <use xlink:href="#m47bfa468af" x="528.431375" y="32.84" style="stroke: #000000"/>
      </g>
     </g>
    </g>
    <g id="xtick_19">
     <g id="line2d_37">
      <g>
       <use xlink:href="#m4073f9ff9b" x="590.927375" y="476.36" style="stroke: #000000"/>
      </g>
     </g>
     <g id="line2d_38">
      <g>
       <use xlink:href="#m47bfa468af" x="590.927375" y="32.84" style="stroke: #000000"/>
      </g>
     </g>
    </g>
    <g id="xtick_20">
     <g id="line2d_39">
      <g>
       <use xlink:href="#m4073f9ff9b" x="622.175375" y="476.36" style="stroke: #000000"/>
      </g>
     </g>
     <g id="line2d_40">
      <g>
       <use xlink:href="#m47bfa468af" x="622.175375" y="32.84" style="stroke: #000000"/>
      </g>
     </g>
    </g>
    <g id="xtick_21">
     <g id="line2d_41">
      <g>
       <use xlink:href="#m4073f9ff9b" x="653.423375" y="476.36" style="stroke: #000000"/>
      </g>
     </g>
     <g id="line2d_42">
      <g>
       <use xlink:href="#m47bfa468af" x="653.423375" y="32.84" style="stroke: #000000"/>
      </g>
     </g>
    </g>
    <g id="xtick_22">
     <g id="line2d_43">
      <g>
       <use xlink:href="#m4073f9ff9b" x="684.671375" y="476.36" style="stroke: #000000"/>
      </g>
     </g>
     <g id="line2d_44">
      <g>
       <use xlink:href="#m47bfa468af" x="684.671375" y="32.84" style="stroke: #000000"/>
      </g>
     </g>
    </g>
    <g id="xtick_23">
     <g id="line2d_45">
      <g>
       <use xlink:href="#m4073f9ff9b" x="747.167375" y="476.36" style="stroke: #000000"/>
      </g>
     </g>
     <g id="line2d_46">
      <g>
       <use xlink:href="#m47bfa468af" x="747.167375" y="32.84" style="stroke: #000000"/>
      </g>
     </g>
    </g>
    <g id="xtick_24">
     <g id="line2d_47">
      <g>
       <use xlink:href="#m4073f9ff9b" x="778.415375" y="476.36" style="stroke: #000000"/>
      </g>
     </g>
     <g id="line2d_48">
      <g>
       <use xlink:href="#m47bfa468af" x="778.415375" y="32.84" style="stroke: #000000"/>
      </g>
     </g>
    </g>
    <g id="xtick_25">
     <g id="line2d_49">
      <g>
       <use xlink:href="#m4073f9ff9b" x="809.663375" y="476.36" style="stroke: #000000"/>
      </g>
     </g>
     <g id="line2d_50">
      <g>
       <use xlink:href="#m47bfa468af" x="809.663375" y="32.84" style="stroke: #000000"/>
      </g>
     </g>
    </g>
    <g id="xtick_26">
     <g id="line2d_51">
      <g>
       <use xlink:href="#m4073f9ff9b" x="840.911375" y="476.36" style="stroke: #000000"/>
      </g>
     </g>
     <g id="line2d_52">
      <g>
       <use xlink:href="#m47bfa468af" x="840.911375" y="32.84" style="stroke: #000000"/>
      </g>
     </g>
    </g>
    <g id="text_7">
     <!-- Frequency (MHz) -->
     <g transform="translate(376.5125 527.051406) scale(0.25 -0.25)">
      <defs>
       <path id="DejaVuSans-46" d="M 628 4666 
L 3309 4666 
L 3309 4134 
L 1259 4134 
L 1259 2759 
L 3109 2759 
L 3109 2228 
L 1259 2228 
L 1259 0 
L 628 0 
L 628 4666 
z
" transform="scale(0.015625)"/>
       <path id="DejaVuSans-72" d="M 2631 2963 
Q 2534 3019 2420 3045 
Q 2306 3072 2169 3072 
Q 1681 3072 1420 2755 
Q 1159 2438 1159 1844 
L 1159 0 
L 581 0 
L 581 3500 
L 1159 3500 
L 1159 2956 
Q 1341 3275 1631 3429 
Q 1922 3584 2338 3584 
Q 2397 3584 2469 3576 
Q 2541 3569 2628 3553 
L 2631 2963 
z
" transform="scale(0.015625)"/>
       <path id="DejaVuSans-65" d="M 3597 1894 
L 3597 1613 
L 953 1613 
Q 991 1019 1311 708 
Q 1631 397 2203 397 
Q 2534 397 2845 478 
Q 3156 559 3463 722 
L 3463 178 
Q 3153 47 2828 -22 
Q 2503 -91 2169 -91 
Q 1331 -91 842 396 
Q 353 884 353 1716 
Q 353 2575 817 3079 
Q 1281 3584 2069 3584 
Q 2775 3584 3186 3129 
Q 3597 2675 3597 1894 
z
M 3022 2063 
Q 3016 2534 2758 2815 
Q 2500 3097 2075 3097 
Q 1594 3097 1305 2825 
Q 1016 2553 972 2059 
L 3022 2063 
z
" transform="scale(0.015625)"/>
       <path id="DejaVuSans-71" d="M 947 1747 
Q 947 1113 1208 752 
Q 1469 391 1925 391 
Q 2381 391 2643 752 
Q 2906 1113 2906 1747 
Q 2906 2381 2643 2742 
Q 2381 3103 1925 3103 
Q 1469 3103 1208 2742 
Q 947 2381 947 1747 
z
M 2906 525 
Q 2725 213 2448 61 
Q 2172 -91 1784 -91 
Q 1150 -91 751 415 
Q 353 922 353 1747 
Q 353 2572 751 3078 
Q 1150 3584 1784 3584 
Q 2172 3584 2448 3432 
Q 2725 3281 2906 2969 
L 2906 3500 
L 3481 3500 
L 3481 -1331 
L 2906 -1331 
L 2906 525 
z
" transform="scale(0.015625)"/>
       <path id="DejaVuSans-75" d="M 544 1381 
L 544 3500 
L 1119 3500 
L 1119 1403 
Q 1119 906 1312 657 
Q 1506 409 1894 409 
Q 2359 409 2629 706 
Q 2900 1003 2900 1516 
L 2900 3500 
L 3475 3500 
L 3475 0 
L 2900 0 
L 2900 538 
Q 2691 219 2414 64 
Q 2138 -91 1772 -91 
Q 1169 -91 856 284 
Q 544 659 544 1381 
z
M 1991 3584 
L 1991 3584 
z
" transform="scale(0.015625)"/>
       <path id="DejaVuSans-6e" d="M 3513 2113 
L 3513 0 
L 2938 0 
L 2938 2094 
Q 2938 2591 2744 2837 
Q 2550 3084 2163 3084 
Q 1697 3084 1428 2787 
Q 1159 2491 1159 1978 
L 1159 0 
L 581 0 
L 581 3500 
L 1159 3500 
L 1159 2956 
Q 1366 3272 1645 3428 
Q 1925 3584 2291 3584 
Q 2894 3584 3203 3211 
Q 3513 2838 3513 2113 
z
" transform="scale(0.015625)"/>
       <path id="DejaVuSans-63" d="M 3122 3366 
L 3122 2828 
Q 2878 2963 2633 3030 
Q 2388 3097 2138 3097 
Q 1578 3097 1268 2742 
Q 959 2388 959 1747 
Q 959 1106 1268 751 
Q 1578 397 2138 397 
Q 2388 397 2633 464 
Q 2878 531 3122 666 
L 3122 134 
Q 2881 22 2623 -34 
Q 2366 -91 2075 -91 
Q 1284 -91 818 406 
Q 353 903 353 1747 
Q 353 2603 823 3093 
Q 1294 3584 2113 3584 
Q 2378 3584 2631 3529 
Q 2884 3475 3122 3366 
z
" transform="scale(0.015625)"/>
       <path id="DejaVuSans-79" d="M 2059 -325 
Q 1816 -950 1584 -1140 
Q 1353 -1331 966 -1331 
L 506 -1331 
L 506 -850 
L 844 -850 
Q 1081 -850 1212 -737 
Q 1344 -625 1503 -206 
L 1606 56 
L 191 3500 
L 800 3500 
L 1894 763 
L 2988 3500 
L 3597 3500 
L 2059 -325 
z
" transform="scale(0.015625)"/>
       <path id="DejaVuSans-20" transform="scale(0.015625)"/>
       <path id="DejaVuSans-28" d="M 1984 4856 
Q 1566 4138 1362 3434 
Q 1159 2731 1159 2009 
Q 1159 1288 1364 580 
Q 1569 -128 1984 -844 
L 1484 -844 
Q 1016 -109 783 600 
Q 550 1309 550 2009 
Q 550 2706 781 3412 
Q 1013 4119 1484 4856 
L 1984 4856 
z
" transform="scale(0.015625)"/>
       <path id="DejaVuSans-4d" d="M 628 4666 
L 1569 4666 
L 2759 1491 
L 3956 4666 
L 4897 4666 
L 4897 0 
L 4281 0 
L 4281 4097 
L 3078 897 
L 2444 897 
L 1241 4097 
L 1241 0 
L 628 0 
L 628 4666 
z
" transform="scale(0.015625)"/>
       <path id="DejaVuSans-48" d="M 628 4666 
L 1259 4666 
L 1259 2753 
L 3553 2753 
L 3553 4666 
L 4184 4666 
L 4184 0 
L 3553 0 
L 3553 2222 
L 1259 2222 
L 1259 0 
L 628 0 
L 628 4666 
z
" transform="scale(0.015625)"/>
       <path id="DejaVuSans-7a" d="M 353 3500 
L 3084 3500 
L 3084 2975 
L 922 459 
L 3084 459 
L 3084 0 
L 275 0 
L 275 525 
L 2438 3041 
L 353 3041 
L 353 3500 
z
" transform="scale(0.015625)"/>
       <path id="DejaVuSans-29" d="M 513 4856 
L 1013 4856 
Q 1481 4119 1714 3412 
Q 1947 2706 1947 2009 
Q 1947 1309 1714 600 
Q 1481 -109 1013 -844 
L 513 -844 
Q 928 -128 1133 580 
Q 1338 1288 1338 2009 
Q 1338 2731 1133 3434 
Q 928 4138 513 4856 
z
" transform="scale(0.015625)"/>
      </defs>
      <use xlink:href="#DejaVuSans-46"/>
      <use xlink:href="#DejaVuSans-72" transform="translate(50.269531 0)"/>
      <use xlink:href="#DejaVuSans-65" transform="translate(89.132812 0)"/>
      <use xlink:href="#DejaVuSans-71" transform="translate(150.65625 0)"/>
      <use xlink:href="#DejaVuSans-75" transform="translate(214.132812 0)"/>
      <use xlink:href="#DejaVuSans-65" transform="translate(277.511719 0)"/>
      <use xlink:href="#DejaVuSans-6e" transform="translate(339.035156 0)"/>
      <use xlink:href="#DejaVuSans-63" transform="translate(402.414062 0)"/>
      <use xlink:href="#DejaVuSans-79" transform="translate(457.394531 0)"/>
      <use xlink:href="#DejaVuSans-20" transform="translate(516.574219 0)"/>
      <use xlink:href="#DejaVuSans-28" transform="translate(548.361328 0)"/>
      <use xlink:href="#DejaVuSans-4d" transform="translate(587.375 0)"/>
      <use xlink:href="#DejaVuSans-48" transform="translate(673.654297 0)"/>
      <use xlink:href="#DejaVuSans-7a" transform="translate(748.849609 0)"/>
      <use xlink:href="#DejaVuSans-29" transform="translate(801.339844 0)"/>
     </g>
    </g>
   </g>
   <g id="matplotlib.axis_2">
    <g id="ytick_1">
     <g id="line2d_53">
      <defs>
       <path id="mf9d4425957" d="M 0 0 
L 6 0 
" style="stroke: #000000"/>
      </defs>
      <g>
       <use xlink:href="#mf9d4425957" x="90.959375" y="476.36" style="stroke: #000000"/>
      </g>
     </g>
     <g id="line2d_54">
      <defs>
       <path id="m65c25bee59" d="M 0 0 
L -6 0 
" style="stroke: #000000"/>
      </defs>
      <g>
       <use xlink:href="#m65c25bee59" x="872.159375" y="476.36" style="stroke: #000000"/>
      </g>
     </g>
     <g id="text_8">
      <!-- 0.00 -->
      <g transform="translate(31.795313 485.858047) scale(0.25 -0.25)">
       <use xlink:href="#DejaVuSans-30"/>
       <use xlink:href="#DejaVuSans-2e" transform="translate(63.623047 0)"/>
       <use xlink:href="#DejaVuSans-30" transform="translate(95.410156 0)"/>
       <use xlink:href="#DejaVuSans-30" transform="translate(159.033203 0)"/>
      </g>
     </g>
    </g>
    <g id="ytick_2">
     <g id="line2d_55">
      <g>
       <use xlink:href="#mf9d4425957" x="90.959375" y="377.8" style="stroke: #000000"/>
      </g>
     </g>
     <g id="line2d_56">
      <g>
       <use xlink:href="#m65c25bee59" x="872.159375" y="377.8" style="stroke: #000000"/>
      </g>
     </g>
     <g id="text_9">
      <!-- 0.05 -->
      <g transform="translate(31.795313 387.298047) scale(0.25 -0.25)">
       <use xlink:href="#DejaVuSans-30"/>
       <use xlink:href="#DejaVuSans-2e" transform="translate(63.623047 0)"/>
       <use xlink:href="#DejaVuSans-30" transform="translate(95.410156 0)"/>
       <use xlink:href="#DejaVuSans-35" transform="translate(159.033203 0)"/>
      </g>
     </g>
    </g>
    <g id="ytick_3">
     <g id="line2d_57">
      <g>
       <use xlink:href="#mf9d4425957" x="90.959375" y="279.24" style="stroke: #000000"/>
      </g>
     </g>
     <g id="line2d_58">
      <g>
       <use xlink:href="#m65c25bee59" x="872.159375" y="279.24" style="stroke: #000000"/>
      </g>
     </g>
     <g id="text_10">
      <!-- 0.10 -->
      <g transform="translate(31.795313 288.738047) scale(0.25 -0.25)">
       <use xlink:href="#DejaVuSans-30"/>
       <use xlink:href="#DejaVuSans-2e" transform="translate(63.623047 0)"/>
       <use xlink:href="#DejaVuSans-31" transform="translate(95.410156 0)"/>
       <use xlink:href="#DejaVuSans-30" transform="translate(159.033203 0)"/>
      </g>
     </g>
    </g>
    <g id="ytick_4">
     <g id="line2d_59">
      <g>
       <use xlink:href="#mf9d4425957" x="90.959375" y="180.68" style="stroke: #000000"/>
      </g>
     </g>
     <g id="line2d_60">
      <g>
       <use xlink:href="#m65c25bee59" x="872.159375" y="180.68" style="stroke: #000000"/>
      </g>
     </g>
     <g id="text_11">
      <!-- 0.15 -->
      <g transform="translate(31.795313 190.178047) scale(0.25 -0.25)">
       <use xlink:href="#DejaVuSans-30"/>
       <use xlink:href="#DejaVuSans-2e" transform="translate(63.623047 0)"/>
       <use xlink:href="#DejaVuSans-31" transform="translate(95.410156 0)"/>
       <use xlink:href="#DejaVuSans-35" transform="translate(159.033203 0)"/>
      </g>
     </g>
    </g>
    <g id="ytick_5">
     <g id="line2d_61">
      <g>
       <use xlink:href="#mf9d4425957" x="90.959375" y="82.12" style="stroke: #000000"/>
      </g>
     </g>
     <g id="line2d_62">
      <g>
       <use xlink:href="#m65c25bee59" x="872.159375" y="82.12" style="stroke: #000000"/>
      </g>
     </g>
     <g id="text_12">
      <!-- 0.20 -->
      <g transform="translate(31.795313 91.618047) scale(0.25 -0.25)">
       <use xlink:href="#DejaVuSans-30"/>
       <use xlink:href="#DejaVuSans-2e" transform="translate(63.623047 0)"/>
       <use xlink:href="#DejaVuSans-32" transform="translate(95.410156 0)"/>
       <use xlink:href="#DejaVuSans-30" transform="translate(159.033203 0)"/>
      </g>
     </g>
    </g>
    <g id="ytick_6">
     <g id="line2d_63">
      <defs>
       <path id="m6a82e40bc7" d="M 0 0 
L 3 0 
" style="stroke: #000000"/>
      </defs>
      <g>
       <use xlink:href="#m6a82e40bc7" x="90.959375" y="456.648" style="stroke: #000000"/>
      </g>
     </g>
     <g id="line2d_64">
      <defs>
       <path id="m63bbb5e001" d="M 0 0 
L -3 0 
" style="stroke: #000000"/>
      </defs>
      <g>
       <use xlink:href="#m63bbb5e001" x="872.159375" y="456.648" style="stroke: #000000"/>
      </g>
     </g>
    </g>
    <g id="ytick_7">
     <g id="line2d_65">
      <g>
       <use xlink:href="#m6a82e40bc7" x="90.959375" y="436.936" style="stroke: #000000"/>
      </g>
     </g>
     <g id="line2d_66">
      <g>
       <use xlink:href="#m63bbb5e001" x="872.159375" y="436.936" style="stroke: #000000"/>
      </g>
     </g>
    </g>
    <g id="ytick_8">
     <g id="line2d_67">
      <g>
       <use xlink:href="#m6a82e40bc7" x="90.959375" y="417.224" style="stroke: #000000"/>
      </g>
     </g>
     <g id="line2d_68">
      <g>
       <use xlink:href="#m63bbb5e001" x="872.159375" y="417.224" style="stroke: #000000"/>
      </g>
     </g>
    </g>
    <g id="ytick_9">
     <g id="line2d_69">
      <g>
       <use xlink:href="#m6a82e40bc7" x="90.959375" y="397.512" style="stroke: #000000"/>
      </g>
     </g>
     <g id="line2d_70">
      <g>
       <use xlink:href="#m63bbb5e001" x="872.159375" y="397.512" style="stroke: #000000"/>
      </g>
     </g>
    </g>
    <g id="ytick_10">
     <g id="line2d_71">
      <g>
       <use xlink:href="#m6a82e40bc7" x="90.959375" y="358.088" style="stroke: #000000"/>
      </g>
     </g>
     <g id="line2d_72">
      <g>
       <use xlink:href="#m63bbb5e001" x="872.159375" y="358.088" style="stroke: #000000"/>
      </g>
     </g>
    </g>
    <g id="ytick_11">
     <g id="line2d_73">
      <g>
       <use xlink:href="#m6a82e40bc7" x="90.959375" y="338.376" style="stroke: #000000"/>
      </g>
     </g>
     <g id="line2d_74">
      <g>
       <use xlink:href="#m63bbb5e001" x="872.159375" y="338.376" style="stroke: #000000"/>
      </g>
     </g>
    </g>
    <g id="ytick_12">
     <g id="line2d_75">
      <g>
       <use xlink:href="#m6a82e40bc7" x="90.959375" y="318.664" style="stroke: #000000"/>
      </g>
     </g>
     <g id="line2d_76">
      <g>
       <use xlink:href="#m63bbb5e001" x="872.159375" y="318.664" style="stroke: #000000"/>
      </g>
     </g>
    </g>
    <g id="ytick_13">
     <g id="line2d_77">
      <g>
       <use xlink:href="#m6a82e40bc7" x="90.959375" y="298.952" style="stroke: #000000"/>
      </g>
     </g>
     <g id="line2d_78">
      <g>
       <use xlink:href="#m63bbb5e001" x="872.159375" y="298.952" style="stroke: #000000"/>
      </g>
     </g>
    </g>
    <g id="ytick_14">
     <g id="line2d_79">
      <g>
       <use xlink:href="#m6a82e40bc7" x="90.959375" y="259.528" style="stroke: #000000"/>
      </g>
     </g>
     <g id="line2d_80">
      <g>
       <use xlink:href="#m63bbb5e001" x="872.159375" y="259.528" style="stroke: #000000"/>
      </g>
     </g>
    </g>
    <g id="ytick_15">
     <g id="line2d_81">
      <g>
       <use xlink:href="#m6a82e40bc7" x="90.959375" y="239.816" style="stroke: #000000"/>
      </g>
     </g>
     <g id="line2d_82">
      <g>
       <use xlink:href="#m63bbb5e001" x="872.159375" y="239.816" style="stroke: #000000"/>
      </g>
     </g>
    </g>
    <g id="ytick_16">
     <g id="line2d_83">
      <g>
       <use xlink:href="#m6a82e40bc7" x="90.959375" y="220.104" style="stroke: #000000"/>
      </g>
     </g>
     <g id="line2d_84">
      <g>
       <use xlink:href="#m63bbb5e001" x="872.159375" y="220.104" style="stroke: #000000"/>
      </g>
     </g>
    </g>
    <g id="ytick_17">
     <g id="line2d_85">
      <g>
       <use xlink:href="#m6a82e40bc7" x="90.959375" y="200.392" style="stroke: #000000"/>
      </g>
     </g>
     <g id="line2d_86">
      <g>
       <use xlink:href="#m63bbb5e001" x="872.159375" y="200.392" style="stroke: #000000"/>
      </g>
     </g>
    </g>
    <g id="ytick_18">
     <g id="line2d_87">
      <g>
       <use xlink:href="#m6a82e40bc7" x="90.959375" y="160.968" style="stroke: #000000"/>
      </g>
     </g>
     <g id="line2d_88">
      <g>
       <use xlink:href="#m63bbb5e001" x="872.159375" y="160.968" style="stroke: #000000"/>
      </g>
     </g>
    </g>
    <g id="ytick_19">
     <g id="line2d_89">
      <g>
       <use xlink:href="#m6a82e40bc7" x="90.959375" y="141.256" style="stroke: #000000"/>
      </g>
     </g>
     <g id="line2d_90">
      <g>
       <use xlink:href="#m63bbb5e001" x="872.159375" y="141.256" style="stroke: #000000"/>
      </g>
     </g>
    </g>
    <g id="ytick_20">
     <g id="line2d_91">
      <g>
       <use xlink:href="#m6a82e40bc7" x="90.959375" y="121.544" style="stroke: #000000"/>
      </g>
     </g>
     <g id="line2d_92">
      <g>
       <use xlink:href="#m63bbb5e001" x="872.159375" y="121.544" style="stroke: #000000"/>
      </g>
     </g>
    </g>
    <g id="ytick_21">
     <g id="line2d_93">
      <g>
       <use xlink:href="#m6a82e40bc7" x="90.959375" y="101.832" style="stroke: #000000"/>
      </g>
     </g>
     <g id="line2d_94">
      <g>
       <use xlink:href="#m63bbb5e001" x="872.159375" y="101.832" style="stroke: #000000"/>
      </g>
     </g>
    </g>
    <g id="ytick_22">
     <g id="line2d_95">
      <g>
       <use xlink:href="#m6a82e40bc7" x="90.959375" y="62.408" style="stroke: #000000"/>
      </g>
     </g>
     <g id="line2d_96">
      <g>
       <use xlink:href="#m63bbb5e001" x="872.159375" y="62.408" style="stroke: #000000"/>
      </g>
     </g>
    </g>
    <g id="ytick_23">
     <g id="line2d_97">
      <g>
       <use xlink:href="#m6a82e40bc7" x="90.959375" y="42.696" style="stroke: #000000"/>
      </g>
     </g>
     <g id="line2d_98">
      <g>
       <use xlink:href="#m63bbb5e001" x="872.159375" y="42.696" style="stroke: #000000"/>
      </g>
     </g>
    </g>
    <g id="text_13">
     <!-- Excitation probability -->
     <g transform="translate(22.596094 387.189844) rotate(-90) scale(0.25 -0.25)">
      <defs>
       <path id="DejaVuSans-45" d="M 628 4666 
L 3578 4666 
L 3578 4134 
L 1259 4134 
L 1259 2753 
L 3481 2753 
L 3481 2222 
L 1259 2222 
L 1259 531 
L 3634 531 
L 3634 0 
L 628 0 
L 628 4666 
z
" transform="scale(0.015625)"/>
       <path id="DejaVuSans-78" d="M 3513 3500 
L 2247 1797 
L 3578 0 
L 2900 0 
L 1881 1375 
L 863 0 
L 184 0 
L 1544 1831 
L 300 3500 
L 978 3500 
L 1906 2253 
L 2834 3500 
L 3513 3500 
z
" transform="scale(0.015625)"/>
       <path id="DejaVuSans-69" d="M 603 3500 
L 1178 3500 
L 1178 0 
L 603 0 
L 603 3500 
z
M 603 4863 
L 1178 4863 
L 1178 4134 
L 603 4134 
L 603 4863 
z
" transform="scale(0.015625)"/>
       <path id="DejaVuSans-74" d="M 1172 4494 
L 1172 3500 
L 2356 3500 
L 2356 3053 
L 1172 3053 
L 1172 1153 
Q 1172 725 1289 603 
Q 1406 481 1766 481 
L 2356 481 
L 2356 0 
L 1766 0 
Q 1100 0 847 248 
Q 594 497 594 1153 
L 594 3053 
L 172 3053 
L 172 3500 
L 594 3500 
L 594 4494 
L 1172 4494 
z
" transform="scale(0.015625)"/>
       <path id="DejaVuSans-61" d="M 2194 1759 
Q 1497 1759 1228 1600 
Q 959 1441 959 1056 
Q 959 750 1161 570 
Q 1363 391 1709 391 
Q 2188 391 2477 730 
Q 2766 1069 2766 1631 
L 2766 1759 
L 2194 1759 
z
M 3341 1997 
L 3341 0 
L 2766 0 
L 2766 531 
Q 2569 213 2275 61 
Q 1981 -91 1556 -91 
Q 1019 -91 701 211 
Q 384 513 384 1019 
Q 384 1609 779 1909 
Q 1175 2209 1959 2209 
L 2766 2209 
L 2766 2266 
Q 2766 2663 2505 2880 
Q 2244 3097 1772 3097 
Q 1472 3097 1187 3025 
Q 903 2953 641 2809 
L 641 3341 
Q 956 3463 1253 3523 
Q 1550 3584 1831 3584 
Q 2591 3584 2966 3190 
Q 3341 2797 3341 1997 
z
" transform="scale(0.015625)"/>
       <path id="DejaVuSans-6f" d="M 1959 3097 
Q 1497 3097 1228 2736 
Q 959 2375 959 1747 
Q 959 1119 1226 758 
Q 1494 397 1959 397 
Q 2419 397 2687 759 
Q 2956 1122 2956 1747 
Q 2956 2369 2687 2733 
Q 2419 3097 1959 3097 
z
M 1959 3584 
Q 2709 3584 3137 3096 
Q 3566 2609 3566 1747 
Q 3566 888 3137 398 
Q 2709 -91 1959 -91 
Q 1206 -91 779 398 
Q 353 888 353 1747 
Q 353 2609 779 3096 
Q 1206 3584 1959 3584 
z
" transform="scale(0.015625)"/>
       <path id="DejaVuSans-70" d="M 1159 525 
L 1159 -1331 
L 581 -1331 
L 581 3500 
L 1159 3500 
L 1159 2969 
Q 1341 3281 1617 3432 
Q 1894 3584 2278 3584 
Q 2916 3584 3314 3078 
Q 3713 2572 3713 1747 
Q 3713 922 3314 415 
Q 2916 -91 2278 -91 
Q 1894 -91 1617 61 
Q 1341 213 1159 525 
z
M 3116 1747 
Q 3116 2381 2855 2742 
Q 2594 3103 2138 3103 
Q 1681 3103 1420 2742 
Q 1159 2381 1159 1747 
Q 1159 1113 1420 752 
Q 1681 391 2138 391 
Q 2594 391 2855 752 
Q 3116 1113 3116 1747 
z
" transform="scale(0.015625)"/>
       <path id="DejaVuSans-62" d="M 3116 1747 
Q 3116 2381 2855 2742 
Q 2594 3103 2138 3103 
Q 1681 3103 1420 2742 
Q 1159 2381 1159 1747 
Q 1159 1113 1420 752 
Q 1681 391 2138 391 
Q 2594 391 2855 752 
Q 3116 1113 3116 1747 
z
M 1159 2969 
Q 1341 3281 1617 3432 
Q 1894 3584 2278 3584 
Q 2916 3584 3314 3078 
Q 3713 2572 3713 1747 
Q 3713 922 3314 415 
Q 2916 -91 2278 -91 
Q 1894 -91 1617 61 
Q 1341 213 1159 525 
L 1159 0 
L 581 0 
L 581 4863 
L 1159 4863 
L 1159 2969 
z
" transform="scale(0.015625)"/>
       <path id="DejaVuSans-6c" d="M 603 4863 
L 1178 4863 
L 1178 0 
L 603 0 
L 603 4863 
z
" transform="scale(0.015625)"/>
      </defs>
      <use xlink:href="#DejaVuSans-45"/>
      <use xlink:href="#DejaVuSans-78" transform="translate(63.183594 0)"/>
      <use xlink:href="#DejaVuSans-63" transform="translate(120.613281 0)"/>
      <use xlink:href="#DejaVuSans-69" transform="translate(175.59375 0)"/>
      <use xlink:href="#DejaVuSans-74" transform="translate(203.376953 0)"/>
      <use xlink:href="#DejaVuSans-61" transform="translate(242.585938 0)"/>
      <use xlink:href="#DejaVuSans-74" transform="translate(303.865234 0)"/>
      <use xlink:href="#DejaVuSans-69" transform="translate(343.074219 0)"/>
      <use xlink:href="#DejaVuSans-6f" transform="translate(370.857422 0)"/>
      <use xlink:href="#DejaVuSans-6e" transform="translate(432.039062 0)"/>
      <use xlink:href="#DejaVuSans-20" transform="translate(495.417969 0)"/>
      <use xlink:href="#DejaVuSans-70" transform="translate(527.205078 0)"/>
      <use xlink:href="#DejaVuSans-72" transform="translate(590.681641 0)"/>
      <use xlink:href="#DejaVuSans-6f" transform="translate(629.544922 0)"/>
      <use xlink:href="#DejaVuSans-62" transform="translate(690.726562 0)"/>
      <use xlink:href="#DejaVuSans-61" transform="translate(754.203125 0)"/>
      <use xlink:href="#DejaVuSans-62" transform="translate(815.482422 0)"/>
      <use xlink:href="#DejaVuSans-69" transform="translate(878.958984 0)"/>
      <use xlink:href="#DejaVuSans-6c" transform="translate(906.742188 0)"/>
      <use xlink:href="#DejaVuSans-69" transform="translate(934.525391 0)"/>
      <use xlink:href="#DejaVuSans-74" transform="translate(962.308594 0)"/>
      <use xlink:href="#DejaVuSans-79" transform="translate(1001.517578 0)"/>
     </g>
    </g>
   </g>
   <g id="line2d_99">
    <path d="M 90.959375 475.421812 
L 92.523339 475.611777 
L 94.087303 456.805455 
L 95.651267 469.373318 
L 97.215231 474.919386 
L 98.779195 476.074132 
L 100.343159 476.016705 
L 101.907123 474.303341 
L 103.471087 475.476955 
L 105.035051 474.791871 
L 106.599015 465.469857 
L 108.162979 476.119605 
L 109.726943 474.371259 
L 111.290907 453.304155 
L 112.85487 476.012923 
L 115.982798 475.74694 
L 117.546762 471.96248 
L 119.110726 475.972097 
L 120.67469 475.630281 
L 122.238654 455.884044 
L 123.802618 476.166199 
L 125.366582 452.003555 
L 126.930546 442.172523 
L 128.49451 476.165424 
L 130.058474 475.748375 
L 131.622438 476.140125 
L 133.186402 475.226111 
L 134.750366 475.890978 
L 136.31433 452.659872 
L 137.878294 475.640635 
L 139.442258 476.085287 
L 141.006222 474.768397 
L 142.570186 475.338323 
L 145.698114 475.869822 
L 147.262078 476.11033 
L 148.826042 448.315642 
L 150.390006 476.114537 
L 151.95397 476.085512 
L 153.517934 474.554148 
L 155.081898 475.045475 
L 156.645861 474.476486 
L 158.209825 475.782711 
L 159.773789 475.41092 
L 161.337753 476.122678 
L 162.901717 476.088931 
L 167.593609 475.318098 
L 169.157573 475.602131 
L 170.721537 476.200677 
L 172.285501 475.604882 
L 173.849465 451.576572 
L 175.413429 475.753137 
L 176.977393 474.280508 
L 178.541357 475.608719 
L 180.105321 475.883761 
L 181.669285 474.361673 
L 183.233249 475.724688 
L 184.797213 476.110734 
L 186.361177 425.536923 
L 187.925141 476.130162 
L 189.489105 475.638485 
L 191.053069 475.279447 
L 192.617033 462.72337 
L 194.180997 474.443724 
L 195.744961 476.010022 
L 197.308925 475.815246 
L 198.872889 476.103175 
L 200.436852 476.190561 
L 202.000816 449.007415 
L 203.56478 476.126585 
L 205.128744 473.042451 
L 206.692708 475.828898 
L 208.256672 476.099756 
L 211.3846 475.555827 
L 212.948564 475.554979 
L 214.512528 475.428807 
L 216.076492 475.618895 
L 217.640456 474.265096 
L 219.20442 476.124557 
L 220.768384 460.185729 
L 222.332348 476.029082 
L 223.896312 427.648887 
L 225.460276 475.35237 
L 227.02424 475.564523 
L 228.588204 473.921256 
L 230.152168 475.689701 
L 231.716132 468.754099 
L 233.280096 474.389825 
L 234.84406 474.089656 
L 236.408024 476.034136 
L 237.971988 462.775277 
L 239.535952 476.157288 
L 241.099916 466.9142 
L 242.66388 467.511391 
L 244.227843 474.339388 
L 245.791807 423.793291 
L 247.355771 434.310847 
L 248.919735 474.99612 
L 250.483699 474.799673 
L 252.047663 476.072557 
L 253.611627 459.036025 
L 255.175591 449.998558 
L 256.739555 472.60596 
L 258.303519 474.960795 
L 259.867483 472.207305 
L 261.431447 475.548766 
L 262.995411 476.008167 
L 264.559375 475.364048 
L 266.123339 456.15904 
L 267.687303 473.076026 
L 269.251267 452.585148 
L 270.815231 475.535639 
L 272.379195 475.246217 
L 273.943159 455.257091 
L 275.507123 475.343816 
L 277.071087 474.242441 
L 278.635051 475.863603 
L 280.199015 475.057673 
L 281.762979 475.723435 
L 283.326943 474.73521 
L 284.890907 474.831256 
L 286.45487 475.585923 
L 288.018834 475.883357 
L 289.582798 475.604873 
L 291.146762 474.892022 
L 292.710726 474.668392 
L 294.27469 473.49183 
L 295.838654 474.751529 
L 297.402618 475.787637 
L 298.966582 474.107202 
L 300.530546 474.574714 
L 302.09451 474.017247 
L 303.658474 475.893793 
L 305.222438 470.956675 
L 306.786402 475.103354 
L 308.350366 470.918807 
L 309.91433 473.157127 
L 311.478294 473.795073 
L 313.042258 402.931554 
L 314.606222 470.289298 
L 316.170186 471.605967 
L 317.73415 469.486713 
L 319.298114 473.484142 
L 320.862078 475.686709 
L 322.426042 475.61633 
L 323.990006 474.937424 
L 325.55397 426.70976 
L 327.117934 474.648007 
L 328.681898 470.862548 
L 330.245861 469.46865 
L 331.809825 471.562245 
L 333.373789 468.524101 
L 334.937753 456.022353 
L 336.501717 475.972264 
L 338.065681 475.236467 
L 339.629645 474.820048 
L 341.193609 423.504773 
L 342.757573 469.56171 
L 344.321537 412.362236 
L 345.885501 473.66564 
L 347.449465 473.715024 
L 349.013429 475.645832 
L 350.577393 475.163358 
L 352.141357 475.495644 
L 353.705321 473.526317 
L 355.269285 468.151238 
L 356.833249 406.704343 
L 358.397213 379.64567 
L 359.961177 457.777574 
L 361.525141 437.504686 
L 363.089105 473.96154 
L 364.653069 473.343982 
L 366.217033 469.343762 
L 367.780997 466.06534 
L 369.344961 396.622823 
L 370.908925 469.847718 
L 372.472889 475.519568 
L 374.036852 396.746584 
L 375.600816 474.099016 
L 377.16478 474.632958 
L 378.728744 389.412693 
L 380.292708 474.994184 
L 381.856672 474.744335 
L 383.420636 469.662648 
L 384.9846 472.599549 
L 386.548564 441.131785 
L 388.112528 474.192705 
L 389.676492 473.70823 
L 391.240456 473.447025 
L 392.80442 475.294718 
L 394.368384 469.352746 
L 395.932348 474.077277 
L 397.496312 475.531593 
L 400.62424 473.378334 
L 402.188204 474.244998 
L 403.752168 474.947023 
L 405.316132 392.829091 
L 406.880096 470.544723 
L 408.44406 474.022293 
L 410.008024 475.600292 
L 411.571988 473.601635 
L 413.135952 475.45343 
L 414.699916 475.35818 
L 416.26388 473.688783 
L 417.827843 475.013094 
L 419.391807 475.038156 
L 420.955771 475.480482 
L 422.519735 475.552049 
L 424.083699 475.036404 
L 425.647663 475.493304 
L 427.211627 473.031174 
L 428.775591 474.191818 
L 430.339555 473.398095 
L 431.903519 475.546473 
L 433.467483 471.555163 
L 435.031447 470.187609 
L 436.595411 475.650989 
L 438.159375 474.205972 
L 439.723339 473.879228 
L 441.287303 472.756054 
L 442.851267 471.111354 
L 444.415231 438.304349 
L 445.979195 475.721311 
L 447.543159 472.968386 
L 449.107123 472.214627 
L 450.671087 469.450992 
L 452.235051 472.757035 
L 453.799015 474.584951 
L 455.362979 475.56798 
L 456.926943 465.020487 
L 458.490907 475.718793 
L 460.05487 474.596694 
L 461.618834 474.900184 
L 463.182798 411.765858 
L 464.746762 474.332522 
L 466.310726 466.148895 
L 467.87469 393.052892 
L 469.438654 398.691351 
L 471.002618 467.908647 
L 472.566582 471.950194 
L 474.130546 474.882949 
L 475.69451 455.448983 
L 477.258474 388.532667 
L 478.822438 434.467997 
L 480.386402 391.44686 
L 481.950366 465.452446 
L 483.51433 471.922988 
L 485.078294 475.833175 
L 486.642258 388.407187 
L 488.206222 466.719714 
L 489.770186 382.314793 
L 491.33415 434.823573 
L 492.898114 475.962689 
L 494.462078 464.119033 
L 496.026042 471.380003 
L 497.590006 473.197116 
L 499.15397 426.997706 
L 500.717934 475.323237 
L 502.281898 475.499561 
L 503.845861 438.325571 
L 505.409825 471.840937 
L 506.973789 475.518795 
L 508.537753 472.449207 
L 510.101717 475.774885 
L 511.665681 471.114312 
L 513.229645 473.202879 
L 514.793609 473.026868 
L 516.357573 474.77215 
L 517.921537 473.795393 
L 519.485501 465.105165 
L 521.049465 475.626308 
L 522.613429 464.439168 
L 524.177393 472.946989 
L 525.741357 474.310174 
L 527.305321 464.327284 
L 528.869285 473.635925 
L 530.433249 474.849754 
L 531.997213 473.745425 
L 533.561177 473.286774 
L 535.125141 473.237542 
L 536.689105 471.652845 
L 538.253069 447.868259 
L 539.817033 464.432421 
L 541.380997 473.664395 
L 542.944961 470.630468 
L 544.508925 471.55201 
L 546.072889 475.347158 
L 547.636852 472.293557 
L 549.200816 474.290871 
L 550.76478 473.398529 
L 552.328744 465.930732 
L 553.892708 471.950797 
L 555.456672 464.235927 
L 557.020636 473.601191 
L 558.5846 466.610803 
L 560.148564 475.403807 
L 561.712528 472.135381 
L 563.276492 472.224684 
L 564.840456 460.109043 
L 566.40442 468.899681 
L 567.968384 458.922204 
L 569.532348 473.975433 
L 572.660276 463.506174 
L 574.22424 474.445306 
L 575.788204 447.798263 
L 577.352168 474.162093 
L 578.916132 471.916783 
L 580.480096 476.20439 
L 582.04406 473.83415 
L 583.608024 472.434715 
L 585.171988 441.191524 
L 586.735952 468.501435 
L 588.299916 471.876035 
L 589.86388 473.255388 
L 591.427843 470.98644 
L 592.991807 472.708197 
L 594.555771 472.37807 
L 596.119735 452.730488 
L 597.683699 475.933573 
L 599.247663 467.167489 
L 600.811627 465.567334 
L 602.375591 475.234883 
L 603.939555 467.168311 
L 607.067483 473.611247 
L 608.631447 466.215924 
L 610.195411 474.652169 
L 611.759375 475.720373 
L 613.323339 451.431424 
L 614.887303 474.267847 
L 616.451267 465.621495 
L 618.015231 471.755228 
L 619.579195 473.459 
L 621.143159 475.35632 
L 622.707123 474.55402 
L 624.271087 475.452285 
L 625.835051 475.623843 
L 627.399015 474.910645 
L 628.962979 474.728959 
L 630.526943 474.227552 
L 632.090907 475.399826 
L 633.65487 475.525779 
L 635.218834 474.454562 
L 638.346762 475.548902 
L 639.910726 474.629567 
L 641.47469 475.193655 
L 643.038654 475.349657 
L 644.602618 474.02012 
L 646.166582 475.505329 
L 647.730546 474.921788 
L 649.29451 474.659944 
L 650.858474 474.772716 
L 652.422438 474.496159 
L 653.986402 473.660724 
L 655.550366 475.75651 
L 657.11433 475.854165 
L 660.242258 475.28585 
L 661.806222 474.711584 
L 663.370186 475.649328 
L 664.93415 476.172959 
L 666.498114 474.992121 
L 668.062078 474.996481 
L 669.626042 476.062131 
L 671.190006 476.176752 
L 672.75397 474.988994 
L 674.317934 475.194824 
L 675.881898 475.024143 
L 677.445861 474.981113 
L 679.009825 474.803776 
L 680.573789 474.865726 
L 682.137753 476.146896 
L 683.701717 475.617618 
L 685.265681 474.723006 
L 686.829645 475.43006 
L 688.393609 475.658114 
L 689.957573 475.591762 
L 691.521537 476.126721 
L 693.085501 476.067063 
L 694.649465 475.806485 
L 696.213429 476.035932 
L 697.777393 475.986844 
L 699.341357 475.656135 
L 700.905321 475.823861 
L 702.469285 476.154765 
L 705.597213 476.081663 
L 707.161177 475.878675 
L 710.289105 475.866308 
L 711.853069 476.193546 
L 714.980997 476.026044 
L 716.544961 475.917246 
L 718.108925 476.092665 
L 722.800816 475.934979 
L 724.36478 476.122328 
L 725.928744 475.960905 
L 727.492708 476.193015 
L 732.1846 476.02047 
L 733.748564 476.189548 
L 735.312528 475.950951 
L 736.876492 476.145275 
L 738.440456 475.90611 
L 744.696312 476.186945 
L 746.260276 475.923773 
L 747.82424 476.065099 
L 757.208024 476.077598 
L 758.771988 475.901256 
L 760.335952 476.00532 
L 765.027843 475.767803 
L 766.591807 475.983439 
L 769.719735 475.919737 
L 771.283699 475.227283 
L 772.847663 475.944034 
L 774.411627 474.805235 
L 775.975591 475.799829 
L 777.539555 475.08892 
L 779.103519 475.488361 
L 780.667483 475.76802 
L 782.231447 475.508859 
L 783.795411 475.622294 
L 785.359375 472.263479 
L 786.923339 474.429615 
L 788.487303 473.585125 
L 790.051267 475.270321 
L 791.615231 473.304261 
L 793.179195 472.299926 
L 794.743159 474.155747 
L 796.307123 472.165704 
L 797.871087 472.343925 
L 799.435051 472.298491 
L 800.999015 472.529824 
L 802.562979 472.556507 
L 804.126943 474.775888 
L 805.690907 475.040397 
L 807.25487 474.073213 
L 808.818834 475.350598 
L 810.382798 473.897624 
L 811.946762 475.105391 
L 813.510726 475.583403 
L 816.638654 475.694555 
L 818.202618 475.284622 
L 822.89451 475.429822 
L 824.458474 475.224893 
L 826.022438 474.400571 
L 827.586402 474.701103 
L 829.150366 474.454611 
L 833.842258 474.288858 
L 835.406222 474.575443 
L 836.970186 474.622247 
L 838.53415 475.394484 
L 840.098114 474.542379 
L 841.662078 475.439985 
L 843.226042 475.900403 
L 844.790006 476.008081 
L 846.35397 475.903915 
L 847.917934 476.061709 
L 849.481898 476.063865 
L 851.045861 475.784763 
L 852.609825 475.637596 
L 858.865681 475.882628 
L 860.429645 476.073909 
L 863.557573 476.170499 
L 869.813429 475.869886 
L 876.069285 476.139874 
L 879.197213 476.222912 
L 883.889105 475.889206 
L 885.453069 475.742507 
L 888.580997 475.872973 
L 890.144961 476.070536 
L 896.400816 476.187004 
L 899.528744 475.568072 
L 901.092708 475.715482 
L 902.656672 475.609886 
L 904.591406 475.772909 
L 904.591406 475.772909 
" clip-path="url(#pe5be2ff420)" style="fill: none; stroke: #0000ff; stroke-width: 3; stroke-linecap: square"/>
   </g>
   <g id="line2d_100">
    <path d="M 90.959375 475.706672 
L 94.087303 474.764777 
L 95.651267 474.451822 
L 97.215231 474.423487 
L 98.779195 474.725972 
L 101.907123 475.874116 
L 103.471087 476.175932 
L 105.035051 475.808878 
L 106.599015 474.435489 
L 108.162979 471.855507 
L 109.726943 468.084427 
L 111.290907 463.390919 
L 114.418834 453.410869 
L 115.982798 449.49147 
L 117.546762 447.126751 
L 119.110726 446.700349 
L 120.67469 448.290633 
L 122.238654 451.651283 
L 123.802618 456.26059 
L 126.930546 466.435608 
L 128.49451 470.67327 
L 130.058474 473.749631 
L 131.622438 475.541717 
L 133.186402 476.183257 
L 134.750366 475.996706 
L 137.878294 474.75159 
L 139.442258 474.356418 
L 141.006222 474.327466 
L 142.570186 474.634441 
L 145.698114 475.654333 
L 147.262078 476.026277 
L 148.826042 476.168202 
L 150.390006 476.085365 
L 155.081898 475.440383 
L 156.645861 475.42216 
L 159.773789 475.772058 
L 162.901717 476.135665 
L 164.465681 476.149148 
L 167.593609 475.859123 
L 170.721537 475.588544 
L 173.849465 475.735364 
L 176.977393 476.076441 
L 178.541357 476.14653 
L 181.669285 475.928059 
L 184.797213 475.527907 
L 186.361177 475.447988 
L 187.925141 475.508759 
L 194.180997 476.165735 
L 195.744961 476.034472 
L 202.000816 474.890653 
L 203.56478 474.973945 
L 206.692708 475.694517 
L 208.256672 476.047356 
L 209.820636 476.151703 
L 211.3846 475.880023 
L 212.948564 475.220397 
L 216.076492 473.376497 
L 217.640456 472.745573 
L 219.20442 472.663263 
L 220.768384 473.225947 
L 223.896312 475.457522 
L 225.460276 476.107617 
L 227.02424 475.537868 
L 228.588204 473.125996 
L 230.152168 468.512069 
L 231.716132 461.740945 
L 233.280096 453.325038 
L 236.408024 435.591123 
L 237.971988 428.764145 
L 239.535952 424.797287 
L 241.099916 424.344191 
L 242.66388 427.494652 
L 244.227843 433.750676 
L 245.791807 442.127709 
L 248.919735 460.147932 
L 250.483699 467.429727 
L 252.047663 472.548188 
L 253.611627 475.343819 
L 255.175591 476.118474 
L 256.739555 475.500784 
L 259.867483 473.068715 
L 261.431447 472.424005 
L 262.995411 472.497073 
L 264.559375 473.186155 
L 267.687303 475.179663 
L 269.251267 475.839873 
L 270.815231 476.040413 
L 272.379195 475.818452 
L 275.507123 474.871969 
L 277.071087 474.588981 
L 278.635051 474.605883 
L 280.199015 474.899224 
L 283.326943 475.747165 
L 284.890907 475.969985 
L 286.45487 475.935918 
L 289.582798 475.322013 
L 291.146762 475.021744 
L 292.710726 474.907736 
L 294.27469 475.028874 
L 298.966582 475.948697 
L 300.530546 475.980501 
L 302.09451 475.756905 
L 306.786402 474.6293 
L 308.350366 474.612072 
L 309.91433 474.884618 
L 313.042258 475.794692 
L 314.606222 476.023765 
L 316.170186 475.882622 
L 317.73415 475.357009 
L 320.862078 473.833333 
L 322.426042 473.377645 
L 323.990006 473.419889 
L 325.55397 473.979746 
L 328.681898 475.694843 
L 330.245861 476.054717 
L 331.809825 475.61472 
L 333.373789 474.293494 
L 336.501717 470.258213 
L 338.065681 468.751392 
L 339.629645 468.404476 
L 341.193609 469.481651 
L 342.757573 471.731018 
L 344.321537 474.329888 
L 345.885501 476.000346 
L 347.449465 475.285746 
L 349.013429 470.928854 
L 350.577393 462.255734 
L 352.141357 449.458165 
L 356.833249 401.570729 
L 358.397213 390.081191 
L 359.961177 384.327896 
L 361.525141 385.258213 
L 363.089105 392.680028 
L 364.653069 405.313204 
L 369.344961 452.457423 
L 370.908925 464.11286 
L 372.472889 471.679183 
L 374.036852 475.215808 
L 375.600816 475.522512 
L 377.16478 473.837636 
L 378.728744 471.482053 
L 380.292708 469.543297 
L 381.856672 468.672293 
L 383.420636 469.026239 
L 384.9846 470.34792 
L 388.112528 473.848776 
L 389.676492 475.06629 
L 391.240456 475.594553 
L 392.80442 475.47382 
L 394.368384 474.919698 
L 395.932348 474.224292 
L 397.496312 473.655582 
L 399.060276 473.385424 
L 400.62424 473.46141 
L 402.188204 473.820996 
L 406.880096 475.249818 
L 408.44406 475.454737 
L 410.008024 475.44488 
L 411.571988 475.246057 
L 417.827843 473.993334 
L 419.391807 473.969993 
L 420.955771 474.158143 
L 427.211627 475.546585 
L 428.775591 475.393004 
L 430.339555 474.876434 
L 435.031447 472.546172 
L 436.595411 472.309338 
L 438.159375 472.637322 
L 439.723339 473.46801 
L 441.287303 474.530101 
L 442.851267 475.397543 
L 444.415231 475.612276 
L 445.979195 474.844298 
L 447.543159 473.038543 
L 450.671087 467.828235 
L 452.235051 465.832407 
L 453.799015 465.218458 
L 455.362979 466.349478 
L 456.926943 469.021665 
L 458.490907 472.383217 
L 460.05487 475.038766 
L 461.618834 475.338569 
L 463.182798 471.795456 
L 464.746762 463.527234 
L 466.310726 450.602642 
L 467.87469 434.183439 
L 469.438654 416.402149 
L 471.002618 399.983114 
L 472.566582 387.685223 
L 474.130546 381.697711 
L 475.69451 383.139767 
L 477.258474 391.793302 
L 478.822438 406.140816 
L 481.950366 441.586573 
L 483.51433 457.120543 
L 485.078294 468.395819 
L 486.642258 474.604991 
L 488.206222 476.093147 
L 489.770186 474.130722 
L 492.898114 466.921989 
L 494.462078 464.760215 
L 496.026042 464.61264 
L 497.590006 466.343428 
L 500.717934 472.329059 
L 502.281898 474.71062 
L 503.845861 475.839667 
L 505.409825 475.647439 
L 506.973789 474.501258 
L 508.537753 473.027714 
L 510.101717 471.871404 
L 511.665681 471.474308 
L 513.229645 471.946604 
L 514.793609 473.063704 
L 516.357573 474.379612 
L 517.921537 475.408338 
L 519.485501 475.80536 
L 521.049465 475.485489 
L 522.613429 474.639194 
L 524.177393 473.646916 
L 525.741357 472.926864 
L 527.305321 472.774004 
L 528.869285 473.249303 
L 531.997213 475.129292 
L 533.561177 475.751646 
L 535.125141 475.739876 
L 536.689105 475.046217 
L 539.817033 472.681891 
L 541.380997 471.882535 
L 542.944961 471.820369 
L 544.508925 472.557954 
L 547.636852 475.17206 
L 549.200816 475.952091 
L 550.76478 475.707738 
L 552.328744 474.267012 
L 553.892708 471.857894 
L 555.456672 469.075745 
L 557.020636 466.721413 
L 558.5846 465.552804 
L 560.148564 466.023934 
L 561.712528 468.094614 
L 564.840456 474.248007 
L 566.40442 476.103035 
L 567.968384 475.690593 
L 569.532348 472.429387 
L 571.096312 466.418336 
L 575.788204 442.535141 
L 577.352168 437.657619 
L 578.916132 436.32647 
L 580.480096 438.792737 
L 582.04406 444.514899 
L 586.735952 467.920398 
L 588.299916 473.081741 
L 589.86388 475.549712 
L 591.427843 475.453521 
L 592.991807 473.490661 
L 596.119735 468.104515 
L 597.683699 466.555388 
L 599.247663 466.435743 
L 600.811627 467.675032 
L 602.375591 469.824569 
L 603.939555 472.237994 
L 605.503519 474.283688 
L 607.067483 475.525016 
L 608.631447 475.820263 
L 610.195411 475.322659 
L 613.323339 473.458529 
L 614.887303 472.876271 
L 616.451267 472.82811 
L 618.015231 473.290384 
L 621.143159 474.893107 
L 622.707123 475.503956 
L 624.271087 475.752109 
L 625.835051 475.629051 
L 630.526943 474.50735 
L 632.090907 474.4363 
L 633.65487 474.614121 
L 636.782798 475.295577 
L 638.346762 475.505351 
L 639.910726 475.492595 
L 641.47469 475.260702 
L 644.602618 474.552307 
L 646.166582 474.358147 
L 647.730546 474.404632 
L 649.29451 474.694156 
L 653.986402 475.95883 
L 655.550366 476.075876 
L 657.11433 475.94066 
L 661.806222 474.903865 
L 663.370186 474.777516 
L 664.93415 474.887652 
L 668.062078 475.603211 
L 669.626042 475.966595 
L 671.190006 476.165382 
L 672.75397 476.131911 
L 674.317934 475.874889 
L 679.009825 474.750329 
L 680.573789 474.644263 
L 682.137753 474.765623 
L 685.265681 475.466951 
L 686.829645 475.83833 
L 688.393609 476.089678 
L 689.957573 476.171422 
L 693.085501 475.908674 
L 696.213429 475.563825 
L 697.777393 475.531863 
L 700.905321 475.781543 
L 704.033249 476.111187 
L 707.161177 476.138728 
L 713.417033 475.796879 
L 716.544961 475.940557 
L 721.236852 476.181989 
L 725.928744 475.996648 
L 729.056672 475.909523 
L 733.748564 476.093359 
L 736.876492 476.177635 
L 749.388204 476.085367 
L 754.080096 476.10832 
L 761.899916 475.934723 
L 768.155771 475.960889 
L 775.975591 475.743349 
L 780.667483 475.680985 
L 782.231447 475.51721 
L 783.795411 475.229785 
L 786.923339 474.306518 
L 791.615231 472.735389 
L 793.179195 472.39806 
L 794.743159 472.219237 
L 796.307123 472.203578 
L 797.871087 472.334167 
L 800.999015 472.904121 
L 810.382798 475.051287 
L 813.510726 475.489904 
L 816.638654 475.645979 
L 819.766582 475.513585 
L 824.458474 474.964793 
L 829.150366 474.363749 
L 832.278294 474.170241 
L 835.406222 474.31697 
L 838.53415 474.826462 
L 843.226042 475.771581 
L 846.35397 476.058233 
L 849.481898 475.975862 
L 854.173789 475.745306 
L 857.301717 475.856566 
L 861.993609 476.147698 
L 865.121537 476.114073 
L 871.377393 475.902212 
L 880.761177 476.133311 
L 887.017033 475.818466 
L 890.144961 475.976444 
L 893.272889 476.179527 
L 896.400816 476.099768 
L 902.656672 475.486639 
L 904.591406 475.568805 
L 904.591406 475.568805 
" clip-path="url(#pe5be2ff420)" style="fill: none; stroke: #ffa500; stroke-width: 3; stroke-linecap: square"/>
   </g>
   <g id="line2d_101">
    <path d="M 840.911375 476.36 
L 840.911375 32.84 
" clip-path="url(#pe5be2ff420)" style="fill: none; stroke-dasharray: 11.1,4.8; stroke-dashoffset: 0; stroke: #000000; stroke-width: 3"/>
   </g>
   <g id="line2d_102">
    <path d="M 778.415375 476.36 
L 778.415375 32.84 
" clip-path="url(#pe5be2ff420)" style="fill: none; stroke-dasharray: 11.1,4.8; stroke-dashoffset: 0; stroke: #000000; stroke-width: 3"/>
   </g>
   <g id="patch_17">
    <path d="M 90.959375 476.36 
L 90.959375 32.84 
" style="fill: none; stroke: #000000; stroke-linejoin: miter; stroke-linecap: square"/>
   </g>
   <g id="patch_18">
    <path d="M 872.159375 476.36 
L 872.159375 32.84 
" style="fill: none; stroke: #000000; stroke-linejoin: miter; stroke-linecap: square"/>
   </g>
   <g id="patch_19">
    <path d="M 90.959375 476.36 
L 872.159375 476.36 
" style="fill: none; stroke: #000000; stroke-linejoin: miter; stroke-linecap: square"/>
   </g>
   <g id="patch_20">
    <path d="M 90.959375 32.84 
L 872.159375 32.84 
" style="fill: none; stroke: #000000; stroke-linejoin: miter; stroke-linecap: square"/>
   </g>
   <g id="text_14">
    <!-- J=1 -->
    <g style="fill: #ff0000; opacity: 0.8" transform="translate(696.133592 342.587968) scale(0.25 -0.25)">
     <defs>
      <path id="DejaVuSans-4a" d="M 628 4666 
L 1259 4666 
L 1259 325 
Q 1259 -519 939 -900 
Q 619 -1281 -91 -1281 
L -331 -1281 
L -331 -750 
L -134 -750 
Q 284 -750 456 -515 
Q 628 -281 628 325 
L 628 4666 
z
" transform="scale(0.015625)"/>
      <path id="DejaVuSans-3d" d="M 678 2906 
L 4684 2906 
L 4684 2381 
L 678 2381 
L 678 2906 
z
M 678 1631 
L 4684 1631 
L 4684 1100 
L 678 1100 
L 678 1631 
z
" transform="scale(0.015625)"/>
     </defs>
     <use xlink:href="#DejaVuSans-4a"/>
     <use xlink:href="#DejaVuSans-3d" transform="translate(29.492188 0)"/>
     <use xlink:href="#DejaVuSans-31" transform="translate(113.28125 0)"/>
    </g>
   </g>
   <g id="text_15">
    <!-- J=2 -->
    <g style="fill: #ff0000; opacity: 0.8" transform="translate(640.431743 275.548557) scale(0.25 -0.25)">
     <use xlink:href="#DejaVuSans-4a"/>
     <use xlink:href="#DejaVuSans-3d" transform="translate(29.492188 0)"/>
     <use xlink:href="#DejaVuSans-32" transform="translate(113.28125 0)"/>
    </g>
   </g>
   <g id="text_16">
    <!-- J=3 -->
    <g style="fill: #ff0000; opacity: 0.8" transform="translate(556.634861 232.313023) scale(0.25 -0.25)">
     <use xlink:href="#DejaVuSans-4a"/>
     <use xlink:href="#DejaVuSans-3d" transform="translate(29.492188 0)"/>
     <use xlink:href="#DejaVuSans-33" transform="translate(113.28125 0)"/>
    </g>
   </g>
   <g id="text_17">
    <!-- J=4 -->
    <g style="fill: #ff0000; opacity: 0.8" transform="translate(452.452346 215.265765) scale(0.25 -0.25)">
     <use xlink:href="#DejaVuSans-4a"/>
     <use xlink:href="#DejaVuSans-3d" transform="translate(29.492188 0)"/>
     <use xlink:href="#DejaVuSans-34" transform="translate(113.28125 0)"/>
    </g>
   </g>
   <g id="text_18">
    <!-- J=5 -->
    <g style="fill: #ff0000; opacity: 0.8" transform="translate(338.449149 222.156255) scale(0.25 -0.25)">
     <use xlink:href="#DejaVuSans-4a"/>
     <use xlink:href="#DejaVuSans-3d" transform="translate(29.492188 0)"/>
     <use xlink:href="#DejaVuSans-35" transform="translate(113.28125 0)"/>
    </g>
   </g>
   <g id="text_19">
    <!-- J=6 -->
    <g style="fill: #ff0000; opacity: 0.8" transform="translate(218.363466 247.313309) scale(0.25 -0.25)">
     <defs>
      <path id="DejaVuSans-36" d="M 2113 2584 
Q 1688 2584 1439 2293 
Q 1191 2003 1191 1497 
Q 1191 994 1439 701 
Q 1688 409 2113 409 
Q 2538 409 2786 701 
Q 3034 994 3034 1497 
Q 3034 2003 2786 2293 
Q 2538 2584 2113 2584 
z
M 3366 4563 
L 3366 3988 
Q 3128 4100 2886 4159 
Q 2644 4219 2406 4219 
Q 1781 4219 1451 3797 
Q 1122 3375 1075 2522 
Q 1259 2794 1537 2939 
Q 1816 3084 2150 3084 
Q 2853 3084 3261 2657 
Q 3669 2231 3669 1497 
Q 3669 778 3244 343 
Q 2819 -91 2113 -91 
Q 1303 -91 875 529 
Q 447 1150 447 2328 
Q 447 3434 972 4092 
Q 1497 4750 2381 4750 
Q 2619 4750 2861 4703 
Q 3103 4656 3366 4563 
z
" transform="scale(0.015625)"/>
     </defs>
     <use xlink:href="#DejaVuSans-4a"/>
     <use xlink:href="#DejaVuSans-3d" transform="translate(29.492188 0)"/>
     <use xlink:href="#DejaVuSans-36" transform="translate(113.28125 0)"/>
    </g>
   </g>
   <g id="text_20">
    <!-- J=7 -->
    <g style="fill: #ff0000; opacity: 0.8" transform="translate(96.504828 283.448178) scale(0.25 -0.25)">
     <defs>
      <path id="DejaVuSans-37" d="M 525 4666 
L 3525 4666 
L 3525 4397 
L 1831 0 
L 1172 0 
L 2766 4134 
L 525 4134 
L 525 4666 
z
" transform="scale(0.015625)"/>
     </defs>
     <use xlink:href="#DejaVuSans-4a"/>
     <use xlink:href="#DejaVuSans-3d" transform="translate(29.492188 0)"/>
     <use xlink:href="#DejaVuSans-37" transform="translate(113.28125 0)"/>
    </g>
   </g>
   <g id="text_21">
    <!-- CaH$^+$ hyperfine spectrum at B=3.6 G -->
    <g transform="translate(216.259375 26.84) scale(0.28 -0.28)">
     <defs>
      <path id="DejaVuSans-43" d="M 4122 4306 
L 4122 3641 
Q 3803 3938 3442 4084 
Q 3081 4231 2675 4231 
Q 1875 4231 1450 3742 
Q 1025 3253 1025 2328 
Q 1025 1406 1450 917 
Q 1875 428 2675 428 
Q 3081 428 3442 575 
Q 3803 722 4122 1019 
L 4122 359 
Q 3791 134 3420 21 
Q 3050 -91 2638 -91 
Q 1578 -91 968 557 
Q 359 1206 359 2328 
Q 359 3453 968 4101 
Q 1578 4750 2638 4750 
Q 3056 4750 3426 4639 
Q 3797 4528 4122 4306 
z
" transform="scale(0.015625)"/>
      <path id="DejaVuSans-2b" d="M 2944 4013 
L 2944 2272 
L 4684 2272 
L 4684 1741 
L 2944 1741 
L 2944 0 
L 2419 0 
L 2419 1741 
L 678 1741 
L 678 2272 
L 2419 2272 
L 2419 4013 
L 2944 4013 
z
" transform="scale(0.015625)"/>
      <path id="DejaVuSans-68" d="M 3513 2113 
L 3513 0 
L 2938 0 
L 2938 2094 
Q 2938 2591 2744 2837 
Q 2550 3084 2163 3084 
Q 1697 3084 1428 2787 
Q 1159 2491 1159 1978 
L 1159 0 
L 581 0 
L 581 4863 
L 1159 4863 
L 1159 2956 
Q 1366 3272 1645 3428 
Q 1925 3584 2291 3584 
Q 2894 3584 3203 3211 
Q 3513 2838 3513 2113 
z
" transform="scale(0.015625)"/>
      <path id="DejaVuSans-66" d="M 2375 4863 
L 2375 4384 
L 1825 4384 
Q 1516 4384 1395 4259 
Q 1275 4134 1275 3809 
L 1275 3500 
L 2222 3500 
L 2222 3053 
L 1275 3053 
L 1275 0 
L 697 0 
L 697 3053 
L 147 3053 
L 147 3500 
L 697 3500 
L 697 3744 
Q 697 4328 969 4595 
Q 1241 4863 1831 4863 
L 2375 4863 
z
" transform="scale(0.015625)"/>
      <path id="DejaVuSans-73" d="M 2834 3397 
L 2834 2853 
Q 2591 2978 2328 3040 
Q 2066 3103 1784 3103 
Q 1356 3103 1142 2972 
Q 928 2841 928 2578 
Q 928 2378 1081 2264 
Q 1234 2150 1697 2047 
L 1894 2003 
Q 2506 1872 2764 1633 
Q 3022 1394 3022 966 
Q 3022 478 2636 193 
Q 2250 -91 1575 -91 
Q 1294 -91 989 -36 
Q 684 19 347 128 
L 347 722 
Q 666 556 975 473 
Q 1284 391 1588 391 
Q 1994 391 2212 530 
Q 2431 669 2431 922 
Q 2431 1156 2273 1281 
Q 2116 1406 1581 1522 
L 1381 1569 
Q 847 1681 609 1914 
Q 372 2147 372 2553 
Q 372 3047 722 3315 
Q 1072 3584 1716 3584 
Q 2034 3584 2315 3537 
Q 2597 3491 2834 3397 
z
" transform="scale(0.015625)"/>
      <path id="DejaVuSans-6d" d="M 3328 2828 
Q 3544 3216 3844 3400 
Q 4144 3584 4550 3584 
Q 5097 3584 5394 3201 
Q 5691 2819 5691 2113 
L 5691 0 
L 5113 0 
L 5113 2094 
Q 5113 2597 4934 2840 
Q 4756 3084 4391 3084 
Q 3944 3084 3684 2787 
Q 3425 2491 3425 1978 
L 3425 0 
L 2847 0 
L 2847 2094 
Q 2847 2600 2669 2842 
Q 2491 3084 2119 3084 
Q 1678 3084 1418 2786 
Q 1159 2488 1159 1978 
L 1159 0 
L 581 0 
L 581 3500 
L 1159 3500 
L 1159 2956 
Q 1356 3278 1631 3431 
Q 1906 3584 2284 3584 
Q 2666 3584 2933 3390 
Q 3200 3197 3328 2828 
z
" transform="scale(0.015625)"/>
      <path id="DejaVuSans-42" d="M 1259 2228 
L 1259 519 
L 2272 519 
Q 2781 519 3026 730 
Q 3272 941 3272 1375 
Q 3272 1813 3026 2020 
Q 2781 2228 2272 2228 
L 1259 2228 
z
M 1259 4147 
L 1259 2741 
L 2194 2741 
Q 2656 2741 2882 2914 
Q 3109 3088 3109 3444 
Q 3109 3797 2882 3972 
Q 2656 4147 2194 4147 
L 1259 4147 
z
M 628 4666 
L 2241 4666 
Q 2963 4666 3353 4366 
Q 3744 4066 3744 3513 
Q 3744 3084 3544 2831 
Q 3344 2578 2956 2516 
Q 3422 2416 3680 2098 
Q 3938 1781 3938 1306 
Q 3938 681 3513 340 
Q 3088 0 2303 0 
L 628 0 
L 628 4666 
z
" transform="scale(0.015625)"/>
      <path id="DejaVuSans-47" d="M 3809 666 
L 3809 1919 
L 2778 1919 
L 2778 2438 
L 4434 2438 
L 4434 434 
Q 4069 175 3628 42 
Q 3188 -91 2688 -91 
Q 1594 -91 976 548 
Q 359 1188 359 2328 
Q 359 3472 976 4111 
Q 1594 4750 2688 4750 
Q 3144 4750 3555 4637 
Q 3966 4525 4313 4306 
L 4313 3634 
Q 3963 3931 3569 4081 
Q 3175 4231 2741 4231 
Q 1884 4231 1454 3753 
Q 1025 3275 1025 2328 
Q 1025 1384 1454 906 
Q 1884 428 2741 428 
Q 3075 428 3337 486 
Q 3600 544 3809 666 
z
" transform="scale(0.015625)"/>
     </defs>
     <use xlink:href="#DejaVuSans-43" transform="translate(0 0.826562)"/>
     <use xlink:href="#DejaVuSans-61" transform="translate(69.824219 0.826562)"/>
     <use xlink:href="#DejaVuSans-48" transform="translate(131.103516 0.826562)"/>
     <use xlink:href="#DejaVuSans-2b" transform="translate(220.893555 39.107812) scale(0.7)"/>
     <use xlink:href="#DejaVuSans-20" transform="translate(295.917969 0.826562)"/>
     <use xlink:href="#DejaVuSans-68" transform="translate(327.705078 0.826562)"/>
     <use xlink:href="#DejaVuSans-79" transform="translate(391.083984 0.826562)"/>
     <use xlink:href="#DejaVuSans-70" transform="translate(450.263672 0.826562)"/>
     <use xlink:href="#DejaVuSans-65" transform="translate(513.740234 0.826562)"/>
     <use xlink:href="#DejaVuSans-72" transform="translate(575.263672 0.826562)"/>
     <use xlink:href="#DejaVuSans-66" transform="translate(616.376953 0.826562)"/>
     <use xlink:href="#DejaVuSans-69" transform="translate(651.582031 0.826562)"/>
     <use xlink:href="#DejaVuSans-6e" transform="translate(679.365234 0.826562)"/>
     <use xlink:href="#DejaVuSans-65" transform="translate(742.744141 0.826562)"/>
     <use xlink:href="#DejaVuSans-20" transform="translate(804.267578 0.826562)"/>
     <use xlink:href="#DejaVuSans-73" transform="translate(836.054688 0.826562)"/>
     <use xlink:href="#DejaVuSans-70" transform="translate(888.154297 0.826562)"/>
     <use xlink:href="#DejaVuSans-65" transform="translate(951.630859 0.826562)"/>
     <use xlink:href="#DejaVuSans-63" transform="translate(1013.154297 0.826562)"/>
     <use xlink:href="#DejaVuSans-74" transform="translate(1068.134766 0.826562)"/>
     <use xlink:href="#DejaVuSans-72" transform="translate(1107.34375 0.826562)"/>
     <use xlink:href="#DejaVuSans-75" transform="translate(1148.457031 0.826562)"/>
     <use xlink:href="#DejaVuSans-6d" transform="translate(1211.835938 0.826562)"/>
     <use xlink:href="#DejaVuSans-20" transform="translate(1309.248047 0.826562)"/>
     <use xlink:href="#DejaVuSans-61" transform="translate(1341.035156 0.826562)"/>
     <use xlink:href="#DejaVuSans-74" transform="translate(1402.314453 0.826562)"/>
     <use xlink:href="#DejaVuSans-20" transform="translate(1441.523438 0.826562)"/>
     <use xlink:href="#DejaVuSans-42" transform="translate(1473.310547 0.826562)"/>
     <use xlink:href="#DejaVuSans-3d" transform="translate(1541.914062 0.826562)"/>
     <use xlink:href="#DejaVuSans-33" transform="translate(1625.703125 0.826562)"/>
     <use xlink:href="#DejaVuSans-2e" transform="translate(1689.326172 0.826562)"/>
     <use xlink:href="#DejaVuSans-36" transform="translate(1721.113281 0.826562)"/>
     <use xlink:href="#DejaVuSans-20" transform="translate(1784.736328 0.826562)"/>
     <use xlink:href="#DejaVuSans-47" transform="translate(1816.523438 0.826562)"/>
    </g>
   </g>
   <g id="legend_1">
    <g id="line2d_103">
     <path d="M 540.175 65.586094 
L 565.175 65.586094 
L 590.175 65.586094 
" style="fill: none; stroke: #0000ff; stroke-width: 3; stroke-linecap: square"/>
    </g>
    <g id="text_22">
     <!-- w/ imperfections -->
     <g transform="translate(610.175 74.336094) scale(0.25 -0.25)">
      <defs>
       <path id="DejaVuSans-77" d="M 269 3500 
L 844 3500 
L 1563 769 
L 2278 3500 
L 2956 3500 
L 3675 769 
L 4391 3500 
L 4966 3500 
L 4050 0 
L 3372 0 
L 2619 2869 
L 1863 0 
L 1184 0 
L 269 3500 
z
" transform="scale(0.015625)"/>
       <path id="DejaVuSans-2f" d="M 1625 4666 
L 2156 4666 
L 531 -594 
L 0 -594 
L 1625 4666 
z
" transform="scale(0.015625)"/>
      </defs>
      <use xlink:href="#DejaVuSans-77"/>
      <use xlink:href="#DejaVuSans-2f" transform="translate(81.787109 0)"/>
      <use xlink:href="#DejaVuSans-20" transform="translate(115.478516 0)"/>
      <use xlink:href="#DejaVuSans-69" transform="translate(147.265625 0)"/>
      <use xlink:href="#DejaVuSans-6d" transform="translate(175.048828 0)"/>
      <use xlink:href="#DejaVuSans-70" transform="translate(272.460938 0)"/>
      <use xlink:href="#DejaVuSans-65" transform="translate(335.9375 0)"/>
      <use xlink:href="#DejaVuSans-72" transform="translate(397.460938 0)"/>
      <use xlink:href="#DejaVuSans-66" transform="translate(438.574219 0)"/>
      <use xlink:href="#DejaVuSans-65" transform="translate(473.779297 0)"/>
      <use xlink:href="#DejaVuSans-63" transform="translate(535.302734 0)"/>
      <use xlink:href="#DejaVuSans-74" transform="translate(590.283203 0)"/>
      <use xlink:href="#DejaVuSans-69" transform="translate(629.492188 0)"/>
      <use xlink:href="#DejaVuSans-6f" transform="translate(657.275391 0)"/>
      <use xlink:href="#DejaVuSans-6e" transform="translate(718.457031 0)"/>
      <use xlink:href="#DejaVuSans-73" transform="translate(781.835938 0)"/>
     </g>
    </g>
    <g id="line2d_104">
     <path d="M 540.175 102.281406 
L 565.175 102.281406 
L 590.175 102.281406 
" style="fill: none; stroke: #ffa500; stroke-width: 3; stroke-linecap: square"/>
    </g>
    <g id="text_23">
     <!-- w/o imperfections -->
     <g transform="translate(610.175 111.031406) scale(0.25 -0.25)">
      <use xlink:href="#DejaVuSans-77"/>
      <use xlink:href="#DejaVuSans-2f" transform="translate(81.787109 0)"/>
      <use xlink:href="#DejaVuSans-6f" transform="translate(115.478516 0)"/>
      <use xlink:href="#DejaVuSans-20" transform="translate(176.660156 0)"/>
      <use xlink:href="#DejaVuSans-69" transform="translate(208.447266 0)"/>
      <use xlink:href="#DejaVuSans-6d" transform="translate(236.230469 0)"/>
      <use xlink:href="#DejaVuSans-70" transform="translate(333.642578 0)"/>
      <use xlink:href="#DejaVuSans-65" transform="translate(397.119141 0)"/>
      <use xlink:href="#DejaVuSans-72" transform="translate(458.642578 0)"/>
      <use xlink:href="#DejaVuSans-66" transform="translate(499.755859 0)"/>
      <use xlink:href="#DejaVuSans-65" transform="translate(534.960938 0)"/>
      <use xlink:href="#DejaVuSans-63" transform="translate(596.484375 0)"/>
      <use xlink:href="#DejaVuSans-74" transform="translate(651.464844 0)"/>
      <use xlink:href="#DejaVuSans-69" transform="translate(690.673828 0)"/>
      <use xlink:href="#DejaVuSans-6f" transform="translate(718.457031 0)"/>
      <use xlink:href="#DejaVuSans-6e" transform="translate(779.638672 0)"/>
      <use xlink:href="#DejaVuSans-73" transform="translate(843.017578 0)"/>
     </g>
    </g>
    <g id="line2d_105">
     <path d="M 540.175 138.976719 
L 565.175 138.976719 
L 590.175 138.976719 
" style="fill: none; stroke-dasharray: 11.1,4.8; stroke-dashoffset: 0; stroke: #000000; stroke-width: 3"/>
    </g>
    <g id="text_24">
     <!-- Pump freq -2.0 kHz -->
     <g transform="translate(610.175 147.726719) scale(0.25 -0.25)">
      <defs>
       <path id="DejaVuSans-50" d="M 1259 4147 
L 1259 2394 
L 2053 2394 
Q 2494 2394 2734 2622 
Q 2975 2850 2975 3272 
Q 2975 3691 2734 3919 
Q 2494 4147 2053 4147 
L 1259 4147 
z
M 628 4666 
L 2053 4666 
Q 2838 4666 3239 4311 
Q 3641 3956 3641 3272 
Q 3641 2581 3239 2228 
Q 2838 1875 2053 1875 
L 1259 1875 
L 1259 0 
L 628 0 
L 628 4666 
z
" transform="scale(0.015625)"/>
       <path id="DejaVuSans-2d" d="M 313 2009 
L 1997 2009 
L 1997 1497 
L 313 1497 
L 313 2009 
z
" transform="scale(0.015625)"/>
       <path id="DejaVuSans-6b" d="M 581 4863 
L 1159 4863 
L 1159 1991 
L 2875 3500 
L 3609 3500 
L 1753 1863 
L 3688 0 
L 2938 0 
L 1159 1709 
L 1159 0 
L 581 0 
L 581 4863 
z
" transform="scale(0.015625)"/>
      </defs>
      <use xlink:href="#DejaVuSans-50"/>
      <use xlink:href="#DejaVuSans-75" transform="translate(58.552734 0)"/>
      <use xlink:href="#DejaVuSans-6d" transform="translate(121.931641 0)"/>
      <use xlink:href="#DejaVuSans-70" transform="translate(219.34375 0)"/>
      <use xlink:href="#DejaVuSans-20" transform="translate(282.820312 0)"/>
      <use xlink:href="#DejaVuSans-66" transform="translate(314.607422 0)"/>
      <use xlink:href="#DejaVuSans-72" transform="translate(349.8125 0)"/>
      <use xlink:href="#DejaVuSans-65" transform="translate(388.675781 0)"/>
      <use xlink:href="#DejaVuSans-71" transform="translate(450.199219 0)"/>
      <use xlink:href="#DejaVuSans-20" transform="translate(513.675781 0)"/>
      <use xlink:href="#DejaVuSans-2d" transform="translate(545.462891 0)"/>
      <use xlink:href="#DejaVuSans-32" transform="translate(581.546875 0)"/>
      <use xlink:href="#DejaVuSans-2e" transform="translate(645.169922 0)"/>
      <use xlink:href="#DejaVuSans-30" transform="translate(676.957031 0)"/>
      <use xlink:href="#DejaVuSans-20" transform="translate(740.580078 0)"/>
      <use xlink:href="#DejaVuSans-6b" transform="translate(772.367188 0)"/>
      <use xlink:href="#DejaVuSans-48" transform="translate(830.277344 0)"/>
      <use xlink:href="#DejaVuSans-7a" transform="translate(905.472656 0)"/>
     </g>
    </g>
    <g id="line2d_106">
     <path d="M 540.175 175.672031 
L 565.175 175.672031 
L 590.175 175.672031 
" style="fill: none; stroke-dasharray: 11.1,4.8; stroke-dashoffset: 0; stroke: #000000; stroke-width: 3"/>
    </g>
    <g id="text_25">
     <!-- Pump freq -6.0 kHz -->
     <g transform="translate(610.175 184.422031) scale(0.25 -0.25)">
      <use xlink:href="#DejaVuSans-50"/>
      <use xlink:href="#DejaVuSans-75" transform="translate(58.552734 0)"/>
      <use xlink:href="#DejaVuSans-6d" transform="translate(121.931641 0)"/>
      <use xlink:href="#DejaVuSans-70" transform="translate(219.34375 0)"/>
      <use xlink:href="#DejaVuSans-20" transform="translate(282.820312 0)"/>
      <use xlink:href="#DejaVuSans-66" transform="translate(314.607422 0)"/>
      <use xlink:href="#DejaVuSans-72" transform="translate(349.8125 0)"/>
      <use xlink:href="#DejaVuSans-65" transform="translate(388.675781 0)"/>
      <use xlink:href="#DejaVuSans-71" transform="translate(450.199219 0)"/>
      <use xlink:href="#DejaVuSans-20" transform="translate(513.675781 0)"/>
      <use xlink:href="#DejaVuSans-2d" transform="translate(545.462891 0)"/>
      <use xlink:href="#DejaVuSans-36" transform="translate(581.546875 0)"/>
      <use xlink:href="#DejaVuSans-2e" transform="translate(645.169922 0)"/>
      <use xlink:href="#DejaVuSans-30" transform="translate(676.957031 0)"/>
      <use xlink:href="#DejaVuSans-20" transform="translate(740.580078 0)"/>
      <use xlink:href="#DejaVuSans-6b" transform="translate(772.367188 0)"/>
      <use xlink:href="#DejaVuSans-48" transform="translate(830.277344 0)"/>
      <use xlink:href="#DejaVuSans-7a" transform="translate(905.472656 0)"/>
     </g>
    </g>
    <g id="patch_21">
     <path d="M 540.175 221.117344 
L 590.175 221.117344 
L 590.175 203.617344 
L 540.175 203.617344 
z
" style="fill: #ff0000; opacity: 0.1"/>
    </g>
    <g id="text_26">
     <!-- Sign. Trans. -->
     <g transform="translate(610.175 221.117344) scale(0.25 -0.25)">
      <defs>
       <path id="DejaVuSans-53" d="M 3425 4513 
L 3425 3897 
Q 3066 4069 2747 4153 
Q 2428 4238 2131 4238 
Q 1616 4238 1336 4038 
Q 1056 3838 1056 3469 
Q 1056 3159 1242 3001 
Q 1428 2844 1947 2747 
L 2328 2669 
Q 3034 2534 3370 2195 
Q 3706 1856 3706 1288 
Q 3706 609 3251 259 
Q 2797 -91 1919 -91 
Q 1588 -91 1214 -16 
Q 841 59 441 206 
L 441 856 
Q 825 641 1194 531 
Q 1563 422 1919 422 
Q 2459 422 2753 634 
Q 3047 847 3047 1241 
Q 3047 1584 2836 1778 
Q 2625 1972 2144 2069 
L 1759 2144 
Q 1053 2284 737 2584 
Q 422 2884 422 3419 
Q 422 4038 858 4394 
Q 1294 4750 2059 4750 
Q 2388 4750 2728 4690 
Q 3069 4631 3425 4513 
z
" transform="scale(0.015625)"/>
       <path id="DejaVuSans-67" d="M 2906 1791 
Q 2906 2416 2648 2759 
Q 2391 3103 1925 3103 
Q 1463 3103 1205 2759 
Q 947 2416 947 1791 
Q 947 1169 1205 825 
Q 1463 481 1925 481 
Q 2391 481 2648 825 
Q 2906 1169 2906 1791 
z
M 3481 434 
Q 3481 -459 3084 -895 
Q 2688 -1331 1869 -1331 
Q 1566 -1331 1297 -1286 
Q 1028 -1241 775 -1147 
L 775 -588 
Q 1028 -725 1275 -790 
Q 1522 -856 1778 -856 
Q 2344 -856 2625 -561 
Q 2906 -266 2906 331 
L 2906 616 
Q 2728 306 2450 153 
Q 2172 0 1784 0 
Q 1141 0 747 490 
Q 353 981 353 1791 
Q 353 2603 747 3093 
Q 1141 3584 1784 3584 
Q 2172 3584 2450 3431 
Q 2728 3278 2906 2969 
L 2906 3500 
L 3481 3500 
L 3481 434 
z
" transform="scale(0.015625)"/>
       <path id="DejaVuSans-54" d="M -19 4666 
L 3928 4666 
L 3928 4134 
L 2272 4134 
L 2272 0 
L 1638 0 
L 1638 4134 
L -19 4134 
L -19 4666 
z
" transform="scale(0.015625)"/>
      </defs>
      <use xlink:href="#DejaVuSans-53"/>
      <use xlink:href="#DejaVuSans-69" transform="translate(63.476562 0)"/>
      <use xlink:href="#DejaVuSans-67" transform="translate(91.259766 0)"/>
      <use xlink:href="#DejaVuSans-6e" transform="translate(154.736328 0)"/>
      <use xlink:href="#DejaVuSans-2e" transform="translate(218.115234 0)"/>
      <use xlink:href="#DejaVuSans-20" transform="translate(249.902344 0)"/>
      <use xlink:href="#DejaVuSans-54" transform="translate(281.689453 0)"/>
      <use xlink:href="#DejaVuSans-72" transform="translate(328.023438 0)"/>
      <use xlink:href="#DejaVuSans-61" transform="translate(369.136719 0)"/>
      <use xlink:href="#DejaVuSans-6e" transform="translate(430.416016 0)"/>
      <use xlink:href="#DejaVuSans-73" transform="translate(493.794922 0)"/>
      <use xlink:href="#DejaVuSans-2e" transform="translate(545.894531 0)"/>
     </g>
    </g>
   </g>
  </g>
 </g>
 <defs>
  <clipPath id="pe5be2ff420">
   <rect x="90.959375" y="32.84" width="781.2" height="443.52"/>
  </clipPath>
 </defs>
</svg>
