<?xml version="1.0" encoding="utf-8" standalone="no"?>
<!DOCTYPE svg PUBLIC "-//W3C//DTD SVG 1.1//EN"
  "http://www.w3.org/Graphics/SVG/1.1/DTD/svg11.dtd">
<svg xmlns:xlink="http://www.w3.org/1999/xlink" width="903.591406pt" height="535.850625pt" viewBox="0 0 903.591406 535.850625" xmlns="http://www.w3.org/2000/svg" version="1.1">
 <metadata>
  <rdf:RDF xmlns:dc="http://purl.org/dc/elements/1.1/" xmlns:cc="http://creativecommons.org/ns#" xmlns:rdf="http://www.w3.org/1999/02/22-rdf-syntax-ns#">
   <cc:Work>
    <dc:type rdf:resource="http://purl.org/dc/dcmitype/StillImage"/>
    <dc:date>2026-02-19T11:50:04.377005</dc:date>
    <dc:format>image/svg+xml</dc:format>
    <dc:creator>
     <cc:Agent>
      <dc:title>Matplotlib v3.10.3, https://matplotlib.org/</dc:title>
     </cc:Agent>
    </dc:creator>
   </cc:Work>
  </rdf:RDF>
 </metadata>
 <defs>
  <style type="text/css">*{stroke-linejoin: round; stroke-linecap: butt}</style>
 </defs>
 <g id="figure_1">
  <g id="patch_1">
   <path d="M 0 535.850625 
L 903.591406 535.850625 
L 903.591406 0 
L 0 0 
z
" style="fill: #ffffff"/>
  </g>
  <g id="axes_1">
   <g id="patch_2">
    <path d="M 90.959375 476.36 
L 872.159375 476.36 
L 872.159375 32.84 
L 90.959375 32.84 
z
" style="fill: #ffffff"/>
   </g>
   <g id="patch_3">
    <path d="M 853.912441 476.36 
L 861.724441 476.36 
L 861.724441 452.815737 
L 853.912441 452.815737 
z
" clip-path="url(#p28ec4e613b)" style="fill: #ff0000; opacity: 0.1"/>
   </g>
   <g id="patch_4">
    <path d="M 852.312029 476.36 
L 860.124029 476.36 
L 860.124029 437.394605 
L 852.312029 437.394605 
z
" clip-path="url(#p28ec4e613b)" style="fill: #ff0000; opacity: 0.1"/>
   </g>
   <g id="patch_5">
    <path d="M 850.303768 476.36 
L 858.115768 476.36 
L 858.115768 422.380983 
L 850.303768 422.380983 
z
" clip-path="url(#p28ec4e613b)" style="fill: #ff0000; opacity: 0.1"/>
   </g>
   <g id="patch_6">
    <path d="M 847.732855 476.36 
L 855.544855 476.36 
L 855.544855 407.927894 
L 847.732855 407.927894 
z
" clip-path="url(#p28ec4e613b)" style="fill: #ff0000; opacity: 0.1"/>
   </g>
   <g id="patch_7">
    <path d="M 844.373549 476.36 
L 852.185549 476.36 
L 852.185549 394.178671 
L 844.373549 394.178671 
z
" clip-path="url(#p28ec4e613b)" style="fill: #ff0000; opacity: 0.1"/>
   </g>
   <g id="patch_8">
    <path d="M 839.90263 476.36 
L 847.71463 476.36 
L 847.71463 381.264597 
L 839.90263 381.264597 
z
" clip-path="url(#p28ec4e613b)" style="fill: #ff0000; opacity: 0.1"/>
   </g>
   <g id="patch_9">
    <path d="M 833.884758 476.36 
L 841.696758 476.36 
L 841.696758 369.302834 
L 833.884758 369.302834 
z
" clip-path="url(#p28ec4e613b)" style="fill: #ff0000; opacity: 0.1"/>
   </g>
   <g id="patch_10">
    <path d="M 825.811463 476.36 
L 833.623463 476.36 
L 833.623463 358.394684 
L 825.811463 358.394684 
z
" clip-path="url(#p28ec4e613b)" style="fill: #ff0000; opacity: 0.1"/>
   </g>
   <g id="patch_11">
    <path d="M 815.245299 476.36 
L 823.057299 476.36 
L 823.057299 348.624222 
L 815.245299 348.624222 
z
" clip-path="url(#p28ec4e613b)" style="fill: #ff0000; opacity: 0.1"/>
   </g>
   <g id="patch_12">
    <path d="M 802.031814 476.36 
L 809.843814 476.36 
L 809.843814 340.057314 
L 802.031814 340.057314 
z
" clip-path="url(#p28ec4e613b)" style="fill: #ff0000; opacity: 0.1"/>
   </g>
   <g id="patch_13">
    <path d="M 786.393476 476.36 
L 794.205476 476.36 
L 794.205476 332.741055 
L 786.393476 332.741055 
z
" clip-path="url(#p28ec4e613b)" style="fill: #ff0000; opacity: 0.1"/>
   </g>
   <g id="patch_14">
    <path d="M 768.797508 476.36 
L 776.609508 476.36 
L 776.609508 326.703599 
L 768.797508 326.703599 
z
" clip-path="url(#p28ec4e613b)" style="fill: #ff0000; opacity: 0.1"/>
   </g>
   <g id="patch_15">
    <path d="M 749.74588 476.36 
L 757.55788 476.36 
L 757.55788 321.954395 
L 749.74588 321.954395 
z
" clip-path="url(#p28ec4e613b)" style="fill: #ff0000; opacity: 0.1"/>
   </g>
   <g id="patch_16">
    <path d="M 729.653056 476.36 
L 737.465056 476.36 
L 737.465056 318.484798 
L 729.653056 318.484798 
z
" clip-path="url(#p28ec4e613b)" style="fill: #ff0000; opacity: 0.1"/>
   </g>
   <g id="patch_17">
    <path d="M 708.821727 476.36 
L 716.633727 476.36 
L 716.633727 316.269022 
L 708.821727 316.269022 
z
" clip-path="url(#p28ec4e613b)" style="fill: #ff0000; opacity: 0.1"/>
   </g>
   <g id="patch_18">
    <path d="M 687.462042 476.36 
L 695.274042 476.36 
L 695.274042 315.265408 
L 687.462042 315.265408 
z
" clip-path="url(#p28ec4e613b)" style="fill: #ff0000; opacity: 0.1"/>
   </g>
   <g id="patch_19">
    <path d="M 665.718022 476.36 
L 673.530022 476.36 
L 673.530022 315.417947 
L 665.718022 315.417947 
z
" clip-path="url(#p28ec4e613b)" style="fill: #ff0000; opacity: 0.1"/>
   </g>
   <g id="patch_20">
    <path d="M 643.688951 476.36 
L 651.500951 476.36 
L 651.500951 316.658018 
L 643.688951 316.658018 
z
" clip-path="url(#p28ec4e613b)" style="fill: #ff0000; opacity: 0.1"/>
   </g>
   <g id="patch_21">
    <path d="M 621.444277 476.36 
L 629.256277 476.36 
L 629.256277 318.906291 
L 621.444277 318.906291 
z
" clip-path="url(#p28ec4e613b)" style="fill: #ff0000; opacity: 0.1"/>
   </g>
   <g id="patch_22">
    <path d="M 599.033456 476.36 
L 606.845456 476.36 
L 606.845456 322.074729 
L 599.033456 322.074729 
z
" clip-path="url(#p28ec4e613b)" style="fill: #ff0000; opacity: 0.1"/>
   </g>
   <g id="patch_23">
    <path d="M 576.492379 476.36 
L 584.304379 476.36 
L 584.304379 326.068644 
L 576.492379 326.068644 
z
" clip-path="url(#p28ec4e613b)" style="fill: #ff0000; opacity: 0.1"/>
   </g>
   <g id="patch_24">
    <path d="M 553.847573 476.36 
L 561.659573 476.36 
L 561.659573 330.788749 
L 553.847573 330.788749 
z
" clip-path="url(#p28ec4e613b)" style="fill: #ff0000; opacity: 0.1"/>
   </g>
   <g id="patch_25">
    <path d="M 531.118986 476.36 
L 538.930986 476.36 
L 538.930986 336.133166 
L 531.118986 336.133166 
z
" clip-path="url(#p28ec4e613b)" style="fill: #ff0000; opacity: 0.1"/>
   </g>
   <g id="patch_26">
    <path d="M 508.321863 476.36 
L 516.133863 476.36 
L 516.133863 341.999337 
L 508.321863 341.999337 
z
" clip-path="url(#p28ec4e613b)" style="fill: #ff0000; opacity: 0.1"/>
   </g>
   <g id="patch_27">
    <path d="M 485.468026 476.36 
L 493.280026 476.36 
L 493.280026 348.285805 
L 485.468026 348.285805 
z
" clip-path="url(#p28ec4e613b)" style="fill: #ff0000; opacity: 0.1"/>
   </g>
   <g id="patch_28">
    <path d="M 462.566768 476.36 
L 470.378768 476.36 
L 470.378768 354.893828 
L 462.566768 354.893828 
z
" clip-path="url(#p28ec4e613b)" style="fill: #ff0000; opacity: 0.1"/>
   </g>
   <g id="patch_29">
    <path d="M 439.625487 476.36 
L 447.437487 476.36 
L 447.437487 361.72881 
L 439.625487 361.72881 
z
" clip-path="url(#p28ec4e613b)" style="fill: #ff0000; opacity: 0.1"/>
   </g>
   <g id="patch_30">
    <path d="M 416.650135 476.36 
L 424.462135 476.36 
L 424.462135 368.701527 
L 416.650135 368.701527 
z
" clip-path="url(#p28ec4e613b)" style="fill: #ff0000; opacity: 0.1"/>
   </g>
   <g id="patch_31">
    <path d="M 393.645555 476.36 
L 401.457555 476.36 
L 401.457555 375.729127 
L 393.645555 375.729127 
z
" clip-path="url(#p28ec4e613b)" style="fill: #ff0000; opacity: 0.1"/>
   </g>
   <g id="patch_32">
    <path d="M 370.615721 476.36 
L 378.427721 476.36 
L 378.427721 382.735924 
L 370.615721 382.735924 
z
" clip-path="url(#p28ec4e613b)" style="fill: #ff0000; opacity: 0.1"/>
   </g>
   <g id="patch_33">
    <path d="M 347.563925 476.36 
L 355.375925 476.36 
L 355.375925 389.653959 
L 347.563925 389.653959 
z
" clip-path="url(#p28ec4e613b)" style="fill: #ff0000; opacity: 0.1"/>
   </g>
   <g id="patch_34">
    <path d="M 324.492917 476.36 
L 332.304917 476.36 
L 332.304917 396.423362 
L 324.492917 396.423362 
z
" clip-path="url(#p28ec4e613b)" style="fill: #ff0000; opacity: 0.1"/>
   </g>
   <g id="patch_35">
    <path d="M 301.405009 476.36 
L 309.217009 476.36 
L 309.217009 402.992511 
L 301.405009 402.992511 
z
" clip-path="url(#p28ec4e613b)" style="fill: #ff0000; opacity: 0.1"/>
   </g>
   <g id="patch_36">
    <path d="M 278.302158 476.36 
L 286.114158 476.36 
L 286.114158 409.318011 
L 278.302158 409.318011 
z
" clip-path="url(#p28ec4e613b)" style="fill: #ff0000; opacity: 0.1"/>
   </g>
   <g id="patch_37">
    <path d="M 255.186033 476.36 
L 262.998033 476.36 
L 262.998033 415.364512 
L 255.186033 415.364512 
z
" clip-path="url(#p28ec4e613b)" style="fill: #ff0000; opacity: 0.1"/>
   </g>
   <g id="patch_38">
    <path d="M 232.058065 476.36 
L 239.870065 476.36 
L 239.870065 421.104387 
L 232.058065 421.104387 
z
" clip-path="url(#p28ec4e613b)" style="fill: #ff0000; opacity: 0.1"/>
   </g>
   <g id="patch_39">
    <path d="M 208.919488 476.36 
L 216.731488 476.36 
L 216.731488 426.517296 
L 208.919488 426.517296 
z
" clip-path="url(#p28ec4e613b)" style="fill: #ff0000; opacity: 0.1"/>
   </g>
   <g id="patch_40">
    <path d="M 185.77137 476.36 
L 193.58337 476.36 
L 193.58337 431.589652 
L 185.77137 431.589652 
z
" clip-path="url(#p28ec4e613b)" style="fill: #ff0000; opacity: 0.1"/>
   </g>
   <g id="patch_41">
    <path d="M 162.614643 476.36 
L 170.426643 476.36 
L 170.426643 436.314026 
L 162.614643 436.314026 
z
" clip-path="url(#p28ec4e613b)" style="fill: #ff0000; opacity: 0.1"/>
   </g>
   <g id="patch_42">
    <path d="M 139.450119 476.36 
L 147.262119 476.36 
L 147.262119 440.688495 
L 139.450119 440.688495 
z
" clip-path="url(#p28ec4e613b)" style="fill: #ff0000; opacity: 0.1"/>
   </g>
   <g id="patch_43">
    <path d="M 116.278514 476.36 
L 124.090514 476.36 
L 124.090514 444.715972 
L 116.278514 444.715972 
z
" clip-path="url(#p28ec4e613b)" style="fill: #ff0000; opacity: 0.1"/>
   </g>
   <g id="patch_44">
    <path d="M 93.100459 476.36 
L 100.912459 476.36 
L 100.912459 448.403521 
L 93.100459 448.403521 
z
" clip-path="url(#p28ec4e613b)" style="fill: #ff0000; opacity: 0.1"/>
   </g>
   <g id="patch_45">
    <path d="M 69.916511 476.36 
L 77.728511 476.36 
L 77.728511 451.761689 
L 69.916511 451.761689 
z
" clip-path="url(#p28ec4e613b)" style="fill: #ff0000; opacity: 0.1"/>
   </g>
   <g id="patch_46">
    <path d="M 46.727167 476.36 
L 54.539167 476.36 
L 54.539167 454.803852 
L 46.727167 454.803852 
z
" clip-path="url(#p28ec4e613b)" style="fill: #ff0000; opacity: 0.1"/>
   </g>
   <g id="patch_47">
    <path d="M 23.532868 476.36 
L 31.344868 476.36 
L 31.344868 457.545605 
L 23.532868 457.545605 
z
" clip-path="url(#p28ec4e613b)" style="fill: #ff0000; opacity: 0.1"/>
   </g>
   <g id="patch_48">
    <path d="M 0.33401 476.36 
L 8.14601 476.36 
L 8.14601 460.004186 
L 0.33401 460.004186 
z
" clip-path="url(#p28ec4e613b)" style="fill: #ff0000; opacity: 0.1"/>
   </g>
   <g id="patch_49">
    <path d="M -22.869054 476.36 
L -15.057054 476.36 
L -15.057054 462.197961 
L -22.869054 462.197961 
z
" clip-path="url(#p28ec4e613b)" style="fill: #ff0000; opacity: 0.1"/>
   </g>
   <g id="patch_50">
    <path d="M -46.076005 476.36 
L -38.264005 476.36 
L -38.264005 464.145956 
L -46.076005 464.145956 
z
" clip-path="url(#p28ec4e613b)" style="fill: #ff0000; opacity: 0.1"/>
   </g>
   <g id="patch_51">
    <path d="M -69.286555 476.36 
L -61.474555 476.36 
L -61.474555 465.867448 
L -69.286555 465.867448 
z
" clip-path="url(#p28ec4e613b)" style="fill: #ff0000; opacity: 0.1"/>
   </g>
   <g id="patch_52">
    <path d="M -92.500445 476.36 
L -84.688445 476.36 
L -84.688445 467.381618 
L -92.500445 467.381618 
z
" clip-path="url(#p28ec4e613b)" style="fill: #ff0000; opacity: 0.1"/>
   </g>
   <g id="matplotlib.axis_1">
    <g id="xtick_1">
     <g id="line2d_1">
      <defs>
       <path id="mec6b4e9295" d="M 0 0 
L 0 -6 
" style="stroke: #000000"/>
      </defs>
      <g>
       <use xlink:href="#mec6b4e9295" x="90.959375" y="476.36" style="stroke: #000000"/>
      </g>
     </g>
     <g id="line2d_2">
      <defs>
       <path id="m71c07cfd47" d="M 0 0 
L 0 6 
" style="stroke: #000000"/>
      </defs>
      <g>
       <use xlink:href="#m71c07cfd47" x="90.959375" y="32.84" style="stroke: #000000"/>
      </g>
     </g>
     <g id="text_1">
      <!-- −0.05 -->
      <g transform="translate(52.652734 498.856094) scale(0.25 -0.25)">
       <defs>
        <path id="DejaVuSans-2212" d="M 678 2272 
L 4684 2272 
L 4684 1741 
L 678 1741 
L 678 2272 
z
" transform="scale(0.015625)"/>
        <path id="DejaVuSans-30" d="M 2034 4250 
Q 1547 4250 1301 3770 
Q 1056 3291 1056 2328 
Q 1056 1369 1301 889 
Q 1547 409 2034 409 
Q 2525 409 2770 889 
Q 3016 1369 3016 2328 
Q 3016 3291 2770 3770 
Q 2525 4250 2034 4250 
z
M 2034 4750 
Q 2819 4750 3233 4129 
Q 3647 3509 3647 2328 
Q 3647 1150 3233 529 
Q 2819 -91 2034 -91 
Q 1250 -91 836 529 
Q 422 1150 422 2328 
Q 422 3509 836 4129 
Q 1250 4750 2034 4750 
z
" transform="scale(0.015625)"/>
        <path id="DejaVuSans-2e" d="M 684 794 
L 1344 794 
L 1344 0 
L 684 0 
L 684 794 
z
" transform="scale(0.015625)"/>
        <path id="DejaVuSans-35" d="M 691 4666 
L 3169 4666 
L 3169 4134 
L 1269 4134 
L 1269 2991 
Q 1406 3038 1543 3061 
Q 1681 3084 1819 3084 
Q 2600 3084 3056 2656 
Q 3513 2228 3513 1497 
Q 3513 744 3044 326 
Q 2575 -91 1722 -91 
Q 1428 -91 1123 -41 
Q 819 9 494 109 
L 494 744 
Q 775 591 1075 516 
Q 1375 441 1709 441 
Q 2250 441 2565 725 
Q 2881 1009 2881 1497 
Q 2881 1984 2565 2268 
Q 2250 2553 1709 2553 
Q 1456 2553 1204 2497 
Q 953 2441 691 2322 
L 691 4666 
z
" transform="scale(0.015625)"/>
       </defs>
       <use xlink:href="#DejaVuSans-2212"/>
       <use xlink:href="#DejaVuSans-30" transform="translate(83.789062 0)"/>
       <use xlink:href="#DejaVuSans-2e" transform="translate(147.412109 0)"/>
       <use xlink:href="#DejaVuSans-30" transform="translate(179.199219 0)"/>
       <use xlink:href="#DejaVuSans-35" transform="translate(242.822266 0)"/>
      </g>
     </g>
    </g>
    <g id="xtick_2">
     <g id="line2d_3">
      <g>
       <use xlink:href="#mec6b4e9295" x="247.199375" y="476.36" style="stroke: #000000"/>
      </g>
     </g>
     <g id="line2d_4">
      <g>
       <use xlink:href="#m71c07cfd47" x="247.199375" y="32.84" style="stroke: #000000"/>
      </g>
     </g>
     <g id="text_2">
      <!-- −0.04 -->
      <g transform="translate(208.892734 498.856094) scale(0.25 -0.25)">
       <defs>
        <path id="DejaVuSans-34" d="M 2419 4116 
L 825 1625 
L 2419 1625 
L 2419 4116 
z
M 2253 4666 
L 3047 4666 
L 3047 1625 
L 3713 1625 
L 3713 1100 
L 3047 1100 
L 3047 0 
L 2419 0 
L 2419 1100 
L 313 1100 
L 313 1709 
L 2253 4666 
z
" transform="scale(0.015625)"/>
       </defs>
       <use xlink:href="#DejaVuSans-2212"/>
       <use xlink:href="#DejaVuSans-30" transform="translate(83.789062 0)"/>
       <use xlink:href="#DejaVuSans-2e" transform="translate(147.412109 0)"/>
       <use xlink:href="#DejaVuSans-30" transform="translate(179.199219 0)"/>
       <use xlink:href="#DejaVuSans-34" transform="translate(242.822266 0)"/>
      </g>
     </g>
    </g>
    <g id="xtick_3">
     <g id="line2d_5">
      <g>
       <use xlink:href="#mec6b4e9295" x="403.439375" y="476.36" style="stroke: #000000"/>
      </g>
     </g>
     <g id="line2d_6">
      <g>
       <use xlink:href="#m71c07cfd47" x="403.439375" y="32.84" style="stroke: #000000"/>
      </g>
     </g>
     <g id="text_3">
      <!-- −0.03 -->
      <g transform="translate(365.132734 498.856094) scale(0.25 -0.25)">
       <defs>
        <path id="DejaVuSans-33" d="M 2597 2516 
Q 3050 2419 3304 2112 
Q 3559 1806 3559 1356 
Q 3559 666 3084 287 
Q 2609 -91 1734 -91 
Q 1441 -91 1130 -33 
Q 819 25 488 141 
L 488 750 
Q 750 597 1062 519 
Q 1375 441 1716 441 
Q 2309 441 2620 675 
Q 2931 909 2931 1356 
Q 2931 1769 2642 2001 
Q 2353 2234 1838 2234 
L 1294 2234 
L 1294 2753 
L 1863 2753 
Q 2328 2753 2575 2939 
Q 2822 3125 2822 3475 
Q 2822 3834 2567 4026 
Q 2313 4219 1838 4219 
Q 1578 4219 1281 4162 
Q 984 4106 628 3988 
L 628 4550 
Q 988 4650 1302 4700 
Q 1616 4750 1894 4750 
Q 2613 4750 3031 4423 
Q 3450 4097 3450 3541 
Q 3450 3153 3228 2886 
Q 3006 2619 2597 2516 
z
" transform="scale(0.015625)"/>
       </defs>
       <use xlink:href="#DejaVuSans-2212"/>
       <use xlink:href="#DejaVuSans-30" transform="translate(83.789062 0)"/>
       <use xlink:href="#DejaVuSans-2e" transform="translate(147.412109 0)"/>
       <use xlink:href="#DejaVuSans-30" transform="translate(179.199219 0)"/>
       <use xlink:href="#DejaVuSans-33" transform="translate(242.822266 0)"/>
      </g>
     </g>
    </g>
    <g id="xtick_4">
     <g id="line2d_7">
      <g>
       <use xlink:href="#mec6b4e9295" x="559.679375" y="476.36" style="stroke: #000000"/>
      </g>
     </g>
     <g id="line2d_8">
      <g>
       <use xlink:href="#m71c07cfd47" x="559.679375" y="32.84" style="stroke: #000000"/>
      </g>
     </g>
     <g id="text_4">
      <!-- −0.02 -->
      <g transform="translate(521.372734 498.856094) scale(0.25 -0.25)">
       <defs>
        <path id="DejaVuSans-32" d="M 1228 531 
L 3431 531 
L 3431 0 
L 469 0 
L 469 531 
Q 828 903 1448 1529 
Q 2069 2156 2228 2338 
Q 2531 2678 2651 2914 
Q 2772 3150 2772 3378 
Q 2772 3750 2511 3984 
Q 2250 4219 1831 4219 
Q 1534 4219 1204 4116 
Q 875 4013 500 3803 
L 500 4441 
Q 881 4594 1212 4672 
Q 1544 4750 1819 4750 
Q 2544 4750 2975 4387 
Q 3406 4025 3406 3419 
Q 3406 3131 3298 2873 
Q 3191 2616 2906 2266 
Q 2828 2175 2409 1742 
Q 1991 1309 1228 531 
z
" transform="scale(0.015625)"/>
       </defs>
       <use xlink:href="#DejaVuSans-2212"/>
       <use xlink:href="#DejaVuSans-30" transform="translate(83.789062 0)"/>
       <use xlink:href="#DejaVuSans-2e" transform="translate(147.412109 0)"/>
       <use xlink:href="#DejaVuSans-30" transform="translate(179.199219 0)"/>
       <use xlink:href="#DejaVuSans-32" transform="translate(242.822266 0)"/>
      </g>
     </g>
    </g>
    <g id="xtick_5">
     <g id="line2d_9">
      <g>
       <use xlink:href="#mec6b4e9295" x="715.919375" y="476.36" style="stroke: #000000"/>
      </g>
     </g>
     <g id="line2d_10">
      <g>
       <use xlink:href="#m71c07cfd47" x="715.919375" y="32.84" style="stroke: #000000"/>
      </g>
     </g>
     <g id="text_5">
      <!-- −0.01 -->
      <g transform="translate(677.612734 498.856094) scale(0.25 -0.25)">
       <defs>
        <path id="DejaVuSans-31" d="M 794 531 
L 1825 531 
L 1825 4091 
L 703 3866 
L 703 4441 
L 1819 4666 
L 2450 4666 
L 2450 531 
L 3481 531 
L 3481 0 
L 794 0 
L 794 531 
z
" transform="scale(0.015625)"/>
       </defs>
       <use xlink:href="#DejaVuSans-2212"/>
       <use xlink:href="#DejaVuSans-30" transform="translate(83.789062 0)"/>
       <use xlink:href="#DejaVuSans-2e" transform="translate(147.412109 0)"/>
       <use xlink:href="#DejaVuSans-30" transform="translate(179.199219 0)"/>
       <use xlink:href="#DejaVuSans-31" transform="translate(242.822266 0)"/>
      </g>
     </g>
    </g>
    <g id="xtick_6">
     <g id="line2d_11">
      <g>
       <use xlink:href="#mec6b4e9295" x="872.159375" y="476.36" style="stroke: #000000"/>
      </g>
     </g>
     <g id="line2d_12">
      <g>
       <use xlink:href="#m71c07cfd47" x="872.159375" y="32.84" style="stroke: #000000"/>
      </g>
     </g>
     <g id="text_6">
      <!-- 0.00 -->
      <g transform="translate(844.327344 498.856094) scale(0.25 -0.25)">
       <use xlink:href="#DejaVuSans-30"/>
       <use xlink:href="#DejaVuSans-2e" transform="translate(63.623047 0)"/>
       <use xlink:href="#DejaVuSans-30" transform="translate(95.410156 0)"/>
       <use xlink:href="#DejaVuSans-30" transform="translate(159.033203 0)"/>
      </g>
     </g>
    </g>
    <g id="xtick_7">
     <g id="line2d_13">
      <defs>
       <path id="maef07b8013" d="M 0 0 
L 0 -3 
" style="stroke: #000000"/>
      </defs>
      <g>
       <use xlink:href="#maef07b8013" x="122.207375" y="476.36" style="stroke: #000000"/>
      </g>
     </g>
     <g id="line2d_14">
      <defs>
       <path id="mc1b3b53537" d="M 0 0 
L 0 3 
" style="stroke: #000000"/>
      </defs>
      <g>
       <use xlink:href="#mc1b3b53537" x="122.207375" y="32.84" style="stroke: #000000"/>
      </g>
     </g>
    </g>
    <g id="xtick_8">
     <g id="line2d_15">
      <g>
       <use xlink:href="#maef07b8013" x="153.455375" y="476.36" style="stroke: #000000"/>
      </g>
     </g>
     <g id="line2d_16">
      <g>
       <use xlink:href="#mc1b3b53537" x="153.455375" y="32.84" style="stroke: #000000"/>
      </g>
     </g>
    </g>
    <g id="xtick_9">
     <g id="line2d_17">
      <g>
       <use xlink:href="#maef07b8013" x="184.703375" y="476.36" style="stroke: #000000"/>
      </g>
     </g>
     <g id="line2d_18">
      <g>
       <use xlink:href="#mc1b3b53537" x="184.703375" y="32.84" style="stroke: #000000"/>
      </g>
     </g>
    </g>
    <g id="xtick_10">
     <g id="line2d_19">
      <g>
       <use xlink:href="#maef07b8013" x="215.951375" y="476.36" style="stroke: #000000"/>
      </g>
     </g>
     <g id="line2d_20">
      <g>
       <use xlink:href="#mc1b3b53537" x="215.951375" y="32.84" style="stroke: #000000"/>
      </g>
     </g>
    </g>
    <g id="xtick_11">
     <g id="line2d_21">
      <g>
       <use xlink:href="#maef07b8013" x="278.447375" y="476.36" style="stroke: #000000"/>
      </g>
     </g>
     <g id="line2d_22">
      <g>
       <use xlink:href="#mc1b3b53537" x="278.447375" y="32.84" style="stroke: #000000"/>
      </g>
     </g>
    </g>
    <g id="xtick_12">
     <g id="line2d_23">
      <g>
       <use xlink:href="#maef07b8013" x="309.695375" y="476.36" style="stroke: #000000"/>
      </g>
     </g>
     <g id="line2d_24">
      <g>
       <use xlink:href="#mc1b3b53537" x="309.695375" y="32.84" style="stroke: #000000"/>
      </g>
     </g>
    </g>
    <g id="xtick_13">
     <g id="line2d_25">
      <g>
       <use xlink:href="#maef07b8013" x="340.943375" y="476.36" style="stroke: #000000"/>
      </g>
     </g>
     <g id="line2d_26">
      <g>
       <use xlink:href="#mc1b3b53537" x="340.943375" y="32.84" style="stroke: #000000"/>
      </g>
     </g>
    </g>
    <g id="xtick_14">
     <g id="line2d_27">
      <g>
       <use xlink:href="#maef07b8013" x="372.191375" y="476.36" style="stroke: #000000"/>
      </g>
     </g>
     <g id="line2d_28">
      <g>
       <use xlink:href="#mc1b3b53537" x="372.191375" y="32.84" style="stroke: #000000"/>
      </g>
     </g>
    </g>
    <g id="xtick_15">
     <g id="line2d_29">
      <g>
       <use xlink:href="#maef07b8013" x="434.687375" y="476.36" style="stroke: #000000"/>
      </g>
     </g>
     <g id="line2d_30">
      <g>
       <use xlink:href="#mc1b3b53537" x="434.687375" y="32.84" style="stroke: #000000"/>
      </g>
     </g>
    </g>
    <g id="xtick_16">
     <g id="line2d_31">
      <g>
       <use xlink:href="#maef07b8013" x="465.935375" y="476.36" style="stroke: #000000"/>
      </g>
     </g>
     <g id="line2d_32">
      <g>
       <use xlink:href="#mc1b3b53537" x="465.935375" y="32.84" style="stroke: #000000"/>
      </g>
     </g>
    </g>
    <g id="xtick_17">
     <g id="line2d_33">
      <g>
       <use xlink:href="#maef07b8013" x="497.183375" y="476.36" style="stroke: #000000"/>
      </g>
     </g>
     <g id="line2d_34">
      <g>
       <use xlink:href="#mc1b3b53537" x="497.183375" y="32.84" style="stroke: #000000"/>
      </g>
     </g>
    </g>
    <g id="xtick_18">
     <g id="line2d_35">
      <g>
       <use xlink:href="#maef07b8013" x="528.431375" y="476.36" style="stroke: #000000"/>
      </g>
     </g>
     <g id="line2d_36">
      <g>
       <use xlink:href="#mc1b3b53537" x="528.431375" y="32.84" style="stroke: #000000"/>
      </g>
     </g>
    </g>
    <g id="xtick_19">
     <g id="line2d_37">
      <g>
       <use xlink:href="#maef07b8013" x="590.927375" y="476.36" style="stroke: #000000"/>
      </g>
     </g>
     <g id="line2d_38">
      <g>
       <use xlink:href="#mc1b3b53537" x="590.927375" y="32.84" style="stroke: #000000"/>
      </g>
     </g>
    </g>
    <g id="xtick_20">
     <g id="line2d_39">
      <g>
       <use xlink:href="#maef07b8013" x="622.175375" y="476.36" style="stroke: #000000"/>
      </g>
     </g>
     <g id="line2d_40">
      <g>
       <use xlink:href="#mc1b3b53537" x="622.175375" y="32.84" style="stroke: #000000"/>
      </g>
     </g>
    </g>
    <g id="xtick_21">
     <g id="line2d_41">
      <g>
       <use xlink:href="#maef07b8013" x="653.423375" y="476.36" style="stroke: #000000"/>
      </g>
     </g>
     <g id="line2d_42">
      <g>
       <use xlink:href="#mc1b3b53537" x="653.423375" y="32.84" style="stroke: #000000"/>
      </g>
     </g>
    </g>
    <g id="xtick_22">
     <g id="line2d_43">
      <g>
       <use xlink:href="#maef07b8013" x="684.671375" y="476.36" style="stroke: #000000"/>
      </g>
     </g>
     <g id="line2d_44">
      <g>
       <use xlink:href="#mc1b3b53537" x="684.671375" y="32.84" style="stroke: #000000"/>
      </g>
     </g>
    </g>
    <g id="xtick_23">
     <g id="line2d_45">
      <g>
       <use xlink:href="#maef07b8013" x="747.167375" y="476.36" style="stroke: #000000"/>
      </g>
     </g>
     <g id="line2d_46">
      <g>
       <use xlink:href="#mc1b3b53537" x="747.167375" y="32.84" style="stroke: #000000"/>
      </g>
     </g>
    </g>
    <g id="xtick_24">
     <g id="line2d_47">
      <g>
       <use xlink:href="#maef07b8013" x="778.415375" y="476.36" style="stroke: #000000"/>
      </g>
     </g>
     <g id="line2d_48">
      <g>
       <use xlink:href="#mc1b3b53537" x="778.415375" y="32.84" style="stroke: #000000"/>
      </g>
     </g>
    </g>
    <g id="xtick_25">
     <g id="line2d_49">
      <g>
       <use xlink:href="#maef07b8013" x="809.663375" y="476.36" style="stroke: #000000"/>
      </g>
     </g>
     <g id="line2d_50">
      <g>
       <use xlink:href="#mc1b3b53537" x="809.663375" y="32.84" style="stroke: #000000"/>
      </g>
     </g>
    </g>
    <g id="xtick_26">
     <g id="line2d_51">
      <g>
       <use xlink:href="#maef07b8013" x="840.911375" y="476.36" style="stroke: #000000"/>
      </g>
     </g>
     <g id="line2d_52">
      <g>
       <use xlink:href="#mc1b3b53537" x="840.911375" y="32.84" style="stroke: #000000"/>
      </g>
     </g>
    </g>
    <g id="text_7">
     <!-- Frequency (MHz) -->
     <g transform="translate(376.5125 527.051406) scale(0.25 -0.25)">
      <defs>
       <path id="DejaVuSans-46" d="M 628 4666 
L 3309 4666 
L 3309 4134 
L 1259 4134 
L 1259 2759 
L 3109 2759 
L 3109 2228 
L 1259 2228 
L 1259 0 
L 628 0 
L 628 4666 
z
" transform="scale(0.015625)"/>
       <path id="DejaVuSans-72" d="M 2631 2963 
Q 2534 3019 2420 3045 
Q 2306 3072 2169 3072 
Q 1681 3072 1420 2755 
Q 1159 2438 1159 1844 
L 1159 0 
L 581 0 
L 581 3500 
L 1159 3500 
L 1159 2956 
Q 1341 3275 1631 3429 
Q 1922 3584 2338 3584 
Q 2397 3584 2469 3576 
Q 2541 3569 2628 3553 
L 2631 2963 
z
" transform="scale(0.015625)"/>
       <path id="DejaVuSans-65" d="M 3597 1894 
L 3597 1613 
L 953 1613 
Q 991 1019 1311 708 
Q 1631 397 2203 397 
Q 2534 397 2845 478 
Q 3156 559 3463 722 
L 3463 178 
Q 3153 47 2828 -22 
Q 2503 -91 2169 -91 
Q 1331 -91 842 396 
Q 353 884 353 1716 
Q 353 2575 817 3079 
Q 1281 3584 2069 3584 
Q 2775 3584 3186 3129 
Q 3597 2675 3597 1894 
z
M 3022 2063 
Q 3016 2534 2758 2815 
Q 2500 3097 2075 3097 
Q 1594 3097 1305 2825 
Q 1016 2553 972 2059 
L 3022 2063 
z
" transform="scale(0.015625)"/>
       <path id="DejaVuSans-71" d="M 947 1747 
Q 947 1113 1208 752 
Q 1469 391 1925 391 
Q 2381 391 2643 752 
Q 2906 1113 2906 1747 
Q 2906 2381 2643 2742 
Q 2381 3103 1925 3103 
Q 1469 3103 1208 2742 
Q 947 2381 947 1747 
z
M 2906 525 
Q 2725 213 2448 61 
Q 2172 -91 1784 -91 
Q 1150 -91 751 415 
Q 353 922 353 1747 
Q 353 2572 751 3078 
Q 1150 3584 1784 3584 
Q 2172 3584 2448 3432 
Q 2725 3281 2906 2969 
L 2906 3500 
L 3481 3500 
L 3481 -1331 
L 2906 -1331 
L 2906 525 
z
" transform="scale(0.015625)"/>
       <path id="DejaVuSans-75" d="M 544 1381 
L 544 3500 
L 1119 3500 
L 1119 1403 
Q 1119 906 1312 657 
Q 1506 409 1894 409 
Q 2359 409 2629 706 
Q 2900 1003 2900 1516 
L 2900 3500 
L 3475 3500 
L 3475 0 
L 2900 0 
L 2900 538 
Q 2691 219 2414 64 
Q 2138 -91 1772 -91 
Q 1169 -91 856 284 
Q 544 659 544 1381 
z
M 1991 3584 
L 1991 3584 
z
" transform="scale(0.015625)"/>
       <path id="DejaVuSans-6e" d="M 3513 2113 
L 3513 0 
L 2938 0 
L 2938 2094 
Q 2938 2591 2744 2837 
Q 2550 3084 2163 3084 
Q 1697 3084 1428 2787 
Q 1159 2491 1159 1978 
L 1159 0 
L 581 0 
L 581 3500 
L 1159 3500 
L 1159 2956 
Q 1366 3272 1645 3428 
Q 1925 3584 2291 3584 
Q 2894 3584 3203 3211 
Q 3513 2838 3513 2113 
z
" transform="scale(0.015625)"/>
       <path id="DejaVuSans-63" d="M 3122 3366 
L 3122 2828 
Q 2878 2963 2633 3030 
Q 2388 3097 2138 3097 
Q 1578 3097 1268 2742 
Q 959 2388 959 1747 
Q 959 1106 1268 751 
Q 1578 397 2138 397 
Q 2388 397 2633 464 
Q 2878 531 3122 666 
L 3122 134 
Q 2881 22 2623 -34 
Q 2366 -91 2075 -91 
Q 1284 -91 818 406 
Q 353 903 353 1747 
Q 353 2603 823 3093 
Q 1294 3584 2113 3584 
Q 2378 3584 2631 3529 
Q 2884 3475 3122 3366 
z
" transform="scale(0.015625)"/>
       <path id="DejaVuSans-79" d="M 2059 -325 
Q 1816 -950 1584 -1140 
Q 1353 -1331 966 -1331 
L 506 -1331 
L 506 -850 
L 844 -850 
Q 1081 -850 1212 -737 
Q 1344 -625 1503 -206 
L 1606 56 
L 191 3500 
L 800 3500 
L 1894 763 
L 2988 3500 
L 3597 3500 
L 2059 -325 
z
" transform="scale(0.015625)"/>
       <path id="DejaVuSans-20" transform="scale(0.015625)"/>
       <path id="DejaVuSans-28" d="M 1984 4856 
Q 1566 4138 1362 3434 
Q 1159 2731 1159 2009 
Q 1159 1288 1364 580 
Q 1569 -128 1984 -844 
L 1484 -844 
Q 1016 -109 783 600 
Q 550 1309 550 2009 
Q 550 2706 781 3412 
Q 1013 4119 1484 4856 
L 1984 4856 
z
" transform="scale(0.015625)"/>
       <path id="DejaVuSans-4d" d="M 628 4666 
L 1569 4666 
L 2759 1491 
L 3956 4666 
L 4897 4666 
L 4897 0 
L 4281 0 
L 4281 4097 
L 3078 897 
L 2444 897 
L 1241 4097 
L 1241 0 
L 628 0 
L 628 4666 
z
" transform="scale(0.015625)"/>
       <path id="DejaVuSans-48" d="M 628 4666 
L 1259 4666 
L 1259 2753 
L 3553 2753 
L 3553 4666 
L 4184 4666 
L 4184 0 
L 3553 0 
L 3553 2222 
L 1259 2222 
L 1259 0 
L 628 0 
L 628 4666 
z
" transform="scale(0.015625)"/>
       <path id="DejaVuSans-7a" d="M 353 3500 
L 3084 3500 
L 3084 2975 
L 922 459 
L 3084 459 
L 3084 0 
L 275 0 
L 275 525 
L 2438 3041 
L 353 3041 
L 353 3500 
z
" transform="scale(0.015625)"/>
       <path id="DejaVuSans-29" d="M 513 4856 
L 1013 4856 
Q 1481 4119 1714 3412 
Q 1947 2706 1947 2009 
Q 1947 1309 1714 600 
Q 1481 -109 1013 -844 
L 513 -844 
Q 928 -128 1133 580 
Q 1338 1288 1338 2009 
Q 1338 2731 1133 3434 
Q 928 4138 513 4856 
z
" transform="scale(0.015625)"/>
      </defs>
      <use xlink:href="#DejaVuSans-46"/>
      <use xlink:href="#DejaVuSans-72" transform="translate(50.269531 0)"/>
      <use xlink:href="#DejaVuSans-65" transform="translate(89.132812 0)"/>
      <use xlink:href="#DejaVuSans-71" transform="translate(150.65625 0)"/>
      <use xlink:href="#DejaVuSans-75" transform="translate(214.132812 0)"/>
      <use xlink:href="#DejaVuSans-65" transform="translate(277.511719 0)"/>
      <use xlink:href="#DejaVuSans-6e" transform="translate(339.035156 0)"/>
      <use xlink:href="#DejaVuSans-63" transform="translate(402.414062 0)"/>
      <use xlink:href="#DejaVuSans-79" transform="translate(457.394531 0)"/>
      <use xlink:href="#DejaVuSans-20" transform="translate(516.574219 0)"/>
      <use xlink:href="#DejaVuSans-28" transform="translate(548.361328 0)"/>
      <use xlink:href="#DejaVuSans-4d" transform="translate(587.375 0)"/>
      <use xlink:href="#DejaVuSans-48" transform="translate(673.654297 0)"/>
      <use xlink:href="#DejaVuSans-7a" transform="translate(748.849609 0)"/>
      <use xlink:href="#DejaVuSans-29" transform="translate(801.339844 0)"/>
     </g>
    </g>
   </g>
   <g id="matplotlib.axis_2">
    <g id="ytick_1">
     <g id="line2d_53">
      <defs>
       <path id="m9ee82d1d94" d="M 0 0 
L 6 0 
" style="stroke: #000000"/>
      </defs>
      <g>
       <use xlink:href="#m9ee82d1d94" x="90.959375" y="476.36" style="stroke: #000000"/>
      </g>
     </g>
     <g id="line2d_54">
      <defs>
       <path id="me64fa32939" d="M 0 0 
L -6 0 
" style="stroke: #000000"/>
      </defs>
      <g>
       <use xlink:href="#me64fa32939" x="872.159375" y="476.36" style="stroke: #000000"/>
      </g>
     </g>
     <g id="text_8">
      <!-- 0.00 -->
      <g transform="translate(31.795313 485.858047) scale(0.25 -0.25)">
       <use xlink:href="#DejaVuSans-30"/>
       <use xlink:href="#DejaVuSans-2e" transform="translate(63.623047 0)"/>
       <use xlink:href="#DejaVuSans-30" transform="translate(95.410156 0)"/>
       <use xlink:href="#DejaVuSans-30" transform="translate(159.033203 0)"/>
      </g>
     </g>
    </g>
    <g id="ytick_2">
     <g id="line2d_55">
      <g>
       <use xlink:href="#m9ee82d1d94" x="90.959375" y="387.656" style="stroke: #000000"/>
      </g>
     </g>
     <g id="line2d_56">
      <g>
       <use xlink:href="#me64fa32939" x="872.159375" y="387.656" style="stroke: #000000"/>
      </g>
     </g>
     <g id="text_9">
      <!-- 0.02 -->
      <g transform="translate(31.795313 397.154047) scale(0.25 -0.25)">
       <use xlink:href="#DejaVuSans-30"/>
       <use xlink:href="#DejaVuSans-2e" transform="translate(63.623047 0)"/>
       <use xlink:href="#DejaVuSans-30" transform="translate(95.410156 0)"/>
       <use xlink:href="#DejaVuSans-32" transform="translate(159.033203 0)"/>
      </g>
     </g>
    </g>
    <g id="ytick_3">
     <g id="line2d_57">
      <g>
       <use xlink:href="#m9ee82d1d94" x="90.959375" y="298.952" style="stroke: #000000"/>
      </g>
     </g>
     <g id="line2d_58">
      <g>
       <use xlink:href="#me64fa32939" x="872.159375" y="298.952" style="stroke: #000000"/>
      </g>
     </g>
     <g id="text_10">
      <!-- 0.04 -->
      <g transform="translate(31.795313 308.450047) scale(0.25 -0.25)">
       <use xlink:href="#DejaVuSans-30"/>
       <use xlink:href="#DejaVuSans-2e" transform="translate(63.623047 0)"/>
       <use xlink:href="#DejaVuSans-30" transform="translate(95.410156 0)"/>
       <use xlink:href="#DejaVuSans-34" transform="translate(159.033203 0)"/>
      </g>
     </g>
    </g>
    <g id="ytick_4">
     <g id="line2d_59">
      <g>
       <use xlink:href="#m9ee82d1d94" x="90.959375" y="210.248" style="stroke: #000000"/>
      </g>
     </g>
     <g id="line2d_60">
      <g>
       <use xlink:href="#me64fa32939" x="872.159375" y="210.248" style="stroke: #000000"/>
      </g>
     </g>
     <g id="text_11">
      <!-- 0.06 -->
      <g transform="translate(31.795313 219.746047) scale(0.25 -0.25)">
       <defs>
        <path id="DejaVuSans-36" d="M 2113 2584 
Q 1688 2584 1439 2293 
Q 1191 2003 1191 1497 
Q 1191 994 1439 701 
Q 1688 409 2113 409 
Q 2538 409 2786 701 
Q 3034 994 3034 1497 
Q 3034 2003 2786 2293 
Q 2538 2584 2113 2584 
z
M 3366 4563 
L 3366 3988 
Q 3128 4100 2886 4159 
Q 2644 4219 2406 4219 
Q 1781 4219 1451 3797 
Q 1122 3375 1075 2522 
Q 1259 2794 1537 2939 
Q 1816 3084 2150 3084 
Q 2853 3084 3261 2657 
Q 3669 2231 3669 1497 
Q 3669 778 3244 343 
Q 2819 -91 2113 -91 
Q 1303 -91 875 529 
Q 447 1150 447 2328 
Q 447 3434 972 4092 
Q 1497 4750 2381 4750 
Q 2619 4750 2861 4703 
Q 3103 4656 3366 4563 
z
" transform="scale(0.015625)"/>
       </defs>
       <use xlink:href="#DejaVuSans-30"/>
       <use xlink:href="#DejaVuSans-2e" transform="translate(63.623047 0)"/>
       <use xlink:href="#DejaVuSans-30" transform="translate(95.410156 0)"/>
       <use xlink:href="#DejaVuSans-36" transform="translate(159.033203 0)"/>
      </g>
     </g>
    </g>
    <g id="ytick_5">
     <g id="line2d_61">
      <g>
       <use xlink:href="#m9ee82d1d94" x="90.959375" y="121.544" style="stroke: #000000"/>
      </g>
     </g>
     <g id="line2d_62">
      <g>
       <use xlink:href="#me64fa32939" x="872.159375" y="121.544" style="stroke: #000000"/>
      </g>
     </g>
     <g id="text_12">
      <!-- 0.08 -->
      <g transform="translate(31.795313 131.042047) scale(0.25 -0.25)">
       <defs>
        <path id="DejaVuSans-38" d="M 2034 2216 
Q 1584 2216 1326 1975 
Q 1069 1734 1069 1313 
Q 1069 891 1326 650 
Q 1584 409 2034 409 
Q 2484 409 2743 651 
Q 3003 894 3003 1313 
Q 3003 1734 2745 1975 
Q 2488 2216 2034 2216 
z
M 1403 2484 
Q 997 2584 770 2862 
Q 544 3141 544 3541 
Q 544 4100 942 4425 
Q 1341 4750 2034 4750 
Q 2731 4750 3128 4425 
Q 3525 4100 3525 3541 
Q 3525 3141 3298 2862 
Q 3072 2584 2669 2484 
Q 3125 2378 3379 2068 
Q 3634 1759 3634 1313 
Q 3634 634 3220 271 
Q 2806 -91 2034 -91 
Q 1263 -91 848 271 
Q 434 634 434 1313 
Q 434 1759 690 2068 
Q 947 2378 1403 2484 
z
M 1172 3481 
Q 1172 3119 1398 2916 
Q 1625 2713 2034 2713 
Q 2441 2713 2670 2916 
Q 2900 3119 2900 3481 
Q 2900 3844 2670 4047 
Q 2441 4250 2034 4250 
Q 1625 4250 1398 4047 
Q 1172 3844 1172 3481 
z
" transform="scale(0.015625)"/>
       </defs>
       <use xlink:href="#DejaVuSans-30"/>
       <use xlink:href="#DejaVuSans-2e" transform="translate(63.623047 0)"/>
       <use xlink:href="#DejaVuSans-30" transform="translate(95.410156 0)"/>
       <use xlink:href="#DejaVuSans-38" transform="translate(159.033203 0)"/>
      </g>
     </g>
    </g>
    <g id="ytick_6">
     <g id="line2d_63">
      <g>
       <use xlink:href="#m9ee82d1d94" x="90.959375" y="32.84" style="stroke: #000000"/>
      </g>
     </g>
     <g id="line2d_64">
      <g>
       <use xlink:href="#me64fa32939" x="872.159375" y="32.84" style="stroke: #000000"/>
      </g>
     </g>
     <g id="text_13">
      <!-- 0.10 -->
      <g transform="translate(31.795313 42.338047) scale(0.25 -0.25)">
       <use xlink:href="#DejaVuSans-30"/>
       <use xlink:href="#DejaVuSans-2e" transform="translate(63.623047 0)"/>
       <use xlink:href="#DejaVuSans-31" transform="translate(95.410156 0)"/>
       <use xlink:href="#DejaVuSans-30" transform="translate(159.033203 0)"/>
      </g>
     </g>
    </g>
    <g id="ytick_7">
     <g id="line2d_65">
      <defs>
       <path id="m0756472dae" d="M 0 0 
L 3 0 
" style="stroke: #000000"/>
      </defs>
      <g>
       <use xlink:href="#m0756472dae" x="90.959375" y="454.184" style="stroke: #000000"/>
      </g>
     </g>
     <g id="line2d_66">
      <defs>
       <path id="mefc3f942b3" d="M 0 0 
L -3 0 
" style="stroke: #000000"/>
      </defs>
      <g>
       <use xlink:href="#mefc3f942b3" x="872.159375" y="454.184" style="stroke: #000000"/>
      </g>
     </g>
    </g>
    <g id="ytick_8">
     <g id="line2d_67">
      <g>
       <use xlink:href="#m0756472dae" x="90.959375" y="432.008" style="stroke: #000000"/>
      </g>
     </g>
     <g id="line2d_68">
      <g>
       <use xlink:href="#mefc3f942b3" x="872.159375" y="432.008" style="stroke: #000000"/>
      </g>
     </g>
    </g>
    <g id="ytick_9">
     <g id="line2d_69">
      <g>
       <use xlink:href="#m0756472dae" x="90.959375" y="409.832" style="stroke: #000000"/>
      </g>
     </g>
     <g id="line2d_70">
      <g>
       <use xlink:href="#mefc3f942b3" x="872.159375" y="409.832" style="stroke: #000000"/>
      </g>
     </g>
    </g>
    <g id="ytick_10">
     <g id="line2d_71">
      <g>
       <use xlink:href="#m0756472dae" x="90.959375" y="365.48" style="stroke: #000000"/>
      </g>
     </g>
     <g id="line2d_72">
      <g>
       <use xlink:href="#mefc3f942b3" x="872.159375" y="365.48" style="stroke: #000000"/>
      </g>
     </g>
    </g>
    <g id="ytick_11">
     <g id="line2d_73">
      <g>
       <use xlink:href="#m0756472dae" x="90.959375" y="343.304" style="stroke: #000000"/>
      </g>
     </g>
     <g id="line2d_74">
      <g>
       <use xlink:href="#mefc3f942b3" x="872.159375" y="343.304" style="stroke: #000000"/>
      </g>
     </g>
    </g>
    <g id="ytick_12">
     <g id="line2d_75">
      <g>
       <use xlink:href="#m0756472dae" x="90.959375" y="321.128" style="stroke: #000000"/>
      </g>
     </g>
     <g id="line2d_76">
      <g>
       <use xlink:href="#mefc3f942b3" x="872.159375" y="321.128" style="stroke: #000000"/>
      </g>
     </g>
    </g>
    <g id="ytick_13">
     <g id="line2d_77">
      <g>
       <use xlink:href="#m0756472dae" x="90.959375" y="276.776" style="stroke: #000000"/>
      </g>
     </g>
     <g id="line2d_78">
      <g>
       <use xlink:href="#mefc3f942b3" x="872.159375" y="276.776" style="stroke: #000000"/>
      </g>
     </g>
    </g>
    <g id="ytick_14">
     <g id="line2d_79">
      <g>
       <use xlink:href="#m0756472dae" x="90.959375" y="254.6" style="stroke: #000000"/>
      </g>
     </g>
     <g id="line2d_80">
      <g>
       <use xlink:href="#mefc3f942b3" x="872.159375" y="254.6" style="stroke: #000000"/>
      </g>
     </g>
    </g>
    <g id="ytick_15">
     <g id="line2d_81">
      <g>
       <use xlink:href="#m0756472dae" x="90.959375" y="232.424" style="stroke: #000000"/>
      </g>
     </g>
     <g id="line2d_82">
      <g>
       <use xlink:href="#mefc3f942b3" x="872.159375" y="232.424" style="stroke: #000000"/>
      </g>
     </g>
    </g>
    <g id="ytick_16">
     <g id="line2d_83">
      <g>
       <use xlink:href="#m0756472dae" x="90.959375" y="188.072" style="stroke: #000000"/>
      </g>
     </g>
     <g id="line2d_84">
      <g>
       <use xlink:href="#mefc3f942b3" x="872.159375" y="188.072" style="stroke: #000000"/>
      </g>
     </g>
    </g>
    <g id="ytick_17">
     <g id="line2d_85">
      <g>
       <use xlink:href="#m0756472dae" x="90.959375" y="165.896" style="stroke: #000000"/>
      </g>
     </g>
     <g id="line2d_86">
      <g>
       <use xlink:href="#mefc3f942b3" x="872.159375" y="165.896" style="stroke: #000000"/>
      </g>
     </g>
    </g>
    <g id="ytick_18">
     <g id="line2d_87">
      <g>
       <use xlink:href="#m0756472dae" x="90.959375" y="143.72" style="stroke: #000000"/>
      </g>
     </g>
     <g id="line2d_88">
      <g>
       <use xlink:href="#mefc3f942b3" x="872.159375" y="143.72" style="stroke: #000000"/>
      </g>
     </g>
    </g>
    <g id="ytick_19">
     <g id="line2d_89">
      <g>
       <use xlink:href="#m0756472dae" x="90.959375" y="99.368" style="stroke: #000000"/>
      </g>
     </g>
     <g id="line2d_90">
      <g>
       <use xlink:href="#mefc3f942b3" x="872.159375" y="99.368" style="stroke: #000000"/>
      </g>
     </g>
    </g>
    <g id="ytick_20">
     <g id="line2d_91">
      <g>
       <use xlink:href="#m0756472dae" x="90.959375" y="77.192" style="stroke: #000000"/>
      </g>
     </g>
     <g id="line2d_92">
      <g>
       <use xlink:href="#mefc3f942b3" x="872.159375" y="77.192" style="stroke: #000000"/>
      </g>
     </g>
    </g>
    <g id="ytick_21">
     <g id="line2d_93">
      <g>
       <use xlink:href="#m0756472dae" x="90.959375" y="55.016" style="stroke: #000000"/>
      </g>
     </g>
     <g id="line2d_94">
      <g>
       <use xlink:href="#mefc3f942b3" x="872.159375" y="55.016" style="stroke: #000000"/>
      </g>
     </g>
    </g>
    <g id="text_14">
     <!-- Excitation probability -->
     <g transform="translate(22.596094 387.189844) rotate(-90) scale(0.25 -0.25)">
      <defs>
       <path id="DejaVuSans-45" d="M 628 4666 
L 3578 4666 
L 3578 4134 
L 1259 4134 
L 1259 2753 
L 3481 2753 
L 3481 2222 
L 1259 2222 
L 1259 531 
L 3634 531 
L 3634 0 
L 628 0 
L 628 4666 
z
" transform="scale(0.015625)"/>
       <path id="DejaVuSans-78" d="M 3513 3500 
L 2247 1797 
L 3578 0 
L 2900 0 
L 1881 1375 
L 863 0 
L 184 0 
L 1544 1831 
L 300 3500 
L 978 3500 
L 1906 2253 
L 2834 3500 
L 3513 3500 
z
" transform="scale(0.015625)"/>
       <path id="DejaVuSans-69" d="M 603 3500 
L 1178 3500 
L 1178 0 
L 603 0 
L 603 3500 
z
M 603 4863 
L 1178 4863 
L 1178 4134 
L 603 4134 
L 603 4863 
z
" transform="scale(0.015625)"/>
       <path id="DejaVuSans-74" d="M 1172 4494 
L 1172 3500 
L 2356 3500 
L 2356 3053 
L 1172 3053 
L 1172 1153 
Q 1172 725 1289 603 
Q 1406 481 1766 481 
L 2356 481 
L 2356 0 
L 1766 0 
Q 1100 0 847 248 
Q 594 497 594 1153 
L 594 3053 
L 172 3053 
L 172 3500 
L 594 3500 
L 594 4494 
L 1172 4494 
z
" transform="scale(0.015625)"/>
       <path id="DejaVuSans-61" d="M 2194 1759 
Q 1497 1759 1228 1600 
Q 959 1441 959 1056 
Q 959 750 1161 570 
Q 1363 391 1709 391 
Q 2188 391 2477 730 
Q 2766 1069 2766 1631 
L 2766 1759 
L 2194 1759 
z
M 3341 1997 
L 3341 0 
L 2766 0 
L 2766 531 
Q 2569 213 2275 61 
Q 1981 -91 1556 -91 
Q 1019 -91 701 211 
Q 384 513 384 1019 
Q 384 1609 779 1909 
Q 1175 2209 1959 2209 
L 2766 2209 
L 2766 2266 
Q 2766 2663 2505 2880 
Q 2244 3097 1772 3097 
Q 1472 3097 1187 3025 
Q 903 2953 641 2809 
L 641 3341 
Q 956 3463 1253 3523 
Q 1550 3584 1831 3584 
Q 2591 3584 2966 3190 
Q 3341 2797 3341 1997 
z
" transform="scale(0.015625)"/>
       <path id="DejaVuSans-6f" d="M 1959 3097 
Q 1497 3097 1228 2736 
Q 959 2375 959 1747 
Q 959 1119 1226 758 
Q 1494 397 1959 397 
Q 2419 397 2687 759 
Q 2956 1122 2956 1747 
Q 2956 2369 2687 2733 
Q 2419 3097 1959 3097 
z
M 1959 3584 
Q 2709 3584 3137 3096 
Q 3566 2609 3566 1747 
Q 3566 888 3137 398 
Q 2709 -91 1959 -91 
Q 1206 -91 779 398 
Q 353 888 353 1747 
Q 353 2609 779 3096 
Q 1206 3584 1959 3584 
z
" transform="scale(0.015625)"/>
       <path id="DejaVuSans-70" d="M 1159 525 
L 1159 -1331 
L 581 -1331 
L 581 3500 
L 1159 3500 
L 1159 2969 
Q 1341 3281 1617 3432 
Q 1894 3584 2278 3584 
Q 2916 3584 3314 3078 
Q 3713 2572 3713 1747 
Q 3713 922 3314 415 
Q 2916 -91 2278 -91 
Q 1894 -91 1617 61 
Q 1341 213 1159 525 
z
M 3116 1747 
Q 3116 2381 2855 2742 
Q 2594 3103 2138 3103 
Q 1681 3103 1420 2742 
Q 1159 2381 1159 1747 
Q 1159 1113 1420 752 
Q 1681 391 2138 391 
Q 2594 391 2855 752 
Q 3116 1113 3116 1747 
z
" transform="scale(0.015625)"/>
       <path id="DejaVuSans-62" d="M 3116 1747 
Q 3116 2381 2855 2742 
Q 2594 3103 2138 3103 
Q 1681 3103 1420 2742 
Q 1159 2381 1159 1747 
Q 1159 1113 1420 752 
Q 1681 391 2138 391 
Q 2594 391 2855 752 
Q 3116 1113 3116 1747 
z
M 1159 2969 
Q 1341 3281 1617 3432 
Q 1894 3584 2278 3584 
Q 2916 3584 3314 3078 
Q 3713 2572 3713 1747 
Q 3713 922 3314 415 
Q 2916 -91 2278 -91 
Q 1894 -91 1617 61 
Q 1341 213 1159 525 
L 1159 0 
L 581 0 
L 581 4863 
L 1159 4863 
L 1159 2969 
z
" transform="scale(0.015625)"/>
       <path id="DejaVuSans-6c" d="M 603 4863 
L 1178 4863 
L 1178 0 
L 603 0 
L 603 4863 
z
" transform="scale(0.015625)"/>
      </defs>
      <use xlink:href="#DejaVuSans-45"/>
      <use xlink:href="#DejaVuSans-78" transform="translate(63.183594 0)"/>
      <use xlink:href="#DejaVuSans-63" transform="translate(120.613281 0)"/>
      <use xlink:href="#DejaVuSans-69" transform="translate(175.59375 0)"/>
      <use xlink:href="#DejaVuSans-74" transform="translate(203.376953 0)"/>
      <use xlink:href="#DejaVuSans-61" transform="translate(242.585938 0)"/>
      <use xlink:href="#DejaVuSans-74" transform="translate(303.865234 0)"/>
      <use xlink:href="#DejaVuSans-69" transform="translate(343.074219 0)"/>
      <use xlink:href="#DejaVuSans-6f" transform="translate(370.857422 0)"/>
      <use xlink:href="#DejaVuSans-6e" transform="translate(432.039062 0)"/>
      <use xlink:href="#DejaVuSans-20" transform="translate(495.417969 0)"/>
      <use xlink:href="#DejaVuSans-70" transform="translate(527.205078 0)"/>
      <use xlink:href="#DejaVuSans-72" transform="translate(590.681641 0)"/>
      <use xlink:href="#DejaVuSans-6f" transform="translate(629.544922 0)"/>
      <use xlink:href="#DejaVuSans-62" transform="translate(690.726562 0)"/>
      <use xlink:href="#DejaVuSans-61" transform="translate(754.203125 0)"/>
      <use xlink:href="#DejaVuSans-62" transform="translate(815.482422 0)"/>
      <use xlink:href="#DejaVuSans-69" transform="translate(878.958984 0)"/>
      <use xlink:href="#DejaVuSans-6c" transform="translate(906.742188 0)"/>
      <use xlink:href="#DejaVuSans-69" transform="translate(934.525391 0)"/>
      <use xlink:href="#DejaVuSans-74" transform="translate(962.308594 0)"/>
      <use xlink:href="#DejaVuSans-79" transform="translate(1001.517578 0)"/>
     </g>
    </g>
   </g>
   <g id="line2d_95">
    <path d="M 90.959375 475.447126 
L 94.087303 475.204797 
L 95.651267 474.334005 
L 97.215231 475.285639 
L 98.779195 475.153016 
L 100.343159 475.170462 
L 101.907123 474.430702 
L 103.471087 475.441742 
L 105.035051 475.386121 
L 106.599015 474.937405 
L 108.162979 474.75895 
L 111.290907 475.250806 
L 114.418834 475.065839 
L 115.982798 474.252521 
L 117.546762 475.243553 
L 120.67469 475.081388 
L 122.238654 474.292051 
L 123.802618 475.409078 
L 126.930546 474.956232 
L 128.49451 474.143417 
L 130.058474 474.9179 
L 131.622438 474.935569 
L 133.186402 475.13123 
L 134.750366 474.94828 
L 136.31433 474.225232 
L 137.878294 475.232863 
L 139.442258 474.967514 
L 141.006222 474.983548 
L 142.570186 474.274715 
L 144.13415 475.122655 
L 145.698114 474.839788 
L 147.262078 475.138456 
L 148.826042 474.840422 
L 150.390006 474.300171 
L 151.95397 475.016634 
L 153.517934 474.885949 
L 155.081898 474.942024 
L 156.645861 474.192111 
L 158.209825 475.059575 
L 159.773789 474.298809 
L 161.337753 475.045822 
L 162.901717 474.791306 
L 164.465681 474.306906 
L 166.029645 475.011976 
L 167.593609 474.828035 
L 169.157573 474.332887 
L 170.721537 474.221355 
L 172.285501 474.381969 
L 173.849465 474.376693 
L 175.413429 474.954155 
L 176.977393 474.814274 
L 178.541357 474.138557 
L 180.105321 475.131919 
L 181.669285 474.230927 
L 183.233249 474.947163 
L 184.797213 474.648887 
L 186.361177 474.175951 
L 187.925141 475.048962 
L 189.489105 474.646819 
L 191.053069 474.659415 
L 192.617033 474.518381 
L 194.180997 474.245709 
L 195.744961 474.778002 
L 197.308925 474.90064 
L 198.872889 474.015796 
L 200.436852 473.912547 
L 202.000816 474.416246 
L 203.56478 474.464499 
L 205.128744 474.803133 
L 208.256672 473.2297 
L 209.820636 474.338964 
L 211.3846 474.181503 
L 212.948564 474.767382 
L 214.512528 474.116026 
L 216.076492 473.035006 
L 217.640456 474.468635 
L 219.20442 474.106489 
L 220.768384 475.071599 
L 222.332348 474.114863 
L 223.896312 473.024027 
L 225.460276 474.274264 
L 227.02424 474.143661 
L 228.588204 474.670339 
L 231.716132 473.172203 
L 236.408024 474.836365 
L 237.971988 473.815844 
L 239.535952 473.695199 
L 241.099916 472.138312 
L 242.66388 474.634117 
L 244.227843 474.896889 
L 245.791807 474.193525 
L 247.355771 474.311855 
L 248.919735 472.905395 
L 250.483699 474.77261 
L 252.047663 474.504074 
L 253.611627 474.574062 
L 255.175591 474.447611 
L 256.739555 472.31419 
L 258.303519 474.582236 
L 259.867483 473.766665 
L 261.431447 474.716235 
L 262.995411 474.04476 
L 264.559375 472.681329 
L 266.123339 473.191611 
L 267.687303 474.53909 
L 269.251267 474.761207 
L 270.815231 473.98973 
L 272.379195 474.031908 
L 273.943159 472.503002 
L 275.507123 474.744917 
L 277.071087 474.155668 
L 278.635051 474.604556 
L 280.199015 474.034029 
L 281.762979 472.189137 
L 283.326943 473.485195 
L 284.890907 474.401364 
L 286.45487 474.655029 
L 288.018834 473.977443 
L 289.582798 473.655955 
L 291.146762 472.141453 
L 292.710726 474.554391 
L 294.27469 473.749829 
L 295.838654 474.537424 
L 297.402618 473.515276 
L 300.530546 472.069958 
L 302.09451 474.645077 
L 303.658474 474.373737 
L 305.222438 474.39706 
L 306.786402 473.315799 
L 308.350366 471.897526 
L 309.91433 473.097711 
L 311.478294 474.494809 
L 313.042258 474.306765 
L 314.606222 474.423509 
L 316.170186 472.906298 
L 317.73415 472.028259 
L 319.298114 473.576225 
L 320.862078 474.272832 
L 322.426042 473.766894 
L 323.990006 474.215789 
L 325.55397 472.904137 
L 327.117934 471.849658 
L 328.681898 473.462161 
L 330.245861 474.208119 
L 331.809825 473.631657 
L 333.373789 474.192118 
L 334.937753 472.897538 
L 336.501717 471.932547 
L 338.065681 473.08641 
L 339.629645 474.42787 
L 341.193609 473.851684 
L 342.757573 474.262843 
L 345.885501 471.651579 
L 347.449465 471.25831 
L 349.013429 474.508013 
L 350.577393 474.078 
L 352.141357 472.802422 
L 353.705321 473.334548 
L 355.269285 471.968843 
L 356.833249 470.263606 
L 358.397213 474.306374 
L 359.961177 473.834385 
L 364.653069 472.959643 
L 366.217033 471.253027 
L 367.780997 473.042632 
L 369.344961 474.387108 
L 370.908925 473.78842 
L 374.036852 473.032897 
L 375.600816 471.059424 
L 377.16478 469.902888 
L 378.728744 474.119085 
L 380.292708 473.882023 
L 381.856672 473.185199 
L 383.420636 473.275899 
L 384.9846 473.07255 
L 386.548564 469.946889 
L 388.112528 471.382713 
L 389.676492 474.303417 
L 391.240456 474.090383 
L 392.80442 472.825237 
L 394.368384 472.618827 
L 395.932348 472.940807 
L 397.496312 470.154829 
L 399.060276 472.243486 
L 400.62424 474.01574 
L 402.188204 473.846655 
L 403.752168 472.690114 
L 405.316132 472.878193 
L 406.880096 472.904863 
L 408.44406 470.404949 
L 410.008024 472.280403 
L 411.571988 473.660972 
L 413.135952 473.763875 
L 414.699916 472.615344 
L 416.26388 472.580923 
L 417.827843 472.831134 
L 419.391807 470.17222 
L 422.519735 472.692942 
L 424.083699 472.419464 
L 425.647663 472.570585 
L 427.211627 473.103611 
L 428.775591 472.6612 
L 430.339555 470.397143 
L 431.903519 470.174954 
L 433.467483 472.586384 
L 436.595411 472.503407 
L 439.723339 472.950488 
L 441.287303 472.280825 
L 442.851267 470.556595 
L 444.415231 472.112758 
L 445.979195 472.456665 
L 447.543159 471.501273 
L 449.107123 471.938475 
L 450.671087 472.917155 
L 452.235051 472.432105 
L 453.799015 471.388453 
L 455.362979 470.850738 
L 456.926943 472.693511 
L 458.490907 472.432238 
L 460.05487 470.977595 
L 463.182798 472.536162 
L 464.746762 472.157961 
L 466.310726 471.154127 
L 467.87469 470.952141 
L 469.438654 472.561392 
L 471.002618 472.044475 
L 472.566582 469.337785 
L 474.130546 471.210646 
L 475.69451 472.437835 
L 478.822438 472.101485 
L 480.386402 471.835899 
L 481.950366 472.449625 
L 483.51433 471.722209 
L 485.078294 470.011544 
L 486.642258 469.490925 
L 488.206222 471.810177 
L 489.770186 472.351506 
L 491.33415 472.514277 
L 492.898114 471.032954 
L 494.462078 470.928978 
L 496.026042 472.034348 
L 497.590006 470.353405 
L 499.15397 468.397238 
L 500.717934 470.714237 
L 502.281898 472.435138 
L 503.845861 472.729602 
L 505.409825 472.35117 
L 506.973789 470.520115 
L 508.537753 471.547296 
L 510.101717 471.313322 
L 511.665681 469.848976 
L 513.229645 468.10874 
L 514.793609 470.577574 
L 516.357573 472.198453 
L 517.921537 472.655041 
L 519.485501 472.268843 
L 521.049465 470.521464 
L 522.613429 469.609034 
L 524.177393 471.715349 
L 525.741357 469.744842 
L 527.305321 468.918558 
L 528.869285 469.045236 
L 530.433249 471.445339 
L 531.997213 472.264423 
L 533.561177 472.300334 
L 535.125141 470.711291 
L 536.689105 469.307142 
L 538.253069 471.0268 
L 539.817033 470.315894 
L 541.380997 469.853021 
L 542.944961 468.229515 
L 544.508925 470.407278 
L 546.072889 470.917325 
L 547.636852 471.863789 
L 549.200816 472.478062 
L 550.76478 470.870763 
L 552.328744 469.039096 
L 553.892708 470.572587 
L 555.456672 470.344647 
L 557.020636 469.636417 
L 558.5846 468.210104 
L 560.148564 469.336289 
L 561.712528 470.229924 
L 563.276492 470.501397 
L 564.840456 471.187481 
L 566.40442 471.449188 
L 567.968384 468.262134 
L 569.532348 468.742498 
L 571.096312 470.202923 
L 572.660276 468.824269 
L 574.22424 470.26081 
L 575.788204 468.314676 
L 577.352168 470.343335 
L 578.916132 470.416283 
L 580.480096 470.28826 
L 582.04406 470.37187 
L 583.608024 470.91613 
L 585.171988 467.741293 
L 586.735952 468.098125 
L 588.299916 469.651851 
L 589.86388 468.268718 
L 591.427843 469.777104 
L 592.991807 468.698978 
L 594.555771 468.301501 
L 596.119735 470.123116 
L 597.683699 468.94463 
L 599.247663 470.602231 
L 600.811627 470.284332 
L 602.375591 470.15673 
L 603.939555 467.538691 
L 605.503519 467.516376 
L 607.067483 468.95274 
L 608.631447 468.081475 
L 610.195411 469.389 
L 611.759375 469.237014 
L 613.323339 467.773098 
L 614.887303 469.549264 
L 616.451267 468.402668 
L 618.015231 469.227812 
L 619.579195 469.721213 
L 621.143159 469.707318 
L 622.707123 467.926644 
L 624.271087 466.473917 
L 625.835051 466.591137 
L 627.399015 468.268989 
L 628.962979 468.175758 
L 630.526943 469.034527 
L 632.090907 469.718603 
L 633.65487 467.785367 
L 635.218834 468.642221 
L 636.782798 467.319396 
L 638.346762 467.542016 
L 639.910726 469.057563 
L 641.47469 468.832238 
L 643.038654 468.466584 
L 644.602618 466.297888 
L 646.166582 465.418426 
L 647.730546 465.535554 
L 650.858474 466.667492 
L 652.422438 467.407643 
L 653.986402 469.385082 
L 655.550366 468.169467 
L 657.11433 467.425301 
L 658.678294 467.842288 
L 660.242258 466.451991 
L 661.806222 467.018469 
L 663.370186 468.497446 
L 666.498114 468.096535 
L 668.062078 466.215924 
L 669.626042 465.864065 
L 671.190006 466.591068 
L 672.75397 467.498863 
L 674.317934 467.356813 
L 675.881898 466.76502 
L 677.445861 467.437847 
L 679.009825 468.800286 
L 680.573789 466.928987 
L 682.137753 467.267546 
L 683.701717 467.133082 
L 685.265681 466.145933 
L 686.829645 465.393602 
L 688.393609 466.908251 
L 689.957573 467.44378 
L 691.521537 467.291245 
L 693.085501 467.332563 
L 694.649465 467.060664 
L 696.213429 466.170559 
L 697.777393 465.428777 
L 699.341357 466.330637 
L 700.905321 466.323765 
L 704.033249 465.304872 
L 705.597213 465.993836 
L 707.161177 466.323529 
L 708.725141 465.515926 
L 710.289105 462.994106 
L 711.853069 463.126625 
L 713.417033 464.221057 
L 714.980997 464.178348 
L 716.544961 464.513232 
L 718.108925 463.599229 
L 719.672889 465.247356 
L 721.236852 465.230288 
L 722.800816 465.034527 
L 724.36478 464.683893 
L 725.928744 464.115167 
L 727.492708 463.249101 
L 729.056672 462.528859 
L 730.620636 462.034477 
L 732.1846 462.199747 
L 736.876492 461.440008 
L 740.00442 459.878712 
L 741.568384 459.85685 
L 743.132348 460.279498 
L 744.696312 459.301845 
L 746.260276 457.362767 
L 747.82424 456.801433 
L 750.952168 457.955106 
L 752.516132 457.852786 
L 754.080096 457.594049 
L 758.771988 457.097108 
L 761.899916 456.287587 
L 765.027843 455.092812 
L 768.155771 453.515942 
L 772.847663 450.786984 
L 779.103519 448.100561 
L 780.667483 447.20201 
L 783.795411 445.01566 
L 786.923339 442.322379 
L 791.615231 438.018671 
L 794.743159 435.250114 
L 796.307123 433.677973 
L 797.871087 431.915941 
L 799.435051 429.950173 
L 800.999015 427.779594 
L 804.126943 422.90292 
L 807.25487 417.575744 
L 810.382798 411.695382 
L 811.946762 408.356206 
L 813.510726 404.671646 
L 815.07469 400.615735 
L 816.638654 396.182652 
L 818.202618 391.375581 
L 819.766582 386.184158 
L 821.330546 380.559631 
L 822.89451 374.41232 
L 824.458474 367.634755 
L 826.022438 360.12521 
L 827.586402 351.793074 
L 829.150366 342.546547 
L 830.71433 332.271495 
L 832.278294 320.814605 
L 833.842258 307.981226 
L 835.406222 293.543239 
L 836.970186 277.24221 
L 838.53415 258.780906 
L 840.098114 237.809606 
L 841.662078 213.916725 
L 843.226042 186.625834 
L 844.790006 155.394277 
L 846.35397 119.609539 
L 847.917934 78.582627 
L 849.481898 31.538232 
L 850.425416 -1 
M 891.336599 -1 
L 891.708925 12.535884 
L 893.272889 62.257009 
L 894.836852 105.69082 
L 896.400816 143.600539 
L 897.96478 176.675231 
L 899.528744 205.537272 
L 901.092708 230.753434 
L 902.656672 252.837401 
L 904.591406 276.278009 
L 904.591406 276.278009 
" clip-path="url(#p28ec4e613b)" style="fill: none; stroke: #0000ff; stroke-width: 3; stroke-linecap: square"/>
   </g>
   <g id="line2d_96">
    <path d="M 90.959375 476.217274 
L 92.523339 476.143996 
L 94.087303 475.921318 
L 95.651267 474.84739 
L 97.215231 471.047166 
L 98.779195 475.351333 
L 100.343159 476.005541 
L 103.471087 476.226121 
L 111.290907 476.250527 
L 114.418834 476.178522 
L 115.982798 476.063381 
L 117.546762 475.71564 
L 119.110726 473.840451 
L 120.67469 471.416362 
L 122.238654 475.381894 
L 123.802618 475.978 
L 126.930546 476.205697 
L 133.186402 476.241448 
L 137.878294 476.118492 
L 139.442258 475.949193 
L 141.006222 475.402172 
L 142.570186 472.117991 
L 144.13415 472.077334 
L 145.698114 475.389296 
L 147.262078 475.946511 
L 150.390006 476.180469 
L 156.645861 476.214824 
L 161.337753 476.04172 
L 162.901717 475.793391 
L 164.465681 474.898879 
L 166.029645 469.450203 
L 167.593609 472.667181 
L 169.157573 475.387866 
L 170.721537 475.910637 
L 173.849465 476.149734 
L 180.105321 476.180098 
L 183.233249 476.078127 
L 184.797213 475.936592 
L 186.361177 475.559077 
L 187.925141 474.080276 
L 189.489105 466.380779 
L 191.053069 473.124777 
L 192.617033 475.372529 
L 194.180997 475.86942 
L 197.308925 476.11435 
L 202.000816 476.159505 
L 206.692708 475.997327 
L 208.256672 475.790238 
L 209.820636 475.214273 
L 211.3846 472.729662 
L 212.948564 464.683339 
L 214.512528 473.456935 
L 216.076492 475.349182 
L 217.640456 475.8246 
L 220.768384 476.078972 
L 225.460276 476.116323 
L 228.588204 476.019815 
L 230.152168 475.889285 
L 231.716132 475.588381 
L 233.280096 474.698448 
L 234.84406 470.496297 
L 236.408024 465.216291 
L 237.971988 473.700524 
L 239.535952 475.320977 
L 241.099916 475.776874 
L 244.227843 476.037056 
L 248.919735 476.06456 
L 252.047663 475.93143 
L 253.611627 475.746721 
L 255.175591 475.307651 
L 256.739555 473.911704 
L 258.303519 466.971793 
L 259.867483 466.853295 
L 261.431447 473.882952 
L 262.995411 475.28958 
L 264.559375 475.726562 
L 267.687303 475.989216 
L 272.379195 476.002644 
L 275.507123 475.817756 
L 277.071087 475.557116 
L 278.635051 474.909356 
L 280.199015 472.680759 
L 281.762979 462.27141 
L 283.326943 468.49531 
L 284.890907 474.019574 
L 286.45487 475.254467 
L 288.018834 475.673051 
L 291.146762 475.935081 
L 295.838654 475.92711 
L 298.966582 475.670587 
L 300.530546 475.300196 
L 302.09451 474.330695 
L 303.658474 470.705596 
L 305.222438 458.295023 
L 306.786402 469.797192 
L 308.350366 474.119751 
L 309.91433 475.214572 
L 311.478294 475.614824 
L 314.606222 475.873191 
L 317.73415 475.888866 
L 320.862078 475.715644 
L 322.426042 475.476148 
L 323.990006 474.942798 
L 325.55397 473.460273 
L 327.117934 467.499834 
L 328.681898 457.679045 
L 330.245861 470.752215 
L 331.809825 474.186587 
L 333.373789 475.166898 
L 334.937753 475.549495 
L 338.065681 475.801182 
L 341.193609 475.796607 
L 344.321537 475.552219 
L 345.885501 475.214564 
L 347.449465 474.433456 
L 349.013429 472.110167 
L 350.577393 462.543139 
L 352.141357 460.016025 
L 353.705321 471.444742 
L 355.269285 474.22608 
L 356.833249 475.110475 
L 358.397213 475.475528 
L 361.525141 475.716335 
L 364.653069 475.682313 
L 366.217033 475.568186 
L 367.780997 475.336485 
L 369.344961 474.853209 
L 370.908925 473.682994 
L 372.472889 469.941926 
L 374.036852 456.191453 
L 375.600816 463.022197 
L 377.16478 471.941512 
L 378.728744 474.239095 
L 380.292708 475.042572 
L 381.856672 475.390181 
L 384.9846 475.615183 
L 388.112528 475.53934 
L 389.676492 475.376275 
L 391.240456 475.047837 
L 392.80442 474.344604 
L 394.368384 472.547756 
L 395.932348 466.415161 
L 397.496312 451.49151 
L 399.060276 465.56274 
L 400.62424 472.305899 
L 402.188204 474.231971 
L 403.752168 474.963481 
L 405.316132 475.291986 
L 408.44406 475.493266 
L 411.571988 475.356868 
L 413.135952 475.122727 
L 414.699916 474.649765 
L 416.26388 473.601703 
L 417.827843 470.75579 
L 419.391807 460.788915 
L 420.955771 451.774476 
L 422.519735 467.4333 
L 424.083699 472.563397 
L 425.647663 474.201103 
L 427.211627 474.868608 
L 428.775591 475.176463 
L 431.903519 475.344381 
L 435.031447 475.121248 
L 436.595411 474.783131 
L 438.159375 474.090657 
L 439.723339 472.488576 
L 441.287303 467.855362 
L 442.851267 453.145258 
L 444.415231 455.693076 
L 445.979195 468.79214 
L 447.543159 472.749481 
L 449.107123 474.1517 
L 450.671087 474.757684 
L 452.235051 475.040558 
L 453.799015 475.156537 
L 456.926943 475.054736 
L 458.490907 474.807619 
L 460.05487 474.311231 
L 461.618834 473.270069 
L 463.182798 470.734704 
L 464.746762 463.043265 
L 466.310726 446.653753 
L 467.87469 459.9629 
L 469.438654 469.754215 
L 471.002618 472.866165 
L 472.566582 474.075593 
L 474.130546 474.622843 
L 475.69451 474.876242 
L 477.258474 474.963592 
L 478.822438 474.925241 
L 480.386402 474.752692 
L 481.950366 474.382979 
L 483.51433 473.64149 
L 485.078294 472.031696 
L 486.642258 467.886941 
L 488.206222 455.550703 
L 489.770186 446.547064 
L 491.33415 463.369839 
L 492.898114 470.459912 
L 494.462078 472.935539 
L 496.026042 473.976135 
L 497.590006 474.461337 
L 499.15397 474.676118 
L 500.717934 474.721404 
L 502.281898 474.621144 
L 503.845861 474.344746 
L 505.409825 473.783062 
L 506.973789 472.64179 
L 508.537753 470.053266 
L 510.101717 463.07773 
L 511.665681 446.444523 
L 513.229645 451.607065 
L 514.793609 465.792419 
L 516.357573 470.95684 
L 517.921537 472.948952 
L 519.485501 473.840701 
L 521.049465 474.259878 
L 522.613429 474.424484 
L 524.177393 474.40894 
L 525.741357 474.215481 
L 527.305321 473.778165 
L 528.869285 472.907679 
L 530.433249 471.090541 
L 531.997213 466.765119 
L 533.561177 455.257039 
L 535.125141 442.008454 
L 536.689105 457.337723 
L 538.253069 467.510071 
L 539.817033 471.310771 
L 541.380997 472.914816 
L 542.944961 473.664718 
L 544.508925 474.006273 
L 546.072889 474.100421 
L 547.636852 473.992219 
L 549.200816 473.651603 
L 550.76478 472.951608 
L 552.328744 471.554816 
L 553.892708 468.526968 
L 555.456672 461.079408 
L 557.020636 445.084575 
L 558.5846 446.118538 
L 560.148564 461.722807 
L 561.712528 468.703646 
L 563.276492 471.532885 
L 564.840456 472.816999 
L 566.40442 473.426035 
L 567.968384 473.671713 
L 569.532348 473.663371 
L 571.096312 473.409217 
L 572.660276 472.825971 
L 574.22424 471.673551 
L 575.788204 469.324867 
L 577.352168 464.037094 
L 580.480096 439.706744 
L 582.04406 453.386839 
L 583.608024 464.737974 
L 585.171988 469.522281 
L 586.735952 471.638424 
L 588.299916 472.646579 
L 589.86388 473.107176 
L 591.427843 473.228792 
L 592.991807 473.06875 
L 594.555771 472.582488 
L 596.119735 471.592751 
L 597.683699 469.642251 
L 599.247663 465.542482 
L 600.811627 456.35882 
L 602.375591 441.516205 
L 603.939555 445.296823 
L 605.503519 459.596404 
L 607.067483 466.884035 
L 608.631447 470.123476 
L 610.195411 471.657682 
L 611.759375 472.387874 
L 613.323339 472.657899 
L 614.887303 472.585237 
L 616.451267 472.160215 
L 618.015231 471.243458 
L 619.579195 469.463282 
L 621.143159 465.901459 
L 622.707123 458.376514 
L 624.271087 444.717388 
L 625.835051 440.125989 
L 627.399015 453.715963 
L 628.962979 463.544475 
L 630.526943 468.189569 
L 632.090907 470.410822 
L 633.65487 471.496861 
L 635.218834 471.96293 
L 636.782798 472.003046 
L 638.346762 471.647335 
L 639.910726 470.788326 
L 641.47469 469.109913 
L 643.038654 465.856361 
L 644.602618 459.345333 
L 646.166582 447.65078 
L 647.730546 439.908613 
L 649.29451 449.883012 
L 650.858474 460.668341 
L 652.422438 466.358789 
L 653.986402 469.159049 
L 655.550366 470.54631 
L 657.11433 471.162294 
L 658.678294 471.260355 
L 660.242258 470.895196 
L 661.806222 469.966325 
L 663.370186 468.160223 
L 664.93415 464.756918 
L 666.498114 458.300111 
L 668.062078 447.493022 
L 669.626042 439.787642 
L 671.190006 447.457008 
L 672.75397 458.185296 
L 674.317934 464.554814 
L 675.881898 467.86425 
L 677.445861 469.561471 
L 679.009825 470.355629 
L 680.573789 470.54498 
L 682.137753 470.206262 
L 683.701717 469.247065 
L 685.265681 467.360496 
L 686.829645 463.879259 
L 688.393609 457.670958 
L 689.957573 448.620114 
L 691.521537 443.853372 
L 693.085501 450.391765 
L 694.649465 459.062859 
L 696.213429 464.588541 
L 697.777393 467.620963 
L 699.341357 469.216284 
L 700.905321 469.950117 
L 702.469285 470.071649 
L 704.033249 469.630623 
L 705.597213 468.510008 
L 707.161177 466.384799 
L 708.725141 462.655433 
L 710.289105 456.750458 
L 711.853069 450.380483 
L 713.417033 449.855996 
L 716.544961 461.923601 
L 718.108925 465.816811 
L 719.672889 468.003036 
L 721.236852 469.10278 
L 722.800816 469.458552 
L 724.36478 469.191752 
L 725.928744 468.254159 
L 727.492708 466.42722 
L 729.056672 463.312356 
L 730.620636 458.551637 
L 732.1846 453.062055 
L 733.748564 450.813008 
L 735.312528 454.368982 
L 736.876492 459.995589 
L 738.440456 464.433982 
L 740.00442 467.282278 
L 741.568384 468.97186 
L 743.132348 469.87449 
L 744.696312 470.190578 
L 746.260276 469.982533 
L 747.82424 469.207234 
L 749.388204 467.765641 
L 752.516132 463.709304 
L 754.080096 463.318667 
L 755.64406 465.029468 
L 757.208024 467.484927 
L 758.771988 469.54841 
L 760.335952 470.984836 
L 761.899916 471.907758 
L 763.46388 472.453888 
L 765.027843 472.71054 
L 766.591807 472.718931 
L 768.155771 472.498113 
L 771.283699 471.698757 
L 772.847663 471.618526 
L 774.411627 472.023724 
L 777.539555 473.367819 
L 779.103519 473.890545 
L 780.667483 474.26414 
L 783.795411 474.671922 
L 786.923339 474.783034 
L 790.051267 474.830375 
L 794.743159 475.230843 
L 799.435051 475.577475 
L 805.690907 475.792085 
L 818.202618 475.948753 
L 836.970186 475.936566 
L 849.481898 475.71877 
L 855.737753 475.430796 
L 860.429645 475.040377 
L 865.121537 474.407316 
L 866.685501 474.089705 
L 868.249465 469.943109 
L 869.813429 473.63443 
L 871.377393 473.278063 
L 872.941357 467.202302 
L 874.505321 456.549322 
L 876.069285 471.885814 
L 877.633249 473.743409 
L 879.197213 474.275708 
L 882.325141 474.861142 
L 887.017033 475.360837 
L 893.272889 475.710753 
L 902.656672 475.941379 
L 904.591406 475.967023 
L 904.591406 475.967023 
" clip-path="url(#p28ec4e613b)" style="fill: none; stroke: #ffa500; stroke-width: 3; stroke-linecap: square"/>
   </g>
   <g id="line2d_97">
    <path d="M 874.502975 476.36 
L 874.502975 32.84 
" clip-path="url(#p28ec4e613b)" style="fill: none; stroke-dasharray: 11.1,4.8; stroke-dashoffset: 0; stroke: #000000; stroke-width: 3"/>
   </g>
   <g id="line2d_98">
    <path d="M 866.690975 476.36 
L 866.690975 32.84 
" clip-path="url(#p28ec4e613b)" style="fill: none; stroke-dasharray: 11.1,4.8; stroke-dashoffset: 0; stroke: #000000; stroke-width: 3"/>
   </g>
   <g id="patch_53">
    <path d="M 90.959375 476.36 
L 90.959375 32.84 
" style="fill: none; stroke: #000000; stroke-linejoin: miter; stroke-linecap: square"/>
   </g>
   <g id="patch_54">
    <path d="M 872.159375 476.36 
L 872.159375 32.84 
" style="fill: none; stroke: #000000; stroke-linejoin: miter; stroke-linecap: square"/>
   </g>
   <g id="patch_55">
    <path d="M 90.959375 476.36 
L 872.159375 476.36 
" style="fill: none; stroke: #000000; stroke-linejoin: miter; stroke-linecap: square"/>
   </g>
   <g id="patch_56">
    <path d="M 90.959375 32.84 
L 872.159375 32.84 
" style="fill: none; stroke: #000000; stroke-linejoin: miter; stroke-linecap: square"/>
   </g>
   <g id="text_15">
    <!-- CaH$^+$ hyperfine spectrum at B=3.27 G -->
    <g transform="translate(208.139375 26.84) scale(0.28 -0.28)">
     <defs>
      <path id="DejaVuSans-43" d="M 4122 4306 
L 4122 3641 
Q 3803 3938 3442 4084 
Q 3081 4231 2675 4231 
Q 1875 4231 1450 3742 
Q 1025 3253 1025 2328 
Q 1025 1406 1450 917 
Q 1875 428 2675 428 
Q 3081 428 3442 575 
Q 3803 722 4122 1019 
L 4122 359 
Q 3791 134 3420 21 
Q 3050 -91 2638 -91 
Q 1578 -91 968 557 
Q 359 1206 359 2328 
Q 359 3453 968 4101 
Q 1578 4750 2638 4750 
Q 3056 4750 3426 4639 
Q 3797 4528 4122 4306 
z
" transform="scale(0.015625)"/>
      <path id="DejaVuSans-2b" d="M 2944 4013 
L 2944 2272 
L 4684 2272 
L 4684 1741 
L 2944 1741 
L 2944 0 
L 2419 0 
L 2419 1741 
L 678 1741 
L 678 2272 
L 2419 2272 
L 2419 4013 
L 2944 4013 
z
" transform="scale(0.015625)"/>
      <path id="DejaVuSans-68" d="M 3513 2113 
L 3513 0 
L 2938 0 
L 2938 2094 
Q 2938 2591 2744 2837 
Q 2550 3084 2163 3084 
Q 1697 3084 1428 2787 
Q 1159 2491 1159 1978 
L 1159 0 
L 581 0 
L 581 4863 
L 1159 4863 
L 1159 2956 
Q 1366 3272 1645 3428 
Q 1925 3584 2291 3584 
Q 2894 3584 3203 3211 
Q 3513 2838 3513 2113 
z
" transform="scale(0.015625)"/>
      <path id="DejaVuSans-66" d="M 2375 4863 
L 2375 4384 
L 1825 4384 
Q 1516 4384 1395 4259 
Q 1275 4134 1275 3809 
L 1275 3500 
L 2222 3500 
L 2222 3053 
L 1275 3053 
L 1275 0 
L 697 0 
L 697 3053 
L 147 3053 
L 147 3500 
L 697 3500 
L 697 3744 
Q 697 4328 969 4595 
Q 1241 4863 1831 4863 
L 2375 4863 
z
" transform="scale(0.015625)"/>
      <path id="DejaVuSans-73" d="M 2834 3397 
L 2834 2853 
Q 2591 2978 2328 3040 
Q 2066 3103 1784 3103 
Q 1356 3103 1142 2972 
Q 928 2841 928 2578 
Q 928 2378 1081 2264 
Q 1234 2150 1697 2047 
L 1894 2003 
Q 2506 1872 2764 1633 
Q 3022 1394 3022 966 
Q 3022 478 2636 193 
Q 2250 -91 1575 -91 
Q 1294 -91 989 -36 
Q 684 19 347 128 
L 347 722 
Q 666 556 975 473 
Q 1284 391 1588 391 
Q 1994 391 2212 530 
Q 2431 669 2431 922 
Q 2431 1156 2273 1281 
Q 2116 1406 1581 1522 
L 1381 1569 
Q 847 1681 609 1914 
Q 372 2147 372 2553 
Q 372 3047 722 3315 
Q 1072 3584 1716 3584 
Q 2034 3584 2315 3537 
Q 2597 3491 2834 3397 
z
" transform="scale(0.015625)"/>
      <path id="DejaVuSans-6d" d="M 3328 2828 
Q 3544 3216 3844 3400 
Q 4144 3584 4550 3584 
Q 5097 3584 5394 3201 
Q 5691 2819 5691 2113 
L 5691 0 
L 5113 0 
L 5113 2094 
Q 5113 2597 4934 2840 
Q 4756 3084 4391 3084 
Q 3944 3084 3684 2787 
Q 3425 2491 3425 1978 
L 3425 0 
L 2847 0 
L 2847 2094 
Q 2847 2600 2669 2842 
Q 2491 3084 2119 3084 
Q 1678 3084 1418 2786 
Q 1159 2488 1159 1978 
L 1159 0 
L 581 0 
L 581 3500 
L 1159 3500 
L 1159 2956 
Q 1356 3278 1631 3431 
Q 1906 3584 2284 3584 
Q 2666 3584 2933 3390 
Q 3200 3197 3328 2828 
z
" transform="scale(0.015625)"/>
      <path id="DejaVuSans-42" d="M 1259 2228 
L 1259 519 
L 2272 519 
Q 2781 519 3026 730 
Q 3272 941 3272 1375 
Q 3272 1813 3026 2020 
Q 2781 2228 2272 2228 
L 1259 2228 
z
M 1259 4147 
L 1259 2741 
L 2194 2741 
Q 2656 2741 2882 2914 
Q 3109 3088 3109 3444 
Q 3109 3797 2882 3972 
Q 2656 4147 2194 4147 
L 1259 4147 
z
M 628 4666 
L 2241 4666 
Q 2963 4666 3353 4366 
Q 3744 4066 3744 3513 
Q 3744 3084 3544 2831 
Q 3344 2578 2956 2516 
Q 3422 2416 3680 2098 
Q 3938 1781 3938 1306 
Q 3938 681 3513 340 
Q 3088 0 2303 0 
L 628 0 
L 628 4666 
z
" transform="scale(0.015625)"/>
      <path id="DejaVuSans-3d" d="M 678 2906 
L 4684 2906 
L 4684 2381 
L 678 2381 
L 678 2906 
z
M 678 1631 
L 4684 1631 
L 4684 1100 
L 678 1100 
L 678 1631 
z
" transform="scale(0.015625)"/>
      <path id="DejaVuSans-37" d="M 525 4666 
L 3525 4666 
L 3525 4397 
L 1831 0 
L 1172 0 
L 2766 4134 
L 525 4134 
L 525 4666 
z
" transform="scale(0.015625)"/>
      <path id="DejaVuSans-47" d="M 3809 666 
L 3809 1919 
L 2778 1919 
L 2778 2438 
L 4434 2438 
L 4434 434 
Q 4069 175 3628 42 
Q 3188 -91 2688 -91 
Q 1594 -91 976 548 
Q 359 1188 359 2328 
Q 359 3472 976 4111 
Q 1594 4750 2688 4750 
Q 3144 4750 3555 4637 
Q 3966 4525 4313 4306 
L 4313 3634 
Q 3963 3931 3569 4081 
Q 3175 4231 2741 4231 
Q 1884 4231 1454 3753 
Q 1025 3275 1025 2328 
Q 1025 1384 1454 906 
Q 1884 428 2741 428 
Q 3075 428 3337 486 
Q 3600 544 3809 666 
z
" transform="scale(0.015625)"/>
     </defs>
     <use xlink:href="#DejaVuSans-43" transform="translate(0 0.826562)"/>
     <use xlink:href="#DejaVuSans-61" transform="translate(69.824219 0.826562)"/>
     <use xlink:href="#DejaVuSans-48" transform="translate(131.103516 0.826562)"/>
     <use xlink:href="#DejaVuSans-2b" transform="translate(220.893555 39.107812) scale(0.7)"/>
     <use xlink:href="#DejaVuSans-20" transform="translate(295.917969 0.826562)"/>
     <use xlink:href="#DejaVuSans-68" transform="translate(327.705078 0.826562)"/>
     <use xlink:href="#DejaVuSans-79" transform="translate(391.083984 0.826562)"/>
     <use xlink:href="#DejaVuSans-70" transform="translate(450.263672 0.826562)"/>
     <use xlink:href="#DejaVuSans-65" transform="translate(513.740234 0.826562)"/>
     <use xlink:href="#DejaVuSans-72" transform="translate(575.263672 0.826562)"/>
     <use xlink:href="#DejaVuSans-66" transform="translate(616.376953 0.826562)"/>
     <use xlink:href="#DejaVuSans-69" transform="translate(651.582031 0.826562)"/>
     <use xlink:href="#DejaVuSans-6e" transform="translate(679.365234 0.826562)"/>
     <use xlink:href="#DejaVuSans-65" transform="translate(742.744141 0.826562)"/>
     <use xlink:href="#DejaVuSans-20" transform="translate(804.267578 0.826562)"/>
     <use xlink:href="#DejaVuSans-73" transform="translate(836.054688 0.826562)"/>
     <use xlink:href="#DejaVuSans-70" transform="translate(888.154297 0.826562)"/>
     <use xlink:href="#DejaVuSans-65" transform="translate(951.630859 0.826562)"/>
     <use xlink:href="#DejaVuSans-63" transform="translate(1013.154297 0.826562)"/>
     <use xlink:href="#DejaVuSans-74" transform="translate(1068.134766 0.826562)"/>
     <use xlink:href="#DejaVuSans-72" transform="translate(1107.34375 0.826562)"/>
     <use xlink:href="#DejaVuSans-75" transform="translate(1148.457031 0.826562)"/>
     <use xlink:href="#DejaVuSans-6d" transform="translate(1211.835938 0.826562)"/>
     <use xlink:href="#DejaVuSans-20" transform="translate(1309.248047 0.826562)"/>
     <use xlink:href="#DejaVuSans-61" transform="translate(1341.035156 0.826562)"/>
     <use xlink:href="#DejaVuSans-74" transform="translate(1402.314453 0.826562)"/>
     <use xlink:href="#DejaVuSans-20" transform="translate(1441.523438 0.826562)"/>
     <use xlink:href="#DejaVuSans-42" transform="translate(1473.310547 0.826562)"/>
     <use xlink:href="#DejaVuSans-3d" transform="translate(1541.914062 0.826562)"/>
     <use xlink:href="#DejaVuSans-33" transform="translate(1625.703125 0.826562)"/>
     <use xlink:href="#DejaVuSans-2e" transform="translate(1689.326172 0.826562)"/>
     <use xlink:href="#DejaVuSans-32" transform="translate(1715.613281 0.826562)"/>
     <use xlink:href="#DejaVuSans-37" transform="translate(1779.236328 0.826562)"/>
     <use xlink:href="#DejaVuSans-20" transform="translate(1842.859375 0.826562)"/>
     <use xlink:href="#DejaVuSans-47" transform="translate(1874.646484 0.826562)"/>
    </g>
   </g>
   <g id="legend_1">
    <g id="line2d_99">
     <path d="M 113.459375 65.586094 
L 138.459375 65.586094 
L 163.459375 65.586094 
" style="fill: none; stroke: #0000ff; stroke-width: 3; stroke-linecap: square"/>
    </g>
    <g id="text_16">
     <!-- Unpumped -->
     <g transform="translate(183.459375 74.336094) scale(0.25 -0.25)">
      <defs>
       <path id="DejaVuSans-55" d="M 556 4666 
L 1191 4666 
L 1191 1831 
Q 1191 1081 1462 751 
Q 1734 422 2344 422 
Q 2950 422 3222 751 
Q 3494 1081 3494 1831 
L 3494 4666 
L 4128 4666 
L 4128 1753 
Q 4128 841 3676 375 
Q 3225 -91 2344 -91 
Q 1459 -91 1007 375 
Q 556 841 556 1753 
L 556 4666 
z
" transform="scale(0.015625)"/>
       <path id="DejaVuSans-64" d="M 2906 2969 
L 2906 4863 
L 3481 4863 
L 3481 0 
L 2906 0 
L 2906 525 
Q 2725 213 2448 61 
Q 2172 -91 1784 -91 
Q 1150 -91 751 415 
Q 353 922 353 1747 
Q 353 2572 751 3078 
Q 1150 3584 1784 3584 
Q 2172 3584 2448 3432 
Q 2725 3281 2906 2969 
z
M 947 1747 
Q 947 1113 1208 752 
Q 1469 391 1925 391 
Q 2381 391 2643 752 
Q 2906 1113 2906 1747 
Q 2906 2381 2643 2742 
Q 2381 3103 1925 3103 
Q 1469 3103 1208 2742 
Q 947 2381 947 1747 
z
" transform="scale(0.015625)"/>
      </defs>
      <use xlink:href="#DejaVuSans-55"/>
      <use xlink:href="#DejaVuSans-6e" transform="translate(73.193359 0)"/>
      <use xlink:href="#DejaVuSans-70" transform="translate(136.572266 0)"/>
      <use xlink:href="#DejaVuSans-75" transform="translate(200.048828 0)"/>
      <use xlink:href="#DejaVuSans-6d" transform="translate(263.427734 0)"/>
      <use xlink:href="#DejaVuSans-70" transform="translate(360.839844 0)"/>
      <use xlink:href="#DejaVuSans-65" transform="translate(424.316406 0)"/>
      <use xlink:href="#DejaVuSans-64" transform="translate(485.839844 0)"/>
     </g>
    </g>
    <g id="line2d_100">
     <path d="M 113.459375 102.281406 
L 138.459375 102.281406 
L 163.459375 102.281406 
" style="fill: none; stroke: #ffa500; stroke-width: 3; stroke-linecap: square"/>
    </g>
    <g id="text_17">
     <!-- Pumped -->
     <g transform="translate(183.459375 111.031406) scale(0.25 -0.25)">
      <defs>
       <path id="DejaVuSans-50" d="M 1259 4147 
L 1259 2394 
L 2053 2394 
Q 2494 2394 2734 2622 
Q 2975 2850 2975 3272 
Q 2975 3691 2734 3919 
Q 2494 4147 2053 4147 
L 1259 4147 
z
M 628 4666 
L 2053 4666 
Q 2838 4666 3239 4311 
Q 3641 3956 3641 3272 
Q 3641 2581 3239 2228 
Q 2838 1875 2053 1875 
L 1259 1875 
L 1259 0 
L 628 0 
L 628 4666 
z
" transform="scale(0.015625)"/>
      </defs>
      <use xlink:href="#DejaVuSans-50"/>
      <use xlink:href="#DejaVuSans-75" transform="translate(58.552734 0)"/>
      <use xlink:href="#DejaVuSans-6d" transform="translate(121.931641 0)"/>
      <use xlink:href="#DejaVuSans-70" transform="translate(219.34375 0)"/>
      <use xlink:href="#DejaVuSans-65" transform="translate(282.820312 0)"/>
      <use xlink:href="#DejaVuSans-64" transform="translate(344.34375 0)"/>
     </g>
    </g>
    <g id="line2d_101">
     <path d="M 113.459375 138.976719 
L 138.459375 138.976719 
L 163.459375 138.976719 
" style="fill: none; stroke-dasharray: 11.1,4.8; stroke-dashoffset: 0; stroke: #000000; stroke-width: 3"/>
    </g>
    <g id="text_18">
     <!-- Pump freq 0.15 kHz -->
     <g transform="translate(183.459375 147.726719) scale(0.25 -0.25)">
      <defs>
       <path id="DejaVuSans-6b" d="M 581 4863 
L 1159 4863 
L 1159 1991 
L 2875 3500 
L 3609 3500 
L 1753 1863 
L 3688 0 
L 2938 0 
L 1159 1709 
L 1159 0 
L 581 0 
L 581 4863 
z
" transform="scale(0.015625)"/>
      </defs>
      <use xlink:href="#DejaVuSans-50"/>
      <use xlink:href="#DejaVuSans-75" transform="translate(58.552734 0)"/>
      <use xlink:href="#DejaVuSans-6d" transform="translate(121.931641 0)"/>
      <use xlink:href="#DejaVuSans-70" transform="translate(219.34375 0)"/>
      <use xlink:href="#DejaVuSans-20" transform="translate(282.820312 0)"/>
      <use xlink:href="#DejaVuSans-66" transform="translate(314.607422 0)"/>
      <use xlink:href="#DejaVuSans-72" transform="translate(349.8125 0)"/>
      <use xlink:href="#DejaVuSans-65" transform="translate(388.675781 0)"/>
      <use xlink:href="#DejaVuSans-71" transform="translate(450.199219 0)"/>
      <use xlink:href="#DejaVuSans-20" transform="translate(513.675781 0)"/>
      <use xlink:href="#DejaVuSans-30" transform="translate(545.462891 0)"/>
      <use xlink:href="#DejaVuSans-2e" transform="translate(609.085938 0)"/>
      <use xlink:href="#DejaVuSans-31" transform="translate(640.873047 0)"/>
      <use xlink:href="#DejaVuSans-35" transform="translate(704.496094 0)"/>
      <use xlink:href="#DejaVuSans-20" transform="translate(768.119141 0)"/>
      <use xlink:href="#DejaVuSans-6b" transform="translate(799.90625 0)"/>
      <use xlink:href="#DejaVuSans-48" transform="translate(857.816406 0)"/>
      <use xlink:href="#DejaVuSans-7a" transform="translate(933.011719 0)"/>
     </g>
    </g>
    <g id="line2d_102">
     <path d="M 113.459375 175.672031 
L 138.459375 175.672031 
L 163.459375 175.672031 
" style="fill: none; stroke-dasharray: 11.1,4.8; stroke-dashoffset: 0; stroke: #000000; stroke-width: 3"/>
    </g>
    <g id="text_19">
     <!-- Pump freq -0.35 kHz -->
     <g transform="translate(183.459375 184.422031) scale(0.25 -0.25)">
      <defs>
       <path id="DejaVuSans-2d" d="M 313 2009 
L 1997 2009 
L 1997 1497 
L 313 1497 
L 313 2009 
z
" transform="scale(0.015625)"/>
      </defs>
      <use xlink:href="#DejaVuSans-50"/>
      <use xlink:href="#DejaVuSans-75" transform="translate(58.552734 0)"/>
      <use xlink:href="#DejaVuSans-6d" transform="translate(121.931641 0)"/>
      <use xlink:href="#DejaVuSans-70" transform="translate(219.34375 0)"/>
      <use xlink:href="#DejaVuSans-20" transform="translate(282.820312 0)"/>
      <use xlink:href="#DejaVuSans-66" transform="translate(314.607422 0)"/>
      <use xlink:href="#DejaVuSans-72" transform="translate(349.8125 0)"/>
      <use xlink:href="#DejaVuSans-65" transform="translate(388.675781 0)"/>
      <use xlink:href="#DejaVuSans-71" transform="translate(450.199219 0)"/>
      <use xlink:href="#DejaVuSans-20" transform="translate(513.675781 0)"/>
      <use xlink:href="#DejaVuSans-2d" transform="translate(545.462891 0)"/>
      <use xlink:href="#DejaVuSans-30" transform="translate(581.546875 0)"/>
      <use xlink:href="#DejaVuSans-2e" transform="translate(645.169922 0)"/>
      <use xlink:href="#DejaVuSans-33" transform="translate(676.957031 0)"/>
      <use xlink:href="#DejaVuSans-35" transform="translate(740.580078 0)"/>
      <use xlink:href="#DejaVuSans-20" transform="translate(804.203125 0)"/>
      <use xlink:href="#DejaVuSans-6b" transform="translate(835.990234 0)"/>
      <use xlink:href="#DejaVuSans-48" transform="translate(893.900391 0)"/>
      <use xlink:href="#DejaVuSans-7a" transform="translate(969.095703 0)"/>
     </g>
    </g>
    <g id="patch_57">
     <path d="M 113.459375 221.117344 
L 163.459375 221.117344 
L 163.459375 203.617344 
L 113.459375 203.617344 
z
" style="fill: #ff0000; opacity: 0.1"/>
    </g>
    <g id="text_20">
     <!-- Sign. Trans. -->
     <g transform="translate(183.459375 221.117344) scale(0.25 -0.25)">
      <defs>
       <path id="DejaVuSans-53" d="M 3425 4513 
L 3425 3897 
Q 3066 4069 2747 4153 
Q 2428 4238 2131 4238 
Q 1616 4238 1336 4038 
Q 1056 3838 1056 3469 
Q 1056 3159 1242 3001 
Q 1428 2844 1947 2747 
L 2328 2669 
Q 3034 2534 3370 2195 
Q 3706 1856 3706 1288 
Q 3706 609 3251 259 
Q 2797 -91 1919 -91 
Q 1588 -91 1214 -16 
Q 841 59 441 206 
L 441 856 
Q 825 641 1194 531 
Q 1563 422 1919 422 
Q 2459 422 2753 634 
Q 3047 847 3047 1241 
Q 3047 1584 2836 1778 
Q 2625 1972 2144 2069 
L 1759 2144 
Q 1053 2284 737 2584 
Q 422 2884 422 3419 
Q 422 4038 858 4394 
Q 1294 4750 2059 4750 
Q 2388 4750 2728 4690 
Q 3069 4631 3425 4513 
z
" transform="scale(0.015625)"/>
       <path id="DejaVuSans-67" d="M 2906 1791 
Q 2906 2416 2648 2759 
Q 2391 3103 1925 3103 
Q 1463 3103 1205 2759 
Q 947 2416 947 1791 
Q 947 1169 1205 825 
Q 1463 481 1925 481 
Q 2391 481 2648 825 
Q 2906 1169 2906 1791 
z
M 3481 434 
Q 3481 -459 3084 -895 
Q 2688 -1331 1869 -1331 
Q 1566 -1331 1297 -1286 
Q 1028 -1241 775 -1147 
L 775 -588 
Q 1028 -725 1275 -790 
Q 1522 -856 1778 -856 
Q 2344 -856 2625 -561 
Q 2906 -266 2906 331 
L 2906 616 
Q 2728 306 2450 153 
Q 2172 0 1784 0 
Q 1141 0 747 490 
Q 353 981 353 1791 
Q 353 2603 747 3093 
Q 1141 3584 1784 3584 
Q 2172 3584 2450 3431 
Q 2728 3278 2906 2969 
L 2906 3500 
L 3481 3500 
L 3481 434 
z
" transform="scale(0.015625)"/>
       <path id="DejaVuSans-54" d="M -19 4666 
L 3928 4666 
L 3928 4134 
L 2272 4134 
L 2272 0 
L 1638 0 
L 1638 4134 
L -19 4134 
L -19 4666 
z
" transform="scale(0.015625)"/>
      </defs>
      <use xlink:href="#DejaVuSans-53"/>
      <use xlink:href="#DejaVuSans-69" transform="translate(63.476562 0)"/>
      <use xlink:href="#DejaVuSans-67" transform="translate(91.259766 0)"/>
      <use xlink:href="#DejaVuSans-6e" transform="translate(154.736328 0)"/>
      <use xlink:href="#DejaVuSans-2e" transform="translate(218.115234 0)"/>
      <use xlink:href="#DejaVuSans-20" transform="translate(249.902344 0)"/>
      <use xlink:href="#DejaVuSans-54" transform="translate(281.689453 0)"/>
      <use xlink:href="#DejaVuSans-72" transform="translate(328.023438 0)"/>
      <use xlink:href="#DejaVuSans-61" transform="translate(369.136719 0)"/>
      <use xlink:href="#DejaVuSans-6e" transform="translate(430.416016 0)"/>
      <use xlink:href="#DejaVuSans-73" transform="translate(493.794922 0)"/>
      <use xlink:href="#DejaVuSans-2e" transform="translate(545.894531 0)"/>
     </g>
    </g>
   </g>
  </g>
 </g>
 <defs>
  <clipPath id="p28ec4e613b">
   <rect x="90.959375" y="32.84" width="781.2" height="443.52"/>
  </clipPath>
 </defs>
</svg>
