<?xml version="1.0" encoding="utf-8" standalone="no"?>
<!DOCTYPE svg PUBLIC "-//W3C//DTD SVG 1.1//EN"
  "http://www.w3.org/Graphics/SVG/1.1/DTD/svg11.dtd">
<svg xmlns:xlink="http://www.w3.org/1999/xlink" width="1140.271906pt" height="277.45125pt" viewBox="0 0 1140.271906 277.45125" xmlns="http://www.w3.org/2000/svg" version="1.1">
 <metadata>
  <rdf:RDF xmlns:dc="http://purl.org/dc/elements/1.1/" xmlns:cc="http://creativecommons.org/ns#" xmlns:rdf="http://www.w3.org/1999/02/22-rdf-syntax-ns#">
   <cc:Work>
    <dc:type rdf:resource="http://purl.org/dc/dcmitype/StillImage"/>
    <dc:date>2026-02-24T18:05:08.690005</dc:date>
    <dc:format>image/svg+xml</dc:format>
    <dc:creator>
     <cc:Agent>
      <dc:title>Matplotlib v3.10.3, https://matplotlib.org/</dc:title>
     </cc:Agent>
    </dc:creator>
   </cc:Work>
  </rdf:RDF>
 </metadata>
 <defs>
  <style type="text/css">*{stroke-linejoin: round; stroke-linecap: butt}</style>
 </defs>
 <g id="figure_1">
  <g id="patch_1">
   <path d="M 0 277.45125 
L 1140.271906 277.45125 
L 1140.271906 0 
L 0 0 
z
" style="fill: #ffffff"/>
  </g>
  <g id="axes_1">
   <g id="patch_2">
    <path d="M 49.265625 230.02 
L 520.218765 230.02 
L 520.218765 28.6 
L 49.265625 28.6 
z
" style="fill: #ffffff"/>
   </g>
   <g id="matplotlib.axis_1">
    <g id="xtick_1">
     <g id="line2d_1">
      <path d="M 70.672586 230.02 
L 70.672586 28.6 
" clip-path="url(#pef9038e326)" style="fill: none; stroke: #b0b0b0; stroke-linecap: square"/>
     </g>
     <g id="line2d_2">
      <defs>
       <path id="mebe376a844" d="M 0 0 
L 0 -6 
" style="stroke: #000000"/>
      </defs>
      <g>
       <use xlink:href="#mebe376a844" x="70.672586" y="230.02" style="stroke: #000000"/>
      </g>
     </g>
     <g id="line2d_3">
      <defs>
       <path id="m726d68a168" d="M 0 0 
L 0 6 
" style="stroke: #000000"/>
      </defs>
      <g>
       <use xlink:href="#m726d68a168" x="70.672586" y="28.6" style="stroke: #000000"/>
      </g>
     </g>
     <g id="text_1">
      <!-- 0 -->
      <g transform="translate(65.672586 247.4075) scale(0.2 -0.2)">
       <defs>
        <path id="TimesNewRomanPSMT-30" d="M 231 2094 
Q 231 2819 450 3342 
Q 669 3866 1031 4122 
Q 1313 4325 1613 4325 
Q 2100 4325 2488 3828 
Q 2972 3213 2972 2159 
Q 2972 1422 2759 906 
Q 2547 391 2217 158 
Q 1888 -75 1581 -75 
Q 975 -75 572 641 
Q 231 1244 231 2094 
z
M 844 2016 
Q 844 1141 1059 588 
Q 1238 122 1591 122 
Q 1759 122 1940 273 
Q 2122 425 2216 781 
Q 2359 1319 2359 2297 
Q 2359 3022 2209 3506 
Q 2097 3866 1919 4016 
Q 1791 4119 1609 4119 
Q 1397 4119 1231 3928 
Q 1006 3669 925 3112 
Q 844 2556 844 2016 
z
" transform="scale(0.015625)"/>
       </defs>
       <use xlink:href="#TimesNewRomanPSMT-30"/>
      </g>
     </g>
    </g>
    <g id="xtick_2">
     <g id="line2d_4">
      <path d="M 156.30043 230.02 
L 156.30043 28.6 
" clip-path="url(#pef9038e326)" style="fill: none; stroke: #b0b0b0; stroke-linecap: square"/>
     </g>
     <g id="line2d_5">
      <g>
       <use xlink:href="#mebe376a844" x="156.30043" y="230.02" style="stroke: #000000"/>
      </g>
     </g>
     <g id="line2d_6">
      <g>
       <use xlink:href="#m726d68a168" x="156.30043" y="28.6" style="stroke: #000000"/>
      </g>
     </g>
     <g id="text_2">
      <!-- 10 -->
      <g transform="translate(146.30043 247.4075) scale(0.2 -0.2)">
       <defs>
        <path id="TimesNewRomanPSMT-31" d="M 750 3822 
L 1781 4325 
L 1884 4325 
L 1884 747 
Q 1884 391 1914 303 
Q 1944 216 2037 169 
Q 2131 122 2419 116 
L 2419 0 
L 825 0 
L 825 116 
Q 1125 122 1212 167 
Q 1300 213 1334 289 
Q 1369 366 1369 747 
L 1369 3034 
Q 1369 3497 1338 3628 
Q 1316 3728 1258 3775 
Q 1200 3822 1119 3822 
Q 1003 3822 797 3725 
L 750 3822 
z
" transform="scale(0.015625)"/>
       </defs>
       <use xlink:href="#TimesNewRomanPSMT-31"/>
       <use xlink:href="#TimesNewRomanPSMT-30" transform="translate(50 0)"/>
      </g>
     </g>
    </g>
    <g id="xtick_3">
     <g id="line2d_7">
      <path d="M 241.928273 230.02 
L 241.928273 28.6 
" clip-path="url(#pef9038e326)" style="fill: none; stroke: #b0b0b0; stroke-linecap: square"/>
     </g>
     <g id="line2d_8">
      <g>
       <use xlink:href="#mebe376a844" x="241.928273" y="230.02" style="stroke: #000000"/>
      </g>
     </g>
     <g id="line2d_9">
      <g>
       <use xlink:href="#m726d68a168" x="241.928273" y="28.6" style="stroke: #000000"/>
      </g>
     </g>
     <g id="text_3">
      <!-- 20 -->
      <g transform="translate(231.928273 247.4075) scale(0.2 -0.2)">
       <defs>
        <path id="TimesNewRomanPSMT-32" d="M 2934 816 
L 2638 0 
L 138 0 
L 138 116 
Q 1241 1122 1691 1759 
Q 2141 2397 2141 2925 
Q 2141 3328 1894 3587 
Q 1647 3847 1303 3847 
Q 991 3847 742 3664 
Q 494 3481 375 3128 
L 259 3128 
Q 338 3706 661 4015 
Q 984 4325 1469 4325 
Q 1984 4325 2329 3994 
Q 2675 3663 2675 3213 
Q 2675 2891 2525 2569 
Q 2294 2063 1775 1497 
Q 997 647 803 472 
L 1909 472 
Q 2247 472 2383 497 
Q 2519 522 2628 598 
Q 2738 675 2819 816 
L 2934 816 
z
" transform="scale(0.015625)"/>
       </defs>
       <use xlink:href="#TimesNewRomanPSMT-32"/>
       <use xlink:href="#TimesNewRomanPSMT-30" transform="translate(50 0)"/>
      </g>
     </g>
    </g>
    <g id="xtick_4">
     <g id="line2d_10">
      <path d="M 327.556117 230.02 
L 327.556117 28.6 
" clip-path="url(#pef9038e326)" style="fill: none; stroke: #b0b0b0; stroke-linecap: square"/>
     </g>
     <g id="line2d_11">
      <g>
       <use xlink:href="#mebe376a844" x="327.556117" y="230.02" style="stroke: #000000"/>
      </g>
     </g>
     <g id="line2d_12">
      <g>
       <use xlink:href="#m726d68a168" x="327.556117" y="28.6" style="stroke: #000000"/>
      </g>
     </g>
     <g id="text_4">
      <!-- 30 -->
      <g transform="translate(317.556117 247.4075) scale(0.2 -0.2)">
       <defs>
        <path id="TimesNewRomanPSMT-33" d="M 325 3431 
Q 506 3859 782 4092 
Q 1059 4325 1472 4325 
Q 1981 4325 2253 3994 
Q 2459 3747 2459 3466 
Q 2459 3003 1878 2509 
Q 2269 2356 2469 2072 
Q 2669 1788 2669 1403 
Q 2669 853 2319 450 
Q 1863 -75 997 -75 
Q 569 -75 414 31 
Q 259 138 259 259 
Q 259 350 332 419 
Q 406 488 509 488 
Q 588 488 669 463 
Q 722 447 909 348 
Q 1097 250 1169 231 
Q 1284 197 1416 197 
Q 1734 197 1970 444 
Q 2206 691 2206 1028 
Q 2206 1275 2097 1509 
Q 2016 1684 1919 1775 
Q 1784 1900 1550 2001 
Q 1316 2103 1072 2103 
L 972 2103 
L 972 2197 
Q 1219 2228 1467 2375 
Q 1716 2522 1828 2728 
Q 1941 2934 1941 3181 
Q 1941 3503 1739 3701 
Q 1538 3900 1238 3900 
Q 753 3900 428 3381 
L 325 3431 
z
" transform="scale(0.015625)"/>
       </defs>
       <use xlink:href="#TimesNewRomanPSMT-33"/>
       <use xlink:href="#TimesNewRomanPSMT-30" transform="translate(50 0)"/>
      </g>
     </g>
    </g>
    <g id="xtick_5">
     <g id="line2d_13">
      <path d="M 413.183961 230.02 
L 413.183961 28.6 
" clip-path="url(#pef9038e326)" style="fill: none; stroke: #b0b0b0; stroke-linecap: square"/>
     </g>
     <g id="line2d_14">
      <g>
       <use xlink:href="#mebe376a844" x="413.183961" y="230.02" style="stroke: #000000"/>
      </g>
     </g>
     <g id="line2d_15">
      <g>
       <use xlink:href="#m726d68a168" x="413.183961" y="28.6" style="stroke: #000000"/>
      </g>
     </g>
     <g id="text_5">
      <!-- 40 -->
      <g transform="translate(403.183961 247.4075) scale(0.2 -0.2)">
       <defs>
        <path id="TimesNewRomanPSMT-34" d="M 2978 1563 
L 2978 1119 
L 2409 1119 
L 2409 0 
L 1894 0 
L 1894 1119 
L 100 1119 
L 100 1519 
L 2066 4325 
L 2409 4325 
L 2409 1563 
L 2978 1563 
z
M 1894 1563 
L 1894 3666 
L 406 1563 
L 1894 1563 
z
" transform="scale(0.015625)"/>
       </defs>
       <use xlink:href="#TimesNewRomanPSMT-34"/>
       <use xlink:href="#TimesNewRomanPSMT-30" transform="translate(50 0)"/>
      </g>
     </g>
    </g>
    <g id="xtick_6">
     <g id="line2d_16">
      <path d="M 498.811805 230.02 
L 498.811805 28.6 
" clip-path="url(#pef9038e326)" style="fill: none; stroke: #b0b0b0; stroke-linecap: square"/>
     </g>
     <g id="line2d_17">
      <g>
       <use xlink:href="#mebe376a844" x="498.811805" y="230.02" style="stroke: #000000"/>
      </g>
     </g>
     <g id="line2d_18">
      <g>
       <use xlink:href="#m726d68a168" x="498.811805" y="28.6" style="stroke: #000000"/>
      </g>
     </g>
     <g id="text_6">
      <!-- 50 -->
      <g transform="translate(488.811805 247.4075) scale(0.2 -0.2)">
       <defs>
        <path id="TimesNewRomanPSMT-35" d="M 2778 4238 
L 2534 3706 
L 1259 3706 
L 981 3138 
Q 1809 3016 2294 2522 
Q 2709 2097 2709 1522 
Q 2709 1188 2573 903 
Q 2438 619 2231 419 
Q 2025 219 1772 97 
Q 1413 -75 1034 -75 
Q 653 -75 479 54 
Q 306 184 306 341 
Q 306 428 378 495 
Q 450 563 559 563 
Q 641 563 702 538 
Q 763 513 909 409 
Q 1144 247 1384 247 
Q 1750 247 2026 523 
Q 2303 800 2303 1197 
Q 2303 1581 2056 1914 
Q 1809 2247 1375 2428 
Q 1034 2569 447 2591 
L 1259 4238 
L 2778 4238 
z
" transform="scale(0.015625)"/>
       </defs>
       <use xlink:href="#TimesNewRomanPSMT-35"/>
       <use xlink:href="#TimesNewRomanPSMT-30" transform="translate(50 0)"/>
      </g>
     </g>
    </g>
    <g id="xtick_7">
     <g id="line2d_19">
      <defs>
       <path id="md31e60e78b" d="M 0 0 
L 0 -3 
" style="stroke: #000000"/>
      </defs>
      <g>
       <use xlink:href="#md31e60e78b" x="53.547017" y="230.02" style="stroke: #000000"/>
      </g>
     </g>
     <g id="line2d_20">
      <defs>
       <path id="maa20abc709" d="M 0 0 
L 0 3 
" style="stroke: #000000"/>
      </defs>
      <g>
       <use xlink:href="#maa20abc709" x="53.547017" y="28.6" style="stroke: #000000"/>
      </g>
     </g>
    </g>
    <g id="xtick_8">
     <g id="line2d_21">
      <g>
       <use xlink:href="#md31e60e78b" x="87.798155" y="230.02" style="stroke: #000000"/>
      </g>
     </g>
     <g id="line2d_22">
      <g>
       <use xlink:href="#maa20abc709" x="87.798155" y="28.6" style="stroke: #000000"/>
      </g>
     </g>
    </g>
    <g id="xtick_9">
     <g id="line2d_23">
      <g>
       <use xlink:href="#md31e60e78b" x="104.923723" y="230.02" style="stroke: #000000"/>
      </g>
     </g>
     <g id="line2d_24">
      <g>
       <use xlink:href="#maa20abc709" x="104.923723" y="28.6" style="stroke: #000000"/>
      </g>
     </g>
    </g>
    <g id="xtick_10">
     <g id="line2d_25">
      <g>
       <use xlink:href="#md31e60e78b" x="122.049292" y="230.02" style="stroke: #000000"/>
      </g>
     </g>
     <g id="line2d_26">
      <g>
       <use xlink:href="#maa20abc709" x="122.049292" y="28.6" style="stroke: #000000"/>
      </g>
     </g>
    </g>
    <g id="xtick_11">
     <g id="line2d_27">
      <g>
       <use xlink:href="#md31e60e78b" x="139.174861" y="230.02" style="stroke: #000000"/>
      </g>
     </g>
     <g id="line2d_28">
      <g>
       <use xlink:href="#maa20abc709" x="139.174861" y="28.6" style="stroke: #000000"/>
      </g>
     </g>
    </g>
    <g id="xtick_12">
     <g id="line2d_29">
      <g>
       <use xlink:href="#md31e60e78b" x="173.425998" y="230.02" style="stroke: #000000"/>
      </g>
     </g>
     <g id="line2d_30">
      <g>
       <use xlink:href="#maa20abc709" x="173.425998" y="28.6" style="stroke: #000000"/>
      </g>
     </g>
    </g>
    <g id="xtick_13">
     <g id="line2d_31">
      <g>
       <use xlink:href="#md31e60e78b" x="190.551567" y="230.02" style="stroke: #000000"/>
      </g>
     </g>
     <g id="line2d_32">
      <g>
       <use xlink:href="#maa20abc709" x="190.551567" y="28.6" style="stroke: #000000"/>
      </g>
     </g>
    </g>
    <g id="xtick_14">
     <g id="line2d_33">
      <g>
       <use xlink:href="#md31e60e78b" x="207.677136" y="230.02" style="stroke: #000000"/>
      </g>
     </g>
     <g id="line2d_34">
      <g>
       <use xlink:href="#maa20abc709" x="207.677136" y="28.6" style="stroke: #000000"/>
      </g>
     </g>
    </g>
    <g id="xtick_15">
     <g id="line2d_35">
      <g>
       <use xlink:href="#md31e60e78b" x="224.802705" y="230.02" style="stroke: #000000"/>
      </g>
     </g>
     <g id="line2d_36">
      <g>
       <use xlink:href="#maa20abc709" x="224.802705" y="28.6" style="stroke: #000000"/>
      </g>
     </g>
    </g>
    <g id="xtick_16">
     <g id="line2d_37">
      <g>
       <use xlink:href="#md31e60e78b" x="259.053842" y="230.02" style="stroke: #000000"/>
      </g>
     </g>
     <g id="line2d_38">
      <g>
       <use xlink:href="#maa20abc709" x="259.053842" y="28.6" style="stroke: #000000"/>
      </g>
     </g>
    </g>
    <g id="xtick_17">
     <g id="line2d_39">
      <g>
       <use xlink:href="#md31e60e78b" x="276.179411" y="230.02" style="stroke: #000000"/>
      </g>
     </g>
     <g id="line2d_40">
      <g>
       <use xlink:href="#maa20abc709" x="276.179411" y="28.6" style="stroke: #000000"/>
      </g>
     </g>
    </g>
    <g id="xtick_18">
     <g id="line2d_41">
      <g>
       <use xlink:href="#md31e60e78b" x="293.30498" y="230.02" style="stroke: #000000"/>
      </g>
     </g>
     <g id="line2d_42">
      <g>
       <use xlink:href="#maa20abc709" x="293.30498" y="28.6" style="stroke: #000000"/>
      </g>
     </g>
    </g>
    <g id="xtick_19">
     <g id="line2d_43">
      <g>
       <use xlink:href="#md31e60e78b" x="310.430548" y="230.02" style="stroke: #000000"/>
      </g>
     </g>
     <g id="line2d_44">
      <g>
       <use xlink:href="#maa20abc709" x="310.430548" y="28.6" style="stroke: #000000"/>
      </g>
     </g>
    </g>
    <g id="xtick_20">
     <g id="line2d_45">
      <g>
       <use xlink:href="#md31e60e78b" x="344.681686" y="230.02" style="stroke: #000000"/>
      </g>
     </g>
     <g id="line2d_46">
      <g>
       <use xlink:href="#maa20abc709" x="344.681686" y="28.6" style="stroke: #000000"/>
      </g>
     </g>
    </g>
    <g id="xtick_21">
     <g id="line2d_47">
      <g>
       <use xlink:href="#md31e60e78b" x="361.807255" y="230.02" style="stroke: #000000"/>
      </g>
     </g>
     <g id="line2d_48">
      <g>
       <use xlink:href="#maa20abc709" x="361.807255" y="28.6" style="stroke: #000000"/>
      </g>
     </g>
    </g>
    <g id="xtick_22">
     <g id="line2d_49">
      <g>
       <use xlink:href="#md31e60e78b" x="378.932823" y="230.02" style="stroke: #000000"/>
      </g>
     </g>
     <g id="line2d_50">
      <g>
       <use xlink:href="#maa20abc709" x="378.932823" y="28.6" style="stroke: #000000"/>
      </g>
     </g>
    </g>
    <g id="xtick_23">
     <g id="line2d_51">
      <g>
       <use xlink:href="#md31e60e78b" x="396.058392" y="230.02" style="stroke: #000000"/>
      </g>
     </g>
     <g id="line2d_52">
      <g>
       <use xlink:href="#maa20abc709" x="396.058392" y="28.6" style="stroke: #000000"/>
      </g>
     </g>
    </g>
    <g id="xtick_24">
     <g id="line2d_53">
      <g>
       <use xlink:href="#md31e60e78b" x="430.30953" y="230.02" style="stroke: #000000"/>
      </g>
     </g>
     <g id="line2d_54">
      <g>
       <use xlink:href="#maa20abc709" x="430.30953" y="28.6" style="stroke: #000000"/>
      </g>
     </g>
    </g>
    <g id="xtick_25">
     <g id="line2d_55">
      <g>
       <use xlink:href="#md31e60e78b" x="447.435098" y="230.02" style="stroke: #000000"/>
      </g>
     </g>
     <g id="line2d_56">
      <g>
       <use xlink:href="#maa20abc709" x="447.435098" y="28.6" style="stroke: #000000"/>
      </g>
     </g>
    </g>
    <g id="xtick_26">
     <g id="line2d_57">
      <g>
       <use xlink:href="#md31e60e78b" x="464.560667" y="230.02" style="stroke: #000000"/>
      </g>
     </g>
     <g id="line2d_58">
      <g>
       <use xlink:href="#maa20abc709" x="464.560667" y="28.6" style="stroke: #000000"/>
      </g>
     </g>
    </g>
    <g id="xtick_27">
     <g id="line2d_59">
      <g>
       <use xlink:href="#md31e60e78b" x="481.686236" y="230.02" style="stroke: #000000"/>
      </g>
     </g>
     <g id="line2d_60">
      <g>
       <use xlink:href="#maa20abc709" x="481.686236" y="28.6" style="stroke: #000000"/>
      </g>
     </g>
    </g>
    <g id="xtick_28">
     <g id="line2d_61">
      <g>
       <use xlink:href="#md31e60e78b" x="515.937373" y="230.02" style="stroke: #000000"/>
      </g>
     </g>
     <g id="line2d_62">
      <g>
       <use xlink:href="#maa20abc709" x="515.937373" y="28.6" style="stroke: #000000"/>
      </g>
     </g>
    </g>
    <g id="text_7">
     <!-- Time (ms) -->
     <g transform="translate(243.159383 269.573125) scale(0.2 -0.2)">
      <defs>
       <path id="TimesNewRomanPSMT-54" d="M 3703 4238 
L 3750 3244 
L 3631 3244 
Q 3597 3506 3538 3619 
Q 3441 3800 3280 3886 
Q 3119 3972 2856 3972 
L 2259 3972 
L 2259 734 
Q 2259 344 2344 247 
Q 2463 116 2709 116 
L 2856 116 
L 2856 0 
L 1059 0 
L 1059 116 
L 1209 116 
Q 1478 116 1591 278 
Q 1659 378 1659 734 
L 1659 3972 
L 1150 3972 
Q 853 3972 728 3928 
Q 566 3869 450 3700 
Q 334 3531 313 3244 
L 194 3244 
L 244 4238 
L 3703 4238 
z
" transform="scale(0.015625)"/>
       <path id="TimesNewRomanPSMT-69" d="M 928 4444 
Q 1059 4444 1151 4351 
Q 1244 4259 1244 4128 
Q 1244 3997 1151 3903 
Q 1059 3809 928 3809 
Q 797 3809 703 3903 
Q 609 3997 609 4128 
Q 609 4259 701 4351 
Q 794 4444 928 4444 
z
M 1188 2947 
L 1188 647 
Q 1188 378 1227 289 
Q 1266 200 1342 156 
Q 1419 113 1622 113 
L 1622 0 
L 231 0 
L 231 113 
Q 441 113 512 153 
Q 584 194 626 287 
Q 669 381 669 647 
L 669 1750 
Q 669 2216 641 2353 
Q 619 2453 572 2492 
Q 525 2531 444 2531 
Q 356 2531 231 2484 
L 188 2597 
L 1050 2947 
L 1188 2947 
z
" transform="scale(0.015625)"/>
       <path id="TimesNewRomanPSMT-6d" d="M 1050 2338 
Q 1363 2650 1419 2697 
Q 1559 2816 1721 2881 
Q 1884 2947 2044 2947 
Q 2313 2947 2506 2790 
Q 2700 2634 2766 2338 
Q 3088 2713 3309 2830 
Q 3531 2947 3766 2947 
Q 3994 2947 4170 2830 
Q 4347 2713 4450 2447 
Q 4519 2266 4519 1878 
L 4519 647 
Q 4519 378 4559 278 
Q 4591 209 4675 161 
Q 4759 113 4950 113 
L 4950 0 
L 3538 0 
L 3538 113 
L 3597 113 
Q 3781 113 3884 184 
Q 3956 234 3988 344 
Q 4000 397 4000 647 
L 4000 1878 
Q 4000 2228 3916 2372 
Q 3794 2572 3525 2572 
Q 3359 2572 3192 2489 
Q 3025 2406 2788 2181 
L 2781 2147 
L 2788 2013 
L 2788 647 
Q 2788 353 2820 281 
Q 2853 209 2943 161 
Q 3034 113 3253 113 
L 3253 0 
L 1806 0 
L 1806 113 
Q 2044 113 2133 169 
Q 2222 225 2256 338 
Q 2272 391 2272 647 
L 2272 1878 
Q 2272 2228 2169 2381 
Q 2031 2581 1784 2581 
Q 1616 2581 1450 2491 
Q 1191 2353 1050 2181 
L 1050 647 
Q 1050 366 1089 281 
Q 1128 197 1204 155 
Q 1281 113 1516 113 
L 1516 0 
L 100 0 
L 100 113 
Q 297 113 375 155 
Q 453 197 493 289 
Q 534 381 534 647 
L 534 1741 
Q 534 2213 506 2350 
Q 484 2453 437 2492 
Q 391 2531 309 2531 
Q 222 2531 100 2484 
L 53 2597 
L 916 2947 
L 1050 2947 
L 1050 2338 
z
" transform="scale(0.015625)"/>
       <path id="TimesNewRomanPSMT-65" d="M 681 1784 
Q 678 1147 991 784 
Q 1303 422 1725 422 
Q 2006 422 2214 576 
Q 2422 731 2563 1106 
L 2659 1044 
Q 2594 616 2278 264 
Q 1963 -88 1488 -88 
Q 972 -88 605 314 
Q 238 716 238 1394 
Q 238 2128 614 2539 
Q 991 2950 1559 2950 
Q 2041 2950 2350 2633 
Q 2659 2316 2659 1784 
L 681 1784 
z
M 681 1966 
L 2006 1966 
Q 1991 2241 1941 2353 
Q 1863 2528 1708 2628 
Q 1553 2728 1384 2728 
Q 1125 2728 920 2526 
Q 716 2325 681 1966 
z
" transform="scale(0.015625)"/>
       <path id="TimesNewRomanPSMT-20" transform="scale(0.015625)"/>
       <path id="TimesNewRomanPSMT-28" d="M 1988 -1253 
L 1988 -1369 
Q 1516 -1131 1200 -813 
Q 750 -359 506 256 
Q 263 872 263 1534 
Q 263 2503 741 3301 
Q 1219 4100 1988 4444 
L 1988 4313 
Q 1603 4100 1356 3731 
Q 1109 3363 987 2797 
Q 866 2231 866 1616 
Q 866 947 969 400 
Q 1050 -31 1165 -292 
Q 1281 -553 1476 -793 
Q 1672 -1034 1988 -1253 
z
" transform="scale(0.015625)"/>
       <path id="TimesNewRomanPSMT-73" d="M 2050 2947 
L 2050 1972 
L 1947 1972 
Q 1828 2431 1642 2597 
Q 1456 2763 1169 2763 
Q 950 2763 815 2647 
Q 681 2531 681 2391 
Q 681 2216 781 2091 
Q 878 1963 1175 1819 
L 1631 1597 
Q 2266 1288 2266 781 
Q 2266 391 1970 151 
Q 1675 -88 1309 -88 
Q 1047 -88 709 6 
Q 606 38 541 38 
Q 469 38 428 -44 
L 325 -44 
L 325 978 
L 428 978 
Q 516 541 762 319 
Q 1009 97 1316 97 
Q 1531 97 1667 223 
Q 1803 350 1803 528 
Q 1803 744 1651 891 
Q 1500 1038 1047 1263 
Q 594 1488 453 1669 
Q 313 1847 313 2119 
Q 313 2472 555 2709 
Q 797 2947 1181 2947 
Q 1350 2947 1591 2875 
Q 1750 2828 1803 2828 
Q 1853 2828 1881 2850 
Q 1909 2872 1947 2947 
L 2050 2947 
z
" transform="scale(0.015625)"/>
       <path id="TimesNewRomanPSMT-29" d="M 144 4313 
L 144 4444 
Q 619 4209 934 3891 
Q 1381 3434 1625 2820 
Q 1869 2206 1869 1541 
Q 1869 572 1392 -226 
Q 916 -1025 144 -1369 
L 144 -1253 
Q 528 -1038 776 -670 
Q 1025 -303 1145 264 
Q 1266 831 1266 1447 
Q 1266 2113 1163 2663 
Q 1084 3094 967 3353 
Q 850 3613 656 3853 
Q 463 4094 144 4313 
z
" transform="scale(0.015625)"/>
      </defs>
      <use xlink:href="#TimesNewRomanPSMT-54"/>
      <use xlink:href="#TimesNewRomanPSMT-69" transform="translate(57.583984 0)"/>
      <use xlink:href="#TimesNewRomanPSMT-6d" transform="translate(85.367188 0)"/>
      <use xlink:href="#TimesNewRomanPSMT-65" transform="translate(163.150391 0)"/>
      <use xlink:href="#TimesNewRomanPSMT-20" transform="translate(207.535156 0)"/>
      <use xlink:href="#TimesNewRomanPSMT-28" transform="translate(232.535156 0)"/>
      <use xlink:href="#TimesNewRomanPSMT-6d" transform="translate(265.835938 0)"/>
      <use xlink:href="#TimesNewRomanPSMT-73" transform="translate(343.619141 0)"/>
      <use xlink:href="#TimesNewRomanPSMT-29" transform="translate(382.535156 0)"/>
     </g>
    </g>
   </g>
   <g id="matplotlib.axis_2">
    <g id="ytick_1">
     <g id="line2d_63">
      <path d="M 49.265625 221.265976 
L 520.218765 221.265976 
" clip-path="url(#pef9038e326)" style="fill: none; stroke: #b0b0b0; stroke-linecap: square"/>
     </g>
     <g id="line2d_64">
      <defs>
       <path id="m1197084b5d" d="M 0 0 
L 6 0 
" style="stroke: #000000"/>
      </defs>
      <g>
       <use xlink:href="#m1197084b5d" x="49.265625" y="221.265976" style="stroke: #000000"/>
      </g>
     </g>
     <g id="text_8">
      <!-- 0 -->
      <g style="fill: #1f77b4" transform="translate(35.765625 228.209726) scale(0.2 -0.2)">
       <use xlink:href="#TimesNewRomanPSMT-30"/>
      </g>
     </g>
    </g>
    <g id="ytick_2">
     <g id="line2d_65">
      <path d="M 49.265625 147.861317 
L 520.218765 147.861317 
" clip-path="url(#pef9038e326)" style="fill: none; stroke: #b0b0b0; stroke-linecap: square"/>
     </g>
     <g id="line2d_66">
      <g>
       <use xlink:href="#m1197084b5d" x="49.265625" y="147.861317" style="stroke: #000000"/>
      </g>
     </g>
     <g id="text_9">
      <!-- 20 -->
      <g style="fill: #1f77b4" transform="translate(25.765625 154.805067) scale(0.2 -0.2)">
       <use xlink:href="#TimesNewRomanPSMT-32"/>
       <use xlink:href="#TimesNewRomanPSMT-30" transform="translate(50 0)"/>
      </g>
     </g>
    </g>
    <g id="ytick_3">
     <g id="line2d_67">
      <path d="M 49.265625 74.456658 
L 520.218765 74.456658 
" clip-path="url(#pef9038e326)" style="fill: none; stroke: #b0b0b0; stroke-linecap: square"/>
     </g>
     <g id="line2d_68">
      <g>
       <use xlink:href="#m1197084b5d" x="49.265625" y="74.456658" style="stroke: #000000"/>
      </g>
     </g>
     <g id="text_10">
      <!-- 40 -->
      <g style="fill: #1f77b4" transform="translate(25.765625 81.400408) scale(0.2 -0.2)">
       <use xlink:href="#TimesNewRomanPSMT-34"/>
       <use xlink:href="#TimesNewRomanPSMT-30" transform="translate(50 0)"/>
      </g>
     </g>
    </g>
    <g id="ytick_4">
     <g id="line2d_69">
      <defs>
       <path id="m926e2ed315" d="M 0 0 
L 3 0 
" style="stroke: #000000"/>
      </defs>
      <g>
       <use xlink:href="#m926e2ed315" x="49.265625" y="202.914811" style="stroke: #000000"/>
      </g>
     </g>
    </g>
    <g id="ytick_5">
     <g id="line2d_70">
      <g>
       <use xlink:href="#m926e2ed315" x="49.265625" y="184.563646" style="stroke: #000000"/>
      </g>
     </g>
    </g>
    <g id="ytick_6">
     <g id="line2d_71">
      <g>
       <use xlink:href="#m926e2ed315" x="49.265625" y="166.212481" style="stroke: #000000"/>
      </g>
     </g>
    </g>
    <g id="ytick_7">
     <g id="line2d_72">
      <g>
       <use xlink:href="#m926e2ed315" x="49.265625" y="129.510152" style="stroke: #000000"/>
      </g>
     </g>
    </g>
    <g id="ytick_8">
     <g id="line2d_73">
      <g>
       <use xlink:href="#m926e2ed315" x="49.265625" y="111.158987" style="stroke: #000000"/>
      </g>
     </g>
    </g>
    <g id="ytick_9">
     <g id="line2d_74">
      <g>
       <use xlink:href="#m926e2ed315" x="49.265625" y="92.807822" style="stroke: #000000"/>
      </g>
     </g>
    </g>
    <g id="ytick_10">
     <g id="line2d_75">
      <g>
       <use xlink:href="#m926e2ed315" x="49.265625" y="56.105493" style="stroke: #000000"/>
      </g>
     </g>
    </g>
    <g id="ytick_11">
     <g id="line2d_76">
      <g>
       <use xlink:href="#m926e2ed315" x="49.265625" y="37.754328" style="stroke: #000000"/>
      </g>
     </g>
    </g>
    <g id="text_11">
     <!-- Rabi rate (kHz) -->
     <g style="fill: #1f77b4" transform="translate(17.4875 191.50375) rotate(-90) scale(0.2 -0.2)">
      <defs>
       <path id="TimesNewRomanPSMT-52" d="M 4325 0 
L 3194 0 
L 1759 1981 
Q 1600 1975 1500 1975 
Q 1459 1975 1412 1976 
Q 1366 1978 1316 1981 
L 1316 750 
Q 1316 350 1403 253 
Q 1522 116 1759 116 
L 1925 116 
L 1925 0 
L 109 0 
L 109 116 
L 269 116 
Q 538 116 653 291 
Q 719 388 719 750 
L 719 3488 
Q 719 3888 631 3984 
Q 509 4122 269 4122 
L 109 4122 
L 109 4238 
L 1653 4238 
Q 2328 4238 2648 4139 
Q 2969 4041 3192 3777 
Q 3416 3513 3416 3147 
Q 3416 2756 3161 2468 
Q 2906 2181 2372 2063 
L 3247 847 
Q 3547 428 3762 290 
Q 3978 153 4325 116 
L 4325 0 
z
M 1316 2178 
Q 1375 2178 1419 2176 
Q 1463 2175 1491 2175 
Q 2097 2175 2405 2437 
Q 2713 2700 2713 3106 
Q 2713 3503 2464 3751 
Q 2216 4000 1806 4000 
Q 1625 4000 1316 3941 
L 1316 2178 
z
" transform="scale(0.015625)"/>
       <path id="TimesNewRomanPSMT-61" d="M 1822 413 
Q 1381 72 1269 19 
Q 1100 -59 909 -59 
Q 613 -59 420 144 
Q 228 347 228 678 
Q 228 888 322 1041 
Q 450 1253 767 1440 
Q 1084 1628 1822 1897 
L 1822 2009 
Q 1822 2438 1686 2597 
Q 1550 2756 1291 2756 
Q 1094 2756 978 2650 
Q 859 2544 859 2406 
L 866 2225 
Q 866 2081 792 2003 
Q 719 1925 600 1925 
Q 484 1925 411 2006 
Q 338 2088 338 2228 
Q 338 2497 613 2722 
Q 888 2947 1384 2947 
Q 1766 2947 2009 2819 
Q 2194 2722 2281 2516 
Q 2338 2381 2338 1966 
L 2338 994 
Q 2338 584 2353 492 
Q 2369 400 2405 369 
Q 2441 338 2488 338 
Q 2538 338 2575 359 
Q 2641 400 2828 588 
L 2828 413 
Q 2478 -56 2159 -56 
Q 2006 -56 1915 50 
Q 1825 156 1822 413 
z
M 1822 616 
L 1822 1706 
Q 1350 1519 1213 1441 
Q 966 1303 859 1153 
Q 753 1003 753 825 
Q 753 600 887 451 
Q 1022 303 1197 303 
Q 1434 303 1822 616 
z
" transform="scale(0.015625)"/>
       <path id="TimesNewRomanPSMT-62" d="M 984 2369 
Q 1400 2947 1881 2947 
Q 2322 2947 2650 2570 
Q 2978 2194 2978 1541 
Q 2978 778 2472 313 
Q 2038 -88 1503 -88 
Q 1253 -88 995 3 
Q 738 94 469 275 
L 469 3241 
Q 469 3728 445 3840 
Q 422 3953 372 3993 
Q 322 4034 247 4034 
Q 159 4034 28 3984 
L -16 4094 
L 844 4444 
L 984 4444 
L 984 2369 
z
M 984 2169 
L 984 456 
Q 1144 300 1314 220 
Q 1484 141 1663 141 
Q 1947 141 2192 453 
Q 2438 766 2438 1363 
Q 2438 1913 2192 2208 
Q 1947 2503 1634 2503 
Q 1469 2503 1303 2419 
Q 1178 2356 984 2169 
z
" transform="scale(0.015625)"/>
       <path id="TimesNewRomanPSMT-72" d="M 1038 2947 
L 1038 2303 
Q 1397 2947 1775 2947 
Q 1947 2947 2059 2842 
Q 2172 2738 2172 2600 
Q 2172 2478 2090 2393 
Q 2009 2309 1897 2309 
Q 1788 2309 1652 2417 
Q 1516 2525 1450 2525 
Q 1394 2525 1328 2463 
Q 1188 2334 1038 2041 
L 1038 669 
Q 1038 431 1097 309 
Q 1138 225 1241 169 
Q 1344 113 1538 113 
L 1538 0 
L 72 0 
L 72 113 
Q 291 113 397 181 
Q 475 231 506 341 
Q 522 394 522 644 
L 522 1753 
Q 522 2253 501 2348 
Q 481 2444 426 2487 
Q 372 2531 291 2531 
Q 194 2531 72 2484 
L 41 2597 
L 906 2947 
L 1038 2947 
z
" transform="scale(0.015625)"/>
       <path id="TimesNewRomanPSMT-74" d="M 1031 3803 
L 1031 2863 
L 1700 2863 
L 1700 2644 
L 1031 2644 
L 1031 788 
Q 1031 509 1111 412 
Q 1191 316 1316 316 
Q 1419 316 1516 380 
Q 1613 444 1666 569 
L 1788 569 
Q 1678 263 1478 108 
Q 1278 -47 1066 -47 
Q 922 -47 784 33 
Q 647 113 581 261 
Q 516 409 516 719 
L 516 2644 
L 63 2644 
L 63 2747 
Q 234 2816 414 2980 
Q 594 3144 734 3369 
Q 806 3488 934 3803 
L 1031 3803 
z
" transform="scale(0.015625)"/>
       <path id="TimesNewRomanPSMT-6b" d="M 1047 4444 
L 1047 1594 
L 1775 2259 
Q 2006 2472 2044 2528 
Q 2069 2566 2069 2603 
Q 2069 2666 2017 2711 
Q 1966 2756 1847 2763 
L 1847 2863 
L 3091 2863 
L 3091 2763 
Q 2834 2756 2664 2684 
Q 2494 2613 2291 2428 
L 1556 1750 
L 2291 822 
Q 2597 438 2703 334 
Q 2853 188 2966 144 
Q 3044 113 3238 113 
L 3238 0 
L 1847 0 
L 1847 113 
Q 1966 116 2008 148 
Q 2050 181 2050 241 
Q 2050 313 1925 472 
L 1047 1594 
L 1047 644 
Q 1047 366 1086 278 
Q 1125 191 1197 153 
Q 1269 116 1509 113 
L 1509 0 
L 53 0 
L 53 113 
Q 272 113 381 166 
Q 447 200 481 272 
Q 528 375 528 628 
L 528 3234 
Q 528 3731 506 3842 
Q 484 3953 434 3995 
Q 384 4038 303 4038 
Q 238 4038 106 3984 
L 53 4094 
L 903 4444 
L 1047 4444 
z
" transform="scale(0.015625)"/>
       <path id="TimesNewRomanPSMT-48" d="M 1316 2272 
L 3284 2272 
L 3284 3484 
Q 3284 3809 3244 3913 
Q 3213 3991 3113 4047 
Q 2978 4122 2828 4122 
L 2678 4122 
L 2678 4238 
L 4491 4238 
L 4491 4122 
L 4341 4122 
Q 4191 4122 4056 4050 
Q 3956 4000 3920 3898 
Q 3884 3797 3884 3484 
L 3884 750 
Q 3884 428 3925 325 
Q 3956 247 4053 191 
Q 4191 116 4341 116 
L 4491 116 
L 4491 0 
L 2678 0 
L 2678 116 
L 2828 116 
Q 3088 116 3206 269 
Q 3284 369 3284 750 
L 3284 2041 
L 1316 2041 
L 1316 750 
Q 1316 428 1356 325 
Q 1388 247 1488 191 
Q 1622 116 1772 116 
L 1925 116 
L 1925 0 
L 109 0 
L 109 116 
L 259 116 
Q 522 116 641 269 
Q 716 369 716 750 
L 716 3484 
Q 716 3809 675 3913 
Q 644 3991 547 4047 
Q 409 4122 259 4122 
L 109 4122 
L 109 4238 
L 1925 4238 
L 1925 4122 
L 1772 4122 
Q 1622 4122 1488 4050 
Q 1391 4000 1353 3898 
Q 1316 3797 1316 3484 
L 1316 2272 
z
" transform="scale(0.015625)"/>
       <path id="TimesNewRomanPSMT-7a" d="M 2688 878 
L 2653 0 
L 128 0 
L 128 113 
L 2028 2644 
L 1091 2644 
Q 788 2644 694 2605 
Q 600 2566 541 2456 
Q 456 2300 444 2069 
L 319 2069 
L 338 2863 
L 2738 2863 
L 2738 2747 
L 819 209 
L 1863 209 
Q 2191 209 2308 264 
Q 2425 319 2497 456 
Q 2547 556 2581 878 
L 2688 878 
z
" transform="scale(0.015625)"/>
      </defs>
      <use xlink:href="#TimesNewRomanPSMT-52"/>
      <use xlink:href="#TimesNewRomanPSMT-61" transform="translate(66.699219 0)"/>
      <use xlink:href="#TimesNewRomanPSMT-62" transform="translate(111.083984 0)"/>
      <use xlink:href="#TimesNewRomanPSMT-69" transform="translate(161.083984 0)"/>
      <use xlink:href="#TimesNewRomanPSMT-20" transform="translate(188.867188 0)"/>
      <use xlink:href="#TimesNewRomanPSMT-72" transform="translate(213.867188 0)"/>
      <use xlink:href="#TimesNewRomanPSMT-61" transform="translate(247.167969 0)"/>
      <use xlink:href="#TimesNewRomanPSMT-74" transform="translate(291.552734 0)"/>
      <use xlink:href="#TimesNewRomanPSMT-65" transform="translate(319.335938 0)"/>
      <use xlink:href="#TimesNewRomanPSMT-20" transform="translate(363.720703 0)"/>
      <use xlink:href="#TimesNewRomanPSMT-28" transform="translate(388.720703 0)"/>
      <use xlink:href="#TimesNewRomanPSMT-6b" transform="translate(422.021484 0)"/>
      <use xlink:href="#TimesNewRomanPSMT-48" transform="translate(472.021484 0)"/>
      <use xlink:href="#TimesNewRomanPSMT-7a" transform="translate(544.238281 0)"/>
      <use xlink:href="#TimesNewRomanPSMT-29" transform="translate(588.623047 0)"/>
     </g>
    </g>
   </g>
   <g id="line2d_77">
    <path d="M 70.672586 220.864545 
L 83.101052 220.465185 
L 92.529543 219.950528 
L 100.672331 219.284772 
L 107.529416 218.507102 
L 113.529365 217.617754 
L 119.100746 216.577618 
L 124.243559 215.399439 
L 128.957805 214.105662 
L 133.672051 212.578327 
L 137.957728 210.962118 
L 142.243406 209.105091 
L 146.100516 207.208387 
L 149.957626 205.080357 
L 153.814736 202.704152 
L 157.671847 200.063587 
L 161.528957 197.143505 
L 165.386067 193.930188 
L 169.243177 190.411779 
L 173.100287 186.578737 
L 176.957397 182.424292 
L 180.814507 177.944903 
L 184.671617 173.140705 
L 188.957295 167.427053 
L 193.242973 161.330047 
L 197.957218 154.204303 
L 202.671464 146.675832 
L 208.242845 137.327053 
L 214.671362 126.061575 
L 224.099853 109.013515 
L 234.38548 90.50808 
L 239.956862 80.908001 
L 244.671107 73.199105 
L 248.956785 66.623497 
L 252.813895 61.129785 
L 256.242437 56.633429 
L 259.242412 53.029887 
L 262.242386 49.760575 
L 265.242361 46.847853 
L 267.813768 44.650406 
L 270.385174 42.741102 
L 272.956581 41.129835 
L 275.09942 40.020892 
L 277.242259 39.128824 
L 279.385098 38.456893 
L 281.527937 38.007562 
L 283.670776 37.782483 
L 285.813615 37.782483 
L 287.956454 38.007562 
L 290.099293 38.456893 
L 292.242132 39.128824 
L 294.38497 40.020892 
L 296.527809 41.129835 
L 299.099216 42.741102 
L 301.670623 44.650406 
L 304.24203 46.847853 
L 306.813436 49.322145 
L 309.813411 52.541836 
L 312.813385 56.099076 
L 316.241928 60.54691 
L 319.67047 65.36562 
L 323.52758 71.178981 
L 327.813258 78.053931 
L 332.956071 86.763995 
L 339.384588 98.140709 
L 361.670113 138.061524 
L 367.241494 147.375678 
L 372.384308 155.531092 
L 377.098553 162.579282 
L 381.384231 168.600949 
L 385.669909 174.236226 
L 389.527019 178.968459 
L 393.384129 183.375513 
L 397.241239 187.458108 
L 401.098349 191.220542 
L 404.955459 194.67024 
L 408.812569 197.817297 
L 412.669679 200.674021 
L 416.52679 203.254487 
L 420.3839 205.574114 
L 424.24101 207.649266 
L 428.526688 209.688884 
L 432.812365 211.471201 
L 437.098043 213.019713 
L 441.812289 214.480453 
L 446.526535 215.71551 
L 451.669348 216.838046 
L 457.240729 217.826996 
L 463.240678 218.670694 
L 470.097763 219.406638 
L 477.811983 220.007328 
L 486.811907 220.483491 
L 497.954669 220.844406 
L 498.811805 220.864545 
L 498.811805 220.864545 
" clip-path="url(#pef9038e326)" style="fill: none; stroke: #1f77b4; stroke-width: 2; stroke-linecap: square"/>
   </g>
   <g id="patch_3">
    <path d="M 49.265625 230.02 
L 49.265625 28.6 
" style="fill: none; stroke: #000000; stroke-linejoin: miter; stroke-linecap: square"/>
   </g>
   <g id="patch_4">
    <path d="M 520.218765 230.02 
L 520.218765 28.6 
" style="fill: none; stroke: #000000; stroke-linejoin: miter; stroke-linecap: square"/>
   </g>
   <g id="patch_5">
    <path d="M 49.265625 230.02 
L 520.218765 230.02 
" style="fill: none; stroke: #000000; stroke-linejoin: miter; stroke-linecap: square"/>
   </g>
   <g id="patch_6">
    <path d="M 49.265625 28.6 
L 520.218765 28.6 
" style="fill: none; stroke: #000000; stroke-linejoin: miter; stroke-linecap: square"/>
   </g>
  </g>
  <g id="axes_2">
   <g id="patch_7">
    <path d="M 665.718765 230.02 
L 1136.671906 230.02 
L 1136.671906 28.6 
L 665.718765 28.6 
z
" style="fill: #ffffff"/>
   </g>
   <g id="matplotlib.axis_3">
    <g id="xtick_29">
     <g id="line2d_78">
      <path d="M 687.125726 230.02 
L 687.125726 28.6 
" clip-path="url(#p585733fc60)" style="fill: none; stroke: #b0b0b0; stroke-linecap: square"/>
     </g>
     <g id="line2d_79">
      <g>
       <use xlink:href="#mebe376a844" x="687.125726" y="230.02" style="stroke: #000000"/>
      </g>
     </g>
     <g id="line2d_80">
      <g>
       <use xlink:href="#m726d68a168" x="687.125726" y="28.6" style="stroke: #000000"/>
      </g>
     </g>
     <g id="text_12">
      <!-- 0 -->
      <g transform="translate(683.125726 244.63) scale(0.16 -0.16)">
       <use xlink:href="#TimesNewRomanPSMT-30"/>
      </g>
     </g>
    </g>
    <g id="xtick_30">
     <g id="line2d_81">
      <path d="M 772.75357 230.02 
L 772.75357 28.6 
" clip-path="url(#p585733fc60)" style="fill: none; stroke: #b0b0b0; stroke-linecap: square"/>
     </g>
     <g id="line2d_82">
      <g>
       <use xlink:href="#mebe376a844" x="772.75357" y="230.02" style="stroke: #000000"/>
      </g>
     </g>
     <g id="line2d_83">
      <g>
       <use xlink:href="#m726d68a168" x="772.75357" y="28.6" style="stroke: #000000"/>
      </g>
     </g>
     <g id="text_13">
      <!-- 10000 -->
      <g transform="translate(752.75357 244.63) scale(0.16 -0.16)">
       <use xlink:href="#TimesNewRomanPSMT-31"/>
       <use xlink:href="#TimesNewRomanPSMT-30" transform="translate(50 0)"/>
       <use xlink:href="#TimesNewRomanPSMT-30" transform="translate(100 0)"/>
       <use xlink:href="#TimesNewRomanPSMT-30" transform="translate(150 0)"/>
       <use xlink:href="#TimesNewRomanPSMT-30" transform="translate(200 0)"/>
      </g>
     </g>
    </g>
    <g id="xtick_31">
     <g id="line2d_84">
      <path d="M 858.381414 230.02 
L 858.381414 28.6 
" clip-path="url(#p585733fc60)" style="fill: none; stroke: #b0b0b0; stroke-linecap: square"/>
     </g>
     <g id="line2d_85">
      <g>
       <use xlink:href="#mebe376a844" x="858.381414" y="230.02" style="stroke: #000000"/>
      </g>
     </g>
     <g id="line2d_86">
      <g>
       <use xlink:href="#m726d68a168" x="858.381414" y="28.6" style="stroke: #000000"/>
      </g>
     </g>
     <g id="text_14">
      <!-- 20000 -->
      <g transform="translate(838.381414 244.63) scale(0.16 -0.16)">
       <use xlink:href="#TimesNewRomanPSMT-32"/>
       <use xlink:href="#TimesNewRomanPSMT-30" transform="translate(50 0)"/>
       <use xlink:href="#TimesNewRomanPSMT-30" transform="translate(100 0)"/>
       <use xlink:href="#TimesNewRomanPSMT-30" transform="translate(150 0)"/>
       <use xlink:href="#TimesNewRomanPSMT-30" transform="translate(200 0)"/>
      </g>
     </g>
    </g>
    <g id="xtick_32">
     <g id="line2d_87">
      <path d="M 944.009258 230.02 
L 944.009258 28.6 
" clip-path="url(#p585733fc60)" style="fill: none; stroke: #b0b0b0; stroke-linecap: square"/>
     </g>
     <g id="line2d_88">
      <g>
       <use xlink:href="#mebe376a844" x="944.009258" y="230.02" style="stroke: #000000"/>
      </g>
     </g>
     <g id="line2d_89">
      <g>
       <use xlink:href="#m726d68a168" x="944.009258" y="28.6" style="stroke: #000000"/>
      </g>
     </g>
     <g id="text_15">
      <!-- 30000 -->
      <g transform="translate(924.009258 244.63) scale(0.16 -0.16)">
       <use xlink:href="#TimesNewRomanPSMT-33"/>
       <use xlink:href="#TimesNewRomanPSMT-30" transform="translate(50 0)"/>
       <use xlink:href="#TimesNewRomanPSMT-30" transform="translate(100 0)"/>
       <use xlink:href="#TimesNewRomanPSMT-30" transform="translate(150 0)"/>
       <use xlink:href="#TimesNewRomanPSMT-30" transform="translate(200 0)"/>
      </g>
     </g>
    </g>
    <g id="xtick_33">
     <g id="line2d_90">
      <path d="M 1029.637101 230.02 
L 1029.637101 28.6 
" clip-path="url(#p585733fc60)" style="fill: none; stroke: #b0b0b0; stroke-linecap: square"/>
     </g>
     <g id="line2d_91">
      <g>
       <use xlink:href="#mebe376a844" x="1029.637101" y="230.02" style="stroke: #000000"/>
      </g>
     </g>
     <g id="line2d_92">
      <g>
       <use xlink:href="#m726d68a168" x="1029.637101" y="28.6" style="stroke: #000000"/>
      </g>
     </g>
     <g id="text_16">
      <!-- 40000 -->
      <g transform="translate(1009.637101 244.63) scale(0.16 -0.16)">
       <use xlink:href="#TimesNewRomanPSMT-34"/>
       <use xlink:href="#TimesNewRomanPSMT-30" transform="translate(50 0)"/>
       <use xlink:href="#TimesNewRomanPSMT-30" transform="translate(100 0)"/>
       <use xlink:href="#TimesNewRomanPSMT-30" transform="translate(150 0)"/>
       <use xlink:href="#TimesNewRomanPSMT-30" transform="translate(200 0)"/>
      </g>
     </g>
    </g>
    <g id="xtick_34">
     <g id="line2d_93">
      <path d="M 1115.264945 230.02 
L 1115.264945 28.6 
" clip-path="url(#p585733fc60)" style="fill: none; stroke: #b0b0b0; stroke-linecap: square"/>
     </g>
     <g id="line2d_94">
      <g>
       <use xlink:href="#mebe376a844" x="1115.264945" y="230.02" style="stroke: #000000"/>
      </g>
     </g>
     <g id="line2d_95">
      <g>
       <use xlink:href="#m726d68a168" x="1115.264945" y="28.6" style="stroke: #000000"/>
      </g>
     </g>
     <g id="text_17">
      <!-- 50000 -->
      <g transform="translate(1095.264945 244.63) scale(0.16 -0.16)">
       <use xlink:href="#TimesNewRomanPSMT-35"/>
       <use xlink:href="#TimesNewRomanPSMT-30" transform="translate(50 0)"/>
       <use xlink:href="#TimesNewRomanPSMT-30" transform="translate(100 0)"/>
       <use xlink:href="#TimesNewRomanPSMT-30" transform="translate(150 0)"/>
       <use xlink:href="#TimesNewRomanPSMT-30" transform="translate(200 0)"/>
      </g>
     </g>
    </g>
    <g id="xtick_35">
     <g id="line2d_96">
      <g>
       <use xlink:href="#md31e60e78b" x="670.000158" y="230.02" style="stroke: #000000"/>
      </g>
     </g>
     <g id="line2d_97">
      <g>
       <use xlink:href="#maa20abc709" x="670.000158" y="28.6" style="stroke: #000000"/>
      </g>
     </g>
    </g>
    <g id="xtick_36">
     <g id="line2d_98">
      <g>
       <use xlink:href="#md31e60e78b" x="704.251295" y="230.02" style="stroke: #000000"/>
      </g>
     </g>
     <g id="line2d_99">
      <g>
       <use xlink:href="#maa20abc709" x="704.251295" y="28.6" style="stroke: #000000"/>
      </g>
     </g>
    </g>
    <g id="xtick_37">
     <g id="line2d_100">
      <g>
       <use xlink:href="#md31e60e78b" x="721.376864" y="230.02" style="stroke: #000000"/>
      </g>
     </g>
     <g id="line2d_101">
      <g>
       <use xlink:href="#maa20abc709" x="721.376864" y="28.6" style="stroke: #000000"/>
      </g>
     </g>
    </g>
    <g id="xtick_38">
     <g id="line2d_102">
      <g>
       <use xlink:href="#md31e60e78b" x="738.502433" y="230.02" style="stroke: #000000"/>
      </g>
     </g>
     <g id="line2d_103">
      <g>
       <use xlink:href="#maa20abc709" x="738.502433" y="28.6" style="stroke: #000000"/>
      </g>
     </g>
    </g>
    <g id="xtick_39">
     <g id="line2d_104">
      <g>
       <use xlink:href="#md31e60e78b" x="755.628001" y="230.02" style="stroke: #000000"/>
      </g>
     </g>
     <g id="line2d_105">
      <g>
       <use xlink:href="#maa20abc709" x="755.628001" y="28.6" style="stroke: #000000"/>
      </g>
     </g>
    </g>
    <g id="xtick_40">
     <g id="line2d_106">
      <g>
       <use xlink:href="#md31e60e78b" x="789.879139" y="230.02" style="stroke: #000000"/>
      </g>
     </g>
     <g id="line2d_107">
      <g>
       <use xlink:href="#maa20abc709" x="789.879139" y="28.6" style="stroke: #000000"/>
      </g>
     </g>
    </g>
    <g id="xtick_41">
     <g id="line2d_108">
      <g>
       <use xlink:href="#md31e60e78b" x="807.004708" y="230.02" style="stroke: #000000"/>
      </g>
     </g>
     <g id="line2d_109">
      <g>
       <use xlink:href="#maa20abc709" x="807.004708" y="28.6" style="stroke: #000000"/>
      </g>
     </g>
    </g>
    <g id="xtick_42">
     <g id="line2d_110">
      <g>
       <use xlink:href="#md31e60e78b" x="824.130276" y="230.02" style="stroke: #000000"/>
      </g>
     </g>
     <g id="line2d_111">
      <g>
       <use xlink:href="#maa20abc709" x="824.130276" y="28.6" style="stroke: #000000"/>
      </g>
     </g>
    </g>
    <g id="xtick_43">
     <g id="line2d_112">
      <g>
       <use xlink:href="#md31e60e78b" x="841.255845" y="230.02" style="stroke: #000000"/>
      </g>
     </g>
     <g id="line2d_113">
      <g>
       <use xlink:href="#maa20abc709" x="841.255845" y="28.6" style="stroke: #000000"/>
      </g>
     </g>
    </g>
    <g id="xtick_44">
     <g id="line2d_114">
      <g>
       <use xlink:href="#md31e60e78b" x="875.506983" y="230.02" style="stroke: #000000"/>
      </g>
     </g>
     <g id="line2d_115">
      <g>
       <use xlink:href="#maa20abc709" x="875.506983" y="28.6" style="stroke: #000000"/>
      </g>
     </g>
    </g>
    <g id="xtick_45">
     <g id="line2d_116">
      <g>
       <use xlink:href="#md31e60e78b" x="892.632551" y="230.02" style="stroke: #000000"/>
      </g>
     </g>
     <g id="line2d_117">
      <g>
       <use xlink:href="#maa20abc709" x="892.632551" y="28.6" style="stroke: #000000"/>
      </g>
     </g>
    </g>
    <g id="xtick_46">
     <g id="line2d_118">
      <g>
       <use xlink:href="#md31e60e78b" x="909.75812" y="230.02" style="stroke: #000000"/>
      </g>
     </g>
     <g id="line2d_119">
      <g>
       <use xlink:href="#maa20abc709" x="909.75812" y="28.6" style="stroke: #000000"/>
      </g>
     </g>
    </g>
    <g id="xtick_47">
     <g id="line2d_120">
      <g>
       <use xlink:href="#md31e60e78b" x="926.883689" y="230.02" style="stroke: #000000"/>
      </g>
     </g>
     <g id="line2d_121">
      <g>
       <use xlink:href="#maa20abc709" x="926.883689" y="28.6" style="stroke: #000000"/>
      </g>
     </g>
    </g>
    <g id="xtick_48">
     <g id="line2d_122">
      <g>
       <use xlink:href="#md31e60e78b" x="961.134826" y="230.02" style="stroke: #000000"/>
      </g>
     </g>
     <g id="line2d_123">
      <g>
       <use xlink:href="#maa20abc709" x="961.134826" y="28.6" style="stroke: #000000"/>
      </g>
     </g>
    </g>
    <g id="xtick_49">
     <g id="line2d_124">
      <g>
       <use xlink:href="#md31e60e78b" x="978.260395" y="230.02" style="stroke: #000000"/>
      </g>
     </g>
     <g id="line2d_125">
      <g>
       <use xlink:href="#maa20abc709" x="978.260395" y="28.6" style="stroke: #000000"/>
      </g>
     </g>
    </g>
    <g id="xtick_50">
     <g id="line2d_126">
      <g>
       <use xlink:href="#md31e60e78b" x="995.385964" y="230.02" style="stroke: #000000"/>
      </g>
     </g>
     <g id="line2d_127">
      <g>
       <use xlink:href="#maa20abc709" x="995.385964" y="28.6" style="stroke: #000000"/>
      </g>
     </g>
    </g>
    <g id="xtick_51">
     <g id="line2d_128">
      <g>
       <use xlink:href="#md31e60e78b" x="1012.511533" y="230.02" style="stroke: #000000"/>
      </g>
     </g>
     <g id="line2d_129">
      <g>
       <use xlink:href="#maa20abc709" x="1012.511533" y="28.6" style="stroke: #000000"/>
      </g>
     </g>
    </g>
    <g id="xtick_52">
     <g id="line2d_130">
      <g>
       <use xlink:href="#md31e60e78b" x="1046.76267" y="230.02" style="stroke: #000000"/>
      </g>
     </g>
     <g id="line2d_131">
      <g>
       <use xlink:href="#maa20abc709" x="1046.76267" y="28.6" style="stroke: #000000"/>
      </g>
     </g>
    </g>
    <g id="xtick_53">
     <g id="line2d_132">
      <g>
       <use xlink:href="#md31e60e78b" x="1063.888239" y="230.02" style="stroke: #000000"/>
      </g>
     </g>
     <g id="line2d_133">
      <g>
       <use xlink:href="#maa20abc709" x="1063.888239" y="28.6" style="stroke: #000000"/>
      </g>
     </g>
    </g>
    <g id="xtick_54">
     <g id="line2d_134">
      <g>
       <use xlink:href="#md31e60e78b" x="1081.013808" y="230.02" style="stroke: #000000"/>
      </g>
     </g>
     <g id="line2d_135">
      <g>
       <use xlink:href="#maa20abc709" x="1081.013808" y="28.6" style="stroke: #000000"/>
      </g>
     </g>
    </g>
    <g id="xtick_55">
     <g id="line2d_136">
      <g>
       <use xlink:href="#md31e60e78b" x="1098.139376" y="230.02" style="stroke: #000000"/>
      </g>
     </g>
     <g id="line2d_137">
      <g>
       <use xlink:href="#maa20abc709" x="1098.139376" y="28.6" style="stroke: #000000"/>
      </g>
     </g>
    </g>
    <g id="xtick_56">
     <g id="line2d_138">
      <g>
       <use xlink:href="#md31e60e78b" x="1132.390514" y="230.02" style="stroke: #000000"/>
      </g>
     </g>
     <g id="line2d_139">
      <g>
       <use xlink:href="#maa20abc709" x="1132.390514" y="28.6" style="stroke: #000000"/>
      </g>
     </g>
    </g>
    <g id="text_18">
     <!-- Time (ms) -->
     <g transform="translate(859.612523 265.94) scale(0.2 -0.2)">
      <use xlink:href="#TimesNewRomanPSMT-54"/>
      <use xlink:href="#TimesNewRomanPSMT-69" transform="translate(57.583984 0)"/>
      <use xlink:href="#TimesNewRomanPSMT-6d" transform="translate(85.367188 0)"/>
      <use xlink:href="#TimesNewRomanPSMT-65" transform="translate(163.150391 0)"/>
      <use xlink:href="#TimesNewRomanPSMT-20" transform="translate(207.535156 0)"/>
      <use xlink:href="#TimesNewRomanPSMT-28" transform="translate(232.535156 0)"/>
      <use xlink:href="#TimesNewRomanPSMT-6d" transform="translate(265.835938 0)"/>
      <use xlink:href="#TimesNewRomanPSMT-73" transform="translate(343.619141 0)"/>
      <use xlink:href="#TimesNewRomanPSMT-29" transform="translate(382.535156 0)"/>
     </g>
    </g>
   </g>
   <g id="matplotlib.axis_4">
    <g id="ytick_12">
     <g id="line2d_140">
      <path d="M 665.718765 226.749767 
L 1136.671906 226.749767 
" clip-path="url(#p585733fc60)" style="fill: none; stroke: #b0b0b0; stroke-linecap: square"/>
     </g>
     <g id="line2d_141">
      <g>
       <use xlink:href="#m1197084b5d" x="665.718765" y="226.749767" style="stroke: #000000"/>
      </g>
     </g>
     <g id="line2d_142">
      <defs>
       <path id="md7c02e2699" d="M 0 0 
L -6 0 
" style="stroke: #000000"/>
      </defs>
      <g>
       <use xlink:href="#md7c02e2699" x="1136.671906" y="226.749767" style="stroke: #000000"/>
      </g>
     </g>
     <g id="text_19">
      <!-- 0.0000 -->
      <g transform="translate(618.218765 232.304767) scale(0.16 -0.16)">
       <defs>
        <path id="TimesNewRomanPSMT-2e" d="M 800 606 
Q 947 606 1047 504 
Q 1147 403 1147 259 
Q 1147 116 1045 14 
Q 944 -88 800 -88 
Q 656 -88 554 14 
Q 453 116 453 259 
Q 453 406 554 506 
Q 656 606 800 606 
z
" transform="scale(0.015625)"/>
       </defs>
       <use xlink:href="#TimesNewRomanPSMT-30"/>
       <use xlink:href="#TimesNewRomanPSMT-2e" transform="translate(50 0)"/>
       <use xlink:href="#TimesNewRomanPSMT-30" transform="translate(75 0)"/>
       <use xlink:href="#TimesNewRomanPSMT-30" transform="translate(125 0)"/>
       <use xlink:href="#TimesNewRomanPSMT-30" transform="translate(175 0)"/>
       <use xlink:href="#TimesNewRomanPSMT-30" transform="translate(225 0)"/>
      </g>
     </g>
    </g>
    <g id="ytick_13">
     <g id="line2d_143">
      <path d="M 665.718765 172.246819 
L 1136.671906 172.246819 
" clip-path="url(#p585733fc60)" style="fill: none; stroke: #b0b0b0; stroke-linecap: square"/>
     </g>
     <g id="line2d_144">
      <g>
       <use xlink:href="#m1197084b5d" x="665.718765" y="172.246819" style="stroke: #000000"/>
      </g>
     </g>
     <g id="line2d_145">
      <g>
       <use xlink:href="#md7c02e2699" x="1136.671906" y="172.246819" style="stroke: #000000"/>
      </g>
     </g>
     <g id="text_20">
      <!-- 0.0002 -->
      <g transform="translate(618.218765 177.801819) scale(0.16 -0.16)">
       <use xlink:href="#TimesNewRomanPSMT-30"/>
       <use xlink:href="#TimesNewRomanPSMT-2e" transform="translate(50 0)"/>
       <use xlink:href="#TimesNewRomanPSMT-30" transform="translate(75 0)"/>
       <use xlink:href="#TimesNewRomanPSMT-30" transform="translate(125 0)"/>
       <use xlink:href="#TimesNewRomanPSMT-30" transform="translate(175 0)"/>
       <use xlink:href="#TimesNewRomanPSMT-32" transform="translate(225 0)"/>
      </g>
     </g>
    </g>
    <g id="ytick_14">
     <g id="line2d_146">
      <path d="M 665.718765 117.743871 
L 1136.671906 117.743871 
" clip-path="url(#p585733fc60)" style="fill: none; stroke: #b0b0b0; stroke-linecap: square"/>
     </g>
     <g id="line2d_147">
      <g>
       <use xlink:href="#m1197084b5d" x="665.718765" y="117.743871" style="stroke: #000000"/>
      </g>
     </g>
     <g id="line2d_148">
      <g>
       <use xlink:href="#md7c02e2699" x="1136.671906" y="117.743871" style="stroke: #000000"/>
      </g>
     </g>
     <g id="text_21">
      <!-- 0.0004 -->
      <g transform="translate(618.218765 123.298871) scale(0.16 -0.16)">
       <use xlink:href="#TimesNewRomanPSMT-30"/>
       <use xlink:href="#TimesNewRomanPSMT-2e" transform="translate(50 0)"/>
       <use xlink:href="#TimesNewRomanPSMT-30" transform="translate(75 0)"/>
       <use xlink:href="#TimesNewRomanPSMT-30" transform="translate(125 0)"/>
       <use xlink:href="#TimesNewRomanPSMT-30" transform="translate(175 0)"/>
       <use xlink:href="#TimesNewRomanPSMT-34" transform="translate(225 0)"/>
      </g>
     </g>
    </g>
    <g id="ytick_15">
     <g id="line2d_149">
      <path d="M 665.718765 63.240923 
L 1136.671906 63.240923 
" clip-path="url(#p585733fc60)" style="fill: none; stroke: #b0b0b0; stroke-linecap: square"/>
     </g>
     <g id="line2d_150">
      <g>
       <use xlink:href="#m1197084b5d" x="665.718765" y="63.240923" style="stroke: #000000"/>
      </g>
     </g>
     <g id="line2d_151">
      <g>
       <use xlink:href="#md7c02e2699" x="1136.671906" y="63.240923" style="stroke: #000000"/>
      </g>
     </g>
     <g id="text_22">
      <!-- 0.0006 -->
      <g transform="translate(618.218765 68.795923) scale(0.16 -0.16)">
       <defs>
        <path id="TimesNewRomanPSMT-36" d="M 2869 4325 
L 2869 4209 
Q 2456 4169 2195 4045 
Q 1934 3922 1679 3669 
Q 1425 3416 1258 3105 
Q 1091 2794 978 2366 
Q 1428 2675 1881 2675 
Q 2316 2675 2634 2325 
Q 2953 1975 2953 1425 
Q 2953 894 2631 456 
Q 2244 -75 1606 -75 
Q 1172 -75 869 213 
Q 275 772 275 1663 
Q 275 2231 503 2743 
Q 731 3256 1154 3653 
Q 1578 4050 1965 4187 
Q 2353 4325 2688 4325 
L 2869 4325 
z
M 925 2138 
Q 869 1716 869 1456 
Q 869 1156 980 804 
Q 1091 453 1309 247 
Q 1469 100 1697 100 
Q 1969 100 2183 356 
Q 2397 613 2397 1088 
Q 2397 1622 2184 2012 
Q 1972 2403 1581 2403 
Q 1463 2403 1327 2353 
Q 1191 2303 925 2138 
z
" transform="scale(0.015625)"/>
       </defs>
       <use xlink:href="#TimesNewRomanPSMT-30"/>
       <use xlink:href="#TimesNewRomanPSMT-2e" transform="translate(50 0)"/>
       <use xlink:href="#TimesNewRomanPSMT-30" transform="translate(75 0)"/>
       <use xlink:href="#TimesNewRomanPSMT-30" transform="translate(125 0)"/>
       <use xlink:href="#TimesNewRomanPSMT-30" transform="translate(175 0)"/>
       <use xlink:href="#TimesNewRomanPSMT-36" transform="translate(225 0)"/>
      </g>
     </g>
    </g>
    <g id="ytick_16">
     <g id="line2d_152">
      <g>
       <use xlink:href="#m926e2ed315" x="665.718765" y="213.12403" style="stroke: #000000"/>
      </g>
     </g>
     <g id="line2d_153">
      <defs>
       <path id="mc02ec45ea5" d="M 0 0 
L -3 0 
" style="stroke: #000000"/>
      </defs>
      <g>
       <use xlink:href="#mc02ec45ea5" x="1136.671906" y="213.12403" style="stroke: #000000"/>
      </g>
     </g>
    </g>
    <g id="ytick_17">
     <g id="line2d_154">
      <g>
       <use xlink:href="#m926e2ed315" x="665.718765" y="199.498293" style="stroke: #000000"/>
      </g>
     </g>
     <g id="line2d_155">
      <g>
       <use xlink:href="#mc02ec45ea5" x="1136.671906" y="199.498293" style="stroke: #000000"/>
      </g>
     </g>
    </g>
    <g id="ytick_18">
     <g id="line2d_156">
      <g>
       <use xlink:href="#m926e2ed315" x="665.718765" y="185.872556" style="stroke: #000000"/>
      </g>
     </g>
     <g id="line2d_157">
      <g>
       <use xlink:href="#mc02ec45ea5" x="1136.671906" y="185.872556" style="stroke: #000000"/>
      </g>
     </g>
    </g>
    <g id="ytick_19">
     <g id="line2d_158">
      <g>
       <use xlink:href="#m926e2ed315" x="665.718765" y="158.621082" style="stroke: #000000"/>
      </g>
     </g>
     <g id="line2d_159">
      <g>
       <use xlink:href="#mc02ec45ea5" x="1136.671906" y="158.621082" style="stroke: #000000"/>
      </g>
     </g>
    </g>
    <g id="ytick_20">
     <g id="line2d_160">
      <g>
       <use xlink:href="#m926e2ed315" x="665.718765" y="144.995345" style="stroke: #000000"/>
      </g>
     </g>
     <g id="line2d_161">
      <g>
       <use xlink:href="#mc02ec45ea5" x="1136.671906" y="144.995345" style="stroke: #000000"/>
      </g>
     </g>
    </g>
    <g id="ytick_21">
     <g id="line2d_162">
      <g>
       <use xlink:href="#m926e2ed315" x="665.718765" y="131.369608" style="stroke: #000000"/>
      </g>
     </g>
     <g id="line2d_163">
      <g>
       <use xlink:href="#mc02ec45ea5" x="1136.671906" y="131.369608" style="stroke: #000000"/>
      </g>
     </g>
    </g>
    <g id="ytick_22">
     <g id="line2d_164">
      <g>
       <use xlink:href="#m926e2ed315" x="665.718765" y="104.118134" style="stroke: #000000"/>
      </g>
     </g>
     <g id="line2d_165">
      <g>
       <use xlink:href="#mc02ec45ea5" x="1136.671906" y="104.118134" style="stroke: #000000"/>
      </g>
     </g>
    </g>
    <g id="ytick_23">
     <g id="line2d_166">
      <g>
       <use xlink:href="#m926e2ed315" x="665.718765" y="90.492397" style="stroke: #000000"/>
      </g>
     </g>
     <g id="line2d_167">
      <g>
       <use xlink:href="#mc02ec45ea5" x="1136.671906" y="90.492397" style="stroke: #000000"/>
      </g>
     </g>
    </g>
    <g id="ytick_24">
     <g id="line2d_168">
      <g>
       <use xlink:href="#m926e2ed315" x="665.718765" y="76.86666" style="stroke: #000000"/>
      </g>
     </g>
     <g id="line2d_169">
      <g>
       <use xlink:href="#mc02ec45ea5" x="1136.671906" y="76.86666" style="stroke: #000000"/>
      </g>
     </g>
    </g>
    <g id="ytick_25">
     <g id="line2d_170">
      <g>
       <use xlink:href="#m926e2ed315" x="665.718765" y="49.615186" style="stroke: #000000"/>
      </g>
     </g>
     <g id="line2d_171">
      <g>
       <use xlink:href="#mc02ec45ea5" x="1136.671906" y="49.615186" style="stroke: #000000"/>
      </g>
     </g>
    </g>
    <g id="ytick_26">
     <g id="line2d_172">
      <g>
       <use xlink:href="#m926e2ed315" x="665.718765" y="35.989449" style="stroke: #000000"/>
      </g>
     </g>
     <g id="line2d_173">
      <g>
       <use xlink:href="#mc02ec45ea5" x="1136.671906" y="35.989449" style="stroke: #000000"/>
      </g>
     </g>
    </g>
    <g id="text_23">
     <!-- Adiabaticity Value -->
     <g transform="translate(609.90314 203.830312) rotate(-90) scale(0.2 -0.2)">
      <defs>
       <path id="TimesNewRomanPSMT-41" d="M 2928 1419 
L 1288 1419 
L 1000 750 
Q 894 503 894 381 
Q 894 284 986 211 
Q 1078 138 1384 116 
L 1384 0 
L 50 0 
L 50 116 
Q 316 163 394 238 
Q 553 388 747 847 
L 2238 4334 
L 2347 4334 
L 3822 809 
Q 4000 384 4145 257 
Q 4291 131 4550 116 
L 4550 0 
L 2878 0 
L 2878 116 
Q 3131 128 3220 200 
Q 3309 272 3309 375 
Q 3309 513 3184 809 
L 2928 1419 
z
M 2841 1650 
L 2122 3363 
L 1384 1650 
L 2841 1650 
z
" transform="scale(0.015625)"/>
       <path id="TimesNewRomanPSMT-64" d="M 2222 322 
Q 2013 103 1813 7 
Q 1613 -88 1381 -88 
Q 913 -88 563 304 
Q 213 697 213 1313 
Q 213 1928 600 2439 
Q 988 2950 1597 2950 
Q 1975 2950 2222 2709 
L 2222 3238 
Q 2222 3728 2198 3840 
Q 2175 3953 2125 3993 
Q 2075 4034 2000 4034 
Q 1919 4034 1784 3984 
L 1744 4094 
L 2597 4444 
L 2738 4444 
L 2738 1134 
Q 2738 631 2761 520 
Q 2784 409 2836 365 
Q 2888 322 2956 322 
Q 3041 322 3181 375 
L 3216 266 
L 2366 -88 
L 2222 -88 
L 2222 322 
z
M 2222 541 
L 2222 2016 
Q 2203 2228 2109 2403 
Q 2016 2578 1861 2667 
Q 1706 2756 1559 2756 
Q 1284 2756 1069 2509 
Q 784 2184 784 1559 
Q 784 928 1059 592 
Q 1334 256 1672 256 
Q 1956 256 2222 541 
z
" transform="scale(0.015625)"/>
       <path id="TimesNewRomanPSMT-63" d="M 2631 1088 
Q 2516 522 2178 217 
Q 1841 -88 1431 -88 
Q 944 -88 581 321 
Q 219 731 219 1428 
Q 219 2103 620 2525 
Q 1022 2947 1584 2947 
Q 2006 2947 2278 2723 
Q 2550 2500 2550 2259 
Q 2550 2141 2473 2067 
Q 2397 1994 2259 1994 
Q 2075 1994 1981 2113 
Q 1928 2178 1911 2362 
Q 1894 2547 1784 2644 
Q 1675 2738 1481 2738 
Q 1169 2738 978 2506 
Q 725 2200 725 1697 
Q 725 1184 976 792 
Q 1228 400 1656 400 
Q 1963 400 2206 609 
Q 2378 753 2541 1131 
L 2631 1088 
z
" transform="scale(0.015625)"/>
       <path id="TimesNewRomanPSMT-79" d="M 38 2863 
L 1372 2863 
L 1372 2747 
L 1306 2747 
Q 1166 2747 1095 2686 
Q 1025 2625 1025 2534 
Q 1025 2413 1128 2197 
L 1825 753 
L 2466 2334 
Q 2519 2463 2519 2588 
Q 2519 2644 2497 2672 
Q 2472 2706 2419 2726 
Q 2366 2747 2231 2747 
L 2231 2863 
L 3163 2863 
L 3163 2747 
Q 3047 2734 2984 2696 
Q 2922 2659 2847 2556 
Q 2819 2513 2741 2316 
L 1575 -541 
Q 1406 -956 1132 -1168 
Q 859 -1381 606 -1381 
Q 422 -1381 303 -1275 
Q 184 -1169 184 -1031 
Q 184 -900 270 -820 
Q 356 -741 506 -741 
Q 609 -741 788 -809 
Q 913 -856 944 -856 
Q 1038 -856 1148 -759 
Q 1259 -663 1372 -384 
L 1575 113 
L 547 2272 
Q 500 2369 397 2513 
Q 319 2622 269 2659 
Q 197 2709 38 2747 
L 38 2863 
z
" transform="scale(0.015625)"/>
       <path id="TimesNewRomanPSMT-56" d="M 4544 4238 
L 4544 4122 
Q 4319 4081 4203 3978 
Q 4038 3825 3909 3509 
L 2431 -97 
L 2316 -97 
L 728 3556 
Q 606 3838 556 3900 
Q 478 3997 364 4051 
Q 250 4106 56 4122 
L 56 4238 
L 1788 4238 
L 1788 4122 
Q 1494 4094 1406 4022 
Q 1319 3950 1319 3838 
Q 1319 3681 1463 3350 
L 2541 866 
L 3541 3319 
Q 3688 3681 3688 3822 
Q 3688 3913 3597 3995 
Q 3506 4078 3291 4113 
Q 3275 4116 3238 4122 
L 3238 4238 
L 4544 4238 
z
" transform="scale(0.015625)"/>
       <path id="TimesNewRomanPSMT-6c" d="M 1184 4444 
L 1184 647 
Q 1184 378 1223 290 
Q 1263 203 1344 158 
Q 1425 113 1647 113 
L 1647 0 
L 244 0 
L 244 113 
Q 441 113 512 153 
Q 584 194 625 287 
Q 666 381 666 647 
L 666 3247 
Q 666 3731 644 3842 
Q 622 3953 573 3993 
Q 525 4034 450 4034 
Q 369 4034 244 3984 
L 191 4094 
L 1044 4444 
L 1184 4444 
z
" transform="scale(0.015625)"/>
       <path id="TimesNewRomanPSMT-75" d="M 2709 2863 
L 2709 1128 
Q 2709 631 2732 520 
Q 2756 409 2807 365 
Q 2859 322 2928 322 
Q 3025 322 3147 375 
L 3191 266 
L 2334 -88 
L 2194 -88 
L 2194 519 
Q 1825 119 1631 15 
Q 1438 -88 1222 -88 
Q 981 -88 804 51 
Q 628 191 559 409 
Q 491 628 491 1028 
L 491 2306 
Q 491 2509 447 2587 
Q 403 2666 317 2708 
Q 231 2750 6 2747 
L 6 2863 
L 1009 2863 
L 1009 947 
Q 1009 547 1148 422 
Q 1288 297 1484 297 
Q 1619 297 1789 381 
Q 1959 466 2194 703 
L 2194 2325 
Q 2194 2569 2105 2655 
Q 2016 2741 1734 2747 
L 1734 2863 
L 2709 2863 
z
" transform="scale(0.015625)"/>
      </defs>
      <use xlink:href="#TimesNewRomanPSMT-41"/>
      <use xlink:href="#TimesNewRomanPSMT-64" transform="translate(72.216797 0)"/>
      <use xlink:href="#TimesNewRomanPSMT-69" transform="translate(122.216797 0)"/>
      <use xlink:href="#TimesNewRomanPSMT-61" transform="translate(150 0)"/>
      <use xlink:href="#TimesNewRomanPSMT-62" transform="translate(194.384766 0)"/>
      <use xlink:href="#TimesNewRomanPSMT-61" transform="translate(244.384766 0)"/>
      <use xlink:href="#TimesNewRomanPSMT-74" transform="translate(288.769531 0)"/>
      <use xlink:href="#TimesNewRomanPSMT-69" transform="translate(316.552734 0)"/>
      <use xlink:href="#TimesNewRomanPSMT-63" transform="translate(344.335938 0)"/>
      <use xlink:href="#TimesNewRomanPSMT-69" transform="translate(388.720703 0)"/>
      <use xlink:href="#TimesNewRomanPSMT-74" transform="translate(416.503906 0)"/>
      <use xlink:href="#TimesNewRomanPSMT-79" transform="translate(444.287109 0)"/>
      <use xlink:href="#TimesNewRomanPSMT-20" transform="translate(494.287109 0)"/>
      <use xlink:href="#TimesNewRomanPSMT-56" transform="translate(517.537109 0)"/>
      <use xlink:href="#TimesNewRomanPSMT-61" transform="translate(578.628906 0)"/>
      <use xlink:href="#TimesNewRomanPSMT-6c" transform="translate(623.013672 0)"/>
      <use xlink:href="#TimesNewRomanPSMT-75" transform="translate(650.796875 0)"/>
      <use xlink:href="#TimesNewRomanPSMT-65" transform="translate(700.796875 0)"/>
     </g>
    </g>
   </g>
   <g id="line2d_174">
    <path d="M 687.125726 220.864545 
L 718.839743 220.027699 
L 735.982454 219.369998 
L 747.553784 218.708748 
L 756.553708 217.977494 
L 764.267928 217.136619 
L 771.55358 216.119162 
L 778.410665 214.941696 
L 785.696317 213.455031 
L 793.410537 211.645151 
L 803.696164 208.981116 
L 816.981766 205.563896 
L 823.410283 204.149984 
L 828.553096 203.230509 
L 833.267342 202.60134 
L 837.553019 202.237144 
L 841.838697 202.092545 
L 846.124375 202.182131 
L 850.410053 202.513301 
L 854.695731 203.085732 
L 858.981409 203.891167 
L 863.267087 204.913382 
L 867.981332 206.258936 
L 873.552714 208.087227 
L 891.123993 214.081215 
L 894.123967 214.775199 
L 896.695374 215.178274 
L 899.266781 215.362625 
L 901.838187 215.29845 
L 904.409594 214.971994 
L 906.981001 214.387836 
L 909.552408 213.565736 
L 912.552382 212.344081 
L 915.552357 210.886166 
L 918.980899 208.987802 
L 923.266577 206.345867 
L 928.40939 202.886592 
L 934.837907 198.265657 
L 945.123534 190.543436 
L 954.980593 183.221882 
L 960.980542 179.0278 
L 966.123355 175.703235 
L 970.409033 173.178807 
L 974.694711 170.91745 
L 978.551821 169.131631 
L 982.408931 167.597573 
L 986.266041 166.32236 
L 990.123151 165.304447 
L 993.980262 164.533087 
L 997.837372 163.988213 
L 1002.123049 163.612807 
L 1007.265863 163.410324 
L 1014.980083 163.381705 
L 1022.694303 163.303352 
L 1027.408549 163.041565 
L 1031.265659 162.624357 
L 1035.122769 161.97354 
L 1038.551311 161.165119 
L 1041.979854 160.113839 
L 1044.979828 158.977685 
L 1047.979803 157.626652 
L 1050.979777 156.050041 
L 1053.979752 154.238393 
L 1056.979726 152.18301 
L 1059.979701 149.875428 
L 1062.979675 147.306879 
L 1065.97965 144.467747 
L 1068.979624 141.347046 
L 1071.979599 137.931917 
L 1074.979573 134.207137 
L 1077.979548 130.154637 
L 1080.979522 125.753024 
L 1083.979497 120.977068 
L 1086.979471 115.797156 
L 1089.979446 110.178679 
L 1092.97942 104.081322 
L 1095.979395 97.458236 
L 1098.979369 90.255052 
L 1101.979344 82.408692 
L 1104.979318 73.845925 
L 1107.550725 65.872034 
L 1110.122132 57.247731 
L 1112.693538 47.902473 
L 1115.264945 37.755455 
L 1115.264945 37.755455 
" clip-path="url(#p585733fc60)" style="fill: none; stroke: #0000ff; stroke-width: 2; stroke-linecap: square"/>
   </g>
   <g id="patch_8">
    <path d="M 665.718765 230.02 
L 665.718765 28.6 
" style="fill: none; stroke: #000000; stroke-linejoin: miter; stroke-linecap: square"/>
   </g>
   <g id="patch_9">
    <path d="M 1136.671906 230.02 
L 1136.671906 28.6 
" style="fill: none; stroke: #000000; stroke-linejoin: miter; stroke-linecap: square"/>
   </g>
   <g id="patch_10">
    <path d="M 665.718765 230.02 
L 1136.671906 230.02 
" style="fill: none; stroke: #000000; stroke-linejoin: miter; stroke-linecap: square"/>
   </g>
   <g id="patch_11">
    <path d="M 665.718765 28.6 
L 1136.671906 28.6 
" style="fill: none; stroke: #000000; stroke-linejoin: miter; stroke-linecap: square"/>
   </g>
   <g id="text_24">
    <!-- Adiabaticity Conditions -->
    <g transform="translate(824.534086 22.6) scale(0.16 -0.16)">
     <defs>
      <path id="TimesNewRomanPSMT-43" d="M 3853 4334 
L 3950 2894 
L 3853 2894 
Q 3659 3541 3300 3825 
Q 2941 4109 2438 4109 
Q 2016 4109 1675 3895 
Q 1334 3681 1139 3212 
Q 944 2744 944 2047 
Q 944 1472 1128 1050 
Q 1313 628 1683 403 
Q 2053 178 2528 178 
Q 2941 178 3256 354 
Q 3572 531 3950 1056 
L 4047 994 
Q 3728 428 3303 165 
Q 2878 -97 2294 -97 
Q 1241 -97 663 684 
Q 231 1266 231 2053 
Q 231 2688 515 3219 
Q 800 3750 1298 4042 
Q 1797 4334 2388 4334 
Q 2847 4334 3294 4109 
Q 3425 4041 3481 4041 
Q 3566 4041 3628 4100 
Q 3709 4184 3744 4334 
L 3853 4334 
z
" transform="scale(0.015625)"/>
      <path id="TimesNewRomanPSMT-6f" d="M 1600 2947 
Q 2250 2947 2644 2453 
Q 2978 2031 2978 1484 
Q 2978 1100 2793 706 
Q 2609 313 2286 112 
Q 1963 -88 1566 -88 
Q 919 -88 538 428 
Q 216 863 216 1403 
Q 216 1797 411 2186 
Q 606 2575 925 2761 
Q 1244 2947 1600 2947 
z
M 1503 2744 
Q 1338 2744 1170 2645 
Q 1003 2547 900 2300 
Q 797 2053 797 1666 
Q 797 1041 1045 587 
Q 1294 134 1700 134 
Q 2003 134 2200 384 
Q 2397 634 2397 1244 
Q 2397 2006 2069 2444 
Q 1847 2744 1503 2744 
z
" transform="scale(0.015625)"/>
      <path id="TimesNewRomanPSMT-6e" d="M 1034 2341 
Q 1538 2947 1994 2947 
Q 2228 2947 2397 2830 
Q 2566 2713 2666 2444 
Q 2734 2256 2734 1869 
L 2734 647 
Q 2734 375 2778 278 
Q 2813 200 2889 156 
Q 2966 113 3172 113 
L 3172 0 
L 1756 0 
L 1756 113 
L 1816 113 
Q 2016 113 2095 173 
Q 2175 234 2206 353 
Q 2219 400 2219 647 
L 2219 1819 
Q 2219 2209 2117 2386 
Q 2016 2563 1775 2563 
Q 1403 2563 1034 2156 
L 1034 647 
Q 1034 356 1069 288 
Q 1113 197 1189 155 
Q 1266 113 1500 113 
L 1500 0 
L 84 0 
L 84 113 
L 147 113 
Q 366 113 442 223 
Q 519 334 519 647 
L 519 1709 
Q 519 2225 495 2337 
Q 472 2450 423 2490 
Q 375 2531 294 2531 
Q 206 2531 84 2484 
L 38 2597 
L 900 2947 
L 1034 2947 
L 1034 2341 
z
" transform="scale(0.015625)"/>
     </defs>
     <use xlink:href="#TimesNewRomanPSMT-41"/>
     <use xlink:href="#TimesNewRomanPSMT-64" transform="translate(72.216797 0)"/>
     <use xlink:href="#TimesNewRomanPSMT-69" transform="translate(122.216797 0)"/>
     <use xlink:href="#TimesNewRomanPSMT-61" transform="translate(150 0)"/>
     <use xlink:href="#TimesNewRomanPSMT-62" transform="translate(194.384766 0)"/>
     <use xlink:href="#TimesNewRomanPSMT-61" transform="translate(244.384766 0)"/>
     <use xlink:href="#TimesNewRomanPSMT-74" transform="translate(288.769531 0)"/>
     <use xlink:href="#TimesNewRomanPSMT-69" transform="translate(316.552734 0)"/>
     <use xlink:href="#TimesNewRomanPSMT-63" transform="translate(344.335938 0)"/>
     <use xlink:href="#TimesNewRomanPSMT-69" transform="translate(388.720703 0)"/>
     <use xlink:href="#TimesNewRomanPSMT-74" transform="translate(416.503906 0)"/>
     <use xlink:href="#TimesNewRomanPSMT-79" transform="translate(444.287109 0)"/>
     <use xlink:href="#TimesNewRomanPSMT-20" transform="translate(494.287109 0)"/>
     <use xlink:href="#TimesNewRomanPSMT-43" transform="translate(519.287109 0)"/>
     <use xlink:href="#TimesNewRomanPSMT-6f" transform="translate(585.986328 0)"/>
     <use xlink:href="#TimesNewRomanPSMT-6e" transform="translate(635.986328 0)"/>
     <use xlink:href="#TimesNewRomanPSMT-64" transform="translate(685.986328 0)"/>
     <use xlink:href="#TimesNewRomanPSMT-69" transform="translate(735.986328 0)"/>
     <use xlink:href="#TimesNewRomanPSMT-74" transform="translate(763.769531 0)"/>
     <use xlink:href="#TimesNewRomanPSMT-69" transform="translate(791.552734 0)"/>
     <use xlink:href="#TimesNewRomanPSMT-6f" transform="translate(819.335938 0)"/>
     <use xlink:href="#TimesNewRomanPSMT-6e" transform="translate(869.335938 0)"/>
     <use xlink:href="#TimesNewRomanPSMT-73" transform="translate(919.335938 0)"/>
    </g>
   </g>
   <g id="legend_1">
    <g id="line2d_175">
     <path d="M 680.118765 48.6 
L 696.118765 48.6 
L 712.118765 48.6 
" style="fill: none; stroke: #0000ff; stroke-width: 2; stroke-linecap: square"/>
    </g>
    <g id="text_25">
     <!-- Local Adiabaticity -->
     <g transform="translate(724.918765 54.2) scale(0.16 -0.16)">
      <defs>
       <path id="TimesNewRomanPSMT-4c" d="M 3669 1172 
L 3772 1150 
L 3409 0 
L 128 0 
L 128 116 
L 288 116 
Q 556 116 672 291 
Q 738 391 738 753 
L 738 3488 
Q 738 3884 650 3984 
Q 528 4122 288 4122 
L 128 4122 
L 128 4238 
L 2047 4238 
L 2047 4122 
Q 1709 4125 1573 4059 
Q 1438 3994 1388 3894 
Q 1338 3794 1338 3416 
L 1338 753 
Q 1338 494 1388 397 
Q 1425 331 1503 300 
Q 1581 269 1991 269 
L 2300 269 
Q 2788 269 2984 341 
Q 3181 413 3343 595 
Q 3506 778 3669 1172 
z
" transform="scale(0.015625)"/>
      </defs>
      <use xlink:href="#TimesNewRomanPSMT-4c"/>
      <use xlink:href="#TimesNewRomanPSMT-6f" transform="translate(61.083984 0)"/>
      <use xlink:href="#TimesNewRomanPSMT-63" transform="translate(111.083984 0)"/>
      <use xlink:href="#TimesNewRomanPSMT-61" transform="translate(155.46875 0)"/>
      <use xlink:href="#TimesNewRomanPSMT-6c" transform="translate(199.853516 0)"/>
      <use xlink:href="#TimesNewRomanPSMT-20" transform="translate(227.636719 0)"/>
      <use xlink:href="#TimesNewRomanPSMT-41" transform="translate(247.136719 0)"/>
      <use xlink:href="#TimesNewRomanPSMT-64" transform="translate(319.353516 0)"/>
      <use xlink:href="#TimesNewRomanPSMT-69" transform="translate(369.353516 0)"/>
      <use xlink:href="#TimesNewRomanPSMT-61" transform="translate(397.136719 0)"/>
      <use xlink:href="#TimesNewRomanPSMT-62" transform="translate(441.521484 0)"/>
      <use xlink:href="#TimesNewRomanPSMT-61" transform="translate(491.521484 0)"/>
      <use xlink:href="#TimesNewRomanPSMT-74" transform="translate(535.90625 0)"/>
      <use xlink:href="#TimesNewRomanPSMT-69" transform="translate(563.689453 0)"/>
      <use xlink:href="#TimesNewRomanPSMT-63" transform="translate(591.472656 0)"/>
      <use xlink:href="#TimesNewRomanPSMT-69" transform="translate(635.857422 0)"/>
      <use xlink:href="#TimesNewRomanPSMT-74" transform="translate(663.640625 0)"/>
      <use xlink:href="#TimesNewRomanPSMT-79" transform="translate(691.423828 0)"/>
     </g>
    </g>
   </g>
  </g>
  <g id="axes_3">
   <g id="matplotlib.axis_5">
    <g id="ytick_27">
     <g id="line2d_176">
      <g>
       <use xlink:href="#md7c02e2699" x="520.218765" y="188.552723" style="stroke: #000000"/>
      </g>
     </g>
     <g id="text_26">
      <!-- −100 -->
      <g style="fill: #d62728" transform="translate(523.718765 195.496473) scale(0.2 -0.2)">
       <defs>
        <path id="TimesNewRomanPSMT-2212" d="M 3484 2000 
L 116 2000 
L 116 2256 
L 3484 2256 
L 3484 2000 
z
" transform="scale(0.015625)"/>
       </defs>
       <use xlink:href="#TimesNewRomanPSMT-2212"/>
       <use xlink:href="#TimesNewRomanPSMT-31" transform="translate(56.396484 0)"/>
       <use xlink:href="#TimesNewRomanPSMT-30" transform="translate(106.396484 0)"/>
       <use xlink:href="#TimesNewRomanPSMT-30" transform="translate(156.396484 0)"/>
      </g>
     </g>
    </g>
    <g id="ytick_28">
     <g id="line2d_177">
      <g>
       <use xlink:href="#md7c02e2699" x="520.218765" y="113.154089" style="stroke: #000000"/>
      </g>
     </g>
     <g id="text_27">
      <!-- −50 -->
      <g style="fill: #d62728" transform="translate(523.718765 120.097839) scale(0.2 -0.2)">
       <use xlink:href="#TimesNewRomanPSMT-2212"/>
       <use xlink:href="#TimesNewRomanPSMT-35" transform="translate(56.396484 0)"/>
       <use xlink:href="#TimesNewRomanPSMT-30" transform="translate(106.396484 0)"/>
      </g>
     </g>
    </g>
    <g id="ytick_29">
     <g id="line2d_178">
      <g>
       <use xlink:href="#md7c02e2699" x="520.218765" y="37.755455" style="stroke: #000000"/>
      </g>
     </g>
     <g id="text_28">
      <!-- 0 -->
      <g style="fill: #d62728" transform="translate(523.718765 44.699205) scale(0.2 -0.2)">
       <use xlink:href="#TimesNewRomanPSMT-30"/>
      </g>
     </g>
    </g>
    <g id="ytick_30">
     <g id="line2d_179">
      <g>
       <use xlink:href="#mc02ec45ea5" x="520.218765" y="218.712177" style="stroke: #000000"/>
      </g>
     </g>
    </g>
    <g id="ytick_31">
     <g id="line2d_180">
      <g>
       <use xlink:href="#mc02ec45ea5" x="520.218765" y="203.63245" style="stroke: #000000"/>
      </g>
     </g>
    </g>
    <g id="ytick_32">
     <g id="line2d_181">
      <g>
       <use xlink:href="#mc02ec45ea5" x="520.218765" y="173.472997" style="stroke: #000000"/>
      </g>
     </g>
    </g>
    <g id="ytick_33">
     <g id="line2d_182">
      <g>
       <use xlink:href="#mc02ec45ea5" x="520.218765" y="158.39327" style="stroke: #000000"/>
      </g>
     </g>
    </g>
    <g id="ytick_34">
     <g id="line2d_183">
      <g>
       <use xlink:href="#mc02ec45ea5" x="520.218765" y="143.313543" style="stroke: #000000"/>
      </g>
     </g>
    </g>
    <g id="ytick_35">
     <g id="line2d_184">
      <g>
       <use xlink:href="#mc02ec45ea5" x="520.218765" y="128.233816" style="stroke: #000000"/>
      </g>
     </g>
    </g>
    <g id="ytick_36">
     <g id="line2d_185">
      <g>
       <use xlink:href="#mc02ec45ea5" x="520.218765" y="98.074362" style="stroke: #000000"/>
      </g>
     </g>
    </g>
    <g id="ytick_37">
     <g id="line2d_186">
      <g>
       <use xlink:href="#mc02ec45ea5" x="520.218765" y="82.994635" style="stroke: #000000"/>
      </g>
     </g>
    </g>
    <g id="ytick_38">
     <g id="line2d_187">
      <g>
       <use xlink:href="#mc02ec45ea5" x="520.218765" y="67.914908" style="stroke: #000000"/>
      </g>
     </g>
    </g>
    <g id="ytick_39">
     <g id="line2d_188">
      <g>
       <use xlink:href="#mc02ec45ea5" x="520.218765" y="52.835181" style="stroke: #000000"/>
      </g>
     </g>
    </g>
    <g id="text_29">
     <!-- Detuning (kHz) -->
     <g style="fill: #d62728" transform="translate(582.88439 192.3475) rotate(-90) scale(0.2 -0.2)">
      <defs>
       <path id="TimesNewRomanPSMT-44" d="M 109 0 
L 109 116 
L 269 116 
Q 538 116 650 288 
Q 719 391 719 750 
L 719 3488 
Q 719 3884 631 3984 
Q 509 4122 269 4122 
L 109 4122 
L 109 4238 
L 1834 4238 
Q 2784 4238 3279 4022 
Q 3775 3806 4076 3303 
Q 4378 2800 4378 2141 
Q 4378 1256 3841 663 
Q 3238 0 2003 0 
L 109 0 
z
M 1319 306 
Q 1716 219 1984 219 
Q 2709 219 3187 728 
Q 3666 1238 3666 2109 
Q 3666 2988 3187 3494 
Q 2709 4000 1959 4000 
Q 1678 4000 1319 3909 
L 1319 306 
z
" transform="scale(0.015625)"/>
       <path id="TimesNewRomanPSMT-67" d="M 966 1044 
Q 703 1172 562 1401 
Q 422 1631 422 1909 
Q 422 2334 742 2640 
Q 1063 2947 1563 2947 
Q 1972 2947 2272 2747 
L 2878 2747 
Q 3013 2747 3034 2739 
Q 3056 2731 3066 2713 
Q 3084 2684 3084 2613 
Q 3084 2531 3069 2500 
Q 3059 2484 3036 2475 
Q 3013 2466 2878 2466 
L 2506 2466 
Q 2681 2241 2681 1891 
Q 2681 1491 2375 1206 
Q 2069 922 1553 922 
Q 1341 922 1119 984 
Q 981 866 932 777 
Q 884 688 884 625 
Q 884 572 936 522 
Q 988 472 1138 450 
Q 1225 438 1575 428 
Q 2219 413 2409 384 
Q 2700 344 2873 169 
Q 3047 -6 3047 -263 
Q 3047 -616 2716 -925 
Q 2228 -1381 1444 -1381 
Q 841 -1381 425 -1109 
Q 191 -953 191 -784 
Q 191 -709 225 -634 
Q 278 -519 444 -313 
Q 466 -284 763 25 
Q 600 122 533 198 
Q 466 275 466 372 
Q 466 481 555 628 
Q 644 775 966 1044 
z
M 1509 2797 
Q 1278 2797 1122 2612 
Q 966 2428 966 2047 
Q 966 1553 1178 1281 
Q 1341 1075 1591 1075 
Q 1828 1075 1981 1253 
Q 2134 1431 2134 1813 
Q 2134 2309 1919 2591 
Q 1759 2797 1509 2797 
z
M 934 0 
Q 788 -159 713 -296 
Q 638 -434 638 -550 
Q 638 -700 819 -813 
Q 1131 -1006 1722 -1006 
Q 2284 -1006 2551 -807 
Q 2819 -609 2819 -384 
Q 2819 -222 2659 -153 
Q 2497 -84 2016 -72 
Q 1313 -53 934 0 
z
" transform="scale(0.015625)"/>
      </defs>
      <use xlink:href="#TimesNewRomanPSMT-44"/>
      <use xlink:href="#TimesNewRomanPSMT-65" transform="translate(72.216797 0)"/>
      <use xlink:href="#TimesNewRomanPSMT-74" transform="translate(116.601562 0)"/>
      <use xlink:href="#TimesNewRomanPSMT-75" transform="translate(144.384766 0)"/>
      <use xlink:href="#TimesNewRomanPSMT-6e" transform="translate(194.384766 0)"/>
      <use xlink:href="#TimesNewRomanPSMT-69" transform="translate(244.384766 0)"/>
      <use xlink:href="#TimesNewRomanPSMT-6e" transform="translate(272.167969 0)"/>
      <use xlink:href="#TimesNewRomanPSMT-67" transform="translate(322.167969 0)"/>
      <use xlink:href="#TimesNewRomanPSMT-20" transform="translate(372.167969 0)"/>
      <use xlink:href="#TimesNewRomanPSMT-28" transform="translate(397.167969 0)"/>
      <use xlink:href="#TimesNewRomanPSMT-6b" transform="translate(430.46875 0)"/>
      <use xlink:href="#TimesNewRomanPSMT-48" transform="translate(480.46875 0)"/>
      <use xlink:href="#TimesNewRomanPSMT-7a" transform="translate(552.685547 0)"/>
      <use xlink:href="#TimesNewRomanPSMT-29" transform="translate(597.070312 0)"/>
     </g>
    </g>
   </g>
   <g id="line2d_189">
    <path d="M 70.672586 220.864545 
L 498.811805 70.067277 
L 498.811805 70.067277 
" clip-path="url(#pef9038e326)" style="fill: none; stroke: #d62728; stroke-width: 2; stroke-linecap: square"/>
   </g>
   <g id="line2d_190">
    <path d="M 49.265625 37.755455 
L 520.218765 37.755455 
" clip-path="url(#pef9038e326)" style="fill: none; stroke-dasharray: 3.7,1.6; stroke-dashoffset: 0; stroke: #808080"/>
   </g>
   <g id="patch_12">
    <path d="M 49.265625 230.02 
L 49.265625 28.6 
" style="fill: none; stroke: #000000; stroke-linejoin: miter; stroke-linecap: square"/>
   </g>
   <g id="patch_13">
    <path d="M 520.218765 230.02 
L 520.218765 28.6 
" style="fill: none; stroke: #000000; stroke-linejoin: miter; stroke-linecap: square"/>
   </g>
   <g id="patch_14">
    <path d="M 49.265625 230.02 
L 520.218765 230.02 
" style="fill: none; stroke: #000000; stroke-linejoin: miter; stroke-linecap: square"/>
   </g>
   <g id="patch_15">
    <path d="M 49.265625 28.6 
L 520.218765 28.6 
" style="fill: none; stroke: #000000; stroke-linejoin: miter; stroke-linecap: square"/>
   </g>
   <g id="text_30">
    <!-- Time dependence of $\Omega (t)$ and $\Delta (t)$, J = 8 -->
    <g transform="translate(77.117195 22.6) scale(0.25 -0.25)">
     <defs>
      <path id="TimesNewRomanPSMT-70" d="M -6 2578 
L 875 2934 
L 994 2934 
L 994 2266 
Q 1216 2644 1439 2795 
Q 1663 2947 1909 2947 
Q 2341 2947 2628 2609 
Q 2981 2197 2981 1534 
Q 2981 794 2556 309 
Q 2206 -88 1675 -88 
Q 1444 -88 1275 -22 
Q 1150 25 994 166 
L 994 -706 
Q 994 -1000 1030 -1079 
Q 1066 -1159 1155 -1206 
Q 1244 -1253 1478 -1253 
L 1478 -1369 
L -22 -1369 
L -22 -1253 
L 56 -1253 
Q 228 -1256 350 -1188 
Q 409 -1153 442 -1076 
Q 475 -1000 475 -688 
L 475 2019 
Q 475 2297 450 2372 
Q 425 2447 370 2484 
Q 316 2522 222 2522 
Q 147 2522 31 2478 
L -6 2578 
z
M 994 2081 
L 994 1013 
Q 994 666 1022 556 
Q 1066 375 1236 237 
Q 1406 100 1666 100 
Q 1978 100 2172 344 
Q 2425 663 2425 1241 
Q 2425 1897 2138 2250 
Q 1938 2494 1663 2494 
Q 1513 2494 1366 2419 
Q 1253 2363 994 2081 
z
" transform="scale(0.015625)"/>
      <path id="TimesNewRomanPSMT-66" d="M 1319 2638 
L 1319 756 
Q 1319 356 1406 250 
Q 1522 113 1716 113 
L 1975 113 
L 1975 0 
L 266 0 
L 266 113 
L 394 113 
Q 519 113 622 175 
Q 725 238 764 344 
Q 803 450 803 756 
L 803 2638 
L 247 2638 
L 247 2863 
L 803 2863 
L 803 3050 
Q 803 3478 940 3775 
Q 1078 4072 1361 4255 
Q 1644 4438 1997 4438 
Q 2325 4438 2600 4225 
Q 2781 4084 2781 3909 
Q 2781 3816 2700 3733 
Q 2619 3650 2525 3650 
Q 2453 3650 2373 3701 
Q 2294 3753 2178 3923 
Q 2063 4094 1966 4153 
Q 1869 4213 1750 4213 
Q 1606 4213 1506 4136 
Q 1406 4059 1362 3898 
Q 1319 3738 1319 3069 
L 1319 2863 
L 2056 2863 
L 2056 2638 
L 1319 2638 
z
" transform="scale(0.015625)"/>
      <path id="DejaVuSans-3a9" d="M 4647 556 
L 4647 0 
L 2772 0 
L 2772 556 
Q 3325 859 3634 1378 
Q 3944 1897 3944 2528 
Q 3944 3278 3531 3731 
Q 3119 4184 2444 4184 
Q 1769 4184 1355 3729 
Q 941 3275 941 2528 
Q 941 1897 1250 1378 
Q 1563 859 2119 556 
L 2119 0 
L 244 0 
L 244 556 
L 1241 556 
Q 747 991 519 1456 
Q 294 1922 294 2497 
Q 294 3491 894 4106 
Q 1491 4722 2444 4722 
Q 3391 4722 3994 4106 
Q 4594 3494 4594 2528 
Q 4594 1922 4372 1459 
Q 4150 997 3647 556 
L 4647 556 
z
" transform="scale(0.015625)"/>
      <path id="DejaVuSans-28" d="M 1984 4856 
Q 1566 4138 1362 3434 
Q 1159 2731 1159 2009 
Q 1159 1288 1364 580 
Q 1569 -128 1984 -844 
L 1484 -844 
Q 1016 -109 783 600 
Q 550 1309 550 2009 
Q 550 2706 781 3412 
Q 1013 4119 1484 4856 
L 1984 4856 
z
" transform="scale(0.015625)"/>
      <path id="DejaVuSans-Oblique-74" d="M 2706 3500 
L 2619 3053 
L 1472 3053 
L 1100 1153 
Q 1081 1047 1072 975 
Q 1063 903 1063 863 
Q 1063 663 1183 572 
Q 1303 481 1569 481 
L 2150 481 
L 2053 0 
L 1503 0 
Q 991 0 739 200 
Q 488 400 488 806 
Q 488 878 497 964 
Q 506 1050 525 1153 
L 897 3053 
L 409 3053 
L 500 3500 
L 978 3500 
L 1172 4494 
L 1747 4494 
L 1556 3500 
L 2706 3500 
z
" transform="scale(0.015625)"/>
      <path id="DejaVuSans-29" d="M 513 4856 
L 1013 4856 
Q 1481 4119 1714 3412 
Q 1947 2706 1947 2009 
Q 1947 1309 1714 600 
Q 1481 -109 1013 -844 
L 513 -844 
Q 928 -128 1133 580 
Q 1338 1288 1338 2009 
Q 1338 2731 1133 3434 
Q 928 4138 513 4856 
z
" transform="scale(0.015625)"/>
      <path id="DejaVuSans-394" d="M 2188 4044 
L 906 525 
L 3472 525 
L 2188 4044 
z
M 50 0 
L 1831 4666 
L 2547 4666 
L 4325 0 
L 50 0 
z
" transform="scale(0.015625)"/>
      <path id="TimesNewRomanPSMT-2c" d="M 344 -1066 
L 344 -928 
Q 666 -822 842 -598 
Q 1019 -375 1019 -125 
Q 1019 -66 991 -25 
Q 969 3 947 3 
Q 913 3 797 -59 
Q 741 -88 678 -88 
Q 525 -88 434 3 
Q 344 94 344 253 
Q 344 406 461 515 
Q 578 625 747 625 
Q 953 625 1114 445 
Q 1275 266 1275 -31 
Q 1275 -353 1051 -629 
Q 828 -906 344 -1066 
z
" transform="scale(0.015625)"/>
      <path id="TimesNewRomanPSMT-4a" d="M 638 4122 
L 638 4238 
L 2453 4238 
L 2453 4122 
L 2300 4122 
Q 2041 4122 1922 3969 
Q 1847 3869 1847 3488 
L 1847 1416 
Q 1847 938 1742 641 
Q 1638 344 1381 123 
Q 1125 -97 763 -97 
Q 469 -97 300 48 
Q 131 194 131 381 
Q 131 534 209 613 
Q 313 709 450 709 
Q 550 709 629 643 
Q 709 578 831 294 
Q 903 125 1016 125 
Q 1100 125 1173 228 
Q 1247 331 1247 594 
L 1247 3488 
Q 1247 3809 1206 3913 
Q 1175 3991 1075 4047 
Q 941 4122 791 4122 
L 638 4122 
z
" transform="scale(0.015625)"/>
      <path id="TimesNewRomanPSMT-3d" d="M 116 2759 
L 3488 2759 
L 3488 2503 
L 116 2503 
L 116 2759 
z
M 116 1741 
L 3488 1741 
L 3488 1484 
L 116 1484 
L 116 1741 
z
" transform="scale(0.015625)"/>
      <path id="TimesNewRomanPSMT-38" d="M 1228 2134 
Q 725 2547 579 2797 
Q 434 3047 434 3316 
Q 434 3728 753 4026 
Q 1072 4325 1600 4325 
Q 2113 4325 2425 4047 
Q 2738 3769 2738 3413 
Q 2738 3175 2569 2928 
Q 2400 2681 1866 2347 
Q 2416 1922 2594 1678 
Q 2831 1359 2831 1006 
Q 2831 559 2490 242 
Q 2150 -75 1597 -75 
Q 994 -75 656 303 
Q 388 606 388 966 
Q 388 1247 577 1523 
Q 766 1800 1228 2134 
z
M 1719 2469 
Q 2094 2806 2194 3001 
Q 2294 3197 2294 3444 
Q 2294 3772 2109 3958 
Q 1925 4144 1606 4144 
Q 1288 4144 1088 3959 
Q 888 3775 888 3528 
Q 888 3366 970 3203 
Q 1053 3041 1206 2894 
L 1719 2469 
z
M 1375 2016 
Q 1116 1797 991 1539 
Q 866 1281 866 981 
Q 866 578 1086 336 
Q 1306 94 1647 94 
Q 1984 94 2187 284 
Q 2391 475 2391 747 
Q 2391 972 2272 1150 
Q 2050 1481 1375 2016 
z
" transform="scale(0.015625)"/>
     </defs>
     <use xlink:href="#TimesNewRomanPSMT-54" transform="translate(0 0.125)"/>
     <use xlink:href="#TimesNewRomanPSMT-69" transform="translate(61.083984 0.125)"/>
     <use xlink:href="#TimesNewRomanPSMT-6d" transform="translate(88.867188 0.125)"/>
     <use xlink:href="#TimesNewRomanPSMT-65" transform="translate(166.650391 0.125)"/>
     <use xlink:href="#TimesNewRomanPSMT-20" transform="translate(211.035156 0.125)"/>
     <use xlink:href="#TimesNewRomanPSMT-64" transform="translate(236.035156 0.125)"/>
     <use xlink:href="#TimesNewRomanPSMT-65" transform="translate(286.035156 0.125)"/>
     <use xlink:href="#TimesNewRomanPSMT-70" transform="translate(330.419922 0.125)"/>
     <use xlink:href="#TimesNewRomanPSMT-65" transform="translate(380.419922 0.125)"/>
     <use xlink:href="#TimesNewRomanPSMT-6e" transform="translate(424.804688 0.125)"/>
     <use xlink:href="#TimesNewRomanPSMT-64" transform="translate(474.804688 0.125)"/>
     <use xlink:href="#TimesNewRomanPSMT-65" transform="translate(524.804688 0.125)"/>
     <use xlink:href="#TimesNewRomanPSMT-6e" transform="translate(569.189453 0.125)"/>
     <use xlink:href="#TimesNewRomanPSMT-63" transform="translate(619.189453 0.125)"/>
     <use xlink:href="#TimesNewRomanPSMT-65" transform="translate(663.574219 0.125)"/>
     <use xlink:href="#TimesNewRomanPSMT-20" transform="translate(707.958984 0.125)"/>
     <use xlink:href="#TimesNewRomanPSMT-6f" transform="translate(732.958984 0.125)"/>
     <use xlink:href="#TimesNewRomanPSMT-66" transform="translate(782.958984 0.125)"/>
     <use xlink:href="#TimesNewRomanPSMT-20" transform="translate(816.259766 0.125)"/>
     <use xlink:href="#DejaVuSans-3a9" transform="translate(841.259766 0.125)"/>
     <use xlink:href="#DejaVuSans-28" transform="translate(917.675781 0.125)"/>
     <use xlink:href="#DejaVuSans-Oblique-74" transform="translate(956.689453 0.125)"/>
     <use xlink:href="#DejaVuSans-29" transform="translate(995.898438 0.125)"/>
     <use xlink:href="#TimesNewRomanPSMT-20" transform="translate(1034.912109 0.125)"/>
     <use xlink:href="#TimesNewRomanPSMT-61" transform="translate(1059.912109 0.125)"/>
     <use xlink:href="#TimesNewRomanPSMT-6e" transform="translate(1104.296875 0.125)"/>
     <use xlink:href="#TimesNewRomanPSMT-64" transform="translate(1154.296875 0.125)"/>
     <use xlink:href="#TimesNewRomanPSMT-20" transform="translate(1204.296875 0.125)"/>
     <use xlink:href="#DejaVuSans-394" transform="translate(1229.296875 0.125)"/>
     <use xlink:href="#DejaVuSans-28" transform="translate(1297.705078 0.125)"/>
     <use xlink:href="#DejaVuSans-Oblique-74" transform="translate(1336.71875 0.125)"/>
     <use xlink:href="#DejaVuSans-29" transform="translate(1375.927734 0.125)"/>
     <use xlink:href="#TimesNewRomanPSMT-2c" transform="translate(1414.941406 0.125)"/>
     <use xlink:href="#TimesNewRomanPSMT-20" transform="translate(1439.941406 0.125)"/>
     <use xlink:href="#TimesNewRomanPSMT-4a" transform="translate(1464.941406 0.125)"/>
     <use xlink:href="#TimesNewRomanPSMT-20" transform="translate(1503.857422 0.125)"/>
     <use xlink:href="#TimesNewRomanPSMT-3d" transform="translate(1528.857422 0.125)"/>
     <use xlink:href="#TimesNewRomanPSMT-20" transform="translate(1585.253906 0.125)"/>
     <use xlink:href="#TimesNewRomanPSMT-38" transform="translate(1610.253906 0.125)"/>
    </g>
   </g>
  </g>
 </g>
 <defs>
  <clipPath id="pef9038e326">
   <rect x="49.265625" y="28.6" width="470.95314" height="201.42"/>
  </clipPath>
  <clipPath id="p585733fc60">
   <rect x="665.718765" y="28.6" width="470.95314" height="201.42"/>
  </clipPath>
 </defs>
</svg>
