<?xml version="1.0" encoding="utf-8" standalone="no"?>
<!DOCTYPE svg PUBLIC "-//W3C//DTD SVG 1.1//EN"
  "http://www.w3.org/Graphics/SVG/1.1/DTD/svg11.dtd">
<svg xmlns:xlink="http://www.w3.org/1999/xlink" width="1140.271906pt" height="277.45125pt" viewBox="0 0 1140.271906 277.45125" xmlns="http://www.w3.org/2000/svg" version="1.1">
 <metadata>
  <rdf:RDF xmlns:dc="http://purl.org/dc/elements/1.1/" xmlns:cc="http://creativecommons.org/ns#" xmlns:rdf="http://www.w3.org/1999/02/22-rdf-syntax-ns#">
   <cc:Work>
    <dc:type rdf:resource="http://purl.org/dc/dcmitype/StillImage"/>
    <dc:date>2026-02-24T18:04:54.463870</dc:date>
    <dc:format>image/svg+xml</dc:format>
    <dc:creator>
     <cc:Agent>
      <dc:title>Matplotlib v3.10.3, https://matplotlib.org/</dc:title>
     </cc:Agent>
    </dc:creator>
   </cc:Work>
  </rdf:RDF>
 </metadata>
 <defs>
  <style type="text/css">*{stroke-linejoin: round; stroke-linecap: butt}</style>
 </defs>
 <g id="figure_1">
  <g id="patch_1">
   <path d="M 0 277.45125 
L 1140.271906 277.45125 
L 1140.271906 0 
L 0 0 
z
" style="fill: #ffffff"/>
  </g>
  <g id="axes_1">
   <g id="patch_2">
    <path d="M 49.265625 230.02 
L 538.248765 230.02 
L 538.248765 28.6 
L 49.265625 28.6 
z
" style="fill: #ffffff"/>
   </g>
   <g id="matplotlib.axis_1">
    <g id="xtick_1">
     <g id="line2d_1">
      <path d="M 71.492131 230.02 
L 71.492131 28.6 
" clip-path="url(#p74a3d105fa)" style="fill: none; stroke: #b0b0b0; stroke-linecap: square"/>
     </g>
     <g id="line2d_2">
      <defs>
       <path id="m4b621ab1f1" d="M 0 0 
L 0 -6 
" style="stroke: #000000"/>
      </defs>
      <g>
       <use xlink:href="#m4b621ab1f1" x="71.492131" y="230.02" style="stroke: #000000"/>
      </g>
     </g>
     <g id="line2d_3">
      <defs>
       <path id="m5819bcc387" d="M 0 0 
L 0 6 
" style="stroke: #000000"/>
      </defs>
      <g>
       <use xlink:href="#m5819bcc387" x="71.492131" y="28.6" style="stroke: #000000"/>
      </g>
     </g>
     <g id="text_1">
      <!-- 0 -->
      <g transform="translate(66.492131 247.4075) scale(0.2 -0.2)">
       <defs>
        <path id="TimesNewRomanPSMT-30" d="M 231 2094 
Q 231 2819 450 3342 
Q 669 3866 1031 4122 
Q 1313 4325 1613 4325 
Q 2100 4325 2488 3828 
Q 2972 3213 2972 2159 
Q 2972 1422 2759 906 
Q 2547 391 2217 158 
Q 1888 -75 1581 -75 
Q 975 -75 572 641 
Q 231 1244 231 2094 
z
M 844 2016 
Q 844 1141 1059 588 
Q 1238 122 1591 122 
Q 1759 122 1940 273 
Q 2122 425 2216 781 
Q 2359 1319 2359 2297 
Q 2359 3022 2209 3506 
Q 2097 3866 1919 4016 
Q 1791 4119 1609 4119 
Q 1397 4119 1231 3928 
Q 1006 3669 925 3112 
Q 844 2556 844 2016 
z
" transform="scale(0.015625)"/>
       </defs>
       <use xlink:href="#TimesNewRomanPSMT-30"/>
      </g>
     </g>
    </g>
    <g id="xtick_2">
     <g id="line2d_4">
      <path d="M 160.398157 230.02 
L 160.398157 28.6 
" clip-path="url(#p74a3d105fa)" style="fill: none; stroke: #b0b0b0; stroke-linecap: square"/>
     </g>
     <g id="line2d_5">
      <g>
       <use xlink:href="#m4b621ab1f1" x="160.398157" y="230.02" style="stroke: #000000"/>
      </g>
     </g>
     <g id="line2d_6">
      <g>
       <use xlink:href="#m5819bcc387" x="160.398157" y="28.6" style="stroke: #000000"/>
      </g>
     </g>
     <g id="text_2">
      <!-- 10 -->
      <g transform="translate(150.398157 247.4075) scale(0.2 -0.2)">
       <defs>
        <path id="TimesNewRomanPSMT-31" d="M 750 3822 
L 1781 4325 
L 1884 4325 
L 1884 747 
Q 1884 391 1914 303 
Q 1944 216 2037 169 
Q 2131 122 2419 116 
L 2419 0 
L 825 0 
L 825 116 
Q 1125 122 1212 167 
Q 1300 213 1334 289 
Q 1369 366 1369 747 
L 1369 3034 
Q 1369 3497 1338 3628 
Q 1316 3728 1258 3775 
Q 1200 3822 1119 3822 
Q 1003 3822 797 3725 
L 750 3822 
z
" transform="scale(0.015625)"/>
       </defs>
       <use xlink:href="#TimesNewRomanPSMT-31"/>
       <use xlink:href="#TimesNewRomanPSMT-30" transform="translate(50 0)"/>
      </g>
     </g>
    </g>
    <g id="xtick_3">
     <g id="line2d_7">
      <path d="M 249.304182 230.02 
L 249.304182 28.6 
" clip-path="url(#p74a3d105fa)" style="fill: none; stroke: #b0b0b0; stroke-linecap: square"/>
     </g>
     <g id="line2d_8">
      <g>
       <use xlink:href="#m4b621ab1f1" x="249.304182" y="230.02" style="stroke: #000000"/>
      </g>
     </g>
     <g id="line2d_9">
      <g>
       <use xlink:href="#m5819bcc387" x="249.304182" y="28.6" style="stroke: #000000"/>
      </g>
     </g>
     <g id="text_3">
      <!-- 20 -->
      <g transform="translate(239.304182 247.4075) scale(0.2 -0.2)">
       <defs>
        <path id="TimesNewRomanPSMT-32" d="M 2934 816 
L 2638 0 
L 138 0 
L 138 116 
Q 1241 1122 1691 1759 
Q 2141 2397 2141 2925 
Q 2141 3328 1894 3587 
Q 1647 3847 1303 3847 
Q 991 3847 742 3664 
Q 494 3481 375 3128 
L 259 3128 
Q 338 3706 661 4015 
Q 984 4325 1469 4325 
Q 1984 4325 2329 3994 
Q 2675 3663 2675 3213 
Q 2675 2891 2525 2569 
Q 2294 2063 1775 1497 
Q 997 647 803 472 
L 1909 472 
Q 2247 472 2383 497 
Q 2519 522 2628 598 
Q 2738 675 2819 816 
L 2934 816 
z
" transform="scale(0.015625)"/>
       </defs>
       <use xlink:href="#TimesNewRomanPSMT-32"/>
       <use xlink:href="#TimesNewRomanPSMT-30" transform="translate(50 0)"/>
      </g>
     </g>
    </g>
    <g id="xtick_4">
     <g id="line2d_10">
      <path d="M 338.210208 230.02 
L 338.210208 28.6 
" clip-path="url(#p74a3d105fa)" style="fill: none; stroke: #b0b0b0; stroke-linecap: square"/>
     </g>
     <g id="line2d_11">
      <g>
       <use xlink:href="#m4b621ab1f1" x="338.210208" y="230.02" style="stroke: #000000"/>
      </g>
     </g>
     <g id="line2d_12">
      <g>
       <use xlink:href="#m5819bcc387" x="338.210208" y="28.6" style="stroke: #000000"/>
      </g>
     </g>
     <g id="text_4">
      <!-- 30 -->
      <g transform="translate(328.210208 247.4075) scale(0.2 -0.2)">
       <defs>
        <path id="TimesNewRomanPSMT-33" d="M 325 3431 
Q 506 3859 782 4092 
Q 1059 4325 1472 4325 
Q 1981 4325 2253 3994 
Q 2459 3747 2459 3466 
Q 2459 3003 1878 2509 
Q 2269 2356 2469 2072 
Q 2669 1788 2669 1403 
Q 2669 853 2319 450 
Q 1863 -75 997 -75 
Q 569 -75 414 31 
Q 259 138 259 259 
Q 259 350 332 419 
Q 406 488 509 488 
Q 588 488 669 463 
Q 722 447 909 348 
Q 1097 250 1169 231 
Q 1284 197 1416 197 
Q 1734 197 1970 444 
Q 2206 691 2206 1028 
Q 2206 1275 2097 1509 
Q 2016 1684 1919 1775 
Q 1784 1900 1550 2001 
Q 1316 2103 1072 2103 
L 972 2103 
L 972 2197 
Q 1219 2228 1467 2375 
Q 1716 2522 1828 2728 
Q 1941 2934 1941 3181 
Q 1941 3503 1739 3701 
Q 1538 3900 1238 3900 
Q 753 3900 428 3381 
L 325 3431 
z
" transform="scale(0.015625)"/>
       </defs>
       <use xlink:href="#TimesNewRomanPSMT-33"/>
       <use xlink:href="#TimesNewRomanPSMT-30" transform="translate(50 0)"/>
      </g>
     </g>
    </g>
    <g id="xtick_5">
     <g id="line2d_13">
      <path d="M 427.116234 230.02 
L 427.116234 28.6 
" clip-path="url(#p74a3d105fa)" style="fill: none; stroke: #b0b0b0; stroke-linecap: square"/>
     </g>
     <g id="line2d_14">
      <g>
       <use xlink:href="#m4b621ab1f1" x="427.116234" y="230.02" style="stroke: #000000"/>
      </g>
     </g>
     <g id="line2d_15">
      <g>
       <use xlink:href="#m5819bcc387" x="427.116234" y="28.6" style="stroke: #000000"/>
      </g>
     </g>
     <g id="text_5">
      <!-- 40 -->
      <g transform="translate(417.116234 247.4075) scale(0.2 -0.2)">
       <defs>
        <path id="TimesNewRomanPSMT-34" d="M 2978 1563 
L 2978 1119 
L 2409 1119 
L 2409 0 
L 1894 0 
L 1894 1119 
L 100 1119 
L 100 1519 
L 2066 4325 
L 2409 4325 
L 2409 1563 
L 2978 1563 
z
M 1894 1563 
L 1894 3666 
L 406 1563 
L 1894 1563 
z
" transform="scale(0.015625)"/>
       </defs>
       <use xlink:href="#TimesNewRomanPSMT-34"/>
       <use xlink:href="#TimesNewRomanPSMT-30" transform="translate(50 0)"/>
      </g>
     </g>
    </g>
    <g id="xtick_6">
     <g id="line2d_16">
      <path d="M 516.022259 230.02 
L 516.022259 28.6 
" clip-path="url(#p74a3d105fa)" style="fill: none; stroke: #b0b0b0; stroke-linecap: square"/>
     </g>
     <g id="line2d_17">
      <g>
       <use xlink:href="#m4b621ab1f1" x="516.022259" y="230.02" style="stroke: #000000"/>
      </g>
     </g>
     <g id="line2d_18">
      <g>
       <use xlink:href="#m5819bcc387" x="516.022259" y="28.6" style="stroke: #000000"/>
      </g>
     </g>
     <g id="text_6">
      <!-- 50 -->
      <g transform="translate(506.022259 247.4075) scale(0.2 -0.2)">
       <defs>
        <path id="TimesNewRomanPSMT-35" d="M 2778 4238 
L 2534 3706 
L 1259 3706 
L 981 3138 
Q 1809 3016 2294 2522 
Q 2709 2097 2709 1522 
Q 2709 1188 2573 903 
Q 2438 619 2231 419 
Q 2025 219 1772 97 
Q 1413 -75 1034 -75 
Q 653 -75 479 54 
Q 306 184 306 341 
Q 306 428 378 495 
Q 450 563 559 563 
Q 641 563 702 538 
Q 763 513 909 409 
Q 1144 247 1384 247 
Q 1750 247 2026 523 
Q 2303 800 2303 1197 
Q 2303 1581 2056 1914 
Q 1809 2247 1375 2428 
Q 1034 2569 447 2591 
L 1259 4238 
L 2778 4238 
z
" transform="scale(0.015625)"/>
       </defs>
       <use xlink:href="#TimesNewRomanPSMT-35"/>
       <use xlink:href="#TimesNewRomanPSMT-30" transform="translate(50 0)"/>
      </g>
     </g>
    </g>
    <g id="xtick_7">
     <g id="line2d_19">
      <defs>
       <path id="mb05602a39e" d="M 0 0 
L 0 -3 
" style="stroke: #000000"/>
      </defs>
      <g>
       <use xlink:href="#mb05602a39e" x="53.710926" y="230.02" style="stroke: #000000"/>
      </g>
     </g>
     <g id="line2d_20">
      <defs>
       <path id="m7af38ce9ad" d="M 0 0 
L 0 3 
" style="stroke: #000000"/>
      </defs>
      <g>
       <use xlink:href="#m7af38ce9ad" x="53.710926" y="28.6" style="stroke: #000000"/>
      </g>
     </g>
    </g>
    <g id="xtick_8">
     <g id="line2d_21">
      <g>
       <use xlink:href="#mb05602a39e" x="89.273336" y="230.02" style="stroke: #000000"/>
      </g>
     </g>
     <g id="line2d_22">
      <g>
       <use xlink:href="#m7af38ce9ad" x="89.273336" y="28.6" style="stroke: #000000"/>
      </g>
     </g>
    </g>
    <g id="xtick_9">
     <g id="line2d_23">
      <g>
       <use xlink:href="#mb05602a39e" x="107.054542" y="230.02" style="stroke: #000000"/>
      </g>
     </g>
     <g id="line2d_24">
      <g>
       <use xlink:href="#m7af38ce9ad" x="107.054542" y="28.6" style="stroke: #000000"/>
      </g>
     </g>
    </g>
    <g id="xtick_10">
     <g id="line2d_25">
      <g>
       <use xlink:href="#mb05602a39e" x="124.835747" y="230.02" style="stroke: #000000"/>
      </g>
     </g>
     <g id="line2d_26">
      <g>
       <use xlink:href="#m7af38ce9ad" x="124.835747" y="28.6" style="stroke: #000000"/>
      </g>
     </g>
    </g>
    <g id="xtick_11">
     <g id="line2d_27">
      <g>
       <use xlink:href="#mb05602a39e" x="142.616952" y="230.02" style="stroke: #000000"/>
      </g>
     </g>
     <g id="line2d_28">
      <g>
       <use xlink:href="#m7af38ce9ad" x="142.616952" y="28.6" style="stroke: #000000"/>
      </g>
     </g>
    </g>
    <g id="xtick_12">
     <g id="line2d_29">
      <g>
       <use xlink:href="#mb05602a39e" x="178.179362" y="230.02" style="stroke: #000000"/>
      </g>
     </g>
     <g id="line2d_30">
      <g>
       <use xlink:href="#m7af38ce9ad" x="178.179362" y="28.6" style="stroke: #000000"/>
      </g>
     </g>
    </g>
    <g id="xtick_13">
     <g id="line2d_31">
      <g>
       <use xlink:href="#mb05602a39e" x="195.960567" y="230.02" style="stroke: #000000"/>
      </g>
     </g>
     <g id="line2d_32">
      <g>
       <use xlink:href="#m7af38ce9ad" x="195.960567" y="28.6" style="stroke: #000000"/>
      </g>
     </g>
    </g>
    <g id="xtick_14">
     <g id="line2d_33">
      <g>
       <use xlink:href="#mb05602a39e" x="213.741772" y="230.02" style="stroke: #000000"/>
      </g>
     </g>
     <g id="line2d_34">
      <g>
       <use xlink:href="#m7af38ce9ad" x="213.741772" y="28.6" style="stroke: #000000"/>
      </g>
     </g>
    </g>
    <g id="xtick_15">
     <g id="line2d_35">
      <g>
       <use xlink:href="#mb05602a39e" x="231.522977" y="230.02" style="stroke: #000000"/>
      </g>
     </g>
     <g id="line2d_36">
      <g>
       <use xlink:href="#m7af38ce9ad" x="231.522977" y="28.6" style="stroke: #000000"/>
      </g>
     </g>
    </g>
    <g id="xtick_16">
     <g id="line2d_37">
      <g>
       <use xlink:href="#mb05602a39e" x="267.085388" y="230.02" style="stroke: #000000"/>
      </g>
     </g>
     <g id="line2d_38">
      <g>
       <use xlink:href="#m7af38ce9ad" x="267.085388" y="28.6" style="stroke: #000000"/>
      </g>
     </g>
    </g>
    <g id="xtick_17">
     <g id="line2d_39">
      <g>
       <use xlink:href="#mb05602a39e" x="284.866593" y="230.02" style="stroke: #000000"/>
      </g>
     </g>
     <g id="line2d_40">
      <g>
       <use xlink:href="#m7af38ce9ad" x="284.866593" y="28.6" style="stroke: #000000"/>
      </g>
     </g>
    </g>
    <g id="xtick_18">
     <g id="line2d_41">
      <g>
       <use xlink:href="#mb05602a39e" x="302.647798" y="230.02" style="stroke: #000000"/>
      </g>
     </g>
     <g id="line2d_42">
      <g>
       <use xlink:href="#m7af38ce9ad" x="302.647798" y="28.6" style="stroke: #000000"/>
      </g>
     </g>
    </g>
    <g id="xtick_19">
     <g id="line2d_43">
      <g>
       <use xlink:href="#mb05602a39e" x="320.429003" y="230.02" style="stroke: #000000"/>
      </g>
     </g>
     <g id="line2d_44">
      <g>
       <use xlink:href="#m7af38ce9ad" x="320.429003" y="28.6" style="stroke: #000000"/>
      </g>
     </g>
    </g>
    <g id="xtick_20">
     <g id="line2d_45">
      <g>
       <use xlink:href="#mb05602a39e" x="355.991413" y="230.02" style="stroke: #000000"/>
      </g>
     </g>
     <g id="line2d_46">
      <g>
       <use xlink:href="#m7af38ce9ad" x="355.991413" y="28.6" style="stroke: #000000"/>
      </g>
     </g>
    </g>
    <g id="xtick_21">
     <g id="line2d_47">
      <g>
       <use xlink:href="#mb05602a39e" x="373.772618" y="230.02" style="stroke: #000000"/>
      </g>
     </g>
     <g id="line2d_48">
      <g>
       <use xlink:href="#m7af38ce9ad" x="373.772618" y="28.6" style="stroke: #000000"/>
      </g>
     </g>
    </g>
    <g id="xtick_22">
     <g id="line2d_49">
      <g>
       <use xlink:href="#mb05602a39e" x="391.553823" y="230.02" style="stroke: #000000"/>
      </g>
     </g>
     <g id="line2d_50">
      <g>
       <use xlink:href="#m7af38ce9ad" x="391.553823" y="28.6" style="stroke: #000000"/>
      </g>
     </g>
    </g>
    <g id="xtick_23">
     <g id="line2d_51">
      <g>
       <use xlink:href="#mb05602a39e" x="409.335028" y="230.02" style="stroke: #000000"/>
      </g>
     </g>
     <g id="line2d_52">
      <g>
       <use xlink:href="#m7af38ce9ad" x="409.335028" y="28.6" style="stroke: #000000"/>
      </g>
     </g>
    </g>
    <g id="xtick_24">
     <g id="line2d_53">
      <g>
       <use xlink:href="#mb05602a39e" x="444.897439" y="230.02" style="stroke: #000000"/>
      </g>
     </g>
     <g id="line2d_54">
      <g>
       <use xlink:href="#m7af38ce9ad" x="444.897439" y="28.6" style="stroke: #000000"/>
      </g>
     </g>
    </g>
    <g id="xtick_25">
     <g id="line2d_55">
      <g>
       <use xlink:href="#mb05602a39e" x="462.678644" y="230.02" style="stroke: #000000"/>
      </g>
     </g>
     <g id="line2d_56">
      <g>
       <use xlink:href="#m7af38ce9ad" x="462.678644" y="28.6" style="stroke: #000000"/>
      </g>
     </g>
    </g>
    <g id="xtick_26">
     <g id="line2d_57">
      <g>
       <use xlink:href="#mb05602a39e" x="480.459849" y="230.02" style="stroke: #000000"/>
      </g>
     </g>
     <g id="line2d_58">
      <g>
       <use xlink:href="#m7af38ce9ad" x="480.459849" y="28.6" style="stroke: #000000"/>
      </g>
     </g>
    </g>
    <g id="xtick_27">
     <g id="line2d_59">
      <g>
       <use xlink:href="#mb05602a39e" x="498.241054" y="230.02" style="stroke: #000000"/>
      </g>
     </g>
     <g id="line2d_60">
      <g>
       <use xlink:href="#m7af38ce9ad" x="498.241054" y="28.6" style="stroke: #000000"/>
      </g>
     </g>
    </g>
    <g id="xtick_28">
     <g id="line2d_61">
      <g>
       <use xlink:href="#mb05602a39e" x="533.803464" y="230.02" style="stroke: #000000"/>
      </g>
     </g>
     <g id="line2d_62">
      <g>
       <use xlink:href="#m7af38ce9ad" x="533.803464" y="28.6" style="stroke: #000000"/>
      </g>
     </g>
    </g>
    <g id="text_7">
     <!-- Time (ms) -->
     <g transform="translate(252.174383 269.573125) scale(0.2 -0.2)">
      <defs>
       <path id="TimesNewRomanPSMT-54" d="M 3703 4238 
L 3750 3244 
L 3631 3244 
Q 3597 3506 3538 3619 
Q 3441 3800 3280 3886 
Q 3119 3972 2856 3972 
L 2259 3972 
L 2259 734 
Q 2259 344 2344 247 
Q 2463 116 2709 116 
L 2856 116 
L 2856 0 
L 1059 0 
L 1059 116 
L 1209 116 
Q 1478 116 1591 278 
Q 1659 378 1659 734 
L 1659 3972 
L 1150 3972 
Q 853 3972 728 3928 
Q 566 3869 450 3700 
Q 334 3531 313 3244 
L 194 3244 
L 244 4238 
L 3703 4238 
z
" transform="scale(0.015625)"/>
       <path id="TimesNewRomanPSMT-69" d="M 928 4444 
Q 1059 4444 1151 4351 
Q 1244 4259 1244 4128 
Q 1244 3997 1151 3903 
Q 1059 3809 928 3809 
Q 797 3809 703 3903 
Q 609 3997 609 4128 
Q 609 4259 701 4351 
Q 794 4444 928 4444 
z
M 1188 2947 
L 1188 647 
Q 1188 378 1227 289 
Q 1266 200 1342 156 
Q 1419 113 1622 113 
L 1622 0 
L 231 0 
L 231 113 
Q 441 113 512 153 
Q 584 194 626 287 
Q 669 381 669 647 
L 669 1750 
Q 669 2216 641 2353 
Q 619 2453 572 2492 
Q 525 2531 444 2531 
Q 356 2531 231 2484 
L 188 2597 
L 1050 2947 
L 1188 2947 
z
" transform="scale(0.015625)"/>
       <path id="TimesNewRomanPSMT-6d" d="M 1050 2338 
Q 1363 2650 1419 2697 
Q 1559 2816 1721 2881 
Q 1884 2947 2044 2947 
Q 2313 2947 2506 2790 
Q 2700 2634 2766 2338 
Q 3088 2713 3309 2830 
Q 3531 2947 3766 2947 
Q 3994 2947 4170 2830 
Q 4347 2713 4450 2447 
Q 4519 2266 4519 1878 
L 4519 647 
Q 4519 378 4559 278 
Q 4591 209 4675 161 
Q 4759 113 4950 113 
L 4950 0 
L 3538 0 
L 3538 113 
L 3597 113 
Q 3781 113 3884 184 
Q 3956 234 3988 344 
Q 4000 397 4000 647 
L 4000 1878 
Q 4000 2228 3916 2372 
Q 3794 2572 3525 2572 
Q 3359 2572 3192 2489 
Q 3025 2406 2788 2181 
L 2781 2147 
L 2788 2013 
L 2788 647 
Q 2788 353 2820 281 
Q 2853 209 2943 161 
Q 3034 113 3253 113 
L 3253 0 
L 1806 0 
L 1806 113 
Q 2044 113 2133 169 
Q 2222 225 2256 338 
Q 2272 391 2272 647 
L 2272 1878 
Q 2272 2228 2169 2381 
Q 2031 2581 1784 2581 
Q 1616 2581 1450 2491 
Q 1191 2353 1050 2181 
L 1050 647 
Q 1050 366 1089 281 
Q 1128 197 1204 155 
Q 1281 113 1516 113 
L 1516 0 
L 100 0 
L 100 113 
Q 297 113 375 155 
Q 453 197 493 289 
Q 534 381 534 647 
L 534 1741 
Q 534 2213 506 2350 
Q 484 2453 437 2492 
Q 391 2531 309 2531 
Q 222 2531 100 2484 
L 53 2597 
L 916 2947 
L 1050 2947 
L 1050 2338 
z
" transform="scale(0.015625)"/>
       <path id="TimesNewRomanPSMT-65" d="M 681 1784 
Q 678 1147 991 784 
Q 1303 422 1725 422 
Q 2006 422 2214 576 
Q 2422 731 2563 1106 
L 2659 1044 
Q 2594 616 2278 264 
Q 1963 -88 1488 -88 
Q 972 -88 605 314 
Q 238 716 238 1394 
Q 238 2128 614 2539 
Q 991 2950 1559 2950 
Q 2041 2950 2350 2633 
Q 2659 2316 2659 1784 
L 681 1784 
z
M 681 1966 
L 2006 1966 
Q 1991 2241 1941 2353 
Q 1863 2528 1708 2628 
Q 1553 2728 1384 2728 
Q 1125 2728 920 2526 
Q 716 2325 681 1966 
z
" transform="scale(0.015625)"/>
       <path id="TimesNewRomanPSMT-20" transform="scale(0.015625)"/>
       <path id="TimesNewRomanPSMT-28" d="M 1988 -1253 
L 1988 -1369 
Q 1516 -1131 1200 -813 
Q 750 -359 506 256 
Q 263 872 263 1534 
Q 263 2503 741 3301 
Q 1219 4100 1988 4444 
L 1988 4313 
Q 1603 4100 1356 3731 
Q 1109 3363 987 2797 
Q 866 2231 866 1616 
Q 866 947 969 400 
Q 1050 -31 1165 -292 
Q 1281 -553 1476 -793 
Q 1672 -1034 1988 -1253 
z
" transform="scale(0.015625)"/>
       <path id="TimesNewRomanPSMT-73" d="M 2050 2947 
L 2050 1972 
L 1947 1972 
Q 1828 2431 1642 2597 
Q 1456 2763 1169 2763 
Q 950 2763 815 2647 
Q 681 2531 681 2391 
Q 681 2216 781 2091 
Q 878 1963 1175 1819 
L 1631 1597 
Q 2266 1288 2266 781 
Q 2266 391 1970 151 
Q 1675 -88 1309 -88 
Q 1047 -88 709 6 
Q 606 38 541 38 
Q 469 38 428 -44 
L 325 -44 
L 325 978 
L 428 978 
Q 516 541 762 319 
Q 1009 97 1316 97 
Q 1531 97 1667 223 
Q 1803 350 1803 528 
Q 1803 744 1651 891 
Q 1500 1038 1047 1263 
Q 594 1488 453 1669 
Q 313 1847 313 2119 
Q 313 2472 555 2709 
Q 797 2947 1181 2947 
Q 1350 2947 1591 2875 
Q 1750 2828 1803 2828 
Q 1853 2828 1881 2850 
Q 1909 2872 1947 2947 
L 2050 2947 
z
" transform="scale(0.015625)"/>
       <path id="TimesNewRomanPSMT-29" d="M 144 4313 
L 144 4444 
Q 619 4209 934 3891 
Q 1381 3434 1625 2820 
Q 1869 2206 1869 1541 
Q 1869 572 1392 -226 
Q 916 -1025 144 -1369 
L 144 -1253 
Q 528 -1038 776 -670 
Q 1025 -303 1145 264 
Q 1266 831 1266 1447 
Q 1266 2113 1163 2663 
Q 1084 3094 967 3353 
Q 850 3613 656 3853 
Q 463 4094 144 4313 
z
" transform="scale(0.015625)"/>
      </defs>
      <use xlink:href="#TimesNewRomanPSMT-54"/>
      <use xlink:href="#TimesNewRomanPSMT-69" transform="translate(57.583984 0)"/>
      <use xlink:href="#TimesNewRomanPSMT-6d" transform="translate(85.367188 0)"/>
      <use xlink:href="#TimesNewRomanPSMT-65" transform="translate(163.150391 0)"/>
      <use xlink:href="#TimesNewRomanPSMT-20" transform="translate(207.535156 0)"/>
      <use xlink:href="#TimesNewRomanPSMT-28" transform="translate(232.535156 0)"/>
      <use xlink:href="#TimesNewRomanPSMT-6d" transform="translate(265.835938 0)"/>
      <use xlink:href="#TimesNewRomanPSMT-73" transform="translate(343.619141 0)"/>
      <use xlink:href="#TimesNewRomanPSMT-29" transform="translate(382.535156 0)"/>
     </g>
    </g>
   </g>
   <g id="matplotlib.axis_2">
    <g id="ytick_1">
     <g id="line2d_63">
      <path d="M 49.265625 221.265976 
L 538.248765 221.265976 
" clip-path="url(#p74a3d105fa)" style="fill: none; stroke: #b0b0b0; stroke-linecap: square"/>
     </g>
     <g id="line2d_64">
      <defs>
       <path id="m2cf4f3fbf2" d="M 0 0 
L 6 0 
" style="stroke: #000000"/>
      </defs>
      <g>
       <use xlink:href="#m2cf4f3fbf2" x="49.265625" y="221.265976" style="stroke: #000000"/>
      </g>
     </g>
     <g id="text_8">
      <!-- 0 -->
      <g style="fill: #1f77b4" transform="translate(35.765625 228.209726) scale(0.2 -0.2)">
       <use xlink:href="#TimesNewRomanPSMT-30"/>
      </g>
     </g>
    </g>
    <g id="ytick_2">
     <g id="line2d_65">
      <path d="M 49.265625 147.861317 
L 538.248765 147.861317 
" clip-path="url(#p74a3d105fa)" style="fill: none; stroke: #b0b0b0; stroke-linecap: square"/>
     </g>
     <g id="line2d_66">
      <g>
       <use xlink:href="#m2cf4f3fbf2" x="49.265625" y="147.861317" style="stroke: #000000"/>
      </g>
     </g>
     <g id="text_9">
      <!-- 20 -->
      <g style="fill: #1f77b4" transform="translate(25.765625 154.805067) scale(0.2 -0.2)">
       <use xlink:href="#TimesNewRomanPSMT-32"/>
       <use xlink:href="#TimesNewRomanPSMT-30" transform="translate(50 0)"/>
      </g>
     </g>
    </g>
    <g id="ytick_3">
     <g id="line2d_67">
      <path d="M 49.265625 74.456658 
L 538.248765 74.456658 
" clip-path="url(#p74a3d105fa)" style="fill: none; stroke: #b0b0b0; stroke-linecap: square"/>
     </g>
     <g id="line2d_68">
      <g>
       <use xlink:href="#m2cf4f3fbf2" x="49.265625" y="74.456658" style="stroke: #000000"/>
      </g>
     </g>
     <g id="text_10">
      <!-- 40 -->
      <g style="fill: #1f77b4" transform="translate(25.765625 81.400408) scale(0.2 -0.2)">
       <use xlink:href="#TimesNewRomanPSMT-34"/>
       <use xlink:href="#TimesNewRomanPSMT-30" transform="translate(50 0)"/>
      </g>
     </g>
    </g>
    <g id="ytick_4">
     <g id="line2d_69">
      <defs>
       <path id="m8e0d03382d" d="M 0 0 
L 3 0 
" style="stroke: #000000"/>
      </defs>
      <g>
       <use xlink:href="#m8e0d03382d" x="49.265625" y="202.914811" style="stroke: #000000"/>
      </g>
     </g>
    </g>
    <g id="ytick_5">
     <g id="line2d_70">
      <g>
       <use xlink:href="#m8e0d03382d" x="49.265625" y="184.563646" style="stroke: #000000"/>
      </g>
     </g>
    </g>
    <g id="ytick_6">
     <g id="line2d_71">
      <g>
       <use xlink:href="#m8e0d03382d" x="49.265625" y="166.212481" style="stroke: #000000"/>
      </g>
     </g>
    </g>
    <g id="ytick_7">
     <g id="line2d_72">
      <g>
       <use xlink:href="#m8e0d03382d" x="49.265625" y="129.510152" style="stroke: #000000"/>
      </g>
     </g>
    </g>
    <g id="ytick_8">
     <g id="line2d_73">
      <g>
       <use xlink:href="#m8e0d03382d" x="49.265625" y="111.158987" style="stroke: #000000"/>
      </g>
     </g>
    </g>
    <g id="ytick_9">
     <g id="line2d_74">
      <g>
       <use xlink:href="#m8e0d03382d" x="49.265625" y="92.807822" style="stroke: #000000"/>
      </g>
     </g>
    </g>
    <g id="ytick_10">
     <g id="line2d_75">
      <g>
       <use xlink:href="#m8e0d03382d" x="49.265625" y="56.105493" style="stroke: #000000"/>
      </g>
     </g>
    </g>
    <g id="ytick_11">
     <g id="line2d_76">
      <g>
       <use xlink:href="#m8e0d03382d" x="49.265625" y="37.754328" style="stroke: #000000"/>
      </g>
     </g>
    </g>
    <g id="text_11">
     <!-- Rabi rate (kHz) -->
     <g style="fill: #1f77b4" transform="translate(17.4875 191.50375) rotate(-90) scale(0.2 -0.2)">
      <defs>
       <path id="TimesNewRomanPSMT-52" d="M 4325 0 
L 3194 0 
L 1759 1981 
Q 1600 1975 1500 1975 
Q 1459 1975 1412 1976 
Q 1366 1978 1316 1981 
L 1316 750 
Q 1316 350 1403 253 
Q 1522 116 1759 116 
L 1925 116 
L 1925 0 
L 109 0 
L 109 116 
L 269 116 
Q 538 116 653 291 
Q 719 388 719 750 
L 719 3488 
Q 719 3888 631 3984 
Q 509 4122 269 4122 
L 109 4122 
L 109 4238 
L 1653 4238 
Q 2328 4238 2648 4139 
Q 2969 4041 3192 3777 
Q 3416 3513 3416 3147 
Q 3416 2756 3161 2468 
Q 2906 2181 2372 2063 
L 3247 847 
Q 3547 428 3762 290 
Q 3978 153 4325 116 
L 4325 0 
z
M 1316 2178 
Q 1375 2178 1419 2176 
Q 1463 2175 1491 2175 
Q 2097 2175 2405 2437 
Q 2713 2700 2713 3106 
Q 2713 3503 2464 3751 
Q 2216 4000 1806 4000 
Q 1625 4000 1316 3941 
L 1316 2178 
z
" transform="scale(0.015625)"/>
       <path id="TimesNewRomanPSMT-61" d="M 1822 413 
Q 1381 72 1269 19 
Q 1100 -59 909 -59 
Q 613 -59 420 144 
Q 228 347 228 678 
Q 228 888 322 1041 
Q 450 1253 767 1440 
Q 1084 1628 1822 1897 
L 1822 2009 
Q 1822 2438 1686 2597 
Q 1550 2756 1291 2756 
Q 1094 2756 978 2650 
Q 859 2544 859 2406 
L 866 2225 
Q 866 2081 792 2003 
Q 719 1925 600 1925 
Q 484 1925 411 2006 
Q 338 2088 338 2228 
Q 338 2497 613 2722 
Q 888 2947 1384 2947 
Q 1766 2947 2009 2819 
Q 2194 2722 2281 2516 
Q 2338 2381 2338 1966 
L 2338 994 
Q 2338 584 2353 492 
Q 2369 400 2405 369 
Q 2441 338 2488 338 
Q 2538 338 2575 359 
Q 2641 400 2828 588 
L 2828 413 
Q 2478 -56 2159 -56 
Q 2006 -56 1915 50 
Q 1825 156 1822 413 
z
M 1822 616 
L 1822 1706 
Q 1350 1519 1213 1441 
Q 966 1303 859 1153 
Q 753 1003 753 825 
Q 753 600 887 451 
Q 1022 303 1197 303 
Q 1434 303 1822 616 
z
" transform="scale(0.015625)"/>
       <path id="TimesNewRomanPSMT-62" d="M 984 2369 
Q 1400 2947 1881 2947 
Q 2322 2947 2650 2570 
Q 2978 2194 2978 1541 
Q 2978 778 2472 313 
Q 2038 -88 1503 -88 
Q 1253 -88 995 3 
Q 738 94 469 275 
L 469 3241 
Q 469 3728 445 3840 
Q 422 3953 372 3993 
Q 322 4034 247 4034 
Q 159 4034 28 3984 
L -16 4094 
L 844 4444 
L 984 4444 
L 984 2369 
z
M 984 2169 
L 984 456 
Q 1144 300 1314 220 
Q 1484 141 1663 141 
Q 1947 141 2192 453 
Q 2438 766 2438 1363 
Q 2438 1913 2192 2208 
Q 1947 2503 1634 2503 
Q 1469 2503 1303 2419 
Q 1178 2356 984 2169 
z
" transform="scale(0.015625)"/>
       <path id="TimesNewRomanPSMT-72" d="M 1038 2947 
L 1038 2303 
Q 1397 2947 1775 2947 
Q 1947 2947 2059 2842 
Q 2172 2738 2172 2600 
Q 2172 2478 2090 2393 
Q 2009 2309 1897 2309 
Q 1788 2309 1652 2417 
Q 1516 2525 1450 2525 
Q 1394 2525 1328 2463 
Q 1188 2334 1038 2041 
L 1038 669 
Q 1038 431 1097 309 
Q 1138 225 1241 169 
Q 1344 113 1538 113 
L 1538 0 
L 72 0 
L 72 113 
Q 291 113 397 181 
Q 475 231 506 341 
Q 522 394 522 644 
L 522 1753 
Q 522 2253 501 2348 
Q 481 2444 426 2487 
Q 372 2531 291 2531 
Q 194 2531 72 2484 
L 41 2597 
L 906 2947 
L 1038 2947 
z
" transform="scale(0.015625)"/>
       <path id="TimesNewRomanPSMT-74" d="M 1031 3803 
L 1031 2863 
L 1700 2863 
L 1700 2644 
L 1031 2644 
L 1031 788 
Q 1031 509 1111 412 
Q 1191 316 1316 316 
Q 1419 316 1516 380 
Q 1613 444 1666 569 
L 1788 569 
Q 1678 263 1478 108 
Q 1278 -47 1066 -47 
Q 922 -47 784 33 
Q 647 113 581 261 
Q 516 409 516 719 
L 516 2644 
L 63 2644 
L 63 2747 
Q 234 2816 414 2980 
Q 594 3144 734 3369 
Q 806 3488 934 3803 
L 1031 3803 
z
" transform="scale(0.015625)"/>
       <path id="TimesNewRomanPSMT-6b" d="M 1047 4444 
L 1047 1594 
L 1775 2259 
Q 2006 2472 2044 2528 
Q 2069 2566 2069 2603 
Q 2069 2666 2017 2711 
Q 1966 2756 1847 2763 
L 1847 2863 
L 3091 2863 
L 3091 2763 
Q 2834 2756 2664 2684 
Q 2494 2613 2291 2428 
L 1556 1750 
L 2291 822 
Q 2597 438 2703 334 
Q 2853 188 2966 144 
Q 3044 113 3238 113 
L 3238 0 
L 1847 0 
L 1847 113 
Q 1966 116 2008 148 
Q 2050 181 2050 241 
Q 2050 313 1925 472 
L 1047 1594 
L 1047 644 
Q 1047 366 1086 278 
Q 1125 191 1197 153 
Q 1269 116 1509 113 
L 1509 0 
L 53 0 
L 53 113 
Q 272 113 381 166 
Q 447 200 481 272 
Q 528 375 528 628 
L 528 3234 
Q 528 3731 506 3842 
Q 484 3953 434 3995 
Q 384 4038 303 4038 
Q 238 4038 106 3984 
L 53 4094 
L 903 4444 
L 1047 4444 
z
" transform="scale(0.015625)"/>
       <path id="TimesNewRomanPSMT-48" d="M 1316 2272 
L 3284 2272 
L 3284 3484 
Q 3284 3809 3244 3913 
Q 3213 3991 3113 4047 
Q 2978 4122 2828 4122 
L 2678 4122 
L 2678 4238 
L 4491 4238 
L 4491 4122 
L 4341 4122 
Q 4191 4122 4056 4050 
Q 3956 4000 3920 3898 
Q 3884 3797 3884 3484 
L 3884 750 
Q 3884 428 3925 325 
Q 3956 247 4053 191 
Q 4191 116 4341 116 
L 4491 116 
L 4491 0 
L 2678 0 
L 2678 116 
L 2828 116 
Q 3088 116 3206 269 
Q 3284 369 3284 750 
L 3284 2041 
L 1316 2041 
L 1316 750 
Q 1316 428 1356 325 
Q 1388 247 1488 191 
Q 1622 116 1772 116 
L 1925 116 
L 1925 0 
L 109 0 
L 109 116 
L 259 116 
Q 522 116 641 269 
Q 716 369 716 750 
L 716 3484 
Q 716 3809 675 3913 
Q 644 3991 547 4047 
Q 409 4122 259 4122 
L 109 4122 
L 109 4238 
L 1925 4238 
L 1925 4122 
L 1772 4122 
Q 1622 4122 1488 4050 
Q 1391 4000 1353 3898 
Q 1316 3797 1316 3484 
L 1316 2272 
z
" transform="scale(0.015625)"/>
       <path id="TimesNewRomanPSMT-7a" d="M 2688 878 
L 2653 0 
L 128 0 
L 128 113 
L 2028 2644 
L 1091 2644 
Q 788 2644 694 2605 
Q 600 2566 541 2456 
Q 456 2300 444 2069 
L 319 2069 
L 338 2863 
L 2738 2863 
L 2738 2747 
L 819 209 
L 1863 209 
Q 2191 209 2308 264 
Q 2425 319 2497 456 
Q 2547 556 2581 878 
L 2688 878 
z
" transform="scale(0.015625)"/>
      </defs>
      <use xlink:href="#TimesNewRomanPSMT-52"/>
      <use xlink:href="#TimesNewRomanPSMT-61" transform="translate(66.699219 0)"/>
      <use xlink:href="#TimesNewRomanPSMT-62" transform="translate(111.083984 0)"/>
      <use xlink:href="#TimesNewRomanPSMT-69" transform="translate(161.083984 0)"/>
      <use xlink:href="#TimesNewRomanPSMT-20" transform="translate(188.867188 0)"/>
      <use xlink:href="#TimesNewRomanPSMT-72" transform="translate(213.867188 0)"/>
      <use xlink:href="#TimesNewRomanPSMT-61" transform="translate(247.167969 0)"/>
      <use xlink:href="#TimesNewRomanPSMT-74" transform="translate(291.552734 0)"/>
      <use xlink:href="#TimesNewRomanPSMT-65" transform="translate(319.335938 0)"/>
      <use xlink:href="#TimesNewRomanPSMT-20" transform="translate(363.720703 0)"/>
      <use xlink:href="#TimesNewRomanPSMT-28" transform="translate(388.720703 0)"/>
      <use xlink:href="#TimesNewRomanPSMT-6b" transform="translate(422.021484 0)"/>
      <use xlink:href="#TimesNewRomanPSMT-48" transform="translate(472.021484 0)"/>
      <use xlink:href="#TimesNewRomanPSMT-7a" transform="translate(544.238281 0)"/>
      <use xlink:href="#TimesNewRomanPSMT-29" transform="translate(588.623047 0)"/>
     </g>
    </g>
   </g>
   <g id="line2d_77">
    <path d="M 71.492131 220.864545 
L 84.396409 220.465185 
L 94.185862 219.950528 
L 102.640389 219.284772 
L 109.75999 218.507102 
L 115.989642 217.617754 
L 121.774318 216.577618 
L 127.114019 215.399439 
L 132.008745 214.105662 
L 136.903472 212.578327 
L 141.353223 210.962118 
L 145.802974 209.105091 
L 149.807749 207.208387 
L 153.812525 205.080357 
L 157.817301 202.704152 
L 161.822077 200.063587 
L 165.826853 197.143505 
L 169.831629 193.930188 
L 173.836405 190.411779 
L 177.841181 186.578737 
L 181.845957 182.424292 
L 185.850733 177.944903 
L 189.855509 173.140705 
L 194.30526 167.427053 
L 198.755011 161.330047 
L 203.204762 154.869381 
L 208.099488 147.375678 
L 213.439189 138.793618 
L 219.668841 128.347492 
L 228.123368 113.691613 
L 241.917596 89.754781 
L 247.702272 80.189472 
L 252.596998 72.521467 
L 256.601774 66.623497 
L 260.60655 61.129785 
L 264.166351 56.633429 
L 267.281177 53.029887 
L 270.396002 49.760575 
L 273.065853 47.241335 
L 275.735704 44.996926 
L 278.405554 43.038871 
L 281.075405 41.377307 
L 283.30028 40.225449 
L 285.525156 39.289719 
L 287.750031 38.573538 
L 289.974907 38.079529 
L 292.199782 37.809507 
L 294.424658 37.764464 
L 296.649533 37.944568 
L 298.874409 38.349154 
L 301.099284 38.976736 
L 303.32416 39.825012 
L 305.549035 40.890879 
L 307.773911 42.170451 
L 310.443762 43.981437 
L 313.113612 46.084025 
L 315.783463 48.467373 
L 318.898289 51.586476 
L 322.013114 55.049645 
L 325.12794 58.833382 
L 328.687741 63.517694 
L 332.692517 69.198507 
L 337.142268 75.950291 
L 342.036994 83.813214 
L 347.82167 93.541095 
L 356.721172 109.013515 
L 368.7355 129.863304 
L 375.410127 140.975131 
L 380.749828 149.45722 
L 385.644554 156.844284 
L 390.53928 163.813762 
L 394.989031 169.759366 
L 399.438782 175.315833 
L 403.443558 179.97594 
L 407.448334 184.310698 
L 411.45311 188.321657 
L 415.457886 192.013851 
L 419.462662 195.395338 
L 423.467438 198.476744 
L 427.472214 201.270807 
L 431.47699 203.791937 
L 435.481765 206.055797 
L 439.486541 208.078909 
L 443.936292 210.065175 
L 448.386043 211.798862 
L 452.835795 213.303395 
L 457.730521 214.720957 
L 463.070222 216.016873 
L 468.409923 217.085856 
L 474.194599 218.025669 
L 480.869226 218.87547 
L 487.988828 219.558719 
L 496.443355 220.139797 
L 506.232807 220.585569 
L 516.022259 220.864545 
L 516.022259 220.864545 
" clip-path="url(#p74a3d105fa)" style="fill: none; stroke: #1f77b4; stroke-width: 2; stroke-linecap: square"/>
   </g>
   <g id="patch_3">
    <path d="M 49.265625 230.02 
L 49.265625 28.6 
" style="fill: none; stroke: #000000; stroke-linejoin: miter; stroke-linecap: square"/>
   </g>
   <g id="patch_4">
    <path d="M 538.248765 230.02 
L 538.248765 28.6 
" style="fill: none; stroke: #000000; stroke-linejoin: miter; stroke-linecap: square"/>
   </g>
   <g id="patch_5">
    <path d="M 49.265625 230.02 
L 538.248765 230.02 
" style="fill: none; stroke: #000000; stroke-linejoin: miter; stroke-linecap: square"/>
   </g>
   <g id="patch_6">
    <path d="M 49.265625 28.6 
L 538.248765 28.6 
" style="fill: none; stroke: #000000; stroke-linejoin: miter; stroke-linecap: square"/>
   </g>
  </g>
  <g id="axes_2">
   <g id="patch_7">
    <path d="M 647.688765 230.02 
L 1136.671906 230.02 
L 1136.671906 28.6 
L 647.688765 28.6 
z
" style="fill: #ffffff"/>
   </g>
   <g id="matplotlib.axis_3">
    <g id="xtick_29">
     <g id="line2d_78">
      <path d="M 669.915272 230.02 
L 669.915272 28.6 
" clip-path="url(#p7c7b827981)" style="fill: none; stroke: #b0b0b0; stroke-linecap: square"/>
     </g>
     <g id="line2d_79">
      <g>
       <use xlink:href="#m4b621ab1f1" x="669.915272" y="230.02" style="stroke: #000000"/>
      </g>
     </g>
     <g id="line2d_80">
      <g>
       <use xlink:href="#m5819bcc387" x="669.915272" y="28.6" style="stroke: #000000"/>
      </g>
     </g>
     <g id="text_12">
      <!-- 0 -->
      <g transform="translate(665.915272 244.63) scale(0.16 -0.16)">
       <use xlink:href="#TimesNewRomanPSMT-30"/>
      </g>
     </g>
    </g>
    <g id="xtick_30">
     <g id="line2d_81">
      <path d="M 758.821297 230.02 
L 758.821297 28.6 
" clip-path="url(#p7c7b827981)" style="fill: none; stroke: #b0b0b0; stroke-linecap: square"/>
     </g>
     <g id="line2d_82">
      <g>
       <use xlink:href="#m4b621ab1f1" x="758.821297" y="230.02" style="stroke: #000000"/>
      </g>
     </g>
     <g id="line2d_83">
      <g>
       <use xlink:href="#m5819bcc387" x="758.821297" y="28.6" style="stroke: #000000"/>
      </g>
     </g>
     <g id="text_13">
      <!-- 10000 -->
      <g transform="translate(738.821297 244.63) scale(0.16 -0.16)">
       <use xlink:href="#TimesNewRomanPSMT-31"/>
       <use xlink:href="#TimesNewRomanPSMT-30" transform="translate(50 0)"/>
       <use xlink:href="#TimesNewRomanPSMT-30" transform="translate(100 0)"/>
       <use xlink:href="#TimesNewRomanPSMT-30" transform="translate(150 0)"/>
       <use xlink:href="#TimesNewRomanPSMT-30" transform="translate(200 0)"/>
      </g>
     </g>
    </g>
    <g id="xtick_31">
     <g id="line2d_84">
      <path d="M 847.727323 230.02 
L 847.727323 28.6 
" clip-path="url(#p7c7b827981)" style="fill: none; stroke: #b0b0b0; stroke-linecap: square"/>
     </g>
     <g id="line2d_85">
      <g>
       <use xlink:href="#m4b621ab1f1" x="847.727323" y="230.02" style="stroke: #000000"/>
      </g>
     </g>
     <g id="line2d_86">
      <g>
       <use xlink:href="#m5819bcc387" x="847.727323" y="28.6" style="stroke: #000000"/>
      </g>
     </g>
     <g id="text_14">
      <!-- 20000 -->
      <g transform="translate(827.727323 244.63) scale(0.16 -0.16)">
       <use xlink:href="#TimesNewRomanPSMT-32"/>
       <use xlink:href="#TimesNewRomanPSMT-30" transform="translate(50 0)"/>
       <use xlink:href="#TimesNewRomanPSMT-30" transform="translate(100 0)"/>
       <use xlink:href="#TimesNewRomanPSMT-30" transform="translate(150 0)"/>
       <use xlink:href="#TimesNewRomanPSMT-30" transform="translate(200 0)"/>
      </g>
     </g>
    </g>
    <g id="xtick_32">
     <g id="line2d_87">
      <path d="M 936.633349 230.02 
L 936.633349 28.6 
" clip-path="url(#p7c7b827981)" style="fill: none; stroke: #b0b0b0; stroke-linecap: square"/>
     </g>
     <g id="line2d_88">
      <g>
       <use xlink:href="#m4b621ab1f1" x="936.633349" y="230.02" style="stroke: #000000"/>
      </g>
     </g>
     <g id="line2d_89">
      <g>
       <use xlink:href="#m5819bcc387" x="936.633349" y="28.6" style="stroke: #000000"/>
      </g>
     </g>
     <g id="text_15">
      <!-- 30000 -->
      <g transform="translate(916.633349 244.63) scale(0.16 -0.16)">
       <use xlink:href="#TimesNewRomanPSMT-33"/>
       <use xlink:href="#TimesNewRomanPSMT-30" transform="translate(50 0)"/>
       <use xlink:href="#TimesNewRomanPSMT-30" transform="translate(100 0)"/>
       <use xlink:href="#TimesNewRomanPSMT-30" transform="translate(150 0)"/>
       <use xlink:href="#TimesNewRomanPSMT-30" transform="translate(200 0)"/>
      </g>
     </g>
    </g>
    <g id="xtick_33">
     <g id="line2d_90">
      <path d="M 1025.539374 230.02 
L 1025.539374 28.6 
" clip-path="url(#p7c7b827981)" style="fill: none; stroke: #b0b0b0; stroke-linecap: square"/>
     </g>
     <g id="line2d_91">
      <g>
       <use xlink:href="#m4b621ab1f1" x="1025.539374" y="230.02" style="stroke: #000000"/>
      </g>
     </g>
     <g id="line2d_92">
      <g>
       <use xlink:href="#m5819bcc387" x="1025.539374" y="28.6" style="stroke: #000000"/>
      </g>
     </g>
     <g id="text_16">
      <!-- 40000 -->
      <g transform="translate(1005.539374 244.63) scale(0.16 -0.16)">
       <use xlink:href="#TimesNewRomanPSMT-34"/>
       <use xlink:href="#TimesNewRomanPSMT-30" transform="translate(50 0)"/>
       <use xlink:href="#TimesNewRomanPSMT-30" transform="translate(100 0)"/>
       <use xlink:href="#TimesNewRomanPSMT-30" transform="translate(150 0)"/>
       <use xlink:href="#TimesNewRomanPSMT-30" transform="translate(200 0)"/>
      </g>
     </g>
    </g>
    <g id="xtick_34">
     <g id="line2d_93">
      <path d="M 1114.4454 230.02 
L 1114.4454 28.6 
" clip-path="url(#p7c7b827981)" style="fill: none; stroke: #b0b0b0; stroke-linecap: square"/>
     </g>
     <g id="line2d_94">
      <g>
       <use xlink:href="#m4b621ab1f1" x="1114.4454" y="230.02" style="stroke: #000000"/>
      </g>
     </g>
     <g id="line2d_95">
      <g>
       <use xlink:href="#m5819bcc387" x="1114.4454" y="28.6" style="stroke: #000000"/>
      </g>
     </g>
     <g id="text_17">
      <!-- 50000 -->
      <g transform="translate(1094.4454 244.63) scale(0.16 -0.16)">
       <use xlink:href="#TimesNewRomanPSMT-35"/>
       <use xlink:href="#TimesNewRomanPSMT-30" transform="translate(50 0)"/>
       <use xlink:href="#TimesNewRomanPSMT-30" transform="translate(100 0)"/>
       <use xlink:href="#TimesNewRomanPSMT-30" transform="translate(150 0)"/>
       <use xlink:href="#TimesNewRomanPSMT-30" transform="translate(200 0)"/>
      </g>
     </g>
    </g>
    <g id="xtick_35">
     <g id="line2d_96">
      <g>
       <use xlink:href="#mb05602a39e" x="652.134067" y="230.02" style="stroke: #000000"/>
      </g>
     </g>
     <g id="line2d_97">
      <g>
       <use xlink:href="#m7af38ce9ad" x="652.134067" y="28.6" style="stroke: #000000"/>
      </g>
     </g>
    </g>
    <g id="xtick_36">
     <g id="line2d_98">
      <g>
       <use xlink:href="#mb05602a39e" x="687.696477" y="230.02" style="stroke: #000000"/>
      </g>
     </g>
     <g id="line2d_99">
      <g>
       <use xlink:href="#m7af38ce9ad" x="687.696477" y="28.6" style="stroke: #000000"/>
      </g>
     </g>
    </g>
    <g id="xtick_37">
     <g id="line2d_100">
      <g>
       <use xlink:href="#mb05602a39e" x="705.477682" y="230.02" style="stroke: #000000"/>
      </g>
     </g>
     <g id="line2d_101">
      <g>
       <use xlink:href="#m7af38ce9ad" x="705.477682" y="28.6" style="stroke: #000000"/>
      </g>
     </g>
    </g>
    <g id="xtick_38">
     <g id="line2d_102">
      <g>
       <use xlink:href="#mb05602a39e" x="723.258887" y="230.02" style="stroke: #000000"/>
      </g>
     </g>
     <g id="line2d_103">
      <g>
       <use xlink:href="#m7af38ce9ad" x="723.258887" y="28.6" style="stroke: #000000"/>
      </g>
     </g>
    </g>
    <g id="xtick_39">
     <g id="line2d_104">
      <g>
       <use xlink:href="#mb05602a39e" x="741.040092" y="230.02" style="stroke: #000000"/>
      </g>
     </g>
     <g id="line2d_105">
      <g>
       <use xlink:href="#m7af38ce9ad" x="741.040092" y="28.6" style="stroke: #000000"/>
      </g>
     </g>
    </g>
    <g id="xtick_40">
     <g id="line2d_106">
      <g>
       <use xlink:href="#mb05602a39e" x="776.602503" y="230.02" style="stroke: #000000"/>
      </g>
     </g>
     <g id="line2d_107">
      <g>
       <use xlink:href="#m7af38ce9ad" x="776.602503" y="28.6" style="stroke: #000000"/>
      </g>
     </g>
    </g>
    <g id="xtick_41">
     <g id="line2d_108">
      <g>
       <use xlink:href="#mb05602a39e" x="794.383708" y="230.02" style="stroke: #000000"/>
      </g>
     </g>
     <g id="line2d_109">
      <g>
       <use xlink:href="#m7af38ce9ad" x="794.383708" y="28.6" style="stroke: #000000"/>
      </g>
     </g>
    </g>
    <g id="xtick_42">
     <g id="line2d_110">
      <g>
       <use xlink:href="#mb05602a39e" x="812.164913" y="230.02" style="stroke: #000000"/>
      </g>
     </g>
     <g id="line2d_111">
      <g>
       <use xlink:href="#m7af38ce9ad" x="812.164913" y="28.6" style="stroke: #000000"/>
      </g>
     </g>
    </g>
    <g id="xtick_43">
     <g id="line2d_112">
      <g>
       <use xlink:href="#mb05602a39e" x="829.946118" y="230.02" style="stroke: #000000"/>
      </g>
     </g>
     <g id="line2d_113">
      <g>
       <use xlink:href="#m7af38ce9ad" x="829.946118" y="28.6" style="stroke: #000000"/>
      </g>
     </g>
    </g>
    <g id="xtick_44">
     <g id="line2d_114">
      <g>
       <use xlink:href="#mb05602a39e" x="865.508528" y="230.02" style="stroke: #000000"/>
      </g>
     </g>
     <g id="line2d_115">
      <g>
       <use xlink:href="#m7af38ce9ad" x="865.508528" y="28.6" style="stroke: #000000"/>
      </g>
     </g>
    </g>
    <g id="xtick_45">
     <g id="line2d_116">
      <g>
       <use xlink:href="#mb05602a39e" x="883.289733" y="230.02" style="stroke: #000000"/>
      </g>
     </g>
     <g id="line2d_117">
      <g>
       <use xlink:href="#m7af38ce9ad" x="883.289733" y="28.6" style="stroke: #000000"/>
      </g>
     </g>
    </g>
    <g id="xtick_46">
     <g id="line2d_118">
      <g>
       <use xlink:href="#mb05602a39e" x="901.070938" y="230.02" style="stroke: #000000"/>
      </g>
     </g>
     <g id="line2d_119">
      <g>
       <use xlink:href="#m7af38ce9ad" x="901.070938" y="28.6" style="stroke: #000000"/>
      </g>
     </g>
    </g>
    <g id="xtick_47">
     <g id="line2d_120">
      <g>
       <use xlink:href="#mb05602a39e" x="918.852143" y="230.02" style="stroke: #000000"/>
      </g>
     </g>
     <g id="line2d_121">
      <g>
       <use xlink:href="#m7af38ce9ad" x="918.852143" y="28.6" style="stroke: #000000"/>
      </g>
     </g>
    </g>
    <g id="xtick_48">
     <g id="line2d_122">
      <g>
       <use xlink:href="#mb05602a39e" x="954.414554" y="230.02" style="stroke: #000000"/>
      </g>
     </g>
     <g id="line2d_123">
      <g>
       <use xlink:href="#m7af38ce9ad" x="954.414554" y="28.6" style="stroke: #000000"/>
      </g>
     </g>
    </g>
    <g id="xtick_49">
     <g id="line2d_124">
      <g>
       <use xlink:href="#mb05602a39e" x="972.195759" y="230.02" style="stroke: #000000"/>
      </g>
     </g>
     <g id="line2d_125">
      <g>
       <use xlink:href="#m7af38ce9ad" x="972.195759" y="28.6" style="stroke: #000000"/>
      </g>
     </g>
    </g>
    <g id="xtick_50">
     <g id="line2d_126">
      <g>
       <use xlink:href="#mb05602a39e" x="989.976964" y="230.02" style="stroke: #000000"/>
      </g>
     </g>
     <g id="line2d_127">
      <g>
       <use xlink:href="#m7af38ce9ad" x="989.976964" y="28.6" style="stroke: #000000"/>
      </g>
     </g>
    </g>
    <g id="xtick_51">
     <g id="line2d_128">
      <g>
       <use xlink:href="#mb05602a39e" x="1007.758169" y="230.02" style="stroke: #000000"/>
      </g>
     </g>
     <g id="line2d_129">
      <g>
       <use xlink:href="#m7af38ce9ad" x="1007.758169" y="28.6" style="stroke: #000000"/>
      </g>
     </g>
    </g>
    <g id="xtick_52">
     <g id="line2d_130">
      <g>
       <use xlink:href="#mb05602a39e" x="1043.320579" y="230.02" style="stroke: #000000"/>
      </g>
     </g>
     <g id="line2d_131">
      <g>
       <use xlink:href="#m7af38ce9ad" x="1043.320579" y="28.6" style="stroke: #000000"/>
      </g>
     </g>
    </g>
    <g id="xtick_53">
     <g id="line2d_132">
      <g>
       <use xlink:href="#mb05602a39e" x="1061.101784" y="230.02" style="stroke: #000000"/>
      </g>
     </g>
     <g id="line2d_133">
      <g>
       <use xlink:href="#m7af38ce9ad" x="1061.101784" y="28.6" style="stroke: #000000"/>
      </g>
     </g>
    </g>
    <g id="xtick_54">
     <g id="line2d_134">
      <g>
       <use xlink:href="#mb05602a39e" x="1078.882989" y="230.02" style="stroke: #000000"/>
      </g>
     </g>
     <g id="line2d_135">
      <g>
       <use xlink:href="#m7af38ce9ad" x="1078.882989" y="28.6" style="stroke: #000000"/>
      </g>
     </g>
    </g>
    <g id="xtick_55">
     <g id="line2d_136">
      <g>
       <use xlink:href="#mb05602a39e" x="1096.664194" y="230.02" style="stroke: #000000"/>
      </g>
     </g>
     <g id="line2d_137">
      <g>
       <use xlink:href="#m7af38ce9ad" x="1096.664194" y="28.6" style="stroke: #000000"/>
      </g>
     </g>
    </g>
    <g id="xtick_56">
     <g id="line2d_138">
      <g>
       <use xlink:href="#mb05602a39e" x="1132.226605" y="230.02" style="stroke: #000000"/>
      </g>
     </g>
     <g id="line2d_139">
      <g>
       <use xlink:href="#m7af38ce9ad" x="1132.226605" y="28.6" style="stroke: #000000"/>
      </g>
     </g>
    </g>
    <g id="text_18">
     <!-- Time (ms) -->
     <g transform="translate(850.597523 265.94) scale(0.2 -0.2)">
      <use xlink:href="#TimesNewRomanPSMT-54"/>
      <use xlink:href="#TimesNewRomanPSMT-69" transform="translate(57.583984 0)"/>
      <use xlink:href="#TimesNewRomanPSMT-6d" transform="translate(85.367188 0)"/>
      <use xlink:href="#TimesNewRomanPSMT-65" transform="translate(163.150391 0)"/>
      <use xlink:href="#TimesNewRomanPSMT-20" transform="translate(207.535156 0)"/>
      <use xlink:href="#TimesNewRomanPSMT-28" transform="translate(232.535156 0)"/>
      <use xlink:href="#TimesNewRomanPSMT-6d" transform="translate(265.835938 0)"/>
      <use xlink:href="#TimesNewRomanPSMT-73" transform="translate(343.619141 0)"/>
      <use xlink:href="#TimesNewRomanPSMT-29" transform="translate(382.535156 0)"/>
     </g>
    </g>
   </g>
   <g id="matplotlib.axis_4">
    <g id="ytick_12">
     <g id="line2d_140">
      <path d="M 647.688765 212.010794 
L 1136.671906 212.010794 
" clip-path="url(#p7c7b827981)" style="fill: none; stroke: #b0b0b0; stroke-linecap: square"/>
     </g>
     <g id="line2d_141">
      <g>
       <use xlink:href="#m2cf4f3fbf2" x="647.688765" y="212.010794" style="stroke: #000000"/>
      </g>
     </g>
     <g id="line2d_142">
      <defs>
       <path id="m7d1f34cfa6" d="M 0 0 
L -6 0 
" style="stroke: #000000"/>
      </defs>
      <g>
       <use xlink:href="#m7d1f34cfa6" x="1136.671906" y="212.010794" style="stroke: #000000"/>
      </g>
     </g>
     <g id="text_19">
      <!-- 1 -->
      <g transform="translate(636.188765 217.565794) scale(0.16 -0.16)">
       <use xlink:href="#TimesNewRomanPSMT-31"/>
      </g>
     </g>
    </g>
    <g id="ytick_13">
     <g id="line2d_143">
      <path d="M 647.688765 158.482116 
L 1136.671906 158.482116 
" clip-path="url(#p7c7b827981)" style="fill: none; stroke: #b0b0b0; stroke-linecap: square"/>
     </g>
     <g id="line2d_144">
      <g>
       <use xlink:href="#m2cf4f3fbf2" x="647.688765" y="158.482116" style="stroke: #000000"/>
      </g>
     </g>
     <g id="line2d_145">
      <g>
       <use xlink:href="#m7d1f34cfa6" x="1136.671906" y="158.482116" style="stroke: #000000"/>
      </g>
     </g>
     <g id="text_20">
      <!-- 2 -->
      <g transform="translate(636.188765 164.037116) scale(0.16 -0.16)">
       <use xlink:href="#TimesNewRomanPSMT-32"/>
      </g>
     </g>
    </g>
    <g id="ytick_14">
     <g id="line2d_146">
      <path d="M 647.688765 104.953437 
L 1136.671906 104.953437 
" clip-path="url(#p7c7b827981)" style="fill: none; stroke: #b0b0b0; stroke-linecap: square"/>
     </g>
     <g id="line2d_147">
      <g>
       <use xlink:href="#m2cf4f3fbf2" x="647.688765" y="104.953437" style="stroke: #000000"/>
      </g>
     </g>
     <g id="line2d_148">
      <g>
       <use xlink:href="#m7d1f34cfa6" x="1136.671906" y="104.953437" style="stroke: #000000"/>
      </g>
     </g>
     <g id="text_21">
      <!-- 3 -->
      <g transform="translate(636.188765 110.508437) scale(0.16 -0.16)">
       <use xlink:href="#TimesNewRomanPSMT-33"/>
      </g>
     </g>
    </g>
    <g id="ytick_15">
     <g id="line2d_149">
      <path d="M 647.688765 51.424759 
L 1136.671906 51.424759 
" clip-path="url(#p7c7b827981)" style="fill: none; stroke: #b0b0b0; stroke-linecap: square"/>
     </g>
     <g id="line2d_150">
      <g>
       <use xlink:href="#m2cf4f3fbf2" x="647.688765" y="51.424759" style="stroke: #000000"/>
      </g>
     </g>
     <g id="line2d_151">
      <g>
       <use xlink:href="#m7d1f34cfa6" x="1136.671906" y="51.424759" style="stroke: #000000"/>
      </g>
     </g>
     <g id="text_22">
      <!-- 4 -->
      <g transform="translate(636.188765 56.979759) scale(0.16 -0.16)">
       <use xlink:href="#TimesNewRomanPSMT-34"/>
      </g>
     </g>
    </g>
    <g id="ytick_16">
     <g id="line2d_152">
      <g>
       <use xlink:href="#m8e0d03382d" x="647.688765" y="222.71653" style="stroke: #000000"/>
      </g>
     </g>
     <g id="line2d_153">
      <defs>
       <path id="m011203925e" d="M 0 0 
L -3 0 
" style="stroke: #000000"/>
      </defs>
      <g>
       <use xlink:href="#m011203925e" x="1136.671906" y="222.71653" style="stroke: #000000"/>
      </g>
     </g>
    </g>
    <g id="ytick_17">
     <g id="line2d_154">
      <g>
       <use xlink:href="#m8e0d03382d" x="647.688765" y="201.305059" style="stroke: #000000"/>
      </g>
     </g>
     <g id="line2d_155">
      <g>
       <use xlink:href="#m011203925e" x="1136.671906" y="201.305059" style="stroke: #000000"/>
      </g>
     </g>
    </g>
    <g id="ytick_18">
     <g id="line2d_156">
      <g>
       <use xlink:href="#m8e0d03382d" x="647.688765" y="190.599323" style="stroke: #000000"/>
      </g>
     </g>
     <g id="line2d_157">
      <g>
       <use xlink:href="#m011203925e" x="1136.671906" y="190.599323" style="stroke: #000000"/>
      </g>
     </g>
    </g>
    <g id="ytick_19">
     <g id="line2d_158">
      <g>
       <use xlink:href="#m8e0d03382d" x="647.688765" y="179.893587" style="stroke: #000000"/>
      </g>
     </g>
     <g id="line2d_159">
      <g>
       <use xlink:href="#m011203925e" x="1136.671906" y="179.893587" style="stroke: #000000"/>
      </g>
     </g>
    </g>
    <g id="ytick_20">
     <g id="line2d_160">
      <g>
       <use xlink:href="#m8e0d03382d" x="647.688765" y="169.187852" style="stroke: #000000"/>
      </g>
     </g>
     <g id="line2d_161">
      <g>
       <use xlink:href="#m011203925e" x="1136.671906" y="169.187852" style="stroke: #000000"/>
      </g>
     </g>
    </g>
    <g id="ytick_21">
     <g id="line2d_162">
      <g>
       <use xlink:href="#m8e0d03382d" x="647.688765" y="147.77638" style="stroke: #000000"/>
      </g>
     </g>
     <g id="line2d_163">
      <g>
       <use xlink:href="#m011203925e" x="1136.671906" y="147.77638" style="stroke: #000000"/>
      </g>
     </g>
    </g>
    <g id="ytick_22">
     <g id="line2d_164">
      <g>
       <use xlink:href="#m8e0d03382d" x="647.688765" y="137.070644" style="stroke: #000000"/>
      </g>
     </g>
     <g id="line2d_165">
      <g>
       <use xlink:href="#m011203925e" x="1136.671906" y="137.070644" style="stroke: #000000"/>
      </g>
     </g>
    </g>
    <g id="ytick_23">
     <g id="line2d_166">
      <g>
       <use xlink:href="#m8e0d03382d" x="647.688765" y="126.364909" style="stroke: #000000"/>
      </g>
     </g>
     <g id="line2d_167">
      <g>
       <use xlink:href="#m011203925e" x="1136.671906" y="126.364909" style="stroke: #000000"/>
      </g>
     </g>
    </g>
    <g id="ytick_24">
     <g id="line2d_168">
      <g>
       <use xlink:href="#m8e0d03382d" x="647.688765" y="115.659173" style="stroke: #000000"/>
      </g>
     </g>
     <g id="line2d_169">
      <g>
       <use xlink:href="#m011203925e" x="1136.671906" y="115.659173" style="stroke: #000000"/>
      </g>
     </g>
    </g>
    <g id="ytick_25">
     <g id="line2d_170">
      <g>
       <use xlink:href="#m8e0d03382d" x="647.688765" y="94.247702" style="stroke: #000000"/>
      </g>
     </g>
     <g id="line2d_171">
      <g>
       <use xlink:href="#m011203925e" x="1136.671906" y="94.247702" style="stroke: #000000"/>
      </g>
     </g>
    </g>
    <g id="ytick_26">
     <g id="line2d_172">
      <g>
       <use xlink:href="#m8e0d03382d" x="647.688765" y="83.541966" style="stroke: #000000"/>
      </g>
     </g>
     <g id="line2d_173">
      <g>
       <use xlink:href="#m011203925e" x="1136.671906" y="83.541966" style="stroke: #000000"/>
      </g>
     </g>
    </g>
    <g id="ytick_27">
     <g id="line2d_174">
      <g>
       <use xlink:href="#m8e0d03382d" x="647.688765" y="72.83623" style="stroke: #000000"/>
      </g>
     </g>
     <g id="line2d_175">
      <g>
       <use xlink:href="#m011203925e" x="1136.671906" y="72.83623" style="stroke: #000000"/>
      </g>
     </g>
    </g>
    <g id="ytick_28">
     <g id="line2d_176">
      <g>
       <use xlink:href="#m8e0d03382d" x="647.688765" y="62.130495" style="stroke: #000000"/>
      </g>
     </g>
     <g id="line2d_177">
      <g>
       <use xlink:href="#m011203925e" x="1136.671906" y="62.130495" style="stroke: #000000"/>
      </g>
     </g>
    </g>
    <g id="ytick_29">
     <g id="line2d_178">
      <g>
       <use xlink:href="#m8e0d03382d" x="647.688765" y="40.719023" style="stroke: #000000"/>
      </g>
     </g>
     <g id="line2d_179">
      <g>
       <use xlink:href="#m011203925e" x="1136.671906" y="40.719023" style="stroke: #000000"/>
      </g>
     </g>
    </g>
    <g id="ytick_30">
     <g id="line2d_180">
      <g>
       <use xlink:href="#m8e0d03382d" x="647.688765" y="30.013287" style="stroke: #000000"/>
      </g>
     </g>
     <g id="line2d_181">
      <g>
       <use xlink:href="#m011203925e" x="1136.671906" y="30.013287" style="stroke: #000000"/>
      </g>
     </g>
    </g>
    <g id="text_23">
     <!-- Adiabaticity Value -->
     <g transform="translate(627.87314 203.830312) rotate(-90) scale(0.2 -0.2)">
      <defs>
       <path id="TimesNewRomanPSMT-41" d="M 2928 1419 
L 1288 1419 
L 1000 750 
Q 894 503 894 381 
Q 894 284 986 211 
Q 1078 138 1384 116 
L 1384 0 
L 50 0 
L 50 116 
Q 316 163 394 238 
Q 553 388 747 847 
L 2238 4334 
L 2347 4334 
L 3822 809 
Q 4000 384 4145 257 
Q 4291 131 4550 116 
L 4550 0 
L 2878 0 
L 2878 116 
Q 3131 128 3220 200 
Q 3309 272 3309 375 
Q 3309 513 3184 809 
L 2928 1419 
z
M 2841 1650 
L 2122 3363 
L 1384 1650 
L 2841 1650 
z
" transform="scale(0.015625)"/>
       <path id="TimesNewRomanPSMT-64" d="M 2222 322 
Q 2013 103 1813 7 
Q 1613 -88 1381 -88 
Q 913 -88 563 304 
Q 213 697 213 1313 
Q 213 1928 600 2439 
Q 988 2950 1597 2950 
Q 1975 2950 2222 2709 
L 2222 3238 
Q 2222 3728 2198 3840 
Q 2175 3953 2125 3993 
Q 2075 4034 2000 4034 
Q 1919 4034 1784 3984 
L 1744 4094 
L 2597 4444 
L 2738 4444 
L 2738 1134 
Q 2738 631 2761 520 
Q 2784 409 2836 365 
Q 2888 322 2956 322 
Q 3041 322 3181 375 
L 3216 266 
L 2366 -88 
L 2222 -88 
L 2222 322 
z
M 2222 541 
L 2222 2016 
Q 2203 2228 2109 2403 
Q 2016 2578 1861 2667 
Q 1706 2756 1559 2756 
Q 1284 2756 1069 2509 
Q 784 2184 784 1559 
Q 784 928 1059 592 
Q 1334 256 1672 256 
Q 1956 256 2222 541 
z
" transform="scale(0.015625)"/>
       <path id="TimesNewRomanPSMT-63" d="M 2631 1088 
Q 2516 522 2178 217 
Q 1841 -88 1431 -88 
Q 944 -88 581 321 
Q 219 731 219 1428 
Q 219 2103 620 2525 
Q 1022 2947 1584 2947 
Q 2006 2947 2278 2723 
Q 2550 2500 2550 2259 
Q 2550 2141 2473 2067 
Q 2397 1994 2259 1994 
Q 2075 1994 1981 2113 
Q 1928 2178 1911 2362 
Q 1894 2547 1784 2644 
Q 1675 2738 1481 2738 
Q 1169 2738 978 2506 
Q 725 2200 725 1697 
Q 725 1184 976 792 
Q 1228 400 1656 400 
Q 1963 400 2206 609 
Q 2378 753 2541 1131 
L 2631 1088 
z
" transform="scale(0.015625)"/>
       <path id="TimesNewRomanPSMT-79" d="M 38 2863 
L 1372 2863 
L 1372 2747 
L 1306 2747 
Q 1166 2747 1095 2686 
Q 1025 2625 1025 2534 
Q 1025 2413 1128 2197 
L 1825 753 
L 2466 2334 
Q 2519 2463 2519 2588 
Q 2519 2644 2497 2672 
Q 2472 2706 2419 2726 
Q 2366 2747 2231 2747 
L 2231 2863 
L 3163 2863 
L 3163 2747 
Q 3047 2734 2984 2696 
Q 2922 2659 2847 2556 
Q 2819 2513 2741 2316 
L 1575 -541 
Q 1406 -956 1132 -1168 
Q 859 -1381 606 -1381 
Q 422 -1381 303 -1275 
Q 184 -1169 184 -1031 
Q 184 -900 270 -820 
Q 356 -741 506 -741 
Q 609 -741 788 -809 
Q 913 -856 944 -856 
Q 1038 -856 1148 -759 
Q 1259 -663 1372 -384 
L 1575 113 
L 547 2272 
Q 500 2369 397 2513 
Q 319 2622 269 2659 
Q 197 2709 38 2747 
L 38 2863 
z
" transform="scale(0.015625)"/>
       <path id="TimesNewRomanPSMT-56" d="M 4544 4238 
L 4544 4122 
Q 4319 4081 4203 3978 
Q 4038 3825 3909 3509 
L 2431 -97 
L 2316 -97 
L 728 3556 
Q 606 3838 556 3900 
Q 478 3997 364 4051 
Q 250 4106 56 4122 
L 56 4238 
L 1788 4238 
L 1788 4122 
Q 1494 4094 1406 4022 
Q 1319 3950 1319 3838 
Q 1319 3681 1463 3350 
L 2541 866 
L 3541 3319 
Q 3688 3681 3688 3822 
Q 3688 3913 3597 3995 
Q 3506 4078 3291 4113 
Q 3275 4116 3238 4122 
L 3238 4238 
L 4544 4238 
z
" transform="scale(0.015625)"/>
       <path id="TimesNewRomanPSMT-6c" d="M 1184 4444 
L 1184 647 
Q 1184 378 1223 290 
Q 1263 203 1344 158 
Q 1425 113 1647 113 
L 1647 0 
L 244 0 
L 244 113 
Q 441 113 512 153 
Q 584 194 625 287 
Q 666 381 666 647 
L 666 3247 
Q 666 3731 644 3842 
Q 622 3953 573 3993 
Q 525 4034 450 4034 
Q 369 4034 244 3984 
L 191 4094 
L 1044 4444 
L 1184 4444 
z
" transform="scale(0.015625)"/>
       <path id="TimesNewRomanPSMT-75" d="M 2709 2863 
L 2709 1128 
Q 2709 631 2732 520 
Q 2756 409 2807 365 
Q 2859 322 2928 322 
Q 3025 322 3147 375 
L 3191 266 
L 2334 -88 
L 2194 -88 
L 2194 519 
Q 1825 119 1631 15 
Q 1438 -88 1222 -88 
Q 981 -88 804 51 
Q 628 191 559 409 
Q 491 628 491 1028 
L 491 2306 
Q 491 2509 447 2587 
Q 403 2666 317 2708 
Q 231 2750 6 2747 
L 6 2863 
L 1009 2863 
L 1009 947 
Q 1009 547 1148 422 
Q 1288 297 1484 297 
Q 1619 297 1789 381 
Q 1959 466 2194 703 
L 2194 2325 
Q 2194 2569 2105 2655 
Q 2016 2741 1734 2747 
L 1734 2863 
L 2709 2863 
z
" transform="scale(0.015625)"/>
      </defs>
      <use xlink:href="#TimesNewRomanPSMT-41"/>
      <use xlink:href="#TimesNewRomanPSMT-64" transform="translate(72.216797 0)"/>
      <use xlink:href="#TimesNewRomanPSMT-69" transform="translate(122.216797 0)"/>
      <use xlink:href="#TimesNewRomanPSMT-61" transform="translate(150 0)"/>
      <use xlink:href="#TimesNewRomanPSMT-62" transform="translate(194.384766 0)"/>
      <use xlink:href="#TimesNewRomanPSMT-61" transform="translate(244.384766 0)"/>
      <use xlink:href="#TimesNewRomanPSMT-74" transform="translate(288.769531 0)"/>
      <use xlink:href="#TimesNewRomanPSMT-69" transform="translate(316.552734 0)"/>
      <use xlink:href="#TimesNewRomanPSMT-63" transform="translate(344.335938 0)"/>
      <use xlink:href="#TimesNewRomanPSMT-69" transform="translate(388.720703 0)"/>
      <use xlink:href="#TimesNewRomanPSMT-74" transform="translate(416.503906 0)"/>
      <use xlink:href="#TimesNewRomanPSMT-79" transform="translate(444.287109 0)"/>
      <use xlink:href="#TimesNewRomanPSMT-20" transform="translate(494.287109 0)"/>
      <use xlink:href="#TimesNewRomanPSMT-56" transform="translate(517.537109 0)"/>
      <use xlink:href="#TimesNewRomanPSMT-61" transform="translate(578.628906 0)"/>
      <use xlink:href="#TimesNewRomanPSMT-6c" transform="translate(623.013672 0)"/>
      <use xlink:href="#TimesNewRomanPSMT-75" transform="translate(650.796875 0)"/>
      <use xlink:href="#TimesNewRomanPSMT-65" transform="translate(700.796875 0)"/>
     </g>
    </g>
    <g id="text_24">
     <!-- 1e−5 -->
     <g transform="translate(647.688765 25.6) scale(0.16 -0.16)">
      <defs>
       <path id="TimesNewRomanPSMT-2212" d="M 3484 2000 
L 116 2000 
L 116 2256 
L 3484 2256 
L 3484 2000 
z
" transform="scale(0.015625)"/>
      </defs>
      <use xlink:href="#TimesNewRomanPSMT-31"/>
      <use xlink:href="#TimesNewRomanPSMT-65" transform="translate(50 0)"/>
      <use xlink:href="#TimesNewRomanPSMT-2212" transform="translate(94.384766 0)"/>
      <use xlink:href="#TimesNewRomanPSMT-35" transform="translate(150.78125 0)"/>
     </g>
    </g>
   </g>
   <g id="line2d_182">
    <path d="M 669.915272 220.864545 
L 688.159251 218.846264 
L 700.173579 217.311107 
L 709.073081 215.956096 
L 715.747707 214.731215 
L 721.532384 213.452954 
L 726.42711 212.157502 
L 730.876861 210.762024 
L 734.881637 209.289867 
L 738.886413 207.575914 
L 742.446214 205.819928 
L 746.006014 203.819103 
L 749.565815 201.550324 
L 753.125616 198.993605 
L 756.685417 196.133357 
L 760.245218 192.959567 
L 763.805019 189.468809 
L 767.364819 185.665048 
L 771.369595 181.026866 
L 775.374371 176.03749 
L 779.824122 170.134838 
L 785.163824 162.662449 
L 794.063326 149.735493 
L 801.182927 139.567447 
L 805.632678 133.590146 
L 809.192479 129.150537 
L 812.307305 125.588689 
L 814.977155 122.821114 
L 817.647006 120.354442 
L 820.316857 118.222998 
L 822.541732 116.726557 
L 824.766608 115.503576 
L 826.991483 114.570757 
L 828.771384 114.043767 
L 830.551284 113.719454 
L 832.331184 113.604248 
L 834.111085 113.703824 
L 835.890985 114.023034 
L 837.670886 114.565856 
L 839.450786 115.33534 
L 841.230686 116.333548 
L 843.010587 117.561503 
L 844.790487 119.019133 
L 847.015363 121.162168 
L 849.240238 123.65698 
L 851.465114 126.495308 
L 853.689989 129.665465 
L 856.35984 133.885686 
L 859.029691 138.52683 
L 862.144516 144.413878 
L 865.704317 151.652433 
L 870.599043 162.169323 
L 876.828695 175.503485 
L 879.498545 180.750859 
L 881.723421 184.689188 
L 883.503321 187.451909 
L 885.283222 189.784475 
L 886.618147 191.203948 
L 887.953072 192.305285 
L 889.287998 193.060087 
L 890.177948 193.35889 
L 891.067898 193.487607 
L 891.957848 193.442186 
L 892.847798 193.220106 
L 893.737749 192.82044 
L 894.627699 192.243863 
L 895.962624 191.05254 
L 897.297549 189.481905 
L 898.632475 187.551437 
L 899.9674 185.285229 
L 901.7473 181.788622 
L 903.527201 177.812247 
L 905.752076 172.272324 
L 908.421927 164.957972 
L 911.536753 155.755807 
L 915.986504 141.861377 
L 927.555856 105.380529 
L 931.560632 93.602036 
L 935.120433 83.798585 
L 938.235259 75.834744 
L 941.350085 68.516535 
L 944.019935 62.801964 
L 946.689786 57.635 
L 948.914661 53.765519 
L 951.139537 50.304853 
L 953.364412 47.261464 
L 955.589288 44.640998 
L 957.369188 42.85112 
L 959.149089 41.333919 
L 960.928989 40.088396 
L 962.70889 39.112418 
L 964.48879 38.402739 
L 966.26869 37.955026 
L 968.048591 37.763882 
L 969.828491 37.82289 
L 971.608392 38.124652 
L 973.388292 38.660833 
L 975.168192 39.422218 
L 976.948093 40.398764 
L 979.172968 41.905483 
L 981.397844 43.708818 
L 983.622719 45.784629 
L 986.29257 48.599388 
L 988.962421 51.723902 
L 992.077246 55.697118 
L 996.082022 61.205255 
L 1001.421723 68.981679 
L 1011.656151 83.974727 
L 1016.105902 90.037597 
L 1019.665703 94.523136 
L 1022.780528 98.123756 
L 1025.895354 101.383732 
L 1028.565205 103.885923 
L 1031.235055 106.105572 
L 1033.904906 108.035323 
L 1036.574757 109.67232 
L 1039.244607 111.017916 
L 1041.914458 112.077252 
L 1044.584308 112.858772 
L 1047.254159 113.373664 
L 1049.92401 113.635279 
L 1052.59386 113.658538 
L 1055.263711 113.459375 
L 1057.933562 113.054213 
L 1061.048387 112.343109 
L 1064.163213 111.399505 
L 1067.723014 110.067379 
L 1071.282815 108.496427 
L 1075.287591 106.480517 
L 1079.737342 103.974435 
L 1084.632068 100.94146 
L 1089.971769 97.35121 
L 1095.756445 93.175794 
L 1101.986097 88.38501 
L 1108.215748 83.313933 
L 1114.4454 77.974402 
L 1114.4454 77.974402 
" clip-path="url(#p7c7b827981)" style="fill: none; stroke: #0000ff; stroke-width: 2; stroke-linecap: square"/>
   </g>
   <g id="patch_8">
    <path d="M 647.688765 230.02 
L 647.688765 28.6 
" style="fill: none; stroke: #000000; stroke-linejoin: miter; stroke-linecap: square"/>
   </g>
   <g id="patch_9">
    <path d="M 1136.671906 230.02 
L 1136.671906 28.6 
" style="fill: none; stroke: #000000; stroke-linejoin: miter; stroke-linecap: square"/>
   </g>
   <g id="patch_10">
    <path d="M 647.688765 230.02 
L 1136.671906 230.02 
" style="fill: none; stroke: #000000; stroke-linejoin: miter; stroke-linecap: square"/>
   </g>
   <g id="patch_11">
    <path d="M 647.688765 28.6 
L 1136.671906 28.6 
" style="fill: none; stroke: #000000; stroke-linejoin: miter; stroke-linecap: square"/>
   </g>
   <g id="text_25">
    <!-- Adiabaticity Conditions -->
    <g transform="translate(815.519086 22.6) scale(0.16 -0.16)">
     <defs>
      <path id="TimesNewRomanPSMT-43" d="M 3853 4334 
L 3950 2894 
L 3853 2894 
Q 3659 3541 3300 3825 
Q 2941 4109 2438 4109 
Q 2016 4109 1675 3895 
Q 1334 3681 1139 3212 
Q 944 2744 944 2047 
Q 944 1472 1128 1050 
Q 1313 628 1683 403 
Q 2053 178 2528 178 
Q 2941 178 3256 354 
Q 3572 531 3950 1056 
L 4047 994 
Q 3728 428 3303 165 
Q 2878 -97 2294 -97 
Q 1241 -97 663 684 
Q 231 1266 231 2053 
Q 231 2688 515 3219 
Q 800 3750 1298 4042 
Q 1797 4334 2388 4334 
Q 2847 4334 3294 4109 
Q 3425 4041 3481 4041 
Q 3566 4041 3628 4100 
Q 3709 4184 3744 4334 
L 3853 4334 
z
" transform="scale(0.015625)"/>
      <path id="TimesNewRomanPSMT-6f" d="M 1600 2947 
Q 2250 2947 2644 2453 
Q 2978 2031 2978 1484 
Q 2978 1100 2793 706 
Q 2609 313 2286 112 
Q 1963 -88 1566 -88 
Q 919 -88 538 428 
Q 216 863 216 1403 
Q 216 1797 411 2186 
Q 606 2575 925 2761 
Q 1244 2947 1600 2947 
z
M 1503 2744 
Q 1338 2744 1170 2645 
Q 1003 2547 900 2300 
Q 797 2053 797 1666 
Q 797 1041 1045 587 
Q 1294 134 1700 134 
Q 2003 134 2200 384 
Q 2397 634 2397 1244 
Q 2397 2006 2069 2444 
Q 1847 2744 1503 2744 
z
" transform="scale(0.015625)"/>
      <path id="TimesNewRomanPSMT-6e" d="M 1034 2341 
Q 1538 2947 1994 2947 
Q 2228 2947 2397 2830 
Q 2566 2713 2666 2444 
Q 2734 2256 2734 1869 
L 2734 647 
Q 2734 375 2778 278 
Q 2813 200 2889 156 
Q 2966 113 3172 113 
L 3172 0 
L 1756 0 
L 1756 113 
L 1816 113 
Q 2016 113 2095 173 
Q 2175 234 2206 353 
Q 2219 400 2219 647 
L 2219 1819 
Q 2219 2209 2117 2386 
Q 2016 2563 1775 2563 
Q 1403 2563 1034 2156 
L 1034 647 
Q 1034 356 1069 288 
Q 1113 197 1189 155 
Q 1266 113 1500 113 
L 1500 0 
L 84 0 
L 84 113 
L 147 113 
Q 366 113 442 223 
Q 519 334 519 647 
L 519 1709 
Q 519 2225 495 2337 
Q 472 2450 423 2490 
Q 375 2531 294 2531 
Q 206 2531 84 2484 
L 38 2597 
L 900 2947 
L 1034 2947 
L 1034 2341 
z
" transform="scale(0.015625)"/>
     </defs>
     <use xlink:href="#TimesNewRomanPSMT-41"/>
     <use xlink:href="#TimesNewRomanPSMT-64" transform="translate(72.216797 0)"/>
     <use xlink:href="#TimesNewRomanPSMT-69" transform="translate(122.216797 0)"/>
     <use xlink:href="#TimesNewRomanPSMT-61" transform="translate(150 0)"/>
     <use xlink:href="#TimesNewRomanPSMT-62" transform="translate(194.384766 0)"/>
     <use xlink:href="#TimesNewRomanPSMT-61" transform="translate(244.384766 0)"/>
     <use xlink:href="#TimesNewRomanPSMT-74" transform="translate(288.769531 0)"/>
     <use xlink:href="#TimesNewRomanPSMT-69" transform="translate(316.552734 0)"/>
     <use xlink:href="#TimesNewRomanPSMT-63" transform="translate(344.335938 0)"/>
     <use xlink:href="#TimesNewRomanPSMT-69" transform="translate(388.720703 0)"/>
     <use xlink:href="#TimesNewRomanPSMT-74" transform="translate(416.503906 0)"/>
     <use xlink:href="#TimesNewRomanPSMT-79" transform="translate(444.287109 0)"/>
     <use xlink:href="#TimesNewRomanPSMT-20" transform="translate(494.287109 0)"/>
     <use xlink:href="#TimesNewRomanPSMT-43" transform="translate(519.287109 0)"/>
     <use xlink:href="#TimesNewRomanPSMT-6f" transform="translate(585.986328 0)"/>
     <use xlink:href="#TimesNewRomanPSMT-6e" transform="translate(635.986328 0)"/>
     <use xlink:href="#TimesNewRomanPSMT-64" transform="translate(685.986328 0)"/>
     <use xlink:href="#TimesNewRomanPSMT-69" transform="translate(735.986328 0)"/>
     <use xlink:href="#TimesNewRomanPSMT-74" transform="translate(763.769531 0)"/>
     <use xlink:href="#TimesNewRomanPSMT-69" transform="translate(791.552734 0)"/>
     <use xlink:href="#TimesNewRomanPSMT-6f" transform="translate(819.335938 0)"/>
     <use xlink:href="#TimesNewRomanPSMT-6e" transform="translate(869.335938 0)"/>
     <use xlink:href="#TimesNewRomanPSMT-73" transform="translate(919.335938 0)"/>
    </g>
   </g>
   <g id="legend_1">
    <g id="line2d_183">
     <path d="M 662.088765 48.6 
L 678.088765 48.6 
L 694.088765 48.6 
" style="fill: none; stroke: #0000ff; stroke-width: 2; stroke-linecap: square"/>
    </g>
    <g id="text_26">
     <!-- Local Adiabaticity -->
     <g transform="translate(706.888765 54.2) scale(0.16 -0.16)">
      <defs>
       <path id="TimesNewRomanPSMT-4c" d="M 3669 1172 
L 3772 1150 
L 3409 0 
L 128 0 
L 128 116 
L 288 116 
Q 556 116 672 291 
Q 738 391 738 753 
L 738 3488 
Q 738 3884 650 3984 
Q 528 4122 288 4122 
L 128 4122 
L 128 4238 
L 2047 4238 
L 2047 4122 
Q 1709 4125 1573 4059 
Q 1438 3994 1388 3894 
Q 1338 3794 1338 3416 
L 1338 753 
Q 1338 494 1388 397 
Q 1425 331 1503 300 
Q 1581 269 1991 269 
L 2300 269 
Q 2788 269 2984 341 
Q 3181 413 3343 595 
Q 3506 778 3669 1172 
z
" transform="scale(0.015625)"/>
      </defs>
      <use xlink:href="#TimesNewRomanPSMT-4c"/>
      <use xlink:href="#TimesNewRomanPSMT-6f" transform="translate(61.083984 0)"/>
      <use xlink:href="#TimesNewRomanPSMT-63" transform="translate(111.083984 0)"/>
      <use xlink:href="#TimesNewRomanPSMT-61" transform="translate(155.46875 0)"/>
      <use xlink:href="#TimesNewRomanPSMT-6c" transform="translate(199.853516 0)"/>
      <use xlink:href="#TimesNewRomanPSMT-20" transform="translate(227.636719 0)"/>
      <use xlink:href="#TimesNewRomanPSMT-41" transform="translate(247.136719 0)"/>
      <use xlink:href="#TimesNewRomanPSMT-64" transform="translate(319.353516 0)"/>
      <use xlink:href="#TimesNewRomanPSMT-69" transform="translate(369.353516 0)"/>
      <use xlink:href="#TimesNewRomanPSMT-61" transform="translate(397.136719 0)"/>
      <use xlink:href="#TimesNewRomanPSMT-62" transform="translate(441.521484 0)"/>
      <use xlink:href="#TimesNewRomanPSMT-61" transform="translate(491.521484 0)"/>
      <use xlink:href="#TimesNewRomanPSMT-74" transform="translate(535.90625 0)"/>
      <use xlink:href="#TimesNewRomanPSMT-69" transform="translate(563.689453 0)"/>
      <use xlink:href="#TimesNewRomanPSMT-63" transform="translate(591.472656 0)"/>
      <use xlink:href="#TimesNewRomanPSMT-69" transform="translate(635.857422 0)"/>
      <use xlink:href="#TimesNewRomanPSMT-74" transform="translate(663.640625 0)"/>
      <use xlink:href="#TimesNewRomanPSMT-79" transform="translate(691.423828 0)"/>
     </g>
    </g>
   </g>
  </g>
  <g id="axes_3">
   <g id="matplotlib.axis_5">
    <g id="ytick_31">
     <g id="line2d_184">
      <g>
       <use xlink:href="#m7d1f34cfa6" x="538.248765" y="225.244388" style="stroke: #000000"/>
      </g>
     </g>
     <g id="text_27">
      <!-- −200 -->
      <g style="fill: #d62728" transform="translate(541.748765 232.188138) scale(0.2 -0.2)">
       <use xlink:href="#TimesNewRomanPSMT-2212"/>
       <use xlink:href="#TimesNewRomanPSMT-32" transform="translate(56.396484 0)"/>
       <use xlink:href="#TimesNewRomanPSMT-30" transform="translate(106.396484 0)"/>
       <use xlink:href="#TimesNewRomanPSMT-30" transform="translate(156.396484 0)"/>
      </g>
     </g>
    </g>
    <g id="ytick_32">
     <g id="line2d_185">
      <g>
       <use xlink:href="#m7d1f34cfa6" x="538.248765" y="178.372155" style="stroke: #000000"/>
      </g>
     </g>
     <g id="text_28">
      <!-- −150 -->
      <g style="fill: #d62728" transform="translate(541.748765 185.315905) scale(0.2 -0.2)">
       <use xlink:href="#TimesNewRomanPSMT-2212"/>
       <use xlink:href="#TimesNewRomanPSMT-31" transform="translate(56.396484 0)"/>
       <use xlink:href="#TimesNewRomanPSMT-35" transform="translate(106.396484 0)"/>
       <use xlink:href="#TimesNewRomanPSMT-30" transform="translate(156.396484 0)"/>
      </g>
     </g>
    </g>
    <g id="ytick_33">
     <g id="line2d_186">
      <g>
       <use xlink:href="#m7d1f34cfa6" x="538.248765" y="131.499921" style="stroke: #000000"/>
      </g>
     </g>
     <g id="text_29">
      <!-- −100 -->
      <g style="fill: #d62728" transform="translate(541.748765 138.443671) scale(0.2 -0.2)">
       <use xlink:href="#TimesNewRomanPSMT-2212"/>
       <use xlink:href="#TimesNewRomanPSMT-31" transform="translate(56.396484 0)"/>
       <use xlink:href="#TimesNewRomanPSMT-30" transform="translate(106.396484 0)"/>
       <use xlink:href="#TimesNewRomanPSMT-30" transform="translate(156.396484 0)"/>
      </g>
     </g>
    </g>
    <g id="ytick_34">
     <g id="line2d_187">
      <g>
       <use xlink:href="#m7d1f34cfa6" x="538.248765" y="84.627688" style="stroke: #000000"/>
      </g>
     </g>
     <g id="text_30">
      <!-- −50 -->
      <g style="fill: #d62728" transform="translate(541.748765 91.571438) scale(0.2 -0.2)">
       <use xlink:href="#TimesNewRomanPSMT-2212"/>
       <use xlink:href="#TimesNewRomanPSMT-35" transform="translate(56.396484 0)"/>
       <use xlink:href="#TimesNewRomanPSMT-30" transform="translate(106.396484 0)"/>
      </g>
     </g>
    </g>
    <g id="ytick_35">
     <g id="line2d_188">
      <g>
       <use xlink:href="#m7d1f34cfa6" x="538.248765" y="37.755455" style="stroke: #000000"/>
      </g>
     </g>
     <g id="text_31">
      <!-- 0 -->
      <g style="fill: #d62728" transform="translate(541.748765 44.699205) scale(0.2 -0.2)">
       <use xlink:href="#TimesNewRomanPSMT-30"/>
      </g>
     </g>
    </g>
    <g id="ytick_36">
     <g id="line2d_189">
      <g>
       <use xlink:href="#m011203925e" x="538.248765" y="215.869941" style="stroke: #000000"/>
      </g>
     </g>
    </g>
    <g id="ytick_37">
     <g id="line2d_190">
      <g>
       <use xlink:href="#m011203925e" x="538.248765" y="206.495495" style="stroke: #000000"/>
      </g>
     </g>
    </g>
    <g id="ytick_38">
     <g id="line2d_191">
      <g>
       <use xlink:href="#m011203925e" x="538.248765" y="197.121048" style="stroke: #000000"/>
      </g>
     </g>
    </g>
    <g id="ytick_39">
     <g id="line2d_192">
      <g>
       <use xlink:href="#m011203925e" x="538.248765" y="187.746601" style="stroke: #000000"/>
      </g>
     </g>
    </g>
    <g id="ytick_40">
     <g id="line2d_193">
      <g>
       <use xlink:href="#m011203925e" x="538.248765" y="168.997708" style="stroke: #000000"/>
      </g>
     </g>
    </g>
    <g id="ytick_41">
     <g id="line2d_194">
      <g>
       <use xlink:href="#m011203925e" x="538.248765" y="159.623261" style="stroke: #000000"/>
      </g>
     </g>
    </g>
    <g id="ytick_42">
     <g id="line2d_195">
      <g>
       <use xlink:href="#m011203925e" x="538.248765" y="150.248815" style="stroke: #000000"/>
      </g>
     </g>
    </g>
    <g id="ytick_43">
     <g id="line2d_196">
      <g>
       <use xlink:href="#m011203925e" x="538.248765" y="140.874368" style="stroke: #000000"/>
      </g>
     </g>
    </g>
    <g id="ytick_44">
     <g id="line2d_197">
      <g>
       <use xlink:href="#m011203925e" x="538.248765" y="122.125475" style="stroke: #000000"/>
      </g>
     </g>
    </g>
    <g id="ytick_45">
     <g id="line2d_198">
      <g>
       <use xlink:href="#m011203925e" x="538.248765" y="112.751028" style="stroke: #000000"/>
      </g>
     </g>
    </g>
    <g id="ytick_46">
     <g id="line2d_199">
      <g>
       <use xlink:href="#m011203925e" x="538.248765" y="103.376581" style="stroke: #000000"/>
      </g>
     </g>
    </g>
    <g id="ytick_47">
     <g id="line2d_200">
      <g>
       <use xlink:href="#m011203925e" x="538.248765" y="94.002135" style="stroke: #000000"/>
      </g>
     </g>
    </g>
    <g id="ytick_48">
     <g id="line2d_201">
      <g>
       <use xlink:href="#m011203925e" x="538.248765" y="75.253241" style="stroke: #000000"/>
      </g>
     </g>
    </g>
    <g id="ytick_49">
     <g id="line2d_202">
      <g>
       <use xlink:href="#m011203925e" x="538.248765" y="65.878795" style="stroke: #000000"/>
      </g>
     </g>
    </g>
    <g id="ytick_50">
     <g id="line2d_203">
      <g>
       <use xlink:href="#m011203925e" x="538.248765" y="56.504348" style="stroke: #000000"/>
      </g>
     </g>
    </g>
    <g id="ytick_51">
     <g id="line2d_204">
      <g>
       <use xlink:href="#m011203925e" x="538.248765" y="47.129901" style="stroke: #000000"/>
      </g>
     </g>
    </g>
    <g id="text_32">
     <!-- Detuning (kHz) -->
     <g style="fill: #d62728" transform="translate(600.91439 192.3475) rotate(-90) scale(0.2 -0.2)">
      <defs>
       <path id="TimesNewRomanPSMT-44" d="M 109 0 
L 109 116 
L 269 116 
Q 538 116 650 288 
Q 719 391 719 750 
L 719 3488 
Q 719 3884 631 3984 
Q 509 4122 269 4122 
L 109 4122 
L 109 4238 
L 1834 4238 
Q 2784 4238 3279 4022 
Q 3775 3806 4076 3303 
Q 4378 2800 4378 2141 
Q 4378 1256 3841 663 
Q 3238 0 2003 0 
L 109 0 
z
M 1319 306 
Q 1716 219 1984 219 
Q 2709 219 3187 728 
Q 3666 1238 3666 2109 
Q 3666 2988 3187 3494 
Q 2709 4000 1959 4000 
Q 1678 4000 1319 3909 
L 1319 306 
z
" transform="scale(0.015625)"/>
       <path id="TimesNewRomanPSMT-67" d="M 966 1044 
Q 703 1172 562 1401 
Q 422 1631 422 1909 
Q 422 2334 742 2640 
Q 1063 2947 1563 2947 
Q 1972 2947 2272 2747 
L 2878 2747 
Q 3013 2747 3034 2739 
Q 3056 2731 3066 2713 
Q 3084 2684 3084 2613 
Q 3084 2531 3069 2500 
Q 3059 2484 3036 2475 
Q 3013 2466 2878 2466 
L 2506 2466 
Q 2681 2241 2681 1891 
Q 2681 1491 2375 1206 
Q 2069 922 1553 922 
Q 1341 922 1119 984 
Q 981 866 932 777 
Q 884 688 884 625 
Q 884 572 936 522 
Q 988 472 1138 450 
Q 1225 438 1575 428 
Q 2219 413 2409 384 
Q 2700 344 2873 169 
Q 3047 -6 3047 -263 
Q 3047 -616 2716 -925 
Q 2228 -1381 1444 -1381 
Q 841 -1381 425 -1109 
Q 191 -953 191 -784 
Q 191 -709 225 -634 
Q 278 -519 444 -313 
Q 466 -284 763 25 
Q 600 122 533 198 
Q 466 275 466 372 
Q 466 481 555 628 
Q 644 775 966 1044 
z
M 1509 2797 
Q 1278 2797 1122 2612 
Q 966 2428 966 2047 
Q 966 1553 1178 1281 
Q 1341 1075 1591 1075 
Q 1828 1075 1981 1253 
Q 2134 1431 2134 1813 
Q 2134 2309 1919 2591 
Q 1759 2797 1509 2797 
z
M 934 0 
Q 788 -159 713 -296 
Q 638 -434 638 -550 
Q 638 -700 819 -813 
Q 1131 -1006 1722 -1006 
Q 2284 -1006 2551 -807 
Q 2819 -609 2819 -384 
Q 2819 -222 2659 -153 
Q 2497 -84 2016 -72 
Q 1313 -53 934 0 
z
" transform="scale(0.015625)"/>
      </defs>
      <use xlink:href="#TimesNewRomanPSMT-44"/>
      <use xlink:href="#TimesNewRomanPSMT-65" transform="translate(72.216797 0)"/>
      <use xlink:href="#TimesNewRomanPSMT-74" transform="translate(116.601562 0)"/>
      <use xlink:href="#TimesNewRomanPSMT-75" transform="translate(144.384766 0)"/>
      <use xlink:href="#TimesNewRomanPSMT-6e" transform="translate(194.384766 0)"/>
      <use xlink:href="#TimesNewRomanPSMT-69" transform="translate(244.384766 0)"/>
      <use xlink:href="#TimesNewRomanPSMT-6e" transform="translate(272.167969 0)"/>
      <use xlink:href="#TimesNewRomanPSMT-67" transform="translate(322.167969 0)"/>
      <use xlink:href="#TimesNewRomanPSMT-20" transform="translate(372.167969 0)"/>
      <use xlink:href="#TimesNewRomanPSMT-28" transform="translate(397.167969 0)"/>
      <use xlink:href="#TimesNewRomanPSMT-6b" transform="translate(430.46875 0)"/>
      <use xlink:href="#TimesNewRomanPSMT-48" transform="translate(480.46875 0)"/>
      <use xlink:href="#TimesNewRomanPSMT-7a" transform="translate(552.685547 0)"/>
      <use xlink:href="#TimesNewRomanPSMT-29" transform="translate(597.070312 0)"/>
     </g>
    </g>
   </g>
   <g id="line2d_205">
    <path d="M 71.492131 220.864545 
L 516.022259 127.120079 
L 516.022259 127.120079 
" clip-path="url(#p74a3d105fa)" style="fill: none; stroke: #d62728; stroke-width: 2; stroke-linecap: square"/>
   </g>
   <g id="line2d_206">
    <path d="M 49.265625 37.755455 
L 538.248765 37.755455 
" clip-path="url(#p74a3d105fa)" style="fill: none; stroke-dasharray: 3.7,1.6; stroke-dashoffset: 0; stroke: #808080"/>
   </g>
   <g id="patch_12">
    <path d="M 49.265625 230.02 
L 49.265625 28.6 
" style="fill: none; stroke: #000000; stroke-linejoin: miter; stroke-linecap: square"/>
   </g>
   <g id="patch_13">
    <path d="M 538.248765 230.02 
L 538.248765 28.6 
" style="fill: none; stroke: #000000; stroke-linejoin: miter; stroke-linecap: square"/>
   </g>
   <g id="patch_14">
    <path d="M 49.265625 230.02 
L 538.248765 230.02 
" style="fill: none; stroke: #000000; stroke-linejoin: miter; stroke-linecap: square"/>
   </g>
   <g id="patch_15">
    <path d="M 49.265625 28.6 
L 538.248765 28.6 
" style="fill: none; stroke: #000000; stroke-linejoin: miter; stroke-linecap: square"/>
   </g>
   <g id="text_33">
    <!-- Time dependence of $\Omega (t)$ and $\Delta (t)$, J = 0 -->
    <g transform="translate(86.132195 22.6) scale(0.25 -0.25)">
     <defs>
      <path id="TimesNewRomanPSMT-70" d="M -6 2578 
L 875 2934 
L 994 2934 
L 994 2266 
Q 1216 2644 1439 2795 
Q 1663 2947 1909 2947 
Q 2341 2947 2628 2609 
Q 2981 2197 2981 1534 
Q 2981 794 2556 309 
Q 2206 -88 1675 -88 
Q 1444 -88 1275 -22 
Q 1150 25 994 166 
L 994 -706 
Q 994 -1000 1030 -1079 
Q 1066 -1159 1155 -1206 
Q 1244 -1253 1478 -1253 
L 1478 -1369 
L -22 -1369 
L -22 -1253 
L 56 -1253 
Q 228 -1256 350 -1188 
Q 409 -1153 442 -1076 
Q 475 -1000 475 -688 
L 475 2019 
Q 475 2297 450 2372 
Q 425 2447 370 2484 
Q 316 2522 222 2522 
Q 147 2522 31 2478 
L -6 2578 
z
M 994 2081 
L 994 1013 
Q 994 666 1022 556 
Q 1066 375 1236 237 
Q 1406 100 1666 100 
Q 1978 100 2172 344 
Q 2425 663 2425 1241 
Q 2425 1897 2138 2250 
Q 1938 2494 1663 2494 
Q 1513 2494 1366 2419 
Q 1253 2363 994 2081 
z
" transform="scale(0.015625)"/>
      <path id="TimesNewRomanPSMT-66" d="M 1319 2638 
L 1319 756 
Q 1319 356 1406 250 
Q 1522 113 1716 113 
L 1975 113 
L 1975 0 
L 266 0 
L 266 113 
L 394 113 
Q 519 113 622 175 
Q 725 238 764 344 
Q 803 450 803 756 
L 803 2638 
L 247 2638 
L 247 2863 
L 803 2863 
L 803 3050 
Q 803 3478 940 3775 
Q 1078 4072 1361 4255 
Q 1644 4438 1997 4438 
Q 2325 4438 2600 4225 
Q 2781 4084 2781 3909 
Q 2781 3816 2700 3733 
Q 2619 3650 2525 3650 
Q 2453 3650 2373 3701 
Q 2294 3753 2178 3923 
Q 2063 4094 1966 4153 
Q 1869 4213 1750 4213 
Q 1606 4213 1506 4136 
Q 1406 4059 1362 3898 
Q 1319 3738 1319 3069 
L 1319 2863 
L 2056 2863 
L 2056 2638 
L 1319 2638 
z
" transform="scale(0.015625)"/>
      <path id="DejaVuSans-3a9" d="M 4647 556 
L 4647 0 
L 2772 0 
L 2772 556 
Q 3325 859 3634 1378 
Q 3944 1897 3944 2528 
Q 3944 3278 3531 3731 
Q 3119 4184 2444 4184 
Q 1769 4184 1355 3729 
Q 941 3275 941 2528 
Q 941 1897 1250 1378 
Q 1563 859 2119 556 
L 2119 0 
L 244 0 
L 244 556 
L 1241 556 
Q 747 991 519 1456 
Q 294 1922 294 2497 
Q 294 3491 894 4106 
Q 1491 4722 2444 4722 
Q 3391 4722 3994 4106 
Q 4594 3494 4594 2528 
Q 4594 1922 4372 1459 
Q 4150 997 3647 556 
L 4647 556 
z
" transform="scale(0.015625)"/>
      <path id="DejaVuSans-28" d="M 1984 4856 
Q 1566 4138 1362 3434 
Q 1159 2731 1159 2009 
Q 1159 1288 1364 580 
Q 1569 -128 1984 -844 
L 1484 -844 
Q 1016 -109 783 600 
Q 550 1309 550 2009 
Q 550 2706 781 3412 
Q 1013 4119 1484 4856 
L 1984 4856 
z
" transform="scale(0.015625)"/>
      <path id="DejaVuSans-Oblique-74" d="M 2706 3500 
L 2619 3053 
L 1472 3053 
L 1100 1153 
Q 1081 1047 1072 975 
Q 1063 903 1063 863 
Q 1063 663 1183 572 
Q 1303 481 1569 481 
L 2150 481 
L 2053 0 
L 1503 0 
Q 991 0 739 200 
Q 488 400 488 806 
Q 488 878 497 964 
Q 506 1050 525 1153 
L 897 3053 
L 409 3053 
L 500 3500 
L 978 3500 
L 1172 4494 
L 1747 4494 
L 1556 3500 
L 2706 3500 
z
" transform="scale(0.015625)"/>
      <path id="DejaVuSans-29" d="M 513 4856 
L 1013 4856 
Q 1481 4119 1714 3412 
Q 1947 2706 1947 2009 
Q 1947 1309 1714 600 
Q 1481 -109 1013 -844 
L 513 -844 
Q 928 -128 1133 580 
Q 1338 1288 1338 2009 
Q 1338 2731 1133 3434 
Q 928 4138 513 4856 
z
" transform="scale(0.015625)"/>
      <path id="DejaVuSans-394" d="M 2188 4044 
L 906 525 
L 3472 525 
L 2188 4044 
z
M 50 0 
L 1831 4666 
L 2547 4666 
L 4325 0 
L 50 0 
z
" transform="scale(0.015625)"/>
      <path id="TimesNewRomanPSMT-2c" d="M 344 -1066 
L 344 -928 
Q 666 -822 842 -598 
Q 1019 -375 1019 -125 
Q 1019 -66 991 -25 
Q 969 3 947 3 
Q 913 3 797 -59 
Q 741 -88 678 -88 
Q 525 -88 434 3 
Q 344 94 344 253 
Q 344 406 461 515 
Q 578 625 747 625 
Q 953 625 1114 445 
Q 1275 266 1275 -31 
Q 1275 -353 1051 -629 
Q 828 -906 344 -1066 
z
" transform="scale(0.015625)"/>
      <path id="TimesNewRomanPSMT-4a" d="M 638 4122 
L 638 4238 
L 2453 4238 
L 2453 4122 
L 2300 4122 
Q 2041 4122 1922 3969 
Q 1847 3869 1847 3488 
L 1847 1416 
Q 1847 938 1742 641 
Q 1638 344 1381 123 
Q 1125 -97 763 -97 
Q 469 -97 300 48 
Q 131 194 131 381 
Q 131 534 209 613 
Q 313 709 450 709 
Q 550 709 629 643 
Q 709 578 831 294 
Q 903 125 1016 125 
Q 1100 125 1173 228 
Q 1247 331 1247 594 
L 1247 3488 
Q 1247 3809 1206 3913 
Q 1175 3991 1075 4047 
Q 941 4122 791 4122 
L 638 4122 
z
" transform="scale(0.015625)"/>
      <path id="TimesNewRomanPSMT-3d" d="M 116 2759 
L 3488 2759 
L 3488 2503 
L 116 2503 
L 116 2759 
z
M 116 1741 
L 3488 1741 
L 3488 1484 
L 116 1484 
L 116 1741 
z
" transform="scale(0.015625)"/>
     </defs>
     <use xlink:href="#TimesNewRomanPSMT-54" transform="translate(0 0.125)"/>
     <use xlink:href="#TimesNewRomanPSMT-69" transform="translate(61.083984 0.125)"/>
     <use xlink:href="#TimesNewRomanPSMT-6d" transform="translate(88.867188 0.125)"/>
     <use xlink:href="#TimesNewRomanPSMT-65" transform="translate(166.650391 0.125)"/>
     <use xlink:href="#TimesNewRomanPSMT-20" transform="translate(211.035156 0.125)"/>
     <use xlink:href="#TimesNewRomanPSMT-64" transform="translate(236.035156 0.125)"/>
     <use xlink:href="#TimesNewRomanPSMT-65" transform="translate(286.035156 0.125)"/>
     <use xlink:href="#TimesNewRomanPSMT-70" transform="translate(330.419922 0.125)"/>
     <use xlink:href="#TimesNewRomanPSMT-65" transform="translate(380.419922 0.125)"/>
     <use xlink:href="#TimesNewRomanPSMT-6e" transform="translate(424.804688 0.125)"/>
     <use xlink:href="#TimesNewRomanPSMT-64" transform="translate(474.804688 0.125)"/>
     <use xlink:href="#TimesNewRomanPSMT-65" transform="translate(524.804688 0.125)"/>
     <use xlink:href="#TimesNewRomanPSMT-6e" transform="translate(569.189453 0.125)"/>
     <use xlink:href="#TimesNewRomanPSMT-63" transform="translate(619.189453 0.125)"/>
     <use xlink:href="#TimesNewRomanPSMT-65" transform="translate(663.574219 0.125)"/>
     <use xlink:href="#TimesNewRomanPSMT-20" transform="translate(707.958984 0.125)"/>
     <use xlink:href="#TimesNewRomanPSMT-6f" transform="translate(732.958984 0.125)"/>
     <use xlink:href="#TimesNewRomanPSMT-66" transform="translate(782.958984 0.125)"/>
     <use xlink:href="#TimesNewRomanPSMT-20" transform="translate(816.259766 0.125)"/>
     <use xlink:href="#DejaVuSans-3a9" transform="translate(841.259766 0.125)"/>
     <use xlink:href="#DejaVuSans-28" transform="translate(917.675781 0.125)"/>
     <use xlink:href="#DejaVuSans-Oblique-74" transform="translate(956.689453 0.125)"/>
     <use xlink:href="#DejaVuSans-29" transform="translate(995.898438 0.125)"/>
     <use xlink:href="#TimesNewRomanPSMT-20" transform="translate(1034.912109 0.125)"/>
     <use xlink:href="#TimesNewRomanPSMT-61" transform="translate(1059.912109 0.125)"/>
     <use xlink:href="#TimesNewRomanPSMT-6e" transform="translate(1104.296875 0.125)"/>
     <use xlink:href="#TimesNewRomanPSMT-64" transform="translate(1154.296875 0.125)"/>
     <use xlink:href="#TimesNewRomanPSMT-20" transform="translate(1204.296875 0.125)"/>
     <use xlink:href="#DejaVuSans-394" transform="translate(1229.296875 0.125)"/>
     <use xlink:href="#DejaVuSans-28" transform="translate(1297.705078 0.125)"/>
     <use xlink:href="#DejaVuSans-Oblique-74" transform="translate(1336.71875 0.125)"/>
     <use xlink:href="#DejaVuSans-29" transform="translate(1375.927734 0.125)"/>
     <use xlink:href="#TimesNewRomanPSMT-2c" transform="translate(1414.941406 0.125)"/>
     <use xlink:href="#TimesNewRomanPSMT-20" transform="translate(1439.941406 0.125)"/>
     <use xlink:href="#TimesNewRomanPSMT-4a" transform="translate(1464.941406 0.125)"/>
     <use xlink:href="#TimesNewRomanPSMT-20" transform="translate(1503.857422 0.125)"/>
     <use xlink:href="#TimesNewRomanPSMT-3d" transform="translate(1528.857422 0.125)"/>
     <use xlink:href="#TimesNewRomanPSMT-20" transform="translate(1585.253906 0.125)"/>
     <use xlink:href="#TimesNewRomanPSMT-30" transform="translate(1610.253906 0.125)"/>
    </g>
   </g>
  </g>
 </g>
 <defs>
  <clipPath id="p74a3d105fa">
   <rect x="49.265625" y="28.6" width="488.98314" height="201.42"/>
  </clipPath>
  <clipPath id="p7c7b827981">
   <rect x="647.688765" y="28.6" width="488.98314" height="201.42"/>
  </clipPath>
 </defs>
</svg>
