<?xml version="1.0" encoding="utf-8" standalone="no"?>
<!DOCTYPE svg PUBLIC "-//W3C//DTD SVG 1.1//EN"
  "http://www.w3.org/Graphics/SVG/1.1/DTD/svg11.dtd">
<svg xmlns:xlink="http://www.w3.org/1999/xlink" width="704.070027pt" height="349.731406pt" viewBox="0 0 704.070027 349.731406" xmlns="http://www.w3.org/2000/svg" version="1.1">
 <metadata>
  <rdf:RDF xmlns:dc="http://purl.org/dc/elements/1.1/" xmlns:cc="http://creativecommons.org/ns#" xmlns:rdf="http://www.w3.org/1999/02/22-rdf-syntax-ns#">
   <cc:Work>
    <dc:type rdf:resource="http://purl.org/dc/dcmitype/StillImage"/>
    <dc:date>2026-02-28T16:47:33.148635</dc:date>
    <dc:format>image/svg+xml</dc:format>
    <dc:creator>
     <cc:Agent>
      <dc:title>Matplotlib v3.10.3, https://matplotlib.org/</dc:title>
     </cc:Agent>
    </dc:creator>
   </cc:Work>
  </rdf:RDF>
 </metadata>
 <defs>
  <style type="text/css">*{stroke-linejoin: round; stroke-linecap: butt}</style>
 </defs>
 <g id="figure_1">
  <g id="patch_1">
   <path d="M 0 349.731406 
L 704.070027 349.731406 
L 704.070027 0 
L 0 0 
z
" style="fill: #ffffff"/>
  </g>
  <g id="axes_1">
   <g id="patch_2">
    <path d="M 77.557031 292.424375 
L 700.470027 292.424375 
L 700.470027 29.084375 
L 77.557031 29.084375 
z
" style="fill: #ffffff"/>
   </g>
   <g id="PathCollection_1">
    <defs>
     <path id="m5198a134ec" d="M 0 3 
C 0.795609 3 1.55874 2.683901 2.12132 2.12132 
C 2.683901 1.55874 3 0.795609 3 0 
C 3 -0.795609 2.683901 -1.55874 2.12132 -2.12132 
C 1.55874 -2.683901 0.795609 -3 0 -3 
C -0.795609 -3 -1.55874 -2.683901 -2.12132 -2.12132 
C -2.683901 -1.55874 -3 -0.795609 -3 0 
C -3 0.795609 -2.683901 1.55874 -2.12132 2.12132 
C -1.55874 2.683901 -0.795609 3 0 3 
z
" style="stroke: #4b0082"/>
    </defs>
    <g clip-path="url(#p8ec9649cd7)">
     <use xlink:href="#m5198a134ec" x="105.871258" y="280.454362" style="fill: #4b0082; stroke: #4b0082"/>
     <use xlink:href="#m5198a134ec" x="147.055589" y="280.454373" style="fill: #4b0082; stroke: #4b0082"/>
     <use xlink:href="#m5198a134ec" x="188.239919" y="279.998956" style="fill: #4b0082; stroke: #4b0082"/>
     <use xlink:href="#m5198a134ec" x="270.60858" y="220.855012" style="fill: #4b0082; stroke: #4b0082"/>
     <use xlink:href="#m5198a134ec" x="352.97724" y="181.545743" style="fill: #4b0082; stroke: #4b0082"/>
     <use xlink:href="#m5198a134ec" x="435.345901" y="170.906279" style="fill: #4b0082; stroke: #4b0082"/>
     <use xlink:href="#m5198a134ec" x="517.714561" y="167.54503" style="fill: #4b0082; stroke: #4b0082"/>
     <use xlink:href="#m5198a134ec" x="600.083222" y="165.951502" style="fill: #4b0082; stroke: #4b0082"/>
    </g>
   </g>
   <g id="PathCollection_2">
    <defs>
     <path id="mba02cd7c05" d="M 0 3 
C 0.795609 3 1.55874 2.683901 2.12132 2.12132 
C 2.683901 1.55874 3 0.795609 3 0 
C 3 -0.795609 2.683901 -1.55874 2.12132 -2.12132 
C 1.55874 -2.683901 0.795609 -3 0 -3 
C -0.795609 -3 -1.55874 -2.683901 -2.12132 -2.12132 
C -2.683901 -1.55874 -3 -0.795609 -3 0 
C -3 0.795609 -2.683901 1.55874 -2.12132 2.12132 
C -1.55874 2.683901 -0.795609 3 0 3 
z
" style="stroke: #daa520"/>
    </defs>
    <g clip-path="url(#p8ec9649cd7)">
     <use xlink:href="#mba02cd7c05" x="105.871258" y="268.498708" style="fill: #daa520; stroke: #daa520"/>
     <use xlink:href="#mba02cd7c05" x="147.055589" y="280.453647" style="fill: #daa520; stroke: #daa520"/>
     <use xlink:href="#mba02cd7c05" x="188.239919" y="280.454369" style="fill: #daa520; stroke: #daa520"/>
     <use xlink:href="#mba02cd7c05" x="270.60858" y="280.454371" style="fill: #daa520; stroke: #daa520"/>
     <use xlink:href="#mba02cd7c05" x="352.97724" y="280.454383" style="fill: #daa520; stroke: #daa520"/>
     <use xlink:href="#mba02cd7c05" x="435.345901" y="280.454375" style="fill: #daa520; stroke: #daa520"/>
     <use xlink:href="#mba02cd7c05" x="517.714561" y="280.454377" style="fill: #daa520; stroke: #daa520"/>
     <use xlink:href="#mba02cd7c05" x="600.083222" y="280.454376" style="fill: #daa520; stroke: #daa520"/>
    </g>
   </g>
   <g id="PathCollection_3">
    <defs>
     <path id="m4a8e5c85a6" d="M 0 3 
C 0.795609 3 1.55874 2.683901 2.12132 2.12132 
C 2.683901 1.55874 3 0.795609 3 0 
C 3 -0.795609 2.683901 -1.55874 2.12132 -2.12132 
C 1.55874 -2.683901 0.795609 -3 0 -3 
C -0.795609 -3 -1.55874 -2.683901 -2.12132 -2.12132 
C -2.683901 -1.55874 -3 -0.795609 -3 0 
C -3 0.795609 -2.683901 1.55874 -2.12132 2.12132 
C -1.55874 2.683901 -0.795609 3 0 3 
z
" style="stroke: #800020"/>
    </defs>
    <g clip-path="url(#p8ec9649cd7)">
     <use xlink:href="#m4a8e5c85a6" x="105.871258" y="53.010055" style="fill: #800020; stroke: #800020"/>
     <use xlink:href="#m4a8e5c85a6" x="147.055589" y="41.055104" style="fill: #800020; stroke: #800020"/>
     <use xlink:href="#m4a8e5c85a6" x="188.239919" y="41.5098" style="fill: #800020; stroke: #800020"/>
     <use xlink:href="#m4a8e5c85a6" x="270.60858" y="100.653742" style="fill: #800020; stroke: #800020"/>
     <use xlink:href="#m4a8e5c85a6" x="352.97724" y="139.962998" style="fill: #800020; stroke: #800020"/>
     <use xlink:href="#m4a8e5c85a6" x="435.345901" y="150.602471" style="fill: #800020; stroke: #800020"/>
     <use xlink:href="#m4a8e5c85a6" x="517.714561" y="153.963718" style="fill: #800020; stroke: #800020"/>
     <use xlink:href="#m4a8e5c85a6" x="600.083222" y="155.557247" style="fill: #800020; stroke: #800020"/>
    </g>
   </g>
   <g id="matplotlib.axis_1">
    <g id="xtick_1">
     <g id="line2d_1">
      <path d="M 147.055589 292.424375 
L 147.055589 29.084375 
" clip-path="url(#p8ec9649cd7)" style="fill: none; stroke: #b0b0b0; stroke-linecap: square"/>
     </g>
     <g id="line2d_2">
      <defs>
       <path id="md448f110a2" d="M 0 0 
L 0 -6 
" style="stroke: #000000"/>
      </defs>
      <g>
       <use xlink:href="#md448f110a2" x="147.055589" y="292.424375" style="stroke: #000000"/>
      </g>
     </g>
     <g id="line2d_3">
      <defs>
       <path id="m8611a7f413" d="M 0 0 
L 0 6 
" style="stroke: #000000"/>
      </defs>
      <g>
       <use xlink:href="#m8611a7f413" x="147.055589" y="29.084375" style="stroke: #000000"/>
      </g>
     </g>
     <g id="text_1">
      <!-- 2 -->
      <g transform="translate(140.805589 313.28375) scale(0.25 -0.25)">
       <defs>
        <path id="TimesNewRomanPSMT-32" d="M 2934 816 
L 2638 0 
L 138 0 
L 138 116 
Q 1241 1122 1691 1759 
Q 2141 2397 2141 2925 
Q 2141 3328 1894 3587 
Q 1647 3847 1303 3847 
Q 991 3847 742 3664 
Q 494 3481 375 3128 
L 259 3128 
Q 338 3706 661 4015 
Q 984 4325 1469 4325 
Q 1984 4325 2329 3994 
Q 2675 3663 2675 3213 
Q 2675 2891 2525 2569 
Q 2294 2063 1775 1497 
Q 997 647 803 472 
L 1909 472 
Q 2247 472 2383 497 
Q 2519 522 2628 598 
Q 2738 675 2819 816 
L 2934 816 
z
" transform="scale(0.015625)"/>
       </defs>
       <use xlink:href="#TimesNewRomanPSMT-32"/>
      </g>
     </g>
    </g>
    <g id="xtick_2">
     <g id="line2d_4">
      <path d="M 229.424249 292.424375 
L 229.424249 29.084375 
" clip-path="url(#p8ec9649cd7)" style="fill: none; stroke: #b0b0b0; stroke-linecap: square"/>
     </g>
     <g id="line2d_5">
      <g>
       <use xlink:href="#md448f110a2" x="229.424249" y="292.424375" style="stroke: #000000"/>
      </g>
     </g>
     <g id="line2d_6">
      <g>
       <use xlink:href="#m8611a7f413" x="229.424249" y="29.084375" style="stroke: #000000"/>
      </g>
     </g>
     <g id="text_2">
      <!-- 4 -->
      <g transform="translate(223.174249 313.28375) scale(0.25 -0.25)">
       <defs>
        <path id="TimesNewRomanPSMT-34" d="M 2978 1563 
L 2978 1119 
L 2409 1119 
L 2409 0 
L 1894 0 
L 1894 1119 
L 100 1119 
L 100 1519 
L 2066 4325 
L 2409 4325 
L 2409 1563 
L 2978 1563 
z
M 1894 1563 
L 1894 3666 
L 406 1563 
L 1894 1563 
z
" transform="scale(0.015625)"/>
       </defs>
       <use xlink:href="#TimesNewRomanPSMT-34"/>
      </g>
     </g>
    </g>
    <g id="xtick_3">
     <g id="line2d_7">
      <path d="M 311.79291 292.424375 
L 311.79291 29.084375 
" clip-path="url(#p8ec9649cd7)" style="fill: none; stroke: #b0b0b0; stroke-linecap: square"/>
     </g>
     <g id="line2d_8">
      <g>
       <use xlink:href="#md448f110a2" x="311.79291" y="292.424375" style="stroke: #000000"/>
      </g>
     </g>
     <g id="line2d_9">
      <g>
       <use xlink:href="#m8611a7f413" x="311.79291" y="29.084375" style="stroke: #000000"/>
      </g>
     </g>
     <g id="text_3">
      <!-- 6 -->
      <g transform="translate(305.54291 313.28375) scale(0.25 -0.25)">
       <defs>
        <path id="TimesNewRomanPSMT-36" d="M 2869 4325 
L 2869 4209 
Q 2456 4169 2195 4045 
Q 1934 3922 1679 3669 
Q 1425 3416 1258 3105 
Q 1091 2794 978 2366 
Q 1428 2675 1881 2675 
Q 2316 2675 2634 2325 
Q 2953 1975 2953 1425 
Q 2953 894 2631 456 
Q 2244 -75 1606 -75 
Q 1172 -75 869 213 
Q 275 772 275 1663 
Q 275 2231 503 2743 
Q 731 3256 1154 3653 
Q 1578 4050 1965 4187 
Q 2353 4325 2688 4325 
L 2869 4325 
z
M 925 2138 
Q 869 1716 869 1456 
Q 869 1156 980 804 
Q 1091 453 1309 247 
Q 1469 100 1697 100 
Q 1969 100 2183 356 
Q 2397 613 2397 1088 
Q 2397 1622 2184 2012 
Q 1972 2403 1581 2403 
Q 1463 2403 1327 2353 
Q 1191 2303 925 2138 
z
" transform="scale(0.015625)"/>
       </defs>
       <use xlink:href="#TimesNewRomanPSMT-36"/>
      </g>
     </g>
    </g>
    <g id="xtick_4">
     <g id="line2d_10">
      <path d="M 394.16157 292.424375 
L 394.16157 29.084375 
" clip-path="url(#p8ec9649cd7)" style="fill: none; stroke: #b0b0b0; stroke-linecap: square"/>
     </g>
     <g id="line2d_11">
      <g>
       <use xlink:href="#md448f110a2" x="394.16157" y="292.424375" style="stroke: #000000"/>
      </g>
     </g>
     <g id="line2d_12">
      <g>
       <use xlink:href="#m8611a7f413" x="394.16157" y="29.084375" style="stroke: #000000"/>
      </g>
     </g>
     <g id="text_4">
      <!-- 8 -->
      <g transform="translate(387.91157 313.28375) scale(0.25 -0.25)">
       <defs>
        <path id="TimesNewRomanPSMT-38" d="M 1228 2134 
Q 725 2547 579 2797 
Q 434 3047 434 3316 
Q 434 3728 753 4026 
Q 1072 4325 1600 4325 
Q 2113 4325 2425 4047 
Q 2738 3769 2738 3413 
Q 2738 3175 2569 2928 
Q 2400 2681 1866 2347 
Q 2416 1922 2594 1678 
Q 2831 1359 2831 1006 
Q 2831 559 2490 242 
Q 2150 -75 1597 -75 
Q 994 -75 656 303 
Q 388 606 388 966 
Q 388 1247 577 1523 
Q 766 1800 1228 2134 
z
M 1719 2469 
Q 2094 2806 2194 3001 
Q 2294 3197 2294 3444 
Q 2294 3772 2109 3958 
Q 1925 4144 1606 4144 
Q 1288 4144 1088 3959 
Q 888 3775 888 3528 
Q 888 3366 970 3203 
Q 1053 3041 1206 2894 
L 1719 2469 
z
M 1375 2016 
Q 1116 1797 991 1539 
Q 866 1281 866 981 
Q 866 578 1086 336 
Q 1306 94 1647 94 
Q 1984 94 2187 284 
Q 2391 475 2391 747 
Q 2391 972 2272 1150 
Q 2050 1481 1375 2016 
z
" transform="scale(0.015625)"/>
       </defs>
       <use xlink:href="#TimesNewRomanPSMT-38"/>
      </g>
     </g>
    </g>
    <g id="xtick_5">
     <g id="line2d_13">
      <path d="M 476.530231 292.424375 
L 476.530231 29.084375 
" clip-path="url(#p8ec9649cd7)" style="fill: none; stroke: #b0b0b0; stroke-linecap: square"/>
     </g>
     <g id="line2d_14">
      <g>
       <use xlink:href="#md448f110a2" x="476.530231" y="292.424375" style="stroke: #000000"/>
      </g>
     </g>
     <g id="line2d_15">
      <g>
       <use xlink:href="#m8611a7f413" x="476.530231" y="29.084375" style="stroke: #000000"/>
      </g>
     </g>
     <g id="text_5">
      <!-- 10 -->
      <g transform="translate(464.030231 313.28375) scale(0.25 -0.25)">
       <defs>
        <path id="TimesNewRomanPSMT-31" d="M 750 3822 
L 1781 4325 
L 1884 4325 
L 1884 747 
Q 1884 391 1914 303 
Q 1944 216 2037 169 
Q 2131 122 2419 116 
L 2419 0 
L 825 0 
L 825 116 
Q 1125 122 1212 167 
Q 1300 213 1334 289 
Q 1369 366 1369 747 
L 1369 3034 
Q 1369 3497 1338 3628 
Q 1316 3728 1258 3775 
Q 1200 3822 1119 3822 
Q 1003 3822 797 3725 
L 750 3822 
z
" transform="scale(0.015625)"/>
        <path id="TimesNewRomanPSMT-30" d="M 231 2094 
Q 231 2819 450 3342 
Q 669 3866 1031 4122 
Q 1313 4325 1613 4325 
Q 2100 4325 2488 3828 
Q 2972 3213 2972 2159 
Q 2972 1422 2759 906 
Q 2547 391 2217 158 
Q 1888 -75 1581 -75 
Q 975 -75 572 641 
Q 231 1244 231 2094 
z
M 844 2016 
Q 844 1141 1059 588 
Q 1238 122 1591 122 
Q 1759 122 1940 273 
Q 2122 425 2216 781 
Q 2359 1319 2359 2297 
Q 2359 3022 2209 3506 
Q 2097 3866 1919 4016 
Q 1791 4119 1609 4119 
Q 1397 4119 1231 3928 
Q 1006 3669 925 3112 
Q 844 2556 844 2016 
z
" transform="scale(0.015625)"/>
       </defs>
       <use xlink:href="#TimesNewRomanPSMT-31"/>
       <use xlink:href="#TimesNewRomanPSMT-30" transform="translate(50 0)"/>
      </g>
     </g>
    </g>
    <g id="xtick_6">
     <g id="line2d_16">
      <path d="M 558.898892 292.424375 
L 558.898892 29.084375 
" clip-path="url(#p8ec9649cd7)" style="fill: none; stroke: #b0b0b0; stroke-linecap: square"/>
     </g>
     <g id="line2d_17">
      <g>
       <use xlink:href="#md448f110a2" x="558.898892" y="292.424375" style="stroke: #000000"/>
      </g>
     </g>
     <g id="line2d_18">
      <g>
       <use xlink:href="#m8611a7f413" x="558.898892" y="29.084375" style="stroke: #000000"/>
      </g>
     </g>
     <g id="text_6">
      <!-- 12 -->
      <g transform="translate(546.398892 313.28375) scale(0.25 -0.25)">
       <use xlink:href="#TimesNewRomanPSMT-31"/>
       <use xlink:href="#TimesNewRomanPSMT-32" transform="translate(50 0)"/>
      </g>
     </g>
    </g>
    <g id="xtick_7">
     <g id="line2d_19">
      <path d="M 641.267552 292.424375 
L 641.267552 29.084375 
" clip-path="url(#p8ec9649cd7)" style="fill: none; stroke: #b0b0b0; stroke-linecap: square"/>
     </g>
     <g id="line2d_20">
      <g>
       <use xlink:href="#md448f110a2" x="641.267552" y="292.424375" style="stroke: #000000"/>
      </g>
     </g>
     <g id="line2d_21">
      <g>
       <use xlink:href="#m8611a7f413" x="641.267552" y="29.084375" style="stroke: #000000"/>
      </g>
     </g>
     <g id="text_7">
      <!-- 14 -->
      <g transform="translate(628.767552 313.28375) scale(0.25 -0.25)">
       <use xlink:href="#TimesNewRomanPSMT-31"/>
       <use xlink:href="#TimesNewRomanPSMT-34" transform="translate(50 0)"/>
      </g>
     </g>
    </g>
    <g id="xtick_8">
     <g id="line2d_22">
      <defs>
       <path id="mc4485e5647" d="M 0 0 
L 0 -3 
" style="stroke: #000000"/>
      </defs>
      <g>
       <use xlink:href="#mc4485e5647" x="85.279093" y="292.424375" style="stroke: #000000"/>
      </g>
     </g>
     <g id="line2d_23">
      <defs>
       <path id="m06cb5e97dc" d="M 0 0 
L 0 3 
" style="stroke: #000000"/>
      </defs>
      <g>
       <use xlink:href="#m06cb5e97dc" x="85.279093" y="29.084375" style="stroke: #000000"/>
      </g>
     </g>
    </g>
    <g id="xtick_9">
     <g id="line2d_24">
      <g>
       <use xlink:href="#mc4485e5647" x="105.871258" y="292.424375" style="stroke: #000000"/>
      </g>
     </g>
     <g id="line2d_25">
      <g>
       <use xlink:href="#m06cb5e97dc" x="105.871258" y="29.084375" style="stroke: #000000"/>
      </g>
     </g>
    </g>
    <g id="xtick_10">
     <g id="line2d_26">
      <g>
       <use xlink:href="#mc4485e5647" x="126.463423" y="292.424375" style="stroke: #000000"/>
      </g>
     </g>
     <g id="line2d_27">
      <g>
       <use xlink:href="#m06cb5e97dc" x="126.463423" y="29.084375" style="stroke: #000000"/>
      </g>
     </g>
    </g>
    <g id="xtick_11">
     <g id="line2d_28">
      <g>
       <use xlink:href="#mc4485e5647" x="167.647754" y="292.424375" style="stroke: #000000"/>
      </g>
     </g>
     <g id="line2d_29">
      <g>
       <use xlink:href="#m06cb5e97dc" x="167.647754" y="29.084375" style="stroke: #000000"/>
      </g>
     </g>
    </g>
    <g id="xtick_12">
     <g id="line2d_30">
      <g>
       <use xlink:href="#mc4485e5647" x="188.239919" y="292.424375" style="stroke: #000000"/>
      </g>
     </g>
     <g id="line2d_31">
      <g>
       <use xlink:href="#m06cb5e97dc" x="188.239919" y="29.084375" style="stroke: #000000"/>
      </g>
     </g>
    </g>
    <g id="xtick_13">
     <g id="line2d_32">
      <g>
       <use xlink:href="#mc4485e5647" x="208.832084" y="292.424375" style="stroke: #000000"/>
      </g>
     </g>
     <g id="line2d_33">
      <g>
       <use xlink:href="#m06cb5e97dc" x="208.832084" y="29.084375" style="stroke: #000000"/>
      </g>
     </g>
    </g>
    <g id="xtick_14">
     <g id="line2d_34">
      <g>
       <use xlink:href="#mc4485e5647" x="250.016414" y="292.424375" style="stroke: #000000"/>
      </g>
     </g>
     <g id="line2d_35">
      <g>
       <use xlink:href="#m06cb5e97dc" x="250.016414" y="29.084375" style="stroke: #000000"/>
      </g>
     </g>
    </g>
    <g id="xtick_15">
     <g id="line2d_36">
      <g>
       <use xlink:href="#mc4485e5647" x="270.60858" y="292.424375" style="stroke: #000000"/>
      </g>
     </g>
     <g id="line2d_37">
      <g>
       <use xlink:href="#m06cb5e97dc" x="270.60858" y="29.084375" style="stroke: #000000"/>
      </g>
     </g>
    </g>
    <g id="xtick_16">
     <g id="line2d_38">
      <g>
       <use xlink:href="#mc4485e5647" x="291.200745" y="292.424375" style="stroke: #000000"/>
      </g>
     </g>
     <g id="line2d_39">
      <g>
       <use xlink:href="#m06cb5e97dc" x="291.200745" y="29.084375" style="stroke: #000000"/>
      </g>
     </g>
    </g>
    <g id="xtick_17">
     <g id="line2d_40">
      <g>
       <use xlink:href="#mc4485e5647" x="332.385075" y="292.424375" style="stroke: #000000"/>
      </g>
     </g>
     <g id="line2d_41">
      <g>
       <use xlink:href="#m06cb5e97dc" x="332.385075" y="29.084375" style="stroke: #000000"/>
      </g>
     </g>
    </g>
    <g id="xtick_18">
     <g id="line2d_42">
      <g>
       <use xlink:href="#mc4485e5647" x="352.97724" y="292.424375" style="stroke: #000000"/>
      </g>
     </g>
     <g id="line2d_43">
      <g>
       <use xlink:href="#m06cb5e97dc" x="352.97724" y="29.084375" style="stroke: #000000"/>
      </g>
     </g>
    </g>
    <g id="xtick_19">
     <g id="line2d_44">
      <g>
       <use xlink:href="#mc4485e5647" x="373.569405" y="292.424375" style="stroke: #000000"/>
      </g>
     </g>
     <g id="line2d_45">
      <g>
       <use xlink:href="#m06cb5e97dc" x="373.569405" y="29.084375" style="stroke: #000000"/>
      </g>
     </g>
    </g>
    <g id="xtick_20">
     <g id="line2d_46">
      <g>
       <use xlink:href="#mc4485e5647" x="414.753736" y="292.424375" style="stroke: #000000"/>
      </g>
     </g>
     <g id="line2d_47">
      <g>
       <use xlink:href="#m06cb5e97dc" x="414.753736" y="29.084375" style="stroke: #000000"/>
      </g>
     </g>
    </g>
    <g id="xtick_21">
     <g id="line2d_48">
      <g>
       <use xlink:href="#mc4485e5647" x="435.345901" y="292.424375" style="stroke: #000000"/>
      </g>
     </g>
     <g id="line2d_49">
      <g>
       <use xlink:href="#m06cb5e97dc" x="435.345901" y="29.084375" style="stroke: #000000"/>
      </g>
     </g>
    </g>
    <g id="xtick_22">
     <g id="line2d_50">
      <g>
       <use xlink:href="#mc4485e5647" x="455.938066" y="292.424375" style="stroke: #000000"/>
      </g>
     </g>
     <g id="line2d_51">
      <g>
       <use xlink:href="#m06cb5e97dc" x="455.938066" y="29.084375" style="stroke: #000000"/>
      </g>
     </g>
    </g>
    <g id="xtick_23">
     <g id="line2d_52">
      <g>
       <use xlink:href="#mc4485e5647" x="497.122396" y="292.424375" style="stroke: #000000"/>
      </g>
     </g>
     <g id="line2d_53">
      <g>
       <use xlink:href="#m06cb5e97dc" x="497.122396" y="29.084375" style="stroke: #000000"/>
      </g>
     </g>
    </g>
    <g id="xtick_24">
     <g id="line2d_54">
      <g>
       <use xlink:href="#mc4485e5647" x="517.714561" y="292.424375" style="stroke: #000000"/>
      </g>
     </g>
     <g id="line2d_55">
      <g>
       <use xlink:href="#m06cb5e97dc" x="517.714561" y="29.084375" style="stroke: #000000"/>
      </g>
     </g>
    </g>
    <g id="xtick_25">
     <g id="line2d_56">
      <g>
       <use xlink:href="#mc4485e5647" x="538.306727" y="292.424375" style="stroke: #000000"/>
      </g>
     </g>
     <g id="line2d_57">
      <g>
       <use xlink:href="#m06cb5e97dc" x="538.306727" y="29.084375" style="stroke: #000000"/>
      </g>
     </g>
    </g>
    <g id="xtick_26">
     <g id="line2d_58">
      <g>
       <use xlink:href="#mc4485e5647" x="579.491057" y="292.424375" style="stroke: #000000"/>
      </g>
     </g>
     <g id="line2d_59">
      <g>
       <use xlink:href="#m06cb5e97dc" x="579.491057" y="29.084375" style="stroke: #000000"/>
      </g>
     </g>
    </g>
    <g id="xtick_27">
     <g id="line2d_60">
      <g>
       <use xlink:href="#mc4485e5647" x="600.083222" y="292.424375" style="stroke: #000000"/>
      </g>
     </g>
     <g id="line2d_61">
      <g>
       <use xlink:href="#m06cb5e97dc" x="600.083222" y="29.084375" style="stroke: #000000"/>
      </g>
     </g>
    </g>
    <g id="xtick_28">
     <g id="line2d_62">
      <g>
       <use xlink:href="#mc4485e5647" x="620.675387" y="292.424375" style="stroke: #000000"/>
      </g>
     </g>
     <g id="line2d_63">
      <g>
       <use xlink:href="#m06cb5e97dc" x="620.675387" y="29.084375" style="stroke: #000000"/>
      </g>
     </g>
    </g>
    <g id="xtick_29">
     <g id="line2d_64">
      <g>
       <use xlink:href="#mc4485e5647" x="661.859717" y="292.424375" style="stroke: #000000"/>
      </g>
     </g>
     <g id="line2d_65">
      <g>
       <use xlink:href="#m06cb5e97dc" x="661.859717" y="29.084375" style="stroke: #000000"/>
      </g>
     </g>
    </g>
    <g id="xtick_30">
     <g id="line2d_66">
      <g>
       <use xlink:href="#mc4485e5647" x="682.451883" y="292.424375" style="stroke: #000000"/>
      </g>
     </g>
     <g id="line2d_67">
      <g>
       <use xlink:href="#m06cb5e97dc" x="682.451883" y="29.084375" style="stroke: #000000"/>
      </g>
     </g>
    </g>
    <g id="text_8">
     <!-- Manifold $J$ -->
     <g transform="translate(335.638529 340.78375) scale(0.25 -0.25)">
      <defs>
       <path id="TimesNewRomanPSMT-4d" d="M 2619 0 
L 981 3566 
L 981 734 
Q 981 344 1066 247 
Q 1181 116 1431 116 
L 1581 116 
L 1581 0 
L 106 0 
L 106 116 
L 256 116 
Q 525 116 638 278 
Q 706 378 706 734 
L 706 3503 
Q 706 3784 644 3909 
Q 600 4000 483 4061 
Q 366 4122 106 4122 
L 106 4238 
L 1306 4238 
L 2844 922 
L 4356 4238 
L 5556 4238 
L 5556 4122 
L 5409 4122 
Q 5138 4122 5025 3959 
Q 4956 3859 4956 3503 
L 4956 734 
Q 4956 344 5044 247 
Q 5159 116 5409 116 
L 5556 116 
L 5556 0 
L 3756 0 
L 3756 116 
L 3906 116 
Q 4178 116 4288 278 
Q 4356 378 4356 734 
L 4356 3566 
L 2722 0 
L 2619 0 
z
" transform="scale(0.015625)"/>
       <path id="TimesNewRomanPSMT-61" d="M 1822 413 
Q 1381 72 1269 19 
Q 1100 -59 909 -59 
Q 613 -59 420 144 
Q 228 347 228 678 
Q 228 888 322 1041 
Q 450 1253 767 1440 
Q 1084 1628 1822 1897 
L 1822 2009 
Q 1822 2438 1686 2597 
Q 1550 2756 1291 2756 
Q 1094 2756 978 2650 
Q 859 2544 859 2406 
L 866 2225 
Q 866 2081 792 2003 
Q 719 1925 600 1925 
Q 484 1925 411 2006 
Q 338 2088 338 2228 
Q 338 2497 613 2722 
Q 888 2947 1384 2947 
Q 1766 2947 2009 2819 
Q 2194 2722 2281 2516 
Q 2338 2381 2338 1966 
L 2338 994 
Q 2338 584 2353 492 
Q 2369 400 2405 369 
Q 2441 338 2488 338 
Q 2538 338 2575 359 
Q 2641 400 2828 588 
L 2828 413 
Q 2478 -56 2159 -56 
Q 2006 -56 1915 50 
Q 1825 156 1822 413 
z
M 1822 616 
L 1822 1706 
Q 1350 1519 1213 1441 
Q 966 1303 859 1153 
Q 753 1003 753 825 
Q 753 600 887 451 
Q 1022 303 1197 303 
Q 1434 303 1822 616 
z
" transform="scale(0.015625)"/>
       <path id="TimesNewRomanPSMT-6e" d="M 1034 2341 
Q 1538 2947 1994 2947 
Q 2228 2947 2397 2830 
Q 2566 2713 2666 2444 
Q 2734 2256 2734 1869 
L 2734 647 
Q 2734 375 2778 278 
Q 2813 200 2889 156 
Q 2966 113 3172 113 
L 3172 0 
L 1756 0 
L 1756 113 
L 1816 113 
Q 2016 113 2095 173 
Q 2175 234 2206 353 
Q 2219 400 2219 647 
L 2219 1819 
Q 2219 2209 2117 2386 
Q 2016 2563 1775 2563 
Q 1403 2563 1034 2156 
L 1034 647 
Q 1034 356 1069 288 
Q 1113 197 1189 155 
Q 1266 113 1500 113 
L 1500 0 
L 84 0 
L 84 113 
L 147 113 
Q 366 113 442 223 
Q 519 334 519 647 
L 519 1709 
Q 519 2225 495 2337 
Q 472 2450 423 2490 
Q 375 2531 294 2531 
Q 206 2531 84 2484 
L 38 2597 
L 900 2947 
L 1034 2947 
L 1034 2341 
z
" transform="scale(0.015625)"/>
       <path id="TimesNewRomanPSMT-69" d="M 928 4444 
Q 1059 4444 1151 4351 
Q 1244 4259 1244 4128 
Q 1244 3997 1151 3903 
Q 1059 3809 928 3809 
Q 797 3809 703 3903 
Q 609 3997 609 4128 
Q 609 4259 701 4351 
Q 794 4444 928 4444 
z
M 1188 2947 
L 1188 647 
Q 1188 378 1227 289 
Q 1266 200 1342 156 
Q 1419 113 1622 113 
L 1622 0 
L 231 0 
L 231 113 
Q 441 113 512 153 
Q 584 194 626 287 
Q 669 381 669 647 
L 669 1750 
Q 669 2216 641 2353 
Q 619 2453 572 2492 
Q 525 2531 444 2531 
Q 356 2531 231 2484 
L 188 2597 
L 1050 2947 
L 1188 2947 
z
" transform="scale(0.015625)"/>
       <path id="TimesNewRomanPSMT-66" d="M 1319 2638 
L 1319 756 
Q 1319 356 1406 250 
Q 1522 113 1716 113 
L 1975 113 
L 1975 0 
L 266 0 
L 266 113 
L 394 113 
Q 519 113 622 175 
Q 725 238 764 344 
Q 803 450 803 756 
L 803 2638 
L 247 2638 
L 247 2863 
L 803 2863 
L 803 3050 
Q 803 3478 940 3775 
Q 1078 4072 1361 4255 
Q 1644 4438 1997 4438 
Q 2325 4438 2600 4225 
Q 2781 4084 2781 3909 
Q 2781 3816 2700 3733 
Q 2619 3650 2525 3650 
Q 2453 3650 2373 3701 
Q 2294 3753 2178 3923 
Q 2063 4094 1966 4153 
Q 1869 4213 1750 4213 
Q 1606 4213 1506 4136 
Q 1406 4059 1362 3898 
Q 1319 3738 1319 3069 
L 1319 2863 
L 2056 2863 
L 2056 2638 
L 1319 2638 
z
" transform="scale(0.015625)"/>
       <path id="TimesNewRomanPSMT-6f" d="M 1600 2947 
Q 2250 2947 2644 2453 
Q 2978 2031 2978 1484 
Q 2978 1100 2793 706 
Q 2609 313 2286 112 
Q 1963 -88 1566 -88 
Q 919 -88 538 428 
Q 216 863 216 1403 
Q 216 1797 411 2186 
Q 606 2575 925 2761 
Q 1244 2947 1600 2947 
z
M 1503 2744 
Q 1338 2744 1170 2645 
Q 1003 2547 900 2300 
Q 797 2053 797 1666 
Q 797 1041 1045 587 
Q 1294 134 1700 134 
Q 2003 134 2200 384 
Q 2397 634 2397 1244 
Q 2397 2006 2069 2444 
Q 1847 2744 1503 2744 
z
" transform="scale(0.015625)"/>
       <path id="TimesNewRomanPSMT-6c" d="M 1184 4444 
L 1184 647 
Q 1184 378 1223 290 
Q 1263 203 1344 158 
Q 1425 113 1647 113 
L 1647 0 
L 244 0 
L 244 113 
Q 441 113 512 153 
Q 584 194 625 287 
Q 666 381 666 647 
L 666 3247 
Q 666 3731 644 3842 
Q 622 3953 573 3993 
Q 525 4034 450 4034 
Q 369 4034 244 3984 
L 191 4094 
L 1044 4444 
L 1184 4444 
z
" transform="scale(0.015625)"/>
       <path id="TimesNewRomanPSMT-64" d="M 2222 322 
Q 2013 103 1813 7 
Q 1613 -88 1381 -88 
Q 913 -88 563 304 
Q 213 697 213 1313 
Q 213 1928 600 2439 
Q 988 2950 1597 2950 
Q 1975 2950 2222 2709 
L 2222 3238 
Q 2222 3728 2198 3840 
Q 2175 3953 2125 3993 
Q 2075 4034 2000 4034 
Q 1919 4034 1784 3984 
L 1744 4094 
L 2597 4444 
L 2738 4444 
L 2738 1134 
Q 2738 631 2761 520 
Q 2784 409 2836 365 
Q 2888 322 2956 322 
Q 3041 322 3181 375 
L 3216 266 
L 2366 -88 
L 2222 -88 
L 2222 322 
z
M 2222 541 
L 2222 2016 
Q 2203 2228 2109 2403 
Q 2016 2578 1861 2667 
Q 1706 2756 1559 2756 
Q 1284 2756 1069 2509 
Q 784 2184 784 1559 
Q 784 928 1059 592 
Q 1334 256 1672 256 
Q 1956 256 2222 541 
z
" transform="scale(0.015625)"/>
       <path id="TimesNewRomanPSMT-20" transform="scale(0.015625)"/>
       <path id="DejaVuSans-Oblique-4a" d="M 1069 4666 
L 1703 4666 
L 856 325 
Q 691 -522 298 -901 
Q -94 -1281 -800 -1281 
L -1050 -1281 
L -947 -750 
L -750 -750 
Q -328 -750 -109 -509 
Q 109 -269 225 325 
L 1069 4666 
z
" transform="scale(0.015625)"/>
      </defs>
      <use xlink:href="#TimesNewRomanPSMT-4d" transform="translate(0 0.09375)"/>
      <use xlink:href="#TimesNewRomanPSMT-61" transform="translate(88.916016 0.09375)"/>
      <use xlink:href="#TimesNewRomanPSMT-6e" transform="translate(133.300781 0.09375)"/>
      <use xlink:href="#TimesNewRomanPSMT-69" transform="translate(183.300781 0.09375)"/>
      <use xlink:href="#TimesNewRomanPSMT-66" transform="translate(211.083984 0.09375)"/>
      <use xlink:href="#TimesNewRomanPSMT-6f" transform="translate(244.384766 0.09375)"/>
      <use xlink:href="#TimesNewRomanPSMT-6c" transform="translate(294.384766 0.09375)"/>
      <use xlink:href="#TimesNewRomanPSMT-64" transform="translate(322.167969 0.09375)"/>
      <use xlink:href="#TimesNewRomanPSMT-20" transform="translate(372.167969 0.09375)"/>
      <use xlink:href="#DejaVuSans-Oblique-4a" transform="translate(397.167969 0.09375)"/>
     </g>
    </g>
   </g>
   <g id="matplotlib.axis_2">
    <g id="ytick_1">
     <g id="line2d_68">
      <path d="M 77.557031 280.454375 
L 700.470027 280.454375 
" clip-path="url(#p8ec9649cd7)" style="fill: none; stroke: #b0b0b0; stroke-linecap: square"/>
     </g>
     <g id="line2d_69">
      <defs>
       <path id="m7d3c49e617" d="M 0 0 
L 6 0 
" style="stroke: #000000"/>
      </defs>
      <g>
       <use xlink:href="#m7d3c49e617" x="77.557031" y="280.454375" style="stroke: #000000"/>
      </g>
     </g>
     <g id="line2d_70">
      <defs>
       <path id="m8ed97797d7" d="M 0 0 
L -6 0 
" style="stroke: #000000"/>
      </defs>
      <g>
       <use xlink:href="#m8ed97797d7" x="700.470027" y="280.454375" style="stroke: #000000"/>
      </g>
     </g>
     <g id="text_9">
      <!-- 0.00 -->
      <g transform="translate(30.307031 289.134062) scale(0.25 -0.25)">
       <defs>
        <path id="TimesNewRomanPSMT-2e" d="M 800 606 
Q 947 606 1047 504 
Q 1147 403 1147 259 
Q 1147 116 1045 14 
Q 944 -88 800 -88 
Q 656 -88 554 14 
Q 453 116 453 259 
Q 453 406 554 506 
Q 656 606 800 606 
z
" transform="scale(0.015625)"/>
       </defs>
       <use xlink:href="#TimesNewRomanPSMT-30"/>
       <use xlink:href="#TimesNewRomanPSMT-2e" transform="translate(50 0)"/>
       <use xlink:href="#TimesNewRomanPSMT-30" transform="translate(75 0)"/>
       <use xlink:href="#TimesNewRomanPSMT-30" transform="translate(125 0)"/>
      </g>
     </g>
    </g>
    <g id="ytick_2">
     <g id="line2d_71">
      <path d="M 77.557031 220.604375 
L 700.470027 220.604375 
" clip-path="url(#p8ec9649cd7)" style="fill: none; stroke: #b0b0b0; stroke-linecap: square"/>
     </g>
     <g id="line2d_72">
      <g>
       <use xlink:href="#m7d3c49e617" x="77.557031" y="220.604375" style="stroke: #000000"/>
      </g>
     </g>
     <g id="line2d_73">
      <g>
       <use xlink:href="#m8ed97797d7" x="700.470027" y="220.604375" style="stroke: #000000"/>
      </g>
     </g>
     <g id="text_10">
      <!-- 0.25 -->
      <g transform="translate(30.307031 229.284062) scale(0.25 -0.25)">
       <defs>
        <path id="TimesNewRomanPSMT-35" d="M 2778 4238 
L 2534 3706 
L 1259 3706 
L 981 3138 
Q 1809 3016 2294 2522 
Q 2709 2097 2709 1522 
Q 2709 1188 2573 903 
Q 2438 619 2231 419 
Q 2025 219 1772 97 
Q 1413 -75 1034 -75 
Q 653 -75 479 54 
Q 306 184 306 341 
Q 306 428 378 495 
Q 450 563 559 563 
Q 641 563 702 538 
Q 763 513 909 409 
Q 1144 247 1384 247 
Q 1750 247 2026 523 
Q 2303 800 2303 1197 
Q 2303 1581 2056 1914 
Q 1809 2247 1375 2428 
Q 1034 2569 447 2591 
L 1259 4238 
L 2778 4238 
z
" transform="scale(0.015625)"/>
       </defs>
       <use xlink:href="#TimesNewRomanPSMT-30"/>
       <use xlink:href="#TimesNewRomanPSMT-2e" transform="translate(50 0)"/>
       <use xlink:href="#TimesNewRomanPSMT-32" transform="translate(75 0)"/>
       <use xlink:href="#TimesNewRomanPSMT-35" transform="translate(125 0)"/>
      </g>
     </g>
    </g>
    <g id="ytick_3">
     <g id="line2d_74">
      <path d="M 77.557031 160.754375 
L 700.470027 160.754375 
" clip-path="url(#p8ec9649cd7)" style="fill: none; stroke: #b0b0b0; stroke-linecap: square"/>
     </g>
     <g id="line2d_75">
      <g>
       <use xlink:href="#m7d3c49e617" x="77.557031" y="160.754375" style="stroke: #000000"/>
      </g>
     </g>
     <g id="line2d_76">
      <g>
       <use xlink:href="#m8ed97797d7" x="700.470027" y="160.754375" style="stroke: #000000"/>
      </g>
     </g>
     <g id="text_11">
      <!-- 0.50 -->
      <g transform="translate(30.307031 169.434062) scale(0.25 -0.25)">
       <use xlink:href="#TimesNewRomanPSMT-30"/>
       <use xlink:href="#TimesNewRomanPSMT-2e" transform="translate(50 0)"/>
       <use xlink:href="#TimesNewRomanPSMT-35" transform="translate(75 0)"/>
       <use xlink:href="#TimesNewRomanPSMT-30" transform="translate(125 0)"/>
      </g>
     </g>
    </g>
    <g id="ytick_4">
     <g id="line2d_77">
      <path d="M 77.557031 100.904375 
L 700.470027 100.904375 
" clip-path="url(#p8ec9649cd7)" style="fill: none; stroke: #b0b0b0; stroke-linecap: square"/>
     </g>
     <g id="line2d_78">
      <g>
       <use xlink:href="#m7d3c49e617" x="77.557031" y="100.904375" style="stroke: #000000"/>
      </g>
     </g>
     <g id="line2d_79">
      <g>
       <use xlink:href="#m8ed97797d7" x="700.470027" y="100.904375" style="stroke: #000000"/>
      </g>
     </g>
     <g id="text_12">
      <!-- 0.75 -->
      <g transform="translate(30.307031 109.584062) scale(0.25 -0.25)">
       <defs>
        <path id="TimesNewRomanPSMT-37" d="M 644 4238 
L 2916 4238 
L 2916 4119 
L 1503 -88 
L 1153 -88 
L 2419 3728 
L 1253 3728 
Q 900 3728 750 3644 
Q 488 3500 328 3200 
L 238 3234 
L 644 4238 
z
" transform="scale(0.015625)"/>
       </defs>
       <use xlink:href="#TimesNewRomanPSMT-30"/>
       <use xlink:href="#TimesNewRomanPSMT-2e" transform="translate(50 0)"/>
       <use xlink:href="#TimesNewRomanPSMT-37" transform="translate(75 0)"/>
       <use xlink:href="#TimesNewRomanPSMT-35" transform="translate(125 0)"/>
      </g>
     </g>
    </g>
    <g id="ytick_5">
     <g id="line2d_80">
      <path d="M 77.557031 41.054375 
L 700.470027 41.054375 
" clip-path="url(#p8ec9649cd7)" style="fill: none; stroke: #b0b0b0; stroke-linecap: square"/>
     </g>
     <g id="line2d_81">
      <g>
       <use xlink:href="#m7d3c49e617" x="77.557031" y="41.054375" style="stroke: #000000"/>
      </g>
     </g>
     <g id="line2d_82">
      <g>
       <use xlink:href="#m8ed97797d7" x="700.470027" y="41.054375" style="stroke: #000000"/>
      </g>
     </g>
     <g id="text_13">
      <!-- 1.00 -->
      <g transform="translate(30.307031 49.734062) scale(0.25 -0.25)">
       <use xlink:href="#TimesNewRomanPSMT-31"/>
       <use xlink:href="#TimesNewRomanPSMT-2e" transform="translate(50 0)"/>
       <use xlink:href="#TimesNewRomanPSMT-30" transform="translate(75 0)"/>
       <use xlink:href="#TimesNewRomanPSMT-30" transform="translate(125 0)"/>
      </g>
     </g>
    </g>
    <g id="ytick_6">
     <g id="line2d_83">
      <defs>
       <path id="m68a2888153" d="M 0 0 
L 3 0 
" style="stroke: #000000"/>
      </defs>
      <g>
       <use xlink:href="#m68a2888153" x="77.557031" y="292.424375" style="stroke: #000000"/>
      </g>
     </g>
     <g id="line2d_84">
      <defs>
       <path id="m3ef100127f" d="M 0 0 
L -3 0 
" style="stroke: #000000"/>
      </defs>
      <g>
       <use xlink:href="#m3ef100127f" x="700.470027" y="292.424375" style="stroke: #000000"/>
      </g>
     </g>
    </g>
    <g id="ytick_7">
     <g id="line2d_85">
      <g>
       <use xlink:href="#m68a2888153" x="77.557031" y="268.484375" style="stroke: #000000"/>
      </g>
     </g>
     <g id="line2d_86">
      <g>
       <use xlink:href="#m3ef100127f" x="700.470027" y="268.484375" style="stroke: #000000"/>
      </g>
     </g>
    </g>
    <g id="ytick_8">
     <g id="line2d_87">
      <g>
       <use xlink:href="#m68a2888153" x="77.557031" y="256.514375" style="stroke: #000000"/>
      </g>
     </g>
     <g id="line2d_88">
      <g>
       <use xlink:href="#m3ef100127f" x="700.470027" y="256.514375" style="stroke: #000000"/>
      </g>
     </g>
    </g>
    <g id="ytick_9">
     <g id="line2d_89">
      <g>
       <use xlink:href="#m68a2888153" x="77.557031" y="244.544375" style="stroke: #000000"/>
      </g>
     </g>
     <g id="line2d_90">
      <g>
       <use xlink:href="#m3ef100127f" x="700.470027" y="244.544375" style="stroke: #000000"/>
      </g>
     </g>
    </g>
    <g id="ytick_10">
     <g id="line2d_91">
      <g>
       <use xlink:href="#m68a2888153" x="77.557031" y="232.574375" style="stroke: #000000"/>
      </g>
     </g>
     <g id="line2d_92">
      <g>
       <use xlink:href="#m3ef100127f" x="700.470027" y="232.574375" style="stroke: #000000"/>
      </g>
     </g>
    </g>
    <g id="ytick_11">
     <g id="line2d_93">
      <g>
       <use xlink:href="#m68a2888153" x="77.557031" y="208.634375" style="stroke: #000000"/>
      </g>
     </g>
     <g id="line2d_94">
      <g>
       <use xlink:href="#m3ef100127f" x="700.470027" y="208.634375" style="stroke: #000000"/>
      </g>
     </g>
    </g>
    <g id="ytick_12">
     <g id="line2d_95">
      <g>
       <use xlink:href="#m68a2888153" x="77.557031" y="196.664375" style="stroke: #000000"/>
      </g>
     </g>
     <g id="line2d_96">
      <g>
       <use xlink:href="#m3ef100127f" x="700.470027" y="196.664375" style="stroke: #000000"/>
      </g>
     </g>
    </g>
    <g id="ytick_13">
     <g id="line2d_97">
      <g>
       <use xlink:href="#m68a2888153" x="77.557031" y="184.694375" style="stroke: #000000"/>
      </g>
     </g>
     <g id="line2d_98">
      <g>
       <use xlink:href="#m3ef100127f" x="700.470027" y="184.694375" style="stroke: #000000"/>
      </g>
     </g>
    </g>
    <g id="ytick_14">
     <g id="line2d_99">
      <g>
       <use xlink:href="#m68a2888153" x="77.557031" y="172.724375" style="stroke: #000000"/>
      </g>
     </g>
     <g id="line2d_100">
      <g>
       <use xlink:href="#m3ef100127f" x="700.470027" y="172.724375" style="stroke: #000000"/>
      </g>
     </g>
    </g>
    <g id="ytick_15">
     <g id="line2d_101">
      <g>
       <use xlink:href="#m68a2888153" x="77.557031" y="148.784375" style="stroke: #000000"/>
      </g>
     </g>
     <g id="line2d_102">
      <g>
       <use xlink:href="#m3ef100127f" x="700.470027" y="148.784375" style="stroke: #000000"/>
      </g>
     </g>
    </g>
    <g id="ytick_16">
     <g id="line2d_103">
      <g>
       <use xlink:href="#m68a2888153" x="77.557031" y="136.814375" style="stroke: #000000"/>
      </g>
     </g>
     <g id="line2d_104">
      <g>
       <use xlink:href="#m3ef100127f" x="700.470027" y="136.814375" style="stroke: #000000"/>
      </g>
     </g>
    </g>
    <g id="ytick_17">
     <g id="line2d_105">
      <g>
       <use xlink:href="#m68a2888153" x="77.557031" y="124.844375" style="stroke: #000000"/>
      </g>
     </g>
     <g id="line2d_106">
      <g>
       <use xlink:href="#m3ef100127f" x="700.470027" y="124.844375" style="stroke: #000000"/>
      </g>
     </g>
    </g>
    <g id="ytick_18">
     <g id="line2d_107">
      <g>
       <use xlink:href="#m68a2888153" x="77.557031" y="112.874375" style="stroke: #000000"/>
      </g>
     </g>
     <g id="line2d_108">
      <g>
       <use xlink:href="#m3ef100127f" x="700.470027" y="112.874375" style="stroke: #000000"/>
      </g>
     </g>
    </g>
    <g id="ytick_19">
     <g id="line2d_109">
      <g>
       <use xlink:href="#m68a2888153" x="77.557031" y="88.934375" style="stroke: #000000"/>
      </g>
     </g>
     <g id="line2d_110">
      <g>
       <use xlink:href="#m3ef100127f" x="700.470027" y="88.934375" style="stroke: #000000"/>
      </g>
     </g>
    </g>
    <g id="ytick_20">
     <g id="line2d_111">
      <g>
       <use xlink:href="#m68a2888153" x="77.557031" y="76.964375" style="stroke: #000000"/>
      </g>
     </g>
     <g id="line2d_112">
      <g>
       <use xlink:href="#m3ef100127f" x="700.470027" y="76.964375" style="stroke: #000000"/>
      </g>
     </g>
    </g>
    <g id="ytick_21">
     <g id="line2d_113">
      <g>
       <use xlink:href="#m68a2888153" x="77.557031" y="64.994375" style="stroke: #000000"/>
      </g>
     </g>
     <g id="line2d_114">
      <g>
       <use xlink:href="#m3ef100127f" x="700.470027" y="64.994375" style="stroke: #000000"/>
      </g>
     </g>
    </g>
    <g id="ytick_22">
     <g id="line2d_115">
      <g>
       <use xlink:href="#m68a2888153" x="77.557031" y="53.024375" style="stroke: #000000"/>
      </g>
     </g>
     <g id="line2d_116">
      <g>
       <use xlink:href="#m3ef100127f" x="700.470027" y="53.024375" style="stroke: #000000"/>
      </g>
     </g>
    </g>
    <g id="ytick_23">
     <g id="line2d_117">
      <g>
       <use xlink:href="#m68a2888153" x="77.557031" y="29.084375" style="stroke: #000000"/>
      </g>
     </g>
     <g id="line2d_118">
      <g>
       <use xlink:href="#m3ef100127f" x="700.470027" y="29.084375" style="stroke: #000000"/>
      </g>
     </g>
    </g>
    <g id="text_14">
     <!-- Population -->
     <g transform="translate(20.959375 214.922344) rotate(-90) scale(0.25 -0.25)">
      <defs>
       <path id="TimesNewRomanPSMT-50" d="M 1313 1984 
L 1313 750 
Q 1313 350 1400 253 
Q 1519 116 1759 116 
L 1922 116 
L 1922 0 
L 106 0 
L 106 116 
L 266 116 
Q 534 116 650 291 
Q 713 388 713 750 
L 713 3488 
Q 713 3888 628 3984 
Q 506 4122 266 4122 
L 106 4122 
L 106 4238 
L 1659 4238 
Q 2228 4238 2556 4120 
Q 2884 4003 3109 3725 
Q 3334 3447 3334 3066 
Q 3334 2547 2992 2222 
Q 2650 1897 2025 1897 
Q 1872 1897 1694 1919 
Q 1516 1941 1313 1984 
z
M 1313 2163 
Q 1478 2131 1606 2115 
Q 1734 2100 1825 2100 
Q 2150 2100 2386 2351 
Q 2622 2603 2622 3003 
Q 2622 3278 2509 3514 
Q 2397 3750 2190 3867 
Q 1984 3984 1722 3984 
Q 1563 3984 1313 3925 
L 1313 2163 
z
" transform="scale(0.015625)"/>
       <path id="TimesNewRomanPSMT-70" d="M -6 2578 
L 875 2934 
L 994 2934 
L 994 2266 
Q 1216 2644 1439 2795 
Q 1663 2947 1909 2947 
Q 2341 2947 2628 2609 
Q 2981 2197 2981 1534 
Q 2981 794 2556 309 
Q 2206 -88 1675 -88 
Q 1444 -88 1275 -22 
Q 1150 25 994 166 
L 994 -706 
Q 994 -1000 1030 -1079 
Q 1066 -1159 1155 -1206 
Q 1244 -1253 1478 -1253 
L 1478 -1369 
L -22 -1369 
L -22 -1253 
L 56 -1253 
Q 228 -1256 350 -1188 
Q 409 -1153 442 -1076 
Q 475 -1000 475 -688 
L 475 2019 
Q 475 2297 450 2372 
Q 425 2447 370 2484 
Q 316 2522 222 2522 
Q 147 2522 31 2478 
L -6 2578 
z
M 994 2081 
L 994 1013 
Q 994 666 1022 556 
Q 1066 375 1236 237 
Q 1406 100 1666 100 
Q 1978 100 2172 344 
Q 2425 663 2425 1241 
Q 2425 1897 2138 2250 
Q 1938 2494 1663 2494 
Q 1513 2494 1366 2419 
Q 1253 2363 994 2081 
z
" transform="scale(0.015625)"/>
       <path id="TimesNewRomanPSMT-75" d="M 2709 2863 
L 2709 1128 
Q 2709 631 2732 520 
Q 2756 409 2807 365 
Q 2859 322 2928 322 
Q 3025 322 3147 375 
L 3191 266 
L 2334 -88 
L 2194 -88 
L 2194 519 
Q 1825 119 1631 15 
Q 1438 -88 1222 -88 
Q 981 -88 804 51 
Q 628 191 559 409 
Q 491 628 491 1028 
L 491 2306 
Q 491 2509 447 2587 
Q 403 2666 317 2708 
Q 231 2750 6 2747 
L 6 2863 
L 1009 2863 
L 1009 947 
Q 1009 547 1148 422 
Q 1288 297 1484 297 
Q 1619 297 1789 381 
Q 1959 466 2194 703 
L 2194 2325 
Q 2194 2569 2105 2655 
Q 2016 2741 1734 2747 
L 1734 2863 
L 2709 2863 
z
" transform="scale(0.015625)"/>
       <path id="TimesNewRomanPSMT-74" d="M 1031 3803 
L 1031 2863 
L 1700 2863 
L 1700 2644 
L 1031 2644 
L 1031 788 
Q 1031 509 1111 412 
Q 1191 316 1316 316 
Q 1419 316 1516 380 
Q 1613 444 1666 569 
L 1788 569 
Q 1678 263 1478 108 
Q 1278 -47 1066 -47 
Q 922 -47 784 33 
Q 647 113 581 261 
Q 516 409 516 719 
L 516 2644 
L 63 2644 
L 63 2747 
Q 234 2816 414 2980 
Q 594 3144 734 3369 
Q 806 3488 934 3803 
L 1031 3803 
z
" transform="scale(0.015625)"/>
      </defs>
      <use xlink:href="#TimesNewRomanPSMT-50"/>
      <use xlink:href="#TimesNewRomanPSMT-6f" transform="translate(55.615234 0)"/>
      <use xlink:href="#TimesNewRomanPSMT-70" transform="translate(105.615234 0)"/>
      <use xlink:href="#TimesNewRomanPSMT-75" transform="translate(155.615234 0)"/>
      <use xlink:href="#TimesNewRomanPSMT-6c" transform="translate(205.615234 0)"/>
      <use xlink:href="#TimesNewRomanPSMT-61" transform="translate(233.398438 0)"/>
      <use xlink:href="#TimesNewRomanPSMT-74" transform="translate(277.783203 0)"/>
      <use xlink:href="#TimesNewRomanPSMT-69" transform="translate(305.566406 0)"/>
      <use xlink:href="#TimesNewRomanPSMT-6f" transform="translate(333.349609 0)"/>
      <use xlink:href="#TimesNewRomanPSMT-6e" transform="translate(383.349609 0)"/>
     </g>
    </g>
   </g>
   <g id="line2d_119">
    <path d="M 105.871258 279.886198 
L 116.167341 279.666594 
L 126.463423 279.362931 
L 136.759506 278.943782 
L 147.055589 278.366651 
L 157.351671 277.574681 
L 167.647754 276.492944 
L 177.943836 275.024765 
L 188.239919 273.049165 
L 198.536002 270.421334 
L 208.832084 266.979184 
L 219.128167 262.559913 
L 229.424249 257.03 
L 239.720332 250.328461 
L 250.016414 242.515272 
L 260.312497 233.806556 
L 270.60858 224.573004 
L 280.904662 215.287661 
L 291.200745 206.43414 
L 301.496827 198.410507 
L 311.79291 191.466917 
L 322.088992 185.693942 
L 332.385075 181.051971 
L 342.681158 177.4187 
L 352.97724 174.634485 
L 363.273323 172.535313 
L 373.569405 170.97195 
L 383.865488 169.818249 
L 394.16157 168.972605 
L 404.457653 168.355832 
L 414.753736 167.907615 
L 425.049818 167.582746 
L 435.345901 167.347729 
L 445.641983 167.177949 
L 455.938066 167.055418 
L 466.234149 166.967052 
L 476.530231 166.903358 
L 486.826314 166.857464 
L 497.122396 166.824404 
L 507.418479 166.800595 
L 517.714561 166.78345 
L 528.010644 166.771106 
L 538.306727 166.762218 
L 548.602809 166.755819 
L 558.898892 166.751212 
L 569.194974 166.747896 
L 579.491057 166.745509 
L 589.787139 166.743791 
L 600.083222 166.742554 
L 610.379305 166.741663 
L 620.675387 166.741022 
L 630.97147 166.740561 
L 641.267552 166.740228 
L 651.563635 166.739989 
L 661.859717 166.739817 
L 672.1558 166.739693 
" clip-path="url(#p8ec9649cd7)" style="fill: none; stroke: #4b0082; stroke-width: 2; stroke-linecap: square"/>
   </g>
   <g id="line2d_120">
    <path d="M 105.871258 268.498708 
L 116.167341 279.322519 
L 126.463423 280.356154 
L 136.759506 280.445919 
L 147.055589 280.453647 
L 157.351671 280.454312 
L 167.647754 280.45437 
L 177.943836 280.454375 
L 188.239919 280.454375 
L 198.536002 280.454375 
L 208.832084 280.454375 
L 219.128167 280.454375 
L 229.424249 280.454375 
L 239.720332 280.454375 
L 250.016414 280.454375 
L 260.312497 280.454375 
L 270.60858 280.454375 
L 280.904662 280.454375 
L 291.200745 280.454375 
L 301.496827 280.454375 
L 311.79291 280.454375 
L 322.088992 280.454375 
L 332.385075 280.454375 
L 342.681158 280.454375 
L 352.97724 280.454375 
L 363.273323 280.454375 
L 373.569405 280.454375 
L 383.865488 280.454375 
L 394.16157 280.454375 
L 404.457653 280.454375 
L 414.753736 280.454375 
L 425.049818 280.454375 
L 435.345901 280.454375 
L 445.641983 280.454375 
L 455.938066 280.454375 
L 466.234149 280.454375 
L 476.530231 280.454375 
L 486.826314 280.454375 
L 497.122396 280.454375 
L 507.418479 280.454375 
L 517.714561 280.454375 
L 528.010644 280.454375 
L 538.306727 280.454375 
L 548.602809 280.454375 
L 558.898892 280.454375 
L 569.194974 280.454375 
L 579.491057 280.454375 
L 589.787139 280.454375 
L 600.083222 280.454375 
L 610.379305 280.454375 
L 620.675387 280.454375 
L 630.97147 280.454375 
L 641.267552 280.454375 
L 651.563635 280.454375 
L 661.859717 280.454375 
L 672.1558 280.454375 
" clip-path="url(#p8ec9649cd7)" style="fill: none; stroke: #daa520; stroke-width: 2; stroke-linecap: square"/>
   </g>
   <g id="line2d_121">
    <path d="M 105.871258 53.57822 
L 116.167341 42.974012 
L 126.463423 42.24404 
L 136.759506 42.573424 
L 147.055589 43.142827 
L 157.351671 43.934131 
L 167.647754 45.015812 
L 177.943836 46.483985 
L 188.239919 48.459585 
L 198.536002 51.087416 
L 208.832084 54.529566 
L 219.128167 58.948837 
L 229.424249 64.47875 
L 239.720332 71.180289 
L 250.016414 78.993478 
L 260.312497 87.702194 
L 270.60858 96.935746 
L 280.904662 106.221089 
L 291.200745 115.07461 
L 301.496827 123.098243 
L 311.79291 130.041833 
L 322.088992 135.814808 
L 332.385075 140.456779 
L 342.681158 144.09005 
L 352.97724 146.874265 
L 363.273323 148.973437 
L 373.569405 150.5368 
L 383.865488 151.690501 
L 394.16157 152.536145 
L 404.457653 153.152918 
L 414.753736 153.601135 
L 425.049818 153.926004 
L 435.345901 154.161021 
L 445.641983 154.330801 
L 455.938066 154.453332 
L 466.234149 154.541698 
L 476.530231 154.605392 
L 486.826314 154.651286 
L 497.122396 154.684346 
L 507.418479 154.708155 
L 517.714561 154.7253 
L 528.010644 154.737644 
L 538.306727 154.746532 
L 548.602809 154.752931 
L 558.898892 154.757538 
L 569.194974 154.760854 
L 579.491057 154.763241 
L 589.787139 154.764959 
L 600.083222 154.766196 
L 610.379305 154.767087 
L 620.675387 154.767728 
L 630.97147 154.768189 
L 641.267552 154.768522 
L 651.563635 154.768761 
L 661.859717 154.768933 
L 672.1558 154.769057 
" clip-path="url(#p8ec9649cd7)" style="fill: none; stroke: #800020; stroke-width: 2; stroke-linecap: square"/>
   </g>
   <g id="patch_3">
    <path d="M 77.557031 292.424375 
L 77.557031 29.084375 
" style="fill: none; stroke: #000000; stroke-linejoin: miter; stroke-linecap: square"/>
   </g>
   <g id="patch_4">
    <path d="M 700.470027 292.424375 
L 700.470027 29.084375 
" style="fill: none; stroke: #000000; stroke-linejoin: miter; stroke-linecap: square"/>
   </g>
   <g id="patch_5">
    <path d="M 77.557031 292.424375 
L 700.470027 292.424375 
" style="fill: none; stroke: #000000; stroke-linejoin: miter; stroke-linecap: square"/>
   </g>
   <g id="patch_6">
    <path d="M 77.557031 29.084375 
L 700.470027 29.084375 
" style="fill: none; stroke: #000000; stroke-linejoin: miter; stroke-linecap: square"/>
   </g>
   <g id="text_15">
    <!-- Population after pumping stage -->
    <g transform="translate(213.656967 23.0425) scale(0.28 -0.28)">
     <defs>
      <path id="TimesNewRomanPSMT-65" d="M 681 1784 
Q 678 1147 991 784 
Q 1303 422 1725 422 
Q 2006 422 2214 576 
Q 2422 731 2563 1106 
L 2659 1044 
Q 2594 616 2278 264 
Q 1963 -88 1488 -88 
Q 972 -88 605 314 
Q 238 716 238 1394 
Q 238 2128 614 2539 
Q 991 2950 1559 2950 
Q 2041 2950 2350 2633 
Q 2659 2316 2659 1784 
L 681 1784 
z
M 681 1966 
L 2006 1966 
Q 1991 2241 1941 2353 
Q 1863 2528 1708 2628 
Q 1553 2728 1384 2728 
Q 1125 2728 920 2526 
Q 716 2325 681 1966 
z
" transform="scale(0.015625)"/>
      <path id="TimesNewRomanPSMT-72" d="M 1038 2947 
L 1038 2303 
Q 1397 2947 1775 2947 
Q 1947 2947 2059 2842 
Q 2172 2738 2172 2600 
Q 2172 2478 2090 2393 
Q 2009 2309 1897 2309 
Q 1788 2309 1652 2417 
Q 1516 2525 1450 2525 
Q 1394 2525 1328 2463 
Q 1188 2334 1038 2041 
L 1038 669 
Q 1038 431 1097 309 
Q 1138 225 1241 169 
Q 1344 113 1538 113 
L 1538 0 
L 72 0 
L 72 113 
Q 291 113 397 181 
Q 475 231 506 341 
Q 522 394 522 644 
L 522 1753 
Q 522 2253 501 2348 
Q 481 2444 426 2487 
Q 372 2531 291 2531 
Q 194 2531 72 2484 
L 41 2597 
L 906 2947 
L 1038 2947 
z
" transform="scale(0.015625)"/>
      <path id="TimesNewRomanPSMT-6d" d="M 1050 2338 
Q 1363 2650 1419 2697 
Q 1559 2816 1721 2881 
Q 1884 2947 2044 2947 
Q 2313 2947 2506 2790 
Q 2700 2634 2766 2338 
Q 3088 2713 3309 2830 
Q 3531 2947 3766 2947 
Q 3994 2947 4170 2830 
Q 4347 2713 4450 2447 
Q 4519 2266 4519 1878 
L 4519 647 
Q 4519 378 4559 278 
Q 4591 209 4675 161 
Q 4759 113 4950 113 
L 4950 0 
L 3538 0 
L 3538 113 
L 3597 113 
Q 3781 113 3884 184 
Q 3956 234 3988 344 
Q 4000 397 4000 647 
L 4000 1878 
Q 4000 2228 3916 2372 
Q 3794 2572 3525 2572 
Q 3359 2572 3192 2489 
Q 3025 2406 2788 2181 
L 2781 2147 
L 2788 2013 
L 2788 647 
Q 2788 353 2820 281 
Q 2853 209 2943 161 
Q 3034 113 3253 113 
L 3253 0 
L 1806 0 
L 1806 113 
Q 2044 113 2133 169 
Q 2222 225 2256 338 
Q 2272 391 2272 647 
L 2272 1878 
Q 2272 2228 2169 2381 
Q 2031 2581 1784 2581 
Q 1616 2581 1450 2491 
Q 1191 2353 1050 2181 
L 1050 647 
Q 1050 366 1089 281 
Q 1128 197 1204 155 
Q 1281 113 1516 113 
L 1516 0 
L 100 0 
L 100 113 
Q 297 113 375 155 
Q 453 197 493 289 
Q 534 381 534 647 
L 534 1741 
Q 534 2213 506 2350 
Q 484 2453 437 2492 
Q 391 2531 309 2531 
Q 222 2531 100 2484 
L 53 2597 
L 916 2947 
L 1050 2947 
L 1050 2338 
z
" transform="scale(0.015625)"/>
      <path id="TimesNewRomanPSMT-67" d="M 966 1044 
Q 703 1172 562 1401 
Q 422 1631 422 1909 
Q 422 2334 742 2640 
Q 1063 2947 1563 2947 
Q 1972 2947 2272 2747 
L 2878 2747 
Q 3013 2747 3034 2739 
Q 3056 2731 3066 2713 
Q 3084 2684 3084 2613 
Q 3084 2531 3069 2500 
Q 3059 2484 3036 2475 
Q 3013 2466 2878 2466 
L 2506 2466 
Q 2681 2241 2681 1891 
Q 2681 1491 2375 1206 
Q 2069 922 1553 922 
Q 1341 922 1119 984 
Q 981 866 932 777 
Q 884 688 884 625 
Q 884 572 936 522 
Q 988 472 1138 450 
Q 1225 438 1575 428 
Q 2219 413 2409 384 
Q 2700 344 2873 169 
Q 3047 -6 3047 -263 
Q 3047 -616 2716 -925 
Q 2228 -1381 1444 -1381 
Q 841 -1381 425 -1109 
Q 191 -953 191 -784 
Q 191 -709 225 -634 
Q 278 -519 444 -313 
Q 466 -284 763 25 
Q 600 122 533 198 
Q 466 275 466 372 
Q 466 481 555 628 
Q 644 775 966 1044 
z
M 1509 2797 
Q 1278 2797 1122 2612 
Q 966 2428 966 2047 
Q 966 1553 1178 1281 
Q 1341 1075 1591 1075 
Q 1828 1075 1981 1253 
Q 2134 1431 2134 1813 
Q 2134 2309 1919 2591 
Q 1759 2797 1509 2797 
z
M 934 0 
Q 788 -159 713 -296 
Q 638 -434 638 -550 
Q 638 -700 819 -813 
Q 1131 -1006 1722 -1006 
Q 2284 -1006 2551 -807 
Q 2819 -609 2819 -384 
Q 2819 -222 2659 -153 
Q 2497 -84 2016 -72 
Q 1313 -53 934 0 
z
" transform="scale(0.015625)"/>
      <path id="TimesNewRomanPSMT-73" d="M 2050 2947 
L 2050 1972 
L 1947 1972 
Q 1828 2431 1642 2597 
Q 1456 2763 1169 2763 
Q 950 2763 815 2647 
Q 681 2531 681 2391 
Q 681 2216 781 2091 
Q 878 1963 1175 1819 
L 1631 1597 
Q 2266 1288 2266 781 
Q 2266 391 1970 151 
Q 1675 -88 1309 -88 
Q 1047 -88 709 6 
Q 606 38 541 38 
Q 469 38 428 -44 
L 325 -44 
L 325 978 
L 428 978 
Q 516 541 762 319 
Q 1009 97 1316 97 
Q 1531 97 1667 223 
Q 1803 350 1803 528 
Q 1803 744 1651 891 
Q 1500 1038 1047 1263 
Q 594 1488 453 1669 
Q 313 1847 313 2119 
Q 313 2472 555 2709 
Q 797 2947 1181 2947 
Q 1350 2947 1591 2875 
Q 1750 2828 1803 2828 
Q 1853 2828 1881 2850 
Q 1909 2872 1947 2947 
L 2050 2947 
z
" transform="scale(0.015625)"/>
     </defs>
     <use xlink:href="#TimesNewRomanPSMT-50"/>
     <use xlink:href="#TimesNewRomanPSMT-6f" transform="translate(55.615234 0)"/>
     <use xlink:href="#TimesNewRomanPSMT-70" transform="translate(105.615234 0)"/>
     <use xlink:href="#TimesNewRomanPSMT-75" transform="translate(155.615234 0)"/>
     <use xlink:href="#TimesNewRomanPSMT-6c" transform="translate(205.615234 0)"/>
     <use xlink:href="#TimesNewRomanPSMT-61" transform="translate(233.398438 0)"/>
     <use xlink:href="#TimesNewRomanPSMT-74" transform="translate(277.783203 0)"/>
     <use xlink:href="#TimesNewRomanPSMT-69" transform="translate(305.566406 0)"/>
     <use xlink:href="#TimesNewRomanPSMT-6f" transform="translate(333.349609 0)"/>
     <use xlink:href="#TimesNewRomanPSMT-6e" transform="translate(383.349609 0)"/>
     <use xlink:href="#TimesNewRomanPSMT-20" transform="translate(433.349609 0)"/>
     <use xlink:href="#TimesNewRomanPSMT-61" transform="translate(458.349609 0)"/>
     <use xlink:href="#TimesNewRomanPSMT-66" transform="translate(502.734375 0)"/>
     <use xlink:href="#TimesNewRomanPSMT-74" transform="translate(536.035156 0)"/>
     <use xlink:href="#TimesNewRomanPSMT-65" transform="translate(563.818359 0)"/>
     <use xlink:href="#TimesNewRomanPSMT-72" transform="translate(608.203125 0)"/>
     <use xlink:href="#TimesNewRomanPSMT-20" transform="translate(641.503906 0)"/>
     <use xlink:href="#TimesNewRomanPSMT-70" transform="translate(666.503906 0)"/>
     <use xlink:href="#TimesNewRomanPSMT-75" transform="translate(716.503906 0)"/>
     <use xlink:href="#TimesNewRomanPSMT-6d" transform="translate(766.503906 0)"/>
     <use xlink:href="#TimesNewRomanPSMT-70" transform="translate(844.287109 0)"/>
     <use xlink:href="#TimesNewRomanPSMT-69" transform="translate(894.287109 0)"/>
     <use xlink:href="#TimesNewRomanPSMT-6e" transform="translate(922.070312 0)"/>
     <use xlink:href="#TimesNewRomanPSMT-67" transform="translate(972.070312 0)"/>
     <use xlink:href="#TimesNewRomanPSMT-20" transform="translate(1022.070312 0)"/>
     <use xlink:href="#TimesNewRomanPSMT-73" transform="translate(1047.070312 0)"/>
     <use xlink:href="#TimesNewRomanPSMT-74" transform="translate(1085.986328 0)"/>
     <use xlink:href="#TimesNewRomanPSMT-61" transform="translate(1113.769531 0)"/>
     <use xlink:href="#TimesNewRomanPSMT-67" transform="translate(1158.154297 0)"/>
     <use xlink:href="#TimesNewRomanPSMT-65" transform="translate(1208.154297 0)"/>
    </g>
   </g>
   <g id="legend_1">
    <g id="patch_7">
     <path d="M 476.662527 224.075937 
L 685.770027 224.075937 
Q 689.970027 224.075937 689.970027 219.875937 
L 689.970027 43.784375 
Q 689.970027 39.584375 685.770027 39.584375 
L 476.662527 39.584375 
Q 472.462527 39.584375 472.462527 43.784375 
L 472.462527 219.875937 
Q 472.462527 224.075937 476.662527 224.075937 
z
" style="fill: #ffffff; opacity: 0.8; stroke: #cccccc; stroke-linejoin: miter"/>
    </g>
    <g id="PathCollection_4">
     <g>
      <use xlink:href="#m5198a134ec" x="501.862527" y="57.171875" style="fill: #4b0082; stroke: #4b0082"/>
     </g>
    </g>
    <g id="text_16">
     <!-- PU state -->
     <g transform="translate(539.662527 62.684375) scale(0.21 -0.21)">
      <defs>
       <path id="TimesNewRomanPSMT-55" d="M 3053 4122 
L 3053 4238 
L 4553 4238 
L 4553 4122 
L 4394 4122 
Q 4144 4122 4009 3913 
Q 3944 3816 3944 3463 
L 3944 1744 
Q 3944 1106 3817 754 
Q 3691 403 3320 151 
Q 2950 -100 2313 -100 
Q 1619 -100 1259 140 
Q 900 381 750 788 
Q 650 1066 650 1831 
L 650 3488 
Q 650 3878 542 4000 
Q 434 4122 194 4122 
L 34 4122 
L 34 4238 
L 1866 4238 
L 1866 4122 
L 1703 4122 
Q 1441 4122 1328 3956 
Q 1250 3844 1250 3488 
L 1250 1641 
Q 1250 1394 1295 1075 
Q 1341 756 1459 578 
Q 1578 400 1801 284 
Q 2025 169 2350 169 
Q 2766 169 3094 350 
Q 3422 531 3542 814 
Q 3663 1097 3663 1772 
L 3663 3488 
Q 3663 3884 3575 3984 
Q 3453 4122 3213 4122 
L 3053 4122 
z
" transform="scale(0.015625)"/>
      </defs>
      <use xlink:href="#TimesNewRomanPSMT-50"/>
      <use xlink:href="#TimesNewRomanPSMT-55" transform="translate(55.615234 0)"/>
      <use xlink:href="#TimesNewRomanPSMT-20" transform="translate(127.832031 0)"/>
      <use xlink:href="#TimesNewRomanPSMT-73" transform="translate(152.832031 0)"/>
      <use xlink:href="#TimesNewRomanPSMT-74" transform="translate(191.748047 0)"/>
      <use xlink:href="#TimesNewRomanPSMT-61" transform="translate(219.53125 0)"/>
      <use xlink:href="#TimesNewRomanPSMT-74" transform="translate(263.916016 0)"/>
      <use xlink:href="#TimesNewRomanPSMT-65" transform="translate(291.699219 0)"/>
     </g>
    </g>
    <g id="line2d_122">
     <path d="M 480.862527 85.026406 
L 501.862527 85.026406 
L 522.862527 85.026406 
" style="fill: none; stroke: #4b0082; stroke-width: 2; stroke-linecap: square"/>
    </g>
    <g id="text_17">
     <!-- fit PU state -->
     <g transform="translate(539.662527 92.376406) scale(0.21 -0.21)">
      <use xlink:href="#TimesNewRomanPSMT-66"/>
      <use xlink:href="#TimesNewRomanPSMT-69" transform="translate(33.300781 0)"/>
      <use xlink:href="#TimesNewRomanPSMT-74" transform="translate(61.083984 0)"/>
      <use xlink:href="#TimesNewRomanPSMT-20" transform="translate(88.867188 0)"/>
      <use xlink:href="#TimesNewRomanPSMT-50" transform="translate(113.867188 0)"/>
      <use xlink:href="#TimesNewRomanPSMT-55" transform="translate(169.482422 0)"/>
      <use xlink:href="#TimesNewRomanPSMT-20" transform="translate(241.699219 0)"/>
      <use xlink:href="#TimesNewRomanPSMT-73" transform="translate(266.699219 0)"/>
      <use xlink:href="#TimesNewRomanPSMT-74" transform="translate(305.615234 0)"/>
      <use xlink:href="#TimesNewRomanPSMT-61" transform="translate(333.398438 0)"/>
      <use xlink:href="#TimesNewRomanPSMT-74" transform="translate(377.783203 0)"/>
      <use xlink:href="#TimesNewRomanPSMT-65" transform="translate(405.566406 0)"/>
     </g>
    </g>
    <g id="PathCollection_5">
     <g>
      <use xlink:href="#mba02cd7c05" x="501.862527" y="116.555937" style="fill: #daa520; stroke: #daa520"/>
     </g>
    </g>
    <g id="text_18">
     <!-- PL state -->
     <g transform="translate(539.662527 122.068437) scale(0.21 -0.21)">
      <defs>
       <path id="TimesNewRomanPSMT-4c" d="M 3669 1172 
L 3772 1150 
L 3409 0 
L 128 0 
L 128 116 
L 288 116 
Q 556 116 672 291 
Q 738 391 738 753 
L 738 3488 
Q 738 3884 650 3984 
Q 528 4122 288 4122 
L 128 4122 
L 128 4238 
L 2047 4238 
L 2047 4122 
Q 1709 4125 1573 4059 
Q 1438 3994 1388 3894 
Q 1338 3794 1338 3416 
L 1338 753 
Q 1338 494 1388 397 
Q 1425 331 1503 300 
Q 1581 269 1991 269 
L 2300 269 
Q 2788 269 2984 341 
Q 3181 413 3343 595 
Q 3506 778 3669 1172 
z
" transform="scale(0.015625)"/>
      </defs>
      <use xlink:href="#TimesNewRomanPSMT-50"/>
      <use xlink:href="#TimesNewRomanPSMT-4c" transform="translate(55.615234 0)"/>
      <use xlink:href="#TimesNewRomanPSMT-20" transform="translate(112.949219 0)"/>
      <use xlink:href="#TimesNewRomanPSMT-73" transform="translate(137.949219 0)"/>
      <use xlink:href="#TimesNewRomanPSMT-74" transform="translate(176.865234 0)"/>
      <use xlink:href="#TimesNewRomanPSMT-61" transform="translate(204.648438 0)"/>
      <use xlink:href="#TimesNewRomanPSMT-74" transform="translate(249.033203 0)"/>
      <use xlink:href="#TimesNewRomanPSMT-65" transform="translate(276.816406 0)"/>
     </g>
    </g>
    <g id="line2d_123">
     <path d="M 480.862527 144.410469 
L 501.862527 144.410469 
L 522.862527 144.410469 
" style="fill: none; stroke: #daa520; stroke-width: 2; stroke-linecap: square"/>
    </g>
    <g id="text_19">
     <!-- fit PL state -->
     <g transform="translate(539.662527 151.760469) scale(0.21 -0.21)">
      <use xlink:href="#TimesNewRomanPSMT-66"/>
      <use xlink:href="#TimesNewRomanPSMT-69" transform="translate(33.300781 0)"/>
      <use xlink:href="#TimesNewRomanPSMT-74" transform="translate(61.083984 0)"/>
      <use xlink:href="#TimesNewRomanPSMT-20" transform="translate(88.867188 0)"/>
      <use xlink:href="#TimesNewRomanPSMT-50" transform="translate(113.867188 0)"/>
      <use xlink:href="#TimesNewRomanPSMT-4c" transform="translate(169.482422 0)"/>
      <use xlink:href="#TimesNewRomanPSMT-20" transform="translate(226.816406 0)"/>
      <use xlink:href="#TimesNewRomanPSMT-73" transform="translate(251.816406 0)"/>
      <use xlink:href="#TimesNewRomanPSMT-74" transform="translate(290.732422 0)"/>
      <use xlink:href="#TimesNewRomanPSMT-61" transform="translate(318.515625 0)"/>
      <use xlink:href="#TimesNewRomanPSMT-74" transform="translate(362.900391 0)"/>
      <use xlink:href="#TimesNewRomanPSMT-65" transform="translate(390.683594 0)"/>
     </g>
    </g>
    <g id="PathCollection_6">
     <g>
      <use xlink:href="#m4a8e5c85a6" x="501.862527" y="175.94" style="fill: #800020; stroke: #800020"/>
     </g>
    </g>
    <g id="text_20">
     <!-- LM (target) state -->
     <g transform="translate(539.662527 181.4525) scale(0.21 -0.21)">
      <defs>
       <path id="TimesNewRomanPSMT-28" d="M 1988 -1253 
L 1988 -1369 
Q 1516 -1131 1200 -813 
Q 750 -359 506 256 
Q 263 872 263 1534 
Q 263 2503 741 3301 
Q 1219 4100 1988 4444 
L 1988 4313 
Q 1603 4100 1356 3731 
Q 1109 3363 987 2797 
Q 866 2231 866 1616 
Q 866 947 969 400 
Q 1050 -31 1165 -292 
Q 1281 -553 1476 -793 
Q 1672 -1034 1988 -1253 
z
" transform="scale(0.015625)"/>
       <path id="TimesNewRomanPSMT-29" d="M 144 4313 
L 144 4444 
Q 619 4209 934 3891 
Q 1381 3434 1625 2820 
Q 1869 2206 1869 1541 
Q 1869 572 1392 -226 
Q 916 -1025 144 -1369 
L 144 -1253 
Q 528 -1038 776 -670 
Q 1025 -303 1145 264 
Q 1266 831 1266 1447 
Q 1266 2113 1163 2663 
Q 1084 3094 967 3353 
Q 850 3613 656 3853 
Q 463 4094 144 4313 
z
" transform="scale(0.015625)"/>
      </defs>
      <use xlink:href="#TimesNewRomanPSMT-4c"/>
      <use xlink:href="#TimesNewRomanPSMT-4d" transform="translate(61.083984 0)"/>
      <use xlink:href="#TimesNewRomanPSMT-20" transform="translate(150 0)"/>
      <use xlink:href="#TimesNewRomanPSMT-28" transform="translate(175 0)"/>
      <use xlink:href="#TimesNewRomanPSMT-74" transform="translate(208.300781 0)"/>
      <use xlink:href="#TimesNewRomanPSMT-61" transform="translate(236.083984 0)"/>
      <use xlink:href="#TimesNewRomanPSMT-72" transform="translate(280.46875 0)"/>
      <use xlink:href="#TimesNewRomanPSMT-67" transform="translate(312.019531 0)"/>
      <use xlink:href="#TimesNewRomanPSMT-65" transform="translate(362.019531 0)"/>
      <use xlink:href="#TimesNewRomanPSMT-74" transform="translate(406.404297 0)"/>
      <use xlink:href="#TimesNewRomanPSMT-29" transform="translate(434.1875 0)"/>
      <use xlink:href="#TimesNewRomanPSMT-20" transform="translate(467.488281 0)"/>
      <use xlink:href="#TimesNewRomanPSMT-73" transform="translate(492.488281 0)"/>
      <use xlink:href="#TimesNewRomanPSMT-74" transform="translate(531.404297 0)"/>
      <use xlink:href="#TimesNewRomanPSMT-61" transform="translate(559.1875 0)"/>
      <use xlink:href="#TimesNewRomanPSMT-74" transform="translate(603.572266 0)"/>
      <use xlink:href="#TimesNewRomanPSMT-65" transform="translate(631.355469 0)"/>
     </g>
    </g>
    <g id="line2d_124">
     <path d="M 480.862527 203.833906 
L 501.862527 203.833906 
L 522.862527 203.833906 
" style="fill: none; stroke: #800020; stroke-width: 2; stroke-linecap: square"/>
    </g>
    <g id="text_21">
     <!-- fit LM state -->
     <g transform="translate(539.662527 211.183906) scale(0.21 -0.21)">
      <use xlink:href="#TimesNewRomanPSMT-66"/>
      <use xlink:href="#TimesNewRomanPSMT-69" transform="translate(33.300781 0)"/>
      <use xlink:href="#TimesNewRomanPSMT-74" transform="translate(61.083984 0)"/>
      <use xlink:href="#TimesNewRomanPSMT-20" transform="translate(88.867188 0)"/>
      <use xlink:href="#TimesNewRomanPSMT-4c" transform="translate(113.867188 0)"/>
      <use xlink:href="#TimesNewRomanPSMT-4d" transform="translate(174.951172 0)"/>
      <use xlink:href="#TimesNewRomanPSMT-20" transform="translate(263.867188 0)"/>
      <use xlink:href="#TimesNewRomanPSMT-73" transform="translate(288.867188 0)"/>
      <use xlink:href="#TimesNewRomanPSMT-74" transform="translate(327.783203 0)"/>
      <use xlink:href="#TimesNewRomanPSMT-61" transform="translate(355.566406 0)"/>
      <use xlink:href="#TimesNewRomanPSMT-74" transform="translate(399.951172 0)"/>
      <use xlink:href="#TimesNewRomanPSMT-65" transform="translate(427.734375 0)"/>
     </g>
    </g>
   </g>
  </g>
 </g>
 <defs>
  <clipPath id="p8ec9649cd7">
   <rect x="77.557031" y="29.084375" width="622.912996" height="263.34"/>
  </clipPath>
 </defs>
</svg>
