<?xml version="1.0" encoding="utf-8" standalone="no"?>
<!DOCTYPE svg PUBLIC "-//W3C//DTD SVG 1.1//EN"
  "http://www.w3.org/Graphics/SVG/1.1/DTD/svg11.dtd">
<svg xmlns:xlink="http://www.w3.org/1999/xlink" width="903.591406pt" height="535.850625pt" viewBox="0 0 903.591406 535.850625" xmlns="http://www.w3.org/2000/svg" version="1.1">
 <metadata>
  <rdf:RDF xmlns:dc="http://purl.org/dc/elements/1.1/" xmlns:cc="http://creativecommons.org/ns#" xmlns:rdf="http://www.w3.org/1999/02/22-rdf-syntax-ns#">
   <cc:Work>
    <dc:type rdf:resource="http://purl.org/dc/dcmitype/StillImage"/>
    <dc:date>2026-02-19T13:00:48.781776</dc:date>
    <dc:format>image/svg+xml</dc:format>
    <dc:creator>
     <cc:Agent>
      <dc:title>Matplotlib v3.10.3, https://matplotlib.org/</dc:title>
     </cc:Agent>
    </dc:creator>
   </cc:Work>
  </rdf:RDF>
 </metadata>
 <defs>
  <style type="text/css">*{stroke-linejoin: round; stroke-linecap: butt}</style>
 </defs>
 <g id="figure_1">
  <g id="patch_1">
   <path d="M 0 535.850625 
L 903.591406 535.850625 
L 903.591406 0 
L 0 0 
z
" style="fill: #ffffff"/>
  </g>
  <g id="axes_1">
   <g id="patch_2">
    <path d="M 90.959375 476.36 
L 872.159375 476.36 
L 872.159375 32.84 
L 90.959375 32.84 
z
" style="fill: #ffffff"/>
   </g>
   <g id="patch_3">
    <path d="M 853.912441 476.36 
L 861.724441 476.36 
L 861.724441 429.271473 
L 853.912441 429.271473 
z
" clip-path="url(#p42083f6c88)" style="fill: #ff0000; opacity: 0.1"/>
   </g>
   <g id="patch_4">
    <path d="M 852.312029 476.36 
L 860.124029 476.36 
L 860.124029 398.429209 
L 852.312029 398.429209 
z
" clip-path="url(#p42083f6c88)" style="fill: #ff0000; opacity: 0.1"/>
   </g>
   <g id="patch_5">
    <path d="M 850.303768 476.36 
L 858.115768 476.36 
L 858.115768 368.401966 
L 850.303768 368.401966 
z
" clip-path="url(#p42083f6c88)" style="fill: #ff0000; opacity: 0.1"/>
   </g>
   <g id="patch_6">
    <path d="M 847.732855 476.36 
L 855.544855 476.36 
L 855.544855 339.495788 
L 847.732855 339.495788 
z
" clip-path="url(#p42083f6c88)" style="fill: #ff0000; opacity: 0.1"/>
   </g>
   <g id="patch_7">
    <path d="M 844.373549 476.36 
L 852.185549 476.36 
L 852.185549 311.997342 
L 844.373549 311.997342 
z
" clip-path="url(#p42083f6c88)" style="fill: #ff0000; opacity: 0.1"/>
   </g>
   <g id="patch_8">
    <path d="M 839.90263 476.36 
L 847.71463 476.36 
L 847.71463 286.169193 
L 839.90263 286.169193 
z
" clip-path="url(#p42083f6c88)" style="fill: #ff0000; opacity: 0.1"/>
   </g>
   <g id="patch_9">
    <path d="M 833.884758 476.36 
L 841.696758 476.36 
L 841.696758 262.245667 
L 833.884758 262.245667 
z
" clip-path="url(#p42083f6c88)" style="fill: #ff0000; opacity: 0.1"/>
   </g>
   <g id="patch_10">
    <path d="M 825.811463 476.36 
L 833.623463 476.36 
L 833.623463 240.429368 
L 825.811463 240.429368 
z
" clip-path="url(#p42083f6c88)" style="fill: #ff0000; opacity: 0.1"/>
   </g>
   <g id="patch_11">
    <path d="M 815.245299 476.36 
L 823.057299 476.36 
L 823.057299 220.888443 
L 815.245299 220.888443 
z
" clip-path="url(#p42083f6c88)" style="fill: #ff0000; opacity: 0.1"/>
   </g>
   <g id="patch_12">
    <path d="M 802.031814 476.36 
L 809.843814 476.36 
L 809.843814 203.754628 
L 802.031814 203.754628 
z
" clip-path="url(#p42083f6c88)" style="fill: #ff0000; opacity: 0.1"/>
   </g>
   <g id="patch_13">
    <path d="M 786.393476 476.36 
L 794.205476 476.36 
L 794.205476 189.12211 
L 786.393476 189.12211 
z
" clip-path="url(#p42083f6c88)" style="fill: #ff0000; opacity: 0.1"/>
   </g>
   <g id="patch_14">
    <path d="M 768.797508 476.36 
L 776.609508 476.36 
L 776.609508 177.047198 
L 768.797508 177.047198 
z
" clip-path="url(#p42083f6c88)" style="fill: #ff0000; opacity: 0.1"/>
   </g>
   <g id="patch_15">
    <path d="M 749.74588 476.36 
L 757.55788 476.36 
L 757.55788 167.54879 
L 749.74588 167.54879 
z
" clip-path="url(#p42083f6c88)" style="fill: #ff0000; opacity: 0.1"/>
   </g>
   <g id="patch_16">
    <path d="M 729.653056 476.36 
L 737.465056 476.36 
L 737.465056 160.609595 
L 729.653056 160.609595 
z
" clip-path="url(#p42083f6c88)" style="fill: #ff0000; opacity: 0.1"/>
   </g>
   <g id="patch_17">
    <path d="M 708.821727 476.36 
L 716.633727 476.36 
L 716.633727 156.178044 
L 708.821727 156.178044 
z
" clip-path="url(#p42083f6c88)" style="fill: #ff0000; opacity: 0.1"/>
   </g>
   <g id="patch_18">
    <path d="M 687.462042 476.36 
L 695.274042 476.36 
L 695.274042 154.170816 
L 687.462042 154.170816 
z
" clip-path="url(#p42083f6c88)" style="fill: #ff0000; opacity: 0.1"/>
   </g>
   <g id="patch_19">
    <path d="M 665.718022 476.36 
L 673.530022 476.36 
L 673.530022 154.475893 
L 665.718022 154.475893 
z
" clip-path="url(#p42083f6c88)" style="fill: #ff0000; opacity: 0.1"/>
   </g>
   <g id="patch_20">
    <path d="M 643.688951 476.36 
L 651.500951 476.36 
L 651.500951 156.956035 
L 643.688951 156.956035 
z
" clip-path="url(#p42083f6c88)" style="fill: #ff0000; opacity: 0.1"/>
   </g>
   <g id="patch_21">
    <path d="M 621.444277 476.36 
L 629.256277 476.36 
L 629.256277 161.452582 
L 621.444277 161.452582 
z
" clip-path="url(#p42083f6c88)" style="fill: #ff0000; opacity: 0.1"/>
   </g>
   <g id="patch_22">
    <path d="M 599.033456 476.36 
L 606.845456 476.36 
L 606.845456 167.789459 
L 599.033456 167.789459 
z
" clip-path="url(#p42083f6c88)" style="fill: #ff0000; opacity: 0.1"/>
   </g>
   <g id="patch_23">
    <path d="M 576.492379 476.36 
L 584.304379 476.36 
L 584.304379 175.777288 
L 576.492379 175.777288 
z
" clip-path="url(#p42083f6c88)" style="fill: #ff0000; opacity: 0.1"/>
   </g>
   <g id="patch_24">
    <path d="M 553.847573 476.36 
L 561.659573 476.36 
L 561.659573 185.217497 
L 553.847573 185.217497 
z
" clip-path="url(#p42083f6c88)" style="fill: #ff0000; opacity: 0.1"/>
   </g>
   <g id="patch_25">
    <path d="M 531.118986 476.36 
L 538.930986 476.36 
L 538.930986 195.906332 
L 531.118986 195.906332 
z
" clip-path="url(#p42083f6c88)" style="fill: #ff0000; opacity: 0.1"/>
   </g>
   <g id="patch_26">
    <path d="M 508.321863 476.36 
L 516.133863 476.36 
L 516.133863 207.638675 
L 508.321863 207.638675 
z
" clip-path="url(#p42083f6c88)" style="fill: #ff0000; opacity: 0.1"/>
   </g>
   <g id="patch_27">
    <path d="M 485.468026 476.36 
L 493.280026 476.36 
L 493.280026 220.21161 
L 485.468026 220.21161 
z
" clip-path="url(#p42083f6c88)" style="fill: #ff0000; opacity: 0.1"/>
   </g>
   <g id="patch_28">
    <path d="M 462.566768 476.36 
L 470.378768 476.36 
L 470.378768 233.427655 
L 462.566768 233.427655 
z
" clip-path="url(#p42083f6c88)" style="fill: #ff0000; opacity: 0.1"/>
   </g>
   <g id="patch_29">
    <path d="M 439.625487 476.36 
L 447.437487 476.36 
L 447.437487 247.097621 
L 439.625487 247.097621 
z
" clip-path="url(#p42083f6c88)" style="fill: #ff0000; opacity: 0.1"/>
   </g>
   <g id="patch_30">
    <path d="M 416.650135 476.36 
L 424.462135 476.36 
L 424.462135 261.043054 
L 416.650135 261.043054 
z
" clip-path="url(#p42083f6c88)" style="fill: #ff0000; opacity: 0.1"/>
   </g>
   <g id="patch_31">
    <path d="M 393.645555 476.36 
L 401.457555 476.36 
L 401.457555 275.098255 
L 393.645555 275.098255 
z
" clip-path="url(#p42083f6c88)" style="fill: #ff0000; opacity: 0.1"/>
   </g>
   <g id="patch_32">
    <path d="M 370.615721 476.36 
L 378.427721 476.36 
L 378.427721 289.111848 
L 370.615721 289.111848 
z
" clip-path="url(#p42083f6c88)" style="fill: #ff0000; opacity: 0.1"/>
   </g>
   <g id="patch_33">
    <path d="M 347.563925 476.36 
L 355.375925 476.36 
L 355.375925 302.947918 
L 347.563925 302.947918 
z
" clip-path="url(#p42083f6c88)" style="fill: #ff0000; opacity: 0.1"/>
   </g>
   <g id="patch_34">
    <path d="M 324.492917 476.36 
L 332.304917 476.36 
L 332.304917 316.486724 
L 324.492917 316.486724 
z
" clip-path="url(#p42083f6c88)" style="fill: #ff0000; opacity: 0.1"/>
   </g>
   <g id="patch_35">
    <path d="M 301.405009 476.36 
L 309.217009 476.36 
L 309.217009 329.625022 
L 301.405009 329.625022 
z
" clip-path="url(#p42083f6c88)" style="fill: #ff0000; opacity: 0.1"/>
   </g>
   <g id="patch_36">
    <path d="M 278.302158 476.36 
L 286.114158 476.36 
L 286.114158 342.276022 
L 278.302158 342.276022 
z
" clip-path="url(#p42083f6c88)" style="fill: #ff0000; opacity: 0.1"/>
   </g>
   <g id="patch_37">
    <path d="M 255.186033 476.36 
L 262.998033 476.36 
L 262.998033 354.369024 
L 255.186033 354.369024 
z
" clip-path="url(#p42083f6c88)" style="fill: #ff0000; opacity: 0.1"/>
   </g>
   <g id="patch_38">
    <path d="M 232.058065 476.36 
L 239.870065 476.36 
L 239.870065 365.848774 
L 232.058065 365.848774 
z
" clip-path="url(#p42083f6c88)" style="fill: #ff0000; opacity: 0.1"/>
   </g>
   <g id="patch_39">
    <path d="M 208.919488 476.36 
L 216.731488 476.36 
L 216.731488 376.674591 
L 208.919488 376.674591 
z
" clip-path="url(#p42083f6c88)" style="fill: #ff0000; opacity: 0.1"/>
   </g>
   <g id="patch_40">
    <path d="M 185.77137 476.36 
L 193.58337 476.36 
L 193.58337 386.819304 
L 185.77137 386.819304 
z
" clip-path="url(#p42083f6c88)" style="fill: #ff0000; opacity: 0.1"/>
   </g>
   <g id="patch_41">
    <path d="M 162.614643 476.36 
L 170.426643 476.36 
L 170.426643 396.268052 
L 162.614643 396.268052 
z
" clip-path="url(#p42083f6c88)" style="fill: #ff0000; opacity: 0.1"/>
   </g>
   <g id="patch_42">
    <path d="M 139.450119 476.36 
L 147.262119 476.36 
L 147.262119 405.01699 
L 139.450119 405.01699 
z
" clip-path="url(#p42083f6c88)" style="fill: #ff0000; opacity: 0.1"/>
   </g>
   <g id="patch_43">
    <path d="M 116.278514 476.36 
L 124.090514 476.36 
L 124.090514 413.071943 
L 116.278514 413.071943 
z
" clip-path="url(#p42083f6c88)" style="fill: #ff0000; opacity: 0.1"/>
   </g>
   <g id="patch_44">
    <path d="M 93.100459 476.36 
L 100.912459 476.36 
L 100.912459 420.447042 
L 93.100459 420.447042 
z
" clip-path="url(#p42083f6c88)" style="fill: #ff0000; opacity: 0.1"/>
   </g>
   <g id="patch_45">
    <path d="M 69.916511 476.36 
L 77.728511 476.36 
L 77.728511 427.163377 
L 69.916511 427.163377 
z
" clip-path="url(#p42083f6c88)" style="fill: #ff0000; opacity: 0.1"/>
   </g>
   <g id="patch_46">
    <path d="M 46.727167 476.36 
L 54.539167 476.36 
L 54.539167 433.247704 
L 46.727167 433.247704 
z
" clip-path="url(#p42083f6c88)" style="fill: #ff0000; opacity: 0.1"/>
   </g>
   <g id="patch_47">
    <path d="M 23.532868 476.36 
L 31.344868 476.36 
L 31.344868 438.73121 
L 23.532868 438.73121 
z
" clip-path="url(#p42083f6c88)" style="fill: #ff0000; opacity: 0.1"/>
   </g>
   <g id="patch_48">
    <path d="M 0.33401 476.36 
L 8.14601 476.36 
L 8.14601 443.648372 
L 0.33401 443.648372 
z
" clip-path="url(#p42083f6c88)" style="fill: #ff0000; opacity: 0.1"/>
   </g>
   <g id="patch_49">
    <path d="M -22.869054 476.36 
L -15.057054 476.36 
L -15.057054 448.035923 
L -22.869054 448.035923 
z
" clip-path="url(#p42083f6c88)" style="fill: #ff0000; opacity: 0.1"/>
   </g>
   <g id="patch_50">
    <path d="M -46.076005 476.36 
L -38.264005 476.36 
L -38.264005 451.931913 
L -46.076005 451.931913 
z
" clip-path="url(#p42083f6c88)" style="fill: #ff0000; opacity: 0.1"/>
   </g>
   <g id="patch_51">
    <path d="M -69.286555 476.36 
L -61.474555 476.36 
L -61.474555 455.374897 
L -69.286555 455.374897 
z
" clip-path="url(#p42083f6c88)" style="fill: #ff0000; opacity: 0.1"/>
   </g>
   <g id="patch_52">
    <path d="M -92.500445 476.36 
L -84.688445 476.36 
L -84.688445 458.403235 
L -92.500445 458.403235 
z
" clip-path="url(#p42083f6c88)" style="fill: #ff0000; opacity: 0.1"/>
   </g>
   <g id="matplotlib.axis_1">
    <g id="xtick_1">
     <g id="line2d_1">
      <defs>
       <path id="m97dea2e1cc" d="M 0 0 
L 0 -6 
" style="stroke: #000000"/>
      </defs>
      <g>
       <use xlink:href="#m97dea2e1cc" x="90.959375" y="476.36" style="stroke: #000000"/>
      </g>
     </g>
     <g id="line2d_2">
      <defs>
       <path id="m5a9156a4bf" d="M 0 0 
L 0 6 
" style="stroke: #000000"/>
      </defs>
      <g>
       <use xlink:href="#m5a9156a4bf" x="90.959375" y="32.84" style="stroke: #000000"/>
      </g>
     </g>
     <g id="text_1">
      <!-- −0.05 -->
      <g transform="translate(52.652734 498.856094) scale(0.25 -0.25)">
       <defs>
        <path id="DejaVuSans-2212" d="M 678 2272 
L 4684 2272 
L 4684 1741 
L 678 1741 
L 678 2272 
z
" transform="scale(0.015625)"/>
        <path id="DejaVuSans-30" d="M 2034 4250 
Q 1547 4250 1301 3770 
Q 1056 3291 1056 2328 
Q 1056 1369 1301 889 
Q 1547 409 2034 409 
Q 2525 409 2770 889 
Q 3016 1369 3016 2328 
Q 3016 3291 2770 3770 
Q 2525 4250 2034 4250 
z
M 2034 4750 
Q 2819 4750 3233 4129 
Q 3647 3509 3647 2328 
Q 3647 1150 3233 529 
Q 2819 -91 2034 -91 
Q 1250 -91 836 529 
Q 422 1150 422 2328 
Q 422 3509 836 4129 
Q 1250 4750 2034 4750 
z
" transform="scale(0.015625)"/>
        <path id="DejaVuSans-2e" d="M 684 794 
L 1344 794 
L 1344 0 
L 684 0 
L 684 794 
z
" transform="scale(0.015625)"/>
        <path id="DejaVuSans-35" d="M 691 4666 
L 3169 4666 
L 3169 4134 
L 1269 4134 
L 1269 2991 
Q 1406 3038 1543 3061 
Q 1681 3084 1819 3084 
Q 2600 3084 3056 2656 
Q 3513 2228 3513 1497 
Q 3513 744 3044 326 
Q 2575 -91 1722 -91 
Q 1428 -91 1123 -41 
Q 819 9 494 109 
L 494 744 
Q 775 591 1075 516 
Q 1375 441 1709 441 
Q 2250 441 2565 725 
Q 2881 1009 2881 1497 
Q 2881 1984 2565 2268 
Q 2250 2553 1709 2553 
Q 1456 2553 1204 2497 
Q 953 2441 691 2322 
L 691 4666 
z
" transform="scale(0.015625)"/>
       </defs>
       <use xlink:href="#DejaVuSans-2212"/>
       <use xlink:href="#DejaVuSans-30" transform="translate(83.789062 0)"/>
       <use xlink:href="#DejaVuSans-2e" transform="translate(147.412109 0)"/>
       <use xlink:href="#DejaVuSans-30" transform="translate(179.199219 0)"/>
       <use xlink:href="#DejaVuSans-35" transform="translate(242.822266 0)"/>
      </g>
     </g>
    </g>
    <g id="xtick_2">
     <g id="line2d_3">
      <g>
       <use xlink:href="#m97dea2e1cc" x="247.199375" y="476.36" style="stroke: #000000"/>
      </g>
     </g>
     <g id="line2d_4">
      <g>
       <use xlink:href="#m5a9156a4bf" x="247.199375" y="32.84" style="stroke: #000000"/>
      </g>
     </g>
     <g id="text_2">
      <!-- −0.04 -->
      <g transform="translate(208.892734 498.856094) scale(0.25 -0.25)">
       <defs>
        <path id="DejaVuSans-34" d="M 2419 4116 
L 825 1625 
L 2419 1625 
L 2419 4116 
z
M 2253 4666 
L 3047 4666 
L 3047 1625 
L 3713 1625 
L 3713 1100 
L 3047 1100 
L 3047 0 
L 2419 0 
L 2419 1100 
L 313 1100 
L 313 1709 
L 2253 4666 
z
" transform="scale(0.015625)"/>
       </defs>
       <use xlink:href="#DejaVuSans-2212"/>
       <use xlink:href="#DejaVuSans-30" transform="translate(83.789062 0)"/>
       <use xlink:href="#DejaVuSans-2e" transform="translate(147.412109 0)"/>
       <use xlink:href="#DejaVuSans-30" transform="translate(179.199219 0)"/>
       <use xlink:href="#DejaVuSans-34" transform="translate(242.822266 0)"/>
      </g>
     </g>
    </g>
    <g id="xtick_3">
     <g id="line2d_5">
      <g>
       <use xlink:href="#m97dea2e1cc" x="403.439375" y="476.36" style="stroke: #000000"/>
      </g>
     </g>
     <g id="line2d_6">
      <g>
       <use xlink:href="#m5a9156a4bf" x="403.439375" y="32.84" style="stroke: #000000"/>
      </g>
     </g>
     <g id="text_3">
      <!-- −0.03 -->
      <g transform="translate(365.132734 498.856094) scale(0.25 -0.25)">
       <defs>
        <path id="DejaVuSans-33" d="M 2597 2516 
Q 3050 2419 3304 2112 
Q 3559 1806 3559 1356 
Q 3559 666 3084 287 
Q 2609 -91 1734 -91 
Q 1441 -91 1130 -33 
Q 819 25 488 141 
L 488 750 
Q 750 597 1062 519 
Q 1375 441 1716 441 
Q 2309 441 2620 675 
Q 2931 909 2931 1356 
Q 2931 1769 2642 2001 
Q 2353 2234 1838 2234 
L 1294 2234 
L 1294 2753 
L 1863 2753 
Q 2328 2753 2575 2939 
Q 2822 3125 2822 3475 
Q 2822 3834 2567 4026 
Q 2313 4219 1838 4219 
Q 1578 4219 1281 4162 
Q 984 4106 628 3988 
L 628 4550 
Q 988 4650 1302 4700 
Q 1616 4750 1894 4750 
Q 2613 4750 3031 4423 
Q 3450 4097 3450 3541 
Q 3450 3153 3228 2886 
Q 3006 2619 2597 2516 
z
" transform="scale(0.015625)"/>
       </defs>
       <use xlink:href="#DejaVuSans-2212"/>
       <use xlink:href="#DejaVuSans-30" transform="translate(83.789062 0)"/>
       <use xlink:href="#DejaVuSans-2e" transform="translate(147.412109 0)"/>
       <use xlink:href="#DejaVuSans-30" transform="translate(179.199219 0)"/>
       <use xlink:href="#DejaVuSans-33" transform="translate(242.822266 0)"/>
      </g>
     </g>
    </g>
    <g id="xtick_4">
     <g id="line2d_7">
      <g>
       <use xlink:href="#m97dea2e1cc" x="559.679375" y="476.36" style="stroke: #000000"/>
      </g>
     </g>
     <g id="line2d_8">
      <g>
       <use xlink:href="#m5a9156a4bf" x="559.679375" y="32.84" style="stroke: #000000"/>
      </g>
     </g>
     <g id="text_4">
      <!-- −0.02 -->
      <g transform="translate(521.372734 498.856094) scale(0.25 -0.25)">
       <defs>
        <path id="DejaVuSans-32" d="M 1228 531 
L 3431 531 
L 3431 0 
L 469 0 
L 469 531 
Q 828 903 1448 1529 
Q 2069 2156 2228 2338 
Q 2531 2678 2651 2914 
Q 2772 3150 2772 3378 
Q 2772 3750 2511 3984 
Q 2250 4219 1831 4219 
Q 1534 4219 1204 4116 
Q 875 4013 500 3803 
L 500 4441 
Q 881 4594 1212 4672 
Q 1544 4750 1819 4750 
Q 2544 4750 2975 4387 
Q 3406 4025 3406 3419 
Q 3406 3131 3298 2873 
Q 3191 2616 2906 2266 
Q 2828 2175 2409 1742 
Q 1991 1309 1228 531 
z
" transform="scale(0.015625)"/>
       </defs>
       <use xlink:href="#DejaVuSans-2212"/>
       <use xlink:href="#DejaVuSans-30" transform="translate(83.789062 0)"/>
       <use xlink:href="#DejaVuSans-2e" transform="translate(147.412109 0)"/>
       <use xlink:href="#DejaVuSans-30" transform="translate(179.199219 0)"/>
       <use xlink:href="#DejaVuSans-32" transform="translate(242.822266 0)"/>
      </g>
     </g>
    </g>
    <g id="xtick_5">
     <g id="line2d_9">
      <g>
       <use xlink:href="#m97dea2e1cc" x="715.919375" y="476.36" style="stroke: #000000"/>
      </g>
     </g>
     <g id="line2d_10">
      <g>
       <use xlink:href="#m5a9156a4bf" x="715.919375" y="32.84" style="stroke: #000000"/>
      </g>
     </g>
     <g id="text_5">
      <!-- −0.01 -->
      <g transform="translate(677.612734 498.856094) scale(0.25 -0.25)">
       <defs>
        <path id="DejaVuSans-31" d="M 794 531 
L 1825 531 
L 1825 4091 
L 703 3866 
L 703 4441 
L 1819 4666 
L 2450 4666 
L 2450 531 
L 3481 531 
L 3481 0 
L 794 0 
L 794 531 
z
" transform="scale(0.015625)"/>
       </defs>
       <use xlink:href="#DejaVuSans-2212"/>
       <use xlink:href="#DejaVuSans-30" transform="translate(83.789062 0)"/>
       <use xlink:href="#DejaVuSans-2e" transform="translate(147.412109 0)"/>
       <use xlink:href="#DejaVuSans-30" transform="translate(179.199219 0)"/>
       <use xlink:href="#DejaVuSans-31" transform="translate(242.822266 0)"/>
      </g>
     </g>
    </g>
    <g id="xtick_6">
     <g id="line2d_11">
      <g>
       <use xlink:href="#m97dea2e1cc" x="872.159375" y="476.36" style="stroke: #000000"/>
      </g>
     </g>
     <g id="line2d_12">
      <g>
       <use xlink:href="#m5a9156a4bf" x="872.159375" y="32.84" style="stroke: #000000"/>
      </g>
     </g>
     <g id="text_6">
      <!-- 0.00 -->
      <g transform="translate(844.327344 498.856094) scale(0.25 -0.25)">
       <use xlink:href="#DejaVuSans-30"/>
       <use xlink:href="#DejaVuSans-2e" transform="translate(63.623047 0)"/>
       <use xlink:href="#DejaVuSans-30" transform="translate(95.410156 0)"/>
       <use xlink:href="#DejaVuSans-30" transform="translate(159.033203 0)"/>
      </g>
     </g>
    </g>
    <g id="xtick_7">
     <g id="line2d_13">
      <defs>
       <path id="m6d103ba885" d="M 0 0 
L 0 -3 
" style="stroke: #000000"/>
      </defs>
      <g>
       <use xlink:href="#m6d103ba885" x="122.207375" y="476.36" style="stroke: #000000"/>
      </g>
     </g>
     <g id="line2d_14">
      <defs>
       <path id="m3b05b4de25" d="M 0 0 
L 0 3 
" style="stroke: #000000"/>
      </defs>
      <g>
       <use xlink:href="#m3b05b4de25" x="122.207375" y="32.84" style="stroke: #000000"/>
      </g>
     </g>
    </g>
    <g id="xtick_8">
     <g id="line2d_15">
      <g>
       <use xlink:href="#m6d103ba885" x="153.455375" y="476.36" style="stroke: #000000"/>
      </g>
     </g>
     <g id="line2d_16">
      <g>
       <use xlink:href="#m3b05b4de25" x="153.455375" y="32.84" style="stroke: #000000"/>
      </g>
     </g>
    </g>
    <g id="xtick_9">
     <g id="line2d_17">
      <g>
       <use xlink:href="#m6d103ba885" x="184.703375" y="476.36" style="stroke: #000000"/>
      </g>
     </g>
     <g id="line2d_18">
      <g>
       <use xlink:href="#m3b05b4de25" x="184.703375" y="32.84" style="stroke: #000000"/>
      </g>
     </g>
    </g>
    <g id="xtick_10">
     <g id="line2d_19">
      <g>
       <use xlink:href="#m6d103ba885" x="215.951375" y="476.36" style="stroke: #000000"/>
      </g>
     </g>
     <g id="line2d_20">
      <g>
       <use xlink:href="#m3b05b4de25" x="215.951375" y="32.84" style="stroke: #000000"/>
      </g>
     </g>
    </g>
    <g id="xtick_11">
     <g id="line2d_21">
      <g>
       <use xlink:href="#m6d103ba885" x="278.447375" y="476.36" style="stroke: #000000"/>
      </g>
     </g>
     <g id="line2d_22">
      <g>
       <use xlink:href="#m3b05b4de25" x="278.447375" y="32.84" style="stroke: #000000"/>
      </g>
     </g>
    </g>
    <g id="xtick_12">
     <g id="line2d_23">
      <g>
       <use xlink:href="#m6d103ba885" x="309.695375" y="476.36" style="stroke: #000000"/>
      </g>
     </g>
     <g id="line2d_24">
      <g>
       <use xlink:href="#m3b05b4de25" x="309.695375" y="32.84" style="stroke: #000000"/>
      </g>
     </g>
    </g>
    <g id="xtick_13">
     <g id="line2d_25">
      <g>
       <use xlink:href="#m6d103ba885" x="340.943375" y="476.36" style="stroke: #000000"/>
      </g>
     </g>
     <g id="line2d_26">
      <g>
       <use xlink:href="#m3b05b4de25" x="340.943375" y="32.84" style="stroke: #000000"/>
      </g>
     </g>
    </g>
    <g id="xtick_14">
     <g id="line2d_27">
      <g>
       <use xlink:href="#m6d103ba885" x="372.191375" y="476.36" style="stroke: #000000"/>
      </g>
     </g>
     <g id="line2d_28">
      <g>
       <use xlink:href="#m3b05b4de25" x="372.191375" y="32.84" style="stroke: #000000"/>
      </g>
     </g>
    </g>
    <g id="xtick_15">
     <g id="line2d_29">
      <g>
       <use xlink:href="#m6d103ba885" x="434.687375" y="476.36" style="stroke: #000000"/>
      </g>
     </g>
     <g id="line2d_30">
      <g>
       <use xlink:href="#m3b05b4de25" x="434.687375" y="32.84" style="stroke: #000000"/>
      </g>
     </g>
    </g>
    <g id="xtick_16">
     <g id="line2d_31">
      <g>
       <use xlink:href="#m6d103ba885" x="465.935375" y="476.36" style="stroke: #000000"/>
      </g>
     </g>
     <g id="line2d_32">
      <g>
       <use xlink:href="#m3b05b4de25" x="465.935375" y="32.84" style="stroke: #000000"/>
      </g>
     </g>
    </g>
    <g id="xtick_17">
     <g id="line2d_33">
      <g>
       <use xlink:href="#m6d103ba885" x="497.183375" y="476.36" style="stroke: #000000"/>
      </g>
     </g>
     <g id="line2d_34">
      <g>
       <use xlink:href="#m3b05b4de25" x="497.183375" y="32.84" style="stroke: #000000"/>
      </g>
     </g>
    </g>
    <g id="xtick_18">
     <g id="line2d_35">
      <g>
       <use xlink:href="#m6d103ba885" x="528.431375" y="476.36" style="stroke: #000000"/>
      </g>
     </g>
     <g id="line2d_36">
      <g>
       <use xlink:href="#m3b05b4de25" x="528.431375" y="32.84" style="stroke: #000000"/>
      </g>
     </g>
    </g>
    <g id="xtick_19">
     <g id="line2d_37">
      <g>
       <use xlink:href="#m6d103ba885" x="590.927375" y="476.36" style="stroke: #000000"/>
      </g>
     </g>
     <g id="line2d_38">
      <g>
       <use xlink:href="#m3b05b4de25" x="590.927375" y="32.84" style="stroke: #000000"/>
      </g>
     </g>
    </g>
    <g id="xtick_20">
     <g id="line2d_39">
      <g>
       <use xlink:href="#m6d103ba885" x="622.175375" y="476.36" style="stroke: #000000"/>
      </g>
     </g>
     <g id="line2d_40">
      <g>
       <use xlink:href="#m3b05b4de25" x="622.175375" y="32.84" style="stroke: #000000"/>
      </g>
     </g>
    </g>
    <g id="xtick_21">
     <g id="line2d_41">
      <g>
       <use xlink:href="#m6d103ba885" x="653.423375" y="476.36" style="stroke: #000000"/>
      </g>
     </g>
     <g id="line2d_42">
      <g>
       <use xlink:href="#m3b05b4de25" x="653.423375" y="32.84" style="stroke: #000000"/>
      </g>
     </g>
    </g>
    <g id="xtick_22">
     <g id="line2d_43">
      <g>
       <use xlink:href="#m6d103ba885" x="684.671375" y="476.36" style="stroke: #000000"/>
      </g>
     </g>
     <g id="line2d_44">
      <g>
       <use xlink:href="#m3b05b4de25" x="684.671375" y="32.84" style="stroke: #000000"/>
      </g>
     </g>
    </g>
    <g id="xtick_23">
     <g id="line2d_45">
      <g>
       <use xlink:href="#m6d103ba885" x="747.167375" y="476.36" style="stroke: #000000"/>
      </g>
     </g>
     <g id="line2d_46">
      <g>
       <use xlink:href="#m3b05b4de25" x="747.167375" y="32.84" style="stroke: #000000"/>
      </g>
     </g>
    </g>
    <g id="xtick_24">
     <g id="line2d_47">
      <g>
       <use xlink:href="#m6d103ba885" x="778.415375" y="476.36" style="stroke: #000000"/>
      </g>
     </g>
     <g id="line2d_48">
      <g>
       <use xlink:href="#m3b05b4de25" x="778.415375" y="32.84" style="stroke: #000000"/>
      </g>
     </g>
    </g>
    <g id="xtick_25">
     <g id="line2d_49">
      <g>
       <use xlink:href="#m6d103ba885" x="809.663375" y="476.36" style="stroke: #000000"/>
      </g>
     </g>
     <g id="line2d_50">
      <g>
       <use xlink:href="#m3b05b4de25" x="809.663375" y="32.84" style="stroke: #000000"/>
      </g>
     </g>
    </g>
    <g id="xtick_26">
     <g id="line2d_51">
      <g>
       <use xlink:href="#m6d103ba885" x="840.911375" y="476.36" style="stroke: #000000"/>
      </g>
     </g>
     <g id="line2d_52">
      <g>
       <use xlink:href="#m3b05b4de25" x="840.911375" y="32.84" style="stroke: #000000"/>
      </g>
     </g>
    </g>
    <g id="text_7">
     <!-- Frequency (MHz) -->
     <g transform="translate(376.5125 527.051406) scale(0.25 -0.25)">
      <defs>
       <path id="DejaVuSans-46" d="M 628 4666 
L 3309 4666 
L 3309 4134 
L 1259 4134 
L 1259 2759 
L 3109 2759 
L 3109 2228 
L 1259 2228 
L 1259 0 
L 628 0 
L 628 4666 
z
" transform="scale(0.015625)"/>
       <path id="DejaVuSans-72" d="M 2631 2963 
Q 2534 3019 2420 3045 
Q 2306 3072 2169 3072 
Q 1681 3072 1420 2755 
Q 1159 2438 1159 1844 
L 1159 0 
L 581 0 
L 581 3500 
L 1159 3500 
L 1159 2956 
Q 1341 3275 1631 3429 
Q 1922 3584 2338 3584 
Q 2397 3584 2469 3576 
Q 2541 3569 2628 3553 
L 2631 2963 
z
" transform="scale(0.015625)"/>
       <path id="DejaVuSans-65" d="M 3597 1894 
L 3597 1613 
L 953 1613 
Q 991 1019 1311 708 
Q 1631 397 2203 397 
Q 2534 397 2845 478 
Q 3156 559 3463 722 
L 3463 178 
Q 3153 47 2828 -22 
Q 2503 -91 2169 -91 
Q 1331 -91 842 396 
Q 353 884 353 1716 
Q 353 2575 817 3079 
Q 1281 3584 2069 3584 
Q 2775 3584 3186 3129 
Q 3597 2675 3597 1894 
z
M 3022 2063 
Q 3016 2534 2758 2815 
Q 2500 3097 2075 3097 
Q 1594 3097 1305 2825 
Q 1016 2553 972 2059 
L 3022 2063 
z
" transform="scale(0.015625)"/>
       <path id="DejaVuSans-71" d="M 947 1747 
Q 947 1113 1208 752 
Q 1469 391 1925 391 
Q 2381 391 2643 752 
Q 2906 1113 2906 1747 
Q 2906 2381 2643 2742 
Q 2381 3103 1925 3103 
Q 1469 3103 1208 2742 
Q 947 2381 947 1747 
z
M 2906 525 
Q 2725 213 2448 61 
Q 2172 -91 1784 -91 
Q 1150 -91 751 415 
Q 353 922 353 1747 
Q 353 2572 751 3078 
Q 1150 3584 1784 3584 
Q 2172 3584 2448 3432 
Q 2725 3281 2906 2969 
L 2906 3500 
L 3481 3500 
L 3481 -1331 
L 2906 -1331 
L 2906 525 
z
" transform="scale(0.015625)"/>
       <path id="DejaVuSans-75" d="M 544 1381 
L 544 3500 
L 1119 3500 
L 1119 1403 
Q 1119 906 1312 657 
Q 1506 409 1894 409 
Q 2359 409 2629 706 
Q 2900 1003 2900 1516 
L 2900 3500 
L 3475 3500 
L 3475 0 
L 2900 0 
L 2900 538 
Q 2691 219 2414 64 
Q 2138 -91 1772 -91 
Q 1169 -91 856 284 
Q 544 659 544 1381 
z
M 1991 3584 
L 1991 3584 
z
" transform="scale(0.015625)"/>
       <path id="DejaVuSans-6e" d="M 3513 2113 
L 3513 0 
L 2938 0 
L 2938 2094 
Q 2938 2591 2744 2837 
Q 2550 3084 2163 3084 
Q 1697 3084 1428 2787 
Q 1159 2491 1159 1978 
L 1159 0 
L 581 0 
L 581 3500 
L 1159 3500 
L 1159 2956 
Q 1366 3272 1645 3428 
Q 1925 3584 2291 3584 
Q 2894 3584 3203 3211 
Q 3513 2838 3513 2113 
z
" transform="scale(0.015625)"/>
       <path id="DejaVuSans-63" d="M 3122 3366 
L 3122 2828 
Q 2878 2963 2633 3030 
Q 2388 3097 2138 3097 
Q 1578 3097 1268 2742 
Q 959 2388 959 1747 
Q 959 1106 1268 751 
Q 1578 397 2138 397 
Q 2388 397 2633 464 
Q 2878 531 3122 666 
L 3122 134 
Q 2881 22 2623 -34 
Q 2366 -91 2075 -91 
Q 1284 -91 818 406 
Q 353 903 353 1747 
Q 353 2603 823 3093 
Q 1294 3584 2113 3584 
Q 2378 3584 2631 3529 
Q 2884 3475 3122 3366 
z
" transform="scale(0.015625)"/>
       <path id="DejaVuSans-79" d="M 2059 -325 
Q 1816 -950 1584 -1140 
Q 1353 -1331 966 -1331 
L 506 -1331 
L 506 -850 
L 844 -850 
Q 1081 -850 1212 -737 
Q 1344 -625 1503 -206 
L 1606 56 
L 191 3500 
L 800 3500 
L 1894 763 
L 2988 3500 
L 3597 3500 
L 2059 -325 
z
" transform="scale(0.015625)"/>
       <path id="DejaVuSans-20" transform="scale(0.015625)"/>
       <path id="DejaVuSans-28" d="M 1984 4856 
Q 1566 4138 1362 3434 
Q 1159 2731 1159 2009 
Q 1159 1288 1364 580 
Q 1569 -128 1984 -844 
L 1484 -844 
Q 1016 -109 783 600 
Q 550 1309 550 2009 
Q 550 2706 781 3412 
Q 1013 4119 1484 4856 
L 1984 4856 
z
" transform="scale(0.015625)"/>
       <path id="DejaVuSans-4d" d="M 628 4666 
L 1569 4666 
L 2759 1491 
L 3956 4666 
L 4897 4666 
L 4897 0 
L 4281 0 
L 4281 4097 
L 3078 897 
L 2444 897 
L 1241 4097 
L 1241 0 
L 628 0 
L 628 4666 
z
" transform="scale(0.015625)"/>
       <path id="DejaVuSans-48" d="M 628 4666 
L 1259 4666 
L 1259 2753 
L 3553 2753 
L 3553 4666 
L 4184 4666 
L 4184 0 
L 3553 0 
L 3553 2222 
L 1259 2222 
L 1259 0 
L 628 0 
L 628 4666 
z
" transform="scale(0.015625)"/>
       <path id="DejaVuSans-7a" d="M 353 3500 
L 3084 3500 
L 3084 2975 
L 922 459 
L 3084 459 
L 3084 0 
L 275 0 
L 275 525 
L 2438 3041 
L 353 3041 
L 353 3500 
z
" transform="scale(0.015625)"/>
       <path id="DejaVuSans-29" d="M 513 4856 
L 1013 4856 
Q 1481 4119 1714 3412 
Q 1947 2706 1947 2009 
Q 1947 1309 1714 600 
Q 1481 -109 1013 -844 
L 513 -844 
Q 928 -128 1133 580 
Q 1338 1288 1338 2009 
Q 1338 2731 1133 3434 
Q 928 4138 513 4856 
z
" transform="scale(0.015625)"/>
      </defs>
      <use xlink:href="#DejaVuSans-46"/>
      <use xlink:href="#DejaVuSans-72" transform="translate(50.269531 0)"/>
      <use xlink:href="#DejaVuSans-65" transform="translate(89.132812 0)"/>
      <use xlink:href="#DejaVuSans-71" transform="translate(150.65625 0)"/>
      <use xlink:href="#DejaVuSans-75" transform="translate(214.132812 0)"/>
      <use xlink:href="#DejaVuSans-65" transform="translate(277.511719 0)"/>
      <use xlink:href="#DejaVuSans-6e" transform="translate(339.035156 0)"/>
      <use xlink:href="#DejaVuSans-63" transform="translate(402.414062 0)"/>
      <use xlink:href="#DejaVuSans-79" transform="translate(457.394531 0)"/>
      <use xlink:href="#DejaVuSans-20" transform="translate(516.574219 0)"/>
      <use xlink:href="#DejaVuSans-28" transform="translate(548.361328 0)"/>
      <use xlink:href="#DejaVuSans-4d" transform="translate(587.375 0)"/>
      <use xlink:href="#DejaVuSans-48" transform="translate(673.654297 0)"/>
      <use xlink:href="#DejaVuSans-7a" transform="translate(748.849609 0)"/>
      <use xlink:href="#DejaVuSans-29" transform="translate(801.339844 0)"/>
     </g>
    </g>
   </g>
   <g id="matplotlib.axis_2">
    <g id="ytick_1">
     <g id="line2d_53">
      <defs>
       <path id="me6ad4851cd" d="M 0 0 
L 6 0 
" style="stroke: #000000"/>
      </defs>
      <g>
       <use xlink:href="#me6ad4851cd" x="90.959375" y="476.36" style="stroke: #000000"/>
      </g>
     </g>
     <g id="line2d_54">
      <defs>
       <path id="m19dc0b8e17" d="M 0 0 
L -6 0 
" style="stroke: #000000"/>
      </defs>
      <g>
       <use xlink:href="#m19dc0b8e17" x="872.159375" y="476.36" style="stroke: #000000"/>
      </g>
     </g>
     <g id="text_8">
      <!-- 0.00 -->
      <g transform="translate(31.795313 485.858047) scale(0.25 -0.25)">
       <use xlink:href="#DejaVuSans-30"/>
       <use xlink:href="#DejaVuSans-2e" transform="translate(63.623047 0)"/>
       <use xlink:href="#DejaVuSans-30" transform="translate(95.410156 0)"/>
       <use xlink:href="#DejaVuSans-30" transform="translate(159.033203 0)"/>
      </g>
     </g>
    </g>
    <g id="ytick_2">
     <g id="line2d_55">
      <g>
       <use xlink:href="#me6ad4851cd" x="90.959375" y="387.656" style="stroke: #000000"/>
      </g>
     </g>
     <g id="line2d_56">
      <g>
       <use xlink:href="#m19dc0b8e17" x="872.159375" y="387.656" style="stroke: #000000"/>
      </g>
     </g>
     <g id="text_9">
      <!-- 0.01 -->
      <g transform="translate(31.795313 397.154047) scale(0.25 -0.25)">
       <use xlink:href="#DejaVuSans-30"/>
       <use xlink:href="#DejaVuSans-2e" transform="translate(63.623047 0)"/>
       <use xlink:href="#DejaVuSans-30" transform="translate(95.410156 0)"/>
       <use xlink:href="#DejaVuSans-31" transform="translate(159.033203 0)"/>
      </g>
     </g>
    </g>
    <g id="ytick_3">
     <g id="line2d_57">
      <g>
       <use xlink:href="#me6ad4851cd" x="90.959375" y="298.952" style="stroke: #000000"/>
      </g>
     </g>
     <g id="line2d_58">
      <g>
       <use xlink:href="#m19dc0b8e17" x="872.159375" y="298.952" style="stroke: #000000"/>
      </g>
     </g>
     <g id="text_10">
      <!-- 0.02 -->
      <g transform="translate(31.795313 308.450047) scale(0.25 -0.25)">
       <use xlink:href="#DejaVuSans-30"/>
       <use xlink:href="#DejaVuSans-2e" transform="translate(63.623047 0)"/>
       <use xlink:href="#DejaVuSans-30" transform="translate(95.410156 0)"/>
       <use xlink:href="#DejaVuSans-32" transform="translate(159.033203 0)"/>
      </g>
     </g>
    </g>
    <g id="ytick_4">
     <g id="line2d_59">
      <g>
       <use xlink:href="#me6ad4851cd" x="90.959375" y="210.248" style="stroke: #000000"/>
      </g>
     </g>
     <g id="line2d_60">
      <g>
       <use xlink:href="#m19dc0b8e17" x="872.159375" y="210.248" style="stroke: #000000"/>
      </g>
     </g>
     <g id="text_11">
      <!-- 0.03 -->
      <g transform="translate(31.795313 219.746047) scale(0.25 -0.25)">
       <use xlink:href="#DejaVuSans-30"/>
       <use xlink:href="#DejaVuSans-2e" transform="translate(63.623047 0)"/>
       <use xlink:href="#DejaVuSans-30" transform="translate(95.410156 0)"/>
       <use xlink:href="#DejaVuSans-33" transform="translate(159.033203 0)"/>
      </g>
     </g>
    </g>
    <g id="ytick_5">
     <g id="line2d_61">
      <g>
       <use xlink:href="#me6ad4851cd" x="90.959375" y="121.544" style="stroke: #000000"/>
      </g>
     </g>
     <g id="line2d_62">
      <g>
       <use xlink:href="#m19dc0b8e17" x="872.159375" y="121.544" style="stroke: #000000"/>
      </g>
     </g>
     <g id="text_12">
      <!-- 0.04 -->
      <g transform="translate(31.795313 131.042047) scale(0.25 -0.25)">
       <use xlink:href="#DejaVuSans-30"/>
       <use xlink:href="#DejaVuSans-2e" transform="translate(63.623047 0)"/>
       <use xlink:href="#DejaVuSans-30" transform="translate(95.410156 0)"/>
       <use xlink:href="#DejaVuSans-34" transform="translate(159.033203 0)"/>
      </g>
     </g>
    </g>
    <g id="ytick_6">
     <g id="line2d_63">
      <g>
       <use xlink:href="#me6ad4851cd" x="90.959375" y="32.84" style="stroke: #000000"/>
      </g>
     </g>
     <g id="line2d_64">
      <g>
       <use xlink:href="#m19dc0b8e17" x="872.159375" y="32.84" style="stroke: #000000"/>
      </g>
     </g>
     <g id="text_13">
      <!-- 0.05 -->
      <g transform="translate(31.795313 42.338047) scale(0.25 -0.25)">
       <use xlink:href="#DejaVuSans-30"/>
       <use xlink:href="#DejaVuSans-2e" transform="translate(63.623047 0)"/>
       <use xlink:href="#DejaVuSans-30" transform="translate(95.410156 0)"/>
       <use xlink:href="#DejaVuSans-35" transform="translate(159.033203 0)"/>
      </g>
     </g>
    </g>
    <g id="ytick_7">
     <g id="line2d_65">
      <defs>
       <path id="m84eb0d9610" d="M 0 0 
L 3 0 
" style="stroke: #000000"/>
      </defs>
      <g>
       <use xlink:href="#m84eb0d9610" x="90.959375" y="458.6192" style="stroke: #000000"/>
      </g>
     </g>
     <g id="line2d_66">
      <defs>
       <path id="m559a8ea8f8" d="M 0 0 
L -3 0 
" style="stroke: #000000"/>
      </defs>
      <g>
       <use xlink:href="#m559a8ea8f8" x="872.159375" y="458.6192" style="stroke: #000000"/>
      </g>
     </g>
    </g>
    <g id="ytick_8">
     <g id="line2d_67">
      <g>
       <use xlink:href="#m84eb0d9610" x="90.959375" y="440.8784" style="stroke: #000000"/>
      </g>
     </g>
     <g id="line2d_68">
      <g>
       <use xlink:href="#m559a8ea8f8" x="872.159375" y="440.8784" style="stroke: #000000"/>
      </g>
     </g>
    </g>
    <g id="ytick_9">
     <g id="line2d_69">
      <g>
       <use xlink:href="#m84eb0d9610" x="90.959375" y="423.1376" style="stroke: #000000"/>
      </g>
     </g>
     <g id="line2d_70">
      <g>
       <use xlink:href="#m559a8ea8f8" x="872.159375" y="423.1376" style="stroke: #000000"/>
      </g>
     </g>
    </g>
    <g id="ytick_10">
     <g id="line2d_71">
      <g>
       <use xlink:href="#m84eb0d9610" x="90.959375" y="405.3968" style="stroke: #000000"/>
      </g>
     </g>
     <g id="line2d_72">
      <g>
       <use xlink:href="#m559a8ea8f8" x="872.159375" y="405.3968" style="stroke: #000000"/>
      </g>
     </g>
    </g>
    <g id="ytick_11">
     <g id="line2d_73">
      <g>
       <use xlink:href="#m84eb0d9610" x="90.959375" y="369.9152" style="stroke: #000000"/>
      </g>
     </g>
     <g id="line2d_74">
      <g>
       <use xlink:href="#m559a8ea8f8" x="872.159375" y="369.9152" style="stroke: #000000"/>
      </g>
     </g>
    </g>
    <g id="ytick_12">
     <g id="line2d_75">
      <g>
       <use xlink:href="#m84eb0d9610" x="90.959375" y="352.1744" style="stroke: #000000"/>
      </g>
     </g>
     <g id="line2d_76">
      <g>
       <use xlink:href="#m559a8ea8f8" x="872.159375" y="352.1744" style="stroke: #000000"/>
      </g>
     </g>
    </g>
    <g id="ytick_13">
     <g id="line2d_77">
      <g>
       <use xlink:href="#m84eb0d9610" x="90.959375" y="334.4336" style="stroke: #000000"/>
      </g>
     </g>
     <g id="line2d_78">
      <g>
       <use xlink:href="#m559a8ea8f8" x="872.159375" y="334.4336" style="stroke: #000000"/>
      </g>
     </g>
    </g>
    <g id="ytick_14">
     <g id="line2d_79">
      <g>
       <use xlink:href="#m84eb0d9610" x="90.959375" y="316.6928" style="stroke: #000000"/>
      </g>
     </g>
     <g id="line2d_80">
      <g>
       <use xlink:href="#m559a8ea8f8" x="872.159375" y="316.6928" style="stroke: #000000"/>
      </g>
     </g>
    </g>
    <g id="ytick_15">
     <g id="line2d_81">
      <g>
       <use xlink:href="#m84eb0d9610" x="90.959375" y="281.2112" style="stroke: #000000"/>
      </g>
     </g>
     <g id="line2d_82">
      <g>
       <use xlink:href="#m559a8ea8f8" x="872.159375" y="281.2112" style="stroke: #000000"/>
      </g>
     </g>
    </g>
    <g id="ytick_16">
     <g id="line2d_83">
      <g>
       <use xlink:href="#m84eb0d9610" x="90.959375" y="263.4704" style="stroke: #000000"/>
      </g>
     </g>
     <g id="line2d_84">
      <g>
       <use xlink:href="#m559a8ea8f8" x="872.159375" y="263.4704" style="stroke: #000000"/>
      </g>
     </g>
    </g>
    <g id="ytick_17">
     <g id="line2d_85">
      <g>
       <use xlink:href="#m84eb0d9610" x="90.959375" y="245.7296" style="stroke: #000000"/>
      </g>
     </g>
     <g id="line2d_86">
      <g>
       <use xlink:href="#m559a8ea8f8" x="872.159375" y="245.7296" style="stroke: #000000"/>
      </g>
     </g>
    </g>
    <g id="ytick_18">
     <g id="line2d_87">
      <g>
       <use xlink:href="#m84eb0d9610" x="90.959375" y="227.9888" style="stroke: #000000"/>
      </g>
     </g>
     <g id="line2d_88">
      <g>
       <use xlink:href="#m559a8ea8f8" x="872.159375" y="227.9888" style="stroke: #000000"/>
      </g>
     </g>
    </g>
    <g id="ytick_19">
     <g id="line2d_89">
      <g>
       <use xlink:href="#m84eb0d9610" x="90.959375" y="192.5072" style="stroke: #000000"/>
      </g>
     </g>
     <g id="line2d_90">
      <g>
       <use xlink:href="#m559a8ea8f8" x="872.159375" y="192.5072" style="stroke: #000000"/>
      </g>
     </g>
    </g>
    <g id="ytick_20">
     <g id="line2d_91">
      <g>
       <use xlink:href="#m84eb0d9610" x="90.959375" y="174.7664" style="stroke: #000000"/>
      </g>
     </g>
     <g id="line2d_92">
      <g>
       <use xlink:href="#m559a8ea8f8" x="872.159375" y="174.7664" style="stroke: #000000"/>
      </g>
     </g>
    </g>
    <g id="ytick_21">
     <g id="line2d_93">
      <g>
       <use xlink:href="#m84eb0d9610" x="90.959375" y="157.0256" style="stroke: #000000"/>
      </g>
     </g>
     <g id="line2d_94">
      <g>
       <use xlink:href="#m559a8ea8f8" x="872.159375" y="157.0256" style="stroke: #000000"/>
      </g>
     </g>
    </g>
    <g id="ytick_22">
     <g id="line2d_95">
      <g>
       <use xlink:href="#m84eb0d9610" x="90.959375" y="139.2848" style="stroke: #000000"/>
      </g>
     </g>
     <g id="line2d_96">
      <g>
       <use xlink:href="#m559a8ea8f8" x="872.159375" y="139.2848" style="stroke: #000000"/>
      </g>
     </g>
    </g>
    <g id="ytick_23">
     <g id="line2d_97">
      <g>
       <use xlink:href="#m84eb0d9610" x="90.959375" y="103.8032" style="stroke: #000000"/>
      </g>
     </g>
     <g id="line2d_98">
      <g>
       <use xlink:href="#m559a8ea8f8" x="872.159375" y="103.8032" style="stroke: #000000"/>
      </g>
     </g>
    </g>
    <g id="ytick_24">
     <g id="line2d_99">
      <g>
       <use xlink:href="#m84eb0d9610" x="90.959375" y="86.0624" style="stroke: #000000"/>
      </g>
     </g>
     <g id="line2d_100">
      <g>
       <use xlink:href="#m559a8ea8f8" x="872.159375" y="86.0624" style="stroke: #000000"/>
      </g>
     </g>
    </g>
    <g id="ytick_25">
     <g id="line2d_101">
      <g>
       <use xlink:href="#m84eb0d9610" x="90.959375" y="68.3216" style="stroke: #000000"/>
      </g>
     </g>
     <g id="line2d_102">
      <g>
       <use xlink:href="#m559a8ea8f8" x="872.159375" y="68.3216" style="stroke: #000000"/>
      </g>
     </g>
    </g>
    <g id="ytick_26">
     <g id="line2d_103">
      <g>
       <use xlink:href="#m84eb0d9610" x="90.959375" y="50.5808" style="stroke: #000000"/>
      </g>
     </g>
     <g id="line2d_104">
      <g>
       <use xlink:href="#m559a8ea8f8" x="872.159375" y="50.5808" style="stroke: #000000"/>
      </g>
     </g>
    </g>
    <g id="text_14">
     <!-- Excitation probability -->
     <g transform="translate(22.596094 387.189844) rotate(-90) scale(0.25 -0.25)">
      <defs>
       <path id="DejaVuSans-45" d="M 628 4666 
L 3578 4666 
L 3578 4134 
L 1259 4134 
L 1259 2753 
L 3481 2753 
L 3481 2222 
L 1259 2222 
L 1259 531 
L 3634 531 
L 3634 0 
L 628 0 
L 628 4666 
z
" transform="scale(0.015625)"/>
       <path id="DejaVuSans-78" d="M 3513 3500 
L 2247 1797 
L 3578 0 
L 2900 0 
L 1881 1375 
L 863 0 
L 184 0 
L 1544 1831 
L 300 3500 
L 978 3500 
L 1906 2253 
L 2834 3500 
L 3513 3500 
z
" transform="scale(0.015625)"/>
       <path id="DejaVuSans-69" d="M 603 3500 
L 1178 3500 
L 1178 0 
L 603 0 
L 603 3500 
z
M 603 4863 
L 1178 4863 
L 1178 4134 
L 603 4134 
L 603 4863 
z
" transform="scale(0.015625)"/>
       <path id="DejaVuSans-74" d="M 1172 4494 
L 1172 3500 
L 2356 3500 
L 2356 3053 
L 1172 3053 
L 1172 1153 
Q 1172 725 1289 603 
Q 1406 481 1766 481 
L 2356 481 
L 2356 0 
L 1766 0 
Q 1100 0 847 248 
Q 594 497 594 1153 
L 594 3053 
L 172 3053 
L 172 3500 
L 594 3500 
L 594 4494 
L 1172 4494 
z
" transform="scale(0.015625)"/>
       <path id="DejaVuSans-61" d="M 2194 1759 
Q 1497 1759 1228 1600 
Q 959 1441 959 1056 
Q 959 750 1161 570 
Q 1363 391 1709 391 
Q 2188 391 2477 730 
Q 2766 1069 2766 1631 
L 2766 1759 
L 2194 1759 
z
M 3341 1997 
L 3341 0 
L 2766 0 
L 2766 531 
Q 2569 213 2275 61 
Q 1981 -91 1556 -91 
Q 1019 -91 701 211 
Q 384 513 384 1019 
Q 384 1609 779 1909 
Q 1175 2209 1959 2209 
L 2766 2209 
L 2766 2266 
Q 2766 2663 2505 2880 
Q 2244 3097 1772 3097 
Q 1472 3097 1187 3025 
Q 903 2953 641 2809 
L 641 3341 
Q 956 3463 1253 3523 
Q 1550 3584 1831 3584 
Q 2591 3584 2966 3190 
Q 3341 2797 3341 1997 
z
" transform="scale(0.015625)"/>
       <path id="DejaVuSans-6f" d="M 1959 3097 
Q 1497 3097 1228 2736 
Q 959 2375 959 1747 
Q 959 1119 1226 758 
Q 1494 397 1959 397 
Q 2419 397 2687 759 
Q 2956 1122 2956 1747 
Q 2956 2369 2687 2733 
Q 2419 3097 1959 3097 
z
M 1959 3584 
Q 2709 3584 3137 3096 
Q 3566 2609 3566 1747 
Q 3566 888 3137 398 
Q 2709 -91 1959 -91 
Q 1206 -91 779 398 
Q 353 888 353 1747 
Q 353 2609 779 3096 
Q 1206 3584 1959 3584 
z
" transform="scale(0.015625)"/>
       <path id="DejaVuSans-70" d="M 1159 525 
L 1159 -1331 
L 581 -1331 
L 581 3500 
L 1159 3500 
L 1159 2969 
Q 1341 3281 1617 3432 
Q 1894 3584 2278 3584 
Q 2916 3584 3314 3078 
Q 3713 2572 3713 1747 
Q 3713 922 3314 415 
Q 2916 -91 2278 -91 
Q 1894 -91 1617 61 
Q 1341 213 1159 525 
z
M 3116 1747 
Q 3116 2381 2855 2742 
Q 2594 3103 2138 3103 
Q 1681 3103 1420 2742 
Q 1159 2381 1159 1747 
Q 1159 1113 1420 752 
Q 1681 391 2138 391 
Q 2594 391 2855 752 
Q 3116 1113 3116 1747 
z
" transform="scale(0.015625)"/>
       <path id="DejaVuSans-62" d="M 3116 1747 
Q 3116 2381 2855 2742 
Q 2594 3103 2138 3103 
Q 1681 3103 1420 2742 
Q 1159 2381 1159 1747 
Q 1159 1113 1420 752 
Q 1681 391 2138 391 
Q 2594 391 2855 752 
Q 3116 1113 3116 1747 
z
M 1159 2969 
Q 1341 3281 1617 3432 
Q 1894 3584 2278 3584 
Q 2916 3584 3314 3078 
Q 3713 2572 3713 1747 
Q 3713 922 3314 415 
Q 2916 -91 2278 -91 
Q 1894 -91 1617 61 
Q 1341 213 1159 525 
L 1159 0 
L 581 0 
L 581 4863 
L 1159 4863 
L 1159 2969 
z
" transform="scale(0.015625)"/>
       <path id="DejaVuSans-6c" d="M 603 4863 
L 1178 4863 
L 1178 0 
L 603 0 
L 603 4863 
z
" transform="scale(0.015625)"/>
      </defs>
      <use xlink:href="#DejaVuSans-45"/>
      <use xlink:href="#DejaVuSans-78" transform="translate(63.183594 0)"/>
      <use xlink:href="#DejaVuSans-63" transform="translate(120.613281 0)"/>
      <use xlink:href="#DejaVuSans-69" transform="translate(175.59375 0)"/>
      <use xlink:href="#DejaVuSans-74" transform="translate(203.376953 0)"/>
      <use xlink:href="#DejaVuSans-61" transform="translate(242.585938 0)"/>
      <use xlink:href="#DejaVuSans-74" transform="translate(303.865234 0)"/>
      <use xlink:href="#DejaVuSans-69" transform="translate(343.074219 0)"/>
      <use xlink:href="#DejaVuSans-6f" transform="translate(370.857422 0)"/>
      <use xlink:href="#DejaVuSans-6e" transform="translate(432.039062 0)"/>
      <use xlink:href="#DejaVuSans-20" transform="translate(495.417969 0)"/>
      <use xlink:href="#DejaVuSans-70" transform="translate(527.205078 0)"/>
      <use xlink:href="#DejaVuSans-72" transform="translate(590.681641 0)"/>
      <use xlink:href="#DejaVuSans-6f" transform="translate(629.544922 0)"/>
      <use xlink:href="#DejaVuSans-62" transform="translate(690.726562 0)"/>
      <use xlink:href="#DejaVuSans-61" transform="translate(754.203125 0)"/>
      <use xlink:href="#DejaVuSans-62" transform="translate(815.482422 0)"/>
      <use xlink:href="#DejaVuSans-69" transform="translate(878.958984 0)"/>
      <use xlink:href="#DejaVuSans-6c" transform="translate(906.742188 0)"/>
      <use xlink:href="#DejaVuSans-69" transform="translate(934.525391 0)"/>
      <use xlink:href="#DejaVuSans-74" transform="translate(962.308594 0)"/>
      <use xlink:href="#DejaVuSans-79" transform="translate(1001.517578 0)"/>
     </g>
    </g>
   </g>
   <g id="line2d_105">
    <path d="M 90.959375 468.321452 
L 92.523339 471.694107 
L 94.087303 476.163083 
L 95.651267 476.220416 
L 97.215231 475.928691 
L 98.779195 468.767321 
L 100.343159 475.437449 
L 101.907123 473.850027 
L 103.471087 476.175595 
L 105.035051 476.136201 
L 106.599015 475.120038 
L 108.162979 476.021567 
L 109.726943 476.073923 
L 111.290907 471.163169 
L 112.85487 476.1692 
L 115.982798 476.113664 
L 117.546762 475.364371 
L 119.110726 476.119339 
L 122.238654 476.120996 
L 123.802618 476.156149 
L 125.366582 475.648743 
L 126.930546 476.064448 
L 128.49451 476.02694 
L 130.058474 463.862915 
L 131.622438 475.46715 
L 133.186402 476.109481 
L 136.31433 476.115838 
L 139.442258 475.908084 
L 141.006222 476.024666 
L 142.570186 471.04405 
L 144.13415 475.668176 
L 145.698114 476.040276 
L 147.262078 468.911308 
L 148.826042 475.434357 
L 150.390006 476.093084 
L 151.95397 475.810682 
L 153.517934 475.96388 
L 155.081898 473.493388 
L 156.645861 476.041511 
L 158.209825 473.743211 
L 159.773789 475.737638 
L 161.337753 473.17347 
L 162.901717 470.380129 
L 164.465681 475.405834 
L 166.029645 475.786287 
L 167.593609 475.198277 
L 169.157573 471.309405 
L 170.721537 458.275577 
L 172.285501 475.884709 
L 175.413429 475.940085 
L 176.977393 470.870689 
L 178.541357 476.032771 
L 181.669285 475.803683 
L 183.233249 475.309532 
L 184.797213 475.116899 
L 186.361177 475.353673 
L 187.925141 475.431547 
L 189.489105 475.978513 
L 191.053069 462.770508 
L 192.617033 475.847978 
L 195.744961 475.671891 
L 197.308925 475.95792 
L 198.872889 475.891778 
L 200.436852 475.992311 
L 202.000816 473.910721 
L 203.56478 475.929312 
L 205.128744 475.939403 
L 206.692708 475.833853 
L 212.948564 475.931881 
L 214.512528 475.897312 
L 216.076492 461.665986 
L 217.640456 475.771671 
L 219.20442 475.498341 
L 220.768384 475.85174 
L 225.460276 475.832041 
L 227.02424 473.887137 
L 228.588204 475.674125 
L 230.152168 475.885575 
L 231.716132 449.109194 
L 233.280096 475.772472 
L 234.84406 475.303968 
L 236.408024 475.794391 
L 237.971988 475.80188 
L 239.535952 465.598725 
L 241.099916 465.981442 
L 242.66388 475.746274 
L 244.227843 465.296872 
L 245.791807 475.763611 
L 247.355771 475.856332 
L 248.919735 475.808296 
L 250.483699 475.442565 
L 252.047663 475.517846 
L 253.611627 452.82484 
L 255.175591 475.505715 
L 256.739555 474.687789 
L 258.303519 475.686703 
L 259.867483 475.798068 
L 261.431447 475.73096 
L 262.995411 473.064943 
L 264.559375 475.368677 
L 266.123339 475.503257 
L 267.687303 474.793086 
L 269.251267 473.265014 
L 270.815231 445.851352 
L 272.379195 475.685129 
L 273.943159 470.225633 
L 275.507123 475.681328 
L 277.071087 474.715357 
L 278.635051 475.423768 
L 280.199015 475.674736 
L 281.762979 475.680352 
L 283.326943 465.406386 
L 284.890907 472.604091 
L 286.45487 475.303577 
L 288.018834 475.342304 
L 289.582798 474.48797 
L 291.146762 471.455612 
L 292.710726 471.40182 
L 294.27469 475.439741 
L 295.838654 475.431433 
L 297.402618 468.355625 
L 298.966582 475.578455 
L 300.530546 473.563326 
L 302.09451 475.442755 
L 303.658474 468.092887 
L 305.222438 475.50035 
L 306.786402 473.353301 
L 308.350366 475.47957 
L 309.91433 451.733104 
L 311.478294 475.117989 
L 313.042258 474.459454 
L 314.606222 475.208805 
L 316.170186 474.482726 
L 317.73415 475.192806 
L 319.298114 474.398721 
L 320.862078 475.153517 
L 322.426042 437.050249 
L 323.990006 475.195652 
L 325.55397 473.87963 
L 327.117934 474.245598 
L 328.681898 475.295509 
L 330.245861 449.579438 
L 331.809825 474.109145 
L 333.373789 474.644143 
L 334.937753 472.134212 
L 336.501717 471.45019 
L 338.065681 474.955383 
L 339.629645 467.017042 
L 341.193609 474.600811 
L 344.321537 475.262883 
L 345.885501 438.468666 
L 347.449465 475.221174 
L 349.013429 473.487066 
L 350.577393 474.717272 
L 352.141357 470.310003 
L 353.705321 474.274399 
L 355.269285 473.526315 
L 356.833249 473.480292 
L 358.397213 475.033474 
L 359.961177 473.595021 
L 361.525141 475.077257 
L 363.089105 452.262475 
L 364.653069 475.11909 
L 366.217033 475.035197 
L 367.780997 444.917054 
L 369.344961 474.646937 
L 370.908925 474.06805 
L 372.472889 474.748127 
L 374.036852 437.687853 
L 375.600816 475.025145 
L 377.16478 474.150204 
L 378.728744 474.265228 
L 380.292708 474.906187 
L 381.856672 474.392086 
L 383.420636 474.847919 
L 384.9846 474.534498 
L 386.548564 474.934257 
L 388.112528 474.984583 
L 389.676492 439.205653 
L 391.240456 470.241715 
L 392.80442 466.250845 
L 394.368384 432.34941 
L 395.932348 474.848114 
L 397.496312 455.346823 
L 399.060276 474.556099 
L 400.62424 472.599611 
L 402.188204 474.101628 
L 403.752168 456.855309 
L 405.316132 474.161215 
L 406.880096 472.763619 
L 408.44406 469.91725 
L 410.008024 472.828549 
L 411.571988 473.638072 
L 413.135952 473.3514 
L 414.699916 467.48897 
L 416.26388 474.387831 
L 417.827843 473.837898 
L 419.391807 469.357754 
L 420.955771 449.995628 
L 422.519735 423.78073 
L 424.083699 471.30307 
L 425.647663 472.985079 
L 427.211627 472.517871 
L 428.775591 473.784609 
L 430.339555 473.616349 
L 431.903519 427.006323 
L 433.467483 420.443345 
L 435.031447 471.08679 
L 436.595411 424.79586 
L 438.159375 474.337736 
L 439.723339 465.456011 
L 441.287303 473.279435 
L 442.851267 472.306076 
L 444.415231 474.088982 
L 445.979195 472.097422 
L 447.543159 466.205843 
L 449.107123 473.957842 
L 450.671087 473.413733 
L 452.235051 473.032611 
L 453.799015 473.111129 
L 455.362979 474.131387 
L 456.926943 473.759394 
L 460.05487 450.371722 
L 461.618834 425.77196 
L 463.182798 455.301555 
L 464.746762 474.026547 
L 466.310726 473.695255 
L 467.87469 445.589376 
L 469.438654 473.636087 
L 471.002618 461.403994 
L 472.566582 464.374762 
L 474.130546 466.88687 
L 475.69451 471.481005 
L 477.258474 417.723365 
L 478.822438 431.23613 
L 480.386402 450.810551 
L 481.950366 461.588148 
L 483.51433 469.431889 
L 485.078294 461.069734 
L 486.642258 448.99073 
L 488.206222 473.210952 
L 489.770186 464.620955 
L 491.33415 473.08818 
L 492.898114 463.234472 
L 494.462078 472.359139 
L 496.026042 471.187581 
L 497.590006 458.849738 
L 499.15397 415.244387 
L 500.717934 472.685841 
L 502.281898 469.848741 
L 503.845861 473.223028 
L 505.409825 473.130788 
L 506.973789 412.849074 
L 508.537753 461.29882 
L 510.101717 469.471426 
L 511.665681 462.457693 
L 513.229645 467.054806 
L 514.793609 443.799834 
L 516.357573 470.672242 
L 517.921537 472.353089 
L 519.485501 426.472668 
L 521.049465 472.382661 
L 522.613429 467.109372 
L 524.177393 460.318655 
L 525.741357 472.278427 
L 527.305321 472.51443 
L 528.869285 444.373695 
L 530.433249 453.954922 
L 531.997213 458.448928 
L 533.561177 441.688425 
L 535.125141 470.078582 
L 536.689105 462.630928 
L 538.253069 469.929107 
L 539.817033 408.347449 
L 541.380997 470.788639 
L 542.944961 468.544566 
L 544.508925 423.109855 
L 546.072889 471.13946 
L 547.636852 471.022978 
L 549.200816 463.844026 
L 550.76478 467.425696 
L 552.328744 464.865271 
L 553.892708 466.655751 
L 555.456672 471.332925 
L 557.020636 423.042477 
L 558.5846 461.645328 
L 560.148564 427.166253 
L 561.712528 408.567296 
L 563.276492 469.368284 
L 564.840456 470.989062 
L 566.40442 467.731169 
L 567.968384 408.566459 
L 569.532348 461.932341 
L 571.096312 470.157304 
L 572.660276 470.763656 
L 574.22424 471.062409 
L 575.788204 468.833349 
L 577.352168 408.319327 
L 578.916132 466.879564 
L 580.480096 407.956799 
L 582.04406 460.198258 
L 583.608024 469.683249 
L 586.735952 407.553618 
L 588.299916 470.732329 
L 589.86388 470.391357 
L 591.427843 470.239819 
L 592.991807 469.912184 
L 594.555771 466.200893 
L 596.119735 438.177003 
L 597.683699 469.787907 
L 599.247663 462.789905 
L 600.811627 434.822061 
L 602.375591 426.442292 
L 603.939555 468.595455 
L 605.503519 468.53156 
L 607.067483 455.960763 
L 608.631447 453.473501 
L 610.195411 469.753921 
L 611.759375 465.77361 
L 613.323339 463.160018 
L 614.887303 410.67046 
L 616.451267 466.909667 
L 618.015231 463.541213 
L 619.579195 468.068889 
L 621.143159 466.221012 
L 622.707123 443.322808 
L 624.271087 464.662322 
L 625.835051 436.279125 
L 627.399015 414.173866 
L 628.962979 468.552033 
L 630.526943 444.928339 
L 632.090907 465.880306 
L 633.65487 458.246045 
L 635.218834 463.33978 
L 636.782798 467.595583 
L 638.346762 467.755992 
L 639.910726 468.568368 
L 641.47469 464.247258 
L 643.038654 467.365329 
L 644.602618 467.065379 
L 646.166582 424.313167 
L 647.730546 468.478724 
L 649.29451 456.922807 
L 650.858474 468.644782 
L 652.422438 413.851761 
L 653.986402 453.237814 
L 655.550366 468.053447 
L 657.11433 462.231715 
L 658.678294 465.799689 
L 660.242258 458.837669 
L 661.806222 460.612766 
L 663.370186 466.96936 
L 664.93415 465.327382 
L 666.498114 437.801991 
L 668.062078 420.939753 
L 669.626042 441.143278 
L 671.190006 446.489542 
L 672.75397 422.91051 
L 674.317934 458.118035 
L 675.881898 458.854693 
L 677.445861 466.017848 
L 679.009825 465.785177 
L 680.573789 467.541826 
L 682.137753 467.735267 
L 683.701717 467.31819 
L 685.265681 467.146712 
L 686.829645 463.256015 
L 688.393609 452.409897 
L 689.957573 433.438479 
L 691.521537 458.845459 
L 693.085501 434.002397 
L 694.649465 431.417361 
L 696.213429 466.428794 
L 697.777393 448.403558 
L 699.341357 468.598462 
L 700.905321 461.885275 
L 702.469285 468.536459 
L 704.033249 467.582449 
L 705.597213 468.41745 
L 707.161177 467.483281 
L 708.725141 445.637451 
L 710.289105 460.528343 
L 711.853069 444.820222 
L 713.417033 445.413642 
L 714.980997 460.28683 
L 716.544961 468.13316 
L 718.108925 469.739084 
L 719.672889 449.824075 
L 721.236852 469.160984 
L 722.800816 470.16142 
L 724.36478 466.483623 
L 725.928744 460.336651 
L 727.492708 469.713484 
L 729.056672 460.908506 
L 730.620636 470.106697 
L 732.1846 467.132019 
L 733.748564 464.444775 
L 735.312528 466.514474 
L 736.876492 461.930686 
L 738.440456 465.51014 
L 740.00442 472.214893 
L 741.568384 472.210313 
L 743.132348 472.973083 
L 746.260276 473.017907 
L 747.82424 473.236599 
L 749.388204 471.45767 
L 750.952168 472.759433 
L 752.516132 471.773771 
L 754.080096 472.221409 
L 755.64406 472.291166 
L 757.208024 473.249547 
L 758.771988 473.998267 
L 760.335952 474.956325 
L 761.899916 474.282197 
L 763.46388 474.983297 
L 765.027843 475.141609 
L 771.283699 475.267101 
L 774.411627 475.4665 
L 775.975591 475.439032 
L 779.103519 475.806612 
L 783.795411 475.858812 
L 785.359375 475.9588 
L 788.487303 475.963599 
L 794.743159 476.0122 
L 807.25487 476.088038 
L 819.766582 476.131324 
L 858.865681 475.874822 
L 866.685501 475.468453 
L 868.249465 472.762371 
L 869.813429 475.446175 
L 871.377393 475.558265 
L 872.941357 473.2047 
L 874.505321 475.71592 
L 879.197213 475.933954 
L 891.708925 476.121816 
L 901.092708 476.189926 
L 904.591406 476.200074 
L 904.591406 476.200074 
" clip-path="url(#p42083f6c88)" style="fill: none; stroke: #0000ff; stroke-width: 3; stroke-linecap: square"/>
   </g>
   <g id="line2d_106">
    <path d="M 90.959375 476.055219 
L 92.523339 475.879452 
L 94.087303 475.368443 
L 95.651267 472.903901 
L 97.215231 464.173802 
L 98.779195 474.064905 
L 100.343159 475.564343 
L 101.907123 475.933174 
L 105.035051 476.130292 
L 111.290907 476.130377 
L 114.418834 475.965818 
L 115.982798 475.709163 
L 117.546762 474.924295 
L 119.110726 470.681186 
L 120.67469 465.197393 
L 122.238654 474.168048 
L 123.802618 475.515556 
L 125.366582 475.883306 
L 128.49451 476.091803 
L 133.186402 476.11223 
L 136.31433 475.999834 
L 137.878294 475.845505 
L 139.442258 475.474317 
L 141.006222 474.251253 
L 142.570186 466.969802 
L 144.13415 466.881722 
L 145.698114 474.231935 
L 147.262078 475.461148 
L 148.826042 475.829609 
L 151.95397 476.046423 
L 156.645861 476.05792 
L 159.773789 475.903346 
L 161.337753 475.687598 
L 162.901717 475.145492 
L 164.465681 473.20554 
L 166.029645 461.391172 
L 167.593609 468.378309 
L 169.157573 474.268364 
L 170.721537 475.401303 
L 172.285501 475.769687 
L 175.413429 475.995349 
L 180.105321 475.991693 
L 183.233249 475.780349 
L 184.797213 475.476431 
L 186.361177 474.676704 
L 187.925141 471.544472 
L 189.489105 455.232206 
L 191.053069 469.519825 
L 192.617033 474.28247 
L 194.180997 475.336169 
L 195.744961 475.704059 
L 198.872889 475.937092 
L 203.56478 475.910985 
L 206.692708 475.621144 
L 208.256672 475.191343 
L 209.820636 473.997358 
L 211.3846 468.846833 
L 212.948564 452.158925 
L 214.512528 470.353432 
L 216.076492 474.27848 
L 217.640456 475.265258 
L 219.20442 475.631978 
L 222.332348 475.869413 
L 225.460276 475.874481 
L 228.588204 475.680862 
L 230.152168 475.413262 
L 231.716132 474.800794 
L 233.280096 472.98865 
L 234.84406 464.430782 
L 236.408024 453.674524 
L 237.971988 470.956369 
L 239.535952 474.257715 
L 241.099916 475.187203 
L 242.66388 475.551989 
L 245.791807 475.790894 
L 248.919735 475.777017 
L 252.047663 475.509887 
L 253.611627 475.138304 
L 255.175591 474.255081 
L 256.739555 471.447691 
L 258.303519 457.485063 
L 259.867483 457.246811 
L 261.431447 471.389933 
L 262.995411 474.220158 
L 264.559375 475.100138 
L 266.123339 475.462186 
L 269.251267 475.699065 
L 272.379195 475.65804 
L 273.943159 475.536278 
L 275.507123 475.289233 
L 277.071087 474.768717 
L 278.635051 473.475065 
L 280.199015 469.022892 
L 281.762979 448.227515 
L 283.326943 460.661725 
L 284.890907 471.698186 
L 286.45487 474.165533 
L 288.018834 475.002118 
L 289.582798 475.360417 
L 292.710726 475.590808 
L 295.838654 475.511457 
L 297.402618 475.342333 
L 298.966582 475.000744 
L 300.530546 474.263071 
L 302.09451 472.331812 
L 303.658474 465.110079 
L 305.222438 440.385924 
L 306.786402 463.300749 
L 308.350366 471.912361 
L 309.91433 474.093687 
L 311.478294 474.891257 
L 313.042258 475.244359 
L 316.170186 475.462272 
L 319.298114 475.329192 
L 320.862078 475.09422 
L 322.426042 474.618049 
L 323.990006 473.557366 
L 325.55397 470.608686 
L 327.117934 458.753017 
L 328.681898 439.218749 
L 330.245861 465.222688 
L 331.809825 472.054169 
L 333.373789 474.004297 
L 334.937753 474.765526 
L 336.501717 475.111278 
L 338.065681 475.266597 
L 341.193609 475.258028 
L 342.757573 475.100218 
L 344.321537 474.772696 
L 345.885501 474.101732 
L 347.449465 472.549272 
L 349.013429 467.931275 
L 350.577393 448.914247 
L 352.141357 443.891104 
L 353.705321 466.609257 
L 355.269285 472.138239 
L 356.833249 473.896504 
L 358.397213 474.622436 
L 359.961177 474.957755 
L 361.525141 475.101803 
L 364.653069 475.035169 
L 366.217033 474.809062 
L 367.780997 474.349621 
L 369.344961 473.390982 
L 370.908925 471.069282 
L 372.472889 463.646394 
L 374.036852 436.362468 
L 375.600816 449.916579 
L 377.16478 467.614905 
L 378.728744 472.174136 
L 380.292708 473.768729 
L 381.856672 474.458782 
L 383.420636 474.779362 
L 384.9846 474.90595 
L 386.548564 474.897386 
L 388.112528 474.756372 
L 389.676492 474.43343 
L 391.240456 473.782622 
L 392.80442 472.388749 
L 394.368384 468.826706 
L 395.932348 456.668679 
L 397.496312 427.081675 
L 399.060276 454.979446 
L 400.62424 468.348727 
L 402.188204 472.167766 
L 403.752168 473.618532 
L 405.316132 474.270367 
L 406.880096 474.570244 
L 408.44406 474.670796 
L 410.008024 474.619086 
L 411.571988 474.40259 
L 413.135952 473.940278 
L 414.699916 473.005775 
L 416.26388 470.934293 
L 417.827843 465.308486 
L 419.391807 445.604751 
L 420.955771 427.783945 
L 422.519735 458.741452 
L 424.083699 468.883996 
L 425.647663 472.122206 
L 427.211627 473.44239 
L 428.775591 474.051598 
L 430.339555 474.322497 
L 431.903519 474.384962 
L 433.467483 474.271081 
L 435.031447 473.945865 
L 436.595411 473.279027 
L 438.159375 471.912664 
L 439.723339 468.750691 
L 441.287303 459.605116 
L 442.851267 430.567258 
L 444.415231 435.59746 
L 445.979195 461.456417 
L 447.543159 469.269199 
L 449.107123 472.038114 
L 450.671087 473.235336 
L 452.235051 473.794879 
L 453.799015 474.025195 
L 455.362979 474.032322 
L 456.926943 473.828261 
L 458.490907 473.343805 
L 460.05487 472.369363 
L 461.618834 470.324273 
L 463.182798 465.342803 
L 464.746762 450.228825 
L 466.310726 418.021795 
L 467.87469 444.177219 
L 469.438654 463.419593 
L 471.002618 469.53604 
L 472.566582 471.913805 
L 474.130546 472.990389 
L 475.69451 473.489665 
L 477.258474 473.662847 
L 478.822438 473.589359 
L 480.386402 473.252732 
L 481.950366 472.529719 
L 483.51433 471.078297 
L 485.078294 467.925766 
L 486.642258 459.807016 
L 488.206222 435.640462 
L 489.770186 418.002816 
L 491.33415 450.961465 
L 492.898114 464.853003 
L 494.462078 469.704579 
L 496.026042 471.745011 
L 497.590006 472.697669 
L 499.15397 473.120966 
L 500.717934 473.212845 
L 502.281898 473.020622 
L 503.845861 472.485122 
L 505.409825 471.394133 
L 506.973789 469.175039 
L 508.537753 464.139373 
L 510.101717 450.566167 
L 511.665681 418.198316 
L 513.229645 428.246907 
L 514.793609 455.854753 
L 516.357573 465.907229 
L 517.921537 469.786315 
L 519.485501 471.524281 
L 521.049465 472.342983 
L 522.613429 472.666864 
L 524.177393 472.641088 
L 525.741357 472.270608 
L 527.305321 471.428296 
L 528.869285 469.748411 
L 530.433249 466.238533 
L 531.997213 457.880143 
L 533.561177 435.637827 
L 535.125141 410.031239 
L 536.689105 439.665292 
L 538.253069 459.331336 
L 539.817033 466.68142 
L 541.380997 469.785858 
L 542.944961 471.239888 
L 544.508925 471.905509 
L 546.072889 472.094292 
L 547.636852 471.894148 
L 549.200816 471.248522 
L 550.76478 469.915233 
L 552.328744 467.249615 
L 553.892708 461.466038 
L 555.456672 447.234152 
L 557.020636 416.664264 
L 558.5846 418.645057 
L 560.148564 448.477262 
L 561.712528 461.82629 
L 563.276492 467.240231 
L 564.840456 469.701634 
L 566.40442 470.874025 
L 567.968384 471.353942 
L 569.532348 471.351544 
L 571.096312 470.88463 
L 572.660276 469.798179 
L 574.22424 467.642328 
L 575.788204 463.2406 
L 577.352168 453.322333 
L 580.480096 407.670159 
L 582.04406 433.350985 
L 583.608024 454.661063 
L 585.171988 463.646867 
L 586.735952 467.62568 
L 588.299916 469.525962 
L 589.86388 470.399974 
L 591.427843 470.639878 
L 592.991807 470.354465 
L 594.555771 469.462343 
L 596.119735 467.635418 
L 597.683699 464.02582 
L 599.247663 456.429023 
L 600.811627 439.401098 
L 602.375591 411.875492 
L 603.939555 418.900005 
L 605.503519 445.440233 
L 607.067483 458.973883 
L 608.631447 464.999893 
L 610.195411 467.865798 
L 611.759375 469.245005 
L 613.323339 469.777813 
L 614.887303 469.686283 
L 616.451267 468.959985 
L 618.015231 467.355162 
L 619.579195 464.214155 
L 621.143159 457.908296 
L 622.707123 444.566 
L 624.271087 420.333933 
L 625.835051 412.198643 
L 627.399015 436.338924 
L 628.962979 453.802977 
L 630.526943 462.067195 
L 632.090907 466.031086 
L 633.65487 467.983302 
L 635.218834 468.840181 
L 636.782798 468.9489 
L 638.346762 468.367759 
L 639.910726 466.915061 
L 641.47469 464.0482 
L 643.038654 458.466292 
L 644.602618 447.27136 
L 646.166582 427.145327 
L 647.730546 413.832524 
L 649.29451 431.053042 
L 650.858474 449.675834 
L 652.422438 459.525678 
L 653.986402 464.404497 
L 655.550366 466.861907 
L 657.11433 468.010148 
L 658.678294 468.296395 
L 660.242258 467.833418 
L 661.806222 466.482441 
L 663.370186 463.771351 
L 664.93415 458.601184 
L 666.498114 448.741701 
L 668.062078 432.20631 
L 669.626042 420.427203 
L 671.190006 432.231095 
L 672.75397 448.728965 
L 674.317934 458.545018 
L 675.881898 463.6736 
L 677.445861 466.338782 
L 679.009825 467.633185 
L 680.573789 468.022096 
L 682.137753 467.636512 
L 683.701717 466.358688 
L 685.265681 463.763521 
L 686.829645 458.915413 
L 688.393609 450.222 
L 689.957573 437.523126 
L 691.521537 430.863106 
L 693.085501 440.137477 
L 694.649465 452.424204 
L 696.213429 460.289393 
L 697.777393 464.656646 
L 699.341357 467.020997 
L 700.905321 468.204026 
L 702.469285 468.573855 
L 704.033249 468.229426 
L 705.597213 467.056883 
L 707.161177 464.690101 
L 708.725141 460.437134 
L 710.289105 453.636478 
L 711.853069 446.294386 
L 713.417033 445.796466 
L 716.544961 460.190078 
L 718.108925 464.926184 
L 719.672889 467.712634 
L 721.236852 469.29742 
L 722.800816 470.116307 
L 724.36478 470.368872 
L 725.928744 470.095501 
L 727.492708 469.202729 
L 729.056672 467.470657 
L 730.620636 464.695417 
L 732.1846 461.450694 
L 733.748564 460.1811 
L 735.312528 462.467105 
L 736.876492 466.021496 
L 738.440456 468.84903 
L 740.00442 470.709218 
L 741.568384 471.874997 
L 743.132348 472.586134 
L 744.696312 472.983054 
L 746.260276 473.130816 
L 747.82424 473.04221 
L 749.388204 472.701576 
L 752.516132 471.572712 
L 754.080096 471.521839 
L 755.64406 472.148089 
L 757.208024 473.012378 
L 758.771988 473.747159 
L 760.335952 474.278963 
L 763.46388 474.905524 
L 766.591807 475.208345 
L 772.847663 475.422607 
L 783.795411 475.862919 
L 797.871087 476.035077 
L 827.586402 476.13661 
L 851.045861 476.036244 
L 860.429645 475.803955 
L 866.685501 475.471466 
L 868.249465 472.669787 
L 869.813429 475.452807 
L 871.377393 475.557734 
L 872.941357 473.15446 
L 874.505321 475.711351 
L 879.197213 475.923657 
L 888.580997 476.10676 
L 904.591406 476.200735 
L 904.591406 476.200735 
" clip-path="url(#p42083f6c88)" style="fill: none; stroke: #ffa500; stroke-width: 3; stroke-linecap: square"/>
   </g>
   <g id="line2d_107">
    <path d="M 874.502975 476.36 
L 874.502975 32.84 
" clip-path="url(#p42083f6c88)" style="fill: none; stroke-dasharray: 11.1,4.8; stroke-dashoffset: 0; stroke: #000000; stroke-width: 3"/>
   </g>
   <g id="line2d_108">
    <path d="M 866.690975 476.36 
L 866.690975 32.84 
" clip-path="url(#p42083f6c88)" style="fill: none; stroke-dasharray: 11.1,4.8; stroke-dashoffset: 0; stroke: #000000; stroke-width: 3"/>
   </g>
   <g id="patch_53">
    <path d="M 90.959375 476.36 
L 90.959375 32.84 
" style="fill: none; stroke: #000000; stroke-linejoin: miter; stroke-linecap: square"/>
   </g>
   <g id="patch_54">
    <path d="M 872.159375 476.36 
L 872.159375 32.84 
" style="fill: none; stroke: #000000; stroke-linejoin: miter; stroke-linecap: square"/>
   </g>
   <g id="patch_55">
    <path d="M 90.959375 476.36 
L 872.159375 476.36 
" style="fill: none; stroke: #000000; stroke-linejoin: miter; stroke-linecap: square"/>
   </g>
   <g id="patch_56">
    <path d="M 90.959375 32.84 
L 872.159375 32.84 
" style="fill: none; stroke: #000000; stroke-linejoin: miter; stroke-linecap: square"/>
   </g>
   <g id="text_15">
    <!-- CaH$^+$ hyperfine spectrum at B=3.27 G -->
    <g transform="translate(208.139375 26.84) scale(0.28 -0.28)">
     <defs>
      <path id="DejaVuSans-43" d="M 4122 4306 
L 4122 3641 
Q 3803 3938 3442 4084 
Q 3081 4231 2675 4231 
Q 1875 4231 1450 3742 
Q 1025 3253 1025 2328 
Q 1025 1406 1450 917 
Q 1875 428 2675 428 
Q 3081 428 3442 575 
Q 3803 722 4122 1019 
L 4122 359 
Q 3791 134 3420 21 
Q 3050 -91 2638 -91 
Q 1578 -91 968 557 
Q 359 1206 359 2328 
Q 359 3453 968 4101 
Q 1578 4750 2638 4750 
Q 3056 4750 3426 4639 
Q 3797 4528 4122 4306 
z
" transform="scale(0.015625)"/>
      <path id="DejaVuSans-2b" d="M 2944 4013 
L 2944 2272 
L 4684 2272 
L 4684 1741 
L 2944 1741 
L 2944 0 
L 2419 0 
L 2419 1741 
L 678 1741 
L 678 2272 
L 2419 2272 
L 2419 4013 
L 2944 4013 
z
" transform="scale(0.015625)"/>
      <path id="DejaVuSans-68" d="M 3513 2113 
L 3513 0 
L 2938 0 
L 2938 2094 
Q 2938 2591 2744 2837 
Q 2550 3084 2163 3084 
Q 1697 3084 1428 2787 
Q 1159 2491 1159 1978 
L 1159 0 
L 581 0 
L 581 4863 
L 1159 4863 
L 1159 2956 
Q 1366 3272 1645 3428 
Q 1925 3584 2291 3584 
Q 2894 3584 3203 3211 
Q 3513 2838 3513 2113 
z
" transform="scale(0.015625)"/>
      <path id="DejaVuSans-66" d="M 2375 4863 
L 2375 4384 
L 1825 4384 
Q 1516 4384 1395 4259 
Q 1275 4134 1275 3809 
L 1275 3500 
L 2222 3500 
L 2222 3053 
L 1275 3053 
L 1275 0 
L 697 0 
L 697 3053 
L 147 3053 
L 147 3500 
L 697 3500 
L 697 3744 
Q 697 4328 969 4595 
Q 1241 4863 1831 4863 
L 2375 4863 
z
" transform="scale(0.015625)"/>
      <path id="DejaVuSans-73" d="M 2834 3397 
L 2834 2853 
Q 2591 2978 2328 3040 
Q 2066 3103 1784 3103 
Q 1356 3103 1142 2972 
Q 928 2841 928 2578 
Q 928 2378 1081 2264 
Q 1234 2150 1697 2047 
L 1894 2003 
Q 2506 1872 2764 1633 
Q 3022 1394 3022 966 
Q 3022 478 2636 193 
Q 2250 -91 1575 -91 
Q 1294 -91 989 -36 
Q 684 19 347 128 
L 347 722 
Q 666 556 975 473 
Q 1284 391 1588 391 
Q 1994 391 2212 530 
Q 2431 669 2431 922 
Q 2431 1156 2273 1281 
Q 2116 1406 1581 1522 
L 1381 1569 
Q 847 1681 609 1914 
Q 372 2147 372 2553 
Q 372 3047 722 3315 
Q 1072 3584 1716 3584 
Q 2034 3584 2315 3537 
Q 2597 3491 2834 3397 
z
" transform="scale(0.015625)"/>
      <path id="DejaVuSans-6d" d="M 3328 2828 
Q 3544 3216 3844 3400 
Q 4144 3584 4550 3584 
Q 5097 3584 5394 3201 
Q 5691 2819 5691 2113 
L 5691 0 
L 5113 0 
L 5113 2094 
Q 5113 2597 4934 2840 
Q 4756 3084 4391 3084 
Q 3944 3084 3684 2787 
Q 3425 2491 3425 1978 
L 3425 0 
L 2847 0 
L 2847 2094 
Q 2847 2600 2669 2842 
Q 2491 3084 2119 3084 
Q 1678 3084 1418 2786 
Q 1159 2488 1159 1978 
L 1159 0 
L 581 0 
L 581 3500 
L 1159 3500 
L 1159 2956 
Q 1356 3278 1631 3431 
Q 1906 3584 2284 3584 
Q 2666 3584 2933 3390 
Q 3200 3197 3328 2828 
z
" transform="scale(0.015625)"/>
      <path id="DejaVuSans-42" d="M 1259 2228 
L 1259 519 
L 2272 519 
Q 2781 519 3026 730 
Q 3272 941 3272 1375 
Q 3272 1813 3026 2020 
Q 2781 2228 2272 2228 
L 1259 2228 
z
M 1259 4147 
L 1259 2741 
L 2194 2741 
Q 2656 2741 2882 2914 
Q 3109 3088 3109 3444 
Q 3109 3797 2882 3972 
Q 2656 4147 2194 4147 
L 1259 4147 
z
M 628 4666 
L 2241 4666 
Q 2963 4666 3353 4366 
Q 3744 4066 3744 3513 
Q 3744 3084 3544 2831 
Q 3344 2578 2956 2516 
Q 3422 2416 3680 2098 
Q 3938 1781 3938 1306 
Q 3938 681 3513 340 
Q 3088 0 2303 0 
L 628 0 
L 628 4666 
z
" transform="scale(0.015625)"/>
      <path id="DejaVuSans-3d" d="M 678 2906 
L 4684 2906 
L 4684 2381 
L 678 2381 
L 678 2906 
z
M 678 1631 
L 4684 1631 
L 4684 1100 
L 678 1100 
L 678 1631 
z
" transform="scale(0.015625)"/>
      <path id="DejaVuSans-37" d="M 525 4666 
L 3525 4666 
L 3525 4397 
L 1831 0 
L 1172 0 
L 2766 4134 
L 525 4134 
L 525 4666 
z
" transform="scale(0.015625)"/>
      <path id="DejaVuSans-47" d="M 3809 666 
L 3809 1919 
L 2778 1919 
L 2778 2438 
L 4434 2438 
L 4434 434 
Q 4069 175 3628 42 
Q 3188 -91 2688 -91 
Q 1594 -91 976 548 
Q 359 1188 359 2328 
Q 359 3472 976 4111 
Q 1594 4750 2688 4750 
Q 3144 4750 3555 4637 
Q 3966 4525 4313 4306 
L 4313 3634 
Q 3963 3931 3569 4081 
Q 3175 4231 2741 4231 
Q 1884 4231 1454 3753 
Q 1025 3275 1025 2328 
Q 1025 1384 1454 906 
Q 1884 428 2741 428 
Q 3075 428 3337 486 
Q 3600 544 3809 666 
z
" transform="scale(0.015625)"/>
     </defs>
     <use xlink:href="#DejaVuSans-43" transform="translate(0 0.826562)"/>
     <use xlink:href="#DejaVuSans-61" transform="translate(69.824219 0.826562)"/>
     <use xlink:href="#DejaVuSans-48" transform="translate(131.103516 0.826562)"/>
     <use xlink:href="#DejaVuSans-2b" transform="translate(220.893555 39.107812) scale(0.7)"/>
     <use xlink:href="#DejaVuSans-20" transform="translate(295.917969 0.826562)"/>
     <use xlink:href="#DejaVuSans-68" transform="translate(327.705078 0.826562)"/>
     <use xlink:href="#DejaVuSans-79" transform="translate(391.083984 0.826562)"/>
     <use xlink:href="#DejaVuSans-70" transform="translate(450.263672 0.826562)"/>
     <use xlink:href="#DejaVuSans-65" transform="translate(513.740234 0.826562)"/>
     <use xlink:href="#DejaVuSans-72" transform="translate(575.263672 0.826562)"/>
     <use xlink:href="#DejaVuSans-66" transform="translate(616.376953 0.826562)"/>
     <use xlink:href="#DejaVuSans-69" transform="translate(651.582031 0.826562)"/>
     <use xlink:href="#DejaVuSans-6e" transform="translate(679.365234 0.826562)"/>
     <use xlink:href="#DejaVuSans-65" transform="translate(742.744141 0.826562)"/>
     <use xlink:href="#DejaVuSans-20" transform="translate(804.267578 0.826562)"/>
     <use xlink:href="#DejaVuSans-73" transform="translate(836.054688 0.826562)"/>
     <use xlink:href="#DejaVuSans-70" transform="translate(888.154297 0.826562)"/>
     <use xlink:href="#DejaVuSans-65" transform="translate(951.630859 0.826562)"/>
     <use xlink:href="#DejaVuSans-63" transform="translate(1013.154297 0.826562)"/>
     <use xlink:href="#DejaVuSans-74" transform="translate(1068.134766 0.826562)"/>
     <use xlink:href="#DejaVuSans-72" transform="translate(1107.34375 0.826562)"/>
     <use xlink:href="#DejaVuSans-75" transform="translate(1148.457031 0.826562)"/>
     <use xlink:href="#DejaVuSans-6d" transform="translate(1211.835938 0.826562)"/>
     <use xlink:href="#DejaVuSans-20" transform="translate(1309.248047 0.826562)"/>
     <use xlink:href="#DejaVuSans-61" transform="translate(1341.035156 0.826562)"/>
     <use xlink:href="#DejaVuSans-74" transform="translate(1402.314453 0.826562)"/>
     <use xlink:href="#DejaVuSans-20" transform="translate(1441.523438 0.826562)"/>
     <use xlink:href="#DejaVuSans-42" transform="translate(1473.310547 0.826562)"/>
     <use xlink:href="#DejaVuSans-3d" transform="translate(1541.914062 0.826562)"/>
     <use xlink:href="#DejaVuSans-33" transform="translate(1625.703125 0.826562)"/>
     <use xlink:href="#DejaVuSans-2e" transform="translate(1689.326172 0.826562)"/>
     <use xlink:href="#DejaVuSans-32" transform="translate(1715.613281 0.826562)"/>
     <use xlink:href="#DejaVuSans-37" transform="translate(1779.236328 0.826562)"/>
     <use xlink:href="#DejaVuSans-20" transform="translate(1842.859375 0.826562)"/>
     <use xlink:href="#DejaVuSans-47" transform="translate(1874.646484 0.826562)"/>
    </g>
   </g>
   <g id="legend_1">
    <g id="line2d_109">
     <path d="M 113.459375 65.586094 
L 138.459375 65.586094 
L 163.459375 65.586094 
" style="fill: none; stroke: #0000ff; stroke-width: 3; stroke-linecap: square"/>
    </g>
    <g id="text_16">
     <!-- w/ imperfections -->
     <g transform="translate(183.459375 74.336094) scale(0.25 -0.25)">
      <defs>
       <path id="DejaVuSans-77" d="M 269 3500 
L 844 3500 
L 1563 769 
L 2278 3500 
L 2956 3500 
L 3675 769 
L 4391 3500 
L 4966 3500 
L 4050 0 
L 3372 0 
L 2619 2869 
L 1863 0 
L 1184 0 
L 269 3500 
z
" transform="scale(0.015625)"/>
       <path id="DejaVuSans-2f" d="M 1625 4666 
L 2156 4666 
L 531 -594 
L 0 -594 
L 1625 4666 
z
" transform="scale(0.015625)"/>
      </defs>
      <use xlink:href="#DejaVuSans-77"/>
      <use xlink:href="#DejaVuSans-2f" transform="translate(81.787109 0)"/>
      <use xlink:href="#DejaVuSans-20" transform="translate(115.478516 0)"/>
      <use xlink:href="#DejaVuSans-69" transform="translate(147.265625 0)"/>
      <use xlink:href="#DejaVuSans-6d" transform="translate(175.048828 0)"/>
      <use xlink:href="#DejaVuSans-70" transform="translate(272.460938 0)"/>
      <use xlink:href="#DejaVuSans-65" transform="translate(335.9375 0)"/>
      <use xlink:href="#DejaVuSans-72" transform="translate(397.460938 0)"/>
      <use xlink:href="#DejaVuSans-66" transform="translate(438.574219 0)"/>
      <use xlink:href="#DejaVuSans-65" transform="translate(473.779297 0)"/>
      <use xlink:href="#DejaVuSans-63" transform="translate(535.302734 0)"/>
      <use xlink:href="#DejaVuSans-74" transform="translate(590.283203 0)"/>
      <use xlink:href="#DejaVuSans-69" transform="translate(629.492188 0)"/>
      <use xlink:href="#DejaVuSans-6f" transform="translate(657.275391 0)"/>
      <use xlink:href="#DejaVuSans-6e" transform="translate(718.457031 0)"/>
      <use xlink:href="#DejaVuSans-73" transform="translate(781.835938 0)"/>
     </g>
    </g>
    <g id="line2d_110">
     <path d="M 113.459375 102.281406 
L 138.459375 102.281406 
L 163.459375 102.281406 
" style="fill: none; stroke: #ffa500; stroke-width: 3; stroke-linecap: square"/>
    </g>
    <g id="text_17">
     <!-- w/o imperfections -->
     <g transform="translate(183.459375 111.031406) scale(0.25 -0.25)">
      <use xlink:href="#DejaVuSans-77"/>
      <use xlink:href="#DejaVuSans-2f" transform="translate(81.787109 0)"/>
      <use xlink:href="#DejaVuSans-6f" transform="translate(115.478516 0)"/>
      <use xlink:href="#DejaVuSans-20" transform="translate(176.660156 0)"/>
      <use xlink:href="#DejaVuSans-69" transform="translate(208.447266 0)"/>
      <use xlink:href="#DejaVuSans-6d" transform="translate(236.230469 0)"/>
      <use xlink:href="#DejaVuSans-70" transform="translate(333.642578 0)"/>
      <use xlink:href="#DejaVuSans-65" transform="translate(397.119141 0)"/>
      <use xlink:href="#DejaVuSans-72" transform="translate(458.642578 0)"/>
      <use xlink:href="#DejaVuSans-66" transform="translate(499.755859 0)"/>
      <use xlink:href="#DejaVuSans-65" transform="translate(534.960938 0)"/>
      <use xlink:href="#DejaVuSans-63" transform="translate(596.484375 0)"/>
      <use xlink:href="#DejaVuSans-74" transform="translate(651.464844 0)"/>
      <use xlink:href="#DejaVuSans-69" transform="translate(690.673828 0)"/>
      <use xlink:href="#DejaVuSans-6f" transform="translate(718.457031 0)"/>
      <use xlink:href="#DejaVuSans-6e" transform="translate(779.638672 0)"/>
      <use xlink:href="#DejaVuSans-73" transform="translate(843.017578 0)"/>
     </g>
    </g>
    <g id="line2d_111">
     <path d="M 113.459375 138.976719 
L 138.459375 138.976719 
L 163.459375 138.976719 
" style="fill: none; stroke-dasharray: 11.1,4.8; stroke-dashoffset: 0; stroke: #000000; stroke-width: 3"/>
    </g>
    <g id="text_18">
     <!-- Pump freq 0.15 kHz -->
     <g transform="translate(183.459375 147.726719) scale(0.25 -0.25)">
      <defs>
       <path id="DejaVuSans-50" d="M 1259 4147 
L 1259 2394 
L 2053 2394 
Q 2494 2394 2734 2622 
Q 2975 2850 2975 3272 
Q 2975 3691 2734 3919 
Q 2494 4147 2053 4147 
L 1259 4147 
z
M 628 4666 
L 2053 4666 
Q 2838 4666 3239 4311 
Q 3641 3956 3641 3272 
Q 3641 2581 3239 2228 
Q 2838 1875 2053 1875 
L 1259 1875 
L 1259 0 
L 628 0 
L 628 4666 
z
" transform="scale(0.015625)"/>
       <path id="DejaVuSans-6b" d="M 581 4863 
L 1159 4863 
L 1159 1991 
L 2875 3500 
L 3609 3500 
L 1753 1863 
L 3688 0 
L 2938 0 
L 1159 1709 
L 1159 0 
L 581 0 
L 581 4863 
z
" transform="scale(0.015625)"/>
      </defs>
      <use xlink:href="#DejaVuSans-50"/>
      <use xlink:href="#DejaVuSans-75" transform="translate(58.552734 0)"/>
      <use xlink:href="#DejaVuSans-6d" transform="translate(121.931641 0)"/>
      <use xlink:href="#DejaVuSans-70" transform="translate(219.34375 0)"/>
      <use xlink:href="#DejaVuSans-20" transform="translate(282.820312 0)"/>
      <use xlink:href="#DejaVuSans-66" transform="translate(314.607422 0)"/>
      <use xlink:href="#DejaVuSans-72" transform="translate(349.8125 0)"/>
      <use xlink:href="#DejaVuSans-65" transform="translate(388.675781 0)"/>
      <use xlink:href="#DejaVuSans-71" transform="translate(450.199219 0)"/>
      <use xlink:href="#DejaVuSans-20" transform="translate(513.675781 0)"/>
      <use xlink:href="#DejaVuSans-30" transform="translate(545.462891 0)"/>
      <use xlink:href="#DejaVuSans-2e" transform="translate(609.085938 0)"/>
      <use xlink:href="#DejaVuSans-31" transform="translate(640.873047 0)"/>
      <use xlink:href="#DejaVuSans-35" transform="translate(704.496094 0)"/>
      <use xlink:href="#DejaVuSans-20" transform="translate(768.119141 0)"/>
      <use xlink:href="#DejaVuSans-6b" transform="translate(799.90625 0)"/>
      <use xlink:href="#DejaVuSans-48" transform="translate(857.816406 0)"/>
      <use xlink:href="#DejaVuSans-7a" transform="translate(933.011719 0)"/>
     </g>
    </g>
    <g id="line2d_112">
     <path d="M 113.459375 175.672031 
L 138.459375 175.672031 
L 163.459375 175.672031 
" style="fill: none; stroke-dasharray: 11.1,4.8; stroke-dashoffset: 0; stroke: #000000; stroke-width: 3"/>
    </g>
    <g id="text_19">
     <!-- Pump freq -0.35 kHz -->
     <g transform="translate(183.459375 184.422031) scale(0.25 -0.25)">
      <defs>
       <path id="DejaVuSans-2d" d="M 313 2009 
L 1997 2009 
L 1997 1497 
L 313 1497 
L 313 2009 
z
" transform="scale(0.015625)"/>
      </defs>
      <use xlink:href="#DejaVuSans-50"/>
      <use xlink:href="#DejaVuSans-75" transform="translate(58.552734 0)"/>
      <use xlink:href="#DejaVuSans-6d" transform="translate(121.931641 0)"/>
      <use xlink:href="#DejaVuSans-70" transform="translate(219.34375 0)"/>
      <use xlink:href="#DejaVuSans-20" transform="translate(282.820312 0)"/>
      <use xlink:href="#DejaVuSans-66" transform="translate(314.607422 0)"/>
      <use xlink:href="#DejaVuSans-72" transform="translate(349.8125 0)"/>
      <use xlink:href="#DejaVuSans-65" transform="translate(388.675781 0)"/>
      <use xlink:href="#DejaVuSans-71" transform="translate(450.199219 0)"/>
      <use xlink:href="#DejaVuSans-20" transform="translate(513.675781 0)"/>
      <use xlink:href="#DejaVuSans-2d" transform="translate(545.462891 0)"/>
      <use xlink:href="#DejaVuSans-30" transform="translate(581.546875 0)"/>
      <use xlink:href="#DejaVuSans-2e" transform="translate(645.169922 0)"/>
      <use xlink:href="#DejaVuSans-33" transform="translate(676.957031 0)"/>
      <use xlink:href="#DejaVuSans-35" transform="translate(740.580078 0)"/>
      <use xlink:href="#DejaVuSans-20" transform="translate(804.203125 0)"/>
      <use xlink:href="#DejaVuSans-6b" transform="translate(835.990234 0)"/>
      <use xlink:href="#DejaVuSans-48" transform="translate(893.900391 0)"/>
      <use xlink:href="#DejaVuSans-7a" transform="translate(969.095703 0)"/>
     </g>
    </g>
    <g id="patch_57">
     <path d="M 113.459375 221.117344 
L 163.459375 221.117344 
L 163.459375 203.617344 
L 113.459375 203.617344 
z
" style="fill: #ff0000; opacity: 0.1"/>
    </g>
    <g id="text_20">
     <!-- Sign. Trans. -->
     <g transform="translate(183.459375 221.117344) scale(0.25 -0.25)">
      <defs>
       <path id="DejaVuSans-53" d="M 3425 4513 
L 3425 3897 
Q 3066 4069 2747 4153 
Q 2428 4238 2131 4238 
Q 1616 4238 1336 4038 
Q 1056 3838 1056 3469 
Q 1056 3159 1242 3001 
Q 1428 2844 1947 2747 
L 2328 2669 
Q 3034 2534 3370 2195 
Q 3706 1856 3706 1288 
Q 3706 609 3251 259 
Q 2797 -91 1919 -91 
Q 1588 -91 1214 -16 
Q 841 59 441 206 
L 441 856 
Q 825 641 1194 531 
Q 1563 422 1919 422 
Q 2459 422 2753 634 
Q 3047 847 3047 1241 
Q 3047 1584 2836 1778 
Q 2625 1972 2144 2069 
L 1759 2144 
Q 1053 2284 737 2584 
Q 422 2884 422 3419 
Q 422 4038 858 4394 
Q 1294 4750 2059 4750 
Q 2388 4750 2728 4690 
Q 3069 4631 3425 4513 
z
" transform="scale(0.015625)"/>
       <path id="DejaVuSans-67" d="M 2906 1791 
Q 2906 2416 2648 2759 
Q 2391 3103 1925 3103 
Q 1463 3103 1205 2759 
Q 947 2416 947 1791 
Q 947 1169 1205 825 
Q 1463 481 1925 481 
Q 2391 481 2648 825 
Q 2906 1169 2906 1791 
z
M 3481 434 
Q 3481 -459 3084 -895 
Q 2688 -1331 1869 -1331 
Q 1566 -1331 1297 -1286 
Q 1028 -1241 775 -1147 
L 775 -588 
Q 1028 -725 1275 -790 
Q 1522 -856 1778 -856 
Q 2344 -856 2625 -561 
Q 2906 -266 2906 331 
L 2906 616 
Q 2728 306 2450 153 
Q 2172 0 1784 0 
Q 1141 0 747 490 
Q 353 981 353 1791 
Q 353 2603 747 3093 
Q 1141 3584 1784 3584 
Q 2172 3584 2450 3431 
Q 2728 3278 2906 2969 
L 2906 3500 
L 3481 3500 
L 3481 434 
z
" transform="scale(0.015625)"/>
       <path id="DejaVuSans-54" d="M -19 4666 
L 3928 4666 
L 3928 4134 
L 2272 4134 
L 2272 0 
L 1638 0 
L 1638 4134 
L -19 4134 
L -19 4666 
z
" transform="scale(0.015625)"/>
      </defs>
      <use xlink:href="#DejaVuSans-53"/>
      <use xlink:href="#DejaVuSans-69" transform="translate(63.476562 0)"/>
      <use xlink:href="#DejaVuSans-67" transform="translate(91.259766 0)"/>
      <use xlink:href="#DejaVuSans-6e" transform="translate(154.736328 0)"/>
      <use xlink:href="#DejaVuSans-2e" transform="translate(218.115234 0)"/>
      <use xlink:href="#DejaVuSans-20" transform="translate(249.902344 0)"/>
      <use xlink:href="#DejaVuSans-54" transform="translate(281.689453 0)"/>
      <use xlink:href="#DejaVuSans-72" transform="translate(328.023438 0)"/>
      <use xlink:href="#DejaVuSans-61" transform="translate(369.136719 0)"/>
      <use xlink:href="#DejaVuSans-6e" transform="translate(430.416016 0)"/>
      <use xlink:href="#DejaVuSans-73" transform="translate(493.794922 0)"/>
      <use xlink:href="#DejaVuSans-2e" transform="translate(545.894531 0)"/>
     </g>
    </g>
   </g>
  </g>
 </g>
 <defs>
  <clipPath id="p42083f6c88">
   <rect x="90.959375" y="32.84" width="781.2" height="443.52"/>
  </clipPath>
 </defs>
</svg>
