<?xml version="1.0" encoding="utf-8" standalone="no"?>
<!DOCTYPE svg PUBLIC "-//W3C//DTD SVG 1.1//EN"
  "http://www.w3.org/Graphics/SVG/1.1/DTD/svg11.dtd">
<svg xmlns:xlink="http://www.w3.org/1999/xlink" width="903.591406pt" height="535.850625pt" viewBox="0 0 903.591406 535.850625" xmlns="http://www.w3.org/2000/svg" version="1.1">
 <metadata>
  <rdf:RDF xmlns:dc="http://purl.org/dc/elements/1.1/" xmlns:cc="http://creativecommons.org/ns#" xmlns:rdf="http://www.w3.org/1999/02/22-rdf-syntax-ns#">
   <cc:Work>
    <dc:type rdf:resource="http://purl.org/dc/dcmitype/StillImage"/>
    <dc:date>2026-02-19T12:51:24.981521</dc:date>
    <dc:format>image/svg+xml</dc:format>
    <dc:creator>
     <cc:Agent>
      <dc:title>Matplotlib v3.10.3, https://matplotlib.org/</dc:title>
     </cc:Agent>
    </dc:creator>
   </cc:Work>
  </rdf:RDF>
 </metadata>
 <defs>
  <style type="text/css">*{stroke-linejoin: round; stroke-linecap: butt}</style>
 </defs>
 <g id="figure_1">
  <g id="patch_1">
   <path d="M 0 535.850625 
L 903.591406 535.850625 
L 903.591406 0 
L 0 0 
z
" style="fill: #ffffff"/>
  </g>
  <g id="axes_1">
   <g id="patch_2">
    <path d="M 90.959375 476.36 
L 872.159375 476.36 
L 872.159375 32.84 
L 90.959375 32.84 
z
" style="fill: #ffffff"/>
   </g>
   <g id="patch_3">
    <path d="M 714.342826 476.36 
L 722.154826 476.36 
L 722.154826 347.787187 
L 714.342826 347.787187 
z
" clip-path="url(#pcf0816c7f0)" style="fill: #ff0000; opacity: 0.1"/>
   </g>
   <g id="patch_4">
    <path d="M 658.640978 476.36 
L 666.452978 476.36 
L 666.452978 280.747776 
L 658.640978 280.747776 
z
" clip-path="url(#pcf0816c7f0)" style="fill: #ff0000; opacity: 0.1"/>
   </g>
   <g id="patch_5">
    <path d="M 574.844095 476.36 
L 582.656095 476.36 
L 582.656095 237.512242 
L 574.844095 237.512242 
z
" clip-path="url(#pcf0816c7f0)" style="fill: #ff0000; opacity: 0.1"/>
   </g>
   <g id="patch_6">
    <path d="M 470.661581 476.36 
L 478.473581 476.36 
L 478.473581 220.464983 
L 470.661581 220.464983 
z
" clip-path="url(#pcf0816c7f0)" style="fill: #ff0000; opacity: 0.1"/>
   </g>
   <g id="patch_7">
    <path d="M 356.658383 476.36 
L 364.470383 476.36 
L 364.470383 227.355474 
L 356.658383 227.355474 
z
" clip-path="url(#pcf0816c7f0)" style="fill: #ff0000; opacity: 0.1"/>
   </g>
   <g id="patch_8">
    <path d="M 236.5727 476.36 
L 244.3847 476.36 
L 244.3847 252.512528 
L 236.5727 252.512528 
z
" clip-path="url(#pcf0816c7f0)" style="fill: #ff0000; opacity: 0.1"/>
   </g>
   <g id="patch_9">
    <path d="M 114.714063 476.36 
L 122.526063 476.36 
L 122.526063 288.647396 
L 114.714063 288.647396 
z
" clip-path="url(#pcf0816c7f0)" style="fill: #ff0000; opacity: 0.1"/>
   </g>
   <g id="patch_10">
    <path d="M -9.814986 476.36 
L -2.002986 476.36 
L -2.002986 328.638579 
L -9.814986 328.638579 
z
" clip-path="url(#pcf0816c7f0)" style="fill: #ff0000; opacity: 0.1"/>
   </g>
   <g id="patch_11">
    <path d="M -133.993964 476.36 
L -126.181964 476.36 
L -126.181964 366.828362 
L -133.993964 366.828362 
z
" clip-path="url(#pcf0816c7f0)" style="fill: #ff0000; opacity: 0.1"/>
   </g>
   <g id="patch_12">
    <path d="M -258.568823 476.36 
L -250.756823 476.36 
L -250.756823 399.624602 
L -258.568823 399.624602 
z
" clip-path="url(#pcf0816c7f0)" style="fill: #ff0000; opacity: 0.1"/>
   </g>
   <g id="patch_13">
    <path d="M -383.294881 476.36 
L -375.482881 476.36 
L -375.482881 425.462809 
L -383.294881 425.462809 
z
" clip-path="url(#pcf0816c7f0)" style="fill: #ff0000; opacity: 0.1"/>
   </g>
   <g id="patch_14">
    <path d="M -508.094669 476.36 
L -500.282669 476.36 
L -500.282669 444.349345 
L -508.094669 444.349345 
z
" clip-path="url(#pcf0816c7f0)" style="fill: #ff0000; opacity: 0.1"/>
   </g>
   <g id="patch_15">
    <path d="M -632.822434 476.36 
L -625.010434 476.36 
L -625.010434 457.248009 
L -632.822434 457.248009 
z
" clip-path="url(#pcf0816c7f0)" style="fill: #ff0000; opacity: 0.1"/>
   </g>
   <g id="patch_16">
    <path d="M -757.463202 476.36 
L -749.651202 476.36 
L -749.651202 465.517565 
L -757.463202 465.517565 
z
" clip-path="url(#pcf0816c7f0)" style="fill: #ff0000; opacity: 0.1"/>
   </g>
   <g id="matplotlib.axis_1">
    <g id="xtick_1">
     <g id="line2d_1">
      <defs>
       <path id="md4086e32b0" d="M 0 0 
L 0 -6 
" style="stroke: #000000"/>
      </defs>
      <g>
       <use xlink:href="#md4086e32b0" x="90.959375" y="476.36" style="stroke: #000000"/>
      </g>
     </g>
     <g id="line2d_2">
      <defs>
       <path id="m3a97fd4135" d="M 0 0 
L 0 6 
" style="stroke: #000000"/>
      </defs>
      <g>
       <use xlink:href="#m3a97fd4135" x="90.959375" y="32.84" style="stroke: #000000"/>
      </g>
     </g>
     <g id="text_1">
      <!-- −0.05 -->
      <g transform="translate(52.652734 498.856094) scale(0.25 -0.25)">
       <defs>
        <path id="DejaVuSans-2212" d="M 678 2272 
L 4684 2272 
L 4684 1741 
L 678 1741 
L 678 2272 
z
" transform="scale(0.015625)"/>
        <path id="DejaVuSans-30" d="M 2034 4250 
Q 1547 4250 1301 3770 
Q 1056 3291 1056 2328 
Q 1056 1369 1301 889 
Q 1547 409 2034 409 
Q 2525 409 2770 889 
Q 3016 1369 3016 2328 
Q 3016 3291 2770 3770 
Q 2525 4250 2034 4250 
z
M 2034 4750 
Q 2819 4750 3233 4129 
Q 3647 3509 3647 2328 
Q 3647 1150 3233 529 
Q 2819 -91 2034 -91 
Q 1250 -91 836 529 
Q 422 1150 422 2328 
Q 422 3509 836 4129 
Q 1250 4750 2034 4750 
z
" transform="scale(0.015625)"/>
        <path id="DejaVuSans-2e" d="M 684 794 
L 1344 794 
L 1344 0 
L 684 0 
L 684 794 
z
" transform="scale(0.015625)"/>
        <path id="DejaVuSans-35" d="M 691 4666 
L 3169 4666 
L 3169 4134 
L 1269 4134 
L 1269 2991 
Q 1406 3038 1543 3061 
Q 1681 3084 1819 3084 
Q 2600 3084 3056 2656 
Q 3513 2228 3513 1497 
Q 3513 744 3044 326 
Q 2575 -91 1722 -91 
Q 1428 -91 1123 -41 
Q 819 9 494 109 
L 494 744 
Q 775 591 1075 516 
Q 1375 441 1709 441 
Q 2250 441 2565 725 
Q 2881 1009 2881 1497 
Q 2881 1984 2565 2268 
Q 2250 2553 1709 2553 
Q 1456 2553 1204 2497 
Q 953 2441 691 2322 
L 691 4666 
z
" transform="scale(0.015625)"/>
       </defs>
       <use xlink:href="#DejaVuSans-2212"/>
       <use xlink:href="#DejaVuSans-30" transform="translate(83.789062 0)"/>
       <use xlink:href="#DejaVuSans-2e" transform="translate(147.412109 0)"/>
       <use xlink:href="#DejaVuSans-30" transform="translate(179.199219 0)"/>
       <use xlink:href="#DejaVuSans-35" transform="translate(242.822266 0)"/>
      </g>
     </g>
    </g>
    <g id="xtick_2">
     <g id="line2d_3">
      <g>
       <use xlink:href="#md4086e32b0" x="247.199375" y="476.36" style="stroke: #000000"/>
      </g>
     </g>
     <g id="line2d_4">
      <g>
       <use xlink:href="#m3a97fd4135" x="247.199375" y="32.84" style="stroke: #000000"/>
      </g>
     </g>
     <g id="text_2">
      <!-- −0.04 -->
      <g transform="translate(208.892734 498.856094) scale(0.25 -0.25)">
       <defs>
        <path id="DejaVuSans-34" d="M 2419 4116 
L 825 1625 
L 2419 1625 
L 2419 4116 
z
M 2253 4666 
L 3047 4666 
L 3047 1625 
L 3713 1625 
L 3713 1100 
L 3047 1100 
L 3047 0 
L 2419 0 
L 2419 1100 
L 313 1100 
L 313 1709 
L 2253 4666 
z
" transform="scale(0.015625)"/>
       </defs>
       <use xlink:href="#DejaVuSans-2212"/>
       <use xlink:href="#DejaVuSans-30" transform="translate(83.789062 0)"/>
       <use xlink:href="#DejaVuSans-2e" transform="translate(147.412109 0)"/>
       <use xlink:href="#DejaVuSans-30" transform="translate(179.199219 0)"/>
       <use xlink:href="#DejaVuSans-34" transform="translate(242.822266 0)"/>
      </g>
     </g>
    </g>
    <g id="xtick_3">
     <g id="line2d_5">
      <g>
       <use xlink:href="#md4086e32b0" x="403.439375" y="476.36" style="stroke: #000000"/>
      </g>
     </g>
     <g id="line2d_6">
      <g>
       <use xlink:href="#m3a97fd4135" x="403.439375" y="32.84" style="stroke: #000000"/>
      </g>
     </g>
     <g id="text_3">
      <!-- −0.03 -->
      <g transform="translate(365.132734 498.856094) scale(0.25 -0.25)">
       <defs>
        <path id="DejaVuSans-33" d="M 2597 2516 
Q 3050 2419 3304 2112 
Q 3559 1806 3559 1356 
Q 3559 666 3084 287 
Q 2609 -91 1734 -91 
Q 1441 -91 1130 -33 
Q 819 25 488 141 
L 488 750 
Q 750 597 1062 519 
Q 1375 441 1716 441 
Q 2309 441 2620 675 
Q 2931 909 2931 1356 
Q 2931 1769 2642 2001 
Q 2353 2234 1838 2234 
L 1294 2234 
L 1294 2753 
L 1863 2753 
Q 2328 2753 2575 2939 
Q 2822 3125 2822 3475 
Q 2822 3834 2567 4026 
Q 2313 4219 1838 4219 
Q 1578 4219 1281 4162 
Q 984 4106 628 3988 
L 628 4550 
Q 988 4650 1302 4700 
Q 1616 4750 1894 4750 
Q 2613 4750 3031 4423 
Q 3450 4097 3450 3541 
Q 3450 3153 3228 2886 
Q 3006 2619 2597 2516 
z
" transform="scale(0.015625)"/>
       </defs>
       <use xlink:href="#DejaVuSans-2212"/>
       <use xlink:href="#DejaVuSans-30" transform="translate(83.789062 0)"/>
       <use xlink:href="#DejaVuSans-2e" transform="translate(147.412109 0)"/>
       <use xlink:href="#DejaVuSans-30" transform="translate(179.199219 0)"/>
       <use xlink:href="#DejaVuSans-33" transform="translate(242.822266 0)"/>
      </g>
     </g>
    </g>
    <g id="xtick_4">
     <g id="line2d_7">
      <g>
       <use xlink:href="#md4086e32b0" x="559.679375" y="476.36" style="stroke: #000000"/>
      </g>
     </g>
     <g id="line2d_8">
      <g>
       <use xlink:href="#m3a97fd4135" x="559.679375" y="32.84" style="stroke: #000000"/>
      </g>
     </g>
     <g id="text_4">
      <!-- −0.02 -->
      <g transform="translate(521.372734 498.856094) scale(0.25 -0.25)">
       <defs>
        <path id="DejaVuSans-32" d="M 1228 531 
L 3431 531 
L 3431 0 
L 469 0 
L 469 531 
Q 828 903 1448 1529 
Q 2069 2156 2228 2338 
Q 2531 2678 2651 2914 
Q 2772 3150 2772 3378 
Q 2772 3750 2511 3984 
Q 2250 4219 1831 4219 
Q 1534 4219 1204 4116 
Q 875 4013 500 3803 
L 500 4441 
Q 881 4594 1212 4672 
Q 1544 4750 1819 4750 
Q 2544 4750 2975 4387 
Q 3406 4025 3406 3419 
Q 3406 3131 3298 2873 
Q 3191 2616 2906 2266 
Q 2828 2175 2409 1742 
Q 1991 1309 1228 531 
z
" transform="scale(0.015625)"/>
       </defs>
       <use xlink:href="#DejaVuSans-2212"/>
       <use xlink:href="#DejaVuSans-30" transform="translate(83.789062 0)"/>
       <use xlink:href="#DejaVuSans-2e" transform="translate(147.412109 0)"/>
       <use xlink:href="#DejaVuSans-30" transform="translate(179.199219 0)"/>
       <use xlink:href="#DejaVuSans-32" transform="translate(242.822266 0)"/>
      </g>
     </g>
    </g>
    <g id="xtick_5">
     <g id="line2d_9">
      <g>
       <use xlink:href="#md4086e32b0" x="715.919375" y="476.36" style="stroke: #000000"/>
      </g>
     </g>
     <g id="line2d_10">
      <g>
       <use xlink:href="#m3a97fd4135" x="715.919375" y="32.84" style="stroke: #000000"/>
      </g>
     </g>
     <g id="text_5">
      <!-- −0.01 -->
      <g transform="translate(677.612734 498.856094) scale(0.25 -0.25)">
       <defs>
        <path id="DejaVuSans-31" d="M 794 531 
L 1825 531 
L 1825 4091 
L 703 3866 
L 703 4441 
L 1819 4666 
L 2450 4666 
L 2450 531 
L 3481 531 
L 3481 0 
L 794 0 
L 794 531 
z
" transform="scale(0.015625)"/>
       </defs>
       <use xlink:href="#DejaVuSans-2212"/>
       <use xlink:href="#DejaVuSans-30" transform="translate(83.789062 0)"/>
       <use xlink:href="#DejaVuSans-2e" transform="translate(147.412109 0)"/>
       <use xlink:href="#DejaVuSans-30" transform="translate(179.199219 0)"/>
       <use xlink:href="#DejaVuSans-31" transform="translate(242.822266 0)"/>
      </g>
     </g>
    </g>
    <g id="xtick_6">
     <g id="line2d_11">
      <g>
       <use xlink:href="#md4086e32b0" x="872.159375" y="476.36" style="stroke: #000000"/>
      </g>
     </g>
     <g id="line2d_12">
      <g>
       <use xlink:href="#m3a97fd4135" x="872.159375" y="32.84" style="stroke: #000000"/>
      </g>
     </g>
     <g id="text_6">
      <!-- 0.00 -->
      <g transform="translate(844.327344 498.856094) scale(0.25 -0.25)">
       <use xlink:href="#DejaVuSans-30"/>
       <use xlink:href="#DejaVuSans-2e" transform="translate(63.623047 0)"/>
       <use xlink:href="#DejaVuSans-30" transform="translate(95.410156 0)"/>
       <use xlink:href="#DejaVuSans-30" transform="translate(159.033203 0)"/>
      </g>
     </g>
    </g>
    <g id="xtick_7">
     <g id="line2d_13">
      <defs>
       <path id="m9024a8b6b5" d="M 0 0 
L 0 -3 
" style="stroke: #000000"/>
      </defs>
      <g>
       <use xlink:href="#m9024a8b6b5" x="122.207375" y="476.36" style="stroke: #000000"/>
      </g>
     </g>
     <g id="line2d_14">
      <defs>
       <path id="m79ea7fdd1e" d="M 0 0 
L 0 3 
" style="stroke: #000000"/>
      </defs>
      <g>
       <use xlink:href="#m79ea7fdd1e" x="122.207375" y="32.84" style="stroke: #000000"/>
      </g>
     </g>
    </g>
    <g id="xtick_8">
     <g id="line2d_15">
      <g>
       <use xlink:href="#m9024a8b6b5" x="153.455375" y="476.36" style="stroke: #000000"/>
      </g>
     </g>
     <g id="line2d_16">
      <g>
       <use xlink:href="#m79ea7fdd1e" x="153.455375" y="32.84" style="stroke: #000000"/>
      </g>
     </g>
    </g>
    <g id="xtick_9">
     <g id="line2d_17">
      <g>
       <use xlink:href="#m9024a8b6b5" x="184.703375" y="476.36" style="stroke: #000000"/>
      </g>
     </g>
     <g id="line2d_18">
      <g>
       <use xlink:href="#m79ea7fdd1e" x="184.703375" y="32.84" style="stroke: #000000"/>
      </g>
     </g>
    </g>
    <g id="xtick_10">
     <g id="line2d_19">
      <g>
       <use xlink:href="#m9024a8b6b5" x="215.951375" y="476.36" style="stroke: #000000"/>
      </g>
     </g>
     <g id="line2d_20">
      <g>
       <use xlink:href="#m79ea7fdd1e" x="215.951375" y="32.84" style="stroke: #000000"/>
      </g>
     </g>
    </g>
    <g id="xtick_11">
     <g id="line2d_21">
      <g>
       <use xlink:href="#m9024a8b6b5" x="278.447375" y="476.36" style="stroke: #000000"/>
      </g>
     </g>
     <g id="line2d_22">
      <g>
       <use xlink:href="#m79ea7fdd1e" x="278.447375" y="32.84" style="stroke: #000000"/>
      </g>
     </g>
    </g>
    <g id="xtick_12">
     <g id="line2d_23">
      <g>
       <use xlink:href="#m9024a8b6b5" x="309.695375" y="476.36" style="stroke: #000000"/>
      </g>
     </g>
     <g id="line2d_24">
      <g>
       <use xlink:href="#m79ea7fdd1e" x="309.695375" y="32.84" style="stroke: #000000"/>
      </g>
     </g>
    </g>
    <g id="xtick_13">
     <g id="line2d_25">
      <g>
       <use xlink:href="#m9024a8b6b5" x="340.943375" y="476.36" style="stroke: #000000"/>
      </g>
     </g>
     <g id="line2d_26">
      <g>
       <use xlink:href="#m79ea7fdd1e" x="340.943375" y="32.84" style="stroke: #000000"/>
      </g>
     </g>
    </g>
    <g id="xtick_14">
     <g id="line2d_27">
      <g>
       <use xlink:href="#m9024a8b6b5" x="372.191375" y="476.36" style="stroke: #000000"/>
      </g>
     </g>
     <g id="line2d_28">
      <g>
       <use xlink:href="#m79ea7fdd1e" x="372.191375" y="32.84" style="stroke: #000000"/>
      </g>
     </g>
    </g>
    <g id="xtick_15">
     <g id="line2d_29">
      <g>
       <use xlink:href="#m9024a8b6b5" x="434.687375" y="476.36" style="stroke: #000000"/>
      </g>
     </g>
     <g id="line2d_30">
      <g>
       <use xlink:href="#m79ea7fdd1e" x="434.687375" y="32.84" style="stroke: #000000"/>
      </g>
     </g>
    </g>
    <g id="xtick_16">
     <g id="line2d_31">
      <g>
       <use xlink:href="#m9024a8b6b5" x="465.935375" y="476.36" style="stroke: #000000"/>
      </g>
     </g>
     <g id="line2d_32">
      <g>
       <use xlink:href="#m79ea7fdd1e" x="465.935375" y="32.84" style="stroke: #000000"/>
      </g>
     </g>
    </g>
    <g id="xtick_17">
     <g id="line2d_33">
      <g>
       <use xlink:href="#m9024a8b6b5" x="497.183375" y="476.36" style="stroke: #000000"/>
      </g>
     </g>
     <g id="line2d_34">
      <g>
       <use xlink:href="#m79ea7fdd1e" x="497.183375" y="32.84" style="stroke: #000000"/>
      </g>
     </g>
    </g>
    <g id="xtick_18">
     <g id="line2d_35">
      <g>
       <use xlink:href="#m9024a8b6b5" x="528.431375" y="476.36" style="stroke: #000000"/>
      </g>
     </g>
     <g id="line2d_36">
      <g>
       <use xlink:href="#m79ea7fdd1e" x="528.431375" y="32.84" style="stroke: #000000"/>
      </g>
     </g>
    </g>
    <g id="xtick_19">
     <g id="line2d_37">
      <g>
       <use xlink:href="#m9024a8b6b5" x="590.927375" y="476.36" style="stroke: #000000"/>
      </g>
     </g>
     <g id="line2d_38">
      <g>
       <use xlink:href="#m79ea7fdd1e" x="590.927375" y="32.84" style="stroke: #000000"/>
      </g>
     </g>
    </g>
    <g id="xtick_20">
     <g id="line2d_39">
      <g>
       <use xlink:href="#m9024a8b6b5" x="622.175375" y="476.36" style="stroke: #000000"/>
      </g>
     </g>
     <g id="line2d_40">
      <g>
       <use xlink:href="#m79ea7fdd1e" x="622.175375" y="32.84" style="stroke: #000000"/>
      </g>
     </g>
    </g>
    <g id="xtick_21">
     <g id="line2d_41">
      <g>
       <use xlink:href="#m9024a8b6b5" x="653.423375" y="476.36" style="stroke: #000000"/>
      </g>
     </g>
     <g id="line2d_42">
      <g>
       <use xlink:href="#m79ea7fdd1e" x="653.423375" y="32.84" style="stroke: #000000"/>
      </g>
     </g>
    </g>
    <g id="xtick_22">
     <g id="line2d_43">
      <g>
       <use xlink:href="#m9024a8b6b5" x="684.671375" y="476.36" style="stroke: #000000"/>
      </g>
     </g>
     <g id="line2d_44">
      <g>
       <use xlink:href="#m79ea7fdd1e" x="684.671375" y="32.84" style="stroke: #000000"/>
      </g>
     </g>
    </g>
    <g id="xtick_23">
     <g id="line2d_45">
      <g>
       <use xlink:href="#m9024a8b6b5" x="747.167375" y="476.36" style="stroke: #000000"/>
      </g>
     </g>
     <g id="line2d_46">
      <g>
       <use xlink:href="#m79ea7fdd1e" x="747.167375" y="32.84" style="stroke: #000000"/>
      </g>
     </g>
    </g>
    <g id="xtick_24">
     <g id="line2d_47">
      <g>
       <use xlink:href="#m9024a8b6b5" x="778.415375" y="476.36" style="stroke: #000000"/>
      </g>
     </g>
     <g id="line2d_48">
      <g>
       <use xlink:href="#m79ea7fdd1e" x="778.415375" y="32.84" style="stroke: #000000"/>
      </g>
     </g>
    </g>
    <g id="xtick_25">
     <g id="line2d_49">
      <g>
       <use xlink:href="#m9024a8b6b5" x="809.663375" y="476.36" style="stroke: #000000"/>
      </g>
     </g>
     <g id="line2d_50">
      <g>
       <use xlink:href="#m79ea7fdd1e" x="809.663375" y="32.84" style="stroke: #000000"/>
      </g>
     </g>
    </g>
    <g id="xtick_26">
     <g id="line2d_51">
      <g>
       <use xlink:href="#m9024a8b6b5" x="840.911375" y="476.36" style="stroke: #000000"/>
      </g>
     </g>
     <g id="line2d_52">
      <g>
       <use xlink:href="#m79ea7fdd1e" x="840.911375" y="32.84" style="stroke: #000000"/>
      </g>
     </g>
    </g>
    <g id="text_7">
     <!-- Frequency (MHz) -->
     <g transform="translate(376.5125 527.051406) scale(0.25 -0.25)">
      <defs>
       <path id="DejaVuSans-46" d="M 628 4666 
L 3309 4666 
L 3309 4134 
L 1259 4134 
L 1259 2759 
L 3109 2759 
L 3109 2228 
L 1259 2228 
L 1259 0 
L 628 0 
L 628 4666 
z
" transform="scale(0.015625)"/>
       <path id="DejaVuSans-72" d="M 2631 2963 
Q 2534 3019 2420 3045 
Q 2306 3072 2169 3072 
Q 1681 3072 1420 2755 
Q 1159 2438 1159 1844 
L 1159 0 
L 581 0 
L 581 3500 
L 1159 3500 
L 1159 2956 
Q 1341 3275 1631 3429 
Q 1922 3584 2338 3584 
Q 2397 3584 2469 3576 
Q 2541 3569 2628 3553 
L 2631 2963 
z
" transform="scale(0.015625)"/>
       <path id="DejaVuSans-65" d="M 3597 1894 
L 3597 1613 
L 953 1613 
Q 991 1019 1311 708 
Q 1631 397 2203 397 
Q 2534 397 2845 478 
Q 3156 559 3463 722 
L 3463 178 
Q 3153 47 2828 -22 
Q 2503 -91 2169 -91 
Q 1331 -91 842 396 
Q 353 884 353 1716 
Q 353 2575 817 3079 
Q 1281 3584 2069 3584 
Q 2775 3584 3186 3129 
Q 3597 2675 3597 1894 
z
M 3022 2063 
Q 3016 2534 2758 2815 
Q 2500 3097 2075 3097 
Q 1594 3097 1305 2825 
Q 1016 2553 972 2059 
L 3022 2063 
z
" transform="scale(0.015625)"/>
       <path id="DejaVuSans-71" d="M 947 1747 
Q 947 1113 1208 752 
Q 1469 391 1925 391 
Q 2381 391 2643 752 
Q 2906 1113 2906 1747 
Q 2906 2381 2643 2742 
Q 2381 3103 1925 3103 
Q 1469 3103 1208 2742 
Q 947 2381 947 1747 
z
M 2906 525 
Q 2725 213 2448 61 
Q 2172 -91 1784 -91 
Q 1150 -91 751 415 
Q 353 922 353 1747 
Q 353 2572 751 3078 
Q 1150 3584 1784 3584 
Q 2172 3584 2448 3432 
Q 2725 3281 2906 2969 
L 2906 3500 
L 3481 3500 
L 3481 -1331 
L 2906 -1331 
L 2906 525 
z
" transform="scale(0.015625)"/>
       <path id="DejaVuSans-75" d="M 544 1381 
L 544 3500 
L 1119 3500 
L 1119 1403 
Q 1119 906 1312 657 
Q 1506 409 1894 409 
Q 2359 409 2629 706 
Q 2900 1003 2900 1516 
L 2900 3500 
L 3475 3500 
L 3475 0 
L 2900 0 
L 2900 538 
Q 2691 219 2414 64 
Q 2138 -91 1772 -91 
Q 1169 -91 856 284 
Q 544 659 544 1381 
z
M 1991 3584 
L 1991 3584 
z
" transform="scale(0.015625)"/>
       <path id="DejaVuSans-6e" d="M 3513 2113 
L 3513 0 
L 2938 0 
L 2938 2094 
Q 2938 2591 2744 2837 
Q 2550 3084 2163 3084 
Q 1697 3084 1428 2787 
Q 1159 2491 1159 1978 
L 1159 0 
L 581 0 
L 581 3500 
L 1159 3500 
L 1159 2956 
Q 1366 3272 1645 3428 
Q 1925 3584 2291 3584 
Q 2894 3584 3203 3211 
Q 3513 2838 3513 2113 
z
" transform="scale(0.015625)"/>
       <path id="DejaVuSans-63" d="M 3122 3366 
L 3122 2828 
Q 2878 2963 2633 3030 
Q 2388 3097 2138 3097 
Q 1578 3097 1268 2742 
Q 959 2388 959 1747 
Q 959 1106 1268 751 
Q 1578 397 2138 397 
Q 2388 397 2633 464 
Q 2878 531 3122 666 
L 3122 134 
Q 2881 22 2623 -34 
Q 2366 -91 2075 -91 
Q 1284 -91 818 406 
Q 353 903 353 1747 
Q 353 2603 823 3093 
Q 1294 3584 2113 3584 
Q 2378 3584 2631 3529 
Q 2884 3475 3122 3366 
z
" transform="scale(0.015625)"/>
       <path id="DejaVuSans-79" d="M 2059 -325 
Q 1816 -950 1584 -1140 
Q 1353 -1331 966 -1331 
L 506 -1331 
L 506 -850 
L 844 -850 
Q 1081 -850 1212 -737 
Q 1344 -625 1503 -206 
L 1606 56 
L 191 3500 
L 800 3500 
L 1894 763 
L 2988 3500 
L 3597 3500 
L 2059 -325 
z
" transform="scale(0.015625)"/>
       <path id="DejaVuSans-20" transform="scale(0.015625)"/>
       <path id="DejaVuSans-28" d="M 1984 4856 
Q 1566 4138 1362 3434 
Q 1159 2731 1159 2009 
Q 1159 1288 1364 580 
Q 1569 -128 1984 -844 
L 1484 -844 
Q 1016 -109 783 600 
Q 550 1309 550 2009 
Q 550 2706 781 3412 
Q 1013 4119 1484 4856 
L 1984 4856 
z
" transform="scale(0.015625)"/>
       <path id="DejaVuSans-4d" d="M 628 4666 
L 1569 4666 
L 2759 1491 
L 3956 4666 
L 4897 4666 
L 4897 0 
L 4281 0 
L 4281 4097 
L 3078 897 
L 2444 897 
L 1241 4097 
L 1241 0 
L 628 0 
L 628 4666 
z
" transform="scale(0.015625)"/>
       <path id="DejaVuSans-48" d="M 628 4666 
L 1259 4666 
L 1259 2753 
L 3553 2753 
L 3553 4666 
L 4184 4666 
L 4184 0 
L 3553 0 
L 3553 2222 
L 1259 2222 
L 1259 0 
L 628 0 
L 628 4666 
z
" transform="scale(0.015625)"/>
       <path id="DejaVuSans-7a" d="M 353 3500 
L 3084 3500 
L 3084 2975 
L 922 459 
L 3084 459 
L 3084 0 
L 275 0 
L 275 525 
L 2438 3041 
L 353 3041 
L 353 3500 
z
" transform="scale(0.015625)"/>
       <path id="DejaVuSans-29" d="M 513 4856 
L 1013 4856 
Q 1481 4119 1714 3412 
Q 1947 2706 1947 2009 
Q 1947 1309 1714 600 
Q 1481 -109 1013 -844 
L 513 -844 
Q 928 -128 1133 580 
Q 1338 1288 1338 2009 
Q 1338 2731 1133 3434 
Q 928 4138 513 4856 
z
" transform="scale(0.015625)"/>
      </defs>
      <use xlink:href="#DejaVuSans-46"/>
      <use xlink:href="#DejaVuSans-72" transform="translate(50.269531 0)"/>
      <use xlink:href="#DejaVuSans-65" transform="translate(89.132812 0)"/>
      <use xlink:href="#DejaVuSans-71" transform="translate(150.65625 0)"/>
      <use xlink:href="#DejaVuSans-75" transform="translate(214.132812 0)"/>
      <use xlink:href="#DejaVuSans-65" transform="translate(277.511719 0)"/>
      <use xlink:href="#DejaVuSans-6e" transform="translate(339.035156 0)"/>
      <use xlink:href="#DejaVuSans-63" transform="translate(402.414062 0)"/>
      <use xlink:href="#DejaVuSans-79" transform="translate(457.394531 0)"/>
      <use xlink:href="#DejaVuSans-20" transform="translate(516.574219 0)"/>
      <use xlink:href="#DejaVuSans-28" transform="translate(548.361328 0)"/>
      <use xlink:href="#DejaVuSans-4d" transform="translate(587.375 0)"/>
      <use xlink:href="#DejaVuSans-48" transform="translate(673.654297 0)"/>
      <use xlink:href="#DejaVuSans-7a" transform="translate(748.849609 0)"/>
      <use xlink:href="#DejaVuSans-29" transform="translate(801.339844 0)"/>
     </g>
    </g>
   </g>
   <g id="matplotlib.axis_2">
    <g id="ytick_1">
     <g id="line2d_53">
      <defs>
       <path id="m3a80bf47cd" d="M 0 0 
L 6 0 
" style="stroke: #000000"/>
      </defs>
      <g>
       <use xlink:href="#m3a80bf47cd" x="90.959375" y="476.36" style="stroke: #000000"/>
      </g>
     </g>
     <g id="line2d_54">
      <defs>
       <path id="m9309922a43" d="M 0 0 
L -6 0 
" style="stroke: #000000"/>
      </defs>
      <g>
       <use xlink:href="#m9309922a43" x="872.159375" y="476.36" style="stroke: #000000"/>
      </g>
     </g>
     <g id="text_8">
      <!-- 0.00 -->
      <g transform="translate(31.795313 485.858047) scale(0.25 -0.25)">
       <use xlink:href="#DejaVuSans-30"/>
       <use xlink:href="#DejaVuSans-2e" transform="translate(63.623047 0)"/>
       <use xlink:href="#DejaVuSans-30" transform="translate(95.410156 0)"/>
       <use xlink:href="#DejaVuSans-30" transform="translate(159.033203 0)"/>
      </g>
     </g>
    </g>
    <g id="ytick_2">
     <g id="line2d_55">
      <g>
       <use xlink:href="#m3a80bf47cd" x="90.959375" y="377.8" style="stroke: #000000"/>
      </g>
     </g>
     <g id="line2d_56">
      <g>
       <use xlink:href="#m9309922a43" x="872.159375" y="377.8" style="stroke: #000000"/>
      </g>
     </g>
     <g id="text_9">
      <!-- 0.05 -->
      <g transform="translate(31.795313 387.298047) scale(0.25 -0.25)">
       <use xlink:href="#DejaVuSans-30"/>
       <use xlink:href="#DejaVuSans-2e" transform="translate(63.623047 0)"/>
       <use xlink:href="#DejaVuSans-30" transform="translate(95.410156 0)"/>
       <use xlink:href="#DejaVuSans-35" transform="translate(159.033203 0)"/>
      </g>
     </g>
    </g>
    <g id="ytick_3">
     <g id="line2d_57">
      <g>
       <use xlink:href="#m3a80bf47cd" x="90.959375" y="279.24" style="stroke: #000000"/>
      </g>
     </g>
     <g id="line2d_58">
      <g>
       <use xlink:href="#m9309922a43" x="872.159375" y="279.24" style="stroke: #000000"/>
      </g>
     </g>
     <g id="text_10">
      <!-- 0.10 -->
      <g transform="translate(31.795313 288.738047) scale(0.25 -0.25)">
       <use xlink:href="#DejaVuSans-30"/>
       <use xlink:href="#DejaVuSans-2e" transform="translate(63.623047 0)"/>
       <use xlink:href="#DejaVuSans-31" transform="translate(95.410156 0)"/>
       <use xlink:href="#DejaVuSans-30" transform="translate(159.033203 0)"/>
      </g>
     </g>
    </g>
    <g id="ytick_4">
     <g id="line2d_59">
      <g>
       <use xlink:href="#m3a80bf47cd" x="90.959375" y="180.68" style="stroke: #000000"/>
      </g>
     </g>
     <g id="line2d_60">
      <g>
       <use xlink:href="#m9309922a43" x="872.159375" y="180.68" style="stroke: #000000"/>
      </g>
     </g>
     <g id="text_11">
      <!-- 0.15 -->
      <g transform="translate(31.795313 190.178047) scale(0.25 -0.25)">
       <use xlink:href="#DejaVuSans-30"/>
       <use xlink:href="#DejaVuSans-2e" transform="translate(63.623047 0)"/>
       <use xlink:href="#DejaVuSans-31" transform="translate(95.410156 0)"/>
       <use xlink:href="#DejaVuSans-35" transform="translate(159.033203 0)"/>
      </g>
     </g>
    </g>
    <g id="ytick_5">
     <g id="line2d_61">
      <g>
       <use xlink:href="#m3a80bf47cd" x="90.959375" y="82.12" style="stroke: #000000"/>
      </g>
     </g>
     <g id="line2d_62">
      <g>
       <use xlink:href="#m9309922a43" x="872.159375" y="82.12" style="stroke: #000000"/>
      </g>
     </g>
     <g id="text_12">
      <!-- 0.20 -->
      <g transform="translate(31.795313 91.618047) scale(0.25 -0.25)">
       <use xlink:href="#DejaVuSans-30"/>
       <use xlink:href="#DejaVuSans-2e" transform="translate(63.623047 0)"/>
       <use xlink:href="#DejaVuSans-32" transform="translate(95.410156 0)"/>
       <use xlink:href="#DejaVuSans-30" transform="translate(159.033203 0)"/>
      </g>
     </g>
    </g>
    <g id="ytick_6">
     <g id="line2d_63">
      <defs>
       <path id="m4c40e245b9" d="M 0 0 
L 3 0 
" style="stroke: #000000"/>
      </defs>
      <g>
       <use xlink:href="#m4c40e245b9" x="90.959375" y="456.648" style="stroke: #000000"/>
      </g>
     </g>
     <g id="line2d_64">
      <defs>
       <path id="m0e1ad0bf5d" d="M 0 0 
L -3 0 
" style="stroke: #000000"/>
      </defs>
      <g>
       <use xlink:href="#m0e1ad0bf5d" x="872.159375" y="456.648" style="stroke: #000000"/>
      </g>
     </g>
    </g>
    <g id="ytick_7">
     <g id="line2d_65">
      <g>
       <use xlink:href="#m4c40e245b9" x="90.959375" y="436.936" style="stroke: #000000"/>
      </g>
     </g>
     <g id="line2d_66">
      <g>
       <use xlink:href="#m0e1ad0bf5d" x="872.159375" y="436.936" style="stroke: #000000"/>
      </g>
     </g>
    </g>
    <g id="ytick_8">
     <g id="line2d_67">
      <g>
       <use xlink:href="#m4c40e245b9" x="90.959375" y="417.224" style="stroke: #000000"/>
      </g>
     </g>
     <g id="line2d_68">
      <g>
       <use xlink:href="#m0e1ad0bf5d" x="872.159375" y="417.224" style="stroke: #000000"/>
      </g>
     </g>
    </g>
    <g id="ytick_9">
     <g id="line2d_69">
      <g>
       <use xlink:href="#m4c40e245b9" x="90.959375" y="397.512" style="stroke: #000000"/>
      </g>
     </g>
     <g id="line2d_70">
      <g>
       <use xlink:href="#m0e1ad0bf5d" x="872.159375" y="397.512" style="stroke: #000000"/>
      </g>
     </g>
    </g>
    <g id="ytick_10">
     <g id="line2d_71">
      <g>
       <use xlink:href="#m4c40e245b9" x="90.959375" y="358.088" style="stroke: #000000"/>
      </g>
     </g>
     <g id="line2d_72">
      <g>
       <use xlink:href="#m0e1ad0bf5d" x="872.159375" y="358.088" style="stroke: #000000"/>
      </g>
     </g>
    </g>
    <g id="ytick_11">
     <g id="line2d_73">
      <g>
       <use xlink:href="#m4c40e245b9" x="90.959375" y="338.376" style="stroke: #000000"/>
      </g>
     </g>
     <g id="line2d_74">
      <g>
       <use xlink:href="#m0e1ad0bf5d" x="872.159375" y="338.376" style="stroke: #000000"/>
      </g>
     </g>
    </g>
    <g id="ytick_12">
     <g id="line2d_75">
      <g>
       <use xlink:href="#m4c40e245b9" x="90.959375" y="318.664" style="stroke: #000000"/>
      </g>
     </g>
     <g id="line2d_76">
      <g>
       <use xlink:href="#m0e1ad0bf5d" x="872.159375" y="318.664" style="stroke: #000000"/>
      </g>
     </g>
    </g>
    <g id="ytick_13">
     <g id="line2d_77">
      <g>
       <use xlink:href="#m4c40e245b9" x="90.959375" y="298.952" style="stroke: #000000"/>
      </g>
     </g>
     <g id="line2d_78">
      <g>
       <use xlink:href="#m0e1ad0bf5d" x="872.159375" y="298.952" style="stroke: #000000"/>
      </g>
     </g>
    </g>
    <g id="ytick_14">
     <g id="line2d_79">
      <g>
       <use xlink:href="#m4c40e245b9" x="90.959375" y="259.528" style="stroke: #000000"/>
      </g>
     </g>
     <g id="line2d_80">
      <g>
       <use xlink:href="#m0e1ad0bf5d" x="872.159375" y="259.528" style="stroke: #000000"/>
      </g>
     </g>
    </g>
    <g id="ytick_15">
     <g id="line2d_81">
      <g>
       <use xlink:href="#m4c40e245b9" x="90.959375" y="239.816" style="stroke: #000000"/>
      </g>
     </g>
     <g id="line2d_82">
      <g>
       <use xlink:href="#m0e1ad0bf5d" x="872.159375" y="239.816" style="stroke: #000000"/>
      </g>
     </g>
    </g>
    <g id="ytick_16">
     <g id="line2d_83">
      <g>
       <use xlink:href="#m4c40e245b9" x="90.959375" y="220.104" style="stroke: #000000"/>
      </g>
     </g>
     <g id="line2d_84">
      <g>
       <use xlink:href="#m0e1ad0bf5d" x="872.159375" y="220.104" style="stroke: #000000"/>
      </g>
     </g>
    </g>
    <g id="ytick_17">
     <g id="line2d_85">
      <g>
       <use xlink:href="#m4c40e245b9" x="90.959375" y="200.392" style="stroke: #000000"/>
      </g>
     </g>
     <g id="line2d_86">
      <g>
       <use xlink:href="#m0e1ad0bf5d" x="872.159375" y="200.392" style="stroke: #000000"/>
      </g>
     </g>
    </g>
    <g id="ytick_18">
     <g id="line2d_87">
      <g>
       <use xlink:href="#m4c40e245b9" x="90.959375" y="160.968" style="stroke: #000000"/>
      </g>
     </g>
     <g id="line2d_88">
      <g>
       <use xlink:href="#m0e1ad0bf5d" x="872.159375" y="160.968" style="stroke: #000000"/>
      </g>
     </g>
    </g>
    <g id="ytick_19">
     <g id="line2d_89">
      <g>
       <use xlink:href="#m4c40e245b9" x="90.959375" y="141.256" style="stroke: #000000"/>
      </g>
     </g>
     <g id="line2d_90">
      <g>
       <use xlink:href="#m0e1ad0bf5d" x="872.159375" y="141.256" style="stroke: #000000"/>
      </g>
     </g>
    </g>
    <g id="ytick_20">
     <g id="line2d_91">
      <g>
       <use xlink:href="#m4c40e245b9" x="90.959375" y="121.544" style="stroke: #000000"/>
      </g>
     </g>
     <g id="line2d_92">
      <g>
       <use xlink:href="#m0e1ad0bf5d" x="872.159375" y="121.544" style="stroke: #000000"/>
      </g>
     </g>
    </g>
    <g id="ytick_21">
     <g id="line2d_93">
      <g>
       <use xlink:href="#m4c40e245b9" x="90.959375" y="101.832" style="stroke: #000000"/>
      </g>
     </g>
     <g id="line2d_94">
      <g>
       <use xlink:href="#m0e1ad0bf5d" x="872.159375" y="101.832" style="stroke: #000000"/>
      </g>
     </g>
    </g>
    <g id="ytick_22">
     <g id="line2d_95">
      <g>
       <use xlink:href="#m4c40e245b9" x="90.959375" y="62.408" style="stroke: #000000"/>
      </g>
     </g>
     <g id="line2d_96">
      <g>
       <use xlink:href="#m0e1ad0bf5d" x="872.159375" y="62.408" style="stroke: #000000"/>
      </g>
     </g>
    </g>
    <g id="ytick_23">
     <g id="line2d_97">
      <g>
       <use xlink:href="#m4c40e245b9" x="90.959375" y="42.696" style="stroke: #000000"/>
      </g>
     </g>
     <g id="line2d_98">
      <g>
       <use xlink:href="#m0e1ad0bf5d" x="872.159375" y="42.696" style="stroke: #000000"/>
      </g>
     </g>
    </g>
    <g id="text_13">
     <!-- Excitation probability -->
     <g transform="translate(22.596094 387.189844) rotate(-90) scale(0.25 -0.25)">
      <defs>
       <path id="DejaVuSans-45" d="M 628 4666 
L 3578 4666 
L 3578 4134 
L 1259 4134 
L 1259 2753 
L 3481 2753 
L 3481 2222 
L 1259 2222 
L 1259 531 
L 3634 531 
L 3634 0 
L 628 0 
L 628 4666 
z
" transform="scale(0.015625)"/>
       <path id="DejaVuSans-78" d="M 3513 3500 
L 2247 1797 
L 3578 0 
L 2900 0 
L 1881 1375 
L 863 0 
L 184 0 
L 1544 1831 
L 300 3500 
L 978 3500 
L 1906 2253 
L 2834 3500 
L 3513 3500 
z
" transform="scale(0.015625)"/>
       <path id="DejaVuSans-69" d="M 603 3500 
L 1178 3500 
L 1178 0 
L 603 0 
L 603 3500 
z
M 603 4863 
L 1178 4863 
L 1178 4134 
L 603 4134 
L 603 4863 
z
" transform="scale(0.015625)"/>
       <path id="DejaVuSans-74" d="M 1172 4494 
L 1172 3500 
L 2356 3500 
L 2356 3053 
L 1172 3053 
L 1172 1153 
Q 1172 725 1289 603 
Q 1406 481 1766 481 
L 2356 481 
L 2356 0 
L 1766 0 
Q 1100 0 847 248 
Q 594 497 594 1153 
L 594 3053 
L 172 3053 
L 172 3500 
L 594 3500 
L 594 4494 
L 1172 4494 
z
" transform="scale(0.015625)"/>
       <path id="DejaVuSans-61" d="M 2194 1759 
Q 1497 1759 1228 1600 
Q 959 1441 959 1056 
Q 959 750 1161 570 
Q 1363 391 1709 391 
Q 2188 391 2477 730 
Q 2766 1069 2766 1631 
L 2766 1759 
L 2194 1759 
z
M 3341 1997 
L 3341 0 
L 2766 0 
L 2766 531 
Q 2569 213 2275 61 
Q 1981 -91 1556 -91 
Q 1019 -91 701 211 
Q 384 513 384 1019 
Q 384 1609 779 1909 
Q 1175 2209 1959 2209 
L 2766 2209 
L 2766 2266 
Q 2766 2663 2505 2880 
Q 2244 3097 1772 3097 
Q 1472 3097 1187 3025 
Q 903 2953 641 2809 
L 641 3341 
Q 956 3463 1253 3523 
Q 1550 3584 1831 3584 
Q 2591 3584 2966 3190 
Q 3341 2797 3341 1997 
z
" transform="scale(0.015625)"/>
       <path id="DejaVuSans-6f" d="M 1959 3097 
Q 1497 3097 1228 2736 
Q 959 2375 959 1747 
Q 959 1119 1226 758 
Q 1494 397 1959 397 
Q 2419 397 2687 759 
Q 2956 1122 2956 1747 
Q 2956 2369 2687 2733 
Q 2419 3097 1959 3097 
z
M 1959 3584 
Q 2709 3584 3137 3096 
Q 3566 2609 3566 1747 
Q 3566 888 3137 398 
Q 2709 -91 1959 -91 
Q 1206 -91 779 398 
Q 353 888 353 1747 
Q 353 2609 779 3096 
Q 1206 3584 1959 3584 
z
" transform="scale(0.015625)"/>
       <path id="DejaVuSans-70" d="M 1159 525 
L 1159 -1331 
L 581 -1331 
L 581 3500 
L 1159 3500 
L 1159 2969 
Q 1341 3281 1617 3432 
Q 1894 3584 2278 3584 
Q 2916 3584 3314 3078 
Q 3713 2572 3713 1747 
Q 3713 922 3314 415 
Q 2916 -91 2278 -91 
Q 1894 -91 1617 61 
Q 1341 213 1159 525 
z
M 3116 1747 
Q 3116 2381 2855 2742 
Q 2594 3103 2138 3103 
Q 1681 3103 1420 2742 
Q 1159 2381 1159 1747 
Q 1159 1113 1420 752 
Q 1681 391 2138 391 
Q 2594 391 2855 752 
Q 3116 1113 3116 1747 
z
" transform="scale(0.015625)"/>
       <path id="DejaVuSans-62" d="M 3116 1747 
Q 3116 2381 2855 2742 
Q 2594 3103 2138 3103 
Q 1681 3103 1420 2742 
Q 1159 2381 1159 1747 
Q 1159 1113 1420 752 
Q 1681 391 2138 391 
Q 2594 391 2855 752 
Q 3116 1113 3116 1747 
z
M 1159 2969 
Q 1341 3281 1617 3432 
Q 1894 3584 2278 3584 
Q 2916 3584 3314 3078 
Q 3713 2572 3713 1747 
Q 3713 922 3314 415 
Q 2916 -91 2278 -91 
Q 1894 -91 1617 61 
Q 1341 213 1159 525 
L 1159 0 
L 581 0 
L 581 4863 
L 1159 4863 
L 1159 2969 
z
" transform="scale(0.015625)"/>
       <path id="DejaVuSans-6c" d="M 603 4863 
L 1178 4863 
L 1178 0 
L 603 0 
L 603 4863 
z
" transform="scale(0.015625)"/>
      </defs>
      <use xlink:href="#DejaVuSans-45"/>
      <use xlink:href="#DejaVuSans-78" transform="translate(63.183594 0)"/>
      <use xlink:href="#DejaVuSans-63" transform="translate(120.613281 0)"/>
      <use xlink:href="#DejaVuSans-69" transform="translate(175.59375 0)"/>
      <use xlink:href="#DejaVuSans-74" transform="translate(203.376953 0)"/>
      <use xlink:href="#DejaVuSans-61" transform="translate(242.585938 0)"/>
      <use xlink:href="#DejaVuSans-74" transform="translate(303.865234 0)"/>
      <use xlink:href="#DejaVuSans-69" transform="translate(343.074219 0)"/>
      <use xlink:href="#DejaVuSans-6f" transform="translate(370.857422 0)"/>
      <use xlink:href="#DejaVuSans-6e" transform="translate(432.039062 0)"/>
      <use xlink:href="#DejaVuSans-20" transform="translate(495.417969 0)"/>
      <use xlink:href="#DejaVuSans-70" transform="translate(527.205078 0)"/>
      <use xlink:href="#DejaVuSans-72" transform="translate(590.681641 0)"/>
      <use xlink:href="#DejaVuSans-6f" transform="translate(629.544922 0)"/>
      <use xlink:href="#DejaVuSans-62" transform="translate(690.726562 0)"/>
      <use xlink:href="#DejaVuSans-61" transform="translate(754.203125 0)"/>
      <use xlink:href="#DejaVuSans-62" transform="translate(815.482422 0)"/>
      <use xlink:href="#DejaVuSans-69" transform="translate(878.958984 0)"/>
      <use xlink:href="#DejaVuSans-6c" transform="translate(906.742188 0)"/>
      <use xlink:href="#DejaVuSans-69" transform="translate(934.525391 0)"/>
      <use xlink:href="#DejaVuSans-74" transform="translate(962.308594 0)"/>
      <use xlink:href="#DejaVuSans-79" transform="translate(1001.517578 0)"/>
     </g>
    </g>
   </g>
   <g id="line2d_99">
    <path d="M 90.959375 476.109201 
L 92.523339 476.016253 
L 94.087303 476.037902 
L 95.651267 472.222124 
L 97.215231 475.348096 
L 98.779195 475.188142 
L 100.343159 476.201737 
L 101.907123 449.634588 
L 103.471087 475.817487 
L 105.035051 476.044588 
L 106.599015 457.967997 
L 108.162979 473.913193 
L 109.726943 476.166956 
L 111.290907 475.365561 
L 114.418834 475.062781 
L 115.982798 462.752531 
L 117.546762 475.689483 
L 119.110726 476.16382 
L 120.67469 450.879526 
L 122.238654 476.109561 
L 123.802618 475.787344 
L 125.366582 475.964974 
L 126.930546 456.153233 
L 128.49451 473.291146 
L 130.058474 475.837138 
L 131.622438 437.667192 
L 133.186402 474.867965 
L 134.750366 475.660247 
L 136.31433 474.49979 
L 137.878294 475.232471 
L 139.442258 476.213195 
L 141.006222 476.185899 
L 142.570186 470.638301 
L 144.13415 475.870718 
L 145.698114 475.736041 
L 147.262078 475.805574 
L 148.826042 475.634144 
L 150.390006 474.589323 
L 151.95397 474.343476 
L 153.517934 475.962643 
L 155.081898 469.590196 
L 156.645861 475.495672 
L 158.209825 473.28544 
L 159.773789 457.296755 
L 161.337753 475.527671 
L 162.901717 475.281877 
L 164.465681 475.15942 
L 166.029645 476.05856 
L 167.593609 475.961268 
L 170.721537 475.048853 
L 172.285501 457.00326 
L 173.849465 476.050317 
L 175.413429 475.781371 
L 176.977393 476.162733 
L 178.541357 475.997849 
L 180.105321 401.487866 
L 181.669285 435.949074 
L 183.233249 475.806352 
L 184.797213 475.937419 
L 186.361177 448.133184 
L 187.925141 475.866852 
L 189.489105 475.681158 
L 191.053069 440.903113 
L 192.617033 475.095274 
L 194.180997 472.995247 
L 195.744961 471.154297 
L 197.308925 462.106516 
L 198.872889 476.131732 
L 200.436852 461.353961 
L 202.000816 474.93955 
L 203.56478 476.105659 
L 205.128744 476.162254 
L 206.692708 473.288953 
L 208.256672 474.361763 
L 209.820636 475.639406 
L 211.3846 474.237573 
L 212.948564 475.983168 
L 214.512528 445.183032 
L 216.076492 438.691211 
L 217.640456 475.628958 
L 219.20442 474.368563 
L 220.768384 475.755423 
L 222.332348 476.106827 
L 223.896312 476.130924 
L 225.460276 467.018036 
L 227.02424 474.84623 
L 228.588204 475.466481 
L 230.152168 474.508093 
L 231.716132 475.91684 
L 233.280096 474.377136 
L 234.84406 429.403109 
L 236.408024 472.096862 
L 237.971988 449.008767 
L 239.535952 475.169028 
L 241.099916 475.652455 
L 244.227843 474.513389 
L 245.791807 475.803768 
L 247.355771 475.260934 
L 248.919735 403.651513 
L 250.483699 397.036594 
L 252.047663 476.068733 
L 253.611627 475.39496 
L 255.175591 445.813133 
L 256.739555 475.826576 
L 258.303519 474.588539 
L 259.867483 475.407039 
L 261.431447 474.764898 
L 264.559375 475.425793 
L 266.123339 473.274839 
L 267.687303 475.50438 
L 269.251267 433.202628 
L 270.815231 475.844566 
L 272.379195 473.617157 
L 273.943159 475.983778 
L 275.507123 473.575568 
L 277.071087 475.117955 
L 278.635051 468.041625 
L 280.199015 475.004952 
L 281.762979 470.655394 
L 283.326943 475.797738 
L 284.890907 475.876456 
L 286.45487 438.25525 
L 288.018834 473.969895 
L 289.582798 475.413932 
L 291.146762 476.052891 
L 294.27469 476.053195 
L 295.838654 405.973854 
L 297.402618 472.800272 
L 298.966582 474.834057 
L 300.530546 464.271973 
L 302.09451 475.435171 
L 303.658474 473.663514 
L 305.222438 474.977835 
L 306.786402 475.144594 
L 308.350366 474.755879 
L 309.91433 475.589892 
L 311.478294 474.815244 
L 313.042258 469.18402 
L 314.606222 474.894111 
L 316.170186 475.949359 
L 317.73415 470.757156 
L 319.298114 474.348532 
L 320.862078 475.373512 
L 322.426042 475.877103 
L 323.990006 474.756307 
L 325.55397 417.142305 
L 327.117934 465.381458 
L 328.681898 473.211327 
L 330.245861 475.601165 
L 331.809825 475.675343 
L 333.373789 475.019015 
L 334.937753 475.284213 
L 336.501717 475.706125 
L 338.065681 383.81608 
L 339.629645 473.875097 
L 341.193609 475.305528 
L 344.321537 470.386512 
L 345.885501 462.663725 
L 347.449465 475.850686 
L 349.013429 473.97977 
L 350.577393 475.950626 
L 352.141357 425.060522 
L 353.705321 462.159386 
L 355.269285 474.453263 
L 356.833249 475.921769 
L 358.397213 440.308224 
L 359.961177 473.806703 
L 361.525141 472.829285 
L 363.089105 411.016986 
L 364.653069 473.648825 
L 366.217033 415.812778 
L 367.780997 475.976212 
L 369.344961 384.307213 
L 370.908925 465.658326 
L 372.472889 472.747402 
L 374.036852 475.868807 
L 375.600816 475.950383 
L 377.16478 475.302037 
L 378.728744 474.26544 
L 380.292708 476.00285 
L 381.856672 473.794041 
L 383.420636 402.726829 
L 384.9846 475.228292 
L 386.548564 475.034784 
L 388.112528 475.609527 
L 389.676492 475.481813 
L 391.240456 472.23471 
L 392.80442 474.422709 
L 394.368384 467.219695 
L 395.932348 473.276495 
L 397.496312 470.752455 
L 399.060276 474.535079 
L 400.62424 421.142673 
L 402.188204 474.637373 
L 403.752168 474.40604 
L 405.316132 474.907403 
L 406.880096 475.654166 
L 408.44406 467.51637 
L 410.008024 390.216419 
L 411.571988 475.603847 
L 413.135952 473.390729 
L 414.699916 409.858721 
L 416.26388 475.292638 
L 417.827843 473.772604 
L 419.391807 471.316073 
L 420.955771 471.754899 
L 422.519735 470.769404 
L 424.083699 472.803568 
L 425.647663 468.395565 
L 427.211627 475.128422 
L 428.775591 467.702386 
L 430.339555 470.293139 
L 431.903519 418.85925 
L 433.467483 473.42543 
L 435.031447 469.463036 
L 436.595411 474.946463 
L 438.159375 472.009919 
L 439.723339 473.901284 
L 441.287303 473.150616 
L 442.851267 464.993599 
L 444.415231 473.884662 
L 445.979195 475.611639 
L 447.543159 475.223695 
L 449.107123 472.172962 
L 452.235051 475.686847 
L 453.799015 473.96282 
L 455.362979 475.23769 
L 456.926943 474.708451 
L 458.490907 473.534826 
L 460.05487 474.934755 
L 461.618834 475.339036 
L 463.182798 472.477353 
L 464.746762 473.223215 
L 466.310726 465.485232 
L 467.87469 423.313975 
L 469.438654 475.592875 
L 471.002618 474.501855 
L 472.566582 472.670717 
L 474.130546 466.512206 
L 475.69451 474.446783 
L 477.258474 475.500484 
L 478.822438 468.816108 
L 480.386402 474.664456 
L 481.950366 475.121505 
L 483.51433 455.816811 
L 485.078294 464.635253 
L 486.642258 467.517091 
L 488.206222 440.021597 
L 489.770186 464.115404 
L 491.33415 403.749869 
L 492.898114 471.534979 
L 494.462078 472.795845 
L 496.026042 460.12548 
L 497.590006 434.987802 
L 499.15397 422.499138 
L 500.717934 474.772009 
L 502.281898 471.876174 
L 503.845861 472.960787 
L 505.409825 473.274714 
L 506.973789 473.097053 
L 508.537753 475.025413 
L 510.101717 471.339537 
L 511.665681 473.258663 
L 513.229645 476.205684 
L 514.793609 475.204079 
L 516.357573 475.866683 
L 519.485501 474.896744 
L 521.049465 473.130953 
L 522.613429 468.123909 
L 524.177393 470.62966 
L 525.741357 468.088299 
L 527.305321 472.701567 
L 528.869285 475.617982 
L 530.433249 475.596004 
L 531.997213 402.727272 
L 533.561177 469.916573 
L 535.125141 442.856904 
L 536.689105 475.888007 
L 538.253069 475.368792 
L 539.817033 473.600915 
L 541.380997 471.190958 
L 542.944961 475.744078 
L 544.508925 471.684103 
L 546.072889 471.091844 
L 547.636852 466.948228 
L 549.200816 474.917259 
L 550.76478 470.435344 
L 552.328744 471.784617 
L 553.892708 475.332559 
L 555.456672 466.343319 
L 557.020636 471.883252 
L 558.5846 470.045339 
L 560.148564 475.773352 
L 561.712528 474.357977 
L 563.276492 474.074985 
L 564.840456 472.915821 
L 566.40442 473.964804 
L 567.968384 474.670834 
L 569.532348 474.648055 
L 571.096312 475.964025 
L 572.660276 466.364802 
L 574.22424 475.551504 
L 575.788204 453.350081 
L 577.352168 446.011988 
L 578.916132 476.214112 
L 580.480096 475.432959 
L 582.04406 474.281137 
L 583.608024 473.738363 
L 585.171988 471.230796 
L 586.735952 475.8749 
L 588.299916 473.286947 
L 589.86388 475.852335 
L 591.427843 475.259823 
L 592.991807 475.811809 
L 594.555771 474.028835 
L 596.119735 459.381688 
L 597.683699 466.326565 
L 599.247663 443.796005 
L 600.811627 469.542274 
L 602.375591 475.457983 
L 603.939555 475.80612 
L 605.503519 443.320661 
L 607.067483 472.888958 
L 608.631447 475.962269 
L 610.195411 473.329849 
L 611.759375 473.496589 
L 613.323339 476.203876 
L 614.887303 472.663069 
L 616.451267 474.825879 
L 618.015231 475.974406 
L 619.579195 454.366392 
L 621.143159 461.757702 
L 622.707123 473.145683 
L 624.271087 475.688148 
L 625.835051 476.023235 
L 627.399015 475.460133 
L 628.962979 475.718484 
L 630.526943 475.230182 
L 632.090907 475.891507 
L 633.65487 475.009357 
L 635.218834 469.113848 
L 636.782798 476.02522 
L 638.346762 475.348004 
L 639.910726 475.876502 
L 641.47469 476.13751 
L 643.038654 476.061865 
L 646.166582 475.269338 
L 647.730546 475.448157 
L 650.858474 476.127967 
L 652.422438 476.074778 
L 653.986402 475.782578 
L 655.550366 475.850333 
L 657.11433 475.504913 
L 658.678294 476.002017 
L 660.242258 474.733154 
L 661.806222 475.978421 
L 663.370186 475.526367 
L 664.93415 476.175662 
L 666.498114 475.162775 
L 668.062078 476.065289 
L 669.626042 476.114105 
L 671.190006 475.739758 
L 672.75397 475.509595 
L 674.317934 475.910516 
L 675.881898 475.730158 
L 677.445861 476.084407 
L 679.009825 475.873746 
L 680.573789 476.103837 
L 682.137753 476.152142 
L 683.701717 475.930845 
L 685.265681 476.098153 
L 686.829645 475.976948 
L 688.393609 475.645226 
L 689.957573 476.08669 
L 691.521537 475.80819 
L 693.085501 475.84528 
L 694.649465 476.069378 
L 696.213429 475.616541 
L 697.777393 476.060915 
L 699.341357 476.095683 
L 702.469285 475.777823 
L 704.033249 476.142235 
L 708.725141 475.956267 
L 710.289105 476.185189 
L 711.853069 475.971553 
L 714.980997 476.046623 
L 716.544961 476.185165 
L 718.108925 475.698811 
L 719.672889 476.020921 
L 722.800816 475.940962 
L 724.36478 476.136887 
L 730.620636 475.903394 
L 732.1846 476.109686 
L 733.748564 475.882423 
L 735.312528 476.026478 
L 738.440456 475.204942 
L 740.00442 475.964346 
L 741.568384 476.112082 
L 743.132348 475.288406 
L 744.696312 476.092299 
L 746.260276 475.21603 
L 747.82424 475.803922 
L 749.388204 475.662598 
L 750.952168 475.983705 
L 752.516132 476.126398 
L 754.080096 475.87145 
L 755.64406 474.977386 
L 757.208024 475.829371 
L 758.771988 475.452978 
L 760.335952 475.610696 
L 761.899916 475.319333 
L 763.46388 475.64134 
L 765.027843 475.716583 
L 768.155771 475.546958 
L 769.719735 475.216167 
L 771.283699 474.388698 
L 772.847663 475.897695 
L 774.411627 475.340694 
L 775.975591 468.023092 
L 777.539555 475.290701 
L 779.103519 473.308563 
L 780.667483 473.981867 
L 782.231447 474.994888 
L 783.795411 474.734938 
L 785.359375 471.024532 
L 786.923339 465.964607 
L 788.487303 474.538121 
L 790.051267 473.424367 
L 791.615231 465.58176 
L 793.179195 468.019657 
L 794.743159 466.055415 
L 796.307123 465.569969 
L 797.871087 474.788981 
L 799.435051 468.246003 
L 800.999015 474.093243 
L 802.562979 469.129456 
L 804.126943 474.012406 
L 805.690907 469.693191 
L 807.25487 473.983105 
L 808.818834 472.434895 
L 810.382798 473.761793 
L 811.946762 473.900988 
L 813.510726 473.166133 
L 815.07469 474.302927 
L 816.638654 473.331179 
L 819.766582 474.94809 
L 821.330546 474.378485 
L 822.89451 474.547144 
L 824.458474 474.494924 
L 826.022438 474.907212 
L 829.150366 474.180128 
L 830.71433 474.448345 
L 833.842258 474.554708 
L 835.406222 474.207431 
L 836.970186 475.102216 
L 838.53415 475.040874 
L 840.098114 475.247397 
L 841.662078 474.926771 
L 843.226042 475.755542 
L 844.790006 475.900468 
L 847.917934 475.701104 
L 851.045861 475.711139 
L 852.609825 475.625987 
L 854.173789 475.923438 
L 865.121537 476.036142 
L 866.685501 475.792254 
L 868.249465 476.024642 
L 869.813429 475.898599 
L 874.505321 476.139319 
L 879.197213 476.07904 
L 882.325141 476.098129 
L 883.889105 475.936423 
L 890.144961 476.183234 
L 891.708925 476.058207 
L 893.272889 476.049999 
L 894.836852 475.847771 
L 896.400816 476.168561 
L 897.96478 476.051768 
L 899.528744 476.130417 
L 901.092708 475.869537 
L 902.656672 476.011576 
L 904.591406 475.928922 
L 904.591406 475.928922 
" clip-path="url(#pcf0816c7f0)" style="fill: none; stroke: #0000ff; stroke-width: 3; stroke-linecap: square"/>
   </g>
   <g id="line2d_100">
    <path d="M 90.959375 475.56453 
L 94.087303 474.345135 
L 95.651267 473.94633 
L 97.215231 473.919147 
L 98.779195 474.3203 
L 101.907123 475.812125 
L 103.471087 476.19548 
L 105.035051 475.70838 
L 106.599015 473.918713 
L 108.162979 470.572985 
L 109.726943 465.696033 
L 111.290907 459.637622 
L 114.418834 446.779766 
L 115.982798 441.73671 
L 117.546762 438.695755 
L 119.110726 438.148122 
L 120.67469 440.193948 
L 122.238654 444.517549 
L 123.802618 450.450228 
L 126.930546 463.562654 
L 128.49451 469.033872 
L 130.058474 473.012843 
L 131.622438 475.336628 
L 133.186402 476.172823 
L 134.750366 475.933789 
L 137.878294 474.309494 
L 139.442258 473.786826 
L 141.006222 473.740641 
L 142.570186 474.13552 
L 145.698114 475.471677 
L 147.262078 475.965556 
L 148.826042 476.158155 
L 150.390006 476.05245 
L 155.081898 475.184127 
L 156.645861 475.151097 
L 158.209825 475.317923 
L 162.901717 476.108467 
L 164.465681 476.13401 
L 167.593609 475.746174 
L 170.721537 475.363667 
L 172.285501 475.38133 
L 175.413429 475.797557 
L 176.977393 476.024221 
L 178.541357 476.132122 
L 180.105321 476.068952 
L 183.233249 475.549494 
L 184.797213 475.283745 
L 186.361177 475.157175 
L 187.925141 475.225502 
L 194.180997 476.155848 
L 195.744961 475.990657 
L 197.308925 475.59191 
L 200.436852 474.610897 
L 202.000816 474.375826 
L 203.56478 474.472852 
L 205.128744 474.886465 
L 208.256672 475.976671 
L 209.820636 476.145372 
L 211.3846 475.788425 
L 212.948564 474.880252 
L 216.076492 472.286415 
L 217.640456 471.379981 
L 219.20442 471.241216 
L 220.768384 472.01475 
L 222.332348 473.508607 
L 223.896312 475.158251 
L 225.460276 476.096772 
L 227.02424 475.328345 
L 228.588204 471.971776 
L 230.152168 465.51698 
L 231.716132 456.027049 
L 233.280096 444.226233 
L 236.408024 419.379963 
L 237.971988 409.837795 
L 239.535952 404.31605 
L 241.099916 403.720123 
L 242.66388 408.161832 
L 244.227843 416.931149 
L 245.791807 428.643152 
L 248.919735 453.780295 
L 250.483699 463.92868 
L 252.047663 471.069966 
L 253.611627 474.989868 
L 255.175591 476.109017 
L 256.739555 475.294788 
L 259.867483 471.963151 
L 261.431447 471.054436 
L 262.995411 471.120424 
L 264.559375 472.032634 
L 267.687303 474.754314 
L 269.251267 475.694088 
L 270.815231 476.025262 
L 272.379195 475.783627 
L 275.507123 474.555576 
L 277.071087 474.150386 
L 278.635051 474.125257 
L 280.199015 474.466502 
L 283.326943 475.566689 
L 284.890907 475.904007 
L 286.45487 475.928658 
L 288.018834 475.665531 
L 291.146762 474.871712 
L 292.710726 474.691536 
L 294.27469 474.783914 
L 298.966582 475.843588 
L 300.530546 475.934359 
L 302.09451 475.740832 
L 306.786402 474.528725 
L 308.350366 474.4743 
L 309.91433 474.732445 
L 313.042258 475.689457 
L 314.606222 475.958969 
L 316.170186 475.848575 
L 317.73415 475.332465 
L 320.862078 473.763761 
L 322.426042 473.274585 
L 323.990006 473.295275 
L 325.55397 473.854914 
L 328.681898 475.624334 
L 330.245861 476.01337 
L 331.809825 475.582787 
L 333.373789 474.242005 
L 336.501717 470.099981 
L 338.065681 468.54078 
L 339.629645 468.170576 
L 341.193609 469.266285 
L 342.757573 471.573084 
L 344.321537 474.246986 
L 345.885501 475.973395 
L 347.449465 475.251976 
L 349.013429 470.786569 
L 350.577393 461.881098 
L 352.141357 448.73083 
L 356.833249 399.495602 
L 358.397213 387.680639 
L 359.961177 381.764994 
L 361.525141 382.723242 
L 363.089105 390.357524 
L 364.653069 403.350655 
L 369.344961 451.826615 
L 370.908925 463.805991 
L 372.472889 471.578506 
L 374.036852 475.206621 
L 375.600816 475.514642 
L 377.16478 473.777992 
L 378.728744 471.356539 
L 380.292708 469.369175 
L 381.856672 468.484366 
L 383.420636 468.861374 
L 384.9846 470.232282 
L 388.112528 473.839318 
L 389.676492 475.083914 
L 391.240456 475.61469 
L 392.80442 475.477495 
L 394.368384 474.899356 
L 395.932348 474.185018 
L 397.496312 473.611739 
L 399.060276 473.35425 
L 400.62424 473.456052 
L 402.188204 473.845498 
L 405.316132 474.908341 
L 406.880096 475.300128 
L 408.44406 475.486176 
L 410.008024 475.45473 
L 411.571988 475.242207 
L 416.26388 474.25628 
L 417.827843 474.080502 
L 419.391807 474.083322 
L 420.955771 474.278559 
L 425.647663 475.407813 
L 427.211627 475.563941 
L 428.775591 475.413252 
L 430.339555 474.930202 
L 435.031447 472.781771 
L 436.595411 472.56866 
L 438.159375 472.878214 
L 439.723339 473.652782 
L 441.287303 474.641159 
L 442.851267 475.448363 
L 444.415231 475.649038 
L 445.979195 474.936026 
L 447.543159 473.257261 
L 450.671087 468.408703 
L 452.235051 466.550136 
L 453.799015 465.978301 
L 455.362979 467.032654 
L 456.926943 469.524353 
L 458.490907 472.660139 
L 460.05487 475.13949 
L 461.618834 475.424416 
L 463.182798 472.12863 
L 464.746762 464.430411 
L 466.310726 452.395184 
L 467.87469 437.107464 
L 469.438654 420.555919 
L 471.002618 405.279038 
L 472.566582 393.845017 
L 474.130546 388.28881 
L 475.69451 389.647018 
L 477.258474 397.710895 
L 478.822438 411.063868 
L 481.950366 444.022969 
L 483.51433 458.460705 
L 485.078294 468.941974 
L 486.642258 474.721288 
L 488.206222 476.121328 
L 489.770186 474.320504 
L 492.898114 467.659013 
L 494.462078 465.651372 
L 496.026042 465.500501 
L 497.590006 467.08464 
L 500.717934 472.606226 
L 502.281898 474.822733 
L 503.845861 475.896449 
L 505.409825 475.757885 
L 506.973789 474.736034 
L 508.537753 473.39816 
L 510.101717 472.331221 
L 511.665681 471.941952 
L 513.229645 472.339321 
L 514.793609 473.330413 
L 516.357573 474.520645 
L 517.921537 475.475046 
L 519.485501 475.880024 
L 521.049465 475.649164 
L 522.613429 474.939624 
L 524.177393 474.078772 
L 525.741357 473.432184 
L 527.305321 473.263394 
L 528.869285 473.636644 
L 533.561177 475.796306 
L 535.125141 475.840878 
L 536.689105 475.315785 
L 539.817033 473.409156 
L 541.380997 472.741027 
L 542.944961 472.663433 
L 544.508925 473.235072 
L 547.636852 475.332941 
L 549.200816 475.982173 
L 550.76478 475.824339 
L 552.328744 474.7193 
L 553.892708 472.845382 
L 555.456672 470.672222 
L 557.020636 468.831029 
L 558.5846 467.917388 
L 560.148564 468.285928 
L 561.712528 469.902467 
L 564.840456 474.694246 
L 566.40442 476.134609 
L 567.968384 475.814341 
L 569.532348 473.290603 
L 571.096312 468.648752 
L 575.788204 450.287379 
L 577.352168 446.561805 
L 578.916132 445.563152 
L 580.480096 447.474967 
L 582.04406 451.875172 
L 586.735952 469.812889 
L 588.299916 473.769649 
L 589.86388 475.670157 
L 591.427843 475.612458 
L 592.991807 474.126104 
L 596.119735 470.014155 
L 597.683699 468.818082 
L 599.247663 468.709601 
L 600.811627 469.642304 
L 602.375591 471.280951 
L 603.939555 473.136148 
L 605.503519 474.724346 
L 607.067483 475.705258 
L 608.631447 475.960236 
L 610.195411 475.596056 
L 613.323339 474.146269 
L 614.887303 473.669218 
L 616.451267 473.603389 
L 618.015231 473.944257 
L 622.707123 475.740106 
L 624.271087 475.982017 
L 625.835051 475.921192 
L 632.090907 474.863456 
L 633.65487 474.961732 
L 639.910726 475.921578 
L 641.47469 475.864013 
L 647.730546 475.168317 
L 649.29451 475.26093 
L 655.550366 476.120883 
L 657.11433 476.1003 
L 660.242258 475.738875 
L 663.370186 475.438348 
L 664.93415 475.462812 
L 668.062078 475.821658 
L 671.190006 476.160167 
L 672.75397 476.169972 
L 675.881898 475.865361 
L 679.009825 475.507847 
L 680.573789 475.46183 
L 683.701717 475.694672 
L 686.829645 476.063067 
L 689.957573 476.157048 
L 697.777393 475.802336 
L 705.597213 476.147819 
L 713.417033 475.886222 
L 721.236852 476.123178 
L 727.492708 475.858145 
L 732.1846 476.039269 
L 735.312528 476.111134 
L 740.00442 475.855663 
L 743.132348 475.747277 
L 747.82424 475.971428 
L 750.952168 476.014705 
L 754.080096 475.75217 
L 757.208024 475.437717 
L 760.335952 475.446898 
L 765.027843 475.819982 
L 766.591807 475.769854 
L 768.155771 475.546802 
L 771.283699 474.708254 
L 772.847663 474.27593 
L 774.411627 473.986318 
L 775.975591 473.919689 
L 777.539555 474.089167 
L 780.667483 474.783117 
L 782.231447 474.975953 
L 783.795411 474.821414 
L 785.359375 474.194278 
L 786.923339 473.067502 
L 788.487303 471.530687 
L 791.615231 468.077895 
L 793.179195 466.701253 
L 794.743159 465.876103 
L 796.307123 465.730218 
L 797.871087 466.26637 
L 799.435051 467.365552 
L 804.126943 471.797098 
L 805.690907 472.917001 
L 807.25487 473.653027 
L 808.818834 474.02029 
L 810.382798 474.109692 
L 815.07469 473.986283 
L 818.202618 474.345599 
L 821.330546 474.866382 
L 822.89451 475.011432 
L 824.458474 475.021586 
L 827.586402 474.700204 
L 830.71433 474.322783 
L 832.278294 474.277429 
L 833.842258 474.37182 
L 836.970186 474.906075 
L 840.098114 475.54965 
L 843.226042 475.896482 
L 846.35397 475.874201 
L 851.045861 475.701041 
L 854.173789 475.791311 
L 860.429645 476.07468 
L 872.941357 476.063468 
L 877.633249 476.14262 
L 887.017033 475.994725 
L 894.836852 476.147395 
L 904.220636 475.891493 
L 904.591406 475.910856 
L 904.591406 475.910856 
" clip-path="url(#pcf0816c7f0)" style="fill: none; stroke: #ffa500; stroke-width: 3; stroke-linecap: square"/>
   </g>
   <g id="line2d_101">
    <path d="M 840.911375 476.36 
L 840.911375 32.84 
" clip-path="url(#pcf0816c7f0)" style="fill: none; stroke-dasharray: 11.1,4.8; stroke-dashoffset: 0; stroke: #000000; stroke-width: 3"/>
   </g>
   <g id="line2d_102">
    <path d="M 778.415375 476.36 
L 778.415375 32.84 
" clip-path="url(#pcf0816c7f0)" style="fill: none; stroke-dasharray: 11.1,4.8; stroke-dashoffset: 0; stroke: #000000; stroke-width: 3"/>
   </g>
   <g id="patch_17">
    <path d="M 90.959375 476.36 
L 90.959375 32.84 
" style="fill: none; stroke: #000000; stroke-linejoin: miter; stroke-linecap: square"/>
   </g>
   <g id="patch_18">
    <path d="M 872.159375 476.36 
L 872.159375 32.84 
" style="fill: none; stroke: #000000; stroke-linejoin: miter; stroke-linecap: square"/>
   </g>
   <g id="patch_19">
    <path d="M 90.959375 476.36 
L 872.159375 476.36 
" style="fill: none; stroke: #000000; stroke-linejoin: miter; stroke-linecap: square"/>
   </g>
   <g id="patch_20">
    <path d="M 90.959375 32.84 
L 872.159375 32.84 
" style="fill: none; stroke: #000000; stroke-linejoin: miter; stroke-linecap: square"/>
   </g>
   <g id="text_14">
    <!-- J=1 -->
    <g style="fill: #ff0000; opacity: 0.8" transform="translate(696.133592 342.587968) scale(0.25 -0.25)">
     <defs>
      <path id="DejaVuSans-4a" d="M 628 4666 
L 1259 4666 
L 1259 325 
Q 1259 -519 939 -900 
Q 619 -1281 -91 -1281 
L -331 -1281 
L -331 -750 
L -134 -750 
Q 284 -750 456 -515 
Q 628 -281 628 325 
L 628 4666 
z
" transform="scale(0.015625)"/>
      <path id="DejaVuSans-3d" d="M 678 2906 
L 4684 2906 
L 4684 2381 
L 678 2381 
L 678 2906 
z
M 678 1631 
L 4684 1631 
L 4684 1100 
L 678 1100 
L 678 1631 
z
" transform="scale(0.015625)"/>
     </defs>
     <use xlink:href="#DejaVuSans-4a"/>
     <use xlink:href="#DejaVuSans-3d" transform="translate(29.492188 0)"/>
     <use xlink:href="#DejaVuSans-31" transform="translate(113.28125 0)"/>
    </g>
   </g>
   <g id="text_15">
    <!-- J=2 -->
    <g style="fill: #ff0000; opacity: 0.8" transform="translate(640.431743 275.548557) scale(0.25 -0.25)">
     <use xlink:href="#DejaVuSans-4a"/>
     <use xlink:href="#DejaVuSans-3d" transform="translate(29.492188 0)"/>
     <use xlink:href="#DejaVuSans-32" transform="translate(113.28125 0)"/>
    </g>
   </g>
   <g id="text_16">
    <!-- J=3 -->
    <g style="fill: #ff0000; opacity: 0.8" transform="translate(556.634861 232.313023) scale(0.25 -0.25)">
     <use xlink:href="#DejaVuSans-4a"/>
     <use xlink:href="#DejaVuSans-3d" transform="translate(29.492188 0)"/>
     <use xlink:href="#DejaVuSans-33" transform="translate(113.28125 0)"/>
    </g>
   </g>
   <g id="text_17">
    <!-- J=4 -->
    <g style="fill: #ff0000; opacity: 0.8" transform="translate(452.452346 215.265765) scale(0.25 -0.25)">
     <use xlink:href="#DejaVuSans-4a"/>
     <use xlink:href="#DejaVuSans-3d" transform="translate(29.492188 0)"/>
     <use xlink:href="#DejaVuSans-34" transform="translate(113.28125 0)"/>
    </g>
   </g>
   <g id="text_18">
    <!-- J=5 -->
    <g style="fill: #ff0000; opacity: 0.8" transform="translate(338.449149 222.156255) scale(0.25 -0.25)">
     <use xlink:href="#DejaVuSans-4a"/>
     <use xlink:href="#DejaVuSans-3d" transform="translate(29.492188 0)"/>
     <use xlink:href="#DejaVuSans-35" transform="translate(113.28125 0)"/>
    </g>
   </g>
   <g id="text_19">
    <!-- J=6 -->
    <g style="fill: #ff0000; opacity: 0.8" transform="translate(218.363466 247.313309) scale(0.25 -0.25)">
     <defs>
      <path id="DejaVuSans-36" d="M 2113 2584 
Q 1688 2584 1439 2293 
Q 1191 2003 1191 1497 
Q 1191 994 1439 701 
Q 1688 409 2113 409 
Q 2538 409 2786 701 
Q 3034 994 3034 1497 
Q 3034 2003 2786 2293 
Q 2538 2584 2113 2584 
z
M 3366 4563 
L 3366 3988 
Q 3128 4100 2886 4159 
Q 2644 4219 2406 4219 
Q 1781 4219 1451 3797 
Q 1122 3375 1075 2522 
Q 1259 2794 1537 2939 
Q 1816 3084 2150 3084 
Q 2853 3084 3261 2657 
Q 3669 2231 3669 1497 
Q 3669 778 3244 343 
Q 2819 -91 2113 -91 
Q 1303 -91 875 529 
Q 447 1150 447 2328 
Q 447 3434 972 4092 
Q 1497 4750 2381 4750 
Q 2619 4750 2861 4703 
Q 3103 4656 3366 4563 
z
" transform="scale(0.015625)"/>
     </defs>
     <use xlink:href="#DejaVuSans-4a"/>
     <use xlink:href="#DejaVuSans-3d" transform="translate(29.492188 0)"/>
     <use xlink:href="#DejaVuSans-36" transform="translate(113.28125 0)"/>
    </g>
   </g>
   <g id="text_20">
    <!-- J=7 -->
    <g style="fill: #ff0000; opacity: 0.8" transform="translate(96.504828 283.448178) scale(0.25 -0.25)">
     <defs>
      <path id="DejaVuSans-37" d="M 525 4666 
L 3525 4666 
L 3525 4397 
L 1831 0 
L 1172 0 
L 2766 4134 
L 525 4134 
L 525 4666 
z
" transform="scale(0.015625)"/>
     </defs>
     <use xlink:href="#DejaVuSans-4a"/>
     <use xlink:href="#DejaVuSans-3d" transform="translate(29.492188 0)"/>
     <use xlink:href="#DejaVuSans-37" transform="translate(113.28125 0)"/>
    </g>
   </g>
   <g id="text_21">
    <!-- CaH$^+$ hyperfine spectrum at B=3.6 G -->
    <g transform="translate(216.259375 26.84) scale(0.28 -0.28)">
     <defs>
      <path id="DejaVuSans-43" d="M 4122 4306 
L 4122 3641 
Q 3803 3938 3442 4084 
Q 3081 4231 2675 4231 
Q 1875 4231 1450 3742 
Q 1025 3253 1025 2328 
Q 1025 1406 1450 917 
Q 1875 428 2675 428 
Q 3081 428 3442 575 
Q 3803 722 4122 1019 
L 4122 359 
Q 3791 134 3420 21 
Q 3050 -91 2638 -91 
Q 1578 -91 968 557 
Q 359 1206 359 2328 
Q 359 3453 968 4101 
Q 1578 4750 2638 4750 
Q 3056 4750 3426 4639 
Q 3797 4528 4122 4306 
z
" transform="scale(0.015625)"/>
      <path id="DejaVuSans-2b" d="M 2944 4013 
L 2944 2272 
L 4684 2272 
L 4684 1741 
L 2944 1741 
L 2944 0 
L 2419 0 
L 2419 1741 
L 678 1741 
L 678 2272 
L 2419 2272 
L 2419 4013 
L 2944 4013 
z
" transform="scale(0.015625)"/>
      <path id="DejaVuSans-68" d="M 3513 2113 
L 3513 0 
L 2938 0 
L 2938 2094 
Q 2938 2591 2744 2837 
Q 2550 3084 2163 3084 
Q 1697 3084 1428 2787 
Q 1159 2491 1159 1978 
L 1159 0 
L 581 0 
L 581 4863 
L 1159 4863 
L 1159 2956 
Q 1366 3272 1645 3428 
Q 1925 3584 2291 3584 
Q 2894 3584 3203 3211 
Q 3513 2838 3513 2113 
z
" transform="scale(0.015625)"/>
      <path id="DejaVuSans-66" d="M 2375 4863 
L 2375 4384 
L 1825 4384 
Q 1516 4384 1395 4259 
Q 1275 4134 1275 3809 
L 1275 3500 
L 2222 3500 
L 2222 3053 
L 1275 3053 
L 1275 0 
L 697 0 
L 697 3053 
L 147 3053 
L 147 3500 
L 697 3500 
L 697 3744 
Q 697 4328 969 4595 
Q 1241 4863 1831 4863 
L 2375 4863 
z
" transform="scale(0.015625)"/>
      <path id="DejaVuSans-73" d="M 2834 3397 
L 2834 2853 
Q 2591 2978 2328 3040 
Q 2066 3103 1784 3103 
Q 1356 3103 1142 2972 
Q 928 2841 928 2578 
Q 928 2378 1081 2264 
Q 1234 2150 1697 2047 
L 1894 2003 
Q 2506 1872 2764 1633 
Q 3022 1394 3022 966 
Q 3022 478 2636 193 
Q 2250 -91 1575 -91 
Q 1294 -91 989 -36 
Q 684 19 347 128 
L 347 722 
Q 666 556 975 473 
Q 1284 391 1588 391 
Q 1994 391 2212 530 
Q 2431 669 2431 922 
Q 2431 1156 2273 1281 
Q 2116 1406 1581 1522 
L 1381 1569 
Q 847 1681 609 1914 
Q 372 2147 372 2553 
Q 372 3047 722 3315 
Q 1072 3584 1716 3584 
Q 2034 3584 2315 3537 
Q 2597 3491 2834 3397 
z
" transform="scale(0.015625)"/>
      <path id="DejaVuSans-6d" d="M 3328 2828 
Q 3544 3216 3844 3400 
Q 4144 3584 4550 3584 
Q 5097 3584 5394 3201 
Q 5691 2819 5691 2113 
L 5691 0 
L 5113 0 
L 5113 2094 
Q 5113 2597 4934 2840 
Q 4756 3084 4391 3084 
Q 3944 3084 3684 2787 
Q 3425 2491 3425 1978 
L 3425 0 
L 2847 0 
L 2847 2094 
Q 2847 2600 2669 2842 
Q 2491 3084 2119 3084 
Q 1678 3084 1418 2786 
Q 1159 2488 1159 1978 
L 1159 0 
L 581 0 
L 581 3500 
L 1159 3500 
L 1159 2956 
Q 1356 3278 1631 3431 
Q 1906 3584 2284 3584 
Q 2666 3584 2933 3390 
Q 3200 3197 3328 2828 
z
" transform="scale(0.015625)"/>
      <path id="DejaVuSans-42" d="M 1259 2228 
L 1259 519 
L 2272 519 
Q 2781 519 3026 730 
Q 3272 941 3272 1375 
Q 3272 1813 3026 2020 
Q 2781 2228 2272 2228 
L 1259 2228 
z
M 1259 4147 
L 1259 2741 
L 2194 2741 
Q 2656 2741 2882 2914 
Q 3109 3088 3109 3444 
Q 3109 3797 2882 3972 
Q 2656 4147 2194 4147 
L 1259 4147 
z
M 628 4666 
L 2241 4666 
Q 2963 4666 3353 4366 
Q 3744 4066 3744 3513 
Q 3744 3084 3544 2831 
Q 3344 2578 2956 2516 
Q 3422 2416 3680 2098 
Q 3938 1781 3938 1306 
Q 3938 681 3513 340 
Q 3088 0 2303 0 
L 628 0 
L 628 4666 
z
" transform="scale(0.015625)"/>
      <path id="DejaVuSans-47" d="M 3809 666 
L 3809 1919 
L 2778 1919 
L 2778 2438 
L 4434 2438 
L 4434 434 
Q 4069 175 3628 42 
Q 3188 -91 2688 -91 
Q 1594 -91 976 548 
Q 359 1188 359 2328 
Q 359 3472 976 4111 
Q 1594 4750 2688 4750 
Q 3144 4750 3555 4637 
Q 3966 4525 4313 4306 
L 4313 3634 
Q 3963 3931 3569 4081 
Q 3175 4231 2741 4231 
Q 1884 4231 1454 3753 
Q 1025 3275 1025 2328 
Q 1025 1384 1454 906 
Q 1884 428 2741 428 
Q 3075 428 3337 486 
Q 3600 544 3809 666 
z
" transform="scale(0.015625)"/>
     </defs>
     <use xlink:href="#DejaVuSans-43" transform="translate(0 0.826562)"/>
     <use xlink:href="#DejaVuSans-61" transform="translate(69.824219 0.826562)"/>
     <use xlink:href="#DejaVuSans-48" transform="translate(131.103516 0.826562)"/>
     <use xlink:href="#DejaVuSans-2b" transform="translate(220.893555 39.107812) scale(0.7)"/>
     <use xlink:href="#DejaVuSans-20" transform="translate(295.917969 0.826562)"/>
     <use xlink:href="#DejaVuSans-68" transform="translate(327.705078 0.826562)"/>
     <use xlink:href="#DejaVuSans-79" transform="translate(391.083984 0.826562)"/>
     <use xlink:href="#DejaVuSans-70" transform="translate(450.263672 0.826562)"/>
     <use xlink:href="#DejaVuSans-65" transform="translate(513.740234 0.826562)"/>
     <use xlink:href="#DejaVuSans-72" transform="translate(575.263672 0.826562)"/>
     <use xlink:href="#DejaVuSans-66" transform="translate(616.376953 0.826562)"/>
     <use xlink:href="#DejaVuSans-69" transform="translate(651.582031 0.826562)"/>
     <use xlink:href="#DejaVuSans-6e" transform="translate(679.365234 0.826562)"/>
     <use xlink:href="#DejaVuSans-65" transform="translate(742.744141 0.826562)"/>
     <use xlink:href="#DejaVuSans-20" transform="translate(804.267578 0.826562)"/>
     <use xlink:href="#DejaVuSans-73" transform="translate(836.054688 0.826562)"/>
     <use xlink:href="#DejaVuSans-70" transform="translate(888.154297 0.826562)"/>
     <use xlink:href="#DejaVuSans-65" transform="translate(951.630859 0.826562)"/>
     <use xlink:href="#DejaVuSans-63" transform="translate(1013.154297 0.826562)"/>
     <use xlink:href="#DejaVuSans-74" transform="translate(1068.134766 0.826562)"/>
     <use xlink:href="#DejaVuSans-72" transform="translate(1107.34375 0.826562)"/>
     <use xlink:href="#DejaVuSans-75" transform="translate(1148.457031 0.826562)"/>
     <use xlink:href="#DejaVuSans-6d" transform="translate(1211.835938 0.826562)"/>
     <use xlink:href="#DejaVuSans-20" transform="translate(1309.248047 0.826562)"/>
     <use xlink:href="#DejaVuSans-61" transform="translate(1341.035156 0.826562)"/>
     <use xlink:href="#DejaVuSans-74" transform="translate(1402.314453 0.826562)"/>
     <use xlink:href="#DejaVuSans-20" transform="translate(1441.523438 0.826562)"/>
     <use xlink:href="#DejaVuSans-42" transform="translate(1473.310547 0.826562)"/>
     <use xlink:href="#DejaVuSans-3d" transform="translate(1541.914062 0.826562)"/>
     <use xlink:href="#DejaVuSans-33" transform="translate(1625.703125 0.826562)"/>
     <use xlink:href="#DejaVuSans-2e" transform="translate(1689.326172 0.826562)"/>
     <use xlink:href="#DejaVuSans-36" transform="translate(1721.113281 0.826562)"/>
     <use xlink:href="#DejaVuSans-20" transform="translate(1784.736328 0.826562)"/>
     <use xlink:href="#DejaVuSans-47" transform="translate(1816.523438 0.826562)"/>
    </g>
   </g>
   <g id="legend_1">
    <g id="line2d_103">
     <path d="M 540.175 65.586094 
L 565.175 65.586094 
L 590.175 65.586094 
" style="fill: none; stroke: #0000ff; stroke-width: 3; stroke-linecap: square"/>
    </g>
    <g id="text_22">
     <!-- w/ imperfections -->
     <g transform="translate(610.175 74.336094) scale(0.25 -0.25)">
      <defs>
       <path id="DejaVuSans-77" d="M 269 3500 
L 844 3500 
L 1563 769 
L 2278 3500 
L 2956 3500 
L 3675 769 
L 4391 3500 
L 4966 3500 
L 4050 0 
L 3372 0 
L 2619 2869 
L 1863 0 
L 1184 0 
L 269 3500 
z
" transform="scale(0.015625)"/>
       <path id="DejaVuSans-2f" d="M 1625 4666 
L 2156 4666 
L 531 -594 
L 0 -594 
L 1625 4666 
z
" transform="scale(0.015625)"/>
      </defs>
      <use xlink:href="#DejaVuSans-77"/>
      <use xlink:href="#DejaVuSans-2f" transform="translate(81.787109 0)"/>
      <use xlink:href="#DejaVuSans-20" transform="translate(115.478516 0)"/>
      <use xlink:href="#DejaVuSans-69" transform="translate(147.265625 0)"/>
      <use xlink:href="#DejaVuSans-6d" transform="translate(175.048828 0)"/>
      <use xlink:href="#DejaVuSans-70" transform="translate(272.460938 0)"/>
      <use xlink:href="#DejaVuSans-65" transform="translate(335.9375 0)"/>
      <use xlink:href="#DejaVuSans-72" transform="translate(397.460938 0)"/>
      <use xlink:href="#DejaVuSans-66" transform="translate(438.574219 0)"/>
      <use xlink:href="#DejaVuSans-65" transform="translate(473.779297 0)"/>
      <use xlink:href="#DejaVuSans-63" transform="translate(535.302734 0)"/>
      <use xlink:href="#DejaVuSans-74" transform="translate(590.283203 0)"/>
      <use xlink:href="#DejaVuSans-69" transform="translate(629.492188 0)"/>
      <use xlink:href="#DejaVuSans-6f" transform="translate(657.275391 0)"/>
      <use xlink:href="#DejaVuSans-6e" transform="translate(718.457031 0)"/>
      <use xlink:href="#DejaVuSans-73" transform="translate(781.835938 0)"/>
     </g>
    </g>
    <g id="line2d_104">
     <path d="M 540.175 102.281406 
L 565.175 102.281406 
L 590.175 102.281406 
" style="fill: none; stroke: #ffa500; stroke-width: 3; stroke-linecap: square"/>
    </g>
    <g id="text_23">
     <!-- w/o imperfections -->
     <g transform="translate(610.175 111.031406) scale(0.25 -0.25)">
      <use xlink:href="#DejaVuSans-77"/>
      <use xlink:href="#DejaVuSans-2f" transform="translate(81.787109 0)"/>
      <use xlink:href="#DejaVuSans-6f" transform="translate(115.478516 0)"/>
      <use xlink:href="#DejaVuSans-20" transform="translate(176.660156 0)"/>
      <use xlink:href="#DejaVuSans-69" transform="translate(208.447266 0)"/>
      <use xlink:href="#DejaVuSans-6d" transform="translate(236.230469 0)"/>
      <use xlink:href="#DejaVuSans-70" transform="translate(333.642578 0)"/>
      <use xlink:href="#DejaVuSans-65" transform="translate(397.119141 0)"/>
      <use xlink:href="#DejaVuSans-72" transform="translate(458.642578 0)"/>
      <use xlink:href="#DejaVuSans-66" transform="translate(499.755859 0)"/>
      <use xlink:href="#DejaVuSans-65" transform="translate(534.960938 0)"/>
      <use xlink:href="#DejaVuSans-63" transform="translate(596.484375 0)"/>
      <use xlink:href="#DejaVuSans-74" transform="translate(651.464844 0)"/>
      <use xlink:href="#DejaVuSans-69" transform="translate(690.673828 0)"/>
      <use xlink:href="#DejaVuSans-6f" transform="translate(718.457031 0)"/>
      <use xlink:href="#DejaVuSans-6e" transform="translate(779.638672 0)"/>
      <use xlink:href="#DejaVuSans-73" transform="translate(843.017578 0)"/>
     </g>
    </g>
    <g id="line2d_105">
     <path d="M 540.175 138.976719 
L 565.175 138.976719 
L 590.175 138.976719 
" style="fill: none; stroke-dasharray: 11.1,4.8; stroke-dashoffset: 0; stroke: #000000; stroke-width: 3"/>
    </g>
    <g id="text_24">
     <!-- Pump freq -2.0 kHz -->
     <g transform="translate(610.175 147.726719) scale(0.25 -0.25)">
      <defs>
       <path id="DejaVuSans-50" d="M 1259 4147 
L 1259 2394 
L 2053 2394 
Q 2494 2394 2734 2622 
Q 2975 2850 2975 3272 
Q 2975 3691 2734 3919 
Q 2494 4147 2053 4147 
L 1259 4147 
z
M 628 4666 
L 2053 4666 
Q 2838 4666 3239 4311 
Q 3641 3956 3641 3272 
Q 3641 2581 3239 2228 
Q 2838 1875 2053 1875 
L 1259 1875 
L 1259 0 
L 628 0 
L 628 4666 
z
" transform="scale(0.015625)"/>
       <path id="DejaVuSans-2d" d="M 313 2009 
L 1997 2009 
L 1997 1497 
L 313 1497 
L 313 2009 
z
" transform="scale(0.015625)"/>
       <path id="DejaVuSans-6b" d="M 581 4863 
L 1159 4863 
L 1159 1991 
L 2875 3500 
L 3609 3500 
L 1753 1863 
L 3688 0 
L 2938 0 
L 1159 1709 
L 1159 0 
L 581 0 
L 581 4863 
z
" transform="scale(0.015625)"/>
      </defs>
      <use xlink:href="#DejaVuSans-50"/>
      <use xlink:href="#DejaVuSans-75" transform="translate(58.552734 0)"/>
      <use xlink:href="#DejaVuSans-6d" transform="translate(121.931641 0)"/>
      <use xlink:href="#DejaVuSans-70" transform="translate(219.34375 0)"/>
      <use xlink:href="#DejaVuSans-20" transform="translate(282.820312 0)"/>
      <use xlink:href="#DejaVuSans-66" transform="translate(314.607422 0)"/>
      <use xlink:href="#DejaVuSans-72" transform="translate(349.8125 0)"/>
      <use xlink:href="#DejaVuSans-65" transform="translate(388.675781 0)"/>
      <use xlink:href="#DejaVuSans-71" transform="translate(450.199219 0)"/>
      <use xlink:href="#DejaVuSans-20" transform="translate(513.675781 0)"/>
      <use xlink:href="#DejaVuSans-2d" transform="translate(545.462891 0)"/>
      <use xlink:href="#DejaVuSans-32" transform="translate(581.546875 0)"/>
      <use xlink:href="#DejaVuSans-2e" transform="translate(645.169922 0)"/>
      <use xlink:href="#DejaVuSans-30" transform="translate(676.957031 0)"/>
      <use xlink:href="#DejaVuSans-20" transform="translate(740.580078 0)"/>
      <use xlink:href="#DejaVuSans-6b" transform="translate(772.367188 0)"/>
      <use xlink:href="#DejaVuSans-48" transform="translate(830.277344 0)"/>
      <use xlink:href="#DejaVuSans-7a" transform="translate(905.472656 0)"/>
     </g>
    </g>
    <g id="line2d_106">
     <path d="M 540.175 175.672031 
L 565.175 175.672031 
L 590.175 175.672031 
" style="fill: none; stroke-dasharray: 11.1,4.8; stroke-dashoffset: 0; stroke: #000000; stroke-width: 3"/>
    </g>
    <g id="text_25">
     <!-- Pump freq -6.0 kHz -->
     <g transform="translate(610.175 184.422031) scale(0.25 -0.25)">
      <use xlink:href="#DejaVuSans-50"/>
      <use xlink:href="#DejaVuSans-75" transform="translate(58.552734 0)"/>
      <use xlink:href="#DejaVuSans-6d" transform="translate(121.931641 0)"/>
      <use xlink:href="#DejaVuSans-70" transform="translate(219.34375 0)"/>
      <use xlink:href="#DejaVuSans-20" transform="translate(282.820312 0)"/>
      <use xlink:href="#DejaVuSans-66" transform="translate(314.607422 0)"/>
      <use xlink:href="#DejaVuSans-72" transform="translate(349.8125 0)"/>
      <use xlink:href="#DejaVuSans-65" transform="translate(388.675781 0)"/>
      <use xlink:href="#DejaVuSans-71" transform="translate(450.199219 0)"/>
      <use xlink:href="#DejaVuSans-20" transform="translate(513.675781 0)"/>
      <use xlink:href="#DejaVuSans-2d" transform="translate(545.462891 0)"/>
      <use xlink:href="#DejaVuSans-36" transform="translate(581.546875 0)"/>
      <use xlink:href="#DejaVuSans-2e" transform="translate(645.169922 0)"/>
      <use xlink:href="#DejaVuSans-30" transform="translate(676.957031 0)"/>
      <use xlink:href="#DejaVuSans-20" transform="translate(740.580078 0)"/>
      <use xlink:href="#DejaVuSans-6b" transform="translate(772.367188 0)"/>
      <use xlink:href="#DejaVuSans-48" transform="translate(830.277344 0)"/>
      <use xlink:href="#DejaVuSans-7a" transform="translate(905.472656 0)"/>
     </g>
    </g>
    <g id="patch_21">
     <path d="M 540.175 221.117344 
L 590.175 221.117344 
L 590.175 203.617344 
L 540.175 203.617344 
z
" style="fill: #ff0000; opacity: 0.1"/>
    </g>
    <g id="text_26">
     <!-- Sign. Trans. -->
     <g transform="translate(610.175 221.117344) scale(0.25 -0.25)">
      <defs>
       <path id="DejaVuSans-53" d="M 3425 4513 
L 3425 3897 
Q 3066 4069 2747 4153 
Q 2428 4238 2131 4238 
Q 1616 4238 1336 4038 
Q 1056 3838 1056 3469 
Q 1056 3159 1242 3001 
Q 1428 2844 1947 2747 
L 2328 2669 
Q 3034 2534 3370 2195 
Q 3706 1856 3706 1288 
Q 3706 609 3251 259 
Q 2797 -91 1919 -91 
Q 1588 -91 1214 -16 
Q 841 59 441 206 
L 441 856 
Q 825 641 1194 531 
Q 1563 422 1919 422 
Q 2459 422 2753 634 
Q 3047 847 3047 1241 
Q 3047 1584 2836 1778 
Q 2625 1972 2144 2069 
L 1759 2144 
Q 1053 2284 737 2584 
Q 422 2884 422 3419 
Q 422 4038 858 4394 
Q 1294 4750 2059 4750 
Q 2388 4750 2728 4690 
Q 3069 4631 3425 4513 
z
" transform="scale(0.015625)"/>
       <path id="DejaVuSans-67" d="M 2906 1791 
Q 2906 2416 2648 2759 
Q 2391 3103 1925 3103 
Q 1463 3103 1205 2759 
Q 947 2416 947 1791 
Q 947 1169 1205 825 
Q 1463 481 1925 481 
Q 2391 481 2648 825 
Q 2906 1169 2906 1791 
z
M 3481 434 
Q 3481 -459 3084 -895 
Q 2688 -1331 1869 -1331 
Q 1566 -1331 1297 -1286 
Q 1028 -1241 775 -1147 
L 775 -588 
Q 1028 -725 1275 -790 
Q 1522 -856 1778 -856 
Q 2344 -856 2625 -561 
Q 2906 -266 2906 331 
L 2906 616 
Q 2728 306 2450 153 
Q 2172 0 1784 0 
Q 1141 0 747 490 
Q 353 981 353 1791 
Q 353 2603 747 3093 
Q 1141 3584 1784 3584 
Q 2172 3584 2450 3431 
Q 2728 3278 2906 2969 
L 2906 3500 
L 3481 3500 
L 3481 434 
z
" transform="scale(0.015625)"/>
       <path id="DejaVuSans-54" d="M -19 4666 
L 3928 4666 
L 3928 4134 
L 2272 4134 
L 2272 0 
L 1638 0 
L 1638 4134 
L -19 4134 
L -19 4666 
z
" transform="scale(0.015625)"/>
      </defs>
      <use xlink:href="#DejaVuSans-53"/>
      <use xlink:href="#DejaVuSans-69" transform="translate(63.476562 0)"/>
      <use xlink:href="#DejaVuSans-67" transform="translate(91.259766 0)"/>
      <use xlink:href="#DejaVuSans-6e" transform="translate(154.736328 0)"/>
      <use xlink:href="#DejaVuSans-2e" transform="translate(218.115234 0)"/>
      <use xlink:href="#DejaVuSans-20" transform="translate(249.902344 0)"/>
      <use xlink:href="#DejaVuSans-54" transform="translate(281.689453 0)"/>
      <use xlink:href="#DejaVuSans-72" transform="translate(328.023438 0)"/>
      <use xlink:href="#DejaVuSans-61" transform="translate(369.136719 0)"/>
      <use xlink:href="#DejaVuSans-6e" transform="translate(430.416016 0)"/>
      <use xlink:href="#DejaVuSans-73" transform="translate(493.794922 0)"/>
      <use xlink:href="#DejaVuSans-2e" transform="translate(545.894531 0)"/>
     </g>
    </g>
   </g>
  </g>
 </g>
 <defs>
  <clipPath id="pcf0816c7f0">
   <rect x="90.959375" y="32.84" width="781.2" height="443.52"/>
  </clipPath>
 </defs>
</svg>
