<?xml version="1.0" encoding="utf-8" standalone="no"?>
<!DOCTYPE svg PUBLIC "-//W3C//DTD SVG 1.1//EN"
  "http://www.w3.org/Graphics/SVG/1.1/DTD/svg11.dtd">
<svg xmlns:xlink="http://www.w3.org/1999/xlink" width="903.591406pt" height="535.850625pt" viewBox="0 0 903.591406 535.850625" xmlns="http://www.w3.org/2000/svg" version="1.1">
 <metadata>
  <rdf:RDF xmlns:dc="http://purl.org/dc/elements/1.1/" xmlns:cc="http://creativecommons.org/ns#" xmlns:rdf="http://www.w3.org/1999/02/22-rdf-syntax-ns#">
   <cc:Work>
    <dc:type rdf:resource="http://purl.org/dc/dcmitype/StillImage"/>
    <dc:date>2026-02-19T13:01:08.959297</dc:date>
    <dc:format>image/svg+xml</dc:format>
    <dc:creator>
     <cc:Agent>
      <dc:title>Matplotlib v3.10.3, https://matplotlib.org/</dc:title>
     </cc:Agent>
    </dc:creator>
   </cc:Work>
  </rdf:RDF>
 </metadata>
 <defs>
  <style type="text/css">*{stroke-linejoin: round; stroke-linecap: butt}</style>
 </defs>
 <g id="figure_1">
  <g id="patch_1">
   <path d="M 0 535.850625 
L 903.591406 535.850625 
L 903.591406 0 
L 0 0 
z
" style="fill: #ffffff"/>
  </g>
  <g id="axes_1">
   <g id="patch_2">
    <path d="M 90.959375 476.36 
L 872.159375 476.36 
L 872.159375 32.84 
L 90.959375 32.84 
z
" style="fill: #ffffff"/>
   </g>
   <g id="patch_3">
    <path d="M 853.912441 476.36 
L 861.724441 476.36 
L 861.724441 429.271473 
L 853.912441 429.271473 
z
" clip-path="url(#pa1ac329769)" style="fill: #ff0000; opacity: 0.1"/>
   </g>
   <g id="patch_4">
    <path d="M 852.312029 476.36 
L 860.124029 476.36 
L 860.124029 398.429209 
L 852.312029 398.429209 
z
" clip-path="url(#pa1ac329769)" style="fill: #ff0000; opacity: 0.1"/>
   </g>
   <g id="patch_5">
    <path d="M 850.303768 476.36 
L 858.115768 476.36 
L 858.115768 368.401966 
L 850.303768 368.401966 
z
" clip-path="url(#pa1ac329769)" style="fill: #ff0000; opacity: 0.1"/>
   </g>
   <g id="patch_6">
    <path d="M 847.732855 476.36 
L 855.544855 476.36 
L 855.544855 339.495788 
L 847.732855 339.495788 
z
" clip-path="url(#pa1ac329769)" style="fill: #ff0000; opacity: 0.1"/>
   </g>
   <g id="patch_7">
    <path d="M 844.373549 476.36 
L 852.185549 476.36 
L 852.185549 311.997342 
L 844.373549 311.997342 
z
" clip-path="url(#pa1ac329769)" style="fill: #ff0000; opacity: 0.1"/>
   </g>
   <g id="patch_8">
    <path d="M 839.90263 476.36 
L 847.71463 476.36 
L 847.71463 286.169193 
L 839.90263 286.169193 
z
" clip-path="url(#pa1ac329769)" style="fill: #ff0000; opacity: 0.1"/>
   </g>
   <g id="patch_9">
    <path d="M 833.884758 476.36 
L 841.696758 476.36 
L 841.696758 262.245667 
L 833.884758 262.245667 
z
" clip-path="url(#pa1ac329769)" style="fill: #ff0000; opacity: 0.1"/>
   </g>
   <g id="patch_10">
    <path d="M 825.811463 476.36 
L 833.623463 476.36 
L 833.623463 240.429368 
L 825.811463 240.429368 
z
" clip-path="url(#pa1ac329769)" style="fill: #ff0000; opacity: 0.1"/>
   </g>
   <g id="patch_11">
    <path d="M 815.245299 476.36 
L 823.057299 476.36 
L 823.057299 220.888443 
L 815.245299 220.888443 
z
" clip-path="url(#pa1ac329769)" style="fill: #ff0000; opacity: 0.1"/>
   </g>
   <g id="patch_12">
    <path d="M 802.031814 476.36 
L 809.843814 476.36 
L 809.843814 203.754628 
L 802.031814 203.754628 
z
" clip-path="url(#pa1ac329769)" style="fill: #ff0000; opacity: 0.1"/>
   </g>
   <g id="patch_13">
    <path d="M 786.393476 476.36 
L 794.205476 476.36 
L 794.205476 189.12211 
L 786.393476 189.12211 
z
" clip-path="url(#pa1ac329769)" style="fill: #ff0000; opacity: 0.1"/>
   </g>
   <g id="patch_14">
    <path d="M 768.797508 476.36 
L 776.609508 476.36 
L 776.609508 177.047198 
L 768.797508 177.047198 
z
" clip-path="url(#pa1ac329769)" style="fill: #ff0000; opacity: 0.1"/>
   </g>
   <g id="patch_15">
    <path d="M 749.74588 476.36 
L 757.55788 476.36 
L 757.55788 167.54879 
L 749.74588 167.54879 
z
" clip-path="url(#pa1ac329769)" style="fill: #ff0000; opacity: 0.1"/>
   </g>
   <g id="patch_16">
    <path d="M 729.653056 476.36 
L 737.465056 476.36 
L 737.465056 160.609595 
L 729.653056 160.609595 
z
" clip-path="url(#pa1ac329769)" style="fill: #ff0000; opacity: 0.1"/>
   </g>
   <g id="patch_17">
    <path d="M 708.821727 476.36 
L 716.633727 476.36 
L 716.633727 156.178044 
L 708.821727 156.178044 
z
" clip-path="url(#pa1ac329769)" style="fill: #ff0000; opacity: 0.1"/>
   </g>
   <g id="patch_18">
    <path d="M 687.462042 476.36 
L 695.274042 476.36 
L 695.274042 154.170816 
L 687.462042 154.170816 
z
" clip-path="url(#pa1ac329769)" style="fill: #ff0000; opacity: 0.1"/>
   </g>
   <g id="patch_19">
    <path d="M 665.718022 476.36 
L 673.530022 476.36 
L 673.530022 154.475893 
L 665.718022 154.475893 
z
" clip-path="url(#pa1ac329769)" style="fill: #ff0000; opacity: 0.1"/>
   </g>
   <g id="patch_20">
    <path d="M 643.688951 476.36 
L 651.500951 476.36 
L 651.500951 156.956035 
L 643.688951 156.956035 
z
" clip-path="url(#pa1ac329769)" style="fill: #ff0000; opacity: 0.1"/>
   </g>
   <g id="patch_21">
    <path d="M 621.444277 476.36 
L 629.256277 476.36 
L 629.256277 161.452582 
L 621.444277 161.452582 
z
" clip-path="url(#pa1ac329769)" style="fill: #ff0000; opacity: 0.1"/>
   </g>
   <g id="patch_22">
    <path d="M 599.033456 476.36 
L 606.845456 476.36 
L 606.845456 167.789459 
L 599.033456 167.789459 
z
" clip-path="url(#pa1ac329769)" style="fill: #ff0000; opacity: 0.1"/>
   </g>
   <g id="patch_23">
    <path d="M 576.492379 476.36 
L 584.304379 476.36 
L 584.304379 175.777288 
L 576.492379 175.777288 
z
" clip-path="url(#pa1ac329769)" style="fill: #ff0000; opacity: 0.1"/>
   </g>
   <g id="patch_24">
    <path d="M 553.847573 476.36 
L 561.659573 476.36 
L 561.659573 185.217497 
L 553.847573 185.217497 
z
" clip-path="url(#pa1ac329769)" style="fill: #ff0000; opacity: 0.1"/>
   </g>
   <g id="patch_25">
    <path d="M 531.118986 476.36 
L 538.930986 476.36 
L 538.930986 195.906332 
L 531.118986 195.906332 
z
" clip-path="url(#pa1ac329769)" style="fill: #ff0000; opacity: 0.1"/>
   </g>
   <g id="patch_26">
    <path d="M 508.321863 476.36 
L 516.133863 476.36 
L 516.133863 207.638675 
L 508.321863 207.638675 
z
" clip-path="url(#pa1ac329769)" style="fill: #ff0000; opacity: 0.1"/>
   </g>
   <g id="patch_27">
    <path d="M 485.468026 476.36 
L 493.280026 476.36 
L 493.280026 220.21161 
L 485.468026 220.21161 
z
" clip-path="url(#pa1ac329769)" style="fill: #ff0000; opacity: 0.1"/>
   </g>
   <g id="patch_28">
    <path d="M 462.566768 476.36 
L 470.378768 476.36 
L 470.378768 233.427655 
L 462.566768 233.427655 
z
" clip-path="url(#pa1ac329769)" style="fill: #ff0000; opacity: 0.1"/>
   </g>
   <g id="patch_29">
    <path d="M 439.625487 476.36 
L 447.437487 476.36 
L 447.437487 247.097621 
L 439.625487 247.097621 
z
" clip-path="url(#pa1ac329769)" style="fill: #ff0000; opacity: 0.1"/>
   </g>
   <g id="patch_30">
    <path d="M 416.650135 476.36 
L 424.462135 476.36 
L 424.462135 261.043054 
L 416.650135 261.043054 
z
" clip-path="url(#pa1ac329769)" style="fill: #ff0000; opacity: 0.1"/>
   </g>
   <g id="patch_31">
    <path d="M 393.645555 476.36 
L 401.457555 476.36 
L 401.457555 275.098255 
L 393.645555 275.098255 
z
" clip-path="url(#pa1ac329769)" style="fill: #ff0000; opacity: 0.1"/>
   </g>
   <g id="patch_32">
    <path d="M 370.615721 476.36 
L 378.427721 476.36 
L 378.427721 289.111848 
L 370.615721 289.111848 
z
" clip-path="url(#pa1ac329769)" style="fill: #ff0000; opacity: 0.1"/>
   </g>
   <g id="patch_33">
    <path d="M 347.563925 476.36 
L 355.375925 476.36 
L 355.375925 302.947918 
L 347.563925 302.947918 
z
" clip-path="url(#pa1ac329769)" style="fill: #ff0000; opacity: 0.1"/>
   </g>
   <g id="patch_34">
    <path d="M 324.492917 476.36 
L 332.304917 476.36 
L 332.304917 316.486724 
L 324.492917 316.486724 
z
" clip-path="url(#pa1ac329769)" style="fill: #ff0000; opacity: 0.1"/>
   </g>
   <g id="patch_35">
    <path d="M 301.405009 476.36 
L 309.217009 476.36 
L 309.217009 329.625022 
L 301.405009 329.625022 
z
" clip-path="url(#pa1ac329769)" style="fill: #ff0000; opacity: 0.1"/>
   </g>
   <g id="patch_36">
    <path d="M 278.302158 476.36 
L 286.114158 476.36 
L 286.114158 342.276022 
L 278.302158 342.276022 
z
" clip-path="url(#pa1ac329769)" style="fill: #ff0000; opacity: 0.1"/>
   </g>
   <g id="patch_37">
    <path d="M 255.186033 476.36 
L 262.998033 476.36 
L 262.998033 354.369024 
L 255.186033 354.369024 
z
" clip-path="url(#pa1ac329769)" style="fill: #ff0000; opacity: 0.1"/>
   </g>
   <g id="patch_38">
    <path d="M 232.058065 476.36 
L 239.870065 476.36 
L 239.870065 365.848774 
L 232.058065 365.848774 
z
" clip-path="url(#pa1ac329769)" style="fill: #ff0000; opacity: 0.1"/>
   </g>
   <g id="patch_39">
    <path d="M 208.919488 476.36 
L 216.731488 476.36 
L 216.731488 376.674591 
L 208.919488 376.674591 
z
" clip-path="url(#pa1ac329769)" style="fill: #ff0000; opacity: 0.1"/>
   </g>
   <g id="patch_40">
    <path d="M 185.77137 476.36 
L 193.58337 476.36 
L 193.58337 386.819304 
L 185.77137 386.819304 
z
" clip-path="url(#pa1ac329769)" style="fill: #ff0000; opacity: 0.1"/>
   </g>
   <g id="patch_41">
    <path d="M 162.614643 476.36 
L 170.426643 476.36 
L 170.426643 396.268052 
L 162.614643 396.268052 
z
" clip-path="url(#pa1ac329769)" style="fill: #ff0000; opacity: 0.1"/>
   </g>
   <g id="patch_42">
    <path d="M 139.450119 476.36 
L 147.262119 476.36 
L 147.262119 405.01699 
L 139.450119 405.01699 
z
" clip-path="url(#pa1ac329769)" style="fill: #ff0000; opacity: 0.1"/>
   </g>
   <g id="patch_43">
    <path d="M 116.278514 476.36 
L 124.090514 476.36 
L 124.090514 413.071943 
L 116.278514 413.071943 
z
" clip-path="url(#pa1ac329769)" style="fill: #ff0000; opacity: 0.1"/>
   </g>
   <g id="patch_44">
    <path d="M 93.100459 476.36 
L 100.912459 476.36 
L 100.912459 420.447042 
L 93.100459 420.447042 
z
" clip-path="url(#pa1ac329769)" style="fill: #ff0000; opacity: 0.1"/>
   </g>
   <g id="patch_45">
    <path d="M 69.916511 476.36 
L 77.728511 476.36 
L 77.728511 427.163377 
L 69.916511 427.163377 
z
" clip-path="url(#pa1ac329769)" style="fill: #ff0000; opacity: 0.1"/>
   </g>
   <g id="patch_46">
    <path d="M 46.727167 476.36 
L 54.539167 476.36 
L 54.539167 433.247704 
L 46.727167 433.247704 
z
" clip-path="url(#pa1ac329769)" style="fill: #ff0000; opacity: 0.1"/>
   </g>
   <g id="patch_47">
    <path d="M 23.532868 476.36 
L 31.344868 476.36 
L 31.344868 438.73121 
L 23.532868 438.73121 
z
" clip-path="url(#pa1ac329769)" style="fill: #ff0000; opacity: 0.1"/>
   </g>
   <g id="patch_48">
    <path d="M 0.33401 476.36 
L 8.14601 476.36 
L 8.14601 443.648372 
L 0.33401 443.648372 
z
" clip-path="url(#pa1ac329769)" style="fill: #ff0000; opacity: 0.1"/>
   </g>
   <g id="patch_49">
    <path d="M -22.869054 476.36 
L -15.057054 476.36 
L -15.057054 448.035923 
L -22.869054 448.035923 
z
" clip-path="url(#pa1ac329769)" style="fill: #ff0000; opacity: 0.1"/>
   </g>
   <g id="patch_50">
    <path d="M -46.076005 476.36 
L -38.264005 476.36 
L -38.264005 451.931913 
L -46.076005 451.931913 
z
" clip-path="url(#pa1ac329769)" style="fill: #ff0000; opacity: 0.1"/>
   </g>
   <g id="patch_51">
    <path d="M -69.286555 476.36 
L -61.474555 476.36 
L -61.474555 455.374897 
L -69.286555 455.374897 
z
" clip-path="url(#pa1ac329769)" style="fill: #ff0000; opacity: 0.1"/>
   </g>
   <g id="patch_52">
    <path d="M -92.500445 476.36 
L -84.688445 476.36 
L -84.688445 458.403235 
L -92.500445 458.403235 
z
" clip-path="url(#pa1ac329769)" style="fill: #ff0000; opacity: 0.1"/>
   </g>
   <g id="matplotlib.axis_1">
    <g id="xtick_1">
     <g id="line2d_1">
      <defs>
       <path id="md84f616f33" d="M 0 0 
L 0 -6 
" style="stroke: #000000"/>
      </defs>
      <g>
       <use xlink:href="#md84f616f33" x="90.959375" y="476.36" style="stroke: #000000"/>
      </g>
     </g>
     <g id="line2d_2">
      <defs>
       <path id="m516d4a21ab" d="M 0 0 
L 0 6 
" style="stroke: #000000"/>
      </defs>
      <g>
       <use xlink:href="#m516d4a21ab" x="90.959375" y="32.84" style="stroke: #000000"/>
      </g>
     </g>
     <g id="text_1">
      <!-- −0.05 -->
      <g transform="translate(52.652734 498.856094) scale(0.25 -0.25)">
       <defs>
        <path id="DejaVuSans-2212" d="M 678 2272 
L 4684 2272 
L 4684 1741 
L 678 1741 
L 678 2272 
z
" transform="scale(0.015625)"/>
        <path id="DejaVuSans-30" d="M 2034 4250 
Q 1547 4250 1301 3770 
Q 1056 3291 1056 2328 
Q 1056 1369 1301 889 
Q 1547 409 2034 409 
Q 2525 409 2770 889 
Q 3016 1369 3016 2328 
Q 3016 3291 2770 3770 
Q 2525 4250 2034 4250 
z
M 2034 4750 
Q 2819 4750 3233 4129 
Q 3647 3509 3647 2328 
Q 3647 1150 3233 529 
Q 2819 -91 2034 -91 
Q 1250 -91 836 529 
Q 422 1150 422 2328 
Q 422 3509 836 4129 
Q 1250 4750 2034 4750 
z
" transform="scale(0.015625)"/>
        <path id="DejaVuSans-2e" d="M 684 794 
L 1344 794 
L 1344 0 
L 684 0 
L 684 794 
z
" transform="scale(0.015625)"/>
        <path id="DejaVuSans-35" d="M 691 4666 
L 3169 4666 
L 3169 4134 
L 1269 4134 
L 1269 2991 
Q 1406 3038 1543 3061 
Q 1681 3084 1819 3084 
Q 2600 3084 3056 2656 
Q 3513 2228 3513 1497 
Q 3513 744 3044 326 
Q 2575 -91 1722 -91 
Q 1428 -91 1123 -41 
Q 819 9 494 109 
L 494 744 
Q 775 591 1075 516 
Q 1375 441 1709 441 
Q 2250 441 2565 725 
Q 2881 1009 2881 1497 
Q 2881 1984 2565 2268 
Q 2250 2553 1709 2553 
Q 1456 2553 1204 2497 
Q 953 2441 691 2322 
L 691 4666 
z
" transform="scale(0.015625)"/>
       </defs>
       <use xlink:href="#DejaVuSans-2212"/>
       <use xlink:href="#DejaVuSans-30" transform="translate(83.789062 0)"/>
       <use xlink:href="#DejaVuSans-2e" transform="translate(147.412109 0)"/>
       <use xlink:href="#DejaVuSans-30" transform="translate(179.199219 0)"/>
       <use xlink:href="#DejaVuSans-35" transform="translate(242.822266 0)"/>
      </g>
     </g>
    </g>
    <g id="xtick_2">
     <g id="line2d_3">
      <g>
       <use xlink:href="#md84f616f33" x="247.199375" y="476.36" style="stroke: #000000"/>
      </g>
     </g>
     <g id="line2d_4">
      <g>
       <use xlink:href="#m516d4a21ab" x="247.199375" y="32.84" style="stroke: #000000"/>
      </g>
     </g>
     <g id="text_2">
      <!-- −0.04 -->
      <g transform="translate(208.892734 498.856094) scale(0.25 -0.25)">
       <defs>
        <path id="DejaVuSans-34" d="M 2419 4116 
L 825 1625 
L 2419 1625 
L 2419 4116 
z
M 2253 4666 
L 3047 4666 
L 3047 1625 
L 3713 1625 
L 3713 1100 
L 3047 1100 
L 3047 0 
L 2419 0 
L 2419 1100 
L 313 1100 
L 313 1709 
L 2253 4666 
z
" transform="scale(0.015625)"/>
       </defs>
       <use xlink:href="#DejaVuSans-2212"/>
       <use xlink:href="#DejaVuSans-30" transform="translate(83.789062 0)"/>
       <use xlink:href="#DejaVuSans-2e" transform="translate(147.412109 0)"/>
       <use xlink:href="#DejaVuSans-30" transform="translate(179.199219 0)"/>
       <use xlink:href="#DejaVuSans-34" transform="translate(242.822266 0)"/>
      </g>
     </g>
    </g>
    <g id="xtick_3">
     <g id="line2d_5">
      <g>
       <use xlink:href="#md84f616f33" x="403.439375" y="476.36" style="stroke: #000000"/>
      </g>
     </g>
     <g id="line2d_6">
      <g>
       <use xlink:href="#m516d4a21ab" x="403.439375" y="32.84" style="stroke: #000000"/>
      </g>
     </g>
     <g id="text_3">
      <!-- −0.03 -->
      <g transform="translate(365.132734 498.856094) scale(0.25 -0.25)">
       <defs>
        <path id="DejaVuSans-33" d="M 2597 2516 
Q 3050 2419 3304 2112 
Q 3559 1806 3559 1356 
Q 3559 666 3084 287 
Q 2609 -91 1734 -91 
Q 1441 -91 1130 -33 
Q 819 25 488 141 
L 488 750 
Q 750 597 1062 519 
Q 1375 441 1716 441 
Q 2309 441 2620 675 
Q 2931 909 2931 1356 
Q 2931 1769 2642 2001 
Q 2353 2234 1838 2234 
L 1294 2234 
L 1294 2753 
L 1863 2753 
Q 2328 2753 2575 2939 
Q 2822 3125 2822 3475 
Q 2822 3834 2567 4026 
Q 2313 4219 1838 4219 
Q 1578 4219 1281 4162 
Q 984 4106 628 3988 
L 628 4550 
Q 988 4650 1302 4700 
Q 1616 4750 1894 4750 
Q 2613 4750 3031 4423 
Q 3450 4097 3450 3541 
Q 3450 3153 3228 2886 
Q 3006 2619 2597 2516 
z
" transform="scale(0.015625)"/>
       </defs>
       <use xlink:href="#DejaVuSans-2212"/>
       <use xlink:href="#DejaVuSans-30" transform="translate(83.789062 0)"/>
       <use xlink:href="#DejaVuSans-2e" transform="translate(147.412109 0)"/>
       <use xlink:href="#DejaVuSans-30" transform="translate(179.199219 0)"/>
       <use xlink:href="#DejaVuSans-33" transform="translate(242.822266 0)"/>
      </g>
     </g>
    </g>
    <g id="xtick_4">
     <g id="line2d_7">
      <g>
       <use xlink:href="#md84f616f33" x="559.679375" y="476.36" style="stroke: #000000"/>
      </g>
     </g>
     <g id="line2d_8">
      <g>
       <use xlink:href="#m516d4a21ab" x="559.679375" y="32.84" style="stroke: #000000"/>
      </g>
     </g>
     <g id="text_4">
      <!-- −0.02 -->
      <g transform="translate(521.372734 498.856094) scale(0.25 -0.25)">
       <defs>
        <path id="DejaVuSans-32" d="M 1228 531 
L 3431 531 
L 3431 0 
L 469 0 
L 469 531 
Q 828 903 1448 1529 
Q 2069 2156 2228 2338 
Q 2531 2678 2651 2914 
Q 2772 3150 2772 3378 
Q 2772 3750 2511 3984 
Q 2250 4219 1831 4219 
Q 1534 4219 1204 4116 
Q 875 4013 500 3803 
L 500 4441 
Q 881 4594 1212 4672 
Q 1544 4750 1819 4750 
Q 2544 4750 2975 4387 
Q 3406 4025 3406 3419 
Q 3406 3131 3298 2873 
Q 3191 2616 2906 2266 
Q 2828 2175 2409 1742 
Q 1991 1309 1228 531 
z
" transform="scale(0.015625)"/>
       </defs>
       <use xlink:href="#DejaVuSans-2212"/>
       <use xlink:href="#DejaVuSans-30" transform="translate(83.789062 0)"/>
       <use xlink:href="#DejaVuSans-2e" transform="translate(147.412109 0)"/>
       <use xlink:href="#DejaVuSans-30" transform="translate(179.199219 0)"/>
       <use xlink:href="#DejaVuSans-32" transform="translate(242.822266 0)"/>
      </g>
     </g>
    </g>
    <g id="xtick_5">
     <g id="line2d_9">
      <g>
       <use xlink:href="#md84f616f33" x="715.919375" y="476.36" style="stroke: #000000"/>
      </g>
     </g>
     <g id="line2d_10">
      <g>
       <use xlink:href="#m516d4a21ab" x="715.919375" y="32.84" style="stroke: #000000"/>
      </g>
     </g>
     <g id="text_5">
      <!-- −0.01 -->
      <g transform="translate(677.612734 498.856094) scale(0.25 -0.25)">
       <defs>
        <path id="DejaVuSans-31" d="M 794 531 
L 1825 531 
L 1825 4091 
L 703 3866 
L 703 4441 
L 1819 4666 
L 2450 4666 
L 2450 531 
L 3481 531 
L 3481 0 
L 794 0 
L 794 531 
z
" transform="scale(0.015625)"/>
       </defs>
       <use xlink:href="#DejaVuSans-2212"/>
       <use xlink:href="#DejaVuSans-30" transform="translate(83.789062 0)"/>
       <use xlink:href="#DejaVuSans-2e" transform="translate(147.412109 0)"/>
       <use xlink:href="#DejaVuSans-30" transform="translate(179.199219 0)"/>
       <use xlink:href="#DejaVuSans-31" transform="translate(242.822266 0)"/>
      </g>
     </g>
    </g>
    <g id="xtick_6">
     <g id="line2d_11">
      <g>
       <use xlink:href="#md84f616f33" x="872.159375" y="476.36" style="stroke: #000000"/>
      </g>
     </g>
     <g id="line2d_12">
      <g>
       <use xlink:href="#m516d4a21ab" x="872.159375" y="32.84" style="stroke: #000000"/>
      </g>
     </g>
     <g id="text_6">
      <!-- 0.00 -->
      <g transform="translate(844.327344 498.856094) scale(0.25 -0.25)">
       <use xlink:href="#DejaVuSans-30"/>
       <use xlink:href="#DejaVuSans-2e" transform="translate(63.623047 0)"/>
       <use xlink:href="#DejaVuSans-30" transform="translate(95.410156 0)"/>
       <use xlink:href="#DejaVuSans-30" transform="translate(159.033203 0)"/>
      </g>
     </g>
    </g>
    <g id="xtick_7">
     <g id="line2d_13">
      <defs>
       <path id="m48e128bc1a" d="M 0 0 
L 0 -3 
" style="stroke: #000000"/>
      </defs>
      <g>
       <use xlink:href="#m48e128bc1a" x="122.207375" y="476.36" style="stroke: #000000"/>
      </g>
     </g>
     <g id="line2d_14">
      <defs>
       <path id="mb1ea81ec23" d="M 0 0 
L 0 3 
" style="stroke: #000000"/>
      </defs>
      <g>
       <use xlink:href="#mb1ea81ec23" x="122.207375" y="32.84" style="stroke: #000000"/>
      </g>
     </g>
    </g>
    <g id="xtick_8">
     <g id="line2d_15">
      <g>
       <use xlink:href="#m48e128bc1a" x="153.455375" y="476.36" style="stroke: #000000"/>
      </g>
     </g>
     <g id="line2d_16">
      <g>
       <use xlink:href="#mb1ea81ec23" x="153.455375" y="32.84" style="stroke: #000000"/>
      </g>
     </g>
    </g>
    <g id="xtick_9">
     <g id="line2d_17">
      <g>
       <use xlink:href="#m48e128bc1a" x="184.703375" y="476.36" style="stroke: #000000"/>
      </g>
     </g>
     <g id="line2d_18">
      <g>
       <use xlink:href="#mb1ea81ec23" x="184.703375" y="32.84" style="stroke: #000000"/>
      </g>
     </g>
    </g>
    <g id="xtick_10">
     <g id="line2d_19">
      <g>
       <use xlink:href="#m48e128bc1a" x="215.951375" y="476.36" style="stroke: #000000"/>
      </g>
     </g>
     <g id="line2d_20">
      <g>
       <use xlink:href="#mb1ea81ec23" x="215.951375" y="32.84" style="stroke: #000000"/>
      </g>
     </g>
    </g>
    <g id="xtick_11">
     <g id="line2d_21">
      <g>
       <use xlink:href="#m48e128bc1a" x="278.447375" y="476.36" style="stroke: #000000"/>
      </g>
     </g>
     <g id="line2d_22">
      <g>
       <use xlink:href="#mb1ea81ec23" x="278.447375" y="32.84" style="stroke: #000000"/>
      </g>
     </g>
    </g>
    <g id="xtick_12">
     <g id="line2d_23">
      <g>
       <use xlink:href="#m48e128bc1a" x="309.695375" y="476.36" style="stroke: #000000"/>
      </g>
     </g>
     <g id="line2d_24">
      <g>
       <use xlink:href="#mb1ea81ec23" x="309.695375" y="32.84" style="stroke: #000000"/>
      </g>
     </g>
    </g>
    <g id="xtick_13">
     <g id="line2d_25">
      <g>
       <use xlink:href="#m48e128bc1a" x="340.943375" y="476.36" style="stroke: #000000"/>
      </g>
     </g>
     <g id="line2d_26">
      <g>
       <use xlink:href="#mb1ea81ec23" x="340.943375" y="32.84" style="stroke: #000000"/>
      </g>
     </g>
    </g>
    <g id="xtick_14">
     <g id="line2d_27">
      <g>
       <use xlink:href="#m48e128bc1a" x="372.191375" y="476.36" style="stroke: #000000"/>
      </g>
     </g>
     <g id="line2d_28">
      <g>
       <use xlink:href="#mb1ea81ec23" x="372.191375" y="32.84" style="stroke: #000000"/>
      </g>
     </g>
    </g>
    <g id="xtick_15">
     <g id="line2d_29">
      <g>
       <use xlink:href="#m48e128bc1a" x="434.687375" y="476.36" style="stroke: #000000"/>
      </g>
     </g>
     <g id="line2d_30">
      <g>
       <use xlink:href="#mb1ea81ec23" x="434.687375" y="32.84" style="stroke: #000000"/>
      </g>
     </g>
    </g>
    <g id="xtick_16">
     <g id="line2d_31">
      <g>
       <use xlink:href="#m48e128bc1a" x="465.935375" y="476.36" style="stroke: #000000"/>
      </g>
     </g>
     <g id="line2d_32">
      <g>
       <use xlink:href="#mb1ea81ec23" x="465.935375" y="32.84" style="stroke: #000000"/>
      </g>
     </g>
    </g>
    <g id="xtick_17">
     <g id="line2d_33">
      <g>
       <use xlink:href="#m48e128bc1a" x="497.183375" y="476.36" style="stroke: #000000"/>
      </g>
     </g>
     <g id="line2d_34">
      <g>
       <use xlink:href="#mb1ea81ec23" x="497.183375" y="32.84" style="stroke: #000000"/>
      </g>
     </g>
    </g>
    <g id="xtick_18">
     <g id="line2d_35">
      <g>
       <use xlink:href="#m48e128bc1a" x="528.431375" y="476.36" style="stroke: #000000"/>
      </g>
     </g>
     <g id="line2d_36">
      <g>
       <use xlink:href="#mb1ea81ec23" x="528.431375" y="32.84" style="stroke: #000000"/>
      </g>
     </g>
    </g>
    <g id="xtick_19">
     <g id="line2d_37">
      <g>
       <use xlink:href="#m48e128bc1a" x="590.927375" y="476.36" style="stroke: #000000"/>
      </g>
     </g>
     <g id="line2d_38">
      <g>
       <use xlink:href="#mb1ea81ec23" x="590.927375" y="32.84" style="stroke: #000000"/>
      </g>
     </g>
    </g>
    <g id="xtick_20">
     <g id="line2d_39">
      <g>
       <use xlink:href="#m48e128bc1a" x="622.175375" y="476.36" style="stroke: #000000"/>
      </g>
     </g>
     <g id="line2d_40">
      <g>
       <use xlink:href="#mb1ea81ec23" x="622.175375" y="32.84" style="stroke: #000000"/>
      </g>
     </g>
    </g>
    <g id="xtick_21">
     <g id="line2d_41">
      <g>
       <use xlink:href="#m48e128bc1a" x="653.423375" y="476.36" style="stroke: #000000"/>
      </g>
     </g>
     <g id="line2d_42">
      <g>
       <use xlink:href="#mb1ea81ec23" x="653.423375" y="32.84" style="stroke: #000000"/>
      </g>
     </g>
    </g>
    <g id="xtick_22">
     <g id="line2d_43">
      <g>
       <use xlink:href="#m48e128bc1a" x="684.671375" y="476.36" style="stroke: #000000"/>
      </g>
     </g>
     <g id="line2d_44">
      <g>
       <use xlink:href="#mb1ea81ec23" x="684.671375" y="32.84" style="stroke: #000000"/>
      </g>
     </g>
    </g>
    <g id="xtick_23">
     <g id="line2d_45">
      <g>
       <use xlink:href="#m48e128bc1a" x="747.167375" y="476.36" style="stroke: #000000"/>
      </g>
     </g>
     <g id="line2d_46">
      <g>
       <use xlink:href="#mb1ea81ec23" x="747.167375" y="32.84" style="stroke: #000000"/>
      </g>
     </g>
    </g>
    <g id="xtick_24">
     <g id="line2d_47">
      <g>
       <use xlink:href="#m48e128bc1a" x="778.415375" y="476.36" style="stroke: #000000"/>
      </g>
     </g>
     <g id="line2d_48">
      <g>
       <use xlink:href="#mb1ea81ec23" x="778.415375" y="32.84" style="stroke: #000000"/>
      </g>
     </g>
    </g>
    <g id="xtick_25">
     <g id="line2d_49">
      <g>
       <use xlink:href="#m48e128bc1a" x="809.663375" y="476.36" style="stroke: #000000"/>
      </g>
     </g>
     <g id="line2d_50">
      <g>
       <use xlink:href="#mb1ea81ec23" x="809.663375" y="32.84" style="stroke: #000000"/>
      </g>
     </g>
    </g>
    <g id="xtick_26">
     <g id="line2d_51">
      <g>
       <use xlink:href="#m48e128bc1a" x="840.911375" y="476.36" style="stroke: #000000"/>
      </g>
     </g>
     <g id="line2d_52">
      <g>
       <use xlink:href="#mb1ea81ec23" x="840.911375" y="32.84" style="stroke: #000000"/>
      </g>
     </g>
    </g>
    <g id="text_7">
     <!-- Frequency (MHz) -->
     <g transform="translate(376.5125 527.051406) scale(0.25 -0.25)">
      <defs>
       <path id="DejaVuSans-46" d="M 628 4666 
L 3309 4666 
L 3309 4134 
L 1259 4134 
L 1259 2759 
L 3109 2759 
L 3109 2228 
L 1259 2228 
L 1259 0 
L 628 0 
L 628 4666 
z
" transform="scale(0.015625)"/>
       <path id="DejaVuSans-72" d="M 2631 2963 
Q 2534 3019 2420 3045 
Q 2306 3072 2169 3072 
Q 1681 3072 1420 2755 
Q 1159 2438 1159 1844 
L 1159 0 
L 581 0 
L 581 3500 
L 1159 3500 
L 1159 2956 
Q 1341 3275 1631 3429 
Q 1922 3584 2338 3584 
Q 2397 3584 2469 3576 
Q 2541 3569 2628 3553 
L 2631 2963 
z
" transform="scale(0.015625)"/>
       <path id="DejaVuSans-65" d="M 3597 1894 
L 3597 1613 
L 953 1613 
Q 991 1019 1311 708 
Q 1631 397 2203 397 
Q 2534 397 2845 478 
Q 3156 559 3463 722 
L 3463 178 
Q 3153 47 2828 -22 
Q 2503 -91 2169 -91 
Q 1331 -91 842 396 
Q 353 884 353 1716 
Q 353 2575 817 3079 
Q 1281 3584 2069 3584 
Q 2775 3584 3186 3129 
Q 3597 2675 3597 1894 
z
M 3022 2063 
Q 3016 2534 2758 2815 
Q 2500 3097 2075 3097 
Q 1594 3097 1305 2825 
Q 1016 2553 972 2059 
L 3022 2063 
z
" transform="scale(0.015625)"/>
       <path id="DejaVuSans-71" d="M 947 1747 
Q 947 1113 1208 752 
Q 1469 391 1925 391 
Q 2381 391 2643 752 
Q 2906 1113 2906 1747 
Q 2906 2381 2643 2742 
Q 2381 3103 1925 3103 
Q 1469 3103 1208 2742 
Q 947 2381 947 1747 
z
M 2906 525 
Q 2725 213 2448 61 
Q 2172 -91 1784 -91 
Q 1150 -91 751 415 
Q 353 922 353 1747 
Q 353 2572 751 3078 
Q 1150 3584 1784 3584 
Q 2172 3584 2448 3432 
Q 2725 3281 2906 2969 
L 2906 3500 
L 3481 3500 
L 3481 -1331 
L 2906 -1331 
L 2906 525 
z
" transform="scale(0.015625)"/>
       <path id="DejaVuSans-75" d="M 544 1381 
L 544 3500 
L 1119 3500 
L 1119 1403 
Q 1119 906 1312 657 
Q 1506 409 1894 409 
Q 2359 409 2629 706 
Q 2900 1003 2900 1516 
L 2900 3500 
L 3475 3500 
L 3475 0 
L 2900 0 
L 2900 538 
Q 2691 219 2414 64 
Q 2138 -91 1772 -91 
Q 1169 -91 856 284 
Q 544 659 544 1381 
z
M 1991 3584 
L 1991 3584 
z
" transform="scale(0.015625)"/>
       <path id="DejaVuSans-6e" d="M 3513 2113 
L 3513 0 
L 2938 0 
L 2938 2094 
Q 2938 2591 2744 2837 
Q 2550 3084 2163 3084 
Q 1697 3084 1428 2787 
Q 1159 2491 1159 1978 
L 1159 0 
L 581 0 
L 581 3500 
L 1159 3500 
L 1159 2956 
Q 1366 3272 1645 3428 
Q 1925 3584 2291 3584 
Q 2894 3584 3203 3211 
Q 3513 2838 3513 2113 
z
" transform="scale(0.015625)"/>
       <path id="DejaVuSans-63" d="M 3122 3366 
L 3122 2828 
Q 2878 2963 2633 3030 
Q 2388 3097 2138 3097 
Q 1578 3097 1268 2742 
Q 959 2388 959 1747 
Q 959 1106 1268 751 
Q 1578 397 2138 397 
Q 2388 397 2633 464 
Q 2878 531 3122 666 
L 3122 134 
Q 2881 22 2623 -34 
Q 2366 -91 2075 -91 
Q 1284 -91 818 406 
Q 353 903 353 1747 
Q 353 2603 823 3093 
Q 1294 3584 2113 3584 
Q 2378 3584 2631 3529 
Q 2884 3475 3122 3366 
z
" transform="scale(0.015625)"/>
       <path id="DejaVuSans-79" d="M 2059 -325 
Q 1816 -950 1584 -1140 
Q 1353 -1331 966 -1331 
L 506 -1331 
L 506 -850 
L 844 -850 
Q 1081 -850 1212 -737 
Q 1344 -625 1503 -206 
L 1606 56 
L 191 3500 
L 800 3500 
L 1894 763 
L 2988 3500 
L 3597 3500 
L 2059 -325 
z
" transform="scale(0.015625)"/>
       <path id="DejaVuSans-20" transform="scale(0.015625)"/>
       <path id="DejaVuSans-28" d="M 1984 4856 
Q 1566 4138 1362 3434 
Q 1159 2731 1159 2009 
Q 1159 1288 1364 580 
Q 1569 -128 1984 -844 
L 1484 -844 
Q 1016 -109 783 600 
Q 550 1309 550 2009 
Q 550 2706 781 3412 
Q 1013 4119 1484 4856 
L 1984 4856 
z
" transform="scale(0.015625)"/>
       <path id="DejaVuSans-4d" d="M 628 4666 
L 1569 4666 
L 2759 1491 
L 3956 4666 
L 4897 4666 
L 4897 0 
L 4281 0 
L 4281 4097 
L 3078 897 
L 2444 897 
L 1241 4097 
L 1241 0 
L 628 0 
L 628 4666 
z
" transform="scale(0.015625)"/>
       <path id="DejaVuSans-48" d="M 628 4666 
L 1259 4666 
L 1259 2753 
L 3553 2753 
L 3553 4666 
L 4184 4666 
L 4184 0 
L 3553 0 
L 3553 2222 
L 1259 2222 
L 1259 0 
L 628 0 
L 628 4666 
z
" transform="scale(0.015625)"/>
       <path id="DejaVuSans-7a" d="M 353 3500 
L 3084 3500 
L 3084 2975 
L 922 459 
L 3084 459 
L 3084 0 
L 275 0 
L 275 525 
L 2438 3041 
L 353 3041 
L 353 3500 
z
" transform="scale(0.015625)"/>
       <path id="DejaVuSans-29" d="M 513 4856 
L 1013 4856 
Q 1481 4119 1714 3412 
Q 1947 2706 1947 2009 
Q 1947 1309 1714 600 
Q 1481 -109 1013 -844 
L 513 -844 
Q 928 -128 1133 580 
Q 1338 1288 1338 2009 
Q 1338 2731 1133 3434 
Q 928 4138 513 4856 
z
" transform="scale(0.015625)"/>
      </defs>
      <use xlink:href="#DejaVuSans-46"/>
      <use xlink:href="#DejaVuSans-72" transform="translate(50.269531 0)"/>
      <use xlink:href="#DejaVuSans-65" transform="translate(89.132812 0)"/>
      <use xlink:href="#DejaVuSans-71" transform="translate(150.65625 0)"/>
      <use xlink:href="#DejaVuSans-75" transform="translate(214.132812 0)"/>
      <use xlink:href="#DejaVuSans-65" transform="translate(277.511719 0)"/>
      <use xlink:href="#DejaVuSans-6e" transform="translate(339.035156 0)"/>
      <use xlink:href="#DejaVuSans-63" transform="translate(402.414062 0)"/>
      <use xlink:href="#DejaVuSans-79" transform="translate(457.394531 0)"/>
      <use xlink:href="#DejaVuSans-20" transform="translate(516.574219 0)"/>
      <use xlink:href="#DejaVuSans-28" transform="translate(548.361328 0)"/>
      <use xlink:href="#DejaVuSans-4d" transform="translate(587.375 0)"/>
      <use xlink:href="#DejaVuSans-48" transform="translate(673.654297 0)"/>
      <use xlink:href="#DejaVuSans-7a" transform="translate(748.849609 0)"/>
      <use xlink:href="#DejaVuSans-29" transform="translate(801.339844 0)"/>
     </g>
    </g>
   </g>
   <g id="matplotlib.axis_2">
    <g id="ytick_1">
     <g id="line2d_53">
      <defs>
       <path id="mb3b4c7ec83" d="M 0 0 
L 6 0 
" style="stroke: #000000"/>
      </defs>
      <g>
       <use xlink:href="#mb3b4c7ec83" x="90.959375" y="476.36" style="stroke: #000000"/>
      </g>
     </g>
     <g id="line2d_54">
      <defs>
       <path id="m0bc3bc3605" d="M 0 0 
L -6 0 
" style="stroke: #000000"/>
      </defs>
      <g>
       <use xlink:href="#m0bc3bc3605" x="872.159375" y="476.36" style="stroke: #000000"/>
      </g>
     </g>
     <g id="text_8">
      <!-- 0.00 -->
      <g transform="translate(31.795313 485.858047) scale(0.25 -0.25)">
       <use xlink:href="#DejaVuSans-30"/>
       <use xlink:href="#DejaVuSans-2e" transform="translate(63.623047 0)"/>
       <use xlink:href="#DejaVuSans-30" transform="translate(95.410156 0)"/>
       <use xlink:href="#DejaVuSans-30" transform="translate(159.033203 0)"/>
      </g>
     </g>
    </g>
    <g id="ytick_2">
     <g id="line2d_55">
      <g>
       <use xlink:href="#mb3b4c7ec83" x="90.959375" y="387.656" style="stroke: #000000"/>
      </g>
     </g>
     <g id="line2d_56">
      <g>
       <use xlink:href="#m0bc3bc3605" x="872.159375" y="387.656" style="stroke: #000000"/>
      </g>
     </g>
     <g id="text_9">
      <!-- 0.01 -->
      <g transform="translate(31.795313 397.154047) scale(0.25 -0.25)">
       <use xlink:href="#DejaVuSans-30"/>
       <use xlink:href="#DejaVuSans-2e" transform="translate(63.623047 0)"/>
       <use xlink:href="#DejaVuSans-30" transform="translate(95.410156 0)"/>
       <use xlink:href="#DejaVuSans-31" transform="translate(159.033203 0)"/>
      </g>
     </g>
    </g>
    <g id="ytick_3">
     <g id="line2d_57">
      <g>
       <use xlink:href="#mb3b4c7ec83" x="90.959375" y="298.952" style="stroke: #000000"/>
      </g>
     </g>
     <g id="line2d_58">
      <g>
       <use xlink:href="#m0bc3bc3605" x="872.159375" y="298.952" style="stroke: #000000"/>
      </g>
     </g>
     <g id="text_10">
      <!-- 0.02 -->
      <g transform="translate(31.795313 308.450047) scale(0.25 -0.25)">
       <use xlink:href="#DejaVuSans-30"/>
       <use xlink:href="#DejaVuSans-2e" transform="translate(63.623047 0)"/>
       <use xlink:href="#DejaVuSans-30" transform="translate(95.410156 0)"/>
       <use xlink:href="#DejaVuSans-32" transform="translate(159.033203 0)"/>
      </g>
     </g>
    </g>
    <g id="ytick_4">
     <g id="line2d_59">
      <g>
       <use xlink:href="#mb3b4c7ec83" x="90.959375" y="210.248" style="stroke: #000000"/>
      </g>
     </g>
     <g id="line2d_60">
      <g>
       <use xlink:href="#m0bc3bc3605" x="872.159375" y="210.248" style="stroke: #000000"/>
      </g>
     </g>
     <g id="text_11">
      <!-- 0.03 -->
      <g transform="translate(31.795313 219.746047) scale(0.25 -0.25)">
       <use xlink:href="#DejaVuSans-30"/>
       <use xlink:href="#DejaVuSans-2e" transform="translate(63.623047 0)"/>
       <use xlink:href="#DejaVuSans-30" transform="translate(95.410156 0)"/>
       <use xlink:href="#DejaVuSans-33" transform="translate(159.033203 0)"/>
      </g>
     </g>
    </g>
    <g id="ytick_5">
     <g id="line2d_61">
      <g>
       <use xlink:href="#mb3b4c7ec83" x="90.959375" y="121.544" style="stroke: #000000"/>
      </g>
     </g>
     <g id="line2d_62">
      <g>
       <use xlink:href="#m0bc3bc3605" x="872.159375" y="121.544" style="stroke: #000000"/>
      </g>
     </g>
     <g id="text_12">
      <!-- 0.04 -->
      <g transform="translate(31.795313 131.042047) scale(0.25 -0.25)">
       <use xlink:href="#DejaVuSans-30"/>
       <use xlink:href="#DejaVuSans-2e" transform="translate(63.623047 0)"/>
       <use xlink:href="#DejaVuSans-30" transform="translate(95.410156 0)"/>
       <use xlink:href="#DejaVuSans-34" transform="translate(159.033203 0)"/>
      </g>
     </g>
    </g>
    <g id="ytick_6">
     <g id="line2d_63">
      <g>
       <use xlink:href="#mb3b4c7ec83" x="90.959375" y="32.84" style="stroke: #000000"/>
      </g>
     </g>
     <g id="line2d_64">
      <g>
       <use xlink:href="#m0bc3bc3605" x="872.159375" y="32.84" style="stroke: #000000"/>
      </g>
     </g>
     <g id="text_13">
      <!-- 0.05 -->
      <g transform="translate(31.795313 42.338047) scale(0.25 -0.25)">
       <use xlink:href="#DejaVuSans-30"/>
       <use xlink:href="#DejaVuSans-2e" transform="translate(63.623047 0)"/>
       <use xlink:href="#DejaVuSans-30" transform="translate(95.410156 0)"/>
       <use xlink:href="#DejaVuSans-35" transform="translate(159.033203 0)"/>
      </g>
     </g>
    </g>
    <g id="ytick_7">
     <g id="line2d_65">
      <defs>
       <path id="m6510db2a01" d="M 0 0 
L 3 0 
" style="stroke: #000000"/>
      </defs>
      <g>
       <use xlink:href="#m6510db2a01" x="90.959375" y="458.6192" style="stroke: #000000"/>
      </g>
     </g>
     <g id="line2d_66">
      <defs>
       <path id="m53ebc770b1" d="M 0 0 
L -3 0 
" style="stroke: #000000"/>
      </defs>
      <g>
       <use xlink:href="#m53ebc770b1" x="872.159375" y="458.6192" style="stroke: #000000"/>
      </g>
     </g>
    </g>
    <g id="ytick_8">
     <g id="line2d_67">
      <g>
       <use xlink:href="#m6510db2a01" x="90.959375" y="440.8784" style="stroke: #000000"/>
      </g>
     </g>
     <g id="line2d_68">
      <g>
       <use xlink:href="#m53ebc770b1" x="872.159375" y="440.8784" style="stroke: #000000"/>
      </g>
     </g>
    </g>
    <g id="ytick_9">
     <g id="line2d_69">
      <g>
       <use xlink:href="#m6510db2a01" x="90.959375" y="423.1376" style="stroke: #000000"/>
      </g>
     </g>
     <g id="line2d_70">
      <g>
       <use xlink:href="#m53ebc770b1" x="872.159375" y="423.1376" style="stroke: #000000"/>
      </g>
     </g>
    </g>
    <g id="ytick_10">
     <g id="line2d_71">
      <g>
       <use xlink:href="#m6510db2a01" x="90.959375" y="405.3968" style="stroke: #000000"/>
      </g>
     </g>
     <g id="line2d_72">
      <g>
       <use xlink:href="#m53ebc770b1" x="872.159375" y="405.3968" style="stroke: #000000"/>
      </g>
     </g>
    </g>
    <g id="ytick_11">
     <g id="line2d_73">
      <g>
       <use xlink:href="#m6510db2a01" x="90.959375" y="369.9152" style="stroke: #000000"/>
      </g>
     </g>
     <g id="line2d_74">
      <g>
       <use xlink:href="#m53ebc770b1" x="872.159375" y="369.9152" style="stroke: #000000"/>
      </g>
     </g>
    </g>
    <g id="ytick_12">
     <g id="line2d_75">
      <g>
       <use xlink:href="#m6510db2a01" x="90.959375" y="352.1744" style="stroke: #000000"/>
      </g>
     </g>
     <g id="line2d_76">
      <g>
       <use xlink:href="#m53ebc770b1" x="872.159375" y="352.1744" style="stroke: #000000"/>
      </g>
     </g>
    </g>
    <g id="ytick_13">
     <g id="line2d_77">
      <g>
       <use xlink:href="#m6510db2a01" x="90.959375" y="334.4336" style="stroke: #000000"/>
      </g>
     </g>
     <g id="line2d_78">
      <g>
       <use xlink:href="#m53ebc770b1" x="872.159375" y="334.4336" style="stroke: #000000"/>
      </g>
     </g>
    </g>
    <g id="ytick_14">
     <g id="line2d_79">
      <g>
       <use xlink:href="#m6510db2a01" x="90.959375" y="316.6928" style="stroke: #000000"/>
      </g>
     </g>
     <g id="line2d_80">
      <g>
       <use xlink:href="#m53ebc770b1" x="872.159375" y="316.6928" style="stroke: #000000"/>
      </g>
     </g>
    </g>
    <g id="ytick_15">
     <g id="line2d_81">
      <g>
       <use xlink:href="#m6510db2a01" x="90.959375" y="281.2112" style="stroke: #000000"/>
      </g>
     </g>
     <g id="line2d_82">
      <g>
       <use xlink:href="#m53ebc770b1" x="872.159375" y="281.2112" style="stroke: #000000"/>
      </g>
     </g>
    </g>
    <g id="ytick_16">
     <g id="line2d_83">
      <g>
       <use xlink:href="#m6510db2a01" x="90.959375" y="263.4704" style="stroke: #000000"/>
      </g>
     </g>
     <g id="line2d_84">
      <g>
       <use xlink:href="#m53ebc770b1" x="872.159375" y="263.4704" style="stroke: #000000"/>
      </g>
     </g>
    </g>
    <g id="ytick_17">
     <g id="line2d_85">
      <g>
       <use xlink:href="#m6510db2a01" x="90.959375" y="245.7296" style="stroke: #000000"/>
      </g>
     </g>
     <g id="line2d_86">
      <g>
       <use xlink:href="#m53ebc770b1" x="872.159375" y="245.7296" style="stroke: #000000"/>
      </g>
     </g>
    </g>
    <g id="ytick_18">
     <g id="line2d_87">
      <g>
       <use xlink:href="#m6510db2a01" x="90.959375" y="227.9888" style="stroke: #000000"/>
      </g>
     </g>
     <g id="line2d_88">
      <g>
       <use xlink:href="#m53ebc770b1" x="872.159375" y="227.9888" style="stroke: #000000"/>
      </g>
     </g>
    </g>
    <g id="ytick_19">
     <g id="line2d_89">
      <g>
       <use xlink:href="#m6510db2a01" x="90.959375" y="192.5072" style="stroke: #000000"/>
      </g>
     </g>
     <g id="line2d_90">
      <g>
       <use xlink:href="#m53ebc770b1" x="872.159375" y="192.5072" style="stroke: #000000"/>
      </g>
     </g>
    </g>
    <g id="ytick_20">
     <g id="line2d_91">
      <g>
       <use xlink:href="#m6510db2a01" x="90.959375" y="174.7664" style="stroke: #000000"/>
      </g>
     </g>
     <g id="line2d_92">
      <g>
       <use xlink:href="#m53ebc770b1" x="872.159375" y="174.7664" style="stroke: #000000"/>
      </g>
     </g>
    </g>
    <g id="ytick_21">
     <g id="line2d_93">
      <g>
       <use xlink:href="#m6510db2a01" x="90.959375" y="157.0256" style="stroke: #000000"/>
      </g>
     </g>
     <g id="line2d_94">
      <g>
       <use xlink:href="#m53ebc770b1" x="872.159375" y="157.0256" style="stroke: #000000"/>
      </g>
     </g>
    </g>
    <g id="ytick_22">
     <g id="line2d_95">
      <g>
       <use xlink:href="#m6510db2a01" x="90.959375" y="139.2848" style="stroke: #000000"/>
      </g>
     </g>
     <g id="line2d_96">
      <g>
       <use xlink:href="#m53ebc770b1" x="872.159375" y="139.2848" style="stroke: #000000"/>
      </g>
     </g>
    </g>
    <g id="ytick_23">
     <g id="line2d_97">
      <g>
       <use xlink:href="#m6510db2a01" x="90.959375" y="103.8032" style="stroke: #000000"/>
      </g>
     </g>
     <g id="line2d_98">
      <g>
       <use xlink:href="#m53ebc770b1" x="872.159375" y="103.8032" style="stroke: #000000"/>
      </g>
     </g>
    </g>
    <g id="ytick_24">
     <g id="line2d_99">
      <g>
       <use xlink:href="#m6510db2a01" x="90.959375" y="86.0624" style="stroke: #000000"/>
      </g>
     </g>
     <g id="line2d_100">
      <g>
       <use xlink:href="#m53ebc770b1" x="872.159375" y="86.0624" style="stroke: #000000"/>
      </g>
     </g>
    </g>
    <g id="ytick_25">
     <g id="line2d_101">
      <g>
       <use xlink:href="#m6510db2a01" x="90.959375" y="68.3216" style="stroke: #000000"/>
      </g>
     </g>
     <g id="line2d_102">
      <g>
       <use xlink:href="#m53ebc770b1" x="872.159375" y="68.3216" style="stroke: #000000"/>
      </g>
     </g>
    </g>
    <g id="ytick_26">
     <g id="line2d_103">
      <g>
       <use xlink:href="#m6510db2a01" x="90.959375" y="50.5808" style="stroke: #000000"/>
      </g>
     </g>
     <g id="line2d_104">
      <g>
       <use xlink:href="#m53ebc770b1" x="872.159375" y="50.5808" style="stroke: #000000"/>
      </g>
     </g>
    </g>
    <g id="text_14">
     <!-- Excitation probability -->
     <g transform="translate(22.596094 387.189844) rotate(-90) scale(0.25 -0.25)">
      <defs>
       <path id="DejaVuSans-45" d="M 628 4666 
L 3578 4666 
L 3578 4134 
L 1259 4134 
L 1259 2753 
L 3481 2753 
L 3481 2222 
L 1259 2222 
L 1259 531 
L 3634 531 
L 3634 0 
L 628 0 
L 628 4666 
z
" transform="scale(0.015625)"/>
       <path id="DejaVuSans-78" d="M 3513 3500 
L 2247 1797 
L 3578 0 
L 2900 0 
L 1881 1375 
L 863 0 
L 184 0 
L 1544 1831 
L 300 3500 
L 978 3500 
L 1906 2253 
L 2834 3500 
L 3513 3500 
z
" transform="scale(0.015625)"/>
       <path id="DejaVuSans-69" d="M 603 3500 
L 1178 3500 
L 1178 0 
L 603 0 
L 603 3500 
z
M 603 4863 
L 1178 4863 
L 1178 4134 
L 603 4134 
L 603 4863 
z
" transform="scale(0.015625)"/>
       <path id="DejaVuSans-74" d="M 1172 4494 
L 1172 3500 
L 2356 3500 
L 2356 3053 
L 1172 3053 
L 1172 1153 
Q 1172 725 1289 603 
Q 1406 481 1766 481 
L 2356 481 
L 2356 0 
L 1766 0 
Q 1100 0 847 248 
Q 594 497 594 1153 
L 594 3053 
L 172 3053 
L 172 3500 
L 594 3500 
L 594 4494 
L 1172 4494 
z
" transform="scale(0.015625)"/>
       <path id="DejaVuSans-61" d="M 2194 1759 
Q 1497 1759 1228 1600 
Q 959 1441 959 1056 
Q 959 750 1161 570 
Q 1363 391 1709 391 
Q 2188 391 2477 730 
Q 2766 1069 2766 1631 
L 2766 1759 
L 2194 1759 
z
M 3341 1997 
L 3341 0 
L 2766 0 
L 2766 531 
Q 2569 213 2275 61 
Q 1981 -91 1556 -91 
Q 1019 -91 701 211 
Q 384 513 384 1019 
Q 384 1609 779 1909 
Q 1175 2209 1959 2209 
L 2766 2209 
L 2766 2266 
Q 2766 2663 2505 2880 
Q 2244 3097 1772 3097 
Q 1472 3097 1187 3025 
Q 903 2953 641 2809 
L 641 3341 
Q 956 3463 1253 3523 
Q 1550 3584 1831 3584 
Q 2591 3584 2966 3190 
Q 3341 2797 3341 1997 
z
" transform="scale(0.015625)"/>
       <path id="DejaVuSans-6f" d="M 1959 3097 
Q 1497 3097 1228 2736 
Q 959 2375 959 1747 
Q 959 1119 1226 758 
Q 1494 397 1959 397 
Q 2419 397 2687 759 
Q 2956 1122 2956 1747 
Q 2956 2369 2687 2733 
Q 2419 3097 1959 3097 
z
M 1959 3584 
Q 2709 3584 3137 3096 
Q 3566 2609 3566 1747 
Q 3566 888 3137 398 
Q 2709 -91 1959 -91 
Q 1206 -91 779 398 
Q 353 888 353 1747 
Q 353 2609 779 3096 
Q 1206 3584 1959 3584 
z
" transform="scale(0.015625)"/>
       <path id="DejaVuSans-70" d="M 1159 525 
L 1159 -1331 
L 581 -1331 
L 581 3500 
L 1159 3500 
L 1159 2969 
Q 1341 3281 1617 3432 
Q 1894 3584 2278 3584 
Q 2916 3584 3314 3078 
Q 3713 2572 3713 1747 
Q 3713 922 3314 415 
Q 2916 -91 2278 -91 
Q 1894 -91 1617 61 
Q 1341 213 1159 525 
z
M 3116 1747 
Q 3116 2381 2855 2742 
Q 2594 3103 2138 3103 
Q 1681 3103 1420 2742 
Q 1159 2381 1159 1747 
Q 1159 1113 1420 752 
Q 1681 391 2138 391 
Q 2594 391 2855 752 
Q 3116 1113 3116 1747 
z
" transform="scale(0.015625)"/>
       <path id="DejaVuSans-62" d="M 3116 1747 
Q 3116 2381 2855 2742 
Q 2594 3103 2138 3103 
Q 1681 3103 1420 2742 
Q 1159 2381 1159 1747 
Q 1159 1113 1420 752 
Q 1681 391 2138 391 
Q 2594 391 2855 752 
Q 3116 1113 3116 1747 
z
M 1159 2969 
Q 1341 3281 1617 3432 
Q 1894 3584 2278 3584 
Q 2916 3584 3314 3078 
Q 3713 2572 3713 1747 
Q 3713 922 3314 415 
Q 2916 -91 2278 -91 
Q 1894 -91 1617 61 
Q 1341 213 1159 525 
L 1159 0 
L 581 0 
L 581 4863 
L 1159 4863 
L 1159 2969 
z
" transform="scale(0.015625)"/>
       <path id="DejaVuSans-6c" d="M 603 4863 
L 1178 4863 
L 1178 0 
L 603 0 
L 603 4863 
z
" transform="scale(0.015625)"/>
      </defs>
      <use xlink:href="#DejaVuSans-45"/>
      <use xlink:href="#DejaVuSans-78" transform="translate(63.183594 0)"/>
      <use xlink:href="#DejaVuSans-63" transform="translate(120.613281 0)"/>
      <use xlink:href="#DejaVuSans-69" transform="translate(175.59375 0)"/>
      <use xlink:href="#DejaVuSans-74" transform="translate(203.376953 0)"/>
      <use xlink:href="#DejaVuSans-61" transform="translate(242.585938 0)"/>
      <use xlink:href="#DejaVuSans-74" transform="translate(303.865234 0)"/>
      <use xlink:href="#DejaVuSans-69" transform="translate(343.074219 0)"/>
      <use xlink:href="#DejaVuSans-6f" transform="translate(370.857422 0)"/>
      <use xlink:href="#DejaVuSans-6e" transform="translate(432.039062 0)"/>
      <use xlink:href="#DejaVuSans-20" transform="translate(495.417969 0)"/>
      <use xlink:href="#DejaVuSans-70" transform="translate(527.205078 0)"/>
      <use xlink:href="#DejaVuSans-72" transform="translate(590.681641 0)"/>
      <use xlink:href="#DejaVuSans-6f" transform="translate(629.544922 0)"/>
      <use xlink:href="#DejaVuSans-62" transform="translate(690.726562 0)"/>
      <use xlink:href="#DejaVuSans-61" transform="translate(754.203125 0)"/>
      <use xlink:href="#DejaVuSans-62" transform="translate(815.482422 0)"/>
      <use xlink:href="#DejaVuSans-69" transform="translate(878.958984 0)"/>
      <use xlink:href="#DejaVuSans-6c" transform="translate(906.742188 0)"/>
      <use xlink:href="#DejaVuSans-69" transform="translate(934.525391 0)"/>
      <use xlink:href="#DejaVuSans-74" transform="translate(962.308594 0)"/>
      <use xlink:href="#DejaVuSans-79" transform="translate(1001.517578 0)"/>
     </g>
    </g>
   </g>
   <g id="line2d_105">
    <path d="M 90.959375 476.040132 
L 92.523339 476.099877 
L 95.651267 475.976365 
L 97.215231 475.775853 
L 98.779195 475.874699 
L 100.343159 476.239887 
L 101.907123 476.070349 
L 103.471087 475.369383 
L 105.035051 476.236359 
L 106.599015 475.948633 
L 108.162979 476.067189 
L 111.290907 476.15199 
L 114.418834 476.216794 
L 115.982798 476.005168 
L 117.546762 474.956132 
L 119.110726 475.136324 
L 120.67469 476.146759 
L 122.238654 476.137688 
L 123.802618 476.265149 
L 125.366582 475.934022 
L 126.930546 476.0569 
L 128.49451 475.831341 
L 130.058474 475.360367 
L 131.622438 473.23488 
L 133.186402 476.023814 
L 134.750366 476.20848 
L 136.31433 476.222795 
L 137.878294 476.113046 
L 139.442258 476.240917 
L 141.006222 476.007361 
L 142.570186 476.148702 
L 144.13415 469.872767 
L 145.698114 475.754426 
L 147.262078 473.292917 
L 148.826042 475.968781 
L 151.95397 475.888657 
L 153.517934 475.61099 
L 156.645861 475.77145 
L 158.209825 474.321195 
L 159.773789 476.078806 
L 161.337753 476.064439 
L 162.901717 476.189833 
L 164.465681 475.148496 
L 166.029645 476.069911 
L 170.721537 475.775543 
L 173.849465 476.084034 
L 175.413429 474.102473 
L 176.977393 466.204515 
L 178.541357 476.095669 
L 180.105321 474.549656 
L 181.669285 475.312106 
L 183.233249 475.606024 
L 184.797213 474.048524 
L 186.361177 475.309973 
L 187.925141 475.796145 
L 189.489105 474.58607 
L 191.053069 475.981222 
L 192.617033 476.208366 
L 194.180997 476.0283 
L 195.744961 476.135845 
L 197.308925 475.862539 
L 198.872889 475.263682 
L 200.436852 454.28441 
L 202.000816 475.964931 
L 203.56478 474.438589 
L 205.128744 474.717952 
L 206.692708 473.96381 
L 208.256672 475.721971 
L 209.820636 475.727443 
L 211.3846 476.134962 
L 212.948564 474.055546 
L 214.512528 475.843497 
L 216.076492 475.986395 
L 217.640456 465.214775 
L 219.20442 474.138215 
L 220.768384 475.836621 
L 222.332348 476.018794 
L 223.896312 476.074619 
L 225.460276 475.50061 
L 227.02424 474.4939 
L 228.588204 473.155063 
L 230.152168 475.632039 
L 231.716132 476.188701 
L 233.280096 473.669919 
L 234.84406 475.159773 
L 236.408024 475.881885 
L 237.971988 475.672747 
L 239.535952 474.345294 
L 241.099916 476.016198 
L 242.66388 474.727313 
L 244.227843 446.356722 
L 245.791807 475.228797 
L 247.355771 474.950939 
L 248.919735 475.436506 
L 250.483699 475.463595 
L 252.047663 474.853637 
L 253.611627 445.267579 
L 255.175591 464.162771 
L 256.739555 474.590581 
L 258.303519 472.60407 
L 259.867483 472.621125 
L 261.431447 473.532512 
L 262.995411 474.117669 
L 264.559375 472.554363 
L 266.123339 475.865218 
L 267.687303 476.006262 
L 269.251267 475.493115 
L 270.815231 475.211852 
L 272.379195 474.757823 
L 273.943159 473.243175 
L 275.507123 462.81472 
L 277.071087 475.744228 
L 278.635051 475.840545 
L 280.199015 475.083846 
L 281.762979 475.773489 
L 283.326943 474.789828 
L 284.890907 475.70336 
L 286.45487 473.379784 
L 288.018834 475.660413 
L 289.582798 474.849283 
L 291.146762 473.402892 
L 292.710726 472.154274 
L 294.27469 475.319533 
L 295.838654 474.350162 
L 297.402618 475.346391 
L 298.966582 475.364316 
L 300.530546 464.560053 
L 302.09451 463.975571 
L 303.658474 475.394271 
L 305.222438 473.309663 
L 306.786402 475.955378 
L 308.350366 475.680688 
L 309.91433 443.620233 
L 311.478294 455.701962 
L 313.042258 472.920684 
L 314.606222 475.533108 
L 316.170186 466.024346 
L 317.73415 474.512451 
L 319.298114 474.346443 
L 320.862078 475.387849 
L 322.426042 475.800956 
L 323.990006 430.008755 
L 325.55397 475.479597 
L 327.117934 471.328517 
L 328.681898 473.459956 
L 330.245861 475.798866 
L 331.809825 457.157808 
L 333.373789 475.186449 
L 334.937753 475.762383 
L 336.501717 449.209003 
L 338.065681 475.349636 
L 339.629645 473.398376 
L 341.193609 459.533778 
L 342.757573 475.638211 
L 344.321537 475.297904 
L 345.885501 474.088302 
L 347.449465 471.175735 
L 349.013429 474.571573 
L 350.577393 446.553572 
L 352.141357 473.501533 
L 353.705321 475.648423 
L 355.269285 475.045985 
L 356.833249 456.650224 
L 358.397213 455.288461 
L 359.961177 471.90605 
L 361.525141 470.572338 
L 363.089105 473.662466 
L 364.653069 470.717816 
L 366.217033 474.71141 
L 367.780997 467.368666 
L 369.344961 474.374656 
L 370.908925 472.244435 
L 372.472889 473.245691 
L 374.036852 474.674888 
L 375.600816 461.419637 
L 377.16478 468.852815 
L 378.728744 437.333666 
L 380.292708 474.974599 
L 381.856672 471.370656 
L 383.420636 474.444495 
L 384.9846 474.112959 
L 386.548564 432.173759 
L 388.112528 440.472479 
L 389.676492 474.922448 
L 391.240456 458.13042 
L 392.80442 474.260131 
L 394.368384 471.430467 
L 395.932348 473.910732 
L 397.496312 474.915254 
L 399.060276 475.428954 
L 400.62424 467.772019 
L 402.188204 417.718855 
L 403.752168 473.998795 
L 405.316132 446.693334 
L 406.880096 469.925894 
L 408.44406 474.35981 
L 410.008024 474.108119 
L 411.571988 460.552172 
L 413.135952 426.469711 
L 414.699916 473.898174 
L 416.26388 467.100338 
L 417.827843 474.016829 
L 419.391807 474.598995 
L 422.519735 474.142631 
L 424.083699 472.52171 
L 425.647663 474.099756 
L 427.211627 471.766086 
L 428.775591 464.989156 
L 430.339555 432.86403 
L 431.903519 473.592678 
L 433.467483 470.683755 
L 435.031447 469.244035 
L 436.595411 459.465077 
L 438.159375 473.387058 
L 439.723339 469.663156 
L 441.287303 474.464137 
L 442.851267 473.108852 
L 444.415231 461.798231 
L 445.979195 474.790728 
L 447.543159 431.087486 
L 449.107123 469.41021 
L 450.671087 422.739546 
L 452.235051 471.179804 
L 453.799015 467.170839 
L 455.362979 467.439866 
L 456.926943 475.102655 
L 458.490907 474.766099 
L 460.05487 472.987302 
L 461.618834 420.232966 
L 463.182798 474.083133 
L 464.746762 455.277448 
L 466.310726 474.481471 
L 467.87469 472.816872 
L 469.438654 467.554157 
L 471.002618 473.015682 
L 472.566582 432.167674 
L 474.130546 468.976688 
L 475.69451 472.992439 
L 477.258474 474.523569 
L 478.822438 472.198773 
L 480.386402 468.889462 
L 481.950366 472.50546 
L 483.51433 472.398589 
L 485.078294 473.726021 
L 486.642258 473.152861 
L 488.206222 470.776994 
L 489.770186 471.636728 
L 491.33415 469.588775 
L 492.898114 444.74927 
L 494.462078 471.383298 
L 496.026042 435.413315 
L 497.590006 449.702009 
L 499.15397 471.326388 
L 500.717934 469.728203 
L 502.281898 450.908104 
L 503.845861 416.654341 
L 505.409825 473.132319 
L 506.973789 451.265666 
L 508.537753 458.701429 
L 510.101717 473.62991 
L 511.665681 472.397951 
L 513.229645 474.027785 
L 514.793609 473.489881 
L 516.357573 469.482819 
L 517.921537 473.252487 
L 519.485501 472.385516 
L 521.049465 473.608285 
L 522.613429 453.930622 
L 524.177393 459.052829 
L 525.741357 470.853449 
L 527.305321 466.384644 
L 528.869285 472.222976 
L 530.433249 470.460775 
L 531.997213 471.989439 
L 533.561177 451.449459 
L 535.125141 463.072427 
L 536.689105 471.516714 
L 538.253069 467.7088 
L 539.817033 468.17348 
L 541.380997 471.859261 
L 542.944961 471.356447 
L 544.508925 470.026278 
L 546.072889 471.946072 
L 547.636852 458.664494 
L 549.200816 421.326797 
L 550.76478 464.255328 
L 552.328744 472.789424 
L 553.892708 472.416042 
L 555.456672 467.321104 
L 557.020636 466.475195 
L 558.5846 471.426652 
L 560.148564 473.408383 
L 561.712528 471.737285 
L 563.276492 466.535624 
L 564.840456 471.511879 
L 566.40442 470.883376 
L 567.968384 469.608137 
L 569.532348 413.626536 
L 571.096312 471.629296 
L 572.660276 471.398784 
L 574.22424 469.355437 
L 575.788204 439.970304 
L 577.352168 469.22836 
L 578.916132 474.176089 
L 580.480096 470.347573 
L 582.04406 470.952705 
L 583.608024 463.315786 
L 585.171988 433.116055 
L 586.735952 470.97001 
L 588.299916 470.917361 
L 589.86388 421.663613 
L 591.427843 469.420836 
L 592.991807 449.923043 
L 594.555771 468.235577 
L 596.119735 460.02327 
L 597.683699 458.544603 
L 599.247663 471.289136 
L 600.811627 464.149062 
L 602.375591 469.393349 
L 603.939555 459.033624 
L 605.503519 468.932679 
L 607.067483 470.897697 
L 608.631447 455.474462 
L 610.195411 441.469493 
L 611.759375 470.88813 
L 613.323339 471.517469 
L 614.887303 469.636866 
L 616.451267 471.624795 
L 618.015231 470.006183 
L 619.579195 455.841701 
L 621.143159 468.564236 
L 622.707123 463.831796 
L 624.271087 470.085836 
L 625.835051 444.651871 
L 627.399015 434.829638 
L 628.962979 472.752824 
L 630.526943 436.134418 
L 632.090907 456.652334 
L 633.65487 468.771994 
L 635.218834 468.673889 
L 636.782798 469.840276 
L 638.346762 436.915654 
L 639.910726 470.598991 
L 641.47469 470.130223 
L 643.038654 467.585336 
L 644.602618 468.967849 
L 646.166582 463.526422 
L 647.730546 472.433558 
L 649.29451 461.036203 
L 650.858474 469.556491 
L 652.422438 472.09022 
L 653.986402 470.453597 
L 655.550366 464.446102 
L 657.11433 470.622207 
L 658.678294 468.797932 
L 660.242258 440.106871 
L 661.806222 468.511431 
L 663.370186 470.229337 
L 664.93415 436.296652 
L 666.498114 464.153056 
L 668.062078 453.446761 
L 669.626042 469.861802 
L 671.190006 468.022729 
L 672.75397 471.263478 
L 674.317934 470.098837 
L 675.881898 468.269155 
L 677.445861 471.361696 
L 679.009825 471.960697 
L 680.573789 470.615535 
L 682.137753 472.625379 
L 683.701717 470.316805 
L 685.265681 470.778098 
L 686.829645 470.025766 
L 688.393609 466.453438 
L 689.957573 467.43278 
L 691.521537 460.469103 
L 693.085501 472.294224 
L 694.649465 448.966876 
L 696.213429 475.220661 
L 697.777393 469.962064 
L 699.341357 471.907282 
L 700.905321 471.148781 
L 702.469285 473.700087 
L 704.033249 451.414226 
L 705.597213 466.671737 
L 707.161177 473.259425 
L 708.725141 474.026449 
L 710.289105 473.956715 
L 711.853069 472.154956 
L 713.417033 474.236899 
L 714.980997 474.558625 
L 716.544961 470.583383 
L 718.108925 474.315894 
L 719.672889 476.098222 
L 721.236852 465.792301 
L 722.800816 475.148931 
L 724.36478 475.320752 
L 725.928744 473.456066 
L 727.492708 474.074529 
L 729.056672 474.532175 
L 730.620636 474.339884 
L 732.1846 474.415208 
L 733.748564 474.763497 
L 735.312528 474.752144 
L 736.876492 473.649227 
L 738.440456 475.802372 
L 740.00442 476.048576 
L 741.568384 473.989702 
L 743.132348 475.646627 
L 744.696312 476.058952 
L 746.260276 476.141668 
L 747.82424 475.848103 
L 749.388204 474.774676 
L 750.952168 475.996197 
L 752.516132 475.310407 
L 754.080096 475.032845 
L 757.208024 476.167076 
L 763.46388 476.04949 
L 765.027843 476.139215 
L 768.155771 475.717772 
L 769.719735 476.270638 
L 771.283699 475.931101 
L 772.847663 476.097299 
L 777.539555 476.200455 
L 779.103519 476.091448 
L 782.231447 476.21496 
L 786.923339 476.258225 
L 788.487303 476.132781 
L 790.051267 476.224209 
L 793.179195 476.244361 
L 805.690907 476.255208 
L 811.946762 476.273195 
L 816.638654 476.237397 
L 857.301717 476.217074 
L 860.429645 476.102961 
L 863.557573 476.084763 
L 868.249465 475.772351 
L 869.813429 476.027308 
L 871.377393 476.022104 
L 872.941357 475.497998 
L 874.505321 476.093118 
L 882.325141 476.206969 
L 904.591406 476.288922 
L 904.591406 476.288922 
" clip-path="url(#pa1ac329769)" style="fill: none; stroke: #0000ff; stroke-width: 3; stroke-linecap: square"/>
   </g>
   <g id="line2d_106">
    <path d="M 90.959375 476.043687 
L 92.523339 475.854978 
L 94.087303 475.311305 
L 95.651267 472.687637 
L 97.215231 463.391627 
L 98.779195 473.923842 
L 100.343159 475.52119 
L 101.907123 475.913455 
L 105.035051 476.124091 
L 109.726943 476.153311 
L 112.85487 476.070243 
L 114.418834 475.955285 
L 115.982798 475.688606 
L 117.546762 474.870286 
L 119.110726 470.445893 
L 120.67469 464.728642 
L 122.238654 474.082206 
L 123.802618 475.487023 
L 125.366582 475.870903 
L 128.49451 476.088236 
L 133.186402 476.110791 
L 136.31433 475.997332 
L 137.878294 475.839132 
L 139.442258 475.458704 
L 141.006222 474.204329 
L 142.570186 466.741293 
L 144.13415 466.651468 
L 145.698114 474.186014 
L 147.262078 475.445279 
L 148.826042 475.822953 
L 151.95397 476.04669 
L 156.645861 476.058916 
L 159.773789 475.904111 
L 161.337753 475.685186 
L 162.901717 475.13642 
L 164.465681 473.173413 
L 166.029645 461.218144 
L 167.593609 468.289751 
L 169.157573 474.249501 
L 170.721537 475.396032 
L 172.285501 475.769016 
L 175.413429 475.998493 
L 180.105321 475.995389 
L 183.233249 475.784052 
L 184.797213 475.478926 
L 186.361177 474.676612 
L 187.925141 471.534035 
L 189.489105 455.167426 
L 191.053069 469.502894 
L 192.617033 474.281566 
L 194.180997 475.338936 
L 195.744961 475.708281 
L 198.872889 475.942444 
L 203.56478 475.91724 
L 206.692708 475.628122 
L 208.256672 475.199074 
L 209.820636 474.007104 
L 211.3846 468.864946 
L 212.948564 452.203761 
L 214.512528 470.369301 
L 216.076492 474.288192 
L 217.640456 475.273516 
L 219.20442 475.639821 
L 222.332348 475.877097 
L 225.460276 475.882557 
L 228.588204 475.690064 
L 230.152168 475.423606 
L 231.716132 474.813745 
L 233.280096 473.009137 
L 234.84406 464.486503 
L 236.408024 453.774463 
L 237.971988 470.985469 
L 239.535952 474.27336 
L 241.099916 475.199135 
L 242.66388 475.562546 
L 245.791807 475.800679 
L 248.919735 475.787183 
L 252.047663 475.521726 
L 253.611627 475.152249 
L 255.175591 474.273906 
L 256.739555 471.481823 
L 258.303519 457.594935 
L 259.867483 457.358067 
L 261.431447 471.424655 
L 262.995411 474.239644 
L 264.559375 475.114959 
L 266.123339 475.475152 
L 269.251267 475.710993 
L 272.379195 475.670524 
L 273.943159 475.549667 
L 275.507123 475.304319 
L 277.071087 474.787254 
L 278.635051 473.502017 
L 280.199015 469.078544 
L 281.762979 448.416833 
L 283.326943 460.771291 
L 284.890907 471.73698 
L 286.45487 474.188596 
L 288.018834 475.019929 
L 289.582798 475.376058 
L 292.710726 475.605277 
L 295.838654 475.526871 
L 297.402618 475.359165 
L 298.966582 475.020284 
L 300.530546 474.288294 
L 302.09451 472.3717 
L 303.658474 465.204452 
L 305.222438 440.666517 
L 306.786402 463.409005 
L 308.350366 471.955941 
L 309.91433 474.120995 
L 311.478294 474.912719 
L 313.042258 475.263334 
L 316.170186 475.480019 
L 319.298114 475.348559 
L 320.862078 475.115854 
L 322.426042 474.644078 
L 323.990006 473.592965 
L 325.55397 470.670588 
L 327.117934 458.920182 
L 328.681898 439.559248 
L 330.245861 465.332842 
L 331.809825 472.103945 
L 333.373789 474.036979 
L 334.937753 474.791667 
L 336.501717 475.134584 
L 338.065681 475.288789 
L 341.193609 475.280996 
L 342.757573 475.125108 
L 344.321537 474.801267 
L 345.885501 474.13758 
L 347.449465 472.601656 
L 349.013429 468.032416 
L 350.577393 449.215503 
L 352.141357 444.245382 
L 353.705321 466.724959 
L 355.269285 472.196064 
L 356.833249 473.936107 
L 358.397213 474.654691 
L 359.961177 474.986804 
L 361.525141 475.129709 
L 364.653069 475.064806 
L 366.217033 474.841884 
L 367.780997 474.388526 
L 369.344961 473.442219 
L 370.908925 471.149958 
L 372.472889 463.820558 
L 374.036852 436.879503 
L 375.600816 450.263721 
L 377.16478 467.740131 
L 378.728744 472.242445 
L 380.292708 473.817372 
L 381.856672 474.499158 
L 383.420636 474.816167 
L 384.9846 474.941705 
L 386.548564 474.93392 
L 388.112528 474.795568 
L 389.676492 474.477969 
L 391.240456 473.837419 
L 392.80442 472.465016 
L 394.368384 468.957212 
L 395.932348 456.983381 
L 397.496312 427.844082 
L 399.060276 455.320482 
L 400.62424 468.488066 
L 402.188204 472.249826 
L 403.752168 473.679163 
L 405.316132 474.321715 
L 406.880096 474.617723 
L 408.44406 474.717562 
L 410.008024 474.667665 
L 411.571988 474.455856 
L 413.135952 474.002654 
L 414.699916 473.085879 
L 416.26388 471.052975 
L 417.827843 465.530996 
L 419.391807 446.18959 
L 420.955771 428.696553 
L 422.519735 459.086185 
L 424.083699 469.043096 
L 425.647663 472.222503 
L 427.211627 473.51918 
L 428.775591 474.118044 
L 430.339555 474.384969 
L 431.903519 474.447532 
L 433.467483 474.337378 
L 435.031447 474.020451 
L 436.595411 473.369477 
L 438.159375 472.034658 
L 439.723339 468.944618 
L 441.287303 460.005668 
L 442.851267 431.622262 
L 444.415231 436.539992 
L 445.979195 461.817618 
L 447.543159 469.455392 
L 449.107123 472.162938 
L 450.671087 473.334302 
L 452.235051 473.882526 
L 453.799015 474.109211 
L 455.362979 474.118159 
L 456.926943 473.921375 
L 458.490907 473.451763 
L 460.05487 472.505679 
L 461.618834 470.518718 
L 463.182798 465.677218 
L 464.746762 450.98575 
L 466.310726 419.677896 
L 467.87469 445.105082 
L 469.438654 463.812067 
L 471.002618 469.759255 
L 472.566582 472.072171 
L 474.130546 473.120414 
L 475.69451 473.60777 
L 477.258474 473.778613 
L 478.822438 473.710436 
L 480.386402 473.387762 
L 481.950366 472.691873 
L 483.51433 471.292827 
L 485.078294 468.251986 
L 486.642258 460.418353 
L 488.206222 437.09747 
L 489.770186 420.077483 
L 491.33415 451.886541 
L 492.898114 465.294638 
L 494.462078 469.978735 
L 496.026042 471.950157 
L 497.590006 472.872198 
L 499.15397 473.28395 
L 500.717934 473.376755 
L 502.281898 473.196826 
L 503.845861 472.68812 
L 505.409825 471.648111 
L 506.973789 469.52972 
L 508.537753 464.719384 
L 510.101717 451.749615 
L 511.665681 420.817692 
L 513.229645 430.423574 
L 514.793609 456.811131 
L 516.357573 466.421132 
L 517.921537 470.131531 
L 519.485501 471.796146 
L 521.049465 472.582939 
L 522.613429 472.897914 
L 524.177393 472.880416 
L 525.741357 472.536299 
L 527.305321 471.746301 
L 528.869285 470.165865 
L 530.433249 466.859289 
L 531.997213 458.980014 
L 533.561177 438.007006 
L 535.125141 413.861292 
L 536.689105 441.812362 
L 538.253069 460.363069 
L 539.817033 467.299243 
L 541.380997 470.232069 
L 542.944961 471.609358 
L 544.508925 472.244492 
L 546.072889 472.432028 
L 547.636852 472.256138 
L 549.200816 471.665875 
L 550.76478 470.437816 
L 552.328744 467.975602 
L 553.892708 462.626399 
L 555.456672 449.455565 
L 557.020636 421.15896 
L 558.5846 422.998186 
L 560.148564 450.62281 
L 561.712528 462.987816 
L 563.276492 468.007349 
L 564.840456 470.294662 
L 566.40442 471.390426 
L 567.968384 471.84782 
L 569.532348 471.862933 
L 571.096312 471.455002 
L 572.660276 470.485931 
L 574.22424 468.551027 
L 575.788204 464.589983 
L 577.352168 455.653787 
L 580.480096 414.501222 
L 582.04406 437.668496 
L 583.608024 456.895092 
L 585.171988 465.009006 
L 586.735952 468.609409 
L 588.299916 470.337921 
L 589.86388 471.144648 
L 591.427843 471.385182 
L 592.991807 471.161035 
L 594.555771 470.405218 
L 596.119735 468.835025 
L 597.683699 465.715834 
L 599.247663 459.135159 
L 600.811627 444.368796 
L 602.375591 420.491573 
L 603.939555 426.601139 
L 605.503519 449.649559 
L 607.067483 461.411184 
L 608.631447 466.659336 
L 610.195411 469.168351 
L 611.759375 470.392228 
L 613.323339 470.889312 
L 614.887303 470.856794 
L 616.451267 470.293734 
L 618.015231 469.004534 
L 619.579195 466.452703 
L 621.143159 461.305125 
L 622.707123 450.390143 
L 624.271087 430.550815 
L 625.835051 423.903449 
L 627.399015 443.707391 
L 628.962979 458.042461 
L 630.526943 464.841708 
L 632.090907 468.121882 
L 633.65487 469.760888 
L 635.218834 470.513356 
L 636.782798 470.669931 
L 638.346762 470.289255 
L 639.910726 469.243088 
L 641.47469 467.129181 
L 643.038654 462.974927 
L 644.602618 454.609141 
L 646.166582 439.545121 
L 647.730546 429.590756 
L 649.29451 442.534887 
L 650.858474 456.533663 
L 652.422438 463.958449 
L 653.986402 467.662628 
L 655.550366 469.561547 
L 657.11433 470.494532 
L 658.678294 470.805545 
L 660.242258 470.59416 
L 661.806222 469.78413 
L 663.370186 468.076462 
L 664.93415 464.761393 
L 666.498114 458.391749 
L 668.062078 447.677935 
L 669.626042 440.057299 
L 671.190006 447.776355 
L 672.75397 458.551991 
L 674.317934 464.988015 
L 675.881898 468.384806 
L 677.445861 470.193599 
L 679.009825 471.132289 
L 680.573789 471.51531 
L 682.137753 471.448185 
L 683.701717 470.891273 
L 685.265681 469.63861 
L 686.829645 467.217935 
L 688.393609 462.817797 
L 689.957573 456.359598 
L 691.521537 452.995384 
L 693.085501 457.800654 
L 694.649465 464.153467 
L 696.213429 468.245859 
L 697.777393 470.55532 
L 699.341357 471.854006 
L 700.905321 472.571856 
L 702.469285 472.911765 
L 704.033249 472.948611 
L 705.597213 472.666949 
L 707.161177 471.956581 
L 708.725141 470.592076 
L 711.853069 465.928517 
L 713.417033 465.810308 
L 716.544961 470.771954 
L 718.108925 472.424991 
L 719.672889 473.426049 
L 721.236852 474.032747 
L 722.800816 474.399669 
L 724.36478 474.605989 
L 725.928744 474.684862 
L 727.492708 474.637238 
L 729.056672 474.438125 
L 732.1846 473.601517 
L 733.748564 473.443849 
L 735.312528 473.838317 
L 738.440456 474.901595 
L 741.568384 475.435464 
L 744.696312 475.679155 
L 749.388204 475.823471 
L 758.771988 475.997034 
L 769.719735 476.131052 
L 804.126943 476.238902 
L 854.173789 476.198828 
L 866.685501 476.015448 
L 868.249465 475.914605 
L 871.377393 476.036954 
L 872.941357 475.427881 
L 874.505321 476.097258 
L 887.017033 476.240789 
L 904.591406 476.287756 
L 904.591406 476.287756 
" clip-path="url(#pa1ac329769)" style="fill: none; stroke: #ffa500; stroke-width: 3; stroke-linecap: square"/>
   </g>
   <g id="line2d_107">
    <path d="M 874.502975 476.36 
L 874.502975 32.84 
" clip-path="url(#pa1ac329769)" style="fill: none; stroke-dasharray: 11.1,4.8; stroke-dashoffset: 0; stroke: #000000; stroke-width: 3"/>
   </g>
   <g id="line2d_108">
    <path d="M 866.690975 476.36 
L 866.690975 32.84 
" clip-path="url(#pa1ac329769)" style="fill: none; stroke-dasharray: 11.1,4.8; stroke-dashoffset: 0; stroke: #000000; stroke-width: 3"/>
   </g>
   <g id="patch_53">
    <path d="M 90.959375 476.36 
L 90.959375 32.84 
" style="fill: none; stroke: #000000; stroke-linejoin: miter; stroke-linecap: square"/>
   </g>
   <g id="patch_54">
    <path d="M 872.159375 476.36 
L 872.159375 32.84 
" style="fill: none; stroke: #000000; stroke-linejoin: miter; stroke-linecap: square"/>
   </g>
   <g id="patch_55">
    <path d="M 90.959375 476.36 
L 872.159375 476.36 
" style="fill: none; stroke: #000000; stroke-linejoin: miter; stroke-linecap: square"/>
   </g>
   <g id="patch_56">
    <path d="M 90.959375 32.84 
L 872.159375 32.84 
" style="fill: none; stroke: #000000; stroke-linejoin: miter; stroke-linecap: square"/>
   </g>
   <g id="text_15">
    <!-- CaH$^+$ hyperfine spectrum at B=3.27 G -->
    <g transform="translate(208.139375 26.84) scale(0.28 -0.28)">
     <defs>
      <path id="DejaVuSans-43" d="M 4122 4306 
L 4122 3641 
Q 3803 3938 3442 4084 
Q 3081 4231 2675 4231 
Q 1875 4231 1450 3742 
Q 1025 3253 1025 2328 
Q 1025 1406 1450 917 
Q 1875 428 2675 428 
Q 3081 428 3442 575 
Q 3803 722 4122 1019 
L 4122 359 
Q 3791 134 3420 21 
Q 3050 -91 2638 -91 
Q 1578 -91 968 557 
Q 359 1206 359 2328 
Q 359 3453 968 4101 
Q 1578 4750 2638 4750 
Q 3056 4750 3426 4639 
Q 3797 4528 4122 4306 
z
" transform="scale(0.015625)"/>
      <path id="DejaVuSans-2b" d="M 2944 4013 
L 2944 2272 
L 4684 2272 
L 4684 1741 
L 2944 1741 
L 2944 0 
L 2419 0 
L 2419 1741 
L 678 1741 
L 678 2272 
L 2419 2272 
L 2419 4013 
L 2944 4013 
z
" transform="scale(0.015625)"/>
      <path id="DejaVuSans-68" d="M 3513 2113 
L 3513 0 
L 2938 0 
L 2938 2094 
Q 2938 2591 2744 2837 
Q 2550 3084 2163 3084 
Q 1697 3084 1428 2787 
Q 1159 2491 1159 1978 
L 1159 0 
L 581 0 
L 581 4863 
L 1159 4863 
L 1159 2956 
Q 1366 3272 1645 3428 
Q 1925 3584 2291 3584 
Q 2894 3584 3203 3211 
Q 3513 2838 3513 2113 
z
" transform="scale(0.015625)"/>
      <path id="DejaVuSans-66" d="M 2375 4863 
L 2375 4384 
L 1825 4384 
Q 1516 4384 1395 4259 
Q 1275 4134 1275 3809 
L 1275 3500 
L 2222 3500 
L 2222 3053 
L 1275 3053 
L 1275 0 
L 697 0 
L 697 3053 
L 147 3053 
L 147 3500 
L 697 3500 
L 697 3744 
Q 697 4328 969 4595 
Q 1241 4863 1831 4863 
L 2375 4863 
z
" transform="scale(0.015625)"/>
      <path id="DejaVuSans-73" d="M 2834 3397 
L 2834 2853 
Q 2591 2978 2328 3040 
Q 2066 3103 1784 3103 
Q 1356 3103 1142 2972 
Q 928 2841 928 2578 
Q 928 2378 1081 2264 
Q 1234 2150 1697 2047 
L 1894 2003 
Q 2506 1872 2764 1633 
Q 3022 1394 3022 966 
Q 3022 478 2636 193 
Q 2250 -91 1575 -91 
Q 1294 -91 989 -36 
Q 684 19 347 128 
L 347 722 
Q 666 556 975 473 
Q 1284 391 1588 391 
Q 1994 391 2212 530 
Q 2431 669 2431 922 
Q 2431 1156 2273 1281 
Q 2116 1406 1581 1522 
L 1381 1569 
Q 847 1681 609 1914 
Q 372 2147 372 2553 
Q 372 3047 722 3315 
Q 1072 3584 1716 3584 
Q 2034 3584 2315 3537 
Q 2597 3491 2834 3397 
z
" transform="scale(0.015625)"/>
      <path id="DejaVuSans-6d" d="M 3328 2828 
Q 3544 3216 3844 3400 
Q 4144 3584 4550 3584 
Q 5097 3584 5394 3201 
Q 5691 2819 5691 2113 
L 5691 0 
L 5113 0 
L 5113 2094 
Q 5113 2597 4934 2840 
Q 4756 3084 4391 3084 
Q 3944 3084 3684 2787 
Q 3425 2491 3425 1978 
L 3425 0 
L 2847 0 
L 2847 2094 
Q 2847 2600 2669 2842 
Q 2491 3084 2119 3084 
Q 1678 3084 1418 2786 
Q 1159 2488 1159 1978 
L 1159 0 
L 581 0 
L 581 3500 
L 1159 3500 
L 1159 2956 
Q 1356 3278 1631 3431 
Q 1906 3584 2284 3584 
Q 2666 3584 2933 3390 
Q 3200 3197 3328 2828 
z
" transform="scale(0.015625)"/>
      <path id="DejaVuSans-42" d="M 1259 2228 
L 1259 519 
L 2272 519 
Q 2781 519 3026 730 
Q 3272 941 3272 1375 
Q 3272 1813 3026 2020 
Q 2781 2228 2272 2228 
L 1259 2228 
z
M 1259 4147 
L 1259 2741 
L 2194 2741 
Q 2656 2741 2882 2914 
Q 3109 3088 3109 3444 
Q 3109 3797 2882 3972 
Q 2656 4147 2194 4147 
L 1259 4147 
z
M 628 4666 
L 2241 4666 
Q 2963 4666 3353 4366 
Q 3744 4066 3744 3513 
Q 3744 3084 3544 2831 
Q 3344 2578 2956 2516 
Q 3422 2416 3680 2098 
Q 3938 1781 3938 1306 
Q 3938 681 3513 340 
Q 3088 0 2303 0 
L 628 0 
L 628 4666 
z
" transform="scale(0.015625)"/>
      <path id="DejaVuSans-3d" d="M 678 2906 
L 4684 2906 
L 4684 2381 
L 678 2381 
L 678 2906 
z
M 678 1631 
L 4684 1631 
L 4684 1100 
L 678 1100 
L 678 1631 
z
" transform="scale(0.015625)"/>
      <path id="DejaVuSans-37" d="M 525 4666 
L 3525 4666 
L 3525 4397 
L 1831 0 
L 1172 0 
L 2766 4134 
L 525 4134 
L 525 4666 
z
" transform="scale(0.015625)"/>
      <path id="DejaVuSans-47" d="M 3809 666 
L 3809 1919 
L 2778 1919 
L 2778 2438 
L 4434 2438 
L 4434 434 
Q 4069 175 3628 42 
Q 3188 -91 2688 -91 
Q 1594 -91 976 548 
Q 359 1188 359 2328 
Q 359 3472 976 4111 
Q 1594 4750 2688 4750 
Q 3144 4750 3555 4637 
Q 3966 4525 4313 4306 
L 4313 3634 
Q 3963 3931 3569 4081 
Q 3175 4231 2741 4231 
Q 1884 4231 1454 3753 
Q 1025 3275 1025 2328 
Q 1025 1384 1454 906 
Q 1884 428 2741 428 
Q 3075 428 3337 486 
Q 3600 544 3809 666 
z
" transform="scale(0.015625)"/>
     </defs>
     <use xlink:href="#DejaVuSans-43" transform="translate(0 0.826562)"/>
     <use xlink:href="#DejaVuSans-61" transform="translate(69.824219 0.826562)"/>
     <use xlink:href="#DejaVuSans-48" transform="translate(131.103516 0.826562)"/>
     <use xlink:href="#DejaVuSans-2b" transform="translate(220.893555 39.107812) scale(0.7)"/>
     <use xlink:href="#DejaVuSans-20" transform="translate(295.917969 0.826562)"/>
     <use xlink:href="#DejaVuSans-68" transform="translate(327.705078 0.826562)"/>
     <use xlink:href="#DejaVuSans-79" transform="translate(391.083984 0.826562)"/>
     <use xlink:href="#DejaVuSans-70" transform="translate(450.263672 0.826562)"/>
     <use xlink:href="#DejaVuSans-65" transform="translate(513.740234 0.826562)"/>
     <use xlink:href="#DejaVuSans-72" transform="translate(575.263672 0.826562)"/>
     <use xlink:href="#DejaVuSans-66" transform="translate(616.376953 0.826562)"/>
     <use xlink:href="#DejaVuSans-69" transform="translate(651.582031 0.826562)"/>
     <use xlink:href="#DejaVuSans-6e" transform="translate(679.365234 0.826562)"/>
     <use xlink:href="#DejaVuSans-65" transform="translate(742.744141 0.826562)"/>
     <use xlink:href="#DejaVuSans-20" transform="translate(804.267578 0.826562)"/>
     <use xlink:href="#DejaVuSans-73" transform="translate(836.054688 0.826562)"/>
     <use xlink:href="#DejaVuSans-70" transform="translate(888.154297 0.826562)"/>
     <use xlink:href="#DejaVuSans-65" transform="translate(951.630859 0.826562)"/>
     <use xlink:href="#DejaVuSans-63" transform="translate(1013.154297 0.826562)"/>
     <use xlink:href="#DejaVuSans-74" transform="translate(1068.134766 0.826562)"/>
     <use xlink:href="#DejaVuSans-72" transform="translate(1107.34375 0.826562)"/>
     <use xlink:href="#DejaVuSans-75" transform="translate(1148.457031 0.826562)"/>
     <use xlink:href="#DejaVuSans-6d" transform="translate(1211.835938 0.826562)"/>
     <use xlink:href="#DejaVuSans-20" transform="translate(1309.248047 0.826562)"/>
     <use xlink:href="#DejaVuSans-61" transform="translate(1341.035156 0.826562)"/>
     <use xlink:href="#DejaVuSans-74" transform="translate(1402.314453 0.826562)"/>
     <use xlink:href="#DejaVuSans-20" transform="translate(1441.523438 0.826562)"/>
     <use xlink:href="#DejaVuSans-42" transform="translate(1473.310547 0.826562)"/>
     <use xlink:href="#DejaVuSans-3d" transform="translate(1541.914062 0.826562)"/>
     <use xlink:href="#DejaVuSans-33" transform="translate(1625.703125 0.826562)"/>
     <use xlink:href="#DejaVuSans-2e" transform="translate(1689.326172 0.826562)"/>
     <use xlink:href="#DejaVuSans-32" transform="translate(1715.613281 0.826562)"/>
     <use xlink:href="#DejaVuSans-37" transform="translate(1779.236328 0.826562)"/>
     <use xlink:href="#DejaVuSans-20" transform="translate(1842.859375 0.826562)"/>
     <use xlink:href="#DejaVuSans-47" transform="translate(1874.646484 0.826562)"/>
    </g>
   </g>
   <g id="legend_1">
    <g id="line2d_109">
     <path d="M 113.459375 65.586094 
L 138.459375 65.586094 
L 163.459375 65.586094 
" style="fill: none; stroke: #0000ff; stroke-width: 3; stroke-linecap: square"/>
    </g>
    <g id="text_16">
     <!-- w/ imperfections -->
     <g transform="translate(183.459375 74.336094) scale(0.25 -0.25)">
      <defs>
       <path id="DejaVuSans-77" d="M 269 3500 
L 844 3500 
L 1563 769 
L 2278 3500 
L 2956 3500 
L 3675 769 
L 4391 3500 
L 4966 3500 
L 4050 0 
L 3372 0 
L 2619 2869 
L 1863 0 
L 1184 0 
L 269 3500 
z
" transform="scale(0.015625)"/>
       <path id="DejaVuSans-2f" d="M 1625 4666 
L 2156 4666 
L 531 -594 
L 0 -594 
L 1625 4666 
z
" transform="scale(0.015625)"/>
      </defs>
      <use xlink:href="#DejaVuSans-77"/>
      <use xlink:href="#DejaVuSans-2f" transform="translate(81.787109 0)"/>
      <use xlink:href="#DejaVuSans-20" transform="translate(115.478516 0)"/>
      <use xlink:href="#DejaVuSans-69" transform="translate(147.265625 0)"/>
      <use xlink:href="#DejaVuSans-6d" transform="translate(175.048828 0)"/>
      <use xlink:href="#DejaVuSans-70" transform="translate(272.460938 0)"/>
      <use xlink:href="#DejaVuSans-65" transform="translate(335.9375 0)"/>
      <use xlink:href="#DejaVuSans-72" transform="translate(397.460938 0)"/>
      <use xlink:href="#DejaVuSans-66" transform="translate(438.574219 0)"/>
      <use xlink:href="#DejaVuSans-65" transform="translate(473.779297 0)"/>
      <use xlink:href="#DejaVuSans-63" transform="translate(535.302734 0)"/>
      <use xlink:href="#DejaVuSans-74" transform="translate(590.283203 0)"/>
      <use xlink:href="#DejaVuSans-69" transform="translate(629.492188 0)"/>
      <use xlink:href="#DejaVuSans-6f" transform="translate(657.275391 0)"/>
      <use xlink:href="#DejaVuSans-6e" transform="translate(718.457031 0)"/>
      <use xlink:href="#DejaVuSans-73" transform="translate(781.835938 0)"/>
     </g>
    </g>
    <g id="line2d_110">
     <path d="M 113.459375 102.281406 
L 138.459375 102.281406 
L 163.459375 102.281406 
" style="fill: none; stroke: #ffa500; stroke-width: 3; stroke-linecap: square"/>
    </g>
    <g id="text_17">
     <!-- w/o imperfections -->
     <g transform="translate(183.459375 111.031406) scale(0.25 -0.25)">
      <use xlink:href="#DejaVuSans-77"/>
      <use xlink:href="#DejaVuSans-2f" transform="translate(81.787109 0)"/>
      <use xlink:href="#DejaVuSans-6f" transform="translate(115.478516 0)"/>
      <use xlink:href="#DejaVuSans-20" transform="translate(176.660156 0)"/>
      <use xlink:href="#DejaVuSans-69" transform="translate(208.447266 0)"/>
      <use xlink:href="#DejaVuSans-6d" transform="translate(236.230469 0)"/>
      <use xlink:href="#DejaVuSans-70" transform="translate(333.642578 0)"/>
      <use xlink:href="#DejaVuSans-65" transform="translate(397.119141 0)"/>
      <use xlink:href="#DejaVuSans-72" transform="translate(458.642578 0)"/>
      <use xlink:href="#DejaVuSans-66" transform="translate(499.755859 0)"/>
      <use xlink:href="#DejaVuSans-65" transform="translate(534.960938 0)"/>
      <use xlink:href="#DejaVuSans-63" transform="translate(596.484375 0)"/>
      <use xlink:href="#DejaVuSans-74" transform="translate(651.464844 0)"/>
      <use xlink:href="#DejaVuSans-69" transform="translate(690.673828 0)"/>
      <use xlink:href="#DejaVuSans-6f" transform="translate(718.457031 0)"/>
      <use xlink:href="#DejaVuSans-6e" transform="translate(779.638672 0)"/>
      <use xlink:href="#DejaVuSans-73" transform="translate(843.017578 0)"/>
     </g>
    </g>
    <g id="line2d_111">
     <path d="M 113.459375 138.976719 
L 138.459375 138.976719 
L 163.459375 138.976719 
" style="fill: none; stroke-dasharray: 11.1,4.8; stroke-dashoffset: 0; stroke: #000000; stroke-width: 3"/>
    </g>
    <g id="text_18">
     <!-- Pump freq 0.15 kHz -->
     <g transform="translate(183.459375 147.726719) scale(0.25 -0.25)">
      <defs>
       <path id="DejaVuSans-50" d="M 1259 4147 
L 1259 2394 
L 2053 2394 
Q 2494 2394 2734 2622 
Q 2975 2850 2975 3272 
Q 2975 3691 2734 3919 
Q 2494 4147 2053 4147 
L 1259 4147 
z
M 628 4666 
L 2053 4666 
Q 2838 4666 3239 4311 
Q 3641 3956 3641 3272 
Q 3641 2581 3239 2228 
Q 2838 1875 2053 1875 
L 1259 1875 
L 1259 0 
L 628 0 
L 628 4666 
z
" transform="scale(0.015625)"/>
       <path id="DejaVuSans-6b" d="M 581 4863 
L 1159 4863 
L 1159 1991 
L 2875 3500 
L 3609 3500 
L 1753 1863 
L 3688 0 
L 2938 0 
L 1159 1709 
L 1159 0 
L 581 0 
L 581 4863 
z
" transform="scale(0.015625)"/>
      </defs>
      <use xlink:href="#DejaVuSans-50"/>
      <use xlink:href="#DejaVuSans-75" transform="translate(58.552734 0)"/>
      <use xlink:href="#DejaVuSans-6d" transform="translate(121.931641 0)"/>
      <use xlink:href="#DejaVuSans-70" transform="translate(219.34375 0)"/>
      <use xlink:href="#DejaVuSans-20" transform="translate(282.820312 0)"/>
      <use xlink:href="#DejaVuSans-66" transform="translate(314.607422 0)"/>
      <use xlink:href="#DejaVuSans-72" transform="translate(349.8125 0)"/>
      <use xlink:href="#DejaVuSans-65" transform="translate(388.675781 0)"/>
      <use xlink:href="#DejaVuSans-71" transform="translate(450.199219 0)"/>
      <use xlink:href="#DejaVuSans-20" transform="translate(513.675781 0)"/>
      <use xlink:href="#DejaVuSans-30" transform="translate(545.462891 0)"/>
      <use xlink:href="#DejaVuSans-2e" transform="translate(609.085938 0)"/>
      <use xlink:href="#DejaVuSans-31" transform="translate(640.873047 0)"/>
      <use xlink:href="#DejaVuSans-35" transform="translate(704.496094 0)"/>
      <use xlink:href="#DejaVuSans-20" transform="translate(768.119141 0)"/>
      <use xlink:href="#DejaVuSans-6b" transform="translate(799.90625 0)"/>
      <use xlink:href="#DejaVuSans-48" transform="translate(857.816406 0)"/>
      <use xlink:href="#DejaVuSans-7a" transform="translate(933.011719 0)"/>
     </g>
    </g>
    <g id="line2d_112">
     <path d="M 113.459375 175.672031 
L 138.459375 175.672031 
L 163.459375 175.672031 
" style="fill: none; stroke-dasharray: 11.1,4.8; stroke-dashoffset: 0; stroke: #000000; stroke-width: 3"/>
    </g>
    <g id="text_19">
     <!-- Pump freq -0.35 kHz -->
     <g transform="translate(183.459375 184.422031) scale(0.25 -0.25)">
      <defs>
       <path id="DejaVuSans-2d" d="M 313 2009 
L 1997 2009 
L 1997 1497 
L 313 1497 
L 313 2009 
z
" transform="scale(0.015625)"/>
      </defs>
      <use xlink:href="#DejaVuSans-50"/>
      <use xlink:href="#DejaVuSans-75" transform="translate(58.552734 0)"/>
      <use xlink:href="#DejaVuSans-6d" transform="translate(121.931641 0)"/>
      <use xlink:href="#DejaVuSans-70" transform="translate(219.34375 0)"/>
      <use xlink:href="#DejaVuSans-20" transform="translate(282.820312 0)"/>
      <use xlink:href="#DejaVuSans-66" transform="translate(314.607422 0)"/>
      <use xlink:href="#DejaVuSans-72" transform="translate(349.8125 0)"/>
      <use xlink:href="#DejaVuSans-65" transform="translate(388.675781 0)"/>
      <use xlink:href="#DejaVuSans-71" transform="translate(450.199219 0)"/>
      <use xlink:href="#DejaVuSans-20" transform="translate(513.675781 0)"/>
      <use xlink:href="#DejaVuSans-2d" transform="translate(545.462891 0)"/>
      <use xlink:href="#DejaVuSans-30" transform="translate(581.546875 0)"/>
      <use xlink:href="#DejaVuSans-2e" transform="translate(645.169922 0)"/>
      <use xlink:href="#DejaVuSans-33" transform="translate(676.957031 0)"/>
      <use xlink:href="#DejaVuSans-35" transform="translate(740.580078 0)"/>
      <use xlink:href="#DejaVuSans-20" transform="translate(804.203125 0)"/>
      <use xlink:href="#DejaVuSans-6b" transform="translate(835.990234 0)"/>
      <use xlink:href="#DejaVuSans-48" transform="translate(893.900391 0)"/>
      <use xlink:href="#DejaVuSans-7a" transform="translate(969.095703 0)"/>
     </g>
    </g>
    <g id="patch_57">
     <path d="M 113.459375 221.117344 
L 163.459375 221.117344 
L 163.459375 203.617344 
L 113.459375 203.617344 
z
" style="fill: #ff0000; opacity: 0.1"/>
    </g>
    <g id="text_20">
     <!-- Sign. Trans. -->
     <g transform="translate(183.459375 221.117344) scale(0.25 -0.25)">
      <defs>
       <path id="DejaVuSans-53" d="M 3425 4513 
L 3425 3897 
Q 3066 4069 2747 4153 
Q 2428 4238 2131 4238 
Q 1616 4238 1336 4038 
Q 1056 3838 1056 3469 
Q 1056 3159 1242 3001 
Q 1428 2844 1947 2747 
L 2328 2669 
Q 3034 2534 3370 2195 
Q 3706 1856 3706 1288 
Q 3706 609 3251 259 
Q 2797 -91 1919 -91 
Q 1588 -91 1214 -16 
Q 841 59 441 206 
L 441 856 
Q 825 641 1194 531 
Q 1563 422 1919 422 
Q 2459 422 2753 634 
Q 3047 847 3047 1241 
Q 3047 1584 2836 1778 
Q 2625 1972 2144 2069 
L 1759 2144 
Q 1053 2284 737 2584 
Q 422 2884 422 3419 
Q 422 4038 858 4394 
Q 1294 4750 2059 4750 
Q 2388 4750 2728 4690 
Q 3069 4631 3425 4513 
z
" transform="scale(0.015625)"/>
       <path id="DejaVuSans-67" d="M 2906 1791 
Q 2906 2416 2648 2759 
Q 2391 3103 1925 3103 
Q 1463 3103 1205 2759 
Q 947 2416 947 1791 
Q 947 1169 1205 825 
Q 1463 481 1925 481 
Q 2391 481 2648 825 
Q 2906 1169 2906 1791 
z
M 3481 434 
Q 3481 -459 3084 -895 
Q 2688 -1331 1869 -1331 
Q 1566 -1331 1297 -1286 
Q 1028 -1241 775 -1147 
L 775 -588 
Q 1028 -725 1275 -790 
Q 1522 -856 1778 -856 
Q 2344 -856 2625 -561 
Q 2906 -266 2906 331 
L 2906 616 
Q 2728 306 2450 153 
Q 2172 0 1784 0 
Q 1141 0 747 490 
Q 353 981 353 1791 
Q 353 2603 747 3093 
Q 1141 3584 1784 3584 
Q 2172 3584 2450 3431 
Q 2728 3278 2906 2969 
L 2906 3500 
L 3481 3500 
L 3481 434 
z
" transform="scale(0.015625)"/>
       <path id="DejaVuSans-54" d="M -19 4666 
L 3928 4666 
L 3928 4134 
L 2272 4134 
L 2272 0 
L 1638 0 
L 1638 4134 
L -19 4134 
L -19 4666 
z
" transform="scale(0.015625)"/>
      </defs>
      <use xlink:href="#DejaVuSans-53"/>
      <use xlink:href="#DejaVuSans-69" transform="translate(63.476562 0)"/>
      <use xlink:href="#DejaVuSans-67" transform="translate(91.259766 0)"/>
      <use xlink:href="#DejaVuSans-6e" transform="translate(154.736328 0)"/>
      <use xlink:href="#DejaVuSans-2e" transform="translate(218.115234 0)"/>
      <use xlink:href="#DejaVuSans-20" transform="translate(249.902344 0)"/>
      <use xlink:href="#DejaVuSans-54" transform="translate(281.689453 0)"/>
      <use xlink:href="#DejaVuSans-72" transform="translate(328.023438 0)"/>
      <use xlink:href="#DejaVuSans-61" transform="translate(369.136719 0)"/>
      <use xlink:href="#DejaVuSans-6e" transform="translate(430.416016 0)"/>
      <use xlink:href="#DejaVuSans-73" transform="translate(493.794922 0)"/>
      <use xlink:href="#DejaVuSans-2e" transform="translate(545.894531 0)"/>
     </g>
    </g>
   </g>
  </g>
 </g>
 <defs>
  <clipPath id="pa1ac329769">
   <rect x="90.959375" y="32.84" width="781.2" height="443.52"/>
  </clipPath>
 </defs>
</svg>
