<?xml version="1.0" encoding="utf-8" standalone="no"?>
<!DOCTYPE svg PUBLIC "-//W3C//DTD SVG 1.1//EN"
  "http://www.w3.org/Graphics/SVG/1.1/DTD/svg11.dtd">
<svg xmlns:xlink="http://www.w3.org/1999/xlink" width="903.591406pt" height="535.850625pt" viewBox="0 0 903.591406 535.850625" xmlns="http://www.w3.org/2000/svg" version="1.1">
 <metadata>
  <rdf:RDF xmlns:dc="http://purl.org/dc/elements/1.1/" xmlns:cc="http://creativecommons.org/ns#" xmlns:rdf="http://www.w3.org/1999/02/22-rdf-syntax-ns#">
   <cc:Work>
    <dc:type rdf:resource="http://purl.org/dc/dcmitype/StillImage"/>
    <dc:date>2026-02-19T12:59:02.031772</dc:date>
    <dc:format>image/svg+xml</dc:format>
    <dc:creator>
     <cc:Agent>
      <dc:title>Matplotlib v3.10.3, https://matplotlib.org/</dc:title>
     </cc:Agent>
    </dc:creator>
   </cc:Work>
  </rdf:RDF>
 </metadata>
 <defs>
  <style type="text/css">*{stroke-linejoin: round; stroke-linecap: butt}</style>
 </defs>
 <g id="figure_1">
  <g id="patch_1">
   <path d="M 0 535.850625 
L 903.591406 535.850625 
L 903.591406 0 
L 0 0 
z
" style="fill: #ffffff"/>
  </g>
  <g id="axes_1">
   <g id="patch_2">
    <path d="M 90.959375 476.36 
L 872.159375 476.36 
L 872.159375 32.84 
L 90.959375 32.84 
z
" style="fill: #ffffff"/>
   </g>
   <g id="patch_3">
    <path d="M 714.342826 476.36 
L 722.154826 476.36 
L 722.154826 347.787187 
L 714.342826 347.787187 
z
" clip-path="url(#pdb341628b2)" style="fill: #ff0000; opacity: 0.1"/>
   </g>
   <g id="patch_4">
    <path d="M 658.640978 476.36 
L 666.452978 476.36 
L 666.452978 280.747776 
L 658.640978 280.747776 
z
" clip-path="url(#pdb341628b2)" style="fill: #ff0000; opacity: 0.1"/>
   </g>
   <g id="patch_5">
    <path d="M 574.844095 476.36 
L 582.656095 476.36 
L 582.656095 237.512242 
L 574.844095 237.512242 
z
" clip-path="url(#pdb341628b2)" style="fill: #ff0000; opacity: 0.1"/>
   </g>
   <g id="patch_6">
    <path d="M 470.661581 476.36 
L 478.473581 476.36 
L 478.473581 220.464983 
L 470.661581 220.464983 
z
" clip-path="url(#pdb341628b2)" style="fill: #ff0000; opacity: 0.1"/>
   </g>
   <g id="patch_7">
    <path d="M 356.658383 476.36 
L 364.470383 476.36 
L 364.470383 227.355474 
L 356.658383 227.355474 
z
" clip-path="url(#pdb341628b2)" style="fill: #ff0000; opacity: 0.1"/>
   </g>
   <g id="patch_8">
    <path d="M 236.5727 476.36 
L 244.3847 476.36 
L 244.3847 252.512528 
L 236.5727 252.512528 
z
" clip-path="url(#pdb341628b2)" style="fill: #ff0000; opacity: 0.1"/>
   </g>
   <g id="patch_9">
    <path d="M 114.714063 476.36 
L 122.526063 476.36 
L 122.526063 288.647396 
L 114.714063 288.647396 
z
" clip-path="url(#pdb341628b2)" style="fill: #ff0000; opacity: 0.1"/>
   </g>
   <g id="patch_10">
    <path d="M -9.814986 476.36 
L -2.002986 476.36 
L -2.002986 328.638579 
L -9.814986 328.638579 
z
" clip-path="url(#pdb341628b2)" style="fill: #ff0000; opacity: 0.1"/>
   </g>
   <g id="patch_11">
    <path d="M -133.993964 476.36 
L -126.181964 476.36 
L -126.181964 366.828362 
L -133.993964 366.828362 
z
" clip-path="url(#pdb341628b2)" style="fill: #ff0000; opacity: 0.1"/>
   </g>
   <g id="patch_12">
    <path d="M -258.568823 476.36 
L -250.756823 476.36 
L -250.756823 399.624602 
L -258.568823 399.624602 
z
" clip-path="url(#pdb341628b2)" style="fill: #ff0000; opacity: 0.1"/>
   </g>
   <g id="patch_13">
    <path d="M -383.294881 476.36 
L -375.482881 476.36 
L -375.482881 425.462809 
L -383.294881 425.462809 
z
" clip-path="url(#pdb341628b2)" style="fill: #ff0000; opacity: 0.1"/>
   </g>
   <g id="patch_14">
    <path d="M -508.094669 476.36 
L -500.282669 476.36 
L -500.282669 444.349345 
L -508.094669 444.349345 
z
" clip-path="url(#pdb341628b2)" style="fill: #ff0000; opacity: 0.1"/>
   </g>
   <g id="patch_15">
    <path d="M -632.822434 476.36 
L -625.010434 476.36 
L -625.010434 457.248009 
L -632.822434 457.248009 
z
" clip-path="url(#pdb341628b2)" style="fill: #ff0000; opacity: 0.1"/>
   </g>
   <g id="patch_16">
    <path d="M -757.463202 476.36 
L -749.651202 476.36 
L -749.651202 465.517565 
L -757.463202 465.517565 
z
" clip-path="url(#pdb341628b2)" style="fill: #ff0000; opacity: 0.1"/>
   </g>
   <g id="matplotlib.axis_1">
    <g id="xtick_1">
     <g id="line2d_1">
      <defs>
       <path id="mb44620332e" d="M 0 0 
L 0 -6 
" style="stroke: #000000"/>
      </defs>
      <g>
       <use xlink:href="#mb44620332e" x="90.959375" y="476.36" style="stroke: #000000"/>
      </g>
     </g>
     <g id="line2d_2">
      <defs>
       <path id="m80a467496f" d="M 0 0 
L 0 6 
" style="stroke: #000000"/>
      </defs>
      <g>
       <use xlink:href="#m80a467496f" x="90.959375" y="32.84" style="stroke: #000000"/>
      </g>
     </g>
     <g id="text_1">
      <!-- −0.05 -->
      <g transform="translate(52.652734 498.856094) scale(0.25 -0.25)">
       <defs>
        <path id="DejaVuSans-2212" d="M 678 2272 
L 4684 2272 
L 4684 1741 
L 678 1741 
L 678 2272 
z
" transform="scale(0.015625)"/>
        <path id="DejaVuSans-30" d="M 2034 4250 
Q 1547 4250 1301 3770 
Q 1056 3291 1056 2328 
Q 1056 1369 1301 889 
Q 1547 409 2034 409 
Q 2525 409 2770 889 
Q 3016 1369 3016 2328 
Q 3016 3291 2770 3770 
Q 2525 4250 2034 4250 
z
M 2034 4750 
Q 2819 4750 3233 4129 
Q 3647 3509 3647 2328 
Q 3647 1150 3233 529 
Q 2819 -91 2034 -91 
Q 1250 -91 836 529 
Q 422 1150 422 2328 
Q 422 3509 836 4129 
Q 1250 4750 2034 4750 
z
" transform="scale(0.015625)"/>
        <path id="DejaVuSans-2e" d="M 684 794 
L 1344 794 
L 1344 0 
L 684 0 
L 684 794 
z
" transform="scale(0.015625)"/>
        <path id="DejaVuSans-35" d="M 691 4666 
L 3169 4666 
L 3169 4134 
L 1269 4134 
L 1269 2991 
Q 1406 3038 1543 3061 
Q 1681 3084 1819 3084 
Q 2600 3084 3056 2656 
Q 3513 2228 3513 1497 
Q 3513 744 3044 326 
Q 2575 -91 1722 -91 
Q 1428 -91 1123 -41 
Q 819 9 494 109 
L 494 744 
Q 775 591 1075 516 
Q 1375 441 1709 441 
Q 2250 441 2565 725 
Q 2881 1009 2881 1497 
Q 2881 1984 2565 2268 
Q 2250 2553 1709 2553 
Q 1456 2553 1204 2497 
Q 953 2441 691 2322 
L 691 4666 
z
" transform="scale(0.015625)"/>
       </defs>
       <use xlink:href="#DejaVuSans-2212"/>
       <use xlink:href="#DejaVuSans-30" transform="translate(83.789062 0)"/>
       <use xlink:href="#DejaVuSans-2e" transform="translate(147.412109 0)"/>
       <use xlink:href="#DejaVuSans-30" transform="translate(179.199219 0)"/>
       <use xlink:href="#DejaVuSans-35" transform="translate(242.822266 0)"/>
      </g>
     </g>
    </g>
    <g id="xtick_2">
     <g id="line2d_3">
      <g>
       <use xlink:href="#mb44620332e" x="247.199375" y="476.36" style="stroke: #000000"/>
      </g>
     </g>
     <g id="line2d_4">
      <g>
       <use xlink:href="#m80a467496f" x="247.199375" y="32.84" style="stroke: #000000"/>
      </g>
     </g>
     <g id="text_2">
      <!-- −0.04 -->
      <g transform="translate(208.892734 498.856094) scale(0.25 -0.25)">
       <defs>
        <path id="DejaVuSans-34" d="M 2419 4116 
L 825 1625 
L 2419 1625 
L 2419 4116 
z
M 2253 4666 
L 3047 4666 
L 3047 1625 
L 3713 1625 
L 3713 1100 
L 3047 1100 
L 3047 0 
L 2419 0 
L 2419 1100 
L 313 1100 
L 313 1709 
L 2253 4666 
z
" transform="scale(0.015625)"/>
       </defs>
       <use xlink:href="#DejaVuSans-2212"/>
       <use xlink:href="#DejaVuSans-30" transform="translate(83.789062 0)"/>
       <use xlink:href="#DejaVuSans-2e" transform="translate(147.412109 0)"/>
       <use xlink:href="#DejaVuSans-30" transform="translate(179.199219 0)"/>
       <use xlink:href="#DejaVuSans-34" transform="translate(242.822266 0)"/>
      </g>
     </g>
    </g>
    <g id="xtick_3">
     <g id="line2d_5">
      <g>
       <use xlink:href="#mb44620332e" x="403.439375" y="476.36" style="stroke: #000000"/>
      </g>
     </g>
     <g id="line2d_6">
      <g>
       <use xlink:href="#m80a467496f" x="403.439375" y="32.84" style="stroke: #000000"/>
      </g>
     </g>
     <g id="text_3">
      <!-- −0.03 -->
      <g transform="translate(365.132734 498.856094) scale(0.25 -0.25)">
       <defs>
        <path id="DejaVuSans-33" d="M 2597 2516 
Q 3050 2419 3304 2112 
Q 3559 1806 3559 1356 
Q 3559 666 3084 287 
Q 2609 -91 1734 -91 
Q 1441 -91 1130 -33 
Q 819 25 488 141 
L 488 750 
Q 750 597 1062 519 
Q 1375 441 1716 441 
Q 2309 441 2620 675 
Q 2931 909 2931 1356 
Q 2931 1769 2642 2001 
Q 2353 2234 1838 2234 
L 1294 2234 
L 1294 2753 
L 1863 2753 
Q 2328 2753 2575 2939 
Q 2822 3125 2822 3475 
Q 2822 3834 2567 4026 
Q 2313 4219 1838 4219 
Q 1578 4219 1281 4162 
Q 984 4106 628 3988 
L 628 4550 
Q 988 4650 1302 4700 
Q 1616 4750 1894 4750 
Q 2613 4750 3031 4423 
Q 3450 4097 3450 3541 
Q 3450 3153 3228 2886 
Q 3006 2619 2597 2516 
z
" transform="scale(0.015625)"/>
       </defs>
       <use xlink:href="#DejaVuSans-2212"/>
       <use xlink:href="#DejaVuSans-30" transform="translate(83.789062 0)"/>
       <use xlink:href="#DejaVuSans-2e" transform="translate(147.412109 0)"/>
       <use xlink:href="#DejaVuSans-30" transform="translate(179.199219 0)"/>
       <use xlink:href="#DejaVuSans-33" transform="translate(242.822266 0)"/>
      </g>
     </g>
    </g>
    <g id="xtick_4">
     <g id="line2d_7">
      <g>
       <use xlink:href="#mb44620332e" x="559.679375" y="476.36" style="stroke: #000000"/>
      </g>
     </g>
     <g id="line2d_8">
      <g>
       <use xlink:href="#m80a467496f" x="559.679375" y="32.84" style="stroke: #000000"/>
      </g>
     </g>
     <g id="text_4">
      <!-- −0.02 -->
      <g transform="translate(521.372734 498.856094) scale(0.25 -0.25)">
       <defs>
        <path id="DejaVuSans-32" d="M 1228 531 
L 3431 531 
L 3431 0 
L 469 0 
L 469 531 
Q 828 903 1448 1529 
Q 2069 2156 2228 2338 
Q 2531 2678 2651 2914 
Q 2772 3150 2772 3378 
Q 2772 3750 2511 3984 
Q 2250 4219 1831 4219 
Q 1534 4219 1204 4116 
Q 875 4013 500 3803 
L 500 4441 
Q 881 4594 1212 4672 
Q 1544 4750 1819 4750 
Q 2544 4750 2975 4387 
Q 3406 4025 3406 3419 
Q 3406 3131 3298 2873 
Q 3191 2616 2906 2266 
Q 2828 2175 2409 1742 
Q 1991 1309 1228 531 
z
" transform="scale(0.015625)"/>
       </defs>
       <use xlink:href="#DejaVuSans-2212"/>
       <use xlink:href="#DejaVuSans-30" transform="translate(83.789062 0)"/>
       <use xlink:href="#DejaVuSans-2e" transform="translate(147.412109 0)"/>
       <use xlink:href="#DejaVuSans-30" transform="translate(179.199219 0)"/>
       <use xlink:href="#DejaVuSans-32" transform="translate(242.822266 0)"/>
      </g>
     </g>
    </g>
    <g id="xtick_5">
     <g id="line2d_9">
      <g>
       <use xlink:href="#mb44620332e" x="715.919375" y="476.36" style="stroke: #000000"/>
      </g>
     </g>
     <g id="line2d_10">
      <g>
       <use xlink:href="#m80a467496f" x="715.919375" y="32.84" style="stroke: #000000"/>
      </g>
     </g>
     <g id="text_5">
      <!-- −0.01 -->
      <g transform="translate(677.612734 498.856094) scale(0.25 -0.25)">
       <defs>
        <path id="DejaVuSans-31" d="M 794 531 
L 1825 531 
L 1825 4091 
L 703 3866 
L 703 4441 
L 1819 4666 
L 2450 4666 
L 2450 531 
L 3481 531 
L 3481 0 
L 794 0 
L 794 531 
z
" transform="scale(0.015625)"/>
       </defs>
       <use xlink:href="#DejaVuSans-2212"/>
       <use xlink:href="#DejaVuSans-30" transform="translate(83.789062 0)"/>
       <use xlink:href="#DejaVuSans-2e" transform="translate(147.412109 0)"/>
       <use xlink:href="#DejaVuSans-30" transform="translate(179.199219 0)"/>
       <use xlink:href="#DejaVuSans-31" transform="translate(242.822266 0)"/>
      </g>
     </g>
    </g>
    <g id="xtick_6">
     <g id="line2d_11">
      <g>
       <use xlink:href="#mb44620332e" x="872.159375" y="476.36" style="stroke: #000000"/>
      </g>
     </g>
     <g id="line2d_12">
      <g>
       <use xlink:href="#m80a467496f" x="872.159375" y="32.84" style="stroke: #000000"/>
      </g>
     </g>
     <g id="text_6">
      <!-- 0.00 -->
      <g transform="translate(844.327344 498.856094) scale(0.25 -0.25)">
       <use xlink:href="#DejaVuSans-30"/>
       <use xlink:href="#DejaVuSans-2e" transform="translate(63.623047 0)"/>
       <use xlink:href="#DejaVuSans-30" transform="translate(95.410156 0)"/>
       <use xlink:href="#DejaVuSans-30" transform="translate(159.033203 0)"/>
      </g>
     </g>
    </g>
    <g id="xtick_7">
     <g id="line2d_13">
      <defs>
       <path id="m592cd0205f" d="M 0 0 
L 0 -3 
" style="stroke: #000000"/>
      </defs>
      <g>
       <use xlink:href="#m592cd0205f" x="122.207375" y="476.36" style="stroke: #000000"/>
      </g>
     </g>
     <g id="line2d_14">
      <defs>
       <path id="m87671cb7ce" d="M 0 0 
L 0 3 
" style="stroke: #000000"/>
      </defs>
      <g>
       <use xlink:href="#m87671cb7ce" x="122.207375" y="32.84" style="stroke: #000000"/>
      </g>
     </g>
    </g>
    <g id="xtick_8">
     <g id="line2d_15">
      <g>
       <use xlink:href="#m592cd0205f" x="153.455375" y="476.36" style="stroke: #000000"/>
      </g>
     </g>
     <g id="line2d_16">
      <g>
       <use xlink:href="#m87671cb7ce" x="153.455375" y="32.84" style="stroke: #000000"/>
      </g>
     </g>
    </g>
    <g id="xtick_9">
     <g id="line2d_17">
      <g>
       <use xlink:href="#m592cd0205f" x="184.703375" y="476.36" style="stroke: #000000"/>
      </g>
     </g>
     <g id="line2d_18">
      <g>
       <use xlink:href="#m87671cb7ce" x="184.703375" y="32.84" style="stroke: #000000"/>
      </g>
     </g>
    </g>
    <g id="xtick_10">
     <g id="line2d_19">
      <g>
       <use xlink:href="#m592cd0205f" x="215.951375" y="476.36" style="stroke: #000000"/>
      </g>
     </g>
     <g id="line2d_20">
      <g>
       <use xlink:href="#m87671cb7ce" x="215.951375" y="32.84" style="stroke: #000000"/>
      </g>
     </g>
    </g>
    <g id="xtick_11">
     <g id="line2d_21">
      <g>
       <use xlink:href="#m592cd0205f" x="278.447375" y="476.36" style="stroke: #000000"/>
      </g>
     </g>
     <g id="line2d_22">
      <g>
       <use xlink:href="#m87671cb7ce" x="278.447375" y="32.84" style="stroke: #000000"/>
      </g>
     </g>
    </g>
    <g id="xtick_12">
     <g id="line2d_23">
      <g>
       <use xlink:href="#m592cd0205f" x="309.695375" y="476.36" style="stroke: #000000"/>
      </g>
     </g>
     <g id="line2d_24">
      <g>
       <use xlink:href="#m87671cb7ce" x="309.695375" y="32.84" style="stroke: #000000"/>
      </g>
     </g>
    </g>
    <g id="xtick_13">
     <g id="line2d_25">
      <g>
       <use xlink:href="#m592cd0205f" x="340.943375" y="476.36" style="stroke: #000000"/>
      </g>
     </g>
     <g id="line2d_26">
      <g>
       <use xlink:href="#m87671cb7ce" x="340.943375" y="32.84" style="stroke: #000000"/>
      </g>
     </g>
    </g>
    <g id="xtick_14">
     <g id="line2d_27">
      <g>
       <use xlink:href="#m592cd0205f" x="372.191375" y="476.36" style="stroke: #000000"/>
      </g>
     </g>
     <g id="line2d_28">
      <g>
       <use xlink:href="#m87671cb7ce" x="372.191375" y="32.84" style="stroke: #000000"/>
      </g>
     </g>
    </g>
    <g id="xtick_15">
     <g id="line2d_29">
      <g>
       <use xlink:href="#m592cd0205f" x="434.687375" y="476.36" style="stroke: #000000"/>
      </g>
     </g>
     <g id="line2d_30">
      <g>
       <use xlink:href="#m87671cb7ce" x="434.687375" y="32.84" style="stroke: #000000"/>
      </g>
     </g>
    </g>
    <g id="xtick_16">
     <g id="line2d_31">
      <g>
       <use xlink:href="#m592cd0205f" x="465.935375" y="476.36" style="stroke: #000000"/>
      </g>
     </g>
     <g id="line2d_32">
      <g>
       <use xlink:href="#m87671cb7ce" x="465.935375" y="32.84" style="stroke: #000000"/>
      </g>
     </g>
    </g>
    <g id="xtick_17">
     <g id="line2d_33">
      <g>
       <use xlink:href="#m592cd0205f" x="497.183375" y="476.36" style="stroke: #000000"/>
      </g>
     </g>
     <g id="line2d_34">
      <g>
       <use xlink:href="#m87671cb7ce" x="497.183375" y="32.84" style="stroke: #000000"/>
      </g>
     </g>
    </g>
    <g id="xtick_18">
     <g id="line2d_35">
      <g>
       <use xlink:href="#m592cd0205f" x="528.431375" y="476.36" style="stroke: #000000"/>
      </g>
     </g>
     <g id="line2d_36">
      <g>
       <use xlink:href="#m87671cb7ce" x="528.431375" y="32.84" style="stroke: #000000"/>
      </g>
     </g>
    </g>
    <g id="xtick_19">
     <g id="line2d_37">
      <g>
       <use xlink:href="#m592cd0205f" x="590.927375" y="476.36" style="stroke: #000000"/>
      </g>
     </g>
     <g id="line2d_38">
      <g>
       <use xlink:href="#m87671cb7ce" x="590.927375" y="32.84" style="stroke: #000000"/>
      </g>
     </g>
    </g>
    <g id="xtick_20">
     <g id="line2d_39">
      <g>
       <use xlink:href="#m592cd0205f" x="622.175375" y="476.36" style="stroke: #000000"/>
      </g>
     </g>
     <g id="line2d_40">
      <g>
       <use xlink:href="#m87671cb7ce" x="622.175375" y="32.84" style="stroke: #000000"/>
      </g>
     </g>
    </g>
    <g id="xtick_21">
     <g id="line2d_41">
      <g>
       <use xlink:href="#m592cd0205f" x="653.423375" y="476.36" style="stroke: #000000"/>
      </g>
     </g>
     <g id="line2d_42">
      <g>
       <use xlink:href="#m87671cb7ce" x="653.423375" y="32.84" style="stroke: #000000"/>
      </g>
     </g>
    </g>
    <g id="xtick_22">
     <g id="line2d_43">
      <g>
       <use xlink:href="#m592cd0205f" x="684.671375" y="476.36" style="stroke: #000000"/>
      </g>
     </g>
     <g id="line2d_44">
      <g>
       <use xlink:href="#m87671cb7ce" x="684.671375" y="32.84" style="stroke: #000000"/>
      </g>
     </g>
    </g>
    <g id="xtick_23">
     <g id="line2d_45">
      <g>
       <use xlink:href="#m592cd0205f" x="747.167375" y="476.36" style="stroke: #000000"/>
      </g>
     </g>
     <g id="line2d_46">
      <g>
       <use xlink:href="#m87671cb7ce" x="747.167375" y="32.84" style="stroke: #000000"/>
      </g>
     </g>
    </g>
    <g id="xtick_24">
     <g id="line2d_47">
      <g>
       <use xlink:href="#m592cd0205f" x="778.415375" y="476.36" style="stroke: #000000"/>
      </g>
     </g>
     <g id="line2d_48">
      <g>
       <use xlink:href="#m87671cb7ce" x="778.415375" y="32.84" style="stroke: #000000"/>
      </g>
     </g>
    </g>
    <g id="xtick_25">
     <g id="line2d_49">
      <g>
       <use xlink:href="#m592cd0205f" x="809.663375" y="476.36" style="stroke: #000000"/>
      </g>
     </g>
     <g id="line2d_50">
      <g>
       <use xlink:href="#m87671cb7ce" x="809.663375" y="32.84" style="stroke: #000000"/>
      </g>
     </g>
    </g>
    <g id="xtick_26">
     <g id="line2d_51">
      <g>
       <use xlink:href="#m592cd0205f" x="840.911375" y="476.36" style="stroke: #000000"/>
      </g>
     </g>
     <g id="line2d_52">
      <g>
       <use xlink:href="#m87671cb7ce" x="840.911375" y="32.84" style="stroke: #000000"/>
      </g>
     </g>
    </g>
    <g id="text_7">
     <!-- Frequency (MHz) -->
     <g transform="translate(376.5125 527.051406) scale(0.25 -0.25)">
      <defs>
       <path id="DejaVuSans-46" d="M 628 4666 
L 3309 4666 
L 3309 4134 
L 1259 4134 
L 1259 2759 
L 3109 2759 
L 3109 2228 
L 1259 2228 
L 1259 0 
L 628 0 
L 628 4666 
z
" transform="scale(0.015625)"/>
       <path id="DejaVuSans-72" d="M 2631 2963 
Q 2534 3019 2420 3045 
Q 2306 3072 2169 3072 
Q 1681 3072 1420 2755 
Q 1159 2438 1159 1844 
L 1159 0 
L 581 0 
L 581 3500 
L 1159 3500 
L 1159 2956 
Q 1341 3275 1631 3429 
Q 1922 3584 2338 3584 
Q 2397 3584 2469 3576 
Q 2541 3569 2628 3553 
L 2631 2963 
z
" transform="scale(0.015625)"/>
       <path id="DejaVuSans-65" d="M 3597 1894 
L 3597 1613 
L 953 1613 
Q 991 1019 1311 708 
Q 1631 397 2203 397 
Q 2534 397 2845 478 
Q 3156 559 3463 722 
L 3463 178 
Q 3153 47 2828 -22 
Q 2503 -91 2169 -91 
Q 1331 -91 842 396 
Q 353 884 353 1716 
Q 353 2575 817 3079 
Q 1281 3584 2069 3584 
Q 2775 3584 3186 3129 
Q 3597 2675 3597 1894 
z
M 3022 2063 
Q 3016 2534 2758 2815 
Q 2500 3097 2075 3097 
Q 1594 3097 1305 2825 
Q 1016 2553 972 2059 
L 3022 2063 
z
" transform="scale(0.015625)"/>
       <path id="DejaVuSans-71" d="M 947 1747 
Q 947 1113 1208 752 
Q 1469 391 1925 391 
Q 2381 391 2643 752 
Q 2906 1113 2906 1747 
Q 2906 2381 2643 2742 
Q 2381 3103 1925 3103 
Q 1469 3103 1208 2742 
Q 947 2381 947 1747 
z
M 2906 525 
Q 2725 213 2448 61 
Q 2172 -91 1784 -91 
Q 1150 -91 751 415 
Q 353 922 353 1747 
Q 353 2572 751 3078 
Q 1150 3584 1784 3584 
Q 2172 3584 2448 3432 
Q 2725 3281 2906 2969 
L 2906 3500 
L 3481 3500 
L 3481 -1331 
L 2906 -1331 
L 2906 525 
z
" transform="scale(0.015625)"/>
       <path id="DejaVuSans-75" d="M 544 1381 
L 544 3500 
L 1119 3500 
L 1119 1403 
Q 1119 906 1312 657 
Q 1506 409 1894 409 
Q 2359 409 2629 706 
Q 2900 1003 2900 1516 
L 2900 3500 
L 3475 3500 
L 3475 0 
L 2900 0 
L 2900 538 
Q 2691 219 2414 64 
Q 2138 -91 1772 -91 
Q 1169 -91 856 284 
Q 544 659 544 1381 
z
M 1991 3584 
L 1991 3584 
z
" transform="scale(0.015625)"/>
       <path id="DejaVuSans-6e" d="M 3513 2113 
L 3513 0 
L 2938 0 
L 2938 2094 
Q 2938 2591 2744 2837 
Q 2550 3084 2163 3084 
Q 1697 3084 1428 2787 
Q 1159 2491 1159 1978 
L 1159 0 
L 581 0 
L 581 3500 
L 1159 3500 
L 1159 2956 
Q 1366 3272 1645 3428 
Q 1925 3584 2291 3584 
Q 2894 3584 3203 3211 
Q 3513 2838 3513 2113 
z
" transform="scale(0.015625)"/>
       <path id="DejaVuSans-63" d="M 3122 3366 
L 3122 2828 
Q 2878 2963 2633 3030 
Q 2388 3097 2138 3097 
Q 1578 3097 1268 2742 
Q 959 2388 959 1747 
Q 959 1106 1268 751 
Q 1578 397 2138 397 
Q 2388 397 2633 464 
Q 2878 531 3122 666 
L 3122 134 
Q 2881 22 2623 -34 
Q 2366 -91 2075 -91 
Q 1284 -91 818 406 
Q 353 903 353 1747 
Q 353 2603 823 3093 
Q 1294 3584 2113 3584 
Q 2378 3584 2631 3529 
Q 2884 3475 3122 3366 
z
" transform="scale(0.015625)"/>
       <path id="DejaVuSans-79" d="M 2059 -325 
Q 1816 -950 1584 -1140 
Q 1353 -1331 966 -1331 
L 506 -1331 
L 506 -850 
L 844 -850 
Q 1081 -850 1212 -737 
Q 1344 -625 1503 -206 
L 1606 56 
L 191 3500 
L 800 3500 
L 1894 763 
L 2988 3500 
L 3597 3500 
L 2059 -325 
z
" transform="scale(0.015625)"/>
       <path id="DejaVuSans-20" transform="scale(0.015625)"/>
       <path id="DejaVuSans-28" d="M 1984 4856 
Q 1566 4138 1362 3434 
Q 1159 2731 1159 2009 
Q 1159 1288 1364 580 
Q 1569 -128 1984 -844 
L 1484 -844 
Q 1016 -109 783 600 
Q 550 1309 550 2009 
Q 550 2706 781 3412 
Q 1013 4119 1484 4856 
L 1984 4856 
z
" transform="scale(0.015625)"/>
       <path id="DejaVuSans-4d" d="M 628 4666 
L 1569 4666 
L 2759 1491 
L 3956 4666 
L 4897 4666 
L 4897 0 
L 4281 0 
L 4281 4097 
L 3078 897 
L 2444 897 
L 1241 4097 
L 1241 0 
L 628 0 
L 628 4666 
z
" transform="scale(0.015625)"/>
       <path id="DejaVuSans-48" d="M 628 4666 
L 1259 4666 
L 1259 2753 
L 3553 2753 
L 3553 4666 
L 4184 4666 
L 4184 0 
L 3553 0 
L 3553 2222 
L 1259 2222 
L 1259 0 
L 628 0 
L 628 4666 
z
" transform="scale(0.015625)"/>
       <path id="DejaVuSans-7a" d="M 353 3500 
L 3084 3500 
L 3084 2975 
L 922 459 
L 3084 459 
L 3084 0 
L 275 0 
L 275 525 
L 2438 3041 
L 353 3041 
L 353 3500 
z
" transform="scale(0.015625)"/>
       <path id="DejaVuSans-29" d="M 513 4856 
L 1013 4856 
Q 1481 4119 1714 3412 
Q 1947 2706 1947 2009 
Q 1947 1309 1714 600 
Q 1481 -109 1013 -844 
L 513 -844 
Q 928 -128 1133 580 
Q 1338 1288 1338 2009 
Q 1338 2731 1133 3434 
Q 928 4138 513 4856 
z
" transform="scale(0.015625)"/>
      </defs>
      <use xlink:href="#DejaVuSans-46"/>
      <use xlink:href="#DejaVuSans-72" transform="translate(50.269531 0)"/>
      <use xlink:href="#DejaVuSans-65" transform="translate(89.132812 0)"/>
      <use xlink:href="#DejaVuSans-71" transform="translate(150.65625 0)"/>
      <use xlink:href="#DejaVuSans-75" transform="translate(214.132812 0)"/>
      <use xlink:href="#DejaVuSans-65" transform="translate(277.511719 0)"/>
      <use xlink:href="#DejaVuSans-6e" transform="translate(339.035156 0)"/>
      <use xlink:href="#DejaVuSans-63" transform="translate(402.414062 0)"/>
      <use xlink:href="#DejaVuSans-79" transform="translate(457.394531 0)"/>
      <use xlink:href="#DejaVuSans-20" transform="translate(516.574219 0)"/>
      <use xlink:href="#DejaVuSans-28" transform="translate(548.361328 0)"/>
      <use xlink:href="#DejaVuSans-4d" transform="translate(587.375 0)"/>
      <use xlink:href="#DejaVuSans-48" transform="translate(673.654297 0)"/>
      <use xlink:href="#DejaVuSans-7a" transform="translate(748.849609 0)"/>
      <use xlink:href="#DejaVuSans-29" transform="translate(801.339844 0)"/>
     </g>
    </g>
   </g>
   <g id="matplotlib.axis_2">
    <g id="ytick_1">
     <g id="line2d_53">
      <defs>
       <path id="mfc784be523" d="M 0 0 
L 6 0 
" style="stroke: #000000"/>
      </defs>
      <g>
       <use xlink:href="#mfc784be523" x="90.959375" y="476.36" style="stroke: #000000"/>
      </g>
     </g>
     <g id="line2d_54">
      <defs>
       <path id="m0de4b1ea6b" d="M 0 0 
L -6 0 
" style="stroke: #000000"/>
      </defs>
      <g>
       <use xlink:href="#m0de4b1ea6b" x="872.159375" y="476.36" style="stroke: #000000"/>
      </g>
     </g>
     <g id="text_8">
      <!-- 0.00 -->
      <g transform="translate(31.795313 485.858047) scale(0.25 -0.25)">
       <use xlink:href="#DejaVuSans-30"/>
       <use xlink:href="#DejaVuSans-2e" transform="translate(63.623047 0)"/>
       <use xlink:href="#DejaVuSans-30" transform="translate(95.410156 0)"/>
       <use xlink:href="#DejaVuSans-30" transform="translate(159.033203 0)"/>
      </g>
     </g>
    </g>
    <g id="ytick_2">
     <g id="line2d_55">
      <g>
       <use xlink:href="#mfc784be523" x="90.959375" y="377.8" style="stroke: #000000"/>
      </g>
     </g>
     <g id="line2d_56">
      <g>
       <use xlink:href="#m0de4b1ea6b" x="872.159375" y="377.8" style="stroke: #000000"/>
      </g>
     </g>
     <g id="text_9">
      <!-- 0.05 -->
      <g transform="translate(31.795313 387.298047) scale(0.25 -0.25)">
       <use xlink:href="#DejaVuSans-30"/>
       <use xlink:href="#DejaVuSans-2e" transform="translate(63.623047 0)"/>
       <use xlink:href="#DejaVuSans-30" transform="translate(95.410156 0)"/>
       <use xlink:href="#DejaVuSans-35" transform="translate(159.033203 0)"/>
      </g>
     </g>
    </g>
    <g id="ytick_3">
     <g id="line2d_57">
      <g>
       <use xlink:href="#mfc784be523" x="90.959375" y="279.24" style="stroke: #000000"/>
      </g>
     </g>
     <g id="line2d_58">
      <g>
       <use xlink:href="#m0de4b1ea6b" x="872.159375" y="279.24" style="stroke: #000000"/>
      </g>
     </g>
     <g id="text_10">
      <!-- 0.10 -->
      <g transform="translate(31.795313 288.738047) scale(0.25 -0.25)">
       <use xlink:href="#DejaVuSans-30"/>
       <use xlink:href="#DejaVuSans-2e" transform="translate(63.623047 0)"/>
       <use xlink:href="#DejaVuSans-31" transform="translate(95.410156 0)"/>
       <use xlink:href="#DejaVuSans-30" transform="translate(159.033203 0)"/>
      </g>
     </g>
    </g>
    <g id="ytick_4">
     <g id="line2d_59">
      <g>
       <use xlink:href="#mfc784be523" x="90.959375" y="180.68" style="stroke: #000000"/>
      </g>
     </g>
     <g id="line2d_60">
      <g>
       <use xlink:href="#m0de4b1ea6b" x="872.159375" y="180.68" style="stroke: #000000"/>
      </g>
     </g>
     <g id="text_11">
      <!-- 0.15 -->
      <g transform="translate(31.795313 190.178047) scale(0.25 -0.25)">
       <use xlink:href="#DejaVuSans-30"/>
       <use xlink:href="#DejaVuSans-2e" transform="translate(63.623047 0)"/>
       <use xlink:href="#DejaVuSans-31" transform="translate(95.410156 0)"/>
       <use xlink:href="#DejaVuSans-35" transform="translate(159.033203 0)"/>
      </g>
     </g>
    </g>
    <g id="ytick_5">
     <g id="line2d_61">
      <g>
       <use xlink:href="#mfc784be523" x="90.959375" y="82.12" style="stroke: #000000"/>
      </g>
     </g>
     <g id="line2d_62">
      <g>
       <use xlink:href="#m0de4b1ea6b" x="872.159375" y="82.12" style="stroke: #000000"/>
      </g>
     </g>
     <g id="text_12">
      <!-- 0.20 -->
      <g transform="translate(31.795313 91.618047) scale(0.25 -0.25)">
       <use xlink:href="#DejaVuSans-30"/>
       <use xlink:href="#DejaVuSans-2e" transform="translate(63.623047 0)"/>
       <use xlink:href="#DejaVuSans-32" transform="translate(95.410156 0)"/>
       <use xlink:href="#DejaVuSans-30" transform="translate(159.033203 0)"/>
      </g>
     </g>
    </g>
    <g id="ytick_6">
     <g id="line2d_63">
      <defs>
       <path id="mb45fb41f4f" d="M 0 0 
L 3 0 
" style="stroke: #000000"/>
      </defs>
      <g>
       <use xlink:href="#mb45fb41f4f" x="90.959375" y="456.648" style="stroke: #000000"/>
      </g>
     </g>
     <g id="line2d_64">
      <defs>
       <path id="mae676008fb" d="M 0 0 
L -3 0 
" style="stroke: #000000"/>
      </defs>
      <g>
       <use xlink:href="#mae676008fb" x="872.159375" y="456.648" style="stroke: #000000"/>
      </g>
     </g>
    </g>
    <g id="ytick_7">
     <g id="line2d_65">
      <g>
       <use xlink:href="#mb45fb41f4f" x="90.959375" y="436.936" style="stroke: #000000"/>
      </g>
     </g>
     <g id="line2d_66">
      <g>
       <use xlink:href="#mae676008fb" x="872.159375" y="436.936" style="stroke: #000000"/>
      </g>
     </g>
    </g>
    <g id="ytick_8">
     <g id="line2d_67">
      <g>
       <use xlink:href="#mb45fb41f4f" x="90.959375" y="417.224" style="stroke: #000000"/>
      </g>
     </g>
     <g id="line2d_68">
      <g>
       <use xlink:href="#mae676008fb" x="872.159375" y="417.224" style="stroke: #000000"/>
      </g>
     </g>
    </g>
    <g id="ytick_9">
     <g id="line2d_69">
      <g>
       <use xlink:href="#mb45fb41f4f" x="90.959375" y="397.512" style="stroke: #000000"/>
      </g>
     </g>
     <g id="line2d_70">
      <g>
       <use xlink:href="#mae676008fb" x="872.159375" y="397.512" style="stroke: #000000"/>
      </g>
     </g>
    </g>
    <g id="ytick_10">
     <g id="line2d_71">
      <g>
       <use xlink:href="#mb45fb41f4f" x="90.959375" y="358.088" style="stroke: #000000"/>
      </g>
     </g>
     <g id="line2d_72">
      <g>
       <use xlink:href="#mae676008fb" x="872.159375" y="358.088" style="stroke: #000000"/>
      </g>
     </g>
    </g>
    <g id="ytick_11">
     <g id="line2d_73">
      <g>
       <use xlink:href="#mb45fb41f4f" x="90.959375" y="338.376" style="stroke: #000000"/>
      </g>
     </g>
     <g id="line2d_74">
      <g>
       <use xlink:href="#mae676008fb" x="872.159375" y="338.376" style="stroke: #000000"/>
      </g>
     </g>
    </g>
    <g id="ytick_12">
     <g id="line2d_75">
      <g>
       <use xlink:href="#mb45fb41f4f" x="90.959375" y="318.664" style="stroke: #000000"/>
      </g>
     </g>
     <g id="line2d_76">
      <g>
       <use xlink:href="#mae676008fb" x="872.159375" y="318.664" style="stroke: #000000"/>
      </g>
     </g>
    </g>
    <g id="ytick_13">
     <g id="line2d_77">
      <g>
       <use xlink:href="#mb45fb41f4f" x="90.959375" y="298.952" style="stroke: #000000"/>
      </g>
     </g>
     <g id="line2d_78">
      <g>
       <use xlink:href="#mae676008fb" x="872.159375" y="298.952" style="stroke: #000000"/>
      </g>
     </g>
    </g>
    <g id="ytick_14">
     <g id="line2d_79">
      <g>
       <use xlink:href="#mb45fb41f4f" x="90.959375" y="259.528" style="stroke: #000000"/>
      </g>
     </g>
     <g id="line2d_80">
      <g>
       <use xlink:href="#mae676008fb" x="872.159375" y="259.528" style="stroke: #000000"/>
      </g>
     </g>
    </g>
    <g id="ytick_15">
     <g id="line2d_81">
      <g>
       <use xlink:href="#mb45fb41f4f" x="90.959375" y="239.816" style="stroke: #000000"/>
      </g>
     </g>
     <g id="line2d_82">
      <g>
       <use xlink:href="#mae676008fb" x="872.159375" y="239.816" style="stroke: #000000"/>
      </g>
     </g>
    </g>
    <g id="ytick_16">
     <g id="line2d_83">
      <g>
       <use xlink:href="#mb45fb41f4f" x="90.959375" y="220.104" style="stroke: #000000"/>
      </g>
     </g>
     <g id="line2d_84">
      <g>
       <use xlink:href="#mae676008fb" x="872.159375" y="220.104" style="stroke: #000000"/>
      </g>
     </g>
    </g>
    <g id="ytick_17">
     <g id="line2d_85">
      <g>
       <use xlink:href="#mb45fb41f4f" x="90.959375" y="200.392" style="stroke: #000000"/>
      </g>
     </g>
     <g id="line2d_86">
      <g>
       <use xlink:href="#mae676008fb" x="872.159375" y="200.392" style="stroke: #000000"/>
      </g>
     </g>
    </g>
    <g id="ytick_18">
     <g id="line2d_87">
      <g>
       <use xlink:href="#mb45fb41f4f" x="90.959375" y="160.968" style="stroke: #000000"/>
      </g>
     </g>
     <g id="line2d_88">
      <g>
       <use xlink:href="#mae676008fb" x="872.159375" y="160.968" style="stroke: #000000"/>
      </g>
     </g>
    </g>
    <g id="ytick_19">
     <g id="line2d_89">
      <g>
       <use xlink:href="#mb45fb41f4f" x="90.959375" y="141.256" style="stroke: #000000"/>
      </g>
     </g>
     <g id="line2d_90">
      <g>
       <use xlink:href="#mae676008fb" x="872.159375" y="141.256" style="stroke: #000000"/>
      </g>
     </g>
    </g>
    <g id="ytick_20">
     <g id="line2d_91">
      <g>
       <use xlink:href="#mb45fb41f4f" x="90.959375" y="121.544" style="stroke: #000000"/>
      </g>
     </g>
     <g id="line2d_92">
      <g>
       <use xlink:href="#mae676008fb" x="872.159375" y="121.544" style="stroke: #000000"/>
      </g>
     </g>
    </g>
    <g id="ytick_21">
     <g id="line2d_93">
      <g>
       <use xlink:href="#mb45fb41f4f" x="90.959375" y="101.832" style="stroke: #000000"/>
      </g>
     </g>
     <g id="line2d_94">
      <g>
       <use xlink:href="#mae676008fb" x="872.159375" y="101.832" style="stroke: #000000"/>
      </g>
     </g>
    </g>
    <g id="ytick_22">
     <g id="line2d_95">
      <g>
       <use xlink:href="#mb45fb41f4f" x="90.959375" y="62.408" style="stroke: #000000"/>
      </g>
     </g>
     <g id="line2d_96">
      <g>
       <use xlink:href="#mae676008fb" x="872.159375" y="62.408" style="stroke: #000000"/>
      </g>
     </g>
    </g>
    <g id="ytick_23">
     <g id="line2d_97">
      <g>
       <use xlink:href="#mb45fb41f4f" x="90.959375" y="42.696" style="stroke: #000000"/>
      </g>
     </g>
     <g id="line2d_98">
      <g>
       <use xlink:href="#mae676008fb" x="872.159375" y="42.696" style="stroke: #000000"/>
      </g>
     </g>
    </g>
    <g id="text_13">
     <!-- Excitation probability -->
     <g transform="translate(22.596094 387.189844) rotate(-90) scale(0.25 -0.25)">
      <defs>
       <path id="DejaVuSans-45" d="M 628 4666 
L 3578 4666 
L 3578 4134 
L 1259 4134 
L 1259 2753 
L 3481 2753 
L 3481 2222 
L 1259 2222 
L 1259 531 
L 3634 531 
L 3634 0 
L 628 0 
L 628 4666 
z
" transform="scale(0.015625)"/>
       <path id="DejaVuSans-78" d="M 3513 3500 
L 2247 1797 
L 3578 0 
L 2900 0 
L 1881 1375 
L 863 0 
L 184 0 
L 1544 1831 
L 300 3500 
L 978 3500 
L 1906 2253 
L 2834 3500 
L 3513 3500 
z
" transform="scale(0.015625)"/>
       <path id="DejaVuSans-69" d="M 603 3500 
L 1178 3500 
L 1178 0 
L 603 0 
L 603 3500 
z
M 603 4863 
L 1178 4863 
L 1178 4134 
L 603 4134 
L 603 4863 
z
" transform="scale(0.015625)"/>
       <path id="DejaVuSans-74" d="M 1172 4494 
L 1172 3500 
L 2356 3500 
L 2356 3053 
L 1172 3053 
L 1172 1153 
Q 1172 725 1289 603 
Q 1406 481 1766 481 
L 2356 481 
L 2356 0 
L 1766 0 
Q 1100 0 847 248 
Q 594 497 594 1153 
L 594 3053 
L 172 3053 
L 172 3500 
L 594 3500 
L 594 4494 
L 1172 4494 
z
" transform="scale(0.015625)"/>
       <path id="DejaVuSans-61" d="M 2194 1759 
Q 1497 1759 1228 1600 
Q 959 1441 959 1056 
Q 959 750 1161 570 
Q 1363 391 1709 391 
Q 2188 391 2477 730 
Q 2766 1069 2766 1631 
L 2766 1759 
L 2194 1759 
z
M 3341 1997 
L 3341 0 
L 2766 0 
L 2766 531 
Q 2569 213 2275 61 
Q 1981 -91 1556 -91 
Q 1019 -91 701 211 
Q 384 513 384 1019 
Q 384 1609 779 1909 
Q 1175 2209 1959 2209 
L 2766 2209 
L 2766 2266 
Q 2766 2663 2505 2880 
Q 2244 3097 1772 3097 
Q 1472 3097 1187 3025 
Q 903 2953 641 2809 
L 641 3341 
Q 956 3463 1253 3523 
Q 1550 3584 1831 3584 
Q 2591 3584 2966 3190 
Q 3341 2797 3341 1997 
z
" transform="scale(0.015625)"/>
       <path id="DejaVuSans-6f" d="M 1959 3097 
Q 1497 3097 1228 2736 
Q 959 2375 959 1747 
Q 959 1119 1226 758 
Q 1494 397 1959 397 
Q 2419 397 2687 759 
Q 2956 1122 2956 1747 
Q 2956 2369 2687 2733 
Q 2419 3097 1959 3097 
z
M 1959 3584 
Q 2709 3584 3137 3096 
Q 3566 2609 3566 1747 
Q 3566 888 3137 398 
Q 2709 -91 1959 -91 
Q 1206 -91 779 398 
Q 353 888 353 1747 
Q 353 2609 779 3096 
Q 1206 3584 1959 3584 
z
" transform="scale(0.015625)"/>
       <path id="DejaVuSans-70" d="M 1159 525 
L 1159 -1331 
L 581 -1331 
L 581 3500 
L 1159 3500 
L 1159 2969 
Q 1341 3281 1617 3432 
Q 1894 3584 2278 3584 
Q 2916 3584 3314 3078 
Q 3713 2572 3713 1747 
Q 3713 922 3314 415 
Q 2916 -91 2278 -91 
Q 1894 -91 1617 61 
Q 1341 213 1159 525 
z
M 3116 1747 
Q 3116 2381 2855 2742 
Q 2594 3103 2138 3103 
Q 1681 3103 1420 2742 
Q 1159 2381 1159 1747 
Q 1159 1113 1420 752 
Q 1681 391 2138 391 
Q 2594 391 2855 752 
Q 3116 1113 3116 1747 
z
" transform="scale(0.015625)"/>
       <path id="DejaVuSans-62" d="M 3116 1747 
Q 3116 2381 2855 2742 
Q 2594 3103 2138 3103 
Q 1681 3103 1420 2742 
Q 1159 2381 1159 1747 
Q 1159 1113 1420 752 
Q 1681 391 2138 391 
Q 2594 391 2855 752 
Q 3116 1113 3116 1747 
z
M 1159 2969 
Q 1341 3281 1617 3432 
Q 1894 3584 2278 3584 
Q 2916 3584 3314 3078 
Q 3713 2572 3713 1747 
Q 3713 922 3314 415 
Q 2916 -91 2278 -91 
Q 1894 -91 1617 61 
Q 1341 213 1159 525 
L 1159 0 
L 581 0 
L 581 4863 
L 1159 4863 
L 1159 2969 
z
" transform="scale(0.015625)"/>
       <path id="DejaVuSans-6c" d="M 603 4863 
L 1178 4863 
L 1178 0 
L 603 0 
L 603 4863 
z
" transform="scale(0.015625)"/>
      </defs>
      <use xlink:href="#DejaVuSans-45"/>
      <use xlink:href="#DejaVuSans-78" transform="translate(63.183594 0)"/>
      <use xlink:href="#DejaVuSans-63" transform="translate(120.613281 0)"/>
      <use xlink:href="#DejaVuSans-69" transform="translate(175.59375 0)"/>
      <use xlink:href="#DejaVuSans-74" transform="translate(203.376953 0)"/>
      <use xlink:href="#DejaVuSans-61" transform="translate(242.585938 0)"/>
      <use xlink:href="#DejaVuSans-74" transform="translate(303.865234 0)"/>
      <use xlink:href="#DejaVuSans-69" transform="translate(343.074219 0)"/>
      <use xlink:href="#DejaVuSans-6f" transform="translate(370.857422 0)"/>
      <use xlink:href="#DejaVuSans-6e" transform="translate(432.039062 0)"/>
      <use xlink:href="#DejaVuSans-20" transform="translate(495.417969 0)"/>
      <use xlink:href="#DejaVuSans-70" transform="translate(527.205078 0)"/>
      <use xlink:href="#DejaVuSans-72" transform="translate(590.681641 0)"/>
      <use xlink:href="#DejaVuSans-6f" transform="translate(629.544922 0)"/>
      <use xlink:href="#DejaVuSans-62" transform="translate(690.726562 0)"/>
      <use xlink:href="#DejaVuSans-61" transform="translate(754.203125 0)"/>
      <use xlink:href="#DejaVuSans-62" transform="translate(815.482422 0)"/>
      <use xlink:href="#DejaVuSans-69" transform="translate(878.958984 0)"/>
      <use xlink:href="#DejaVuSans-6c" transform="translate(906.742188 0)"/>
      <use xlink:href="#DejaVuSans-69" transform="translate(934.525391 0)"/>
      <use xlink:href="#DejaVuSans-74" transform="translate(962.308594 0)"/>
      <use xlink:href="#DejaVuSans-79" transform="translate(1001.517578 0)"/>
     </g>
    </g>
   </g>
   <g id="line2d_99">
    <path d="M 90.959375 475.984589 
L 92.523339 475.707524 
L 94.087303 474.677728 
L 95.651267 469.947459 
L 97.215231 474.979265 
L 98.779195 475.971306 
L 100.343159 474.731298 
L 101.907123 475.957818 
L 103.471087 468.239693 
L 105.035051 475.999277 
L 106.599015 474.352241 
L 109.726943 474.752167 
L 111.290907 459.540609 
L 112.85487 464.354408 
L 114.418834 475.388445 
L 115.982798 450.690388 
L 117.546762 463.601541 
L 119.110726 469.869788 
L 120.67469 464.027042 
L 122.238654 464.680047 
L 123.802618 453.429658 
L 125.366582 449.898983 
L 126.930546 451.045486 
L 128.49451 474.79774 
L 130.058474 476.083661 
L 131.622438 474.532386 
L 133.186402 475.746064 
L 134.750366 456.361171 
L 136.31433 476.074795 
L 137.878294 455.892415 
L 139.442258 474.809191 
L 141.006222 476.050082 
L 142.570186 475.292482 
L 145.698114 475.832924 
L 147.262078 475.463242 
L 148.826042 475.349413 
L 150.390006 474.556003 
L 151.95397 475.409912 
L 153.517934 475.902179 
L 155.081898 475.089125 
L 158.209825 475.354571 
L 159.773789 475.516813 
L 162.901717 475.103263 
L 164.465681 476.132091 
L 167.593609 475.325225 
L 170.721537 475.284846 
L 172.285501 475.528064 
L 173.849465 475.535633 
L 175.413429 475.6723 
L 176.977393 475.417488 
L 178.541357 475.487928 
L 181.669285 476.171256 
L 183.233249 476.103314 
L 184.797213 475.512526 
L 186.361177 476.02059 
L 195.744961 476.11981 
L 197.308925 476.007676 
L 198.872889 475.287698 
L 200.436852 475.131006 
L 202.000816 475.671906 
L 203.56478 475.213012 
L 205.128744 475.253042 
L 206.692708 475.524836 
L 208.256672 475.48557 
L 211.3846 475.649604 
L 212.948564 476.14301 
L 214.512528 473.585045 
L 216.076492 475.23119 
L 217.640456 475.015636 
L 219.20442 475.825248 
L 220.768384 473.485095 
L 222.332348 474.653602 
L 223.896312 449.873211 
L 225.460276 475.333965 
L 227.02424 475.519251 
L 228.588204 463.308914 
L 230.152168 472.948785 
L 231.716132 476.093455 
L 233.280096 437.693175 
L 234.84406 439.67764 
L 236.408024 435.506724 
L 237.971988 439.660775 
L 239.535952 436.45572 
L 241.099916 456.546015 
L 242.66388 435.296252 
L 244.227843 444.460304 
L 245.791807 476.128908 
L 247.355771 439.361491 
L 248.919735 461.508989 
L 250.483699 473.115376 
L 252.047663 446.926248 
L 253.611627 472.361776 
L 255.175591 475.962519 
L 256.739555 473.577138 
L 258.303519 475.993755 
L 259.867483 473.253357 
L 261.431447 473.544314 
L 262.995411 474.939261 
L 264.559375 476.073042 
L 266.123339 475.747216 
L 267.687303 475.643136 
L 269.251267 474.894436 
L 270.815231 474.950328 
L 272.379195 473.899992 
L 273.943159 475.395215 
L 275.507123 474.901615 
L 278.635051 474.814938 
L 280.199015 474.823227 
L 281.762979 475.926919 
L 283.326943 474.91891 
L 284.890907 475.256752 
L 288.018834 475.247236 
L 291.146762 476.009865 
L 292.710726 475.899648 
L 294.27469 475.423648 
L 295.838654 475.132608 
L 297.402618 475.957857 
L 298.966582 475.151368 
L 300.530546 475.994214 
L 302.09451 476.024957 
L 303.658474 475.864627 
L 305.222438 475.387436 
L 306.786402 475.748569 
L 308.350366 475.705654 
L 309.91433 475.791592 
L 311.478294 475.379754 
L 313.042258 475.792461 
L 316.170186 475.912234 
L 317.73415 475.444618 
L 319.298114 473.964634 
L 320.862078 475.960432 
L 322.426042 475.040371 
L 323.990006 473.973905 
L 325.55397 473.932642 
L 327.117934 474.155237 
L 328.681898 470.707649 
L 330.245861 472.131611 
L 331.809825 476.023487 
L 333.373789 475.907227 
L 334.937753 475.398741 
L 336.501717 470.387362 
L 338.065681 473.338661 
L 339.629645 470.338549 
L 341.193609 471.722802 
L 342.757573 469.279609 
L 344.321537 470.05337 
L 345.885501 472.073203 
L 347.449465 475.984251 
L 349.013429 431.599249 
L 350.577393 460.969249 
L 352.141357 425.939345 
L 353.705321 415.469244 
L 355.269285 410.114208 
L 356.833249 475.293768 
L 358.397213 416.320031 
L 359.961177 409.692895 
L 361.525141 412.43458 
L 363.089105 456.161368 
L 364.653069 439.450319 
L 366.217033 410.632229 
L 367.780997 470.1285 
L 369.344961 446.357946 
L 370.908925 416.185643 
L 374.036852 475.39324 
L 375.600816 431.388954 
L 377.16478 472.777304 
L 378.728744 474.175892 
L 380.292708 474.135563 
L 381.856672 472.647547 
L 383.420636 472.324157 
L 384.9846 470.695944 
L 386.548564 474.671554 
L 388.112528 473.816406 
L 389.676492 473.462365 
L 391.240456 474.176372 
L 392.80442 471.126112 
L 394.368384 473.844691 
L 395.932348 474.401034 
L 397.496312 474.042344 
L 399.060276 475.489089 
L 400.62424 473.929608 
L 403.752168 474.501649 
L 406.880096 473.933567 
L 408.44406 474.320689 
L 410.008024 473.992905 
L 411.571988 475.426965 
L 413.135952 473.96543 
L 414.699916 473.716359 
L 416.26388 474.550653 
L 417.827843 474.961868 
L 422.519735 474.561052 
L 424.083699 471.90746 
L 425.647663 474.694919 
L 427.211627 474.491274 
L 428.775591 472.545611 
L 430.339555 471.998738 
L 431.903519 475.318582 
L 433.467483 473.45968 
L 435.031447 471.842911 
L 436.595411 472.231753 
L 438.159375 473.993255 
L 439.723339 475.513017 
L 441.287303 471.84455 
L 442.851267 471.757983 
L 444.415231 475.58211 
L 445.979195 464.890723 
L 447.543159 471.830889 
L 449.107123 474.104875 
L 450.671087 463.835605 
L 452.235051 472.333186 
L 453.799015 463.8553 
L 455.362979 464.105326 
L 456.926943 464.032349 
L 458.490907 464.999944 
L 460.05487 459.148403 
L 461.618834 469.997153 
L 463.182798 437.81246 
L 464.746762 415.971645 
L 466.310726 401.680477 
L 467.87469 401.025235 
L 469.438654 401.643903 
L 471.002618 378.108568 
L 472.566582 443.338064 
L 474.130546 370.147114 
L 475.69451 375.805141 
L 477.258474 457.014072 
L 478.822438 374.154617 
L 480.386402 472.577437 
L 481.950366 468.696519 
L 483.51433 474.411023 
L 485.078294 461.82332 
L 486.642258 475.796987 
L 488.206222 475.956935 
L 489.770186 474.669575 
L 491.33415 475.5728 
L 492.898114 464.110874 
L 494.462078 463.142942 
L 496.026042 466.628902 
L 497.590006 463.849328 
L 499.15397 463.204115 
L 500.717934 463.883567 
L 502.281898 475.164165 
L 503.845861 474.9961 
L 505.409825 473.340095 
L 506.973789 470.432668 
L 508.537753 474.217212 
L 510.101717 470.330719 
L 513.229645 470.745865 
L 514.793609 475.500759 
L 516.357573 474.548235 
L 517.921537 472.749245 
L 519.485501 470.716111 
L 521.049465 474.006554 
L 522.613429 471.384983 
L 525.741357 475.138502 
L 527.305321 474.093061 
L 528.869285 473.547787 
L 530.433249 472.255835 
L 531.997213 475.361793 
L 533.561177 473.039278 
L 535.125141 473.873787 
L 536.689105 474.108159 
L 538.253069 474.97568 
L 539.817033 474.465627 
L 541.380997 470.694794 
L 542.944961 469.348234 
L 544.508925 475.05814 
L 546.072889 469.318631 
L 547.636852 473.950992 
L 549.200816 475.691651 
L 550.76478 474.9055 
L 552.328744 475.213458 
L 553.892708 475.689195 
L 555.456672 460.529358 
L 557.020636 465.279238 
L 558.5846 458.209995 
L 560.148564 458.978361 
L 561.712528 458.734445 
L 563.276492 467.493277 
L 564.840456 468.456448 
L 566.40442 472.391714 
L 567.968384 471.155738 
L 569.532348 471.170211 
L 571.096312 464.625436 
L 572.660276 461.808385 
L 574.22424 421.874975 
L 575.788204 416.115887 
L 577.352168 407.923323 
L 578.916132 409.745979 
L 580.480096 407.61996 
L 582.04406 434.060678 
L 583.608024 409.67936 
L 585.171988 424.830989 
L 586.735952 436.999246 
L 588.299916 462.336841 
L 589.86388 467.151633 
L 591.427843 463.238251 
L 592.991807 474.533033 
L 594.555771 460.000639 
L 596.119735 461.756703 
L 597.683699 460.688326 
L 599.247663 466.477382 
L 600.811627 460.622452 
L 602.375591 469.692619 
L 603.939555 472.141173 
L 605.503519 468.122601 
L 607.067483 473.924559 
L 608.631447 464.498062 
L 610.195411 470.498028 
L 611.759375 472.915303 
L 613.323339 470.163367 
L 614.887303 472.290685 
L 616.451267 470.246173 
L 618.015231 472.33772 
L 619.579195 472.913625 
L 621.143159 472.90088 
L 622.707123 473.086613 
L 624.271087 471.4132 
L 625.835051 472.219555 
L 627.399015 471.399605 
L 628.962979 472.123356 
L 632.090907 471.065651 
L 633.65487 472.360734 
L 635.218834 473.828633 
L 636.782798 473.810604 
L 638.346762 472.584136 
L 639.910726 465.177136 
L 641.47469 464.952429 
L 643.038654 468.310683 
L 644.602618 466.464025 
L 646.166582 465.239643 
L 647.730546 464.36652 
L 649.29451 467.670566 
L 652.422438 475.44265 
L 653.986402 475.708139 
L 655.550366 474.407937 
L 657.11433 475.595184 
L 658.678294 468.265079 
L 660.242258 467.397256 
L 661.806222 468.734112 
L 663.370186 468.38166 
L 664.93415 474.06465 
L 666.498114 470.347517 
L 668.062078 475.588362 
L 669.626042 473.166293 
L 671.190006 474.725895 
L 672.75397 473.7547 
L 674.317934 472.126408 
L 675.881898 475.780923 
L 677.445861 465.761349 
L 679.009825 464.217479 
L 680.573789 466.575762 
L 682.137753 464.479739 
L 683.701717 464.904088 
L 685.265681 466.757428 
L 686.829645 475.688797 
L 688.393609 474.609336 
L 689.957573 474.429198 
L 691.521537 475.836833 
L 693.085501 473.242852 
L 694.649465 475.033425 
L 696.213429 472.074436 
L 697.777393 473.835753 
L 699.341357 471.894674 
L 700.905321 471.723552 
L 702.469285 472.254948 
L 704.033249 473.993636 
L 705.597213 475.162558 
L 707.161177 475.854071 
L 708.725141 475.829796 
L 710.289105 474.331645 
L 711.853069 474.554022 
L 713.417033 474.487461 
L 714.980997 473.758216 
L 716.544961 474.79726 
L 718.108925 475.488708 
L 719.672889 475.156275 
L 721.236852 475.819706 
L 724.36478 475.92555 
L 725.928744 475.894783 
L 727.492708 474.834333 
L 729.056672 474.444662 
L 730.620636 474.333399 
L 732.1846 475.012632 
L 733.748564 474.348426 
L 735.312528 475.355079 
L 736.876492 475.052665 
L 738.440456 475.753441 
L 740.00442 475.751627 
L 741.568384 475.157985 
L 743.132348 475.52813 
L 746.260276 474.831767 
L 747.82424 474.890649 
L 752.516132 475.673251 
L 755.64406 475.634451 
L 760.335952 475.017596 
L 761.899916 474.68513 
L 763.46388 474.641533 
L 765.027843 474.878198 
L 771.283699 475.241172 
L 772.847663 475.108332 
L 774.411627 474.504356 
L 775.975591 474.417998 
L 777.539555 473.531258 
L 779.103519 473.414062 
L 780.667483 473.561137 
L 782.231447 472.708796 
L 783.795411 472.28089 
L 785.359375 471.685957 
L 790.051267 467.290941 
L 791.615231 465.832712 
L 793.179195 466.177241 
L 794.743159 463.016739 
L 796.307123 461.694004 
L 797.871087 461.290398 
L 799.435051 458.924864 
L 800.999015 458.986603 
L 802.562979 459.648752 
L 805.690907 462.389064 
L 807.25487 464.839841 
L 808.818834 466.690193 
L 810.382798 468.306402 
L 811.946762 470.527574 
L 813.510726 473.078486 
L 816.638654 474.105684 
L 818.202618 473.749305 
L 819.766582 473.258701 
L 821.330546 471.947337 
L 824.458474 470.567299 
L 826.022438 469.789509 
L 827.586402 469.264589 
L 829.150366 469.374317 
L 830.71433 469.691798 
L 832.278294 469.623886 
L 833.842258 470.208954 
L 835.406222 470.480182 
L 838.53415 471.790891 
L 840.098114 471.967958 
L 841.662078 472.522512 
L 843.226042 473.571279 
L 844.790006 473.863126 
L 846.35397 474.441893 
L 847.917934 474.631659 
L 849.481898 474.617911 
L 855.737753 472.959712 
L 857.301717 472.85983 
L 858.865681 473.194193 
L 861.993609 474.260086 
L 863.557573 474.785208 
L 865.121537 475.125247 
L 866.685501 475.09479 
L 868.249465 474.764947 
L 872.941357 473.023944 
L 874.505321 472.724475 
L 876.069285 472.804582 
L 877.633249 473.125238 
L 879.197213 473.828476 
L 882.325141 474.540974 
L 883.889105 474.631904 
L 885.453069 474.455673 
L 887.017033 473.82674 
L 888.580997 472.769069 
L 890.144961 471.321807 
L 891.708925 470.426508 
L 893.272889 469.129691 
L 894.836852 468.842899 
L 896.400816 468.274561 
L 897.96478 468.247399 
L 899.528744 468.696527 
L 904.220636 472.203033 
L 904.591406 472.638002 
L 904.591406 472.638002 
" clip-path="url(#pdb341628b2)" style="fill: none; stroke: #0000ff; stroke-width: 3; stroke-linecap: square"/>
   </g>
   <g id="line2d_100">
    <path d="M 90.959375 475.648458 
L 94.087303 474.791732 
L 95.651267 474.491551 
L 97.215231 474.442021 
L 98.779195 474.691022 
L 101.907123 475.710711 
L 103.471087 476.006183 
L 105.035051 475.726973 
L 106.599015 474.571316 
L 108.162979 472.357562 
L 109.726943 469.09437 
L 111.290907 465.014272 
L 114.418834 456.306924 
L 115.982798 452.879998 
L 117.546762 450.80992 
L 119.110726 450.434047 
L 120.67469 451.821705 
L 122.238654 454.757369 
L 123.802618 458.784204 
L 126.930546 467.669813 
L 128.49451 471.367134 
L 130.058474 474.048002 
L 131.622438 475.605622 
L 133.186402 476.157672 
L 134.750366 475.986774 
L 137.878294 474.888371 
L 139.442258 474.542209 
L 141.006222 474.519746 
L 142.570186 474.794324 
L 147.262078 476.026923 
L 148.826042 476.138698 
L 150.390006 476.033914 
L 156.645861 475.067225 
L 159.773789 475.121774 
L 164.465681 475.343097 
L 170.721537 475.322952 
L 173.849465 475.681997 
L 176.977393 476.073443 
L 178.541357 476.138305 
L 181.669285 475.926415 
L 184.797213 475.577453 
L 186.361177 475.519877 
L 189.489105 475.75665 
L 192.617033 476.12612 
L 194.180997 476.166269 
L 195.744961 476.050228 
L 202.000816 475.106907 
L 203.56478 475.186152 
L 206.692708 475.790074 
L 208.256672 476.076811 
L 209.820636 476.155874 
L 211.3846 475.927637 
L 212.948564 475.387489 
L 216.076492 473.902144 
L 217.640456 473.403 
L 219.20442 473.346408 
L 220.768384 473.804094 
L 223.896312 475.583787 
L 225.460276 476.092833 
L 227.02424 475.629764 
L 228.588204 473.707287 
L 230.152168 470.046869 
L 231.716132 464.688967 
L 233.280096 458.040643 
L 236.408024 444.049784 
L 237.971988 438.665245 
L 239.535952 435.533465 
L 241.099916 435.169433 
L 242.66388 437.64645 
L 244.227843 442.576422 
L 245.791807 449.187797 
L 248.919735 463.443269 
L 250.483699 469.219689 
L 252.047663 473.288754 
L 253.611627 475.516746 
L 255.175591 476.136116 
L 256.739555 475.64145 
L 259.867483 473.679777 
L 261.431447 473.151995 
L 262.995411 473.202123 
L 264.559375 473.752663 
L 267.687303 475.367581 
L 269.251267 475.907518 
L 270.815231 476.072632 
L 272.379195 475.8886 
L 275.507123 475.089159 
L 277.071087 474.838397 
L 278.635051 474.835312 
L 280.199015 475.06628 
L 283.326943 475.77439 
L 284.890907 475.97494 
L 286.45487 475.964532 
L 289.582798 475.471982 
L 291.146762 475.21548 
L 292.710726 475.105824 
L 294.27469 475.190235 
L 298.966582 475.963061 
L 300.530546 476.015488 
L 302.09451 475.857615 
L 306.786402 474.93189 
L 308.350366 474.889313 
L 309.91433 475.08249 
L 313.042258 475.806593 
L 314.606222 476.01587 
L 316.170186 475.940914 
L 317.73415 475.559375 
L 320.862078 474.375855 
L 322.426042 473.995036 
L 323.990006 473.992959 
L 325.55397 474.396668 
L 328.681898 475.718929 
L 330.245861 476.028728 
L 331.809825 475.736376 
L 333.373789 474.768406 
L 336.501717 471.72351 
L 338.065681 470.560368 
L 339.629645 470.265442 
L 341.193609 471.048261 
L 342.757573 472.727611 
L 344.321537 474.68907 
L 345.885501 475.972721 
L 347.449465 475.483364 
L 349.013429 472.277238 
L 350.577393 465.851583 
L 352.141357 456.355515 
L 356.833249 420.892991 
L 358.397213 412.435817 
L 359.961177 408.241277 
L 361.525141 408.988626 
L 363.089105 414.511446 
L 364.653069 423.844839 
L 369.344961 458.454991 
L 370.908925 466.99015 
L 372.472889 472.54574 
L 374.036852 475.175829 
L 375.600816 475.463078 
L 377.16478 474.298082 
L 378.728744 472.624738 
L 380.292708 471.218492 
L 381.856672 470.546807 
L 383.420636 470.732583 
L 384.9846 471.611027 
L 388.112528 474.071088 
L 389.676492 474.990254 
L 391.240456 475.454571 
L 392.80442 475.466023 
L 394.368384 475.143988 
L 397.496312 474.211269 
L 399.060276 473.909765 
L 400.62424 473.82801 
L 402.188204 473.966247 
L 405.316132 474.668282 
L 408.44406 475.347995 
L 410.008024 475.473118 
L 411.571988 475.393645 
L 413.135952 475.116121 
L 417.827843 473.875343 
L 419.391807 473.719005 
L 420.955771 473.842157 
L 422.519735 474.231019 
L 425.647663 475.290843 
L 427.211627 475.564693 
L 428.775591 475.432704 
L 430.339555 474.844739 
L 435.031447 472.037125 
L 436.595411 471.733406 
L 438.159375 472.101762 
L 439.723339 473.065206 
L 441.287303 474.300163 
L 442.851267 475.306414 
L 444.415231 475.554275 
L 445.979195 474.670287 
L 447.543159 472.602467 
L 450.671087 466.685182 
L 452.235051 464.443107 
L 453.799015 463.774018 
L 455.362979 465.072283 
L 456.926943 468.09189 
L 458.490907 471.863547 
L 460.05487 474.818388 
L 461.618834 475.114483 
L 463.182798 471.101247 
L 464.746762 461.808238 
L 466.310726 447.324729 
L 467.87469 428.953158 
L 469.438654 409.071261 
L 471.002618 390.712012 
L 472.566582 376.94738 
L 474.130546 370.219781 
L 475.69451 371.786471 
L 477.258474 381.419475 
L 478.822438 397.441685 
L 481.950366 437.147579 
L 483.51433 454.59748 
L 485.078294 467.284318 
L 486.642258 474.276006 
L 488.206222 475.937605 
L 489.770186 473.686618 
L 492.898114 465.435782 
L 494.462078 462.954402 
L 496.026042 462.783416 
L 497.590006 464.774117 
L 500.717934 471.655098 
L 502.281898 474.366508 
L 503.845861 475.603006 
L 505.409825 475.286042 
L 506.973789 473.855659 
L 508.537753 472.063678 
L 510.101717 470.685029 
L 511.665681 470.249112 
L 513.229645 470.878962 
L 514.793609 472.284269 
L 516.357573 473.899929 
L 517.921537 475.112963 
L 519.485501 475.493356 
L 521.049465 474.946812 
L 522.613429 473.737877 
L 524.177393 472.379181 
L 525.741357 471.430235 
L 527.305321 471.280822 
L 528.869285 471.998888 
L 531.997213 474.646812 
L 533.561177 475.456218 
L 535.125141 475.319796 
L 536.689105 474.176086 
L 539.817033 470.481178 
L 541.380997 469.247281 
L 542.944961 469.158938 
L 544.508925 470.316292 
L 547.636852 474.417259 
L 549.200816 475.631266 
L 550.76478 475.202251 
L 552.328744 472.831778 
L 553.892708 468.863067 
L 555.456672 464.24557 
L 557.020636 460.286471 
L 558.5846 458.250708 
L 560.148564 458.926388 
L 561.712528 462.293636 
L 564.840456 472.591331 
L 566.40442 475.794254 
L 567.968384 475.209604 
L 569.532348 469.797236 
L 571.096312 459.668112 
L 572.660276 446.170319 
L 574.22424 431.641235 
L 575.788204 418.879333 
L 577.352168 410.470866 
L 578.916132 408.151161 
L 580.480096 412.37366 
L 582.04406 422.203692 
L 586.735952 462.157951 
L 588.299916 470.77304 
L 589.86388 474.714657 
L 591.427843 474.278694 
L 592.991807 470.744969 
L 594.555771 465.934823 
L 596.119735 461.671168 
L 597.683699 459.297723 
L 599.247663 459.385497 
L 600.811627 461.690511 
L 603.939555 469.222955 
L 605.503519 472.288789 
L 607.067483 473.927435 
L 608.631447 474.057485 
L 610.195411 473.076924 
L 611.759375 471.658671 
L 613.323339 470.483189 
L 614.887303 470.0044 
L 616.451267 470.324668 
L 618.015231 471.210473 
L 619.579195 472.228887 
L 621.143159 472.944061 
L 622.707123 473.095995 
L 624.271087 472.695414 
L 627.399015 471.4074 
L 628.962979 471.248685 
L 630.526943 471.664117 
L 633.65487 473.402061 
L 635.218834 473.843972 
L 636.782798 473.427085 
L 638.346762 472.000304 
L 639.910726 469.762957 
L 641.47469 467.235907 
L 643.038654 465.115169 
L 644.602618 464.053094 
L 646.166582 464.43921 
L 647.730546 466.255576 
L 649.29451 469.058645 
L 650.858474 472.098617 
L 652.422438 474.541625 
L 653.986402 475.725212 
L 655.550366 475.36518 
L 657.11433 473.646351 
L 660.242258 468.750035 
L 661.806222 467.189209 
L 663.370186 466.995531 
L 664.93415 468.239088 
L 666.498114 470.526856 
L 668.062078 473.126117 
L 669.626042 475.193467 
L 671.190006 476.037069 
L 672.75397 475.330246 
L 674.317934 473.211007 
L 677.445861 467.224278 
L 679.009825 464.988157 
L 680.573789 464.122624 
L 682.137753 464.829092 
L 683.701717 466.877213 
L 686.829645 472.540023 
L 688.393609 474.743605 
L 689.957573 475.873037 
L 691.521537 475.844715 
L 693.085501 474.911681 
L 696.213429 472.31253 
L 697.777393 471.616617 
L 699.341357 471.667601 
L 700.905321 472.401355 
L 704.033249 474.701644 
L 705.597213 475.54207 
L 707.161177 475.857078 
L 708.725141 475.638284 
L 713.417033 473.885253 
L 714.980997 473.753252 
L 716.544961 474.019482 
L 721.236852 475.728202 
L 722.800816 475.948911 
L 724.36478 475.834104 
L 727.492708 474.975131 
L 729.056672 474.570047 
L 730.620636 474.38163 
L 732.1846 474.462923 
L 735.312528 475.176291 
L 736.876492 475.539427 
L 738.440456 475.737093 
L 740.00442 475.717144 
L 743.132348 475.209795 
L 744.696312 474.94026 
L 746.260276 474.803721 
L 747.82424 474.847 
L 750.952168 475.320734 
L 752.516132 475.561431 
L 754.080096 475.675284 
L 755.64406 475.616823 
L 758.771988 475.107548 
L 761.899916 474.656457 
L 763.46388 474.640975 
L 766.591807 474.991511 
L 769.719735 475.308545 
L 771.283699 475.250898 
L 772.847663 475.014048 
L 775.975591 474.174555 
L 779.103519 473.285691 
L 783.795411 472.045688 
L 785.359375 471.38939 
L 786.923339 470.4695 
L 788.487303 469.246909 
L 790.051267 467.738361 
L 796.307123 460.9407 
L 797.871087 459.795148 
L 799.435051 459.151551 
L 800.999015 459.097027 
L 802.562979 459.670194 
L 804.126943 460.85332 
L 805.690907 462.567355 
L 807.25487 464.672193 
L 810.382798 469.25004 
L 811.946762 471.265685 
L 813.510726 472.821388 
L 815.07469 473.781082 
L 816.638654 474.098596 
L 818.202618 473.826378 
L 819.766582 473.104017 
L 824.458474 470.233795 
L 826.022438 469.621034 
L 827.586402 469.317602 
L 829.150366 469.298991 
L 830.71433 469.494314 
L 833.842258 470.205438 
L 836.970186 471.068346 
L 840.098114 472.149668 
L 844.790006 474.044631 
L 846.35397 474.467943 
L 847.917934 474.643426 
L 849.481898 474.541008 
L 851.045861 474.199252 
L 854.173789 473.259905 
L 855.737753 472.958141 
L 857.301717 472.923869 
L 858.865681 473.186148 
L 861.993609 474.285171 
L 863.557573 474.816073 
L 865.121537 475.120659 
L 866.685501 475.103984 
L 868.249465 474.762915 
L 872.941357 473.000579 
L 874.505321 472.717533 
L 876.069285 472.765452 
L 877.633249 473.120725 
L 880.761177 474.236071 
L 882.325141 474.636601 
L 883.889105 474.720067 
L 885.453069 474.407076 
L 887.017033 473.703782 
L 888.580997 472.69439 
L 893.272889 469.297049 
L 894.836852 468.539834 
L 896.400816 468.156692 
L 897.96478 468.20519 
L 899.528744 468.70214 
L 901.092708 469.616739 
L 902.656672 470.859833 
L 904.591406 472.598708 
L 904.591406 472.598708 
" clip-path="url(#pdb341628b2)" style="fill: none; stroke: #ffa500; stroke-width: 3; stroke-linecap: square"/>
   </g>
   <g id="line2d_101">
    <path d="M 840.911375 476.36 
L 840.911375 32.84 
" clip-path="url(#pdb341628b2)" style="fill: none; stroke-dasharray: 11.1,4.8; stroke-dashoffset: 0; stroke: #000000; stroke-width: 3"/>
   </g>
   <g id="line2d_102">
    <path d="M 778.415375 476.36 
L 778.415375 32.84 
" clip-path="url(#pdb341628b2)" style="fill: none; stroke-dasharray: 11.1,4.8; stroke-dashoffset: 0; stroke: #000000; stroke-width: 3"/>
   </g>
   <g id="patch_17">
    <path d="M 90.959375 476.36 
L 90.959375 32.84 
" style="fill: none; stroke: #000000; stroke-linejoin: miter; stroke-linecap: square"/>
   </g>
   <g id="patch_18">
    <path d="M 872.159375 476.36 
L 872.159375 32.84 
" style="fill: none; stroke: #000000; stroke-linejoin: miter; stroke-linecap: square"/>
   </g>
   <g id="patch_19">
    <path d="M 90.959375 476.36 
L 872.159375 476.36 
" style="fill: none; stroke: #000000; stroke-linejoin: miter; stroke-linecap: square"/>
   </g>
   <g id="patch_20">
    <path d="M 90.959375 32.84 
L 872.159375 32.84 
" style="fill: none; stroke: #000000; stroke-linejoin: miter; stroke-linecap: square"/>
   </g>
   <g id="text_14">
    <!-- J=1 -->
    <g style="fill: #ff0000; opacity: 0.8" transform="translate(696.133592 342.587968) scale(0.25 -0.25)">
     <defs>
      <path id="DejaVuSans-4a" d="M 628 4666 
L 1259 4666 
L 1259 325 
Q 1259 -519 939 -900 
Q 619 -1281 -91 -1281 
L -331 -1281 
L -331 -750 
L -134 -750 
Q 284 -750 456 -515 
Q 628 -281 628 325 
L 628 4666 
z
" transform="scale(0.015625)"/>
      <path id="DejaVuSans-3d" d="M 678 2906 
L 4684 2906 
L 4684 2381 
L 678 2381 
L 678 2906 
z
M 678 1631 
L 4684 1631 
L 4684 1100 
L 678 1100 
L 678 1631 
z
" transform="scale(0.015625)"/>
     </defs>
     <use xlink:href="#DejaVuSans-4a"/>
     <use xlink:href="#DejaVuSans-3d" transform="translate(29.492188 0)"/>
     <use xlink:href="#DejaVuSans-31" transform="translate(113.28125 0)"/>
    </g>
   </g>
   <g id="text_15">
    <!-- J=2 -->
    <g style="fill: #ff0000; opacity: 0.8" transform="translate(640.431743 275.548557) scale(0.25 -0.25)">
     <use xlink:href="#DejaVuSans-4a"/>
     <use xlink:href="#DejaVuSans-3d" transform="translate(29.492188 0)"/>
     <use xlink:href="#DejaVuSans-32" transform="translate(113.28125 0)"/>
    </g>
   </g>
   <g id="text_16">
    <!-- J=3 -->
    <g style="fill: #ff0000; opacity: 0.8" transform="translate(556.634861 232.313023) scale(0.25 -0.25)">
     <use xlink:href="#DejaVuSans-4a"/>
     <use xlink:href="#DejaVuSans-3d" transform="translate(29.492188 0)"/>
     <use xlink:href="#DejaVuSans-33" transform="translate(113.28125 0)"/>
    </g>
   </g>
   <g id="text_17">
    <!-- J=4 -->
    <g style="fill: #ff0000; opacity: 0.8" transform="translate(452.452346 215.265765) scale(0.25 -0.25)">
     <use xlink:href="#DejaVuSans-4a"/>
     <use xlink:href="#DejaVuSans-3d" transform="translate(29.492188 0)"/>
     <use xlink:href="#DejaVuSans-34" transform="translate(113.28125 0)"/>
    </g>
   </g>
   <g id="text_18">
    <!-- J=5 -->
    <g style="fill: #ff0000; opacity: 0.8" transform="translate(338.449149 222.156255) scale(0.25 -0.25)">
     <use xlink:href="#DejaVuSans-4a"/>
     <use xlink:href="#DejaVuSans-3d" transform="translate(29.492188 0)"/>
     <use xlink:href="#DejaVuSans-35" transform="translate(113.28125 0)"/>
    </g>
   </g>
   <g id="text_19">
    <!-- J=6 -->
    <g style="fill: #ff0000; opacity: 0.8" transform="translate(218.363466 247.313309) scale(0.25 -0.25)">
     <defs>
      <path id="DejaVuSans-36" d="M 2113 2584 
Q 1688 2584 1439 2293 
Q 1191 2003 1191 1497 
Q 1191 994 1439 701 
Q 1688 409 2113 409 
Q 2538 409 2786 701 
Q 3034 994 3034 1497 
Q 3034 2003 2786 2293 
Q 2538 2584 2113 2584 
z
M 3366 4563 
L 3366 3988 
Q 3128 4100 2886 4159 
Q 2644 4219 2406 4219 
Q 1781 4219 1451 3797 
Q 1122 3375 1075 2522 
Q 1259 2794 1537 2939 
Q 1816 3084 2150 3084 
Q 2853 3084 3261 2657 
Q 3669 2231 3669 1497 
Q 3669 778 3244 343 
Q 2819 -91 2113 -91 
Q 1303 -91 875 529 
Q 447 1150 447 2328 
Q 447 3434 972 4092 
Q 1497 4750 2381 4750 
Q 2619 4750 2861 4703 
Q 3103 4656 3366 4563 
z
" transform="scale(0.015625)"/>
     </defs>
     <use xlink:href="#DejaVuSans-4a"/>
     <use xlink:href="#DejaVuSans-3d" transform="translate(29.492188 0)"/>
     <use xlink:href="#DejaVuSans-36" transform="translate(113.28125 0)"/>
    </g>
   </g>
   <g id="text_20">
    <!-- J=7 -->
    <g style="fill: #ff0000; opacity: 0.8" transform="translate(96.504828 283.448178) scale(0.25 -0.25)">
     <defs>
      <path id="DejaVuSans-37" d="M 525 4666 
L 3525 4666 
L 3525 4397 
L 1831 0 
L 1172 0 
L 2766 4134 
L 525 4134 
L 525 4666 
z
" transform="scale(0.015625)"/>
     </defs>
     <use xlink:href="#DejaVuSans-4a"/>
     <use xlink:href="#DejaVuSans-3d" transform="translate(29.492188 0)"/>
     <use xlink:href="#DejaVuSans-37" transform="translate(113.28125 0)"/>
    </g>
   </g>
   <g id="text_21">
    <!-- CaH$^+$ hyperfine spectrum at B=3.6 G -->
    <g transform="translate(216.259375 26.84) scale(0.28 -0.28)">
     <defs>
      <path id="DejaVuSans-43" d="M 4122 4306 
L 4122 3641 
Q 3803 3938 3442 4084 
Q 3081 4231 2675 4231 
Q 1875 4231 1450 3742 
Q 1025 3253 1025 2328 
Q 1025 1406 1450 917 
Q 1875 428 2675 428 
Q 3081 428 3442 575 
Q 3803 722 4122 1019 
L 4122 359 
Q 3791 134 3420 21 
Q 3050 -91 2638 -91 
Q 1578 -91 968 557 
Q 359 1206 359 2328 
Q 359 3453 968 4101 
Q 1578 4750 2638 4750 
Q 3056 4750 3426 4639 
Q 3797 4528 4122 4306 
z
" transform="scale(0.015625)"/>
      <path id="DejaVuSans-2b" d="M 2944 4013 
L 2944 2272 
L 4684 2272 
L 4684 1741 
L 2944 1741 
L 2944 0 
L 2419 0 
L 2419 1741 
L 678 1741 
L 678 2272 
L 2419 2272 
L 2419 4013 
L 2944 4013 
z
" transform="scale(0.015625)"/>
      <path id="DejaVuSans-68" d="M 3513 2113 
L 3513 0 
L 2938 0 
L 2938 2094 
Q 2938 2591 2744 2837 
Q 2550 3084 2163 3084 
Q 1697 3084 1428 2787 
Q 1159 2491 1159 1978 
L 1159 0 
L 581 0 
L 581 4863 
L 1159 4863 
L 1159 2956 
Q 1366 3272 1645 3428 
Q 1925 3584 2291 3584 
Q 2894 3584 3203 3211 
Q 3513 2838 3513 2113 
z
" transform="scale(0.015625)"/>
      <path id="DejaVuSans-66" d="M 2375 4863 
L 2375 4384 
L 1825 4384 
Q 1516 4384 1395 4259 
Q 1275 4134 1275 3809 
L 1275 3500 
L 2222 3500 
L 2222 3053 
L 1275 3053 
L 1275 0 
L 697 0 
L 697 3053 
L 147 3053 
L 147 3500 
L 697 3500 
L 697 3744 
Q 697 4328 969 4595 
Q 1241 4863 1831 4863 
L 2375 4863 
z
" transform="scale(0.015625)"/>
      <path id="DejaVuSans-73" d="M 2834 3397 
L 2834 2853 
Q 2591 2978 2328 3040 
Q 2066 3103 1784 3103 
Q 1356 3103 1142 2972 
Q 928 2841 928 2578 
Q 928 2378 1081 2264 
Q 1234 2150 1697 2047 
L 1894 2003 
Q 2506 1872 2764 1633 
Q 3022 1394 3022 966 
Q 3022 478 2636 193 
Q 2250 -91 1575 -91 
Q 1294 -91 989 -36 
Q 684 19 347 128 
L 347 722 
Q 666 556 975 473 
Q 1284 391 1588 391 
Q 1994 391 2212 530 
Q 2431 669 2431 922 
Q 2431 1156 2273 1281 
Q 2116 1406 1581 1522 
L 1381 1569 
Q 847 1681 609 1914 
Q 372 2147 372 2553 
Q 372 3047 722 3315 
Q 1072 3584 1716 3584 
Q 2034 3584 2315 3537 
Q 2597 3491 2834 3397 
z
" transform="scale(0.015625)"/>
      <path id="DejaVuSans-6d" d="M 3328 2828 
Q 3544 3216 3844 3400 
Q 4144 3584 4550 3584 
Q 5097 3584 5394 3201 
Q 5691 2819 5691 2113 
L 5691 0 
L 5113 0 
L 5113 2094 
Q 5113 2597 4934 2840 
Q 4756 3084 4391 3084 
Q 3944 3084 3684 2787 
Q 3425 2491 3425 1978 
L 3425 0 
L 2847 0 
L 2847 2094 
Q 2847 2600 2669 2842 
Q 2491 3084 2119 3084 
Q 1678 3084 1418 2786 
Q 1159 2488 1159 1978 
L 1159 0 
L 581 0 
L 581 3500 
L 1159 3500 
L 1159 2956 
Q 1356 3278 1631 3431 
Q 1906 3584 2284 3584 
Q 2666 3584 2933 3390 
Q 3200 3197 3328 2828 
z
" transform="scale(0.015625)"/>
      <path id="DejaVuSans-42" d="M 1259 2228 
L 1259 519 
L 2272 519 
Q 2781 519 3026 730 
Q 3272 941 3272 1375 
Q 3272 1813 3026 2020 
Q 2781 2228 2272 2228 
L 1259 2228 
z
M 1259 4147 
L 1259 2741 
L 2194 2741 
Q 2656 2741 2882 2914 
Q 3109 3088 3109 3444 
Q 3109 3797 2882 3972 
Q 2656 4147 2194 4147 
L 1259 4147 
z
M 628 4666 
L 2241 4666 
Q 2963 4666 3353 4366 
Q 3744 4066 3744 3513 
Q 3744 3084 3544 2831 
Q 3344 2578 2956 2516 
Q 3422 2416 3680 2098 
Q 3938 1781 3938 1306 
Q 3938 681 3513 340 
Q 3088 0 2303 0 
L 628 0 
L 628 4666 
z
" transform="scale(0.015625)"/>
      <path id="DejaVuSans-47" d="M 3809 666 
L 3809 1919 
L 2778 1919 
L 2778 2438 
L 4434 2438 
L 4434 434 
Q 4069 175 3628 42 
Q 3188 -91 2688 -91 
Q 1594 -91 976 548 
Q 359 1188 359 2328 
Q 359 3472 976 4111 
Q 1594 4750 2688 4750 
Q 3144 4750 3555 4637 
Q 3966 4525 4313 4306 
L 4313 3634 
Q 3963 3931 3569 4081 
Q 3175 4231 2741 4231 
Q 1884 4231 1454 3753 
Q 1025 3275 1025 2328 
Q 1025 1384 1454 906 
Q 1884 428 2741 428 
Q 3075 428 3337 486 
Q 3600 544 3809 666 
z
" transform="scale(0.015625)"/>
     </defs>
     <use xlink:href="#DejaVuSans-43" transform="translate(0 0.826562)"/>
     <use xlink:href="#DejaVuSans-61" transform="translate(69.824219 0.826562)"/>
     <use xlink:href="#DejaVuSans-48" transform="translate(131.103516 0.826562)"/>
     <use xlink:href="#DejaVuSans-2b" transform="translate(220.893555 39.107812) scale(0.7)"/>
     <use xlink:href="#DejaVuSans-20" transform="translate(295.917969 0.826562)"/>
     <use xlink:href="#DejaVuSans-68" transform="translate(327.705078 0.826562)"/>
     <use xlink:href="#DejaVuSans-79" transform="translate(391.083984 0.826562)"/>
     <use xlink:href="#DejaVuSans-70" transform="translate(450.263672 0.826562)"/>
     <use xlink:href="#DejaVuSans-65" transform="translate(513.740234 0.826562)"/>
     <use xlink:href="#DejaVuSans-72" transform="translate(575.263672 0.826562)"/>
     <use xlink:href="#DejaVuSans-66" transform="translate(616.376953 0.826562)"/>
     <use xlink:href="#DejaVuSans-69" transform="translate(651.582031 0.826562)"/>
     <use xlink:href="#DejaVuSans-6e" transform="translate(679.365234 0.826562)"/>
     <use xlink:href="#DejaVuSans-65" transform="translate(742.744141 0.826562)"/>
     <use xlink:href="#DejaVuSans-20" transform="translate(804.267578 0.826562)"/>
     <use xlink:href="#DejaVuSans-73" transform="translate(836.054688 0.826562)"/>
     <use xlink:href="#DejaVuSans-70" transform="translate(888.154297 0.826562)"/>
     <use xlink:href="#DejaVuSans-65" transform="translate(951.630859 0.826562)"/>
     <use xlink:href="#DejaVuSans-63" transform="translate(1013.154297 0.826562)"/>
     <use xlink:href="#DejaVuSans-74" transform="translate(1068.134766 0.826562)"/>
     <use xlink:href="#DejaVuSans-72" transform="translate(1107.34375 0.826562)"/>
     <use xlink:href="#DejaVuSans-75" transform="translate(1148.457031 0.826562)"/>
     <use xlink:href="#DejaVuSans-6d" transform="translate(1211.835938 0.826562)"/>
     <use xlink:href="#DejaVuSans-20" transform="translate(1309.248047 0.826562)"/>
     <use xlink:href="#DejaVuSans-61" transform="translate(1341.035156 0.826562)"/>
     <use xlink:href="#DejaVuSans-74" transform="translate(1402.314453 0.826562)"/>
     <use xlink:href="#DejaVuSans-20" transform="translate(1441.523438 0.826562)"/>
     <use xlink:href="#DejaVuSans-42" transform="translate(1473.310547 0.826562)"/>
     <use xlink:href="#DejaVuSans-3d" transform="translate(1541.914062 0.826562)"/>
     <use xlink:href="#DejaVuSans-33" transform="translate(1625.703125 0.826562)"/>
     <use xlink:href="#DejaVuSans-2e" transform="translate(1689.326172 0.826562)"/>
     <use xlink:href="#DejaVuSans-36" transform="translate(1721.113281 0.826562)"/>
     <use xlink:href="#DejaVuSans-20" transform="translate(1784.736328 0.826562)"/>
     <use xlink:href="#DejaVuSans-47" transform="translate(1816.523438 0.826562)"/>
    </g>
   </g>
   <g id="legend_1">
    <g id="line2d_103">
     <path d="M 540.175 65.586094 
L 565.175 65.586094 
L 590.175 65.586094 
" style="fill: none; stroke: #0000ff; stroke-width: 3; stroke-linecap: square"/>
    </g>
    <g id="text_22">
     <!-- w/ imperfections -->
     <g transform="translate(610.175 74.336094) scale(0.25 -0.25)">
      <defs>
       <path id="DejaVuSans-77" d="M 269 3500 
L 844 3500 
L 1563 769 
L 2278 3500 
L 2956 3500 
L 3675 769 
L 4391 3500 
L 4966 3500 
L 4050 0 
L 3372 0 
L 2619 2869 
L 1863 0 
L 1184 0 
L 269 3500 
z
" transform="scale(0.015625)"/>
       <path id="DejaVuSans-2f" d="M 1625 4666 
L 2156 4666 
L 531 -594 
L 0 -594 
L 1625 4666 
z
" transform="scale(0.015625)"/>
      </defs>
      <use xlink:href="#DejaVuSans-77"/>
      <use xlink:href="#DejaVuSans-2f" transform="translate(81.787109 0)"/>
      <use xlink:href="#DejaVuSans-20" transform="translate(115.478516 0)"/>
      <use xlink:href="#DejaVuSans-69" transform="translate(147.265625 0)"/>
      <use xlink:href="#DejaVuSans-6d" transform="translate(175.048828 0)"/>
      <use xlink:href="#DejaVuSans-70" transform="translate(272.460938 0)"/>
      <use xlink:href="#DejaVuSans-65" transform="translate(335.9375 0)"/>
      <use xlink:href="#DejaVuSans-72" transform="translate(397.460938 0)"/>
      <use xlink:href="#DejaVuSans-66" transform="translate(438.574219 0)"/>
      <use xlink:href="#DejaVuSans-65" transform="translate(473.779297 0)"/>
      <use xlink:href="#DejaVuSans-63" transform="translate(535.302734 0)"/>
      <use xlink:href="#DejaVuSans-74" transform="translate(590.283203 0)"/>
      <use xlink:href="#DejaVuSans-69" transform="translate(629.492188 0)"/>
      <use xlink:href="#DejaVuSans-6f" transform="translate(657.275391 0)"/>
      <use xlink:href="#DejaVuSans-6e" transform="translate(718.457031 0)"/>
      <use xlink:href="#DejaVuSans-73" transform="translate(781.835938 0)"/>
     </g>
    </g>
    <g id="line2d_104">
     <path d="M 540.175 102.281406 
L 565.175 102.281406 
L 590.175 102.281406 
" style="fill: none; stroke: #ffa500; stroke-width: 3; stroke-linecap: square"/>
    </g>
    <g id="text_23">
     <!-- w/o imperfections -->
     <g transform="translate(610.175 111.031406) scale(0.25 -0.25)">
      <use xlink:href="#DejaVuSans-77"/>
      <use xlink:href="#DejaVuSans-2f" transform="translate(81.787109 0)"/>
      <use xlink:href="#DejaVuSans-6f" transform="translate(115.478516 0)"/>
      <use xlink:href="#DejaVuSans-20" transform="translate(176.660156 0)"/>
      <use xlink:href="#DejaVuSans-69" transform="translate(208.447266 0)"/>
      <use xlink:href="#DejaVuSans-6d" transform="translate(236.230469 0)"/>
      <use xlink:href="#DejaVuSans-70" transform="translate(333.642578 0)"/>
      <use xlink:href="#DejaVuSans-65" transform="translate(397.119141 0)"/>
      <use xlink:href="#DejaVuSans-72" transform="translate(458.642578 0)"/>
      <use xlink:href="#DejaVuSans-66" transform="translate(499.755859 0)"/>
      <use xlink:href="#DejaVuSans-65" transform="translate(534.960938 0)"/>
      <use xlink:href="#DejaVuSans-63" transform="translate(596.484375 0)"/>
      <use xlink:href="#DejaVuSans-74" transform="translate(651.464844 0)"/>
      <use xlink:href="#DejaVuSans-69" transform="translate(690.673828 0)"/>
      <use xlink:href="#DejaVuSans-6f" transform="translate(718.457031 0)"/>
      <use xlink:href="#DejaVuSans-6e" transform="translate(779.638672 0)"/>
      <use xlink:href="#DejaVuSans-73" transform="translate(843.017578 0)"/>
     </g>
    </g>
    <g id="line2d_105">
     <path d="M 540.175 138.976719 
L 565.175 138.976719 
L 590.175 138.976719 
" style="fill: none; stroke-dasharray: 11.1,4.8; stroke-dashoffset: 0; stroke: #000000; stroke-width: 3"/>
    </g>
    <g id="text_24">
     <!-- Pump freq -2.0 kHz -->
     <g transform="translate(610.175 147.726719) scale(0.25 -0.25)">
      <defs>
       <path id="DejaVuSans-50" d="M 1259 4147 
L 1259 2394 
L 2053 2394 
Q 2494 2394 2734 2622 
Q 2975 2850 2975 3272 
Q 2975 3691 2734 3919 
Q 2494 4147 2053 4147 
L 1259 4147 
z
M 628 4666 
L 2053 4666 
Q 2838 4666 3239 4311 
Q 3641 3956 3641 3272 
Q 3641 2581 3239 2228 
Q 2838 1875 2053 1875 
L 1259 1875 
L 1259 0 
L 628 0 
L 628 4666 
z
" transform="scale(0.015625)"/>
       <path id="DejaVuSans-2d" d="M 313 2009 
L 1997 2009 
L 1997 1497 
L 313 1497 
L 313 2009 
z
" transform="scale(0.015625)"/>
       <path id="DejaVuSans-6b" d="M 581 4863 
L 1159 4863 
L 1159 1991 
L 2875 3500 
L 3609 3500 
L 1753 1863 
L 3688 0 
L 2938 0 
L 1159 1709 
L 1159 0 
L 581 0 
L 581 4863 
z
" transform="scale(0.015625)"/>
      </defs>
      <use xlink:href="#DejaVuSans-50"/>
      <use xlink:href="#DejaVuSans-75" transform="translate(58.552734 0)"/>
      <use xlink:href="#DejaVuSans-6d" transform="translate(121.931641 0)"/>
      <use xlink:href="#DejaVuSans-70" transform="translate(219.34375 0)"/>
      <use xlink:href="#DejaVuSans-20" transform="translate(282.820312 0)"/>
      <use xlink:href="#DejaVuSans-66" transform="translate(314.607422 0)"/>
      <use xlink:href="#DejaVuSans-72" transform="translate(349.8125 0)"/>
      <use xlink:href="#DejaVuSans-65" transform="translate(388.675781 0)"/>
      <use xlink:href="#DejaVuSans-71" transform="translate(450.199219 0)"/>
      <use xlink:href="#DejaVuSans-20" transform="translate(513.675781 0)"/>
      <use xlink:href="#DejaVuSans-2d" transform="translate(545.462891 0)"/>
      <use xlink:href="#DejaVuSans-32" transform="translate(581.546875 0)"/>
      <use xlink:href="#DejaVuSans-2e" transform="translate(645.169922 0)"/>
      <use xlink:href="#DejaVuSans-30" transform="translate(676.957031 0)"/>
      <use xlink:href="#DejaVuSans-20" transform="translate(740.580078 0)"/>
      <use xlink:href="#DejaVuSans-6b" transform="translate(772.367188 0)"/>
      <use xlink:href="#DejaVuSans-48" transform="translate(830.277344 0)"/>
      <use xlink:href="#DejaVuSans-7a" transform="translate(905.472656 0)"/>
     </g>
    </g>
    <g id="line2d_106">
     <path d="M 540.175 175.672031 
L 565.175 175.672031 
L 590.175 175.672031 
" style="fill: none; stroke-dasharray: 11.1,4.8; stroke-dashoffset: 0; stroke: #000000; stroke-width: 3"/>
    </g>
    <g id="text_25">
     <!-- Pump freq -6.0 kHz -->
     <g transform="translate(610.175 184.422031) scale(0.25 -0.25)">
      <use xlink:href="#DejaVuSans-50"/>
      <use xlink:href="#DejaVuSans-75" transform="translate(58.552734 0)"/>
      <use xlink:href="#DejaVuSans-6d" transform="translate(121.931641 0)"/>
      <use xlink:href="#DejaVuSans-70" transform="translate(219.34375 0)"/>
      <use xlink:href="#DejaVuSans-20" transform="translate(282.820312 0)"/>
      <use xlink:href="#DejaVuSans-66" transform="translate(314.607422 0)"/>
      <use xlink:href="#DejaVuSans-72" transform="translate(349.8125 0)"/>
      <use xlink:href="#DejaVuSans-65" transform="translate(388.675781 0)"/>
      <use xlink:href="#DejaVuSans-71" transform="translate(450.199219 0)"/>
      <use xlink:href="#DejaVuSans-20" transform="translate(513.675781 0)"/>
      <use xlink:href="#DejaVuSans-2d" transform="translate(545.462891 0)"/>
      <use xlink:href="#DejaVuSans-36" transform="translate(581.546875 0)"/>
      <use xlink:href="#DejaVuSans-2e" transform="translate(645.169922 0)"/>
      <use xlink:href="#DejaVuSans-30" transform="translate(676.957031 0)"/>
      <use xlink:href="#DejaVuSans-20" transform="translate(740.580078 0)"/>
      <use xlink:href="#DejaVuSans-6b" transform="translate(772.367188 0)"/>
      <use xlink:href="#DejaVuSans-48" transform="translate(830.277344 0)"/>
      <use xlink:href="#DejaVuSans-7a" transform="translate(905.472656 0)"/>
     </g>
    </g>
    <g id="patch_21">
     <path d="M 540.175 221.117344 
L 590.175 221.117344 
L 590.175 203.617344 
L 540.175 203.617344 
z
" style="fill: #ff0000; opacity: 0.1"/>
    </g>
    <g id="text_26">
     <!-- Sign. Trans. -->
     <g transform="translate(610.175 221.117344) scale(0.25 -0.25)">
      <defs>
       <path id="DejaVuSans-53" d="M 3425 4513 
L 3425 3897 
Q 3066 4069 2747 4153 
Q 2428 4238 2131 4238 
Q 1616 4238 1336 4038 
Q 1056 3838 1056 3469 
Q 1056 3159 1242 3001 
Q 1428 2844 1947 2747 
L 2328 2669 
Q 3034 2534 3370 2195 
Q 3706 1856 3706 1288 
Q 3706 609 3251 259 
Q 2797 -91 1919 -91 
Q 1588 -91 1214 -16 
Q 841 59 441 206 
L 441 856 
Q 825 641 1194 531 
Q 1563 422 1919 422 
Q 2459 422 2753 634 
Q 3047 847 3047 1241 
Q 3047 1584 2836 1778 
Q 2625 1972 2144 2069 
L 1759 2144 
Q 1053 2284 737 2584 
Q 422 2884 422 3419 
Q 422 4038 858 4394 
Q 1294 4750 2059 4750 
Q 2388 4750 2728 4690 
Q 3069 4631 3425 4513 
z
" transform="scale(0.015625)"/>
       <path id="DejaVuSans-67" d="M 2906 1791 
Q 2906 2416 2648 2759 
Q 2391 3103 1925 3103 
Q 1463 3103 1205 2759 
Q 947 2416 947 1791 
Q 947 1169 1205 825 
Q 1463 481 1925 481 
Q 2391 481 2648 825 
Q 2906 1169 2906 1791 
z
M 3481 434 
Q 3481 -459 3084 -895 
Q 2688 -1331 1869 -1331 
Q 1566 -1331 1297 -1286 
Q 1028 -1241 775 -1147 
L 775 -588 
Q 1028 -725 1275 -790 
Q 1522 -856 1778 -856 
Q 2344 -856 2625 -561 
Q 2906 -266 2906 331 
L 2906 616 
Q 2728 306 2450 153 
Q 2172 0 1784 0 
Q 1141 0 747 490 
Q 353 981 353 1791 
Q 353 2603 747 3093 
Q 1141 3584 1784 3584 
Q 2172 3584 2450 3431 
Q 2728 3278 2906 2969 
L 2906 3500 
L 3481 3500 
L 3481 434 
z
" transform="scale(0.015625)"/>
       <path id="DejaVuSans-54" d="M -19 4666 
L 3928 4666 
L 3928 4134 
L 2272 4134 
L 2272 0 
L 1638 0 
L 1638 4134 
L -19 4134 
L -19 4666 
z
" transform="scale(0.015625)"/>
      </defs>
      <use xlink:href="#DejaVuSans-53"/>
      <use xlink:href="#DejaVuSans-69" transform="translate(63.476562 0)"/>
      <use xlink:href="#DejaVuSans-67" transform="translate(91.259766 0)"/>
      <use xlink:href="#DejaVuSans-6e" transform="translate(154.736328 0)"/>
      <use xlink:href="#DejaVuSans-2e" transform="translate(218.115234 0)"/>
      <use xlink:href="#DejaVuSans-20" transform="translate(249.902344 0)"/>
      <use xlink:href="#DejaVuSans-54" transform="translate(281.689453 0)"/>
      <use xlink:href="#DejaVuSans-72" transform="translate(328.023438 0)"/>
      <use xlink:href="#DejaVuSans-61" transform="translate(369.136719 0)"/>
      <use xlink:href="#DejaVuSans-6e" transform="translate(430.416016 0)"/>
      <use xlink:href="#DejaVuSans-73" transform="translate(493.794922 0)"/>
      <use xlink:href="#DejaVuSans-2e" transform="translate(545.894531 0)"/>
     </g>
    </g>
   </g>
  </g>
 </g>
 <defs>
  <clipPath id="pdb341628b2">
   <rect x="90.959375" y="32.84" width="781.2" height="443.52"/>
  </clipPath>
 </defs>
</svg>
