<?xml version="1.0" encoding="utf-8" standalone="no"?>
<!DOCTYPE svg PUBLIC "-//W3C//DTD SVG 1.1//EN"
  "http://www.w3.org/Graphics/SVG/1.1/DTD/svg11.dtd">
<svg xmlns:xlink="http://www.w3.org/1999/xlink" width="903.591406pt" height="535.850625pt" viewBox="0 0 903.591406 535.850625" xmlns="http://www.w3.org/2000/svg" version="1.1">
 <metadata>
  <rdf:RDF xmlns:dc="http://purl.org/dc/elements/1.1/" xmlns:cc="http://creativecommons.org/ns#" xmlns:rdf="http://www.w3.org/1999/02/22-rdf-syntax-ns#">
   <cc:Work>
    <dc:type rdf:resource="http://purl.org/dc/dcmitype/StillImage"/>
    <dc:date>2026-02-19T12:59:05.143789</dc:date>
    <dc:format>image/svg+xml</dc:format>
    <dc:creator>
     <cc:Agent>
      <dc:title>Matplotlib v3.10.3, https://matplotlib.org/</dc:title>
     </cc:Agent>
    </dc:creator>
   </cc:Work>
  </rdf:RDF>
 </metadata>
 <defs>
  <style type="text/css">*{stroke-linejoin: round; stroke-linecap: butt}</style>
 </defs>
 <g id="figure_1">
  <g id="patch_1">
   <path d="M 0 535.850625 
L 903.591406 535.850625 
L 903.591406 0 
L 0 0 
z
" style="fill: #ffffff"/>
  </g>
  <g id="axes_1">
   <g id="patch_2">
    <path d="M 90.959375 476.36 
L 872.159375 476.36 
L 872.159375 32.84 
L 90.959375 32.84 
z
" style="fill: #ffffff"/>
   </g>
   <g id="patch_3">
    <path d="M 714.342826 476.36 
L 722.154826 476.36 
L 722.154826 347.787187 
L 714.342826 347.787187 
z
" clip-path="url(#pfb5626ae8f)" style="fill: #ff0000; opacity: 0.1"/>
   </g>
   <g id="patch_4">
    <path d="M 658.640978 476.36 
L 666.452978 476.36 
L 666.452978 280.747776 
L 658.640978 280.747776 
z
" clip-path="url(#pfb5626ae8f)" style="fill: #ff0000; opacity: 0.1"/>
   </g>
   <g id="patch_5">
    <path d="M 574.844095 476.36 
L 582.656095 476.36 
L 582.656095 237.512242 
L 574.844095 237.512242 
z
" clip-path="url(#pfb5626ae8f)" style="fill: #ff0000; opacity: 0.1"/>
   </g>
   <g id="patch_6">
    <path d="M 470.661581 476.36 
L 478.473581 476.36 
L 478.473581 220.464983 
L 470.661581 220.464983 
z
" clip-path="url(#pfb5626ae8f)" style="fill: #ff0000; opacity: 0.1"/>
   </g>
   <g id="patch_7">
    <path d="M 356.658383 476.36 
L 364.470383 476.36 
L 364.470383 227.355474 
L 356.658383 227.355474 
z
" clip-path="url(#pfb5626ae8f)" style="fill: #ff0000; opacity: 0.1"/>
   </g>
   <g id="patch_8">
    <path d="M 236.5727 476.36 
L 244.3847 476.36 
L 244.3847 252.512528 
L 236.5727 252.512528 
z
" clip-path="url(#pfb5626ae8f)" style="fill: #ff0000; opacity: 0.1"/>
   </g>
   <g id="patch_9">
    <path d="M 114.714063 476.36 
L 122.526063 476.36 
L 122.526063 288.647396 
L 114.714063 288.647396 
z
" clip-path="url(#pfb5626ae8f)" style="fill: #ff0000; opacity: 0.1"/>
   </g>
   <g id="patch_10">
    <path d="M -9.814986 476.36 
L -2.002986 476.36 
L -2.002986 328.638579 
L -9.814986 328.638579 
z
" clip-path="url(#pfb5626ae8f)" style="fill: #ff0000; opacity: 0.1"/>
   </g>
   <g id="patch_11">
    <path d="M -133.993964 476.36 
L -126.181964 476.36 
L -126.181964 366.828362 
L -133.993964 366.828362 
z
" clip-path="url(#pfb5626ae8f)" style="fill: #ff0000; opacity: 0.1"/>
   </g>
   <g id="patch_12">
    <path d="M -258.568823 476.36 
L -250.756823 476.36 
L -250.756823 399.624602 
L -258.568823 399.624602 
z
" clip-path="url(#pfb5626ae8f)" style="fill: #ff0000; opacity: 0.1"/>
   </g>
   <g id="patch_13">
    <path d="M -383.294881 476.36 
L -375.482881 476.36 
L -375.482881 425.462809 
L -383.294881 425.462809 
z
" clip-path="url(#pfb5626ae8f)" style="fill: #ff0000; opacity: 0.1"/>
   </g>
   <g id="patch_14">
    <path d="M -508.094669 476.36 
L -500.282669 476.36 
L -500.282669 444.349345 
L -508.094669 444.349345 
z
" clip-path="url(#pfb5626ae8f)" style="fill: #ff0000; opacity: 0.1"/>
   </g>
   <g id="patch_15">
    <path d="M -632.822434 476.36 
L -625.010434 476.36 
L -625.010434 457.248009 
L -632.822434 457.248009 
z
" clip-path="url(#pfb5626ae8f)" style="fill: #ff0000; opacity: 0.1"/>
   </g>
   <g id="patch_16">
    <path d="M -757.463202 476.36 
L -749.651202 476.36 
L -749.651202 465.517565 
L -757.463202 465.517565 
z
" clip-path="url(#pfb5626ae8f)" style="fill: #ff0000; opacity: 0.1"/>
   </g>
   <g id="matplotlib.axis_1">
    <g id="xtick_1">
     <g id="line2d_1">
      <defs>
       <path id="m7390d41cfb" d="M 0 0 
L 0 -6 
" style="stroke: #000000"/>
      </defs>
      <g>
       <use xlink:href="#m7390d41cfb" x="90.959375" y="476.36" style="stroke: #000000"/>
      </g>
     </g>
     <g id="line2d_2">
      <defs>
       <path id="mb977d8e121" d="M 0 0 
L 0 6 
" style="stroke: #000000"/>
      </defs>
      <g>
       <use xlink:href="#mb977d8e121" x="90.959375" y="32.84" style="stroke: #000000"/>
      </g>
     </g>
     <g id="text_1">
      <!-- −0.05 -->
      <g transform="translate(52.652734 498.856094) scale(0.25 -0.25)">
       <defs>
        <path id="DejaVuSans-2212" d="M 678 2272 
L 4684 2272 
L 4684 1741 
L 678 1741 
L 678 2272 
z
" transform="scale(0.015625)"/>
        <path id="DejaVuSans-30" d="M 2034 4250 
Q 1547 4250 1301 3770 
Q 1056 3291 1056 2328 
Q 1056 1369 1301 889 
Q 1547 409 2034 409 
Q 2525 409 2770 889 
Q 3016 1369 3016 2328 
Q 3016 3291 2770 3770 
Q 2525 4250 2034 4250 
z
M 2034 4750 
Q 2819 4750 3233 4129 
Q 3647 3509 3647 2328 
Q 3647 1150 3233 529 
Q 2819 -91 2034 -91 
Q 1250 -91 836 529 
Q 422 1150 422 2328 
Q 422 3509 836 4129 
Q 1250 4750 2034 4750 
z
" transform="scale(0.015625)"/>
        <path id="DejaVuSans-2e" d="M 684 794 
L 1344 794 
L 1344 0 
L 684 0 
L 684 794 
z
" transform="scale(0.015625)"/>
        <path id="DejaVuSans-35" d="M 691 4666 
L 3169 4666 
L 3169 4134 
L 1269 4134 
L 1269 2991 
Q 1406 3038 1543 3061 
Q 1681 3084 1819 3084 
Q 2600 3084 3056 2656 
Q 3513 2228 3513 1497 
Q 3513 744 3044 326 
Q 2575 -91 1722 -91 
Q 1428 -91 1123 -41 
Q 819 9 494 109 
L 494 744 
Q 775 591 1075 516 
Q 1375 441 1709 441 
Q 2250 441 2565 725 
Q 2881 1009 2881 1497 
Q 2881 1984 2565 2268 
Q 2250 2553 1709 2553 
Q 1456 2553 1204 2497 
Q 953 2441 691 2322 
L 691 4666 
z
" transform="scale(0.015625)"/>
       </defs>
       <use xlink:href="#DejaVuSans-2212"/>
       <use xlink:href="#DejaVuSans-30" transform="translate(83.789062 0)"/>
       <use xlink:href="#DejaVuSans-2e" transform="translate(147.412109 0)"/>
       <use xlink:href="#DejaVuSans-30" transform="translate(179.199219 0)"/>
       <use xlink:href="#DejaVuSans-35" transform="translate(242.822266 0)"/>
      </g>
     </g>
    </g>
    <g id="xtick_2">
     <g id="line2d_3">
      <g>
       <use xlink:href="#m7390d41cfb" x="247.199375" y="476.36" style="stroke: #000000"/>
      </g>
     </g>
     <g id="line2d_4">
      <g>
       <use xlink:href="#mb977d8e121" x="247.199375" y="32.84" style="stroke: #000000"/>
      </g>
     </g>
     <g id="text_2">
      <!-- −0.04 -->
      <g transform="translate(208.892734 498.856094) scale(0.25 -0.25)">
       <defs>
        <path id="DejaVuSans-34" d="M 2419 4116 
L 825 1625 
L 2419 1625 
L 2419 4116 
z
M 2253 4666 
L 3047 4666 
L 3047 1625 
L 3713 1625 
L 3713 1100 
L 3047 1100 
L 3047 0 
L 2419 0 
L 2419 1100 
L 313 1100 
L 313 1709 
L 2253 4666 
z
" transform="scale(0.015625)"/>
       </defs>
       <use xlink:href="#DejaVuSans-2212"/>
       <use xlink:href="#DejaVuSans-30" transform="translate(83.789062 0)"/>
       <use xlink:href="#DejaVuSans-2e" transform="translate(147.412109 0)"/>
       <use xlink:href="#DejaVuSans-30" transform="translate(179.199219 0)"/>
       <use xlink:href="#DejaVuSans-34" transform="translate(242.822266 0)"/>
      </g>
     </g>
    </g>
    <g id="xtick_3">
     <g id="line2d_5">
      <g>
       <use xlink:href="#m7390d41cfb" x="403.439375" y="476.36" style="stroke: #000000"/>
      </g>
     </g>
     <g id="line2d_6">
      <g>
       <use xlink:href="#mb977d8e121" x="403.439375" y="32.84" style="stroke: #000000"/>
      </g>
     </g>
     <g id="text_3">
      <!-- −0.03 -->
      <g transform="translate(365.132734 498.856094) scale(0.25 -0.25)">
       <defs>
        <path id="DejaVuSans-33" d="M 2597 2516 
Q 3050 2419 3304 2112 
Q 3559 1806 3559 1356 
Q 3559 666 3084 287 
Q 2609 -91 1734 -91 
Q 1441 -91 1130 -33 
Q 819 25 488 141 
L 488 750 
Q 750 597 1062 519 
Q 1375 441 1716 441 
Q 2309 441 2620 675 
Q 2931 909 2931 1356 
Q 2931 1769 2642 2001 
Q 2353 2234 1838 2234 
L 1294 2234 
L 1294 2753 
L 1863 2753 
Q 2328 2753 2575 2939 
Q 2822 3125 2822 3475 
Q 2822 3834 2567 4026 
Q 2313 4219 1838 4219 
Q 1578 4219 1281 4162 
Q 984 4106 628 3988 
L 628 4550 
Q 988 4650 1302 4700 
Q 1616 4750 1894 4750 
Q 2613 4750 3031 4423 
Q 3450 4097 3450 3541 
Q 3450 3153 3228 2886 
Q 3006 2619 2597 2516 
z
" transform="scale(0.015625)"/>
       </defs>
       <use xlink:href="#DejaVuSans-2212"/>
       <use xlink:href="#DejaVuSans-30" transform="translate(83.789062 0)"/>
       <use xlink:href="#DejaVuSans-2e" transform="translate(147.412109 0)"/>
       <use xlink:href="#DejaVuSans-30" transform="translate(179.199219 0)"/>
       <use xlink:href="#DejaVuSans-33" transform="translate(242.822266 0)"/>
      </g>
     </g>
    </g>
    <g id="xtick_4">
     <g id="line2d_7">
      <g>
       <use xlink:href="#m7390d41cfb" x="559.679375" y="476.36" style="stroke: #000000"/>
      </g>
     </g>
     <g id="line2d_8">
      <g>
       <use xlink:href="#mb977d8e121" x="559.679375" y="32.84" style="stroke: #000000"/>
      </g>
     </g>
     <g id="text_4">
      <!-- −0.02 -->
      <g transform="translate(521.372734 498.856094) scale(0.25 -0.25)">
       <defs>
        <path id="DejaVuSans-32" d="M 1228 531 
L 3431 531 
L 3431 0 
L 469 0 
L 469 531 
Q 828 903 1448 1529 
Q 2069 2156 2228 2338 
Q 2531 2678 2651 2914 
Q 2772 3150 2772 3378 
Q 2772 3750 2511 3984 
Q 2250 4219 1831 4219 
Q 1534 4219 1204 4116 
Q 875 4013 500 3803 
L 500 4441 
Q 881 4594 1212 4672 
Q 1544 4750 1819 4750 
Q 2544 4750 2975 4387 
Q 3406 4025 3406 3419 
Q 3406 3131 3298 2873 
Q 3191 2616 2906 2266 
Q 2828 2175 2409 1742 
Q 1991 1309 1228 531 
z
" transform="scale(0.015625)"/>
       </defs>
       <use xlink:href="#DejaVuSans-2212"/>
       <use xlink:href="#DejaVuSans-30" transform="translate(83.789062 0)"/>
       <use xlink:href="#DejaVuSans-2e" transform="translate(147.412109 0)"/>
       <use xlink:href="#DejaVuSans-30" transform="translate(179.199219 0)"/>
       <use xlink:href="#DejaVuSans-32" transform="translate(242.822266 0)"/>
      </g>
     </g>
    </g>
    <g id="xtick_5">
     <g id="line2d_9">
      <g>
       <use xlink:href="#m7390d41cfb" x="715.919375" y="476.36" style="stroke: #000000"/>
      </g>
     </g>
     <g id="line2d_10">
      <g>
       <use xlink:href="#mb977d8e121" x="715.919375" y="32.84" style="stroke: #000000"/>
      </g>
     </g>
     <g id="text_5">
      <!-- −0.01 -->
      <g transform="translate(677.612734 498.856094) scale(0.25 -0.25)">
       <defs>
        <path id="DejaVuSans-31" d="M 794 531 
L 1825 531 
L 1825 4091 
L 703 3866 
L 703 4441 
L 1819 4666 
L 2450 4666 
L 2450 531 
L 3481 531 
L 3481 0 
L 794 0 
L 794 531 
z
" transform="scale(0.015625)"/>
       </defs>
       <use xlink:href="#DejaVuSans-2212"/>
       <use xlink:href="#DejaVuSans-30" transform="translate(83.789062 0)"/>
       <use xlink:href="#DejaVuSans-2e" transform="translate(147.412109 0)"/>
       <use xlink:href="#DejaVuSans-30" transform="translate(179.199219 0)"/>
       <use xlink:href="#DejaVuSans-31" transform="translate(242.822266 0)"/>
      </g>
     </g>
    </g>
    <g id="xtick_6">
     <g id="line2d_11">
      <g>
       <use xlink:href="#m7390d41cfb" x="872.159375" y="476.36" style="stroke: #000000"/>
      </g>
     </g>
     <g id="line2d_12">
      <g>
       <use xlink:href="#mb977d8e121" x="872.159375" y="32.84" style="stroke: #000000"/>
      </g>
     </g>
     <g id="text_6">
      <!-- 0.00 -->
      <g transform="translate(844.327344 498.856094) scale(0.25 -0.25)">
       <use xlink:href="#DejaVuSans-30"/>
       <use xlink:href="#DejaVuSans-2e" transform="translate(63.623047 0)"/>
       <use xlink:href="#DejaVuSans-30" transform="translate(95.410156 0)"/>
       <use xlink:href="#DejaVuSans-30" transform="translate(159.033203 0)"/>
      </g>
     </g>
    </g>
    <g id="xtick_7">
     <g id="line2d_13">
      <defs>
       <path id="mfecb289b55" d="M 0 0 
L 0 -3 
" style="stroke: #000000"/>
      </defs>
      <g>
       <use xlink:href="#mfecb289b55" x="122.207375" y="476.36" style="stroke: #000000"/>
      </g>
     </g>
     <g id="line2d_14">
      <defs>
       <path id="mdd552b7663" d="M 0 0 
L 0 3 
" style="stroke: #000000"/>
      </defs>
      <g>
       <use xlink:href="#mdd552b7663" x="122.207375" y="32.84" style="stroke: #000000"/>
      </g>
     </g>
    </g>
    <g id="xtick_8">
     <g id="line2d_15">
      <g>
       <use xlink:href="#mfecb289b55" x="153.455375" y="476.36" style="stroke: #000000"/>
      </g>
     </g>
     <g id="line2d_16">
      <g>
       <use xlink:href="#mdd552b7663" x="153.455375" y="32.84" style="stroke: #000000"/>
      </g>
     </g>
    </g>
    <g id="xtick_9">
     <g id="line2d_17">
      <g>
       <use xlink:href="#mfecb289b55" x="184.703375" y="476.36" style="stroke: #000000"/>
      </g>
     </g>
     <g id="line2d_18">
      <g>
       <use xlink:href="#mdd552b7663" x="184.703375" y="32.84" style="stroke: #000000"/>
      </g>
     </g>
    </g>
    <g id="xtick_10">
     <g id="line2d_19">
      <g>
       <use xlink:href="#mfecb289b55" x="215.951375" y="476.36" style="stroke: #000000"/>
      </g>
     </g>
     <g id="line2d_20">
      <g>
       <use xlink:href="#mdd552b7663" x="215.951375" y="32.84" style="stroke: #000000"/>
      </g>
     </g>
    </g>
    <g id="xtick_11">
     <g id="line2d_21">
      <g>
       <use xlink:href="#mfecb289b55" x="278.447375" y="476.36" style="stroke: #000000"/>
      </g>
     </g>
     <g id="line2d_22">
      <g>
       <use xlink:href="#mdd552b7663" x="278.447375" y="32.84" style="stroke: #000000"/>
      </g>
     </g>
    </g>
    <g id="xtick_12">
     <g id="line2d_23">
      <g>
       <use xlink:href="#mfecb289b55" x="309.695375" y="476.36" style="stroke: #000000"/>
      </g>
     </g>
     <g id="line2d_24">
      <g>
       <use xlink:href="#mdd552b7663" x="309.695375" y="32.84" style="stroke: #000000"/>
      </g>
     </g>
    </g>
    <g id="xtick_13">
     <g id="line2d_25">
      <g>
       <use xlink:href="#mfecb289b55" x="340.943375" y="476.36" style="stroke: #000000"/>
      </g>
     </g>
     <g id="line2d_26">
      <g>
       <use xlink:href="#mdd552b7663" x="340.943375" y="32.84" style="stroke: #000000"/>
      </g>
     </g>
    </g>
    <g id="xtick_14">
     <g id="line2d_27">
      <g>
       <use xlink:href="#mfecb289b55" x="372.191375" y="476.36" style="stroke: #000000"/>
      </g>
     </g>
     <g id="line2d_28">
      <g>
       <use xlink:href="#mdd552b7663" x="372.191375" y="32.84" style="stroke: #000000"/>
      </g>
     </g>
    </g>
    <g id="xtick_15">
     <g id="line2d_29">
      <g>
       <use xlink:href="#mfecb289b55" x="434.687375" y="476.36" style="stroke: #000000"/>
      </g>
     </g>
     <g id="line2d_30">
      <g>
       <use xlink:href="#mdd552b7663" x="434.687375" y="32.84" style="stroke: #000000"/>
      </g>
     </g>
    </g>
    <g id="xtick_16">
     <g id="line2d_31">
      <g>
       <use xlink:href="#mfecb289b55" x="465.935375" y="476.36" style="stroke: #000000"/>
      </g>
     </g>
     <g id="line2d_32">
      <g>
       <use xlink:href="#mdd552b7663" x="465.935375" y="32.84" style="stroke: #000000"/>
      </g>
     </g>
    </g>
    <g id="xtick_17">
     <g id="line2d_33">
      <g>
       <use xlink:href="#mfecb289b55" x="497.183375" y="476.36" style="stroke: #000000"/>
      </g>
     </g>
     <g id="line2d_34">
      <g>
       <use xlink:href="#mdd552b7663" x="497.183375" y="32.84" style="stroke: #000000"/>
      </g>
     </g>
    </g>
    <g id="xtick_18">
     <g id="line2d_35">
      <g>
       <use xlink:href="#mfecb289b55" x="528.431375" y="476.36" style="stroke: #000000"/>
      </g>
     </g>
     <g id="line2d_36">
      <g>
       <use xlink:href="#mdd552b7663" x="528.431375" y="32.84" style="stroke: #000000"/>
      </g>
     </g>
    </g>
    <g id="xtick_19">
     <g id="line2d_37">
      <g>
       <use xlink:href="#mfecb289b55" x="590.927375" y="476.36" style="stroke: #000000"/>
      </g>
     </g>
     <g id="line2d_38">
      <g>
       <use xlink:href="#mdd552b7663" x="590.927375" y="32.84" style="stroke: #000000"/>
      </g>
     </g>
    </g>
    <g id="xtick_20">
     <g id="line2d_39">
      <g>
       <use xlink:href="#mfecb289b55" x="622.175375" y="476.36" style="stroke: #000000"/>
      </g>
     </g>
     <g id="line2d_40">
      <g>
       <use xlink:href="#mdd552b7663" x="622.175375" y="32.84" style="stroke: #000000"/>
      </g>
     </g>
    </g>
    <g id="xtick_21">
     <g id="line2d_41">
      <g>
       <use xlink:href="#mfecb289b55" x="653.423375" y="476.36" style="stroke: #000000"/>
      </g>
     </g>
     <g id="line2d_42">
      <g>
       <use xlink:href="#mdd552b7663" x="653.423375" y="32.84" style="stroke: #000000"/>
      </g>
     </g>
    </g>
    <g id="xtick_22">
     <g id="line2d_43">
      <g>
       <use xlink:href="#mfecb289b55" x="684.671375" y="476.36" style="stroke: #000000"/>
      </g>
     </g>
     <g id="line2d_44">
      <g>
       <use xlink:href="#mdd552b7663" x="684.671375" y="32.84" style="stroke: #000000"/>
      </g>
     </g>
    </g>
    <g id="xtick_23">
     <g id="line2d_45">
      <g>
       <use xlink:href="#mfecb289b55" x="747.167375" y="476.36" style="stroke: #000000"/>
      </g>
     </g>
     <g id="line2d_46">
      <g>
       <use xlink:href="#mdd552b7663" x="747.167375" y="32.84" style="stroke: #000000"/>
      </g>
     </g>
    </g>
    <g id="xtick_24">
     <g id="line2d_47">
      <g>
       <use xlink:href="#mfecb289b55" x="778.415375" y="476.36" style="stroke: #000000"/>
      </g>
     </g>
     <g id="line2d_48">
      <g>
       <use xlink:href="#mdd552b7663" x="778.415375" y="32.84" style="stroke: #000000"/>
      </g>
     </g>
    </g>
    <g id="xtick_25">
     <g id="line2d_49">
      <g>
       <use xlink:href="#mfecb289b55" x="809.663375" y="476.36" style="stroke: #000000"/>
      </g>
     </g>
     <g id="line2d_50">
      <g>
       <use xlink:href="#mdd552b7663" x="809.663375" y="32.84" style="stroke: #000000"/>
      </g>
     </g>
    </g>
    <g id="xtick_26">
     <g id="line2d_51">
      <g>
       <use xlink:href="#mfecb289b55" x="840.911375" y="476.36" style="stroke: #000000"/>
      </g>
     </g>
     <g id="line2d_52">
      <g>
       <use xlink:href="#mdd552b7663" x="840.911375" y="32.84" style="stroke: #000000"/>
      </g>
     </g>
    </g>
    <g id="text_7">
     <!-- Frequency (MHz) -->
     <g transform="translate(376.5125 527.051406) scale(0.25 -0.25)">
      <defs>
       <path id="DejaVuSans-46" d="M 628 4666 
L 3309 4666 
L 3309 4134 
L 1259 4134 
L 1259 2759 
L 3109 2759 
L 3109 2228 
L 1259 2228 
L 1259 0 
L 628 0 
L 628 4666 
z
" transform="scale(0.015625)"/>
       <path id="DejaVuSans-72" d="M 2631 2963 
Q 2534 3019 2420 3045 
Q 2306 3072 2169 3072 
Q 1681 3072 1420 2755 
Q 1159 2438 1159 1844 
L 1159 0 
L 581 0 
L 581 3500 
L 1159 3500 
L 1159 2956 
Q 1341 3275 1631 3429 
Q 1922 3584 2338 3584 
Q 2397 3584 2469 3576 
Q 2541 3569 2628 3553 
L 2631 2963 
z
" transform="scale(0.015625)"/>
       <path id="DejaVuSans-65" d="M 3597 1894 
L 3597 1613 
L 953 1613 
Q 991 1019 1311 708 
Q 1631 397 2203 397 
Q 2534 397 2845 478 
Q 3156 559 3463 722 
L 3463 178 
Q 3153 47 2828 -22 
Q 2503 -91 2169 -91 
Q 1331 -91 842 396 
Q 353 884 353 1716 
Q 353 2575 817 3079 
Q 1281 3584 2069 3584 
Q 2775 3584 3186 3129 
Q 3597 2675 3597 1894 
z
M 3022 2063 
Q 3016 2534 2758 2815 
Q 2500 3097 2075 3097 
Q 1594 3097 1305 2825 
Q 1016 2553 972 2059 
L 3022 2063 
z
" transform="scale(0.015625)"/>
       <path id="DejaVuSans-71" d="M 947 1747 
Q 947 1113 1208 752 
Q 1469 391 1925 391 
Q 2381 391 2643 752 
Q 2906 1113 2906 1747 
Q 2906 2381 2643 2742 
Q 2381 3103 1925 3103 
Q 1469 3103 1208 2742 
Q 947 2381 947 1747 
z
M 2906 525 
Q 2725 213 2448 61 
Q 2172 -91 1784 -91 
Q 1150 -91 751 415 
Q 353 922 353 1747 
Q 353 2572 751 3078 
Q 1150 3584 1784 3584 
Q 2172 3584 2448 3432 
Q 2725 3281 2906 2969 
L 2906 3500 
L 3481 3500 
L 3481 -1331 
L 2906 -1331 
L 2906 525 
z
" transform="scale(0.015625)"/>
       <path id="DejaVuSans-75" d="M 544 1381 
L 544 3500 
L 1119 3500 
L 1119 1403 
Q 1119 906 1312 657 
Q 1506 409 1894 409 
Q 2359 409 2629 706 
Q 2900 1003 2900 1516 
L 2900 3500 
L 3475 3500 
L 3475 0 
L 2900 0 
L 2900 538 
Q 2691 219 2414 64 
Q 2138 -91 1772 -91 
Q 1169 -91 856 284 
Q 544 659 544 1381 
z
M 1991 3584 
L 1991 3584 
z
" transform="scale(0.015625)"/>
       <path id="DejaVuSans-6e" d="M 3513 2113 
L 3513 0 
L 2938 0 
L 2938 2094 
Q 2938 2591 2744 2837 
Q 2550 3084 2163 3084 
Q 1697 3084 1428 2787 
Q 1159 2491 1159 1978 
L 1159 0 
L 581 0 
L 581 3500 
L 1159 3500 
L 1159 2956 
Q 1366 3272 1645 3428 
Q 1925 3584 2291 3584 
Q 2894 3584 3203 3211 
Q 3513 2838 3513 2113 
z
" transform="scale(0.015625)"/>
       <path id="DejaVuSans-63" d="M 3122 3366 
L 3122 2828 
Q 2878 2963 2633 3030 
Q 2388 3097 2138 3097 
Q 1578 3097 1268 2742 
Q 959 2388 959 1747 
Q 959 1106 1268 751 
Q 1578 397 2138 397 
Q 2388 397 2633 464 
Q 2878 531 3122 666 
L 3122 134 
Q 2881 22 2623 -34 
Q 2366 -91 2075 -91 
Q 1284 -91 818 406 
Q 353 903 353 1747 
Q 353 2603 823 3093 
Q 1294 3584 2113 3584 
Q 2378 3584 2631 3529 
Q 2884 3475 3122 3366 
z
" transform="scale(0.015625)"/>
       <path id="DejaVuSans-79" d="M 2059 -325 
Q 1816 -950 1584 -1140 
Q 1353 -1331 966 -1331 
L 506 -1331 
L 506 -850 
L 844 -850 
Q 1081 -850 1212 -737 
Q 1344 -625 1503 -206 
L 1606 56 
L 191 3500 
L 800 3500 
L 1894 763 
L 2988 3500 
L 3597 3500 
L 2059 -325 
z
" transform="scale(0.015625)"/>
       <path id="DejaVuSans-20" transform="scale(0.015625)"/>
       <path id="DejaVuSans-28" d="M 1984 4856 
Q 1566 4138 1362 3434 
Q 1159 2731 1159 2009 
Q 1159 1288 1364 580 
Q 1569 -128 1984 -844 
L 1484 -844 
Q 1016 -109 783 600 
Q 550 1309 550 2009 
Q 550 2706 781 3412 
Q 1013 4119 1484 4856 
L 1984 4856 
z
" transform="scale(0.015625)"/>
       <path id="DejaVuSans-4d" d="M 628 4666 
L 1569 4666 
L 2759 1491 
L 3956 4666 
L 4897 4666 
L 4897 0 
L 4281 0 
L 4281 4097 
L 3078 897 
L 2444 897 
L 1241 4097 
L 1241 0 
L 628 0 
L 628 4666 
z
" transform="scale(0.015625)"/>
       <path id="DejaVuSans-48" d="M 628 4666 
L 1259 4666 
L 1259 2753 
L 3553 2753 
L 3553 4666 
L 4184 4666 
L 4184 0 
L 3553 0 
L 3553 2222 
L 1259 2222 
L 1259 0 
L 628 0 
L 628 4666 
z
" transform="scale(0.015625)"/>
       <path id="DejaVuSans-7a" d="M 353 3500 
L 3084 3500 
L 3084 2975 
L 922 459 
L 3084 459 
L 3084 0 
L 275 0 
L 275 525 
L 2438 3041 
L 353 3041 
L 353 3500 
z
" transform="scale(0.015625)"/>
       <path id="DejaVuSans-29" d="M 513 4856 
L 1013 4856 
Q 1481 4119 1714 3412 
Q 1947 2706 1947 2009 
Q 1947 1309 1714 600 
Q 1481 -109 1013 -844 
L 513 -844 
Q 928 -128 1133 580 
Q 1338 1288 1338 2009 
Q 1338 2731 1133 3434 
Q 928 4138 513 4856 
z
" transform="scale(0.015625)"/>
      </defs>
      <use xlink:href="#DejaVuSans-46"/>
      <use xlink:href="#DejaVuSans-72" transform="translate(50.269531 0)"/>
      <use xlink:href="#DejaVuSans-65" transform="translate(89.132812 0)"/>
      <use xlink:href="#DejaVuSans-71" transform="translate(150.65625 0)"/>
      <use xlink:href="#DejaVuSans-75" transform="translate(214.132812 0)"/>
      <use xlink:href="#DejaVuSans-65" transform="translate(277.511719 0)"/>
      <use xlink:href="#DejaVuSans-6e" transform="translate(339.035156 0)"/>
      <use xlink:href="#DejaVuSans-63" transform="translate(402.414062 0)"/>
      <use xlink:href="#DejaVuSans-79" transform="translate(457.394531 0)"/>
      <use xlink:href="#DejaVuSans-20" transform="translate(516.574219 0)"/>
      <use xlink:href="#DejaVuSans-28" transform="translate(548.361328 0)"/>
      <use xlink:href="#DejaVuSans-4d" transform="translate(587.375 0)"/>
      <use xlink:href="#DejaVuSans-48" transform="translate(673.654297 0)"/>
      <use xlink:href="#DejaVuSans-7a" transform="translate(748.849609 0)"/>
      <use xlink:href="#DejaVuSans-29" transform="translate(801.339844 0)"/>
     </g>
    </g>
   </g>
   <g id="matplotlib.axis_2">
    <g id="ytick_1">
     <g id="line2d_53">
      <defs>
       <path id="mff4037983b" d="M 0 0 
L 6 0 
" style="stroke: #000000"/>
      </defs>
      <g>
       <use xlink:href="#mff4037983b" x="90.959375" y="476.36" style="stroke: #000000"/>
      </g>
     </g>
     <g id="line2d_54">
      <defs>
       <path id="mcad0085e14" d="M 0 0 
L -6 0 
" style="stroke: #000000"/>
      </defs>
      <g>
       <use xlink:href="#mcad0085e14" x="872.159375" y="476.36" style="stroke: #000000"/>
      </g>
     </g>
     <g id="text_8">
      <!-- 0.00 -->
      <g transform="translate(31.795313 485.858047) scale(0.25 -0.25)">
       <use xlink:href="#DejaVuSans-30"/>
       <use xlink:href="#DejaVuSans-2e" transform="translate(63.623047 0)"/>
       <use xlink:href="#DejaVuSans-30" transform="translate(95.410156 0)"/>
       <use xlink:href="#DejaVuSans-30" transform="translate(159.033203 0)"/>
      </g>
     </g>
    </g>
    <g id="ytick_2">
     <g id="line2d_55">
      <g>
       <use xlink:href="#mff4037983b" x="90.959375" y="377.8" style="stroke: #000000"/>
      </g>
     </g>
     <g id="line2d_56">
      <g>
       <use xlink:href="#mcad0085e14" x="872.159375" y="377.8" style="stroke: #000000"/>
      </g>
     </g>
     <g id="text_9">
      <!-- 0.05 -->
      <g transform="translate(31.795313 387.298047) scale(0.25 -0.25)">
       <use xlink:href="#DejaVuSans-30"/>
       <use xlink:href="#DejaVuSans-2e" transform="translate(63.623047 0)"/>
       <use xlink:href="#DejaVuSans-30" transform="translate(95.410156 0)"/>
       <use xlink:href="#DejaVuSans-35" transform="translate(159.033203 0)"/>
      </g>
     </g>
    </g>
    <g id="ytick_3">
     <g id="line2d_57">
      <g>
       <use xlink:href="#mff4037983b" x="90.959375" y="279.24" style="stroke: #000000"/>
      </g>
     </g>
     <g id="line2d_58">
      <g>
       <use xlink:href="#mcad0085e14" x="872.159375" y="279.24" style="stroke: #000000"/>
      </g>
     </g>
     <g id="text_10">
      <!-- 0.10 -->
      <g transform="translate(31.795313 288.738047) scale(0.25 -0.25)">
       <use xlink:href="#DejaVuSans-30"/>
       <use xlink:href="#DejaVuSans-2e" transform="translate(63.623047 0)"/>
       <use xlink:href="#DejaVuSans-31" transform="translate(95.410156 0)"/>
       <use xlink:href="#DejaVuSans-30" transform="translate(159.033203 0)"/>
      </g>
     </g>
    </g>
    <g id="ytick_4">
     <g id="line2d_59">
      <g>
       <use xlink:href="#mff4037983b" x="90.959375" y="180.68" style="stroke: #000000"/>
      </g>
     </g>
     <g id="line2d_60">
      <g>
       <use xlink:href="#mcad0085e14" x="872.159375" y="180.68" style="stroke: #000000"/>
      </g>
     </g>
     <g id="text_11">
      <!-- 0.15 -->
      <g transform="translate(31.795313 190.178047) scale(0.25 -0.25)">
       <use xlink:href="#DejaVuSans-30"/>
       <use xlink:href="#DejaVuSans-2e" transform="translate(63.623047 0)"/>
       <use xlink:href="#DejaVuSans-31" transform="translate(95.410156 0)"/>
       <use xlink:href="#DejaVuSans-35" transform="translate(159.033203 0)"/>
      </g>
     </g>
    </g>
    <g id="ytick_5">
     <g id="line2d_61">
      <g>
       <use xlink:href="#mff4037983b" x="90.959375" y="82.12" style="stroke: #000000"/>
      </g>
     </g>
     <g id="line2d_62">
      <g>
       <use xlink:href="#mcad0085e14" x="872.159375" y="82.12" style="stroke: #000000"/>
      </g>
     </g>
     <g id="text_12">
      <!-- 0.20 -->
      <g transform="translate(31.795313 91.618047) scale(0.25 -0.25)">
       <use xlink:href="#DejaVuSans-30"/>
       <use xlink:href="#DejaVuSans-2e" transform="translate(63.623047 0)"/>
       <use xlink:href="#DejaVuSans-32" transform="translate(95.410156 0)"/>
       <use xlink:href="#DejaVuSans-30" transform="translate(159.033203 0)"/>
      </g>
     </g>
    </g>
    <g id="ytick_6">
     <g id="line2d_63">
      <defs>
       <path id="m2d92c9784e" d="M 0 0 
L 3 0 
" style="stroke: #000000"/>
      </defs>
      <g>
       <use xlink:href="#m2d92c9784e" x="90.959375" y="456.648" style="stroke: #000000"/>
      </g>
     </g>
     <g id="line2d_64">
      <defs>
       <path id="m2eb76bead5" d="M 0 0 
L -3 0 
" style="stroke: #000000"/>
      </defs>
      <g>
       <use xlink:href="#m2eb76bead5" x="872.159375" y="456.648" style="stroke: #000000"/>
      </g>
     </g>
    </g>
    <g id="ytick_7">
     <g id="line2d_65">
      <g>
       <use xlink:href="#m2d92c9784e" x="90.959375" y="436.936" style="stroke: #000000"/>
      </g>
     </g>
     <g id="line2d_66">
      <g>
       <use xlink:href="#m2eb76bead5" x="872.159375" y="436.936" style="stroke: #000000"/>
      </g>
     </g>
    </g>
    <g id="ytick_8">
     <g id="line2d_67">
      <g>
       <use xlink:href="#m2d92c9784e" x="90.959375" y="417.224" style="stroke: #000000"/>
      </g>
     </g>
     <g id="line2d_68">
      <g>
       <use xlink:href="#m2eb76bead5" x="872.159375" y="417.224" style="stroke: #000000"/>
      </g>
     </g>
    </g>
    <g id="ytick_9">
     <g id="line2d_69">
      <g>
       <use xlink:href="#m2d92c9784e" x="90.959375" y="397.512" style="stroke: #000000"/>
      </g>
     </g>
     <g id="line2d_70">
      <g>
       <use xlink:href="#m2eb76bead5" x="872.159375" y="397.512" style="stroke: #000000"/>
      </g>
     </g>
    </g>
    <g id="ytick_10">
     <g id="line2d_71">
      <g>
       <use xlink:href="#m2d92c9784e" x="90.959375" y="358.088" style="stroke: #000000"/>
      </g>
     </g>
     <g id="line2d_72">
      <g>
       <use xlink:href="#m2eb76bead5" x="872.159375" y="358.088" style="stroke: #000000"/>
      </g>
     </g>
    </g>
    <g id="ytick_11">
     <g id="line2d_73">
      <g>
       <use xlink:href="#m2d92c9784e" x="90.959375" y="338.376" style="stroke: #000000"/>
      </g>
     </g>
     <g id="line2d_74">
      <g>
       <use xlink:href="#m2eb76bead5" x="872.159375" y="338.376" style="stroke: #000000"/>
      </g>
     </g>
    </g>
    <g id="ytick_12">
     <g id="line2d_75">
      <g>
       <use xlink:href="#m2d92c9784e" x="90.959375" y="318.664" style="stroke: #000000"/>
      </g>
     </g>
     <g id="line2d_76">
      <g>
       <use xlink:href="#m2eb76bead5" x="872.159375" y="318.664" style="stroke: #000000"/>
      </g>
     </g>
    </g>
    <g id="ytick_13">
     <g id="line2d_77">
      <g>
       <use xlink:href="#m2d92c9784e" x="90.959375" y="298.952" style="stroke: #000000"/>
      </g>
     </g>
     <g id="line2d_78">
      <g>
       <use xlink:href="#m2eb76bead5" x="872.159375" y="298.952" style="stroke: #000000"/>
      </g>
     </g>
    </g>
    <g id="ytick_14">
     <g id="line2d_79">
      <g>
       <use xlink:href="#m2d92c9784e" x="90.959375" y="259.528" style="stroke: #000000"/>
      </g>
     </g>
     <g id="line2d_80">
      <g>
       <use xlink:href="#m2eb76bead5" x="872.159375" y="259.528" style="stroke: #000000"/>
      </g>
     </g>
    </g>
    <g id="ytick_15">
     <g id="line2d_81">
      <g>
       <use xlink:href="#m2d92c9784e" x="90.959375" y="239.816" style="stroke: #000000"/>
      </g>
     </g>
     <g id="line2d_82">
      <g>
       <use xlink:href="#m2eb76bead5" x="872.159375" y="239.816" style="stroke: #000000"/>
      </g>
     </g>
    </g>
    <g id="ytick_16">
     <g id="line2d_83">
      <g>
       <use xlink:href="#m2d92c9784e" x="90.959375" y="220.104" style="stroke: #000000"/>
      </g>
     </g>
     <g id="line2d_84">
      <g>
       <use xlink:href="#m2eb76bead5" x="872.159375" y="220.104" style="stroke: #000000"/>
      </g>
     </g>
    </g>
    <g id="ytick_17">
     <g id="line2d_85">
      <g>
       <use xlink:href="#m2d92c9784e" x="90.959375" y="200.392" style="stroke: #000000"/>
      </g>
     </g>
     <g id="line2d_86">
      <g>
       <use xlink:href="#m2eb76bead5" x="872.159375" y="200.392" style="stroke: #000000"/>
      </g>
     </g>
    </g>
    <g id="ytick_18">
     <g id="line2d_87">
      <g>
       <use xlink:href="#m2d92c9784e" x="90.959375" y="160.968" style="stroke: #000000"/>
      </g>
     </g>
     <g id="line2d_88">
      <g>
       <use xlink:href="#m2eb76bead5" x="872.159375" y="160.968" style="stroke: #000000"/>
      </g>
     </g>
    </g>
    <g id="ytick_19">
     <g id="line2d_89">
      <g>
       <use xlink:href="#m2d92c9784e" x="90.959375" y="141.256" style="stroke: #000000"/>
      </g>
     </g>
     <g id="line2d_90">
      <g>
       <use xlink:href="#m2eb76bead5" x="872.159375" y="141.256" style="stroke: #000000"/>
      </g>
     </g>
    </g>
    <g id="ytick_20">
     <g id="line2d_91">
      <g>
       <use xlink:href="#m2d92c9784e" x="90.959375" y="121.544" style="stroke: #000000"/>
      </g>
     </g>
     <g id="line2d_92">
      <g>
       <use xlink:href="#m2eb76bead5" x="872.159375" y="121.544" style="stroke: #000000"/>
      </g>
     </g>
    </g>
    <g id="ytick_21">
     <g id="line2d_93">
      <g>
       <use xlink:href="#m2d92c9784e" x="90.959375" y="101.832" style="stroke: #000000"/>
      </g>
     </g>
     <g id="line2d_94">
      <g>
       <use xlink:href="#m2eb76bead5" x="872.159375" y="101.832" style="stroke: #000000"/>
      </g>
     </g>
    </g>
    <g id="ytick_22">
     <g id="line2d_95">
      <g>
       <use xlink:href="#m2d92c9784e" x="90.959375" y="62.408" style="stroke: #000000"/>
      </g>
     </g>
     <g id="line2d_96">
      <g>
       <use xlink:href="#m2eb76bead5" x="872.159375" y="62.408" style="stroke: #000000"/>
      </g>
     </g>
    </g>
    <g id="ytick_23">
     <g id="line2d_97">
      <g>
       <use xlink:href="#m2d92c9784e" x="90.959375" y="42.696" style="stroke: #000000"/>
      </g>
     </g>
     <g id="line2d_98">
      <g>
       <use xlink:href="#m2eb76bead5" x="872.159375" y="42.696" style="stroke: #000000"/>
      </g>
     </g>
    </g>
    <g id="text_13">
     <!-- Excitation probability -->
     <g transform="translate(22.596094 387.189844) rotate(-90) scale(0.25 -0.25)">
      <defs>
       <path id="DejaVuSans-45" d="M 628 4666 
L 3578 4666 
L 3578 4134 
L 1259 4134 
L 1259 2753 
L 3481 2753 
L 3481 2222 
L 1259 2222 
L 1259 531 
L 3634 531 
L 3634 0 
L 628 0 
L 628 4666 
z
" transform="scale(0.015625)"/>
       <path id="DejaVuSans-78" d="M 3513 3500 
L 2247 1797 
L 3578 0 
L 2900 0 
L 1881 1375 
L 863 0 
L 184 0 
L 1544 1831 
L 300 3500 
L 978 3500 
L 1906 2253 
L 2834 3500 
L 3513 3500 
z
" transform="scale(0.015625)"/>
       <path id="DejaVuSans-69" d="M 603 3500 
L 1178 3500 
L 1178 0 
L 603 0 
L 603 3500 
z
M 603 4863 
L 1178 4863 
L 1178 4134 
L 603 4134 
L 603 4863 
z
" transform="scale(0.015625)"/>
       <path id="DejaVuSans-74" d="M 1172 4494 
L 1172 3500 
L 2356 3500 
L 2356 3053 
L 1172 3053 
L 1172 1153 
Q 1172 725 1289 603 
Q 1406 481 1766 481 
L 2356 481 
L 2356 0 
L 1766 0 
Q 1100 0 847 248 
Q 594 497 594 1153 
L 594 3053 
L 172 3053 
L 172 3500 
L 594 3500 
L 594 4494 
L 1172 4494 
z
" transform="scale(0.015625)"/>
       <path id="DejaVuSans-61" d="M 2194 1759 
Q 1497 1759 1228 1600 
Q 959 1441 959 1056 
Q 959 750 1161 570 
Q 1363 391 1709 391 
Q 2188 391 2477 730 
Q 2766 1069 2766 1631 
L 2766 1759 
L 2194 1759 
z
M 3341 1997 
L 3341 0 
L 2766 0 
L 2766 531 
Q 2569 213 2275 61 
Q 1981 -91 1556 -91 
Q 1019 -91 701 211 
Q 384 513 384 1019 
Q 384 1609 779 1909 
Q 1175 2209 1959 2209 
L 2766 2209 
L 2766 2266 
Q 2766 2663 2505 2880 
Q 2244 3097 1772 3097 
Q 1472 3097 1187 3025 
Q 903 2953 641 2809 
L 641 3341 
Q 956 3463 1253 3523 
Q 1550 3584 1831 3584 
Q 2591 3584 2966 3190 
Q 3341 2797 3341 1997 
z
" transform="scale(0.015625)"/>
       <path id="DejaVuSans-6f" d="M 1959 3097 
Q 1497 3097 1228 2736 
Q 959 2375 959 1747 
Q 959 1119 1226 758 
Q 1494 397 1959 397 
Q 2419 397 2687 759 
Q 2956 1122 2956 1747 
Q 2956 2369 2687 2733 
Q 2419 3097 1959 3097 
z
M 1959 3584 
Q 2709 3584 3137 3096 
Q 3566 2609 3566 1747 
Q 3566 888 3137 398 
Q 2709 -91 1959 -91 
Q 1206 -91 779 398 
Q 353 888 353 1747 
Q 353 2609 779 3096 
Q 1206 3584 1959 3584 
z
" transform="scale(0.015625)"/>
       <path id="DejaVuSans-70" d="M 1159 525 
L 1159 -1331 
L 581 -1331 
L 581 3500 
L 1159 3500 
L 1159 2969 
Q 1341 3281 1617 3432 
Q 1894 3584 2278 3584 
Q 2916 3584 3314 3078 
Q 3713 2572 3713 1747 
Q 3713 922 3314 415 
Q 2916 -91 2278 -91 
Q 1894 -91 1617 61 
Q 1341 213 1159 525 
z
M 3116 1747 
Q 3116 2381 2855 2742 
Q 2594 3103 2138 3103 
Q 1681 3103 1420 2742 
Q 1159 2381 1159 1747 
Q 1159 1113 1420 752 
Q 1681 391 2138 391 
Q 2594 391 2855 752 
Q 3116 1113 3116 1747 
z
" transform="scale(0.015625)"/>
       <path id="DejaVuSans-62" d="M 3116 1747 
Q 3116 2381 2855 2742 
Q 2594 3103 2138 3103 
Q 1681 3103 1420 2742 
Q 1159 2381 1159 1747 
Q 1159 1113 1420 752 
Q 1681 391 2138 391 
Q 2594 391 2855 752 
Q 3116 1113 3116 1747 
z
M 1159 2969 
Q 1341 3281 1617 3432 
Q 1894 3584 2278 3584 
Q 2916 3584 3314 3078 
Q 3713 2572 3713 1747 
Q 3713 922 3314 415 
Q 2916 -91 2278 -91 
Q 1894 -91 1617 61 
Q 1341 213 1159 525 
L 1159 0 
L 581 0 
L 581 4863 
L 1159 4863 
L 1159 2969 
z
" transform="scale(0.015625)"/>
       <path id="DejaVuSans-6c" d="M 603 4863 
L 1178 4863 
L 1178 0 
L 603 0 
L 603 4863 
z
" transform="scale(0.015625)"/>
      </defs>
      <use xlink:href="#DejaVuSans-45"/>
      <use xlink:href="#DejaVuSans-78" transform="translate(63.183594 0)"/>
      <use xlink:href="#DejaVuSans-63" transform="translate(120.613281 0)"/>
      <use xlink:href="#DejaVuSans-69" transform="translate(175.59375 0)"/>
      <use xlink:href="#DejaVuSans-74" transform="translate(203.376953 0)"/>
      <use xlink:href="#DejaVuSans-61" transform="translate(242.585938 0)"/>
      <use xlink:href="#DejaVuSans-74" transform="translate(303.865234 0)"/>
      <use xlink:href="#DejaVuSans-69" transform="translate(343.074219 0)"/>
      <use xlink:href="#DejaVuSans-6f" transform="translate(370.857422 0)"/>
      <use xlink:href="#DejaVuSans-6e" transform="translate(432.039062 0)"/>
      <use xlink:href="#DejaVuSans-20" transform="translate(495.417969 0)"/>
      <use xlink:href="#DejaVuSans-70" transform="translate(527.205078 0)"/>
      <use xlink:href="#DejaVuSans-72" transform="translate(590.681641 0)"/>
      <use xlink:href="#DejaVuSans-6f" transform="translate(629.544922 0)"/>
      <use xlink:href="#DejaVuSans-62" transform="translate(690.726562 0)"/>
      <use xlink:href="#DejaVuSans-61" transform="translate(754.203125 0)"/>
      <use xlink:href="#DejaVuSans-62" transform="translate(815.482422 0)"/>
      <use xlink:href="#DejaVuSans-69" transform="translate(878.958984 0)"/>
      <use xlink:href="#DejaVuSans-6c" transform="translate(906.742188 0)"/>
      <use xlink:href="#DejaVuSans-69" transform="translate(934.525391 0)"/>
      <use xlink:href="#DejaVuSans-74" transform="translate(962.308594 0)"/>
      <use xlink:href="#DejaVuSans-79" transform="translate(1001.517578 0)"/>
     </g>
    </g>
   </g>
   <g id="line2d_99">
    <path d="M 90.959375 475.963531 
L 92.523339 475.674596 
L 94.087303 475.940975 
L 95.651267 474.755503 
L 97.215231 475.846778 
L 98.779195 474.327018 
L 100.343159 475.229818 
L 101.907123 448.965389 
L 103.471087 476.146909 
L 105.035051 448.206408 
L 106.599015 474.867527 
L 108.162979 474.372039 
L 109.726943 473.593746 
L 111.290907 474.920385 
L 112.85487 474.825363 
L 114.418834 457.821682 
L 115.982798 463.334224 
L 117.546762 460.032977 
L 119.110726 448.845356 
L 120.67469 468.498117 
L 122.238654 475.711515 
L 123.802618 476.127592 
L 125.366582 475.603824 
L 126.930546 473.523549 
L 128.49451 466.202336 
L 130.058474 466.101551 
L 131.622438 473.605215 
L 133.186402 475.936182 
L 134.750366 475.864013 
L 136.31433 450.625133 
L 137.878294 476.172294 
L 139.442258 474.531554 
L 142.570186 476.161254 
L 144.13415 475.839854 
L 145.698114 475.340896 
L 147.262078 475.924232 
L 148.826042 474.65449 
L 150.390006 475.939864 
L 151.95397 475.80513 
L 153.517934 475.847894 
L 155.081898 475.686926 
L 156.645861 475.957024 
L 159.773789 475.778246 
L 161.337753 476.147719 
L 162.901717 475.804804 
L 164.465681 476.081001 
L 167.593609 476.0124 
L 169.157573 475.920316 
L 170.721537 476.085325 
L 172.285501 476.02862 
L 175.413429 475.468083 
L 176.977393 476.158708 
L 180.105321 475.71029 
L 181.669285 476.144071 
L 183.233249 475.660131 
L 184.797213 475.880486 
L 186.361177 475.614521 
L 187.925141 475.967276 
L 189.489105 476.170791 
L 191.053069 476.127086 
L 192.617033 475.689474 
L 194.180997 476.153276 
L 195.744961 473.738886 
L 197.308925 475.568066 
L 198.872889 475.997102 
L 200.436852 476.033505 
L 202.000816 474.025493 
L 203.56478 463.709673 
L 205.128744 475.463203 
L 206.692708 475.127084 
L 208.256672 476.166267 
L 209.820636 473.603689 
L 211.3846 475.074319 
L 212.948564 474.691463 
L 214.512528 475.038986 
L 216.076492 474.23556 
L 217.640456 427.540105 
L 219.20442 474.997639 
L 220.768384 475.253828 
L 222.332348 474.180777 
L 223.896312 432.852412 
L 225.460276 440.852196 
L 227.02424 475.877134 
L 228.588204 473.881198 
L 230.152168 436.061415 
L 231.716132 473.674766 
L 233.280096 475.169312 
L 234.84406 456.085129 
L 236.408024 473.731848 
L 237.971988 429.279716 
L 239.535952 435.564931 
L 241.099916 463.438354 
L 242.66388 433.578408 
L 244.227843 472.707932 
L 245.791807 475.582011 
L 247.355771 474.958959 
L 248.919735 476.126772 
L 250.483699 475.920006 
L 252.047663 476.024347 
L 253.611627 464.918036 
L 255.175591 475.127096 
L 256.739555 456.518892 
L 258.303519 475.950664 
L 259.867483 476.122186 
L 261.431447 475.696179 
L 262.995411 430.663273 
L 264.559375 472.992072 
L 266.123339 475.335645 
L 267.687303 473.55379 
L 269.251267 475.323151 
L 270.815231 476.0426 
L 272.379195 474.857215 
L 273.943159 475.476542 
L 277.071087 473.912559 
L 278.635051 476.022591 
L 280.199015 475.402848 
L 281.762979 475.907439 
L 283.326943 474.838046 
L 284.890907 474.633521 
L 288.018834 475.961696 
L 289.582798 475.341681 
L 291.146762 475.877604 
L 292.710726 475.96307 
L 294.27469 475.33348 
L 295.838654 475.309022 
L 297.402618 475.732949 
L 298.966582 475.581274 
L 300.530546 474.710934 
L 302.09451 475.430431 
L 303.658474 475.40721 
L 305.222438 475.914964 
L 306.786402 474.97249 
L 308.350366 475.690183 
L 309.91433 475.50969 
L 311.478294 475.580718 
L 313.042258 475.861968 
L 314.606222 475.937638 
L 316.170186 475.338181 
L 317.73415 475.721722 
L 319.298114 474.870117 
L 320.862078 475.7981 
L 322.426042 474.750989 
L 323.990006 474.764083 
L 325.55397 473.613773 
L 327.117934 469.765633 
L 328.681898 473.93612 
L 330.245861 470.445498 
L 331.809825 473.824644 
L 333.373789 475.753097 
L 334.937753 466.189257 
L 336.501717 468.720958 
L 338.065681 473.666345 
L 339.629645 470.352341 
L 341.193609 475.996672 
L 342.757573 405.410544 
L 344.321537 408.435925 
L 345.885501 472.012906 
L 347.449465 470.925114 
L 349.013429 469.096438 
L 350.577393 471.869633 
L 352.141357 405.331155 
L 353.705321 471.082835 
L 355.269285 474.604485 
L 356.833249 418.485732 
L 358.397213 473.278389 
L 359.961177 398.404835 
L 361.525141 442.750403 
L 363.089105 454.182284 
L 364.653069 471.618146 
L 366.217033 394.360831 
L 367.780997 472.895856 
L 369.344961 406.664202 
L 370.908925 470.267446 
L 372.472889 393.972064 
L 374.036852 403.990661 
L 375.600816 452.235202 
L 377.16478 448.675668 
L 378.728744 474.269652 
L 380.292708 475.664047 
L 381.856672 472.214797 
L 383.420636 461.161344 
L 384.9846 473.476511 
L 388.112528 475.494147 
L 389.676492 475.419803 
L 391.240456 473.579587 
L 392.80442 474.781842 
L 394.368384 473.638533 
L 395.932348 469.844384 
L 397.496312 470.747605 
L 399.060276 474.254885 
L 400.62424 474.467128 
L 402.188204 474.805855 
L 403.752168 475.391693 
L 405.316132 474.42171 
L 406.880096 474.878096 
L 408.44406 473.721164 
L 410.008024 474.174967 
L 411.571988 475.269659 
L 413.135952 473.731275 
L 414.699916 473.854893 
L 416.26388 474.804079 
L 417.827843 474.137188 
L 419.391807 474.089307 
L 420.955771 475.514375 
L 422.519735 475.564154 
L 424.083699 473.04648 
L 425.647663 473.967864 
L 427.211627 474.479676 
L 428.775591 473.867382 
L 430.339555 472.955071 
L 431.903519 474.371568 
L 433.467483 475.530925 
L 435.031447 472.220706 
L 436.595411 473.153951 
L 438.159375 475.483337 
L 439.723339 472.273097 
L 441.287303 474.95472 
L 442.851267 472.322721 
L 444.415231 474.822623 
L 445.979195 475.068265 
L 447.543159 473.628575 
L 449.107123 463.943595 
L 450.671087 466.000234 
L 452.235051 464.898943 
L 453.799015 466.165393 
L 455.362979 474.394594 
L 456.926943 464.920961 
L 458.490907 468.852203 
L 460.05487 475.625465 
L 461.618834 474.423167 
L 463.182798 469.497154 
L 464.746762 473.804936 
L 466.310726 475.518946 
L 467.87469 451.713435 
L 469.438654 455.249573 
L 471.002618 391.676048 
L 472.566582 393.294677 
L 474.130546 464.145265 
L 475.69451 418.023321 
L 477.258474 472.029489 
L 478.822438 374.666624 
L 480.386402 455.371154 
L 481.950366 458.475524 
L 483.51433 474.562216 
L 485.078294 464.011023 
L 486.642258 469.50858 
L 488.206222 375.971516 
L 489.770186 470.826811 
L 491.33415 471.522935 
L 492.898114 466.009253 
L 494.462078 465.411837 
L 496.026042 471.464167 
L 497.590006 473.140554 
L 499.15397 472.894769 
L 500.717934 474.952962 
L 502.281898 466.004858 
L 503.845861 465.091632 
L 505.409825 471.704944 
L 506.973789 474.698144 
L 508.537753 470.864005 
L 510.101717 472.213554 
L 511.665681 473.915619 
L 513.229645 473.655354 
L 514.793609 475.481262 
L 516.357573 475.813156 
L 517.921537 472.889914 
L 521.049465 474.836608 
L 522.613429 475.360379 
L 524.177393 472.464401 
L 525.741357 475.604834 
L 527.305321 473.055762 
L 528.869285 474.37594 
L 530.433249 472.671739 
L 531.997213 475.718452 
L 533.561177 470.893897 
L 535.125141 470.458261 
L 536.689105 471.01422 
L 538.253069 472.202302 
L 539.817033 475.092038 
L 541.380997 471.97411 
L 542.944961 471.854076 
L 544.508925 470.098453 
L 546.072889 475.837839 
L 549.200816 475.862203 
L 550.76478 475.374963 
L 552.328744 474.594219 
L 553.892708 472.315537 
L 555.456672 470.6597 
L 557.020636 461.967902 
L 558.5846 472.543438 
L 560.148564 462.825806 
L 561.712528 465.19238 
L 563.276492 462.691834 
L 564.840456 423.012714 
L 566.40442 470.911827 
L 567.968384 423.299856 
L 569.532348 430.128271 
L 571.096312 452.775244 
L 572.660276 422.811823 
L 574.22424 469.337233 
L 575.788204 448.405787 
L 577.352168 473.795489 
L 578.916132 424.428249 
L 580.480096 473.082191 
L 582.04406 475.591657 
L 583.608024 430.091206 
L 585.171988 429.449134 
L 586.735952 426.48816 
L 588.299916 471.56498 
L 589.86388 448.274074 
L 591.427843 467.268433 
L 592.991807 467.251185 
L 594.555771 473.363363 
L 596.119735 475.197574 
L 597.683699 473.816467 
L 599.247663 474.055826 
L 600.811627 467.839752 
L 602.375591 465.257231 
L 603.939555 471.901645 
L 605.503519 472.288226 
L 607.067483 474.742527 
L 608.631447 473.643528 
L 610.195411 472.359529 
L 611.759375 475.302568 
L 613.323339 475.241125 
L 614.887303 474.672744 
L 616.451267 474.260526 
L 618.015231 472.333198 
L 619.579195 473.253778 
L 621.143159 472.902286 
L 622.707123 474.151532 
L 624.271087 474.104112 
L 625.835051 473.798159 
L 627.399015 475.068894 
L 628.962979 473.780756 
L 630.526943 473.728072 
L 632.090907 473.888395 
L 633.65487 473.787386 
L 635.218834 472.208389 
L 636.782798 474.224752 
L 638.346762 471.995903 
L 639.910726 471.918298 
L 641.47469 473.529468 
L 643.038654 472.088866 
L 644.602618 472.402728 
L 646.166582 472.414547 
L 647.730546 474.607942 
L 649.29451 475.943084 
L 650.858474 475.35663 
L 652.422438 475.662552 
L 653.986402 473.698076 
L 655.550366 473.207293 
L 657.11433 475.757238 
L 658.678294 473.0765 
L 660.242258 475.054997 
L 661.806222 475.663804 
L 663.370186 472.829342 
L 664.93415 473.536206 
L 666.498114 473.807862 
L 668.062078 476.026035 
L 669.626042 473.972043 
L 671.190006 475.503564 
L 672.75397 472.316755 
L 674.317934 474.788582 
L 675.881898 475.198763 
L 677.445861 474.806857 
L 679.009825 472.832564 
L 680.573789 473.717106 
L 682.137753 472.097205 
L 683.701717 472.612921 
L 685.265681 475.039611 
L 686.829645 475.447149 
L 688.393609 476.079558 
L 689.957573 472.357204 
L 691.521537 474.685318 
L 693.085501 476.101656 
L 694.649465 476.102832 
L 696.213429 475.319403 
L 697.777393 475.975121 
L 699.341357 474.524507 
L 700.905321 475.18951 
L 702.469285 476.073164 
L 704.033249 474.898886 
L 705.597213 474.854985 
L 707.161177 476.022341 
L 708.725141 475.071237 
L 710.289105 475.598577 
L 711.853069 475.304346 
L 714.980997 475.249215 
L 716.544961 475.937073 
L 718.108925 475.333773 
L 719.672889 475.951094 
L 721.236852 475.575392 
L 722.800816 475.962554 
L 724.36478 476.094654 
L 725.928744 475.773931 
L 727.492708 475.837733 
L 729.056672 475.54848 
L 732.1846 475.722038 
L 733.748564 475.621617 
L 735.312528 476.094007 
L 746.260276 475.667476 
L 749.388204 475.828487 
L 750.952168 475.960105 
L 752.516132 475.858047 
L 754.080096 476.022764 
L 755.64406 475.715206 
L 758.771988 475.691397 
L 760.335952 475.817183 
L 763.46388 475.571487 
L 766.591807 475.603695 
L 769.719735 475.734494 
L 771.283699 475.491476 
L 772.847663 475.709684 
L 774.411627 475.4216 
L 775.975591 475.460792 
L 777.539555 475.200944 
L 779.103519 475.062505 
L 780.667483 473.691389 
L 782.231447 474.642316 
L 785.359375 474.539076 
L 786.923339 472.605725 
L 788.487303 471.772771 
L 790.051267 471.869119 
L 791.615231 471.247067 
L 793.179195 470.055945 
L 794.743159 469.848196 
L 800.999015 470.285109 
L 802.562979 470.938184 
L 804.126943 470.632468 
L 805.690907 472.948403 
L 807.25487 473.003178 
L 810.382798 473.915294 
L 811.946762 474.770199 
L 813.510726 474.212007 
L 815.07469 475.12665 
L 816.638654 475.162538 
L 818.202618 475.354539 
L 819.766582 475.25015 
L 821.330546 474.723049 
L 822.89451 474.445694 
L 824.458474 473.762315 
L 827.586402 473.794726 
L 829.150366 473.465958 
L 830.71433 473.320475 
L 832.278294 473.305311 
L 836.970186 473.635658 
L 838.53415 473.98333 
L 840.098114 474.597623 
L 841.662078 474.912169 
L 843.226042 475.055732 
L 844.790006 475.663064 
L 847.917934 475.893771 
L 854.173789 475.436175 
L 857.301717 475.485409 
L 861.993609 475.969757 
L 863.557573 476.042856 
L 866.685501 475.888281 
L 869.813429 475.576972 
L 872.941357 475.57742 
L 879.197213 476.00746 
L 883.889105 475.656552 
L 885.453069 475.404682 
L 888.580997 475.358966 
L 894.836852 475.682836 
L 896.400816 475.581731 
L 899.528744 474.840596 
L 901.092708 474.624896 
L 904.220636 474.541467 
L 904.591406 474.672605 
L 904.591406 474.672605 
" clip-path="url(#pfb5626ae8f)" style="fill: none; stroke: #0000ff; stroke-width: 3; stroke-linecap: square"/>
   </g>
   <g id="line2d_100">
    <path d="M 90.959375 475.688247 
L 94.087303 474.790296 
L 95.651267 474.482882 
L 97.215231 474.442516 
L 98.779195 474.716821 
L 101.907123 475.799916 
L 103.471087 476.099625 
L 105.035051 475.778378 
L 106.599015 474.516224 
L 108.162979 472.121898 
L 109.726943 468.607335 
L 111.290907 464.223207 
L 114.418834 454.885999 
L 115.982798 451.216804 
L 117.546762 449.00344 
L 119.110726 448.605639 
L 120.67469 450.09628 
L 122.238654 453.243566 
L 123.802618 457.557784 
L 126.930546 467.073251 
L 128.49451 471.032435 
L 130.058474 473.904575 
L 131.622438 475.576363 
L 133.186402 476.174281 
L 134.750366 476.00052 
L 137.878294 474.843452 
L 139.442258 474.477728 
L 141.006222 474.452624 
L 142.570186 474.739058 
L 147.262078 476.028589 
L 148.826042 476.158235 
L 150.390006 476.079872 
L 155.081898 475.482731 
L 156.645861 475.46681 
L 159.773789 475.790961 
L 162.901717 476.126052 
L 164.465681 476.138662 
L 167.593609 475.874575 
L 170.721537 475.631139 
L 173.849465 475.769194 
L 176.977393 476.08062 
L 178.541357 476.143466 
L 181.669285 475.943623 
L 184.797213 475.583823 
L 186.361177 475.514727 
L 189.489105 475.741199 
L 192.617033 476.123547 
L 194.180997 476.168054 
L 195.744961 476.047204 
L 202.000816 475.020717 
L 203.56478 475.099319 
L 206.692708 475.750045 
L 208.256672 476.065253 
L 209.820636 476.155817 
L 211.3846 475.90899 
L 212.948564 475.315985 
L 216.076492 473.668693 
L 217.640456 473.109254 
L 219.20442 473.040979 
L 220.768384 473.547759 
L 223.896312 475.540036 
L 225.460276 476.116137 
L 227.02424 475.603203 
L 228.588204 473.44912 
L 230.152168 469.335701 
L 231.716132 463.304632 
L 233.280096 455.812681 
L 236.408024 440.031689 
L 237.971988 433.956371 
L 239.535952 430.424463 
L 241.099916 430.017616 
L 242.66388 432.816936 
L 244.227843 438.38126 
L 245.791807 445.836437 
L 248.919735 461.88667 
L 250.483699 468.378064 
L 252.047663 472.943636 
L 253.611627 475.438503 
L 255.175591 476.129366 
L 256.739555 475.575487 
L 259.867483 473.394061 
L 261.431447 472.813866 
L 262.995411 472.877376 
L 264.559375 473.49461 
L 267.687303 475.285543 
L 269.251267 475.879158 
L 270.815231 476.058067 
L 272.379195 475.854361 
L 275.507123 474.986809 
L 277.071087 474.722982 
L 278.635051 474.731164 
L 280.199015 474.992146 
L 283.326943 475.762564 
L 284.890907 475.970509 
L 286.45487 475.946488 
L 289.582798 475.397626 
L 291.146762 475.12419 
L 292.710726 475.017281 
L 294.27469 475.123438 
L 298.966582 475.965064 
L 300.530546 476.002841 
L 302.09451 475.808654 
L 306.786402 474.784397 
L 308.350366 474.758242 
L 309.91433 474.994303 
L 313.042258 475.811943 
L 314.606222 476.028037 
L 316.170186 475.915626 
L 317.73415 475.457736 
L 320.862078 474.100567 
L 322.426042 473.684169 
L 323.990006 473.708003 
L 325.55397 474.194179 
L 328.681898 475.717405 
L 330.245861 476.050033 
L 331.809825 475.678303 
L 333.373789 474.525715 
L 336.501717 470.969841 
L 338.065681 469.63144 
L 339.629645 469.312189 
L 341.193609 470.248964 
L 342.757573 472.223428 
L 344.321537 474.513381 
L 345.885501 475.994808 
L 347.449465 475.386125 
L 349.013429 471.581878 
L 350.577393 463.990884 
L 352.141357 452.784066 
L 356.833249 410.880747 
L 358.397213 400.849315 
L 359.961177 395.843798 
L 361.525141 396.683557 
L 363.089105 403.190022 
L 364.653069 414.23564 
L 369.344961 455.359357 
L 370.908925 465.51703 
L 372.472889 472.117698 
L 374.036852 475.217796 
L 375.600816 475.512957 
L 377.16478 474.075086 
L 378.728744 472.044761 
L 380.292708 470.360229 
L 381.856672 469.584486 
L 383.420636 469.857969 
L 384.9846 470.967229 
L 388.112528 473.967239 
L 389.676492 475.039727 
L 391.240456 475.535241 
L 392.80442 475.476364 
L 394.368384 475.033074 
L 397.496312 473.93004 
L 399.060276 473.646323 
L 400.62424 473.64736 
L 402.188204 473.90025 
L 406.880096 475.160868 
L 408.44406 475.406877 
L 410.008024 475.462671 
L 411.571988 475.323034 
L 414.699916 474.625085 
L 417.827843 473.940679 
L 419.391807 473.849088 
L 420.955771 474.002276 
L 422.519735 474.378163 
L 425.647663 475.331543 
L 427.211627 475.561127 
L 428.775591 475.421215 
L 430.339555 474.86921 
L 435.031447 472.279355 
L 436.595411 472.001176 
L 438.159375 472.346518 
L 439.723339 473.247786 
L 441.287303 474.406663 
L 442.851267 475.355957 
L 444.415231 475.595518 
L 445.979195 474.76725 
L 447.543159 472.813837 
L 450.671087 467.183318 
L 452.235051 465.031661 
L 453.799015 464.373304 
L 455.362979 465.595313 
L 456.926943 468.473378 
L 458.490907 472.08734 
L 460.05487 474.935796 
L 461.618834 475.247821 
L 463.182798 471.430189 
L 464.746762 462.54049 
L 466.310726 448.656192 
L 467.87469 431.025422 
L 469.438654 411.935372 
L 471.002618 394.306715 
L 472.566582 381.097583 
L 474.130546 374.65714 
L 475.69451 376.189463 
L 477.258474 385.465972 
L 478.822438 400.863821 
L 481.950366 438.943908 
L 483.51433 455.646237 
L 485.078294 467.773512 
L 486.642258 474.4495 
L 488.206222 476.039049 
L 489.770186 473.907015 
L 492.898114 466.101975 
L 494.462078 463.764828 
L 496.026042 463.612105 
L 497.590006 465.496329 
L 500.717934 471.988872 
L 502.281898 474.555282 
L 503.845861 475.74801 
L 505.409825 475.495984 
L 506.973789 474.207306 
L 508.537753 472.574964 
L 510.101717 471.310236 
L 511.665681 470.89785 
L 513.229645 471.452121 
L 514.793609 472.713771 
L 516.357573 474.17734 
L 517.921537 475.295728 
L 519.485501 475.685359 
L 521.049465 475.259588 
L 522.613429 474.246505 
L 524.177393 473.089759 
L 525.741357 472.272504 
L 527.305321 472.130752 
L 528.869285 472.724842 
L 531.997213 474.955045 
L 533.561177 475.655195 
L 535.125141 475.579169 
L 536.689105 474.678207 
L 539.817033 471.72967 
L 541.380997 470.752514 
L 542.944961 470.696367 
L 544.508925 471.633845 
L 547.636852 474.904459 
L 549.200816 475.861406 
L 550.76478 475.51845 
L 552.328744 473.656378 
L 553.892708 470.561144 
L 555.456672 466.986833 
L 557.020636 463.953934 
L 558.5846 462.434851 
L 560.148564 463.019458 
L 561.712528 465.667093 
L 564.840456 473.599311 
L 566.40442 476.01226 
L 567.968384 475.499561 
L 569.532348 471.291662 
L 571.096312 463.4994 
L 572.660276 453.168966 
L 574.22424 442.086089 
L 575.788204 432.373099 
L 577.352168 425.982042 
L 578.916132 424.218082 
L 580.480096 427.42066 
L 582.04406 434.887133 
L 586.735952 465.433972 
L 588.299916 472.134668 
L 589.86388 475.300048 
L 591.427843 475.112739 
L 592.991807 472.502926 
L 594.555771 468.828853 
L 596.119735 465.479418 
L 597.683699 463.512187 
L 599.247663 463.421505 
L 600.811627 465.087164 
L 602.375591 467.898807 
L 603.939555 471.001697 
L 605.503519 473.579861 
L 607.067483 475.090168 
L 608.631447 475.384257 
L 610.195411 474.695354 
L 613.323339 472.380334 
L 614.887303 471.736712 
L 616.451267 471.769981 
L 618.015231 472.403434 
L 621.143159 474.28186 
L 622.707123 474.877906 
L 624.271087 475.010868 
L 625.835051 474.733726 
L 628.962979 473.805074 
L 630.526943 473.612168 
L 632.090907 473.741586 
L 636.782798 474.756769 
L 638.346762 474.629441 
L 639.910726 474.111382 
L 643.038654 472.510704 
L 644.602618 471.949363 
L 646.166582 471.858176 
L 647.730546 472.31281 
L 649.29451 473.214048 
L 652.422438 475.297477 
L 653.986402 475.878545 
L 655.550366 475.900409 
L 657.11433 475.384156 
L 660.242258 473.616896 
L 661.806222 472.977699 
L 663.370186 472.823661 
L 664.93415 473.2106 
L 666.498114 474.014244 
L 668.062078 474.971597 
L 669.626042 475.766751 
L 671.190006 476.132748 
L 672.75397 475.936478 
L 674.317934 475.219775 
L 677.445861 473.128642 
L 679.009825 472.352615 
L 680.573789 472.070105 
L 682.137753 472.347246 
L 683.701717 473.090197 
L 686.829645 475.053767 
L 688.393609 475.768969 
L 689.957573 476.089176 
L 691.521537 476.006648 
L 694.649465 475.153631 
L 696.213429 474.759778 
L 697.777393 474.589997 
L 699.341357 474.690762 
L 702.469285 475.434805 
L 704.033249 475.817756 
L 705.597213 476.047691 
L 707.161177 476.074784 
L 710.289105 475.675953 
L 713.417033 475.306475 
L 714.980997 475.322086 
L 718.108925 475.704117 
L 721.236852 476.069165 
L 722.800816 476.090738 
L 725.928744 475.838993 
L 729.056672 475.583564 
L 732.1846 475.677693 
L 736.876492 476.069654 
L 740.00442 476.009844 
L 744.696312 475.686029 
L 747.82424 475.738002 
L 752.516132 476.015804 
L 755.64406 475.955637 
L 761.899916 475.591794 
L 766.591807 475.696008 
L 769.719735 475.732678 
L 774.411627 475.530681 
L 779.103519 475.151021 
L 782.231447 474.592761 
L 783.795411 474.137733 
L 786.923339 472.884238 
L 790.051267 471.463311 
L 791.615231 470.846444 
L 793.179195 470.365402 
L 794.743159 470.050991 
L 796.307123 469.911303 
L 797.871087 469.936348 
L 799.435051 470.106469 
L 802.562979 470.802588 
L 805.690907 471.877673 
L 811.946762 474.433254 
L 813.510726 474.898807 
L 815.07469 475.201461 
L 816.638654 475.322201 
L 818.202618 475.268633 
L 821.330546 474.78347 
L 826.022438 473.844849 
L 829.150366 473.451478 
L 832.278294 473.321476 
L 835.406222 473.512694 
L 838.53415 474.092098 
L 844.790006 475.662086 
L 846.35397 475.852165 
L 847.917934 475.89963 
L 851.045861 475.676323 
L 854.173789 475.417317 
L 857.301717 475.499023 
L 863.557573 476.038219 
L 866.685501 475.866964 
L 869.813429 475.574921 
L 872.941357 475.554548 
L 879.197213 476.009369 
L 882.325141 475.809346 
L 885.453069 475.443444 
L 888.580997 475.359567 
L 894.836852 475.701942 
L 896.400816 475.547525 
L 901.092708 474.674752 
L 902.656672 474.579847 
L 904.591406 474.799695 
L 904.591406 474.799695 
" clip-path="url(#pfb5626ae8f)" style="fill: none; stroke: #ffa500; stroke-width: 3; stroke-linecap: square"/>
   </g>
   <g id="line2d_101">
    <path d="M 840.911375 476.36 
L 840.911375 32.84 
" clip-path="url(#pfb5626ae8f)" style="fill: none; stroke-dasharray: 11.1,4.8; stroke-dashoffset: 0; stroke: #000000; stroke-width: 3"/>
   </g>
   <g id="line2d_102">
    <path d="M 778.415375 476.36 
L 778.415375 32.84 
" clip-path="url(#pfb5626ae8f)" style="fill: none; stroke-dasharray: 11.1,4.8; stroke-dashoffset: 0; stroke: #000000; stroke-width: 3"/>
   </g>
   <g id="patch_17">
    <path d="M 90.959375 476.36 
L 90.959375 32.84 
" style="fill: none; stroke: #000000; stroke-linejoin: miter; stroke-linecap: square"/>
   </g>
   <g id="patch_18">
    <path d="M 872.159375 476.36 
L 872.159375 32.84 
" style="fill: none; stroke: #000000; stroke-linejoin: miter; stroke-linecap: square"/>
   </g>
   <g id="patch_19">
    <path d="M 90.959375 476.36 
L 872.159375 476.36 
" style="fill: none; stroke: #000000; stroke-linejoin: miter; stroke-linecap: square"/>
   </g>
   <g id="patch_20">
    <path d="M 90.959375 32.84 
L 872.159375 32.84 
" style="fill: none; stroke: #000000; stroke-linejoin: miter; stroke-linecap: square"/>
   </g>
   <g id="text_14">
    <!-- J=1 -->
    <g style="fill: #ff0000; opacity: 0.8" transform="translate(696.133592 342.587968) scale(0.25 -0.25)">
     <defs>
      <path id="DejaVuSans-4a" d="M 628 4666 
L 1259 4666 
L 1259 325 
Q 1259 -519 939 -900 
Q 619 -1281 -91 -1281 
L -331 -1281 
L -331 -750 
L -134 -750 
Q 284 -750 456 -515 
Q 628 -281 628 325 
L 628 4666 
z
" transform="scale(0.015625)"/>
      <path id="DejaVuSans-3d" d="M 678 2906 
L 4684 2906 
L 4684 2381 
L 678 2381 
L 678 2906 
z
M 678 1631 
L 4684 1631 
L 4684 1100 
L 678 1100 
L 678 1631 
z
" transform="scale(0.015625)"/>
     </defs>
     <use xlink:href="#DejaVuSans-4a"/>
     <use xlink:href="#DejaVuSans-3d" transform="translate(29.492188 0)"/>
     <use xlink:href="#DejaVuSans-31" transform="translate(113.28125 0)"/>
    </g>
   </g>
   <g id="text_15">
    <!-- J=2 -->
    <g style="fill: #ff0000; opacity: 0.8" transform="translate(640.431743 275.548557) scale(0.25 -0.25)">
     <use xlink:href="#DejaVuSans-4a"/>
     <use xlink:href="#DejaVuSans-3d" transform="translate(29.492188 0)"/>
     <use xlink:href="#DejaVuSans-32" transform="translate(113.28125 0)"/>
    </g>
   </g>
   <g id="text_16">
    <!-- J=3 -->
    <g style="fill: #ff0000; opacity: 0.8" transform="translate(556.634861 232.313023) scale(0.25 -0.25)">
     <use xlink:href="#DejaVuSans-4a"/>
     <use xlink:href="#DejaVuSans-3d" transform="translate(29.492188 0)"/>
     <use xlink:href="#DejaVuSans-33" transform="translate(113.28125 0)"/>
    </g>
   </g>
   <g id="text_17">
    <!-- J=4 -->
    <g style="fill: #ff0000; opacity: 0.8" transform="translate(452.452346 215.265765) scale(0.25 -0.25)">
     <use xlink:href="#DejaVuSans-4a"/>
     <use xlink:href="#DejaVuSans-3d" transform="translate(29.492188 0)"/>
     <use xlink:href="#DejaVuSans-34" transform="translate(113.28125 0)"/>
    </g>
   </g>
   <g id="text_18">
    <!-- J=5 -->
    <g style="fill: #ff0000; opacity: 0.8" transform="translate(338.449149 222.156255) scale(0.25 -0.25)">
     <use xlink:href="#DejaVuSans-4a"/>
     <use xlink:href="#DejaVuSans-3d" transform="translate(29.492188 0)"/>
     <use xlink:href="#DejaVuSans-35" transform="translate(113.28125 0)"/>
    </g>
   </g>
   <g id="text_19">
    <!-- J=6 -->
    <g style="fill: #ff0000; opacity: 0.8" transform="translate(218.363466 247.313309) scale(0.25 -0.25)">
     <defs>
      <path id="DejaVuSans-36" d="M 2113 2584 
Q 1688 2584 1439 2293 
Q 1191 2003 1191 1497 
Q 1191 994 1439 701 
Q 1688 409 2113 409 
Q 2538 409 2786 701 
Q 3034 994 3034 1497 
Q 3034 2003 2786 2293 
Q 2538 2584 2113 2584 
z
M 3366 4563 
L 3366 3988 
Q 3128 4100 2886 4159 
Q 2644 4219 2406 4219 
Q 1781 4219 1451 3797 
Q 1122 3375 1075 2522 
Q 1259 2794 1537 2939 
Q 1816 3084 2150 3084 
Q 2853 3084 3261 2657 
Q 3669 2231 3669 1497 
Q 3669 778 3244 343 
Q 2819 -91 2113 -91 
Q 1303 -91 875 529 
Q 447 1150 447 2328 
Q 447 3434 972 4092 
Q 1497 4750 2381 4750 
Q 2619 4750 2861 4703 
Q 3103 4656 3366 4563 
z
" transform="scale(0.015625)"/>
     </defs>
     <use xlink:href="#DejaVuSans-4a"/>
     <use xlink:href="#DejaVuSans-3d" transform="translate(29.492188 0)"/>
     <use xlink:href="#DejaVuSans-36" transform="translate(113.28125 0)"/>
    </g>
   </g>
   <g id="text_20">
    <!-- J=7 -->
    <g style="fill: #ff0000; opacity: 0.8" transform="translate(96.504828 283.448178) scale(0.25 -0.25)">
     <defs>
      <path id="DejaVuSans-37" d="M 525 4666 
L 3525 4666 
L 3525 4397 
L 1831 0 
L 1172 0 
L 2766 4134 
L 525 4134 
L 525 4666 
z
" transform="scale(0.015625)"/>
     </defs>
     <use xlink:href="#DejaVuSans-4a"/>
     <use xlink:href="#DejaVuSans-3d" transform="translate(29.492188 0)"/>
     <use xlink:href="#DejaVuSans-37" transform="translate(113.28125 0)"/>
    </g>
   </g>
   <g id="text_21">
    <!-- CaH$^+$ hyperfine spectrum at B=3.6 G -->
    <g transform="translate(216.259375 26.84) scale(0.28 -0.28)">
     <defs>
      <path id="DejaVuSans-43" d="M 4122 4306 
L 4122 3641 
Q 3803 3938 3442 4084 
Q 3081 4231 2675 4231 
Q 1875 4231 1450 3742 
Q 1025 3253 1025 2328 
Q 1025 1406 1450 917 
Q 1875 428 2675 428 
Q 3081 428 3442 575 
Q 3803 722 4122 1019 
L 4122 359 
Q 3791 134 3420 21 
Q 3050 -91 2638 -91 
Q 1578 -91 968 557 
Q 359 1206 359 2328 
Q 359 3453 968 4101 
Q 1578 4750 2638 4750 
Q 3056 4750 3426 4639 
Q 3797 4528 4122 4306 
z
" transform="scale(0.015625)"/>
      <path id="DejaVuSans-2b" d="M 2944 4013 
L 2944 2272 
L 4684 2272 
L 4684 1741 
L 2944 1741 
L 2944 0 
L 2419 0 
L 2419 1741 
L 678 1741 
L 678 2272 
L 2419 2272 
L 2419 4013 
L 2944 4013 
z
" transform="scale(0.015625)"/>
      <path id="DejaVuSans-68" d="M 3513 2113 
L 3513 0 
L 2938 0 
L 2938 2094 
Q 2938 2591 2744 2837 
Q 2550 3084 2163 3084 
Q 1697 3084 1428 2787 
Q 1159 2491 1159 1978 
L 1159 0 
L 581 0 
L 581 4863 
L 1159 4863 
L 1159 2956 
Q 1366 3272 1645 3428 
Q 1925 3584 2291 3584 
Q 2894 3584 3203 3211 
Q 3513 2838 3513 2113 
z
" transform="scale(0.015625)"/>
      <path id="DejaVuSans-66" d="M 2375 4863 
L 2375 4384 
L 1825 4384 
Q 1516 4384 1395 4259 
Q 1275 4134 1275 3809 
L 1275 3500 
L 2222 3500 
L 2222 3053 
L 1275 3053 
L 1275 0 
L 697 0 
L 697 3053 
L 147 3053 
L 147 3500 
L 697 3500 
L 697 3744 
Q 697 4328 969 4595 
Q 1241 4863 1831 4863 
L 2375 4863 
z
" transform="scale(0.015625)"/>
      <path id="DejaVuSans-73" d="M 2834 3397 
L 2834 2853 
Q 2591 2978 2328 3040 
Q 2066 3103 1784 3103 
Q 1356 3103 1142 2972 
Q 928 2841 928 2578 
Q 928 2378 1081 2264 
Q 1234 2150 1697 2047 
L 1894 2003 
Q 2506 1872 2764 1633 
Q 3022 1394 3022 966 
Q 3022 478 2636 193 
Q 2250 -91 1575 -91 
Q 1294 -91 989 -36 
Q 684 19 347 128 
L 347 722 
Q 666 556 975 473 
Q 1284 391 1588 391 
Q 1994 391 2212 530 
Q 2431 669 2431 922 
Q 2431 1156 2273 1281 
Q 2116 1406 1581 1522 
L 1381 1569 
Q 847 1681 609 1914 
Q 372 2147 372 2553 
Q 372 3047 722 3315 
Q 1072 3584 1716 3584 
Q 2034 3584 2315 3537 
Q 2597 3491 2834 3397 
z
" transform="scale(0.015625)"/>
      <path id="DejaVuSans-6d" d="M 3328 2828 
Q 3544 3216 3844 3400 
Q 4144 3584 4550 3584 
Q 5097 3584 5394 3201 
Q 5691 2819 5691 2113 
L 5691 0 
L 5113 0 
L 5113 2094 
Q 5113 2597 4934 2840 
Q 4756 3084 4391 3084 
Q 3944 3084 3684 2787 
Q 3425 2491 3425 1978 
L 3425 0 
L 2847 0 
L 2847 2094 
Q 2847 2600 2669 2842 
Q 2491 3084 2119 3084 
Q 1678 3084 1418 2786 
Q 1159 2488 1159 1978 
L 1159 0 
L 581 0 
L 581 3500 
L 1159 3500 
L 1159 2956 
Q 1356 3278 1631 3431 
Q 1906 3584 2284 3584 
Q 2666 3584 2933 3390 
Q 3200 3197 3328 2828 
z
" transform="scale(0.015625)"/>
      <path id="DejaVuSans-42" d="M 1259 2228 
L 1259 519 
L 2272 519 
Q 2781 519 3026 730 
Q 3272 941 3272 1375 
Q 3272 1813 3026 2020 
Q 2781 2228 2272 2228 
L 1259 2228 
z
M 1259 4147 
L 1259 2741 
L 2194 2741 
Q 2656 2741 2882 2914 
Q 3109 3088 3109 3444 
Q 3109 3797 2882 3972 
Q 2656 4147 2194 4147 
L 1259 4147 
z
M 628 4666 
L 2241 4666 
Q 2963 4666 3353 4366 
Q 3744 4066 3744 3513 
Q 3744 3084 3544 2831 
Q 3344 2578 2956 2516 
Q 3422 2416 3680 2098 
Q 3938 1781 3938 1306 
Q 3938 681 3513 340 
Q 3088 0 2303 0 
L 628 0 
L 628 4666 
z
" transform="scale(0.015625)"/>
      <path id="DejaVuSans-47" d="M 3809 666 
L 3809 1919 
L 2778 1919 
L 2778 2438 
L 4434 2438 
L 4434 434 
Q 4069 175 3628 42 
Q 3188 -91 2688 -91 
Q 1594 -91 976 548 
Q 359 1188 359 2328 
Q 359 3472 976 4111 
Q 1594 4750 2688 4750 
Q 3144 4750 3555 4637 
Q 3966 4525 4313 4306 
L 4313 3634 
Q 3963 3931 3569 4081 
Q 3175 4231 2741 4231 
Q 1884 4231 1454 3753 
Q 1025 3275 1025 2328 
Q 1025 1384 1454 906 
Q 1884 428 2741 428 
Q 3075 428 3337 486 
Q 3600 544 3809 666 
z
" transform="scale(0.015625)"/>
     </defs>
     <use xlink:href="#DejaVuSans-43" transform="translate(0 0.826562)"/>
     <use xlink:href="#DejaVuSans-61" transform="translate(69.824219 0.826562)"/>
     <use xlink:href="#DejaVuSans-48" transform="translate(131.103516 0.826562)"/>
     <use xlink:href="#DejaVuSans-2b" transform="translate(220.893555 39.107812) scale(0.7)"/>
     <use xlink:href="#DejaVuSans-20" transform="translate(295.917969 0.826562)"/>
     <use xlink:href="#DejaVuSans-68" transform="translate(327.705078 0.826562)"/>
     <use xlink:href="#DejaVuSans-79" transform="translate(391.083984 0.826562)"/>
     <use xlink:href="#DejaVuSans-70" transform="translate(450.263672 0.826562)"/>
     <use xlink:href="#DejaVuSans-65" transform="translate(513.740234 0.826562)"/>
     <use xlink:href="#DejaVuSans-72" transform="translate(575.263672 0.826562)"/>
     <use xlink:href="#DejaVuSans-66" transform="translate(616.376953 0.826562)"/>
     <use xlink:href="#DejaVuSans-69" transform="translate(651.582031 0.826562)"/>
     <use xlink:href="#DejaVuSans-6e" transform="translate(679.365234 0.826562)"/>
     <use xlink:href="#DejaVuSans-65" transform="translate(742.744141 0.826562)"/>
     <use xlink:href="#DejaVuSans-20" transform="translate(804.267578 0.826562)"/>
     <use xlink:href="#DejaVuSans-73" transform="translate(836.054688 0.826562)"/>
     <use xlink:href="#DejaVuSans-70" transform="translate(888.154297 0.826562)"/>
     <use xlink:href="#DejaVuSans-65" transform="translate(951.630859 0.826562)"/>
     <use xlink:href="#DejaVuSans-63" transform="translate(1013.154297 0.826562)"/>
     <use xlink:href="#DejaVuSans-74" transform="translate(1068.134766 0.826562)"/>
     <use xlink:href="#DejaVuSans-72" transform="translate(1107.34375 0.826562)"/>
     <use xlink:href="#DejaVuSans-75" transform="translate(1148.457031 0.826562)"/>
     <use xlink:href="#DejaVuSans-6d" transform="translate(1211.835938 0.826562)"/>
     <use xlink:href="#DejaVuSans-20" transform="translate(1309.248047 0.826562)"/>
     <use xlink:href="#DejaVuSans-61" transform="translate(1341.035156 0.826562)"/>
     <use xlink:href="#DejaVuSans-74" transform="translate(1402.314453 0.826562)"/>
     <use xlink:href="#DejaVuSans-20" transform="translate(1441.523438 0.826562)"/>
     <use xlink:href="#DejaVuSans-42" transform="translate(1473.310547 0.826562)"/>
     <use xlink:href="#DejaVuSans-3d" transform="translate(1541.914062 0.826562)"/>
     <use xlink:href="#DejaVuSans-33" transform="translate(1625.703125 0.826562)"/>
     <use xlink:href="#DejaVuSans-2e" transform="translate(1689.326172 0.826562)"/>
     <use xlink:href="#DejaVuSans-36" transform="translate(1721.113281 0.826562)"/>
     <use xlink:href="#DejaVuSans-20" transform="translate(1784.736328 0.826562)"/>
     <use xlink:href="#DejaVuSans-47" transform="translate(1816.523438 0.826562)"/>
    </g>
   </g>
   <g id="legend_1">
    <g id="line2d_103">
     <path d="M 540.175 65.586094 
L 565.175 65.586094 
L 590.175 65.586094 
" style="fill: none; stroke: #0000ff; stroke-width: 3; stroke-linecap: square"/>
    </g>
    <g id="text_22">
     <!-- w/ imperfections -->
     <g transform="translate(610.175 74.336094) scale(0.25 -0.25)">
      <defs>
       <path id="DejaVuSans-77" d="M 269 3500 
L 844 3500 
L 1563 769 
L 2278 3500 
L 2956 3500 
L 3675 769 
L 4391 3500 
L 4966 3500 
L 4050 0 
L 3372 0 
L 2619 2869 
L 1863 0 
L 1184 0 
L 269 3500 
z
" transform="scale(0.015625)"/>
       <path id="DejaVuSans-2f" d="M 1625 4666 
L 2156 4666 
L 531 -594 
L 0 -594 
L 1625 4666 
z
" transform="scale(0.015625)"/>
      </defs>
      <use xlink:href="#DejaVuSans-77"/>
      <use xlink:href="#DejaVuSans-2f" transform="translate(81.787109 0)"/>
      <use xlink:href="#DejaVuSans-20" transform="translate(115.478516 0)"/>
      <use xlink:href="#DejaVuSans-69" transform="translate(147.265625 0)"/>
      <use xlink:href="#DejaVuSans-6d" transform="translate(175.048828 0)"/>
      <use xlink:href="#DejaVuSans-70" transform="translate(272.460938 0)"/>
      <use xlink:href="#DejaVuSans-65" transform="translate(335.9375 0)"/>
      <use xlink:href="#DejaVuSans-72" transform="translate(397.460938 0)"/>
      <use xlink:href="#DejaVuSans-66" transform="translate(438.574219 0)"/>
      <use xlink:href="#DejaVuSans-65" transform="translate(473.779297 0)"/>
      <use xlink:href="#DejaVuSans-63" transform="translate(535.302734 0)"/>
      <use xlink:href="#DejaVuSans-74" transform="translate(590.283203 0)"/>
      <use xlink:href="#DejaVuSans-69" transform="translate(629.492188 0)"/>
      <use xlink:href="#DejaVuSans-6f" transform="translate(657.275391 0)"/>
      <use xlink:href="#DejaVuSans-6e" transform="translate(718.457031 0)"/>
      <use xlink:href="#DejaVuSans-73" transform="translate(781.835938 0)"/>
     </g>
    </g>
    <g id="line2d_104">
     <path d="M 540.175 102.281406 
L 565.175 102.281406 
L 590.175 102.281406 
" style="fill: none; stroke: #ffa500; stroke-width: 3; stroke-linecap: square"/>
    </g>
    <g id="text_23">
     <!-- w/o imperfections -->
     <g transform="translate(610.175 111.031406) scale(0.25 -0.25)">
      <use xlink:href="#DejaVuSans-77"/>
      <use xlink:href="#DejaVuSans-2f" transform="translate(81.787109 0)"/>
      <use xlink:href="#DejaVuSans-6f" transform="translate(115.478516 0)"/>
      <use xlink:href="#DejaVuSans-20" transform="translate(176.660156 0)"/>
      <use xlink:href="#DejaVuSans-69" transform="translate(208.447266 0)"/>
      <use xlink:href="#DejaVuSans-6d" transform="translate(236.230469 0)"/>
      <use xlink:href="#DejaVuSans-70" transform="translate(333.642578 0)"/>
      <use xlink:href="#DejaVuSans-65" transform="translate(397.119141 0)"/>
      <use xlink:href="#DejaVuSans-72" transform="translate(458.642578 0)"/>
      <use xlink:href="#DejaVuSans-66" transform="translate(499.755859 0)"/>
      <use xlink:href="#DejaVuSans-65" transform="translate(534.960938 0)"/>
      <use xlink:href="#DejaVuSans-63" transform="translate(596.484375 0)"/>
      <use xlink:href="#DejaVuSans-74" transform="translate(651.464844 0)"/>
      <use xlink:href="#DejaVuSans-69" transform="translate(690.673828 0)"/>
      <use xlink:href="#DejaVuSans-6f" transform="translate(718.457031 0)"/>
      <use xlink:href="#DejaVuSans-6e" transform="translate(779.638672 0)"/>
      <use xlink:href="#DejaVuSans-73" transform="translate(843.017578 0)"/>
     </g>
    </g>
    <g id="line2d_105">
     <path d="M 540.175 138.976719 
L 565.175 138.976719 
L 590.175 138.976719 
" style="fill: none; stroke-dasharray: 11.1,4.8; stroke-dashoffset: 0; stroke: #000000; stroke-width: 3"/>
    </g>
    <g id="text_24">
     <!-- Pump freq -2.0 kHz -->
     <g transform="translate(610.175 147.726719) scale(0.25 -0.25)">
      <defs>
       <path id="DejaVuSans-50" d="M 1259 4147 
L 1259 2394 
L 2053 2394 
Q 2494 2394 2734 2622 
Q 2975 2850 2975 3272 
Q 2975 3691 2734 3919 
Q 2494 4147 2053 4147 
L 1259 4147 
z
M 628 4666 
L 2053 4666 
Q 2838 4666 3239 4311 
Q 3641 3956 3641 3272 
Q 3641 2581 3239 2228 
Q 2838 1875 2053 1875 
L 1259 1875 
L 1259 0 
L 628 0 
L 628 4666 
z
" transform="scale(0.015625)"/>
       <path id="DejaVuSans-2d" d="M 313 2009 
L 1997 2009 
L 1997 1497 
L 313 1497 
L 313 2009 
z
" transform="scale(0.015625)"/>
       <path id="DejaVuSans-6b" d="M 581 4863 
L 1159 4863 
L 1159 1991 
L 2875 3500 
L 3609 3500 
L 1753 1863 
L 3688 0 
L 2938 0 
L 1159 1709 
L 1159 0 
L 581 0 
L 581 4863 
z
" transform="scale(0.015625)"/>
      </defs>
      <use xlink:href="#DejaVuSans-50"/>
      <use xlink:href="#DejaVuSans-75" transform="translate(58.552734 0)"/>
      <use xlink:href="#DejaVuSans-6d" transform="translate(121.931641 0)"/>
      <use xlink:href="#DejaVuSans-70" transform="translate(219.34375 0)"/>
      <use xlink:href="#DejaVuSans-20" transform="translate(282.820312 0)"/>
      <use xlink:href="#DejaVuSans-66" transform="translate(314.607422 0)"/>
      <use xlink:href="#DejaVuSans-72" transform="translate(349.8125 0)"/>
      <use xlink:href="#DejaVuSans-65" transform="translate(388.675781 0)"/>
      <use xlink:href="#DejaVuSans-71" transform="translate(450.199219 0)"/>
      <use xlink:href="#DejaVuSans-20" transform="translate(513.675781 0)"/>
      <use xlink:href="#DejaVuSans-2d" transform="translate(545.462891 0)"/>
      <use xlink:href="#DejaVuSans-32" transform="translate(581.546875 0)"/>
      <use xlink:href="#DejaVuSans-2e" transform="translate(645.169922 0)"/>
      <use xlink:href="#DejaVuSans-30" transform="translate(676.957031 0)"/>
      <use xlink:href="#DejaVuSans-20" transform="translate(740.580078 0)"/>
      <use xlink:href="#DejaVuSans-6b" transform="translate(772.367188 0)"/>
      <use xlink:href="#DejaVuSans-48" transform="translate(830.277344 0)"/>
      <use xlink:href="#DejaVuSans-7a" transform="translate(905.472656 0)"/>
     </g>
    </g>
    <g id="line2d_106">
     <path d="M 540.175 175.672031 
L 565.175 175.672031 
L 590.175 175.672031 
" style="fill: none; stroke-dasharray: 11.1,4.8; stroke-dashoffset: 0; stroke: #000000; stroke-width: 3"/>
    </g>
    <g id="text_25">
     <!-- Pump freq -6.0 kHz -->
     <g transform="translate(610.175 184.422031) scale(0.25 -0.25)">
      <use xlink:href="#DejaVuSans-50"/>
      <use xlink:href="#DejaVuSans-75" transform="translate(58.552734 0)"/>
      <use xlink:href="#DejaVuSans-6d" transform="translate(121.931641 0)"/>
      <use xlink:href="#DejaVuSans-70" transform="translate(219.34375 0)"/>
      <use xlink:href="#DejaVuSans-20" transform="translate(282.820312 0)"/>
      <use xlink:href="#DejaVuSans-66" transform="translate(314.607422 0)"/>
      <use xlink:href="#DejaVuSans-72" transform="translate(349.8125 0)"/>
      <use xlink:href="#DejaVuSans-65" transform="translate(388.675781 0)"/>
      <use xlink:href="#DejaVuSans-71" transform="translate(450.199219 0)"/>
      <use xlink:href="#DejaVuSans-20" transform="translate(513.675781 0)"/>
      <use xlink:href="#DejaVuSans-2d" transform="translate(545.462891 0)"/>
      <use xlink:href="#DejaVuSans-36" transform="translate(581.546875 0)"/>
      <use xlink:href="#DejaVuSans-2e" transform="translate(645.169922 0)"/>
      <use xlink:href="#DejaVuSans-30" transform="translate(676.957031 0)"/>
      <use xlink:href="#DejaVuSans-20" transform="translate(740.580078 0)"/>
      <use xlink:href="#DejaVuSans-6b" transform="translate(772.367188 0)"/>
      <use xlink:href="#DejaVuSans-48" transform="translate(830.277344 0)"/>
      <use xlink:href="#DejaVuSans-7a" transform="translate(905.472656 0)"/>
     </g>
    </g>
    <g id="patch_21">
     <path d="M 540.175 221.117344 
L 590.175 221.117344 
L 590.175 203.617344 
L 540.175 203.617344 
z
" style="fill: #ff0000; opacity: 0.1"/>
    </g>
    <g id="text_26">
     <!-- Sign. Trans. -->
     <g transform="translate(610.175 221.117344) scale(0.25 -0.25)">
      <defs>
       <path id="DejaVuSans-53" d="M 3425 4513 
L 3425 3897 
Q 3066 4069 2747 4153 
Q 2428 4238 2131 4238 
Q 1616 4238 1336 4038 
Q 1056 3838 1056 3469 
Q 1056 3159 1242 3001 
Q 1428 2844 1947 2747 
L 2328 2669 
Q 3034 2534 3370 2195 
Q 3706 1856 3706 1288 
Q 3706 609 3251 259 
Q 2797 -91 1919 -91 
Q 1588 -91 1214 -16 
Q 841 59 441 206 
L 441 856 
Q 825 641 1194 531 
Q 1563 422 1919 422 
Q 2459 422 2753 634 
Q 3047 847 3047 1241 
Q 3047 1584 2836 1778 
Q 2625 1972 2144 2069 
L 1759 2144 
Q 1053 2284 737 2584 
Q 422 2884 422 3419 
Q 422 4038 858 4394 
Q 1294 4750 2059 4750 
Q 2388 4750 2728 4690 
Q 3069 4631 3425 4513 
z
" transform="scale(0.015625)"/>
       <path id="DejaVuSans-67" d="M 2906 1791 
Q 2906 2416 2648 2759 
Q 2391 3103 1925 3103 
Q 1463 3103 1205 2759 
Q 947 2416 947 1791 
Q 947 1169 1205 825 
Q 1463 481 1925 481 
Q 2391 481 2648 825 
Q 2906 1169 2906 1791 
z
M 3481 434 
Q 3481 -459 3084 -895 
Q 2688 -1331 1869 -1331 
Q 1566 -1331 1297 -1286 
Q 1028 -1241 775 -1147 
L 775 -588 
Q 1028 -725 1275 -790 
Q 1522 -856 1778 -856 
Q 2344 -856 2625 -561 
Q 2906 -266 2906 331 
L 2906 616 
Q 2728 306 2450 153 
Q 2172 0 1784 0 
Q 1141 0 747 490 
Q 353 981 353 1791 
Q 353 2603 747 3093 
Q 1141 3584 1784 3584 
Q 2172 3584 2450 3431 
Q 2728 3278 2906 2969 
L 2906 3500 
L 3481 3500 
L 3481 434 
z
" transform="scale(0.015625)"/>
       <path id="DejaVuSans-54" d="M -19 4666 
L 3928 4666 
L 3928 4134 
L 2272 4134 
L 2272 0 
L 1638 0 
L 1638 4134 
L -19 4134 
L -19 4666 
z
" transform="scale(0.015625)"/>
      </defs>
      <use xlink:href="#DejaVuSans-53"/>
      <use xlink:href="#DejaVuSans-69" transform="translate(63.476562 0)"/>
      <use xlink:href="#DejaVuSans-67" transform="translate(91.259766 0)"/>
      <use xlink:href="#DejaVuSans-6e" transform="translate(154.736328 0)"/>
      <use xlink:href="#DejaVuSans-2e" transform="translate(218.115234 0)"/>
      <use xlink:href="#DejaVuSans-20" transform="translate(249.902344 0)"/>
      <use xlink:href="#DejaVuSans-54" transform="translate(281.689453 0)"/>
      <use xlink:href="#DejaVuSans-72" transform="translate(328.023438 0)"/>
      <use xlink:href="#DejaVuSans-61" transform="translate(369.136719 0)"/>
      <use xlink:href="#DejaVuSans-6e" transform="translate(430.416016 0)"/>
      <use xlink:href="#DejaVuSans-73" transform="translate(493.794922 0)"/>
      <use xlink:href="#DejaVuSans-2e" transform="translate(545.894531 0)"/>
     </g>
    </g>
   </g>
  </g>
 </g>
 <defs>
  <clipPath id="pfb5626ae8f">
   <rect x="90.959375" y="32.84" width="781.2" height="443.52"/>
  </clipPath>
 </defs>
</svg>
