<?xml version="1.0" encoding="utf-8" standalone="no"?>
<!DOCTYPE svg PUBLIC "-//W3C//DTD SVG 1.1//EN"
  "http://www.w3.org/Graphics/SVG/1.1/DTD/svg11.dtd">
<svg xmlns:xlink="http://www.w3.org/1999/xlink" width="875.759375pt" height="535.850625pt" viewBox="0 0 875.759375 535.850625" xmlns="http://www.w3.org/2000/svg" version="1.1">
 <metadata>
  <rdf:RDF xmlns:dc="http://purl.org/dc/elements/1.1/" xmlns:cc="http://creativecommons.org/ns#" xmlns:rdf="http://www.w3.org/1999/02/22-rdf-syntax-ns#">
   <cc:Work>
    <dc:type rdf:resource="http://purl.org/dc/dcmitype/StillImage"/>
    <dc:date>2026-02-19T11:50:22.436749</dc:date>
    <dc:format>image/svg+xml</dc:format>
    <dc:creator>
     <cc:Agent>
      <dc:title>Matplotlib v3.10.3, https://matplotlib.org/</dc:title>
     </cc:Agent>
    </dc:creator>
   </cc:Work>
  </rdf:RDF>
 </metadata>
 <defs>
  <style type="text/css">*{stroke-linejoin: round; stroke-linecap: butt}</style>
 </defs>
 <g id="figure_1">
  <g id="patch_1">
   <path d="M 0 535.850625 
L 875.759375 535.850625 
L 875.759375 0 
L 0 0 
z
" style="fill: #ffffff"/>
  </g>
  <g id="axes_1">
   <g id="patch_2">
    <path d="M 90.959375 476.36 
L 872.159375 476.36 
L 872.159375 32.84 
L 90.959375 32.84 
z
" style="fill: #ffffff"/>
   </g>
   <g id="patch_3">
    <path d="M 390.324704 476.36 
L 429.384704 476.36 
L 429.384704 458.249028 
L 390.324704 458.249028 
z
" clip-path="url(#p1a2348dc5e)" style="fill: #ff0000; opacity: 0.1"/>
   </g>
   <g id="patch_4">
    <path d="M 382.322646 476.36 
L 421.382646 476.36 
L 421.382646 446.386619 
L 382.322646 446.386619 
z
" clip-path="url(#p1a2348dc5e)" style="fill: #ff0000; opacity: 0.1"/>
   </g>
   <g id="patch_5">
    <path d="M 372.281341 476.36 
L 411.341341 476.36 
L 411.341341 434.837679 
L 372.281341 434.837679 
z
" clip-path="url(#p1a2348dc5e)" style="fill: #ff0000; opacity: 0.1"/>
   </g>
   <g id="patch_6">
    <path d="M 359.426777 476.36 
L 398.486777 476.36 
L 398.486777 423.719919 
L 359.426777 423.719919 
z
" clip-path="url(#p1a2348dc5e)" style="fill: #ff0000; opacity: 0.1"/>
   </g>
   <g id="patch_7">
    <path d="M 342.630243 476.36 
L 381.690243 476.36 
L 381.690243 413.143593 
L 342.630243 413.143593 
z
" clip-path="url(#p1a2348dc5e)" style="fill: #ff0000; opacity: 0.1"/>
   </g>
   <g id="patch_8">
    <path d="M 320.275651 476.36 
L 359.335651 476.36 
L 359.335651 403.20969 
L 320.275651 403.20969 
z
" clip-path="url(#p1a2348dc5e)" style="fill: #ff0000; opacity: 0.1"/>
   </g>
   <g id="patch_9">
    <path d="M 290.186288 476.36 
L 329.246288 476.36 
L 329.246288 394.008334 
L 290.186288 394.008334 
z
" clip-path="url(#p1a2348dc5e)" style="fill: #ff0000; opacity: 0.1"/>
   </g>
   <g id="patch_10">
    <path d="M 249.819814 476.36 
L 288.879814 476.36 
L 288.879814 385.617449 
L 249.819814 385.617449 
z
" clip-path="url(#p1a2348dc5e)" style="fill: #ff0000; opacity: 0.1"/>
   </g>
   <g id="patch_11">
    <path d="M 196.988994 476.36 
L 236.048994 476.36 
L 236.048994 378.101709 
L 196.988994 378.101709 
z
" clip-path="url(#p1a2348dc5e)" style="fill: #ff0000; opacity: 0.1"/>
   </g>
   <g id="patch_12">
    <path d="M 130.92157 476.36 
L 169.98157 476.36 
L 169.98157 371.51178 
L 130.92157 371.51178 
z
" clip-path="url(#p1a2348dc5e)" style="fill: #ff0000; opacity: 0.1"/>
   </g>
   <g id="patch_13">
    <path d="M 52.729881 476.36 
L 91.789881 476.36 
L 91.789881 365.883889 
L 52.729881 365.883889 
z
" clip-path="url(#p1a2348dc5e)" style="fill: #ff0000; opacity: 0.1"/>
   </g>
   <g id="patch_14">
    <path d="M -35.249961 476.36 
L 3.810039 476.36 
L 3.810039 361.239691 
L -35.249961 361.239691 
z
" clip-path="url(#p1a2348dc5e)" style="fill: #ff0000; opacity: 0.1"/>
   </g>
   <g id="patch_15">
    <path d="M -130.508102 476.36 
L -91.448102 476.36 
L -91.448102 357.586458 
L -130.508102 357.586458 
z
" clip-path="url(#p1a2348dc5e)" style="fill: #ff0000; opacity: 0.1"/>
   </g>
   <g id="patch_16">
    <path d="M -230.972222 476.36 
L -191.912222 476.36 
L -191.912222 354.917537 
L -230.972222 354.917537 
z
" clip-path="url(#p1a2348dc5e)" style="fill: #ff0000; opacity: 0.1"/>
   </g>
   <g id="patch_17">
    <path d="M -335.128863 476.36 
L -296.068863 476.36 
L -296.068863 353.213094 
L -335.128863 353.213094 
z
" clip-path="url(#p1a2348dc5e)" style="fill: #ff0000; opacity: 0.1"/>
   </g>
   <g id="patch_18">
    <path d="M -441.92729 476.36 
L -402.86729 476.36 
L -402.86729 352.441083 
L -441.92729 352.441083 
z
" clip-path="url(#p1a2348dc5e)" style="fill: #ff0000; opacity: 0.1"/>
   </g>
   <g id="patch_19">
    <path d="M -550.647392 476.36 
L -511.587392 476.36 
L -511.587392 352.55842 
L -550.647392 352.55842 
z
" clip-path="url(#p1a2348dc5e)" style="fill: #ff0000; opacity: 0.1"/>
   </g>
   <g id="patch_20">
    <path d="M -660.792745 476.36 
L -621.732745 476.36 
L -621.732745 353.512321 
L -660.792745 353.512321 
z
" clip-path="url(#p1a2348dc5e)" style="fill: #ff0000; opacity: 0.1"/>
   </g>
   <g id="patch_21">
    <path d="M -772.016117 476.36 
L -732.956117 476.36 
L -732.956117 355.241762 
L -772.016117 355.241762 
z
" clip-path="url(#p1a2348dc5e)" style="fill: #ff0000; opacity: 0.1"/>
   </g>
   <g id="patch_22">
    <path d="M -884.07022 476.36 
L -845.01022 476.36 
L -845.01022 357.679023 
L -884.07022 357.679023 
z
" clip-path="url(#p1a2348dc5e)" style="fill: #ff0000; opacity: 0.1"/>
   </g>
   <g id="patch_23">
    <path d="M -996.775604 476.36 
L -957.715604 476.36 
L -957.715604 360.751265 
L -996.775604 360.751265 
z
" clip-path="url(#p1a2348dc5e)" style="fill: #ff0000; opacity: 0.1"/>
   </g>
   <g id="patch_24">
    <path d="M -1109.999635 476.36 
L -1070.939635 476.36 
L -1070.939635 364.382114 
L -1109.999635 364.382114 
z
" clip-path="url(#p1a2348dc5e)" style="fill: #ff0000; opacity: 0.1"/>
   </g>
   <g id="patch_25">
    <path d="M -1223.642569 476.36 
L -1184.582569 476.36 
L -1184.582569 368.493205 
L -1223.642569 368.493205 
z
" clip-path="url(#p1a2348dc5e)" style="fill: #ff0000; opacity: 0.1"/>
   </g>
   <g id="patch_26">
    <path d="M -1337.628185 476.36 
L -1298.568185 476.36 
L -1298.568185 373.005644 
L -1337.628185 373.005644 
z
" clip-path="url(#p1a2348dc5e)" style="fill: #ff0000; opacity: 0.1"/>
   </g>
   <g id="patch_27">
    <path d="M -1451.897371 476.36 
L -1412.837371 476.36 
L -1412.837371 377.841389 
L -1451.897371 377.841389 
z
" clip-path="url(#p1a2348dc5e)" style="fill: #ff0000; opacity: 0.1"/>
   </g>
   <g id="patch_28">
    <path d="M -1566.403658 476.36 
L -1527.343658 476.36 
L -1527.343658 382.924483 
L -1566.403658 382.924483 
z
" clip-path="url(#p1a2348dc5e)" style="fill: #ff0000; opacity: 0.1"/>
   </g>
   <g id="patch_29">
    <path d="M -1681.110064 476.36 
L -1642.050064 476.36 
L -1642.050064 388.182162 
L -1681.110064 388.182162 
z
" clip-path="url(#p1a2348dc5e)" style="fill: #ff0000; opacity: 0.1"/>
   </g>
   <g id="patch_30">
    <path d="M -1795.986823 476.36 
L -1756.926823 476.36 
L -1756.926823 393.54579 
L -1795.986823 393.54579 
z
" clip-path="url(#p1a2348dc5e)" style="fill: #ff0000; opacity: 0.1"/>
   </g>
   <g id="patch_31">
    <path d="M -1911.009726 476.36 
L -1871.949726 476.36 
L -1871.949726 398.951637 
L -1911.009726 398.951637 
z
" clip-path="url(#p1a2348dc5e)" style="fill: #ff0000; opacity: 0.1"/>
   </g>
   <g id="patch_32">
    <path d="M -2026.158897 476.36 
L -1987.098897 476.36 
L -1987.098897 404.34148 
L -2026.158897 404.34148 
z
" clip-path="url(#p1a2348dc5e)" style="fill: #ff0000; opacity: 0.1"/>
   </g>
   <g id="patch_33">
    <path d="M -2141.417874 476.36 
L -2102.357874 476.36 
L -2102.357874 409.663045 
L -2141.417874 409.663045 
z
" clip-path="url(#p1a2348dc5e)" style="fill: #ff0000; opacity: 0.1"/>
   </g>
   <g id="patch_34">
    <path d="M -2256.772913 476.36 
L -2217.712913 476.36 
L -2217.712913 414.870279 
L -2256.772913 414.870279 
z
" clip-path="url(#p1a2348dc5e)" style="fill: #ff0000; opacity: 0.1"/>
   </g>
   <g id="patch_35">
    <path d="M -2372.212456 476.36 
L -2333.152456 476.36 
L -2333.152456 419.92347 
L -2372.212456 419.92347 
z
" clip-path="url(#p1a2348dc5e)" style="fill: #ff0000; opacity: 0.1"/>
   </g>
   <g id="patch_36">
    <path d="M -2487.726711 476.36 
L -2448.666711 476.36 
L -2448.666711 424.789239 
L -2487.726711 424.789239 
z
" clip-path="url(#p1a2348dc5e)" style="fill: #ff0000; opacity: 0.1"/>
   </g>
   <g id="patch_37">
    <path d="M -2603.307335 476.36 
L -2564.247335 476.36 
L -2564.247335 429.440394 
L -2603.307335 429.440394 
z
" clip-path="url(#p1a2348dc5e)" style="fill: #ff0000; opacity: 0.1"/>
   </g>
   <g id="patch_38">
    <path d="M -2718.947173 476.36 
L -2679.887173 476.36 
L -2679.887173 433.855682 
L -2718.947173 433.855682 
z
" clip-path="url(#p1a2348dc5e)" style="fill: #ff0000; opacity: 0.1"/>
   </g>
   <g id="patch_39">
    <path d="M -2834.640059 476.36 
L -2795.580059 476.36 
L -2795.580059 438.019458 
L -2834.640059 438.019458 
z
" clip-path="url(#p1a2348dc5e)" style="fill: #ff0000; opacity: 0.1"/>
   </g>
   <g id="patch_40">
    <path d="M -2950.380648 476.36 
L -2911.320648 476.36 
L -2911.320648 441.921271 
L -2950.380648 441.921271 
z
" clip-path="url(#p1a2348dc5e)" style="fill: #ff0000; opacity: 0.1"/>
   </g>
   <g id="patch_41">
    <path d="M -3066.164287 476.36 
L -3027.104287 476.36 
L -3027.104287 445.555404 
L -3066.164287 445.555404 
z
" clip-path="url(#p1a2348dc5e)" style="fill: #ff0000; opacity: 0.1"/>
   </g>
   <g id="patch_42">
    <path d="M -3181.986906 476.36 
L -3142.926906 476.36 
L -3142.926906 448.920381 
L -3181.986906 448.920381 
z
" clip-path="url(#p1a2348dc5e)" style="fill: #ff0000; opacity: 0.1"/>
   </g>
   <g id="patch_43">
    <path d="M -3297.844929 476.36 
L -3258.784929 476.36 
L -3258.784929 452.01844 
L -3297.844929 452.01844 
z
" clip-path="url(#p1a2348dc5e)" style="fill: #ff0000; opacity: 0.1"/>
   </g>
   <g id="patch_44">
    <path d="M -3413.735205 476.36 
L -3374.675205 476.36 
L -3374.675205 454.855016 
L -3413.735205 454.855016 
z
" clip-path="url(#p1a2348dc5e)" style="fill: #ff0000; opacity: 0.1"/>
   </g>
   <g id="patch_45">
    <path d="M -3529.654943 476.36 
L -3490.594943 476.36 
L -3490.594943 457.438222 
L -3529.654943 457.438222 
z
" clip-path="url(#p1a2348dc5e)" style="fill: #ff0000; opacity: 0.1"/>
   </g>
   <g id="patch_46">
    <path d="M -3645.601664 476.36 
L -3606.541664 476.36 
L -3606.541664 459.778348 
L -3645.601664 459.778348 
z
" clip-path="url(#p1a2348dc5e)" style="fill: #ff0000; opacity: 0.1"/>
   </g>
   <g id="patch_47">
    <path d="M -3761.573159 476.36 
L -3722.513159 476.36 
L -3722.513159 461.887388 
L -3761.573159 461.887388 
z
" clip-path="url(#p1a2348dc5e)" style="fill: #ff0000; opacity: 0.1"/>
   </g>
   <g id="patch_48">
    <path d="M -3877.567451 476.36 
L -3838.507451 476.36 
L -3838.507451 463.778605 
L -3877.567451 463.778605 
z
" clip-path="url(#p1a2348dc5e)" style="fill: #ff0000; opacity: 0.1"/>
   </g>
   <g id="patch_49">
    <path d="M -3993.582771 476.36 
L -3954.522771 476.36 
L -3954.522771 465.466124 
L -3993.582771 465.466124 
z
" clip-path="url(#p1a2348dc5e)" style="fill: #ff0000; opacity: 0.1"/>
   </g>
   <g id="patch_50">
    <path d="M -4109.617525 476.36 
L -4070.557525 476.36 
L -4070.557525 466.964582 
L -4109.617525 466.964582 
z
" clip-path="url(#p1a2348dc5e)" style="fill: #ff0000; opacity: 0.1"/>
   </g>
   <g id="patch_51">
    <path d="M -4225.670276 476.36 
L -4186.610276 476.36 
L -4186.610276 468.288806 
L -4225.670276 468.288806 
z
" clip-path="url(#p1a2348dc5e)" style="fill: #ff0000; opacity: 0.1"/>
   </g>
   <g id="patch_52">
    <path d="M -4341.739725 476.36 
L -4302.679725 476.36 
L -4302.679725 469.453552 
L -4341.739725 469.453552 
z
" clip-path="url(#p1a2348dc5e)" style="fill: #ff0000; opacity: 0.1"/>
   </g>
   <g id="matplotlib.axis_1">
    <g id="xtick_1">
     <g id="line2d_1">
      <defs>
       <path id="mec89a3d15b" d="M 0 0 
L 0 -6 
" style="stroke: #000000"/>
      </defs>
      <g>
       <use xlink:href="#mec89a3d15b" x="169.079375" y="476.36" style="stroke: #000000"/>
      </g>
     </g>
     <g id="line2d_2">
      <defs>
       <path id="m6781046f80" d="M 0 0 
L 0 6 
" style="stroke: #000000"/>
      </defs>
      <g>
       <use xlink:href="#m6781046f80" x="169.079375" y="32.84" style="stroke: #000000"/>
      </g>
     </g>
     <g id="text_1">
      <!-- −0.004 -->
      <g transform="translate(122.819609 498.856094) scale(0.25 -0.25)">
       <defs>
        <path id="DejaVuSans-2212" d="M 678 2272 
L 4684 2272 
L 4684 1741 
L 678 1741 
L 678 2272 
z
" transform="scale(0.015625)"/>
        <path id="DejaVuSans-30" d="M 2034 4250 
Q 1547 4250 1301 3770 
Q 1056 3291 1056 2328 
Q 1056 1369 1301 889 
Q 1547 409 2034 409 
Q 2525 409 2770 889 
Q 3016 1369 3016 2328 
Q 3016 3291 2770 3770 
Q 2525 4250 2034 4250 
z
M 2034 4750 
Q 2819 4750 3233 4129 
Q 3647 3509 3647 2328 
Q 3647 1150 3233 529 
Q 2819 -91 2034 -91 
Q 1250 -91 836 529 
Q 422 1150 422 2328 
Q 422 3509 836 4129 
Q 1250 4750 2034 4750 
z
" transform="scale(0.015625)"/>
        <path id="DejaVuSans-2e" d="M 684 794 
L 1344 794 
L 1344 0 
L 684 0 
L 684 794 
z
" transform="scale(0.015625)"/>
        <path id="DejaVuSans-34" d="M 2419 4116 
L 825 1625 
L 2419 1625 
L 2419 4116 
z
M 2253 4666 
L 3047 4666 
L 3047 1625 
L 3713 1625 
L 3713 1100 
L 3047 1100 
L 3047 0 
L 2419 0 
L 2419 1100 
L 313 1100 
L 313 1709 
L 2253 4666 
z
" transform="scale(0.015625)"/>
       </defs>
       <use xlink:href="#DejaVuSans-2212"/>
       <use xlink:href="#DejaVuSans-30" transform="translate(83.789062 0)"/>
       <use xlink:href="#DejaVuSans-2e" transform="translate(147.412109 0)"/>
       <use xlink:href="#DejaVuSans-30" transform="translate(179.199219 0)"/>
       <use xlink:href="#DejaVuSans-30" transform="translate(242.822266 0)"/>
       <use xlink:href="#DejaVuSans-34" transform="translate(306.445312 0)"/>
      </g>
     </g>
    </g>
    <g id="xtick_2">
     <g id="line2d_3">
      <g>
       <use xlink:href="#mec89a3d15b" x="325.319375" y="476.36" style="stroke: #000000"/>
      </g>
     </g>
     <g id="line2d_4">
      <g>
       <use xlink:href="#m6781046f80" x="325.319375" y="32.84" style="stroke: #000000"/>
      </g>
     </g>
     <g id="text_2">
      <!-- −0.002 -->
      <g transform="translate(279.059609 498.856094) scale(0.25 -0.25)">
       <defs>
        <path id="DejaVuSans-32" d="M 1228 531 
L 3431 531 
L 3431 0 
L 469 0 
L 469 531 
Q 828 903 1448 1529 
Q 2069 2156 2228 2338 
Q 2531 2678 2651 2914 
Q 2772 3150 2772 3378 
Q 2772 3750 2511 3984 
Q 2250 4219 1831 4219 
Q 1534 4219 1204 4116 
Q 875 4013 500 3803 
L 500 4441 
Q 881 4594 1212 4672 
Q 1544 4750 1819 4750 
Q 2544 4750 2975 4387 
Q 3406 4025 3406 3419 
Q 3406 3131 3298 2873 
Q 3191 2616 2906 2266 
Q 2828 2175 2409 1742 
Q 1991 1309 1228 531 
z
" transform="scale(0.015625)"/>
       </defs>
       <use xlink:href="#DejaVuSans-2212"/>
       <use xlink:href="#DejaVuSans-30" transform="translate(83.789062 0)"/>
       <use xlink:href="#DejaVuSans-2e" transform="translate(147.412109 0)"/>
       <use xlink:href="#DejaVuSans-30" transform="translate(179.199219 0)"/>
       <use xlink:href="#DejaVuSans-30" transform="translate(242.822266 0)"/>
       <use xlink:href="#DejaVuSans-32" transform="translate(306.445312 0)"/>
      </g>
     </g>
    </g>
    <g id="xtick_3">
     <g id="line2d_5">
      <g>
       <use xlink:href="#mec89a3d15b" x="481.559375" y="476.36" style="stroke: #000000"/>
      </g>
     </g>
     <g id="line2d_6">
      <g>
       <use xlink:href="#m6781046f80" x="481.559375" y="32.84" style="stroke: #000000"/>
      </g>
     </g>
     <g id="text_3">
      <!-- 0.000 -->
      <g transform="translate(445.774219 498.856094) scale(0.25 -0.25)">
       <use xlink:href="#DejaVuSans-30"/>
       <use xlink:href="#DejaVuSans-2e" transform="translate(63.623047 0)"/>
       <use xlink:href="#DejaVuSans-30" transform="translate(95.410156 0)"/>
       <use xlink:href="#DejaVuSans-30" transform="translate(159.033203 0)"/>
       <use xlink:href="#DejaVuSans-30" transform="translate(222.65625 0)"/>
      </g>
     </g>
    </g>
    <g id="xtick_4">
     <g id="line2d_7">
      <g>
       <use xlink:href="#mec89a3d15b" x="637.799375" y="476.36" style="stroke: #000000"/>
      </g>
     </g>
     <g id="line2d_8">
      <g>
       <use xlink:href="#m6781046f80" x="637.799375" y="32.84" style="stroke: #000000"/>
      </g>
     </g>
     <g id="text_4">
      <!-- 0.002 -->
      <g transform="translate(602.014219 498.856094) scale(0.25 -0.25)">
       <use xlink:href="#DejaVuSans-30"/>
       <use xlink:href="#DejaVuSans-2e" transform="translate(63.623047 0)"/>
       <use xlink:href="#DejaVuSans-30" transform="translate(95.410156 0)"/>
       <use xlink:href="#DejaVuSans-30" transform="translate(159.033203 0)"/>
       <use xlink:href="#DejaVuSans-32" transform="translate(222.65625 0)"/>
      </g>
     </g>
    </g>
    <g id="xtick_5">
     <g id="line2d_9">
      <g>
       <use xlink:href="#mec89a3d15b" x="794.039375" y="476.36" style="stroke: #000000"/>
      </g>
     </g>
     <g id="line2d_10">
      <g>
       <use xlink:href="#m6781046f80" x="794.039375" y="32.84" style="stroke: #000000"/>
      </g>
     </g>
     <g id="text_5">
      <!-- 0.004 -->
      <g transform="translate(758.254219 498.856094) scale(0.25 -0.25)">
       <use xlink:href="#DejaVuSans-30"/>
       <use xlink:href="#DejaVuSans-2e" transform="translate(63.623047 0)"/>
       <use xlink:href="#DejaVuSans-30" transform="translate(95.410156 0)"/>
       <use xlink:href="#DejaVuSans-30" transform="translate(159.033203 0)"/>
       <use xlink:href="#DejaVuSans-34" transform="translate(222.65625 0)"/>
      </g>
     </g>
    </g>
    <g id="xtick_6">
     <g id="line2d_11">
      <defs>
       <path id="m7150d7430b" d="M 0 0 
L 0 -3 
" style="stroke: #000000"/>
      </defs>
      <g>
       <use xlink:href="#m7150d7430b" x="90.959375" y="476.36" style="stroke: #000000"/>
      </g>
     </g>
     <g id="line2d_12">
      <defs>
       <path id="m1d6be87d8a" d="M 0 0 
L 0 3 
" style="stroke: #000000"/>
      </defs>
      <g>
       <use xlink:href="#m1d6be87d8a" x="90.959375" y="32.84" style="stroke: #000000"/>
      </g>
     </g>
    </g>
    <g id="xtick_7">
     <g id="line2d_13">
      <g>
       <use xlink:href="#m7150d7430b" x="130.019375" y="476.36" style="stroke: #000000"/>
      </g>
     </g>
     <g id="line2d_14">
      <g>
       <use xlink:href="#m1d6be87d8a" x="130.019375" y="32.84" style="stroke: #000000"/>
      </g>
     </g>
    </g>
    <g id="xtick_8">
     <g id="line2d_15">
      <g>
       <use xlink:href="#m7150d7430b" x="208.139375" y="476.36" style="stroke: #000000"/>
      </g>
     </g>
     <g id="line2d_16">
      <g>
       <use xlink:href="#m1d6be87d8a" x="208.139375" y="32.84" style="stroke: #000000"/>
      </g>
     </g>
    </g>
    <g id="xtick_9">
     <g id="line2d_17">
      <g>
       <use xlink:href="#m7150d7430b" x="247.199375" y="476.36" style="stroke: #000000"/>
      </g>
     </g>
     <g id="line2d_18">
      <g>
       <use xlink:href="#m1d6be87d8a" x="247.199375" y="32.84" style="stroke: #000000"/>
      </g>
     </g>
    </g>
    <g id="xtick_10">
     <g id="line2d_19">
      <g>
       <use xlink:href="#m7150d7430b" x="286.259375" y="476.36" style="stroke: #000000"/>
      </g>
     </g>
     <g id="line2d_20">
      <g>
       <use xlink:href="#m1d6be87d8a" x="286.259375" y="32.84" style="stroke: #000000"/>
      </g>
     </g>
    </g>
    <g id="xtick_11">
     <g id="line2d_21">
      <g>
       <use xlink:href="#m7150d7430b" x="364.379375" y="476.36" style="stroke: #000000"/>
      </g>
     </g>
     <g id="line2d_22">
      <g>
       <use xlink:href="#m1d6be87d8a" x="364.379375" y="32.84" style="stroke: #000000"/>
      </g>
     </g>
    </g>
    <g id="xtick_12">
     <g id="line2d_23">
      <g>
       <use xlink:href="#m7150d7430b" x="403.439375" y="476.36" style="stroke: #000000"/>
      </g>
     </g>
     <g id="line2d_24">
      <g>
       <use xlink:href="#m1d6be87d8a" x="403.439375" y="32.84" style="stroke: #000000"/>
      </g>
     </g>
    </g>
    <g id="xtick_13">
     <g id="line2d_25">
      <g>
       <use xlink:href="#m7150d7430b" x="442.499375" y="476.36" style="stroke: #000000"/>
      </g>
     </g>
     <g id="line2d_26">
      <g>
       <use xlink:href="#m1d6be87d8a" x="442.499375" y="32.84" style="stroke: #000000"/>
      </g>
     </g>
    </g>
    <g id="xtick_14">
     <g id="line2d_27">
      <g>
       <use xlink:href="#m7150d7430b" x="520.619375" y="476.36" style="stroke: #000000"/>
      </g>
     </g>
     <g id="line2d_28">
      <g>
       <use xlink:href="#m1d6be87d8a" x="520.619375" y="32.84" style="stroke: #000000"/>
      </g>
     </g>
    </g>
    <g id="xtick_15">
     <g id="line2d_29">
      <g>
       <use xlink:href="#m7150d7430b" x="559.679375" y="476.36" style="stroke: #000000"/>
      </g>
     </g>
     <g id="line2d_30">
      <g>
       <use xlink:href="#m1d6be87d8a" x="559.679375" y="32.84" style="stroke: #000000"/>
      </g>
     </g>
    </g>
    <g id="xtick_16">
     <g id="line2d_31">
      <g>
       <use xlink:href="#m7150d7430b" x="598.739375" y="476.36" style="stroke: #000000"/>
      </g>
     </g>
     <g id="line2d_32">
      <g>
       <use xlink:href="#m1d6be87d8a" x="598.739375" y="32.84" style="stroke: #000000"/>
      </g>
     </g>
    </g>
    <g id="xtick_17">
     <g id="line2d_33">
      <g>
       <use xlink:href="#m7150d7430b" x="676.859375" y="476.36" style="stroke: #000000"/>
      </g>
     </g>
     <g id="line2d_34">
      <g>
       <use xlink:href="#m1d6be87d8a" x="676.859375" y="32.84" style="stroke: #000000"/>
      </g>
     </g>
    </g>
    <g id="xtick_18">
     <g id="line2d_35">
      <g>
       <use xlink:href="#m7150d7430b" x="715.919375" y="476.36" style="stroke: #000000"/>
      </g>
     </g>
     <g id="line2d_36">
      <g>
       <use xlink:href="#m1d6be87d8a" x="715.919375" y="32.84" style="stroke: #000000"/>
      </g>
     </g>
    </g>
    <g id="xtick_19">
     <g id="line2d_37">
      <g>
       <use xlink:href="#m7150d7430b" x="754.979375" y="476.36" style="stroke: #000000"/>
      </g>
     </g>
     <g id="line2d_38">
      <g>
       <use xlink:href="#m1d6be87d8a" x="754.979375" y="32.84" style="stroke: #000000"/>
      </g>
     </g>
    </g>
    <g id="xtick_20">
     <g id="line2d_39">
      <g>
       <use xlink:href="#m7150d7430b" x="833.099375" y="476.36" style="stroke: #000000"/>
      </g>
     </g>
     <g id="line2d_40">
      <g>
       <use xlink:href="#m1d6be87d8a" x="833.099375" y="32.84" style="stroke: #000000"/>
      </g>
     </g>
    </g>
    <g id="xtick_21">
     <g id="line2d_41">
      <g>
       <use xlink:href="#m7150d7430b" x="872.159375" y="476.36" style="stroke: #000000"/>
      </g>
     </g>
     <g id="line2d_42">
      <g>
       <use xlink:href="#m1d6be87d8a" x="872.159375" y="32.84" style="stroke: #000000"/>
      </g>
     </g>
    </g>
    <g id="text_6">
     <!-- Frequency (MHz) -->
     <g transform="translate(376.5125 527.051406) scale(0.25 -0.25)">
      <defs>
       <path id="DejaVuSans-46" d="M 628 4666 
L 3309 4666 
L 3309 4134 
L 1259 4134 
L 1259 2759 
L 3109 2759 
L 3109 2228 
L 1259 2228 
L 1259 0 
L 628 0 
L 628 4666 
z
" transform="scale(0.015625)"/>
       <path id="DejaVuSans-72" d="M 2631 2963 
Q 2534 3019 2420 3045 
Q 2306 3072 2169 3072 
Q 1681 3072 1420 2755 
Q 1159 2438 1159 1844 
L 1159 0 
L 581 0 
L 581 3500 
L 1159 3500 
L 1159 2956 
Q 1341 3275 1631 3429 
Q 1922 3584 2338 3584 
Q 2397 3584 2469 3576 
Q 2541 3569 2628 3553 
L 2631 2963 
z
" transform="scale(0.015625)"/>
       <path id="DejaVuSans-65" d="M 3597 1894 
L 3597 1613 
L 953 1613 
Q 991 1019 1311 708 
Q 1631 397 2203 397 
Q 2534 397 2845 478 
Q 3156 559 3463 722 
L 3463 178 
Q 3153 47 2828 -22 
Q 2503 -91 2169 -91 
Q 1331 -91 842 396 
Q 353 884 353 1716 
Q 353 2575 817 3079 
Q 1281 3584 2069 3584 
Q 2775 3584 3186 3129 
Q 3597 2675 3597 1894 
z
M 3022 2063 
Q 3016 2534 2758 2815 
Q 2500 3097 2075 3097 
Q 1594 3097 1305 2825 
Q 1016 2553 972 2059 
L 3022 2063 
z
" transform="scale(0.015625)"/>
       <path id="DejaVuSans-71" d="M 947 1747 
Q 947 1113 1208 752 
Q 1469 391 1925 391 
Q 2381 391 2643 752 
Q 2906 1113 2906 1747 
Q 2906 2381 2643 2742 
Q 2381 3103 1925 3103 
Q 1469 3103 1208 2742 
Q 947 2381 947 1747 
z
M 2906 525 
Q 2725 213 2448 61 
Q 2172 -91 1784 -91 
Q 1150 -91 751 415 
Q 353 922 353 1747 
Q 353 2572 751 3078 
Q 1150 3584 1784 3584 
Q 2172 3584 2448 3432 
Q 2725 3281 2906 2969 
L 2906 3500 
L 3481 3500 
L 3481 -1331 
L 2906 -1331 
L 2906 525 
z
" transform="scale(0.015625)"/>
       <path id="DejaVuSans-75" d="M 544 1381 
L 544 3500 
L 1119 3500 
L 1119 1403 
Q 1119 906 1312 657 
Q 1506 409 1894 409 
Q 2359 409 2629 706 
Q 2900 1003 2900 1516 
L 2900 3500 
L 3475 3500 
L 3475 0 
L 2900 0 
L 2900 538 
Q 2691 219 2414 64 
Q 2138 -91 1772 -91 
Q 1169 -91 856 284 
Q 544 659 544 1381 
z
M 1991 3584 
L 1991 3584 
z
" transform="scale(0.015625)"/>
       <path id="DejaVuSans-6e" d="M 3513 2113 
L 3513 0 
L 2938 0 
L 2938 2094 
Q 2938 2591 2744 2837 
Q 2550 3084 2163 3084 
Q 1697 3084 1428 2787 
Q 1159 2491 1159 1978 
L 1159 0 
L 581 0 
L 581 3500 
L 1159 3500 
L 1159 2956 
Q 1366 3272 1645 3428 
Q 1925 3584 2291 3584 
Q 2894 3584 3203 3211 
Q 3513 2838 3513 2113 
z
" transform="scale(0.015625)"/>
       <path id="DejaVuSans-63" d="M 3122 3366 
L 3122 2828 
Q 2878 2963 2633 3030 
Q 2388 3097 2138 3097 
Q 1578 3097 1268 2742 
Q 959 2388 959 1747 
Q 959 1106 1268 751 
Q 1578 397 2138 397 
Q 2388 397 2633 464 
Q 2878 531 3122 666 
L 3122 134 
Q 2881 22 2623 -34 
Q 2366 -91 2075 -91 
Q 1284 -91 818 406 
Q 353 903 353 1747 
Q 353 2603 823 3093 
Q 1294 3584 2113 3584 
Q 2378 3584 2631 3529 
Q 2884 3475 3122 3366 
z
" transform="scale(0.015625)"/>
       <path id="DejaVuSans-79" d="M 2059 -325 
Q 1816 -950 1584 -1140 
Q 1353 -1331 966 -1331 
L 506 -1331 
L 506 -850 
L 844 -850 
Q 1081 -850 1212 -737 
Q 1344 -625 1503 -206 
L 1606 56 
L 191 3500 
L 800 3500 
L 1894 763 
L 2988 3500 
L 3597 3500 
L 2059 -325 
z
" transform="scale(0.015625)"/>
       <path id="DejaVuSans-20" transform="scale(0.015625)"/>
       <path id="DejaVuSans-28" d="M 1984 4856 
Q 1566 4138 1362 3434 
Q 1159 2731 1159 2009 
Q 1159 1288 1364 580 
Q 1569 -128 1984 -844 
L 1484 -844 
Q 1016 -109 783 600 
Q 550 1309 550 2009 
Q 550 2706 781 3412 
Q 1013 4119 1484 4856 
L 1984 4856 
z
" transform="scale(0.015625)"/>
       <path id="DejaVuSans-4d" d="M 628 4666 
L 1569 4666 
L 2759 1491 
L 3956 4666 
L 4897 4666 
L 4897 0 
L 4281 0 
L 4281 4097 
L 3078 897 
L 2444 897 
L 1241 4097 
L 1241 0 
L 628 0 
L 628 4666 
z
" transform="scale(0.015625)"/>
       <path id="DejaVuSans-48" d="M 628 4666 
L 1259 4666 
L 1259 2753 
L 3553 2753 
L 3553 4666 
L 4184 4666 
L 4184 0 
L 3553 0 
L 3553 2222 
L 1259 2222 
L 1259 0 
L 628 0 
L 628 4666 
z
" transform="scale(0.015625)"/>
       <path id="DejaVuSans-7a" d="M 353 3500 
L 3084 3500 
L 3084 2975 
L 922 459 
L 3084 459 
L 3084 0 
L 275 0 
L 275 525 
L 2438 3041 
L 353 3041 
L 353 3500 
z
" transform="scale(0.015625)"/>
       <path id="DejaVuSans-29" d="M 513 4856 
L 1013 4856 
Q 1481 4119 1714 3412 
Q 1947 2706 1947 2009 
Q 1947 1309 1714 600 
Q 1481 -109 1013 -844 
L 513 -844 
Q 928 -128 1133 580 
Q 1338 1288 1338 2009 
Q 1338 2731 1133 3434 
Q 928 4138 513 4856 
z
" transform="scale(0.015625)"/>
      </defs>
      <use xlink:href="#DejaVuSans-46"/>
      <use xlink:href="#DejaVuSans-72" transform="translate(50.269531 0)"/>
      <use xlink:href="#DejaVuSans-65" transform="translate(89.132812 0)"/>
      <use xlink:href="#DejaVuSans-71" transform="translate(150.65625 0)"/>
      <use xlink:href="#DejaVuSans-75" transform="translate(214.132812 0)"/>
      <use xlink:href="#DejaVuSans-65" transform="translate(277.511719 0)"/>
      <use xlink:href="#DejaVuSans-6e" transform="translate(339.035156 0)"/>
      <use xlink:href="#DejaVuSans-63" transform="translate(402.414062 0)"/>
      <use xlink:href="#DejaVuSans-79" transform="translate(457.394531 0)"/>
      <use xlink:href="#DejaVuSans-20" transform="translate(516.574219 0)"/>
      <use xlink:href="#DejaVuSans-28" transform="translate(548.361328 0)"/>
      <use xlink:href="#DejaVuSans-4d" transform="translate(587.375 0)"/>
      <use xlink:href="#DejaVuSans-48" transform="translate(673.654297 0)"/>
      <use xlink:href="#DejaVuSans-7a" transform="translate(748.849609 0)"/>
      <use xlink:href="#DejaVuSans-29" transform="translate(801.339844 0)"/>
     </g>
    </g>
   </g>
   <g id="matplotlib.axis_2">
    <g id="ytick_1">
     <g id="line2d_43">
      <defs>
       <path id="m0578d4dbb4" d="M 0 0 
L 6 0 
" style="stroke: #000000"/>
      </defs>
      <g>
       <use xlink:href="#m0578d4dbb4" x="90.959375" y="476.36" style="stroke: #000000"/>
      </g>
     </g>
     <g id="line2d_44">
      <defs>
       <path id="m4061d9c55b" d="M 0 0 
L -6 0 
" style="stroke: #000000"/>
      </defs>
      <g>
       <use xlink:href="#m4061d9c55b" x="872.159375" y="476.36" style="stroke: #000000"/>
      </g>
     </g>
     <g id="text_7">
      <!-- 0.00 -->
      <g transform="translate(31.795313 485.858047) scale(0.25 -0.25)">
       <use xlink:href="#DejaVuSans-30"/>
       <use xlink:href="#DejaVuSans-2e" transform="translate(63.623047 0)"/>
       <use xlink:href="#DejaVuSans-30" transform="translate(95.410156 0)"/>
       <use xlink:href="#DejaVuSans-30" transform="translate(159.033203 0)"/>
      </g>
     </g>
    </g>
    <g id="ytick_2">
     <g id="line2d_45">
      <g>
       <use xlink:href="#m0578d4dbb4" x="90.959375" y="408.126154" style="stroke: #000000"/>
      </g>
     </g>
     <g id="line2d_46">
      <g>
       <use xlink:href="#m4061d9c55b" x="872.159375" y="408.126154" style="stroke: #000000"/>
      </g>
     </g>
     <g id="text_8">
      <!-- 0.02 -->
      <g transform="translate(31.795313 417.624201) scale(0.25 -0.25)">
       <use xlink:href="#DejaVuSans-30"/>
       <use xlink:href="#DejaVuSans-2e" transform="translate(63.623047 0)"/>
       <use xlink:href="#DejaVuSans-30" transform="translate(95.410156 0)"/>
       <use xlink:href="#DejaVuSans-32" transform="translate(159.033203 0)"/>
      </g>
     </g>
    </g>
    <g id="ytick_3">
     <g id="line2d_47">
      <g>
       <use xlink:href="#m0578d4dbb4" x="90.959375" y="339.892308" style="stroke: #000000"/>
      </g>
     </g>
     <g id="line2d_48">
      <g>
       <use xlink:href="#m4061d9c55b" x="872.159375" y="339.892308" style="stroke: #000000"/>
      </g>
     </g>
     <g id="text_9">
      <!-- 0.04 -->
      <g transform="translate(31.795313 349.390355) scale(0.25 -0.25)">
       <use xlink:href="#DejaVuSans-30"/>
       <use xlink:href="#DejaVuSans-2e" transform="translate(63.623047 0)"/>
       <use xlink:href="#DejaVuSans-30" transform="translate(95.410156 0)"/>
       <use xlink:href="#DejaVuSans-34" transform="translate(159.033203 0)"/>
      </g>
     </g>
    </g>
    <g id="ytick_4">
     <g id="line2d_49">
      <g>
       <use xlink:href="#m0578d4dbb4" x="90.959375" y="271.658462" style="stroke: #000000"/>
      </g>
     </g>
     <g id="line2d_50">
      <g>
       <use xlink:href="#m4061d9c55b" x="872.159375" y="271.658462" style="stroke: #000000"/>
      </g>
     </g>
     <g id="text_10">
      <!-- 0.06 -->
      <g transform="translate(31.795313 281.156508) scale(0.25 -0.25)">
       <defs>
        <path id="DejaVuSans-36" d="M 2113 2584 
Q 1688 2584 1439 2293 
Q 1191 2003 1191 1497 
Q 1191 994 1439 701 
Q 1688 409 2113 409 
Q 2538 409 2786 701 
Q 3034 994 3034 1497 
Q 3034 2003 2786 2293 
Q 2538 2584 2113 2584 
z
M 3366 4563 
L 3366 3988 
Q 3128 4100 2886 4159 
Q 2644 4219 2406 4219 
Q 1781 4219 1451 3797 
Q 1122 3375 1075 2522 
Q 1259 2794 1537 2939 
Q 1816 3084 2150 3084 
Q 2853 3084 3261 2657 
Q 3669 2231 3669 1497 
Q 3669 778 3244 343 
Q 2819 -91 2113 -91 
Q 1303 -91 875 529 
Q 447 1150 447 2328 
Q 447 3434 972 4092 
Q 1497 4750 2381 4750 
Q 2619 4750 2861 4703 
Q 3103 4656 3366 4563 
z
" transform="scale(0.015625)"/>
       </defs>
       <use xlink:href="#DejaVuSans-30"/>
       <use xlink:href="#DejaVuSans-2e" transform="translate(63.623047 0)"/>
       <use xlink:href="#DejaVuSans-30" transform="translate(95.410156 0)"/>
       <use xlink:href="#DejaVuSans-36" transform="translate(159.033203 0)"/>
      </g>
     </g>
    </g>
    <g id="ytick_5">
     <g id="line2d_51">
      <g>
       <use xlink:href="#m0578d4dbb4" x="90.959375" y="203.424615" style="stroke: #000000"/>
      </g>
     </g>
     <g id="line2d_52">
      <g>
       <use xlink:href="#m4061d9c55b" x="872.159375" y="203.424615" style="stroke: #000000"/>
      </g>
     </g>
     <g id="text_11">
      <!-- 0.08 -->
      <g transform="translate(31.795313 212.922662) scale(0.25 -0.25)">
       <defs>
        <path id="DejaVuSans-38" d="M 2034 2216 
Q 1584 2216 1326 1975 
Q 1069 1734 1069 1313 
Q 1069 891 1326 650 
Q 1584 409 2034 409 
Q 2484 409 2743 651 
Q 3003 894 3003 1313 
Q 3003 1734 2745 1975 
Q 2488 2216 2034 2216 
z
M 1403 2484 
Q 997 2584 770 2862 
Q 544 3141 544 3541 
Q 544 4100 942 4425 
Q 1341 4750 2034 4750 
Q 2731 4750 3128 4425 
Q 3525 4100 3525 3541 
Q 3525 3141 3298 2862 
Q 3072 2584 2669 2484 
Q 3125 2378 3379 2068 
Q 3634 1759 3634 1313 
Q 3634 634 3220 271 
Q 2806 -91 2034 -91 
Q 1263 -91 848 271 
Q 434 634 434 1313 
Q 434 1759 690 2068 
Q 947 2378 1403 2484 
z
M 1172 3481 
Q 1172 3119 1398 2916 
Q 1625 2713 2034 2713 
Q 2441 2713 2670 2916 
Q 2900 3119 2900 3481 
Q 2900 3844 2670 4047 
Q 2441 4250 2034 4250 
Q 1625 4250 1398 4047 
Q 1172 3844 1172 3481 
z
" transform="scale(0.015625)"/>
       </defs>
       <use xlink:href="#DejaVuSans-30"/>
       <use xlink:href="#DejaVuSans-2e" transform="translate(63.623047 0)"/>
       <use xlink:href="#DejaVuSans-30" transform="translate(95.410156 0)"/>
       <use xlink:href="#DejaVuSans-38" transform="translate(159.033203 0)"/>
      </g>
     </g>
    </g>
    <g id="ytick_6">
     <g id="line2d_53">
      <g>
       <use xlink:href="#m0578d4dbb4" x="90.959375" y="135.190769" style="stroke: #000000"/>
      </g>
     </g>
     <g id="line2d_54">
      <g>
       <use xlink:href="#m4061d9c55b" x="872.159375" y="135.190769" style="stroke: #000000"/>
      </g>
     </g>
     <g id="text_12">
      <!-- 0.10 -->
      <g transform="translate(31.795313 144.688816) scale(0.25 -0.25)">
       <defs>
        <path id="DejaVuSans-31" d="M 794 531 
L 1825 531 
L 1825 4091 
L 703 3866 
L 703 4441 
L 1819 4666 
L 2450 4666 
L 2450 531 
L 3481 531 
L 3481 0 
L 794 0 
L 794 531 
z
" transform="scale(0.015625)"/>
       </defs>
       <use xlink:href="#DejaVuSans-30"/>
       <use xlink:href="#DejaVuSans-2e" transform="translate(63.623047 0)"/>
       <use xlink:href="#DejaVuSans-31" transform="translate(95.410156 0)"/>
       <use xlink:href="#DejaVuSans-30" transform="translate(159.033203 0)"/>
      </g>
     </g>
    </g>
    <g id="ytick_7">
     <g id="line2d_55">
      <g>
       <use xlink:href="#m0578d4dbb4" x="90.959375" y="66.956923" style="stroke: #000000"/>
      </g>
     </g>
     <g id="line2d_56">
      <g>
       <use xlink:href="#m4061d9c55b" x="872.159375" y="66.956923" style="stroke: #000000"/>
      </g>
     </g>
     <g id="text_13">
      <!-- 0.12 -->
      <g transform="translate(31.795313 76.45497) scale(0.25 -0.25)">
       <use xlink:href="#DejaVuSans-30"/>
       <use xlink:href="#DejaVuSans-2e" transform="translate(63.623047 0)"/>
       <use xlink:href="#DejaVuSans-31" transform="translate(95.410156 0)"/>
       <use xlink:href="#DejaVuSans-32" transform="translate(159.033203 0)"/>
      </g>
     </g>
    </g>
    <g id="ytick_8">
     <g id="line2d_57">
      <defs>
       <path id="m91bad2c936" d="M 0 0 
L 3 0 
" style="stroke: #000000"/>
      </defs>
      <g>
       <use xlink:href="#m91bad2c936" x="90.959375" y="459.301538" style="stroke: #000000"/>
      </g>
     </g>
     <g id="line2d_58">
      <defs>
       <path id="m10871a7e0c" d="M 0 0 
L -3 0 
" style="stroke: #000000"/>
      </defs>
      <g>
       <use xlink:href="#m10871a7e0c" x="872.159375" y="459.301538" style="stroke: #000000"/>
      </g>
     </g>
    </g>
    <g id="ytick_9">
     <g id="line2d_59">
      <g>
       <use xlink:href="#m91bad2c936" x="90.959375" y="442.243077" style="stroke: #000000"/>
      </g>
     </g>
     <g id="line2d_60">
      <g>
       <use xlink:href="#m10871a7e0c" x="872.159375" y="442.243077" style="stroke: #000000"/>
      </g>
     </g>
    </g>
    <g id="ytick_10">
     <g id="line2d_61">
      <g>
       <use xlink:href="#m91bad2c936" x="90.959375" y="425.184615" style="stroke: #000000"/>
      </g>
     </g>
     <g id="line2d_62">
      <g>
       <use xlink:href="#m10871a7e0c" x="872.159375" y="425.184615" style="stroke: #000000"/>
      </g>
     </g>
    </g>
    <g id="ytick_11">
     <g id="line2d_63">
      <g>
       <use xlink:href="#m91bad2c936" x="90.959375" y="391.067692" style="stroke: #000000"/>
      </g>
     </g>
     <g id="line2d_64">
      <g>
       <use xlink:href="#m10871a7e0c" x="872.159375" y="391.067692" style="stroke: #000000"/>
      </g>
     </g>
    </g>
    <g id="ytick_12">
     <g id="line2d_65">
      <g>
       <use xlink:href="#m91bad2c936" x="90.959375" y="374.009231" style="stroke: #000000"/>
      </g>
     </g>
     <g id="line2d_66">
      <g>
       <use xlink:href="#m10871a7e0c" x="872.159375" y="374.009231" style="stroke: #000000"/>
      </g>
     </g>
    </g>
    <g id="ytick_13">
     <g id="line2d_67">
      <g>
       <use xlink:href="#m91bad2c936" x="90.959375" y="356.950769" style="stroke: #000000"/>
      </g>
     </g>
     <g id="line2d_68">
      <g>
       <use xlink:href="#m10871a7e0c" x="872.159375" y="356.950769" style="stroke: #000000"/>
      </g>
     </g>
    </g>
    <g id="ytick_14">
     <g id="line2d_69">
      <g>
       <use xlink:href="#m91bad2c936" x="90.959375" y="322.833846" style="stroke: #000000"/>
      </g>
     </g>
     <g id="line2d_70">
      <g>
       <use xlink:href="#m10871a7e0c" x="872.159375" y="322.833846" style="stroke: #000000"/>
      </g>
     </g>
    </g>
    <g id="ytick_15">
     <g id="line2d_71">
      <g>
       <use xlink:href="#m91bad2c936" x="90.959375" y="305.775385" style="stroke: #000000"/>
      </g>
     </g>
     <g id="line2d_72">
      <g>
       <use xlink:href="#m10871a7e0c" x="872.159375" y="305.775385" style="stroke: #000000"/>
      </g>
     </g>
    </g>
    <g id="ytick_16">
     <g id="line2d_73">
      <g>
       <use xlink:href="#m91bad2c936" x="90.959375" y="288.716923" style="stroke: #000000"/>
      </g>
     </g>
     <g id="line2d_74">
      <g>
       <use xlink:href="#m10871a7e0c" x="872.159375" y="288.716923" style="stroke: #000000"/>
      </g>
     </g>
    </g>
    <g id="ytick_17">
     <g id="line2d_75">
      <g>
       <use xlink:href="#m91bad2c936" x="90.959375" y="254.6" style="stroke: #000000"/>
      </g>
     </g>
     <g id="line2d_76">
      <g>
       <use xlink:href="#m10871a7e0c" x="872.159375" y="254.6" style="stroke: #000000"/>
      </g>
     </g>
    </g>
    <g id="ytick_18">
     <g id="line2d_77">
      <g>
       <use xlink:href="#m91bad2c936" x="90.959375" y="237.541538" style="stroke: #000000"/>
      </g>
     </g>
     <g id="line2d_78">
      <g>
       <use xlink:href="#m10871a7e0c" x="872.159375" y="237.541538" style="stroke: #000000"/>
      </g>
     </g>
    </g>
    <g id="ytick_19">
     <g id="line2d_79">
      <g>
       <use xlink:href="#m91bad2c936" x="90.959375" y="220.483077" style="stroke: #000000"/>
      </g>
     </g>
     <g id="line2d_80">
      <g>
       <use xlink:href="#m10871a7e0c" x="872.159375" y="220.483077" style="stroke: #000000"/>
      </g>
     </g>
    </g>
    <g id="ytick_20">
     <g id="line2d_81">
      <g>
       <use xlink:href="#m91bad2c936" x="90.959375" y="186.366154" style="stroke: #000000"/>
      </g>
     </g>
     <g id="line2d_82">
      <g>
       <use xlink:href="#m10871a7e0c" x="872.159375" y="186.366154" style="stroke: #000000"/>
      </g>
     </g>
    </g>
    <g id="ytick_21">
     <g id="line2d_83">
      <g>
       <use xlink:href="#m91bad2c936" x="90.959375" y="169.307692" style="stroke: #000000"/>
      </g>
     </g>
     <g id="line2d_84">
      <g>
       <use xlink:href="#m10871a7e0c" x="872.159375" y="169.307692" style="stroke: #000000"/>
      </g>
     </g>
    </g>
    <g id="ytick_22">
     <g id="line2d_85">
      <g>
       <use xlink:href="#m91bad2c936" x="90.959375" y="152.249231" style="stroke: #000000"/>
      </g>
     </g>
     <g id="line2d_86">
      <g>
       <use xlink:href="#m10871a7e0c" x="872.159375" y="152.249231" style="stroke: #000000"/>
      </g>
     </g>
    </g>
    <g id="ytick_23">
     <g id="line2d_87">
      <g>
       <use xlink:href="#m91bad2c936" x="90.959375" y="118.132308" style="stroke: #000000"/>
      </g>
     </g>
     <g id="line2d_88">
      <g>
       <use xlink:href="#m10871a7e0c" x="872.159375" y="118.132308" style="stroke: #000000"/>
      </g>
     </g>
    </g>
    <g id="ytick_24">
     <g id="line2d_89">
      <g>
       <use xlink:href="#m91bad2c936" x="90.959375" y="101.073846" style="stroke: #000000"/>
      </g>
     </g>
     <g id="line2d_90">
      <g>
       <use xlink:href="#m10871a7e0c" x="872.159375" y="101.073846" style="stroke: #000000"/>
      </g>
     </g>
    </g>
    <g id="ytick_25">
     <g id="line2d_91">
      <g>
       <use xlink:href="#m91bad2c936" x="90.959375" y="84.015385" style="stroke: #000000"/>
      </g>
     </g>
     <g id="line2d_92">
      <g>
       <use xlink:href="#m10871a7e0c" x="872.159375" y="84.015385" style="stroke: #000000"/>
      </g>
     </g>
    </g>
    <g id="ytick_26">
     <g id="line2d_93">
      <g>
       <use xlink:href="#m91bad2c936" x="90.959375" y="49.898462" style="stroke: #000000"/>
      </g>
     </g>
     <g id="line2d_94">
      <g>
       <use xlink:href="#m10871a7e0c" x="872.159375" y="49.898462" style="stroke: #000000"/>
      </g>
     </g>
    </g>
    <g id="ytick_27">
     <g id="line2d_95">
      <g>
       <use xlink:href="#m91bad2c936" x="90.959375" y="32.84" style="stroke: #000000"/>
      </g>
     </g>
     <g id="line2d_96">
      <g>
       <use xlink:href="#m10871a7e0c" x="872.159375" y="32.84" style="stroke: #000000"/>
      </g>
     </g>
    </g>
    <g id="text_14">
     <!-- Excitation probability -->
     <g transform="translate(22.596094 387.189844) rotate(-90) scale(0.25 -0.25)">
      <defs>
       <path id="DejaVuSans-45" d="M 628 4666 
L 3578 4666 
L 3578 4134 
L 1259 4134 
L 1259 2753 
L 3481 2753 
L 3481 2222 
L 1259 2222 
L 1259 531 
L 3634 531 
L 3634 0 
L 628 0 
L 628 4666 
z
" transform="scale(0.015625)"/>
       <path id="DejaVuSans-78" d="M 3513 3500 
L 2247 1797 
L 3578 0 
L 2900 0 
L 1881 1375 
L 863 0 
L 184 0 
L 1544 1831 
L 300 3500 
L 978 3500 
L 1906 2253 
L 2834 3500 
L 3513 3500 
z
" transform="scale(0.015625)"/>
       <path id="DejaVuSans-69" d="M 603 3500 
L 1178 3500 
L 1178 0 
L 603 0 
L 603 3500 
z
M 603 4863 
L 1178 4863 
L 1178 4134 
L 603 4134 
L 603 4863 
z
" transform="scale(0.015625)"/>
       <path id="DejaVuSans-74" d="M 1172 4494 
L 1172 3500 
L 2356 3500 
L 2356 3053 
L 1172 3053 
L 1172 1153 
Q 1172 725 1289 603 
Q 1406 481 1766 481 
L 2356 481 
L 2356 0 
L 1766 0 
Q 1100 0 847 248 
Q 594 497 594 1153 
L 594 3053 
L 172 3053 
L 172 3500 
L 594 3500 
L 594 4494 
L 1172 4494 
z
" transform="scale(0.015625)"/>
       <path id="DejaVuSans-61" d="M 2194 1759 
Q 1497 1759 1228 1600 
Q 959 1441 959 1056 
Q 959 750 1161 570 
Q 1363 391 1709 391 
Q 2188 391 2477 730 
Q 2766 1069 2766 1631 
L 2766 1759 
L 2194 1759 
z
M 3341 1997 
L 3341 0 
L 2766 0 
L 2766 531 
Q 2569 213 2275 61 
Q 1981 -91 1556 -91 
Q 1019 -91 701 211 
Q 384 513 384 1019 
Q 384 1609 779 1909 
Q 1175 2209 1959 2209 
L 2766 2209 
L 2766 2266 
Q 2766 2663 2505 2880 
Q 2244 3097 1772 3097 
Q 1472 3097 1187 3025 
Q 903 2953 641 2809 
L 641 3341 
Q 956 3463 1253 3523 
Q 1550 3584 1831 3584 
Q 2591 3584 2966 3190 
Q 3341 2797 3341 1997 
z
" transform="scale(0.015625)"/>
       <path id="DejaVuSans-6f" d="M 1959 3097 
Q 1497 3097 1228 2736 
Q 959 2375 959 1747 
Q 959 1119 1226 758 
Q 1494 397 1959 397 
Q 2419 397 2687 759 
Q 2956 1122 2956 1747 
Q 2956 2369 2687 2733 
Q 2419 3097 1959 3097 
z
M 1959 3584 
Q 2709 3584 3137 3096 
Q 3566 2609 3566 1747 
Q 3566 888 3137 398 
Q 2709 -91 1959 -91 
Q 1206 -91 779 398 
Q 353 888 353 1747 
Q 353 2609 779 3096 
Q 1206 3584 1959 3584 
z
" transform="scale(0.015625)"/>
       <path id="DejaVuSans-70" d="M 1159 525 
L 1159 -1331 
L 581 -1331 
L 581 3500 
L 1159 3500 
L 1159 2969 
Q 1341 3281 1617 3432 
Q 1894 3584 2278 3584 
Q 2916 3584 3314 3078 
Q 3713 2572 3713 1747 
Q 3713 922 3314 415 
Q 2916 -91 2278 -91 
Q 1894 -91 1617 61 
Q 1341 213 1159 525 
z
M 3116 1747 
Q 3116 2381 2855 2742 
Q 2594 3103 2138 3103 
Q 1681 3103 1420 2742 
Q 1159 2381 1159 1747 
Q 1159 1113 1420 752 
Q 1681 391 2138 391 
Q 2594 391 2855 752 
Q 3116 1113 3116 1747 
z
" transform="scale(0.015625)"/>
       <path id="DejaVuSans-62" d="M 3116 1747 
Q 3116 2381 2855 2742 
Q 2594 3103 2138 3103 
Q 1681 3103 1420 2742 
Q 1159 2381 1159 1747 
Q 1159 1113 1420 752 
Q 1681 391 2138 391 
Q 2594 391 2855 752 
Q 3116 1113 3116 1747 
z
M 1159 2969 
Q 1341 3281 1617 3432 
Q 1894 3584 2278 3584 
Q 2916 3584 3314 3078 
Q 3713 2572 3713 1747 
Q 3713 922 3314 415 
Q 2916 -91 2278 -91 
Q 1894 -91 1617 61 
Q 1341 213 1159 525 
L 1159 0 
L 581 0 
L 581 4863 
L 1159 4863 
L 1159 2969 
z
" transform="scale(0.015625)"/>
       <path id="DejaVuSans-6c" d="M 603 4863 
L 1178 4863 
L 1178 0 
L 603 0 
L 603 4863 
z
" transform="scale(0.015625)"/>
      </defs>
      <use xlink:href="#DejaVuSans-45"/>
      <use xlink:href="#DejaVuSans-78" transform="translate(63.183594 0)"/>
      <use xlink:href="#DejaVuSans-63" transform="translate(120.613281 0)"/>
      <use xlink:href="#DejaVuSans-69" transform="translate(175.59375 0)"/>
      <use xlink:href="#DejaVuSans-74" transform="translate(203.376953 0)"/>
      <use xlink:href="#DejaVuSans-61" transform="translate(242.585938 0)"/>
      <use xlink:href="#DejaVuSans-74" transform="translate(303.865234 0)"/>
      <use xlink:href="#DejaVuSans-69" transform="translate(343.074219 0)"/>
      <use xlink:href="#DejaVuSans-6f" transform="translate(370.857422 0)"/>
      <use xlink:href="#DejaVuSans-6e" transform="translate(432.039062 0)"/>
      <use xlink:href="#DejaVuSans-20" transform="translate(495.417969 0)"/>
      <use xlink:href="#DejaVuSans-70" transform="translate(527.205078 0)"/>
      <use xlink:href="#DejaVuSans-72" transform="translate(590.681641 0)"/>
      <use xlink:href="#DejaVuSans-6f" transform="translate(629.544922 0)"/>
      <use xlink:href="#DejaVuSans-62" transform="translate(690.726562 0)"/>
      <use xlink:href="#DejaVuSans-61" transform="translate(754.203125 0)"/>
      <use xlink:href="#DejaVuSans-62" transform="translate(815.482422 0)"/>
      <use xlink:href="#DejaVuSans-69" transform="translate(878.958984 0)"/>
      <use xlink:href="#DejaVuSans-6c" transform="translate(906.742188 0)"/>
      <use xlink:href="#DejaVuSans-69" transform="translate(934.525391 0)"/>
      <use xlink:href="#DejaVuSans-74" transform="translate(962.308594 0)"/>
      <use xlink:href="#DejaVuSans-79" transform="translate(1001.517578 0)"/>
     </g>
    </g>
   </g>
   <g id="line2d_97">
    <path d="M 90.959375 440.502611 
L 92.91727 444.24447 
L 94.875164 443.816717 
L 96.833059 433.028263 
L 98.790954 460.164764 
L 100.748849 469.180057 
L 102.706743 459.597737 
L 104.664638 465.757181 
L 106.622533 460.458854 
L 108.580428 452.928639 
L 110.538322 471.969534 
L 112.496217 449.887148 
L 114.454112 439.553606 
L 116.412007 434.737675 
L 118.369901 466.118906 
L 120.327796 434.92294 
L 122.285691 472.730027 
L 124.243586 474.124384 
L 126.20148 465.989657 
L 128.159375 437.197905 
L 130.11727 451.036316 
L 132.075164 466.64634 
L 134.033059 438.495402 
L 135.990954 443.363334 
L 137.948849 474.828575 
L 139.906743 460.980127 
L 141.864638 469.788286 
L 143.822533 473.637152 
L 145.780428 451.726635 
L 147.738322 469.94158 
L 149.696217 434.314892 
L 151.654112 468.263622 
L 153.612007 441.933807 
L 155.569901 438.525482 
L 157.527796 438.347202 
L 159.485691 456.110951 
L 161.443586 458.26611 
L 163.40148 430.25104 
L 165.359375 450.859804 
L 167.31727 468.908696 
L 169.275164 435.016376 
L 171.233059 472.590529 
L 173.190954 441.847757 
L 175.148849 427.253197 
L 177.106743 424.900023 
L 179.064638 447.061679 
L 181.022533 457.970215 
L 182.980428 470.355001 
L 184.938322 428.504965 
L 186.896217 439.473386 
L 188.854112 445.986221 
L 190.812007 453.864193 
L 192.769901 427.852684 
L 194.727796 463.527659 
L 196.685691 442.227816 
L 198.643586 452.192395 
L 200.60148 442.926923 
L 202.559375 446.017074 
L 204.51727 472.64618 
L 206.475164 435.403414 
L 208.433059 444.244359 
L 210.390954 463.813768 
L 212.348849 472.42599 
L 214.306743 437.923058 
L 216.264638 447.214989 
L 218.222533 470.158242 
L 220.180428 462.896333 
L 222.138322 460.41924 
L 224.096217 471.928549 
L 226.054112 452.335436 
L 228.012007 454.100629 
L 229.969901 466.058857 
L 231.927796 445.058043 
L 233.885691 464.565905 
L 235.843586 460.980307 
L 237.80148 436.198611 
L 239.759375 425.760401 
L 241.71727 433.182966 
L 243.675164 458.009743 
L 245.633059 428.519442 
L 247.590954 461.149066 
L 249.548849 431.181073 
L 251.506743 469.467994 
L 253.464638 450.297743 
L 255.422533 441.443389 
L 257.380428 458.243535 
L 259.338322 453.464243 
L 261.296217 437.19965 
L 263.254112 434.960725 
L 265.212007 472.787934 
L 267.169901 465.302679 
L 269.127796 468.690131 
L 271.085691 460.777253 
L 273.043586 460.161673 
L 275.00148 428.784658 
L 276.959375 445.568391 
L 278.91727 435.840086 
L 280.875164 422.791856 
L 282.833059 467.16302 
L 284.790954 442.912618 
L 286.748849 454.870928 
L 288.706743 430.302436 
L 290.664638 452.146118 
L 292.622533 462.435689 
L 294.580428 449.931507 
L 296.538322 456.066672 
L 298.496217 465.564531 
L 300.454112 453.439448 
L 302.412007 432.322218 
L 304.369901 468.162275 
L 306.327796 466.593131 
L 308.285691 440.400204 
L 310.243586 459.533387 
L 312.20148 467.286587 
L 314.159375 458.342405 
L 316.11727 441.543174 
L 318.075164 468.208909 
L 320.033059 459.785973 
L 321.990954 434.798256 
L 323.948849 463.091158 
L 325.906743 449.9715 
L 327.864638 443.839874 
L 329.822533 465.708268 
L 331.780428 453.542485 
L 333.738322 465.529824 
L 335.696217 422.981569 
L 337.654112 463.657035 
L 339.612007 448.945825 
L 341.569901 462.868361 
L 343.527796 426.803651 
L 345.485691 455.312267 
L 347.443586 429.75604 
L 349.40148 451.989178 
L 351.359375 430.429766 
L 353.31727 428.132013 
L 355.275164 414.606822 
L 357.233059 430.187135 
L 359.190954 425.621604 
L 361.148849 410.871613 
L 363.106743 435.751351 
L 365.064638 418.217986 
L 367.022533 416.119804 
L 368.980428 446.151787 
L 370.938322 418.526561 
L 372.896217 419.96675 
L 374.854112 412.562824 
L 376.812007 399.705977 
L 378.769901 433.172902 
L 380.727796 443.832529 
L 382.685691 391.619303 
L 384.643586 423.864835 
L 386.60148 402.679882 
L 388.559375 393.803928 
L 390.51727 431.012123 
L 392.475164 396.411555 
L 394.433059 419.060212 
L 396.390954 415.949874 
L 398.348849 381.615614 
L 400.306743 412.450568 
L 402.264638 408.785681 
L 404.222533 398.858811 
L 406.180428 382.731185 
L 408.138322 370.815016 
L 412.054112 352.19202 
L 414.012007 362.717351 
L 415.969901 324.4931 
L 417.927796 369.272131 
L 419.885691 318.541416 
L 421.843586 342.638367 
L 423.80148 311.823772 
L 425.759375 262.849263 
L 427.71727 277.078306 
L 429.675164 257.98476 
L 431.633059 208.749539 
L 433.590954 171.104954 
L 435.548849 239.329851 
L 437.506743 188.723369 
L 439.464638 241.010565 
L 441.422533 199.375285 
L 443.380428 196.834622 
L 445.338322 134.907791 
L 447.296217 120.604541 
L 449.254112 72.10379 
L 451.212007 55.72452 
L 453.169901 43.897412 
L 455.127796 57.15242 
L 457.085691 103.189642 
L 459.043586 98.566882 
L 461.00148 61.753119 
L 462.959375 104.500175 
L 464.91727 78.801892 
L 466.875164 203.45049 
L 468.833059 285.933137 
L 470.790954 256.183304 
L 472.748849 238.145493 
L 474.706743 291.23383 
L 476.664638 305.069476 
L 478.622533 296.238435 
L 480.580428 239.024699 
L 482.538322 246.261842 
L 484.496217 176.420746 
L 486.454112 143.410559 
L 488.412007 115.178172 
L 490.369901 78.060715 
L 492.327796 24.041019 
L 494.285691 13.672634 
L 496.243586 31.551264 
L 498.20148 21.570539 
L 500.159375 43.181059 
L 502.11727 121.690443 
L 504.075164 93.130499 
L 506.033059 138.790591 
L 507.990954 100.416076 
L 509.948849 175.316316 
L 511.906743 195.679368 
L 513.864638 193.831487 
L 515.822533 267.05024 
L 517.780428 248.521246 
L 519.738322 246.387836 
L 521.696217 228.791698 
L 523.654112 288.127529 
L 525.612007 286.635682 
L 527.569901 288.287953 
L 529.527796 302.567462 
L 531.485691 341.750178 
L 533.443586 341.851237 
L 535.40148 351.067791 
L 537.359375 322.237547 
L 539.31727 373.415539 
L 541.275164 347.081074 
L 543.233059 358.242518 
L 545.190954 389.685385 
L 547.148849 398.191344 
L 549.106743 402.089917 
L 551.064638 371.537913 
L 553.022533 371.865204 
L 554.980428 393.490029 
L 556.938322 429.120518 
L 558.896217 414.732915 
L 560.854112 390.541912 
L 562.812007 394.590226 
L 564.769901 429.163045 
L 566.727796 440.678797 
L 568.685691 397.302359 
L 570.643586 442.650022 
L 572.60148 423.9981 
L 574.559375 403.610938 
L 576.51727 442.057892 
L 578.475164 445.001399 
L 580.433059 438.271121 
L 582.390954 410.379068 
L 584.348849 416.992748 
L 586.306743 439.932148 
L 588.264638 450.056769 
L 590.222533 456.290848 
L 592.180428 417.121793 
L 594.138322 432.713545 
L 596.096217 421.219258 
L 598.054112 430.204552 
L 600.012007 429.302453 
L 601.969901 427.814289 
L 603.927796 439.177538 
L 605.885691 437.005323 
L 607.843586 460.440703 
L 611.759375 423.169699 
L 613.71727 453.570171 
L 615.675164 457.386587 
L 617.633059 424.106336 
L 619.590954 423.021336 
L 621.548849 462.326491 
L 623.506743 466.44379 
L 625.464638 441.393708 
L 627.422533 425.30943 
L 629.380428 461.651434 
L 631.338322 445.271081 
L 633.296217 457.853904 
L 635.254112 461.360849 
L 637.212007 430.193554 
L 639.169901 439.038935 
L 641.127796 463.282696 
L 643.085691 423.95713 
L 645.043586 455.636605 
L 647.00148 438.38141 
L 648.959375 462.020849 
L 650.91727 452.635532 
L 652.875164 436.460083 
L 654.833059 465.90298 
L 656.790954 464.664023 
L 658.748849 459.635893 
L 660.706743 429.445464 
L 662.664638 471.63489 
L 664.622533 439.169926 
L 666.580428 469.681244 
L 668.538322 425.501427 
L 670.496217 456.684638 
L 672.454112 452.927185 
L 674.412007 459.613541 
L 676.369901 455.312672 
L 678.327796 447.38414 
L 680.285691 464.524198 
L 682.243586 424.715632 
L 684.20148 427.215743 
L 686.159375 442.658512 
L 688.11727 433.251407 
L 690.075164 470.475175 
L 692.033059 427.642084 
L 693.990954 466.669241 
L 695.948849 429.898417 
L 697.906743 436.099274 
L 699.864638 427.631251 
L 701.822533 454.994739 
L 703.780428 447.81919 
L 705.738322 446.772957 
L 707.696217 440.805409 
L 709.654112 430.327445 
L 711.612007 450.462891 
L 713.569901 429.682784 
L 715.527796 427.017231 
L 717.485691 468.825438 
L 719.443586 469.647616 
L 721.40148 455.452929 
L 723.359375 435.585543 
L 725.31727 433.733571 
L 727.275164 440.833927 
L 729.233059 470.565468 
L 731.190954 469.011425 
L 733.148849 463.364324 
L 735.106743 472.119108 
L 737.064638 451.394577 
L 739.022533 445.689724 
L 740.980428 450.308916 
L 742.938322 425.290692 
L 744.896217 468.666609 
L 746.854112 461.790768 
L 748.812007 455.853606 
L 750.769901 431.368269 
L 752.727796 456.702086 
L 754.685691 459.273711 
L 756.643586 469.819302 
L 758.60148 439.884087 
L 760.559375 449.935618 
L 762.51727 439.401467 
L 764.475164 447.041126 
L 766.433059 472.087413 
L 768.390954 448.635036 
L 770.348849 433.444411 
L 772.306743 435.748422 
L 774.264638 466.703499 
L 776.222533 461.931213 
L 778.180428 444.921086 
L 780.138322 450.277129 
L 782.096217 453.890588 
L 784.054112 443.863627 
L 786.012007 471.604872 
L 787.969901 423.050907 
L 789.927796 432.069367 
L 791.885691 444.198364 
L 793.843586 443.732859 
L 795.80148 468.47207 
L 797.759375 439.501737 
L 799.71727 424.29277 
L 801.675164 462.475359 
L 803.633059 437.857747 
L 805.590954 424.411245 
L 807.548849 427.180321 
L 809.506743 461.56076 
L 811.464638 463.118232 
L 813.422533 446.427742 
L 815.380428 444.424143 
L 817.338322 474.143094 
L 819.296217 436.274677 
L 821.254112 428.315302 
L 823.212007 448.203171 
L 825.169901 449.170154 
L 827.127796 449.201958 
L 829.085691 436.864912 
L 831.043586 453.043936 
L 833.00148 426.451938 
L 834.959375 467.732234 
L 836.91727 451.365642 
L 838.875164 428.353411 
L 840.833059 469.194395 
L 842.790954 432.510894 
L 844.748849 473.963453 
L 846.706743 471.745911 
L 850.622533 448.872076 
L 852.580428 448.427291 
L 854.538322 471.192178 
L 856.496217 435.442655 
L 858.454112 449.510721 
L 860.412007 435.246733 
L 862.369901 453.13585 
L 864.327796 426.344505 
L 866.285691 458.521355 
L 868.243586 463.013481 
L 870.20148 471.767084 
L 872.159375 467.793868 
L 872.159375 467.793868 
" clip-path="url(#p1a2348dc5e)" style="fill: none; stroke: #0000ff; stroke-width: 3; stroke-linecap: square"/>
   </g>
   <g id="line2d_98">
    <path d="M 90.959375 475.486487 
L 112.496217 475.434406 
L 134.033059 475.208067 
L 139.906743 475.013925 
L 143.822533 474.731701 
L 149.696217 474.02156 
L 151.654112 474.035955 
L 159.485691 474.793396 
L 165.359375 474.94938 
L 177.106743 474.943757 
L 194.727796 474.717103 
L 204.51727 474.39899 
L 208.433059 474.123762 
L 216.264638 473.263878 
L 218.222533 473.305433 
L 226.054112 473.944348 
L 231.927796 474.056825 
L 241.71727 473.947437 
L 251.506743 473.648595 
L 257.380428 473.323037 
L 261.296217 472.968361 
L 269.127796 472.039192 
L 271.085691 472.032398 
L 280.875164 472.484088 
L 286.748849 472.376044 
L 292.622533 472.074659 
L 298.496217 471.566719 
L 302.412007 471.054507 
L 308.285691 470.127551 
L 310.243586 469.946397 
L 314.159375 469.893031 
L 318.075164 469.882013 
L 321.990954 469.679481 
L 325.906743 469.273919 
L 329.822533 468.664538 
L 333.738322 467.837434 
L 339.612007 466.466407 
L 349.40148 464.697062 
L 351.359375 464.121059 
L 353.31727 463.417465 
L 355.275164 462.577679 
L 357.233059 461.599841 
L 361.148849 459.279205 
L 365.064638 456.560003 
L 368.980428 453.438116 
L 372.896217 450.260843 
L 382.685691 442.69793 
L 384.643586 440.780461 
L 386.60148 438.556865 
L 388.559375 435.971247 
L 390.51727 433.023968 
L 394.433059 426.393396 
L 398.348849 419.127261 
L 400.306743 415.181122 
L 402.264638 410.90473 
L 404.222533 406.191456 
L 406.180428 401.002648 
L 408.138322 395.332697 
L 410.096217 389.142162 
L 412.054112 382.422461 
L 414.012007 375.282546 
L 415.969901 367.673626 
L 417.927796 359.454282 
L 421.843586 340.904884 
L 423.80148 330.726479 
L 425.759375 319.287378 
L 427.71727 306.788045 
L 429.675164 292.628672 
L 431.633059 276.728814 
L 433.590954 259.631851 
L 435.548849 241.39566 
L 437.506743 221.741067 
L 441.422533 178.694936 
L 447.296217 112.647185 
L 449.254112 93.358701 
L 451.212007 78.682107 
L 453.169901 70.71905 
L 455.127796 70.758752 
L 457.085691 81.974666 
L 459.043586 104.536669 
L 461.00148 137.565143 
L 464.91727 216.733879 
L 466.875164 249.152361 
L 468.833059 273.309527 
L 470.790954 289.559739 
L 472.748849 298.538537 
L 474.706743 300.734983 
L 476.664638 296.285366 
L 478.622533 284.922048 
L 480.580428 266.046716 
L 482.538322 238.975225 
L 484.496217 203.412023 
L 488.412007 120.23975 
L 490.369901 86.84607 
L 492.327796 64.629783 
L 494.285691 54.557202 
L 496.243586 54.863277 
L 498.20148 64.441524 
L 500.159375 79.962895 
L 502.11727 99.170833 
L 511.906743 211.448431 
L 513.864638 231.42 
L 515.822533 249.826663 
L 517.780428 266.77686 
L 519.738322 282.389708 
L 521.696217 296.488074 
L 523.654112 309.2638 
L 527.569901 332.635275 
L 531.485691 353.663067 
L 533.443586 363.093931 
L 535.40148 371.630024 
L 537.359375 379.355299 
L 539.31727 386.434688 
L 541.275164 392.956239 
L 543.233059 398.945402 
L 545.190954 404.45124 
L 547.148849 409.526088 
L 549.106743 414.174824 
L 551.064638 418.417517 
L 554.980428 426.124478 
L 558.896217 433.303456 
L 560.854112 436.4151 
L 562.812007 439.052245 
L 564.769901 441.26068 
L 568.685691 444.965903 
L 572.60148 448.206889 
L 580.433059 454.157357 
L 588.264638 460.407553 
L 590.222533 461.640201 
L 592.180428 462.662058 
L 594.138322 463.499064 
L 596.096217 464.174889 
L 598.054112 464.70516 
L 601.969901 465.423192 
L 603.927796 465.762541 
L 607.843586 466.804192 
L 611.759375 467.871838 
L 615.675164 468.651385 
L 619.590954 469.205939 
L 623.506743 469.568668 
L 627.422533 469.696964 
L 631.338322 469.643223 
L 633.296217 469.753376 
L 637.212007 470.433985 
L 641.127796 471.088056 
L 645.043586 471.529746 
L 650.91727 471.969777 
L 658.748849 472.297637 
L 662.664638 472.307944 
L 666.580428 472.106784 
L 670.496217 471.834571 
L 672.454112 471.952763 
L 680.285691 473.028284 
L 686.159375 473.40839 
L 695.948849 473.750071 
L 707.696217 473.929506 
L 713.569901 473.80485 
L 717.485691 473.453569 
L 719.443586 473.204347 
L 721.40148 473.091283 
L 723.359375 473.259821 
L 727.275164 473.862609 
L 731.190954 474.222858 
L 737.064638 474.480364 
L 748.812007 474.719897 
L 768.390954 474.882723 
L 776.222533 474.748224 
L 780.138322 474.428615 
L 784.054112 473.852356 
L 786.012007 473.871026 
L 791.885691 474.745055 
L 795.80148 474.99806 
L 803.633059 475.196311 
L 823.212007 475.374788 
L 846.706743 475.414042 
L 852.580428 475.27614 
L 856.496217 474.93076 
L 860.412007 474.244726 
L 862.369901 474.342281 
L 866.285691 475.064355 
L 870.20148 475.381813 
L 872.159375 475.457646 
L 872.159375 475.457646 
" clip-path="url(#p1a2348dc5e)" style="fill: none; stroke: #ffa500; stroke-width: 3; stroke-linecap: square"/>
   </g>
   <g id="patch_53">
    <path d="M 90.959375 476.36 
L 90.959375 32.84 
" style="fill: none; stroke: #000000; stroke-linejoin: miter; stroke-linecap: square"/>
   </g>
   <g id="patch_54">
    <path d="M 872.159375 476.36 
L 872.159375 32.84 
" style="fill: none; stroke: #000000; stroke-linejoin: miter; stroke-linecap: square"/>
   </g>
   <g id="patch_55">
    <path d="M 90.959375 476.36 
L 872.159375 476.36 
" style="fill: none; stroke: #000000; stroke-linejoin: miter; stroke-linecap: square"/>
   </g>
   <g id="patch_56">
    <path d="M 90.959375 32.84 
L 872.159375 32.84 
" style="fill: none; stroke: #000000; stroke-linejoin: miter; stroke-linecap: square"/>
   </g>
   <g id="text_15">
    <!-- CaH$^+$ hyperfine spectrum at B=3.27 G -->
    <g transform="translate(208.139375 26.84) scale(0.28 -0.28)">
     <defs>
      <path id="DejaVuSans-43" d="M 4122 4306 
L 4122 3641 
Q 3803 3938 3442 4084 
Q 3081 4231 2675 4231 
Q 1875 4231 1450 3742 
Q 1025 3253 1025 2328 
Q 1025 1406 1450 917 
Q 1875 428 2675 428 
Q 3081 428 3442 575 
Q 3803 722 4122 1019 
L 4122 359 
Q 3791 134 3420 21 
Q 3050 -91 2638 -91 
Q 1578 -91 968 557 
Q 359 1206 359 2328 
Q 359 3453 968 4101 
Q 1578 4750 2638 4750 
Q 3056 4750 3426 4639 
Q 3797 4528 4122 4306 
z
" transform="scale(0.015625)"/>
      <path id="DejaVuSans-2b" d="M 2944 4013 
L 2944 2272 
L 4684 2272 
L 4684 1741 
L 2944 1741 
L 2944 0 
L 2419 0 
L 2419 1741 
L 678 1741 
L 678 2272 
L 2419 2272 
L 2419 4013 
L 2944 4013 
z
" transform="scale(0.015625)"/>
      <path id="DejaVuSans-68" d="M 3513 2113 
L 3513 0 
L 2938 0 
L 2938 2094 
Q 2938 2591 2744 2837 
Q 2550 3084 2163 3084 
Q 1697 3084 1428 2787 
Q 1159 2491 1159 1978 
L 1159 0 
L 581 0 
L 581 4863 
L 1159 4863 
L 1159 2956 
Q 1366 3272 1645 3428 
Q 1925 3584 2291 3584 
Q 2894 3584 3203 3211 
Q 3513 2838 3513 2113 
z
" transform="scale(0.015625)"/>
      <path id="DejaVuSans-66" d="M 2375 4863 
L 2375 4384 
L 1825 4384 
Q 1516 4384 1395 4259 
Q 1275 4134 1275 3809 
L 1275 3500 
L 2222 3500 
L 2222 3053 
L 1275 3053 
L 1275 0 
L 697 0 
L 697 3053 
L 147 3053 
L 147 3500 
L 697 3500 
L 697 3744 
Q 697 4328 969 4595 
Q 1241 4863 1831 4863 
L 2375 4863 
z
" transform="scale(0.015625)"/>
      <path id="DejaVuSans-73" d="M 2834 3397 
L 2834 2853 
Q 2591 2978 2328 3040 
Q 2066 3103 1784 3103 
Q 1356 3103 1142 2972 
Q 928 2841 928 2578 
Q 928 2378 1081 2264 
Q 1234 2150 1697 2047 
L 1894 2003 
Q 2506 1872 2764 1633 
Q 3022 1394 3022 966 
Q 3022 478 2636 193 
Q 2250 -91 1575 -91 
Q 1294 -91 989 -36 
Q 684 19 347 128 
L 347 722 
Q 666 556 975 473 
Q 1284 391 1588 391 
Q 1994 391 2212 530 
Q 2431 669 2431 922 
Q 2431 1156 2273 1281 
Q 2116 1406 1581 1522 
L 1381 1569 
Q 847 1681 609 1914 
Q 372 2147 372 2553 
Q 372 3047 722 3315 
Q 1072 3584 1716 3584 
Q 2034 3584 2315 3537 
Q 2597 3491 2834 3397 
z
" transform="scale(0.015625)"/>
      <path id="DejaVuSans-6d" d="M 3328 2828 
Q 3544 3216 3844 3400 
Q 4144 3584 4550 3584 
Q 5097 3584 5394 3201 
Q 5691 2819 5691 2113 
L 5691 0 
L 5113 0 
L 5113 2094 
Q 5113 2597 4934 2840 
Q 4756 3084 4391 3084 
Q 3944 3084 3684 2787 
Q 3425 2491 3425 1978 
L 3425 0 
L 2847 0 
L 2847 2094 
Q 2847 2600 2669 2842 
Q 2491 3084 2119 3084 
Q 1678 3084 1418 2786 
Q 1159 2488 1159 1978 
L 1159 0 
L 581 0 
L 581 3500 
L 1159 3500 
L 1159 2956 
Q 1356 3278 1631 3431 
Q 1906 3584 2284 3584 
Q 2666 3584 2933 3390 
Q 3200 3197 3328 2828 
z
" transform="scale(0.015625)"/>
      <path id="DejaVuSans-42" d="M 1259 2228 
L 1259 519 
L 2272 519 
Q 2781 519 3026 730 
Q 3272 941 3272 1375 
Q 3272 1813 3026 2020 
Q 2781 2228 2272 2228 
L 1259 2228 
z
M 1259 4147 
L 1259 2741 
L 2194 2741 
Q 2656 2741 2882 2914 
Q 3109 3088 3109 3444 
Q 3109 3797 2882 3972 
Q 2656 4147 2194 4147 
L 1259 4147 
z
M 628 4666 
L 2241 4666 
Q 2963 4666 3353 4366 
Q 3744 4066 3744 3513 
Q 3744 3084 3544 2831 
Q 3344 2578 2956 2516 
Q 3422 2416 3680 2098 
Q 3938 1781 3938 1306 
Q 3938 681 3513 340 
Q 3088 0 2303 0 
L 628 0 
L 628 4666 
z
" transform="scale(0.015625)"/>
      <path id="DejaVuSans-3d" d="M 678 2906 
L 4684 2906 
L 4684 2381 
L 678 2381 
L 678 2906 
z
M 678 1631 
L 4684 1631 
L 4684 1100 
L 678 1100 
L 678 1631 
z
" transform="scale(0.015625)"/>
      <path id="DejaVuSans-33" d="M 2597 2516 
Q 3050 2419 3304 2112 
Q 3559 1806 3559 1356 
Q 3559 666 3084 287 
Q 2609 -91 1734 -91 
Q 1441 -91 1130 -33 
Q 819 25 488 141 
L 488 750 
Q 750 597 1062 519 
Q 1375 441 1716 441 
Q 2309 441 2620 675 
Q 2931 909 2931 1356 
Q 2931 1769 2642 2001 
Q 2353 2234 1838 2234 
L 1294 2234 
L 1294 2753 
L 1863 2753 
Q 2328 2753 2575 2939 
Q 2822 3125 2822 3475 
Q 2822 3834 2567 4026 
Q 2313 4219 1838 4219 
Q 1578 4219 1281 4162 
Q 984 4106 628 3988 
L 628 4550 
Q 988 4650 1302 4700 
Q 1616 4750 1894 4750 
Q 2613 4750 3031 4423 
Q 3450 4097 3450 3541 
Q 3450 3153 3228 2886 
Q 3006 2619 2597 2516 
z
" transform="scale(0.015625)"/>
      <path id="DejaVuSans-37" d="M 525 4666 
L 3525 4666 
L 3525 4397 
L 1831 0 
L 1172 0 
L 2766 4134 
L 525 4134 
L 525 4666 
z
" transform="scale(0.015625)"/>
      <path id="DejaVuSans-47" d="M 3809 666 
L 3809 1919 
L 2778 1919 
L 2778 2438 
L 4434 2438 
L 4434 434 
Q 4069 175 3628 42 
Q 3188 -91 2688 -91 
Q 1594 -91 976 548 
Q 359 1188 359 2328 
Q 359 3472 976 4111 
Q 1594 4750 2688 4750 
Q 3144 4750 3555 4637 
Q 3966 4525 4313 4306 
L 4313 3634 
Q 3963 3931 3569 4081 
Q 3175 4231 2741 4231 
Q 1884 4231 1454 3753 
Q 1025 3275 1025 2328 
Q 1025 1384 1454 906 
Q 1884 428 2741 428 
Q 3075 428 3337 486 
Q 3600 544 3809 666 
z
" transform="scale(0.015625)"/>
     </defs>
     <use xlink:href="#DejaVuSans-43" transform="translate(0 0.826562)"/>
     <use xlink:href="#DejaVuSans-61" transform="translate(69.824219 0.826562)"/>
     <use xlink:href="#DejaVuSans-48" transform="translate(131.103516 0.826562)"/>
     <use xlink:href="#DejaVuSans-2b" transform="translate(220.893555 39.107812) scale(0.7)"/>
     <use xlink:href="#DejaVuSans-20" transform="translate(295.917969 0.826562)"/>
     <use xlink:href="#DejaVuSans-68" transform="translate(327.705078 0.826562)"/>
     <use xlink:href="#DejaVuSans-79" transform="translate(391.083984 0.826562)"/>
     <use xlink:href="#DejaVuSans-70" transform="translate(450.263672 0.826562)"/>
     <use xlink:href="#DejaVuSans-65" transform="translate(513.740234 0.826562)"/>
     <use xlink:href="#DejaVuSans-72" transform="translate(575.263672 0.826562)"/>
     <use xlink:href="#DejaVuSans-66" transform="translate(616.376953 0.826562)"/>
     <use xlink:href="#DejaVuSans-69" transform="translate(651.582031 0.826562)"/>
     <use xlink:href="#DejaVuSans-6e" transform="translate(679.365234 0.826562)"/>
     <use xlink:href="#DejaVuSans-65" transform="translate(742.744141 0.826562)"/>
     <use xlink:href="#DejaVuSans-20" transform="translate(804.267578 0.826562)"/>
     <use xlink:href="#DejaVuSans-73" transform="translate(836.054688 0.826562)"/>
     <use xlink:href="#DejaVuSans-70" transform="translate(888.154297 0.826562)"/>
     <use xlink:href="#DejaVuSans-65" transform="translate(951.630859 0.826562)"/>
     <use xlink:href="#DejaVuSans-63" transform="translate(1013.154297 0.826562)"/>
     <use xlink:href="#DejaVuSans-74" transform="translate(1068.134766 0.826562)"/>
     <use xlink:href="#DejaVuSans-72" transform="translate(1107.34375 0.826562)"/>
     <use xlink:href="#DejaVuSans-75" transform="translate(1148.457031 0.826562)"/>
     <use xlink:href="#DejaVuSans-6d" transform="translate(1211.835938 0.826562)"/>
     <use xlink:href="#DejaVuSans-20" transform="translate(1309.248047 0.826562)"/>
     <use xlink:href="#DejaVuSans-61" transform="translate(1341.035156 0.826562)"/>
     <use xlink:href="#DejaVuSans-74" transform="translate(1402.314453 0.826562)"/>
     <use xlink:href="#DejaVuSans-20" transform="translate(1441.523438 0.826562)"/>
     <use xlink:href="#DejaVuSans-42" transform="translate(1473.310547 0.826562)"/>
     <use xlink:href="#DejaVuSans-3d" transform="translate(1541.914062 0.826562)"/>
     <use xlink:href="#DejaVuSans-33" transform="translate(1625.703125 0.826562)"/>
     <use xlink:href="#DejaVuSans-2e" transform="translate(1689.326172 0.826562)"/>
     <use xlink:href="#DejaVuSans-32" transform="translate(1715.613281 0.826562)"/>
     <use xlink:href="#DejaVuSans-37" transform="translate(1779.236328 0.826562)"/>
     <use xlink:href="#DejaVuSans-20" transform="translate(1842.859375 0.826562)"/>
     <use xlink:href="#DejaVuSans-47" transform="translate(1874.646484 0.826562)"/>
    </g>
   </g>
   <g id="legend_1">
    <g id="line2d_99">
     <path d="M 555.882031 65.586094 
L 580.882031 65.586094 
L 605.882031 65.586094 
" style="fill: none; stroke: #0000ff; stroke-width: 3; stroke-linecap: square"/>
    </g>
    <g id="text_16">
     <!-- w/ imperfections -->
     <g transform="translate(625.882031 74.336094) scale(0.25 -0.25)">
      <defs>
       <path id="DejaVuSans-77" d="M 269 3500 
L 844 3500 
L 1563 769 
L 2278 3500 
L 2956 3500 
L 3675 769 
L 4391 3500 
L 4966 3500 
L 4050 0 
L 3372 0 
L 2619 2869 
L 1863 0 
L 1184 0 
L 269 3500 
z
" transform="scale(0.015625)"/>
       <path id="DejaVuSans-2f" d="M 1625 4666 
L 2156 4666 
L 531 -594 
L 0 -594 
L 1625 4666 
z
" transform="scale(0.015625)"/>
      </defs>
      <use xlink:href="#DejaVuSans-77"/>
      <use xlink:href="#DejaVuSans-2f" transform="translate(81.787109 0)"/>
      <use xlink:href="#DejaVuSans-20" transform="translate(115.478516 0)"/>
      <use xlink:href="#DejaVuSans-69" transform="translate(147.265625 0)"/>
      <use xlink:href="#DejaVuSans-6d" transform="translate(175.048828 0)"/>
      <use xlink:href="#DejaVuSans-70" transform="translate(272.460938 0)"/>
      <use xlink:href="#DejaVuSans-65" transform="translate(335.9375 0)"/>
      <use xlink:href="#DejaVuSans-72" transform="translate(397.460938 0)"/>
      <use xlink:href="#DejaVuSans-66" transform="translate(438.574219 0)"/>
      <use xlink:href="#DejaVuSans-65" transform="translate(473.779297 0)"/>
      <use xlink:href="#DejaVuSans-63" transform="translate(535.302734 0)"/>
      <use xlink:href="#DejaVuSans-74" transform="translate(590.283203 0)"/>
      <use xlink:href="#DejaVuSans-69" transform="translate(629.492188 0)"/>
      <use xlink:href="#DejaVuSans-6f" transform="translate(657.275391 0)"/>
      <use xlink:href="#DejaVuSans-6e" transform="translate(718.457031 0)"/>
      <use xlink:href="#DejaVuSans-73" transform="translate(781.835938 0)"/>
     </g>
    </g>
    <g id="line2d_100">
     <path d="M 555.882031 102.281406 
L 580.882031 102.281406 
L 605.882031 102.281406 
" style="fill: none; stroke: #ffa500; stroke-width: 3; stroke-linecap: square"/>
    </g>
    <g id="text_17">
     <!-- w/o imperfections -->
     <g transform="translate(625.882031 111.031406) scale(0.25 -0.25)">
      <use xlink:href="#DejaVuSans-77"/>
      <use xlink:href="#DejaVuSans-2f" transform="translate(81.787109 0)"/>
      <use xlink:href="#DejaVuSans-6f" transform="translate(115.478516 0)"/>
      <use xlink:href="#DejaVuSans-20" transform="translate(176.660156 0)"/>
      <use xlink:href="#DejaVuSans-69" transform="translate(208.447266 0)"/>
      <use xlink:href="#DejaVuSans-6d" transform="translate(236.230469 0)"/>
      <use xlink:href="#DejaVuSans-70" transform="translate(333.642578 0)"/>
      <use xlink:href="#DejaVuSans-65" transform="translate(397.119141 0)"/>
      <use xlink:href="#DejaVuSans-72" transform="translate(458.642578 0)"/>
      <use xlink:href="#DejaVuSans-66" transform="translate(499.755859 0)"/>
      <use xlink:href="#DejaVuSans-65" transform="translate(534.960938 0)"/>
      <use xlink:href="#DejaVuSans-63" transform="translate(596.484375 0)"/>
      <use xlink:href="#DejaVuSans-74" transform="translate(651.464844 0)"/>
      <use xlink:href="#DejaVuSans-69" transform="translate(690.673828 0)"/>
      <use xlink:href="#DejaVuSans-6f" transform="translate(718.457031 0)"/>
      <use xlink:href="#DejaVuSans-6e" transform="translate(779.638672 0)"/>
      <use xlink:href="#DejaVuSans-73" transform="translate(843.017578 0)"/>
     </g>
    </g>
    <g id="patch_57">
     <path d="M 555.882031 147.726719 
L 605.882031 147.726719 
L 605.882031 130.226719 
L 555.882031 130.226719 
z
" style="fill: #ff0000; opacity: 0.1"/>
    </g>
    <g id="text_18">
     <!-- Sign. Trans. -->
     <g transform="translate(625.882031 147.726719) scale(0.25 -0.25)">
      <defs>
       <path id="DejaVuSans-53" d="M 3425 4513 
L 3425 3897 
Q 3066 4069 2747 4153 
Q 2428 4238 2131 4238 
Q 1616 4238 1336 4038 
Q 1056 3838 1056 3469 
Q 1056 3159 1242 3001 
Q 1428 2844 1947 2747 
L 2328 2669 
Q 3034 2534 3370 2195 
Q 3706 1856 3706 1288 
Q 3706 609 3251 259 
Q 2797 -91 1919 -91 
Q 1588 -91 1214 -16 
Q 841 59 441 206 
L 441 856 
Q 825 641 1194 531 
Q 1563 422 1919 422 
Q 2459 422 2753 634 
Q 3047 847 3047 1241 
Q 3047 1584 2836 1778 
Q 2625 1972 2144 2069 
L 1759 2144 
Q 1053 2284 737 2584 
Q 422 2884 422 3419 
Q 422 4038 858 4394 
Q 1294 4750 2059 4750 
Q 2388 4750 2728 4690 
Q 3069 4631 3425 4513 
z
" transform="scale(0.015625)"/>
       <path id="DejaVuSans-67" d="M 2906 1791 
Q 2906 2416 2648 2759 
Q 2391 3103 1925 3103 
Q 1463 3103 1205 2759 
Q 947 2416 947 1791 
Q 947 1169 1205 825 
Q 1463 481 1925 481 
Q 2391 481 2648 825 
Q 2906 1169 2906 1791 
z
M 3481 434 
Q 3481 -459 3084 -895 
Q 2688 -1331 1869 -1331 
Q 1566 -1331 1297 -1286 
Q 1028 -1241 775 -1147 
L 775 -588 
Q 1028 -725 1275 -790 
Q 1522 -856 1778 -856 
Q 2344 -856 2625 -561 
Q 2906 -266 2906 331 
L 2906 616 
Q 2728 306 2450 153 
Q 2172 0 1784 0 
Q 1141 0 747 490 
Q 353 981 353 1791 
Q 353 2603 747 3093 
Q 1141 3584 1784 3584 
Q 2172 3584 2450 3431 
Q 2728 3278 2906 2969 
L 2906 3500 
L 3481 3500 
L 3481 434 
z
" transform="scale(0.015625)"/>
       <path id="DejaVuSans-54" d="M -19 4666 
L 3928 4666 
L 3928 4134 
L 2272 4134 
L 2272 0 
L 1638 0 
L 1638 4134 
L -19 4134 
L -19 4666 
z
" transform="scale(0.015625)"/>
      </defs>
      <use xlink:href="#DejaVuSans-53"/>
      <use xlink:href="#DejaVuSans-69" transform="translate(63.476562 0)"/>
      <use xlink:href="#DejaVuSans-67" transform="translate(91.259766 0)"/>
      <use xlink:href="#DejaVuSans-6e" transform="translate(154.736328 0)"/>
      <use xlink:href="#DejaVuSans-2e" transform="translate(218.115234 0)"/>
      <use xlink:href="#DejaVuSans-20" transform="translate(249.902344 0)"/>
      <use xlink:href="#DejaVuSans-54" transform="translate(281.689453 0)"/>
      <use xlink:href="#DejaVuSans-72" transform="translate(328.023438 0)"/>
      <use xlink:href="#DejaVuSans-61" transform="translate(369.136719 0)"/>
      <use xlink:href="#DejaVuSans-6e" transform="translate(430.416016 0)"/>
      <use xlink:href="#DejaVuSans-73" transform="translate(493.794922 0)"/>
      <use xlink:href="#DejaVuSans-2e" transform="translate(545.894531 0)"/>
     </g>
    </g>
   </g>
  </g>
 </g>
 <defs>
  <clipPath id="p1a2348dc5e">
   <rect x="90.959375" y="32.84" width="781.2" height="443.52"/>
  </clipPath>
 </defs>
</svg>
