<?xml version="1.0" encoding="utf-8" standalone="no"?>
<!DOCTYPE svg PUBLIC "-//W3C//DTD SVG 1.1//EN"
  "http://www.w3.org/Graphics/SVG/1.1/DTD/svg11.dtd">
<svg xmlns:xlink="http://www.w3.org/1999/xlink" width="493.830625pt" height="277.730625pt" viewBox="0 0 493.830625 277.730625" xmlns="http://www.w3.org/2000/svg" version="1.1">
 <metadata>
  <rdf:RDF xmlns:dc="http://purl.org/dc/elements/1.1/" xmlns:cc="http://creativecommons.org/ns#" xmlns:rdf="http://www.w3.org/1999/02/22-rdf-syntax-ns#">
   <cc:Work>
    <dc:type rdf:resource="http://purl.org/dc/dcmitype/StillImage"/>
    <dc:date>2026-02-28T14:37:19.520821</dc:date>
    <dc:format>image/svg+xml</dc:format>
    <dc:creator>
     <cc:Agent>
      <dc:title>Matplotlib v3.10.3, https://matplotlib.org/</dc:title>
     </cc:Agent>
    </dc:creator>
   </cc:Work>
  </rdf:RDF>
 </metadata>
 <defs>
  <style type="text/css">*{stroke-linejoin: round; stroke-linecap: butt}</style>
 </defs>
 <g id="figure_1">
  <g id="patch_1">
   <path d="M 0 277.730625 
L 493.830625 277.730625 
L 493.830625 0 
L 0 0 
z
" style="fill: #ffffff"/>
  </g>
  <g id="axes_1">
   <g id="patch_2">
    <path d="M 63.765625 225.799375 
L 490.230625 225.799375 
L 490.230625 26.959375 
L 63.765625 26.959375 
z
" style="fill: #ffffff"/>
   </g>
   <g id="patch_3">
    <path d="M 83.150398 225.799375 
L 87.066513 225.799375 
L 87.066513 36.427946 
L 83.150398 36.427946 
z
" clip-path="url(#p4fbc4fa077)" style="fill: #1f77b4; opacity: 0.6; stroke: #000000; stroke-linejoin: miter"/>
   </g>
   <g id="patch_4">
    <path d="M 87.066513 225.799375 
L 90.982629 225.799375 
L 90.982629 187.925089 
L 87.066513 187.925089 
z
" clip-path="url(#p4fbc4fa077)" style="fill: #1f77b4; opacity: 0.6; stroke: #000000; stroke-linejoin: miter"/>
   </g>
   <g id="patch_5">
    <path d="M 90.982629 225.799375 
L 94.898745 225.799375 
L 94.898745 198.211932 
L 90.982629 198.211932 
z
" clip-path="url(#p4fbc4fa077)" style="fill: #1f77b4; opacity: 0.6; stroke: #000000; stroke-linejoin: miter"/>
   </g>
   <g id="patch_6">
    <path d="M 94.898745 225.799375 
L 98.814861 225.799375 
L 98.814861 186.989922 
L 94.898745 186.989922 
z
" clip-path="url(#p4fbc4fa077)" style="fill: #1f77b4; opacity: 0.6; stroke: #000000; stroke-linejoin: miter"/>
   </g>
   <g id="patch_7">
    <path d="M 98.814861 225.799375 
L 102.730976 225.799375 
L 102.730976 195.874013 
L 98.814861 195.874013 
z
" clip-path="url(#p4fbc4fa077)" style="fill: #1f77b4; opacity: 0.6; stroke: #000000; stroke-linejoin: miter"/>
   </g>
   <g id="patch_8">
    <path d="M 102.730976 225.799375 
L 106.647092 225.799375 
L 106.647092 211.304278 
L 102.730976 211.304278 
z
" clip-path="url(#p4fbc4fa077)" style="fill: #1f77b4; opacity: 0.6; stroke: #000000; stroke-linejoin: miter"/>
   </g>
   <g id="patch_9">
    <path d="M 106.647092 225.799375 
L 110.563208 225.799375 
L 110.563208 213.642197 
L 106.647092 213.642197 
z
" clip-path="url(#p4fbc4fa077)" style="fill: #1f77b4; opacity: 0.6; stroke: #000000; stroke-linejoin: miter"/>
   </g>
   <g id="patch_10">
    <path d="M 110.563208 225.799375 
L 114.479323 225.799375 
L 114.479323 215.044948 
L 110.563208 215.044948 
z
" clip-path="url(#p4fbc4fa077)" style="fill: #1f77b4; opacity: 0.6; stroke: #000000; stroke-linejoin: miter"/>
   </g>
   <g id="patch_11">
    <path d="M 114.479323 225.799375 
L 118.395439 225.799375 
L 118.395439 213.642197 
L 114.479323 213.642197 
z
" clip-path="url(#p4fbc4fa077)" style="fill: #1f77b4; opacity: 0.6; stroke: #000000; stroke-linejoin: miter"/>
   </g>
   <g id="patch_12">
    <path d="M 118.395439 225.799375 
L 122.311555 225.799375 
L 122.311555 221.123537 
L 118.395439 221.123537 
z
" clip-path="url(#p4fbc4fa077)" style="fill: #1f77b4; opacity: 0.6; stroke: #000000; stroke-linejoin: miter"/>
   </g>
   <g id="patch_13">
    <path d="M 122.311555 225.799375 
L 126.22767 225.799375 
L 126.22767 225.799375 
L 122.311555 225.799375 
z
" clip-path="url(#p4fbc4fa077)" style="fill: #1f77b4; opacity: 0.6; stroke: #000000; stroke-linejoin: miter"/>
   </g>
   <g id="patch_14">
    <path d="M 126.22767 225.799375 
L 130.143786 225.799375 
L 130.143786 224.864207 
L 126.22767 224.864207 
z
" clip-path="url(#p4fbc4fa077)" style="fill: #1f77b4; opacity: 0.6; stroke: #000000; stroke-linejoin: miter"/>
   </g>
   <g id="patch_15">
    <path d="M 130.143786 225.799375 
L 134.059902 225.799375 
L 134.059902 224.864207 
L 130.143786 224.864207 
z
" clip-path="url(#p4fbc4fa077)" style="fill: #1f77b4; opacity: 0.6; stroke: #000000; stroke-linejoin: miter"/>
   </g>
   <g id="patch_16">
    <path d="M 134.059902 225.799375 
L 137.976018 225.799375 
L 137.976018 220.18837 
L 134.059902 220.18837 
z
" clip-path="url(#p4fbc4fa077)" style="fill: #1f77b4; opacity: 0.6; stroke: #000000; stroke-linejoin: miter"/>
   </g>
   <g id="patch_17">
    <path d="M 137.976018 225.799375 
L 141.892133 225.799375 
L 141.892133 222.058705 
L 137.976018 222.058705 
z
" clip-path="url(#p4fbc4fa077)" style="fill: #1f77b4; opacity: 0.6; stroke: #000000; stroke-linejoin: miter"/>
   </g>
   <g id="patch_18">
    <path d="M 141.892133 225.799375 
L 145.808249 225.799375 
L 145.808249 225.331791 
L 141.892133 225.331791 
z
" clip-path="url(#p4fbc4fa077)" style="fill: #1f77b4; opacity: 0.6; stroke: #000000; stroke-linejoin: miter"/>
   </g>
   <g id="patch_19">
    <path d="M 145.808249 225.799375 
L 149.724365 225.799375 
L 149.724365 224.864207 
L 145.808249 224.864207 
z
" clip-path="url(#p4fbc4fa077)" style="fill: #1f77b4; opacity: 0.6; stroke: #000000; stroke-linejoin: miter"/>
   </g>
   <g id="patch_20">
    <path d="M 149.724365 225.799375 
L 153.64048 225.799375 
L 153.64048 225.331791 
L 149.724365 225.331791 
z
" clip-path="url(#p4fbc4fa077)" style="fill: #1f77b4; opacity: 0.6; stroke: #000000; stroke-linejoin: miter"/>
   </g>
   <g id="patch_21">
    <path d="M 153.64048 225.799375 
L 157.556596 225.799375 
L 157.556596 225.331791 
L 153.64048 225.331791 
z
" clip-path="url(#p4fbc4fa077)" style="fill: #1f77b4; opacity: 0.6; stroke: #000000; stroke-linejoin: miter"/>
   </g>
   <g id="patch_22">
    <path d="M 157.556596 225.799375 
L 161.472712 225.799375 
L 161.472712 225.331791 
L 157.556596 225.331791 
z
" clip-path="url(#p4fbc4fa077)" style="fill: #1f77b4; opacity: 0.6; stroke: #000000; stroke-linejoin: miter"/>
   </g>
   <g id="patch_23">
    <path d="M 161.472712 225.799375 
L 165.388827 225.799375 
L 165.388827 225.331791 
L 161.472712 225.331791 
z
" clip-path="url(#p4fbc4fa077)" style="fill: #1f77b4; opacity: 0.6; stroke: #000000; stroke-linejoin: miter"/>
   </g>
   <g id="patch_24">
    <path d="M 165.388827 225.799375 
L 169.304943 225.799375 
L 169.304943 223.92904 
L 165.388827 223.92904 
z
" clip-path="url(#p4fbc4fa077)" style="fill: #1f77b4; opacity: 0.6; stroke: #000000; stroke-linejoin: miter"/>
   </g>
   <g id="patch_25">
    <path d="M 169.304943 225.799375 
L 173.221059 225.799375 
L 173.221059 225.799375 
L 169.304943 225.799375 
z
" clip-path="url(#p4fbc4fa077)" style="fill: #1f77b4; opacity: 0.6; stroke: #000000; stroke-linejoin: miter"/>
   </g>
   <g id="patch_26">
    <path d="M 173.221059 225.799375 
L 177.137175 225.799375 
L 177.137175 225.331791 
L 173.221059 225.331791 
z
" clip-path="url(#p4fbc4fa077)" style="fill: #1f77b4; opacity: 0.6; stroke: #000000; stroke-linejoin: miter"/>
   </g>
   <g id="patch_27">
    <path d="M 177.137175 225.799375 
L 181.05329 225.799375 
L 181.05329 225.799375 
L 177.137175 225.799375 
z
" clip-path="url(#p4fbc4fa077)" style="fill: #1f77b4; opacity: 0.6; stroke: #000000; stroke-linejoin: miter"/>
   </g>
   <g id="patch_28">
    <path d="M 181.05329 225.799375 
L 184.969406 225.799375 
L 184.969406 225.799375 
L 181.05329 225.799375 
z
" clip-path="url(#p4fbc4fa077)" style="fill: #1f77b4; opacity: 0.6; stroke: #000000; stroke-linejoin: miter"/>
   </g>
   <g id="patch_29">
    <path d="M 184.969406 225.799375 
L 188.885522 225.799375 
L 188.885522 225.331791 
L 184.969406 225.331791 
z
" clip-path="url(#p4fbc4fa077)" style="fill: #1f77b4; opacity: 0.6; stroke: #000000; stroke-linejoin: miter"/>
   </g>
   <g id="patch_30">
    <path d="M 188.885522 225.799375 
L 192.801637 225.799375 
L 192.801637 225.799375 
L 188.885522 225.799375 
z
" clip-path="url(#p4fbc4fa077)" style="fill: #1f77b4; opacity: 0.6; stroke: #000000; stroke-linejoin: miter"/>
   </g>
   <g id="patch_31">
    <path d="M 192.801637 225.799375 
L 196.717753 225.799375 
L 196.717753 225.799375 
L 192.801637 225.799375 
z
" clip-path="url(#p4fbc4fa077)" style="fill: #1f77b4; opacity: 0.6; stroke: #000000; stroke-linejoin: miter"/>
   </g>
   <g id="patch_32">
    <path d="M 196.717753 225.799375 
L 200.633869 225.799375 
L 200.633869 225.799375 
L 196.717753 225.799375 
z
" clip-path="url(#p4fbc4fa077)" style="fill: #1f77b4; opacity: 0.6; stroke: #000000; stroke-linejoin: miter"/>
   </g>
   <g id="patch_33">
    <path d="M 200.633869 225.799375 
L 204.549985 225.799375 
L 204.549985 224.396624 
L 200.633869 224.396624 
z
" clip-path="url(#p4fbc4fa077)" style="fill: #1f77b4; opacity: 0.6; stroke: #000000; stroke-linejoin: miter"/>
   </g>
   <g id="patch_34">
    <path d="M 204.549985 225.799375 
L 208.4661 225.799375 
L 208.4661 225.799375 
L 204.549985 225.799375 
z
" clip-path="url(#p4fbc4fa077)" style="fill: #1f77b4; opacity: 0.6; stroke: #000000; stroke-linejoin: miter"/>
   </g>
   <g id="patch_35">
    <path d="M 208.4661 225.799375 
L 212.382216 225.799375 
L 212.382216 225.331791 
L 208.4661 225.331791 
z
" clip-path="url(#p4fbc4fa077)" style="fill: #1f77b4; opacity: 0.6; stroke: #000000; stroke-linejoin: miter"/>
   </g>
   <g id="patch_36">
    <path d="M 212.382216 225.799375 
L 216.298332 225.799375 
L 216.298332 225.799375 
L 212.382216 225.799375 
z
" clip-path="url(#p4fbc4fa077)" style="fill: #1f77b4; opacity: 0.6; stroke: #000000; stroke-linejoin: miter"/>
   </g>
   <g id="patch_37">
    <path d="M 216.298332 225.799375 
L 220.214447 225.799375 
L 220.214447 225.799375 
L 216.298332 225.799375 
z
" clip-path="url(#p4fbc4fa077)" style="fill: #1f77b4; opacity: 0.6; stroke: #000000; stroke-linejoin: miter"/>
   </g>
   <g id="patch_38">
    <path d="M 220.214447 225.799375 
L 224.130563 225.799375 
L 224.130563 225.799375 
L 220.214447 225.799375 
z
" clip-path="url(#p4fbc4fa077)" style="fill: #1f77b4; opacity: 0.6; stroke: #000000; stroke-linejoin: miter"/>
   </g>
   <g id="patch_39">
    <path d="M 224.130563 225.799375 
L 228.046679 225.799375 
L 228.046679 225.799375 
L 224.130563 225.799375 
z
" clip-path="url(#p4fbc4fa077)" style="fill: #1f77b4; opacity: 0.6; stroke: #000000; stroke-linejoin: miter"/>
   </g>
   <g id="patch_40">
    <path d="M 228.046679 225.799375 
L 231.962794 225.799375 
L 231.962794 225.799375 
L 228.046679 225.799375 
z
" clip-path="url(#p4fbc4fa077)" style="fill: #1f77b4; opacity: 0.6; stroke: #000000; stroke-linejoin: miter"/>
   </g>
   <g id="patch_41">
    <path d="M 231.962794 225.799375 
L 235.87891 225.799375 
L 235.87891 225.799375 
L 231.962794 225.799375 
z
" clip-path="url(#p4fbc4fa077)" style="fill: #1f77b4; opacity: 0.6; stroke: #000000; stroke-linejoin: miter"/>
   </g>
   <g id="patch_42">
    <path d="M 235.87891 225.799375 
L 239.795026 225.799375 
L 239.795026 225.799375 
L 235.87891 225.799375 
z
" clip-path="url(#p4fbc4fa077)" style="fill: #1f77b4; opacity: 0.6; stroke: #000000; stroke-linejoin: miter"/>
   </g>
   <g id="patch_43">
    <path d="M 239.795026 225.799375 
L 243.711142 225.799375 
L 243.711142 225.799375 
L 239.795026 225.799375 
z
" clip-path="url(#p4fbc4fa077)" style="fill: #1f77b4; opacity: 0.6; stroke: #000000; stroke-linejoin: miter"/>
   </g>
   <g id="patch_44">
    <path d="M 243.711142 225.799375 
L 247.627257 225.799375 
L 247.627257 225.799375 
L 243.711142 225.799375 
z
" clip-path="url(#p4fbc4fa077)" style="fill: #1f77b4; opacity: 0.6; stroke: #000000; stroke-linejoin: miter"/>
   </g>
   <g id="patch_45">
    <path d="M 247.627257 225.799375 
L 251.543373 225.799375 
L 251.543373 225.799375 
L 247.627257 225.799375 
z
" clip-path="url(#p4fbc4fa077)" style="fill: #1f77b4; opacity: 0.6; stroke: #000000; stroke-linejoin: miter"/>
   </g>
   <g id="patch_46">
    <path d="M 251.543373 225.799375 
L 255.459489 225.799375 
L 255.459489 225.331791 
L 251.543373 225.331791 
z
" clip-path="url(#p4fbc4fa077)" style="fill: #1f77b4; opacity: 0.6; stroke: #000000; stroke-linejoin: miter"/>
   </g>
   <g id="patch_47">
    <path d="M 255.459489 225.799375 
L 259.375604 225.799375 
L 259.375604 225.799375 
L 255.459489 225.799375 
z
" clip-path="url(#p4fbc4fa077)" style="fill: #1f77b4; opacity: 0.6; stroke: #000000; stroke-linejoin: miter"/>
   </g>
   <g id="patch_48">
    <path d="M 259.375604 225.799375 
L 263.29172 225.799375 
L 263.29172 225.799375 
L 259.375604 225.799375 
z
" clip-path="url(#p4fbc4fa077)" style="fill: #1f77b4; opacity: 0.6; stroke: #000000; stroke-linejoin: miter"/>
   </g>
   <g id="patch_49">
    <path d="M 263.29172 225.799375 
L 267.207836 225.799375 
L 267.207836 225.331791 
L 263.29172 225.331791 
z
" clip-path="url(#p4fbc4fa077)" style="fill: #1f77b4; opacity: 0.6; stroke: #000000; stroke-linejoin: miter"/>
   </g>
   <g id="patch_50">
    <path d="M 267.207836 225.799375 
L 271.123951 225.799375 
L 271.123951 225.799375 
L 267.207836 225.799375 
z
" clip-path="url(#p4fbc4fa077)" style="fill: #1f77b4; opacity: 0.6; stroke: #000000; stroke-linejoin: miter"/>
   </g>
   <g id="patch_51">
    <path d="M 271.123951 225.799375 
L 275.040067 225.799375 
L 275.040067 225.331791 
L 271.123951 225.331791 
z
" clip-path="url(#p4fbc4fa077)" style="fill: #1f77b4; opacity: 0.6; stroke: #000000; stroke-linejoin: miter"/>
   </g>
   <g id="patch_52">
    <path d="M 275.040067 225.799375 
L 278.956183 225.799375 
L 278.956183 225.799375 
L 275.040067 225.799375 
z
" clip-path="url(#p4fbc4fa077)" style="fill: #1f77b4; opacity: 0.6; stroke: #000000; stroke-linejoin: miter"/>
   </g>
   <g id="patch_53">
    <path d="M 278.956183 225.799375 
L 282.872299 225.799375 
L 282.872299 225.331791 
L 278.956183 225.331791 
z
" clip-path="url(#p4fbc4fa077)" style="fill: #1f77b4; opacity: 0.6; stroke: #000000; stroke-linejoin: miter"/>
   </g>
   <g id="patch_54">
    <path d="M 282.872299 225.799375 
L 286.788414 225.799375 
L 286.788414 225.799375 
L 282.872299 225.799375 
z
" clip-path="url(#p4fbc4fa077)" style="fill: #1f77b4; opacity: 0.6; stroke: #000000; stroke-linejoin: miter"/>
   </g>
   <g id="patch_55">
    <path d="M 286.788414 225.799375 
L 290.70453 225.799375 
L 290.70453 225.799375 
L 286.788414 225.799375 
z
" clip-path="url(#p4fbc4fa077)" style="fill: #1f77b4; opacity: 0.6; stroke: #000000; stroke-linejoin: miter"/>
   </g>
   <g id="patch_56">
    <path d="M 290.70453 225.799375 
L 294.620646 225.799375 
L 294.620646 225.799375 
L 290.70453 225.799375 
z
" clip-path="url(#p4fbc4fa077)" style="fill: #1f77b4; opacity: 0.6; stroke: #000000; stroke-linejoin: miter"/>
   </g>
   <g id="patch_57">
    <path d="M 294.620646 225.799375 
L 298.536761 225.799375 
L 298.536761 225.799375 
L 294.620646 225.799375 
z
" clip-path="url(#p4fbc4fa077)" style="fill: #1f77b4; opacity: 0.6; stroke: #000000; stroke-linejoin: miter"/>
   </g>
   <g id="patch_58">
    <path d="M 298.536761 225.799375 
L 302.452877 225.799375 
L 302.452877 225.331791 
L 298.536761 225.331791 
z
" clip-path="url(#p4fbc4fa077)" style="fill: #1f77b4; opacity: 0.6; stroke: #000000; stroke-linejoin: miter"/>
   </g>
   <g id="patch_59">
    <path d="M 302.452877 225.799375 
L 306.368993 225.799375 
L 306.368993 225.799375 
L 302.452877 225.799375 
z
" clip-path="url(#p4fbc4fa077)" style="fill: #1f77b4; opacity: 0.6; stroke: #000000; stroke-linejoin: miter"/>
   </g>
   <g id="patch_60">
    <path d="M 306.368993 225.799375 
L 310.285108 225.799375 
L 310.285108 225.799375 
L 306.368993 225.799375 
z
" clip-path="url(#p4fbc4fa077)" style="fill: #1f77b4; opacity: 0.6; stroke: #000000; stroke-linejoin: miter"/>
   </g>
   <g id="patch_61">
    <path d="M 310.285108 225.799375 
L 314.201224 225.799375 
L 314.201224 225.799375 
L 310.285108 225.799375 
z
" clip-path="url(#p4fbc4fa077)" style="fill: #1f77b4; opacity: 0.6; stroke: #000000; stroke-linejoin: miter"/>
   </g>
   <g id="patch_62">
    <path d="M 314.201224 225.799375 
L 318.11734 225.799375 
L 318.11734 225.799375 
L 314.201224 225.799375 
z
" clip-path="url(#p4fbc4fa077)" style="fill: #1f77b4; opacity: 0.6; stroke: #000000; stroke-linejoin: miter"/>
   </g>
   <g id="patch_63">
    <path d="M 318.11734 225.799375 
L 322.033456 225.799375 
L 322.033456 225.799375 
L 318.11734 225.799375 
z
" clip-path="url(#p4fbc4fa077)" style="fill: #1f77b4; opacity: 0.6; stroke: #000000; stroke-linejoin: miter"/>
   </g>
   <g id="patch_64">
    <path d="M 322.033456 225.799375 
L 325.949571 225.799375 
L 325.949571 225.799375 
L 322.033456 225.799375 
z
" clip-path="url(#p4fbc4fa077)" style="fill: #1f77b4; opacity: 0.6; stroke: #000000; stroke-linejoin: miter"/>
   </g>
   <g id="patch_65">
    <path d="M 325.949571 225.799375 
L 329.865687 225.799375 
L 329.865687 225.799375 
L 325.949571 225.799375 
z
" clip-path="url(#p4fbc4fa077)" style="fill: #1f77b4; opacity: 0.6; stroke: #000000; stroke-linejoin: miter"/>
   </g>
   <g id="patch_66">
    <path d="M 329.865687 225.799375 
L 333.781803 225.799375 
L 333.781803 225.799375 
L 329.865687 225.799375 
z
" clip-path="url(#p4fbc4fa077)" style="fill: #1f77b4; opacity: 0.6; stroke: #000000; stroke-linejoin: miter"/>
   </g>
   <g id="patch_67">
    <path d="M 333.781803 225.799375 
L 337.697918 225.799375 
L 337.697918 225.799375 
L 333.781803 225.799375 
z
" clip-path="url(#p4fbc4fa077)" style="fill: #1f77b4; opacity: 0.6; stroke: #000000; stroke-linejoin: miter"/>
   </g>
   <g id="patch_68">
    <path d="M 337.697918 225.799375 
L 341.614034 225.799375 
L 341.614034 225.799375 
L 337.697918 225.799375 
z
" clip-path="url(#p4fbc4fa077)" style="fill: #1f77b4; opacity: 0.6; stroke: #000000; stroke-linejoin: miter"/>
   </g>
   <g id="patch_69">
    <path d="M 341.614034 225.799375 
L 345.53015 225.799375 
L 345.53015 225.799375 
L 341.614034 225.799375 
z
" clip-path="url(#p4fbc4fa077)" style="fill: #1f77b4; opacity: 0.6; stroke: #000000; stroke-linejoin: miter"/>
   </g>
   <g id="patch_70">
    <path d="M 345.53015 225.799375 
L 349.446265 225.799375 
L 349.446265 224.864207 
L 345.53015 224.864207 
z
" clip-path="url(#p4fbc4fa077)" style="fill: #1f77b4; opacity: 0.6; stroke: #000000; stroke-linejoin: miter"/>
   </g>
   <g id="patch_71">
    <path d="M 349.446265 225.799375 
L 353.362381 225.799375 
L 353.362381 225.799375 
L 349.446265 225.799375 
z
" clip-path="url(#p4fbc4fa077)" style="fill: #1f77b4; opacity: 0.6; stroke: #000000; stroke-linejoin: miter"/>
   </g>
   <g id="patch_72">
    <path d="M 353.362381 225.799375 
L 357.278497 225.799375 
L 357.278497 225.799375 
L 353.362381 225.799375 
z
" clip-path="url(#p4fbc4fa077)" style="fill: #1f77b4; opacity: 0.6; stroke: #000000; stroke-linejoin: miter"/>
   </g>
   <g id="patch_73">
    <path d="M 357.278497 225.799375 
L 361.194613 225.799375 
L 361.194613 225.799375 
L 357.278497 225.799375 
z
" clip-path="url(#p4fbc4fa077)" style="fill: #1f77b4; opacity: 0.6; stroke: #000000; stroke-linejoin: miter"/>
   </g>
   <g id="patch_74">
    <path d="M 361.194613 225.799375 
L 365.110728 225.799375 
L 365.110728 225.799375 
L 361.194613 225.799375 
z
" clip-path="url(#p4fbc4fa077)" style="fill: #1f77b4; opacity: 0.6; stroke: #000000; stroke-linejoin: miter"/>
   </g>
   <g id="patch_75">
    <path d="M 365.110728 225.799375 
L 369.026844 225.799375 
L 369.026844 225.799375 
L 365.110728 225.799375 
z
" clip-path="url(#p4fbc4fa077)" style="fill: #1f77b4; opacity: 0.6; stroke: #000000; stroke-linejoin: miter"/>
   </g>
   <g id="patch_76">
    <path d="M 369.026844 225.799375 
L 372.94296 225.799375 
L 372.94296 225.799375 
L 369.026844 225.799375 
z
" clip-path="url(#p4fbc4fa077)" style="fill: #1f77b4; opacity: 0.6; stroke: #000000; stroke-linejoin: miter"/>
   </g>
   <g id="patch_77">
    <path d="M 372.94296 225.799375 
L 376.859075 225.799375 
L 376.859075 225.799375 
L 372.94296 225.799375 
z
" clip-path="url(#p4fbc4fa077)" style="fill: #1f77b4; opacity: 0.6; stroke: #000000; stroke-linejoin: miter"/>
   </g>
   <g id="patch_78">
    <path d="M 376.859075 225.799375 
L 380.775191 225.799375 
L 380.775191 225.799375 
L 376.859075 225.799375 
z
" clip-path="url(#p4fbc4fa077)" style="fill: #1f77b4; opacity: 0.6; stroke: #000000; stroke-linejoin: miter"/>
   </g>
   <g id="patch_79">
    <path d="M 380.775191 225.799375 
L 384.691307 225.799375 
L 384.691307 225.799375 
L 380.775191 225.799375 
z
" clip-path="url(#p4fbc4fa077)" style="fill: #1f77b4; opacity: 0.6; stroke: #000000; stroke-linejoin: miter"/>
   </g>
   <g id="patch_80">
    <path d="M 384.691307 225.799375 
L 388.607423 225.799375 
L 388.607423 225.799375 
L 384.691307 225.799375 
z
" clip-path="url(#p4fbc4fa077)" style="fill: #1f77b4; opacity: 0.6; stroke: #000000; stroke-linejoin: miter"/>
   </g>
   <g id="patch_81">
    <path d="M 388.607423 225.799375 
L 392.523538 225.799375 
L 392.523538 225.799375 
L 388.607423 225.799375 
z
" clip-path="url(#p4fbc4fa077)" style="fill: #1f77b4; opacity: 0.6; stroke: #000000; stroke-linejoin: miter"/>
   </g>
   <g id="patch_82">
    <path d="M 392.523538 225.799375 
L 396.439654 225.799375 
L 396.439654 225.799375 
L 392.523538 225.799375 
z
" clip-path="url(#p4fbc4fa077)" style="fill: #1f77b4; opacity: 0.6; stroke: #000000; stroke-linejoin: miter"/>
   </g>
   <g id="patch_83">
    <path d="M 396.439654 225.799375 
L 400.35577 225.799375 
L 400.35577 225.799375 
L 396.439654 225.799375 
z
" clip-path="url(#p4fbc4fa077)" style="fill: #1f77b4; opacity: 0.6; stroke: #000000; stroke-linejoin: miter"/>
   </g>
   <g id="patch_84">
    <path d="M 400.35577 225.799375 
L 404.271885 225.799375 
L 404.271885 225.799375 
L 400.35577 225.799375 
z
" clip-path="url(#p4fbc4fa077)" style="fill: #1f77b4; opacity: 0.6; stroke: #000000; stroke-linejoin: miter"/>
   </g>
   <g id="patch_85">
    <path d="M 404.271885 225.799375 
L 408.188001 225.799375 
L 408.188001 225.799375 
L 404.271885 225.799375 
z
" clip-path="url(#p4fbc4fa077)" style="fill: #1f77b4; opacity: 0.6; stroke: #000000; stroke-linejoin: miter"/>
   </g>
   <g id="patch_86">
    <path d="M 408.188001 225.799375 
L 412.104117 225.799375 
L 412.104117 225.799375 
L 408.188001 225.799375 
z
" clip-path="url(#p4fbc4fa077)" style="fill: #1f77b4; opacity: 0.6; stroke: #000000; stroke-linejoin: miter"/>
   </g>
   <g id="patch_87">
    <path d="M 412.104117 225.799375 
L 416.020232 225.799375 
L 416.020232 225.799375 
L 412.104117 225.799375 
z
" clip-path="url(#p4fbc4fa077)" style="fill: #1f77b4; opacity: 0.6; stroke: #000000; stroke-linejoin: miter"/>
   </g>
   <g id="patch_88">
    <path d="M 416.020232 225.799375 
L 419.936348 225.799375 
L 419.936348 225.799375 
L 416.020232 225.799375 
z
" clip-path="url(#p4fbc4fa077)" style="fill: #1f77b4; opacity: 0.6; stroke: #000000; stroke-linejoin: miter"/>
   </g>
   <g id="patch_89">
    <path d="M 419.936348 225.799375 
L 423.852464 225.799375 
L 423.852464 225.799375 
L 419.936348 225.799375 
z
" clip-path="url(#p4fbc4fa077)" style="fill: #1f77b4; opacity: 0.6; stroke: #000000; stroke-linejoin: miter"/>
   </g>
   <g id="patch_90">
    <path d="M 423.852464 225.799375 
L 427.76858 225.799375 
L 427.76858 225.799375 
L 423.852464 225.799375 
z
" clip-path="url(#p4fbc4fa077)" style="fill: #1f77b4; opacity: 0.6; stroke: #000000; stroke-linejoin: miter"/>
   </g>
   <g id="patch_91">
    <path d="M 427.76858 225.799375 
L 431.684695 225.799375 
L 431.684695 225.799375 
L 427.76858 225.799375 
z
" clip-path="url(#p4fbc4fa077)" style="fill: #1f77b4; opacity: 0.6; stroke: #000000; stroke-linejoin: miter"/>
   </g>
   <g id="patch_92">
    <path d="M 431.684695 225.799375 
L 435.600811 225.799375 
L 435.600811 225.799375 
L 431.684695 225.799375 
z
" clip-path="url(#p4fbc4fa077)" style="fill: #1f77b4; opacity: 0.6; stroke: #000000; stroke-linejoin: miter"/>
   </g>
   <g id="patch_93">
    <path d="M 435.600811 225.799375 
L 439.516927 225.799375 
L 439.516927 225.799375 
L 435.600811 225.799375 
z
" clip-path="url(#p4fbc4fa077)" style="fill: #1f77b4; opacity: 0.6; stroke: #000000; stroke-linejoin: miter"/>
   </g>
   <g id="patch_94">
    <path d="M 439.516927 225.799375 
L 443.433042 225.799375 
L 443.433042 225.799375 
L 439.516927 225.799375 
z
" clip-path="url(#p4fbc4fa077)" style="fill: #1f77b4; opacity: 0.6; stroke: #000000; stroke-linejoin: miter"/>
   </g>
   <g id="patch_95">
    <path d="M 443.433042 225.799375 
L 447.349158 225.799375 
L 447.349158 225.799375 
L 443.433042 225.799375 
z
" clip-path="url(#p4fbc4fa077)" style="fill: #1f77b4; opacity: 0.6; stroke: #000000; stroke-linejoin: miter"/>
   </g>
   <g id="patch_96">
    <path d="M 447.349158 225.799375 
L 451.265274 225.799375 
L 451.265274 225.799375 
L 447.349158 225.799375 
z
" clip-path="url(#p4fbc4fa077)" style="fill: #1f77b4; opacity: 0.6; stroke: #000000; stroke-linejoin: miter"/>
   </g>
   <g id="patch_97">
    <path d="M 451.265274 225.799375 
L 455.181389 225.799375 
L 455.181389 225.799375 
L 451.265274 225.799375 
z
" clip-path="url(#p4fbc4fa077)" style="fill: #1f77b4; opacity: 0.6; stroke: #000000; stroke-linejoin: miter"/>
   </g>
   <g id="patch_98">
    <path d="M 455.181389 225.799375 
L 459.097505 225.799375 
L 459.097505 225.799375 
L 455.181389 225.799375 
z
" clip-path="url(#p4fbc4fa077)" style="fill: #1f77b4; opacity: 0.6; stroke: #000000; stroke-linejoin: miter"/>
   </g>
   <g id="patch_99">
    <path d="M 459.097505 225.799375 
L 463.013621 225.799375 
L 463.013621 225.799375 
L 459.097505 225.799375 
z
" clip-path="url(#p4fbc4fa077)" style="fill: #1f77b4; opacity: 0.6; stroke: #000000; stroke-linejoin: miter"/>
   </g>
   <g id="patch_100">
    <path d="M 463.013621 225.799375 
L 466.929737 225.799375 
L 466.929737 225.799375 
L 463.013621 225.799375 
z
" clip-path="url(#p4fbc4fa077)" style="fill: #1f77b4; opacity: 0.6; stroke: #000000; stroke-linejoin: miter"/>
   </g>
   <g id="patch_101">
    <path d="M 466.929737 225.799375 
L 470.845852 225.799375 
L 470.845852 225.799375 
L 466.929737 225.799375 
z
" clip-path="url(#p4fbc4fa077)" style="fill: #1f77b4; opacity: 0.6; stroke: #000000; stroke-linejoin: miter"/>
   </g>
   <g id="patch_102">
    <path d="M 83.150398 225.799375 
L 87.066513 225.799375 
L 87.066513 218.318035 
L 83.150398 218.318035 
z
" clip-path="url(#p4fbc4fa077)" style="fill: #ff7f0e; opacity: 0.6; stroke: #000000; stroke-linejoin: miter"/>
   </g>
   <g id="patch_103">
    <path d="M 87.066513 225.799375 
L 90.982629 225.799375 
L 90.982629 221.123537 
L 87.066513 221.123537 
z
" clip-path="url(#p4fbc4fa077)" style="fill: #ff7f0e; opacity: 0.6; stroke: #000000; stroke-linejoin: miter"/>
   </g>
   <g id="patch_104">
    <path d="M 90.982629 225.799375 
L 94.898745 225.799375 
L 94.898745 224.396624 
L 90.982629 224.396624 
z
" clip-path="url(#p4fbc4fa077)" style="fill: #ff7f0e; opacity: 0.6; stroke: #000000; stroke-linejoin: miter"/>
   </g>
   <g id="patch_105">
    <path d="M 94.898745 225.799375 
L 98.814861 225.799375 
L 98.814861 219.720786 
L 94.898745 219.720786 
z
" clip-path="url(#p4fbc4fa077)" style="fill: #ff7f0e; opacity: 0.6; stroke: #000000; stroke-linejoin: miter"/>
   </g>
   <g id="patch_106">
    <path d="M 98.814861 225.799375 
L 102.730976 225.799375 
L 102.730976 222.993872 
L 98.814861 222.993872 
z
" clip-path="url(#p4fbc4fa077)" style="fill: #ff7f0e; opacity: 0.6; stroke: #000000; stroke-linejoin: miter"/>
   </g>
   <g id="patch_107">
    <path d="M 102.730976 225.799375 
L 106.647092 225.799375 
L 106.647092 224.864207 
L 102.730976 224.864207 
z
" clip-path="url(#p4fbc4fa077)" style="fill: #ff7f0e; opacity: 0.6; stroke: #000000; stroke-linejoin: miter"/>
   </g>
   <g id="patch_108">
    <path d="M 106.647092 225.799375 
L 110.563208 225.799375 
L 110.563208 224.396624 
L 106.647092 224.396624 
z
" clip-path="url(#p4fbc4fa077)" style="fill: #ff7f0e; opacity: 0.6; stroke: #000000; stroke-linejoin: miter"/>
   </g>
   <g id="patch_109">
    <path d="M 110.563208 225.799375 
L 114.479323 225.799375 
L 114.479323 224.396624 
L 110.563208 224.396624 
z
" clip-path="url(#p4fbc4fa077)" style="fill: #ff7f0e; opacity: 0.6; stroke: #000000; stroke-linejoin: miter"/>
   </g>
   <g id="patch_110">
    <path d="M 114.479323 225.799375 
L 118.395439 225.799375 
L 118.395439 223.92904 
L 114.479323 223.92904 
z
" clip-path="url(#p4fbc4fa077)" style="fill: #ff7f0e; opacity: 0.6; stroke: #000000; stroke-linejoin: miter"/>
   </g>
   <g id="patch_111">
    <path d="M 118.395439 225.799375 
L 122.311555 225.799375 
L 122.311555 225.331791 
L 118.395439 225.331791 
z
" clip-path="url(#p4fbc4fa077)" style="fill: #ff7f0e; opacity: 0.6; stroke: #000000; stroke-linejoin: miter"/>
   </g>
   <g id="patch_112">
    <path d="M 122.311555 225.799375 
L 126.22767 225.799375 
L 126.22767 225.799375 
L 122.311555 225.799375 
z
" clip-path="url(#p4fbc4fa077)" style="fill: #ff7f0e; opacity: 0.6; stroke: #000000; stroke-linejoin: miter"/>
   </g>
   <g id="patch_113">
    <path d="M 126.22767 225.799375 
L 130.143786 225.799375 
L 130.143786 224.396624 
L 126.22767 224.396624 
z
" clip-path="url(#p4fbc4fa077)" style="fill: #ff7f0e; opacity: 0.6; stroke: #000000; stroke-linejoin: miter"/>
   </g>
   <g id="patch_114">
    <path d="M 130.143786 225.799375 
L 134.059902 225.799375 
L 134.059902 225.799375 
L 130.143786 225.799375 
z
" clip-path="url(#p4fbc4fa077)" style="fill: #ff7f0e; opacity: 0.6; stroke: #000000; stroke-linejoin: miter"/>
   </g>
   <g id="patch_115">
    <path d="M 134.059902 225.799375 
L 137.976018 225.799375 
L 137.976018 224.864207 
L 134.059902 224.864207 
z
" clip-path="url(#p4fbc4fa077)" style="fill: #ff7f0e; opacity: 0.6; stroke: #000000; stroke-linejoin: miter"/>
   </g>
   <g id="patch_116">
    <path d="M 137.976018 225.799375 
L 141.892133 225.799375 
L 141.892133 225.331791 
L 137.976018 225.331791 
z
" clip-path="url(#p4fbc4fa077)" style="fill: #ff7f0e; opacity: 0.6; stroke: #000000; stroke-linejoin: miter"/>
   </g>
   <g id="patch_117">
    <path d="M 141.892133 225.799375 
L 145.808249 225.799375 
L 145.808249 225.331791 
L 141.892133 225.331791 
z
" clip-path="url(#p4fbc4fa077)" style="fill: #ff7f0e; opacity: 0.6; stroke: #000000; stroke-linejoin: miter"/>
   </g>
   <g id="patch_118">
    <path d="M 145.808249 225.799375 
L 149.724365 225.799375 
L 149.724365 225.799375 
L 145.808249 225.799375 
z
" clip-path="url(#p4fbc4fa077)" style="fill: #ff7f0e; opacity: 0.6; stroke: #000000; stroke-linejoin: miter"/>
   </g>
   <g id="patch_119">
    <path d="M 149.724365 225.799375 
L 153.64048 225.799375 
L 153.64048 225.799375 
L 149.724365 225.799375 
z
" clip-path="url(#p4fbc4fa077)" style="fill: #ff7f0e; opacity: 0.6; stroke: #000000; stroke-linejoin: miter"/>
   </g>
   <g id="patch_120">
    <path d="M 153.64048 225.799375 
L 157.556596 225.799375 
L 157.556596 225.331791 
L 153.64048 225.331791 
z
" clip-path="url(#p4fbc4fa077)" style="fill: #ff7f0e; opacity: 0.6; stroke: #000000; stroke-linejoin: miter"/>
   </g>
   <g id="patch_121">
    <path d="M 157.556596 225.799375 
L 161.472712 225.799375 
L 161.472712 225.799375 
L 157.556596 225.799375 
z
" clip-path="url(#p4fbc4fa077)" style="fill: #ff7f0e; opacity: 0.6; stroke: #000000; stroke-linejoin: miter"/>
   </g>
   <g id="patch_122">
    <path d="M 161.472712 225.799375 
L 165.388827 225.799375 
L 165.388827 225.799375 
L 161.472712 225.799375 
z
" clip-path="url(#p4fbc4fa077)" style="fill: #ff7f0e; opacity: 0.6; stroke: #000000; stroke-linejoin: miter"/>
   </g>
   <g id="patch_123">
    <path d="M 165.388827 225.799375 
L 169.304943 225.799375 
L 169.304943 225.799375 
L 165.388827 225.799375 
z
" clip-path="url(#p4fbc4fa077)" style="fill: #ff7f0e; opacity: 0.6; stroke: #000000; stroke-linejoin: miter"/>
   </g>
   <g id="patch_124">
    <path d="M 169.304943 225.799375 
L 173.221059 225.799375 
L 173.221059 225.799375 
L 169.304943 225.799375 
z
" clip-path="url(#p4fbc4fa077)" style="fill: #ff7f0e; opacity: 0.6; stroke: #000000; stroke-linejoin: miter"/>
   </g>
   <g id="patch_125">
    <path d="M 173.221059 225.799375 
L 177.137175 225.799375 
L 177.137175 225.799375 
L 173.221059 225.799375 
z
" clip-path="url(#p4fbc4fa077)" style="fill: #ff7f0e; opacity: 0.6; stroke: #000000; stroke-linejoin: miter"/>
   </g>
   <g id="patch_126">
    <path d="M 177.137175 225.799375 
L 181.05329 225.799375 
L 181.05329 225.799375 
L 177.137175 225.799375 
z
" clip-path="url(#p4fbc4fa077)" style="fill: #ff7f0e; opacity: 0.6; stroke: #000000; stroke-linejoin: miter"/>
   </g>
   <g id="patch_127">
    <path d="M 181.05329 225.799375 
L 184.969406 225.799375 
L 184.969406 225.799375 
L 181.05329 225.799375 
z
" clip-path="url(#p4fbc4fa077)" style="fill: #ff7f0e; opacity: 0.6; stroke: #000000; stroke-linejoin: miter"/>
   </g>
   <g id="patch_128">
    <path d="M 184.969406 225.799375 
L 188.885522 225.799375 
L 188.885522 225.799375 
L 184.969406 225.799375 
z
" clip-path="url(#p4fbc4fa077)" style="fill: #ff7f0e; opacity: 0.6; stroke: #000000; stroke-linejoin: miter"/>
   </g>
   <g id="patch_129">
    <path d="M 188.885522 225.799375 
L 192.801637 225.799375 
L 192.801637 225.799375 
L 188.885522 225.799375 
z
" clip-path="url(#p4fbc4fa077)" style="fill: #ff7f0e; opacity: 0.6; stroke: #000000; stroke-linejoin: miter"/>
   </g>
   <g id="patch_130">
    <path d="M 192.801637 225.799375 
L 196.717753 225.799375 
L 196.717753 224.864207 
L 192.801637 224.864207 
z
" clip-path="url(#p4fbc4fa077)" style="fill: #ff7f0e; opacity: 0.6; stroke: #000000; stroke-linejoin: miter"/>
   </g>
   <g id="patch_131">
    <path d="M 196.717753 225.799375 
L 200.633869 225.799375 
L 200.633869 225.331791 
L 196.717753 225.331791 
z
" clip-path="url(#p4fbc4fa077)" style="fill: #ff7f0e; opacity: 0.6; stroke: #000000; stroke-linejoin: miter"/>
   </g>
   <g id="patch_132">
    <path d="M 200.633869 225.799375 
L 204.549985 225.799375 
L 204.549985 224.396624 
L 200.633869 224.396624 
z
" clip-path="url(#p4fbc4fa077)" style="fill: #ff7f0e; opacity: 0.6; stroke: #000000; stroke-linejoin: miter"/>
   </g>
   <g id="patch_133">
    <path d="M 204.549985 225.799375 
L 208.4661 225.799375 
L 208.4661 225.799375 
L 204.549985 225.799375 
z
" clip-path="url(#p4fbc4fa077)" style="fill: #ff7f0e; opacity: 0.6; stroke: #000000; stroke-linejoin: miter"/>
   </g>
   <g id="patch_134">
    <path d="M 208.4661 225.799375 
L 212.382216 225.799375 
L 212.382216 225.799375 
L 208.4661 225.799375 
z
" clip-path="url(#p4fbc4fa077)" style="fill: #ff7f0e; opacity: 0.6; stroke: #000000; stroke-linejoin: miter"/>
   </g>
   <g id="patch_135">
    <path d="M 212.382216 225.799375 
L 216.298332 225.799375 
L 216.298332 225.799375 
L 212.382216 225.799375 
z
" clip-path="url(#p4fbc4fa077)" style="fill: #ff7f0e; opacity: 0.6; stroke: #000000; stroke-linejoin: miter"/>
   </g>
   <g id="patch_136">
    <path d="M 216.298332 225.799375 
L 220.214447 225.799375 
L 220.214447 225.799375 
L 216.298332 225.799375 
z
" clip-path="url(#p4fbc4fa077)" style="fill: #ff7f0e; opacity: 0.6; stroke: #000000; stroke-linejoin: miter"/>
   </g>
   <g id="patch_137">
    <path d="M 220.214447 225.799375 
L 224.130563 225.799375 
L 224.130563 225.799375 
L 220.214447 225.799375 
z
" clip-path="url(#p4fbc4fa077)" style="fill: #ff7f0e; opacity: 0.6; stroke: #000000; stroke-linejoin: miter"/>
   </g>
   <g id="patch_138">
    <path d="M 224.130563 225.799375 
L 228.046679 225.799375 
L 228.046679 225.799375 
L 224.130563 225.799375 
z
" clip-path="url(#p4fbc4fa077)" style="fill: #ff7f0e; opacity: 0.6; stroke: #000000; stroke-linejoin: miter"/>
   </g>
   <g id="patch_139">
    <path d="M 228.046679 225.799375 
L 231.962794 225.799375 
L 231.962794 225.799375 
L 228.046679 225.799375 
z
" clip-path="url(#p4fbc4fa077)" style="fill: #ff7f0e; opacity: 0.6; stroke: #000000; stroke-linejoin: miter"/>
   </g>
   <g id="patch_140">
    <path d="M 231.962794 225.799375 
L 235.87891 225.799375 
L 235.87891 225.799375 
L 231.962794 225.799375 
z
" clip-path="url(#p4fbc4fa077)" style="fill: #ff7f0e; opacity: 0.6; stroke: #000000; stroke-linejoin: miter"/>
   </g>
   <g id="patch_141">
    <path d="M 235.87891 225.799375 
L 239.795026 225.799375 
L 239.795026 225.331791 
L 235.87891 225.331791 
z
" clip-path="url(#p4fbc4fa077)" style="fill: #ff7f0e; opacity: 0.6; stroke: #000000; stroke-linejoin: miter"/>
   </g>
   <g id="patch_142">
    <path d="M 239.795026 225.799375 
L 243.711142 225.799375 
L 243.711142 225.799375 
L 239.795026 225.799375 
z
" clip-path="url(#p4fbc4fa077)" style="fill: #ff7f0e; opacity: 0.6; stroke: #000000; stroke-linejoin: miter"/>
   </g>
   <g id="patch_143">
    <path d="M 243.711142 225.799375 
L 247.627257 225.799375 
L 247.627257 225.799375 
L 243.711142 225.799375 
z
" clip-path="url(#p4fbc4fa077)" style="fill: #ff7f0e; opacity: 0.6; stroke: #000000; stroke-linejoin: miter"/>
   </g>
   <g id="patch_144">
    <path d="M 247.627257 225.799375 
L 251.543373 225.799375 
L 251.543373 225.799375 
L 247.627257 225.799375 
z
" clip-path="url(#p4fbc4fa077)" style="fill: #ff7f0e; opacity: 0.6; stroke: #000000; stroke-linejoin: miter"/>
   </g>
   <g id="patch_145">
    <path d="M 251.543373 225.799375 
L 255.459489 225.799375 
L 255.459489 225.331791 
L 251.543373 225.331791 
z
" clip-path="url(#p4fbc4fa077)" style="fill: #ff7f0e; opacity: 0.6; stroke: #000000; stroke-linejoin: miter"/>
   </g>
   <g id="patch_146">
    <path d="M 255.459489 225.799375 
L 259.375604 225.799375 
L 259.375604 225.799375 
L 255.459489 225.799375 
z
" clip-path="url(#p4fbc4fa077)" style="fill: #ff7f0e; opacity: 0.6; stroke: #000000; stroke-linejoin: miter"/>
   </g>
   <g id="patch_147">
    <path d="M 259.375604 225.799375 
L 263.29172 225.799375 
L 263.29172 225.799375 
L 259.375604 225.799375 
z
" clip-path="url(#p4fbc4fa077)" style="fill: #ff7f0e; opacity: 0.6; stroke: #000000; stroke-linejoin: miter"/>
   </g>
   <g id="patch_148">
    <path d="M 263.29172 225.799375 
L 267.207836 225.799375 
L 267.207836 225.799375 
L 263.29172 225.799375 
z
" clip-path="url(#p4fbc4fa077)" style="fill: #ff7f0e; opacity: 0.6; stroke: #000000; stroke-linejoin: miter"/>
   </g>
   <g id="patch_149">
    <path d="M 267.207836 225.799375 
L 271.123951 225.799375 
L 271.123951 225.331791 
L 267.207836 225.331791 
z
" clip-path="url(#p4fbc4fa077)" style="fill: #ff7f0e; opacity: 0.6; stroke: #000000; stroke-linejoin: miter"/>
   </g>
   <g id="patch_150">
    <path d="M 271.123951 225.799375 
L 275.040067 225.799375 
L 275.040067 225.799375 
L 271.123951 225.799375 
z
" clip-path="url(#p4fbc4fa077)" style="fill: #ff7f0e; opacity: 0.6; stroke: #000000; stroke-linejoin: miter"/>
   </g>
   <g id="patch_151">
    <path d="M 275.040067 225.799375 
L 278.956183 225.799375 
L 278.956183 225.799375 
L 275.040067 225.799375 
z
" clip-path="url(#p4fbc4fa077)" style="fill: #ff7f0e; opacity: 0.6; stroke: #000000; stroke-linejoin: miter"/>
   </g>
   <g id="patch_152">
    <path d="M 278.956183 225.799375 
L 282.872299 225.799375 
L 282.872299 225.799375 
L 278.956183 225.799375 
z
" clip-path="url(#p4fbc4fa077)" style="fill: #ff7f0e; opacity: 0.6; stroke: #000000; stroke-linejoin: miter"/>
   </g>
   <g id="patch_153">
    <path d="M 282.872299 225.799375 
L 286.788414 225.799375 
L 286.788414 224.864207 
L 282.872299 224.864207 
z
" clip-path="url(#p4fbc4fa077)" style="fill: #ff7f0e; opacity: 0.6; stroke: #000000; stroke-linejoin: miter"/>
   </g>
   <g id="patch_154">
    <path d="M 286.788414 225.799375 
L 290.70453 225.799375 
L 290.70453 225.799375 
L 286.788414 225.799375 
z
" clip-path="url(#p4fbc4fa077)" style="fill: #ff7f0e; opacity: 0.6; stroke: #000000; stroke-linejoin: miter"/>
   </g>
   <g id="patch_155">
    <path d="M 290.70453 225.799375 
L 294.620646 225.799375 
L 294.620646 225.331791 
L 290.70453 225.331791 
z
" clip-path="url(#p4fbc4fa077)" style="fill: #ff7f0e; opacity: 0.6; stroke: #000000; stroke-linejoin: miter"/>
   </g>
   <g id="patch_156">
    <path d="M 294.620646 225.799375 
L 298.536761 225.799375 
L 298.536761 225.331791 
L 294.620646 225.331791 
z
" clip-path="url(#p4fbc4fa077)" style="fill: #ff7f0e; opacity: 0.6; stroke: #000000; stroke-linejoin: miter"/>
   </g>
   <g id="patch_157">
    <path d="M 298.536761 225.799375 
L 302.452877 225.799375 
L 302.452877 224.396624 
L 298.536761 224.396624 
z
" clip-path="url(#p4fbc4fa077)" style="fill: #ff7f0e; opacity: 0.6; stroke: #000000; stroke-linejoin: miter"/>
   </g>
   <g id="patch_158">
    <path d="M 302.452877 225.799375 
L 306.368993 225.799375 
L 306.368993 216.915283 
L 302.452877 216.915283 
z
" clip-path="url(#p4fbc4fa077)" style="fill: #ff7f0e; opacity: 0.6; stroke: #000000; stroke-linejoin: miter"/>
   </g>
   <g id="patch_159">
    <path d="M 306.368993 225.799375 
L 310.285108 225.799375 
L 310.285108 215.044948 
L 306.368993 215.044948 
z
" clip-path="url(#p4fbc4fa077)" style="fill: #ff7f0e; opacity: 0.6; stroke: #000000; stroke-linejoin: miter"/>
   </g>
   <g id="patch_160">
    <path d="M 310.285108 225.799375 
L 314.201224 225.799375 
L 314.201224 220.18837 
L 310.285108 220.18837 
z
" clip-path="url(#p4fbc4fa077)" style="fill: #ff7f0e; opacity: 0.6; stroke: #000000; stroke-linejoin: miter"/>
   </g>
   <g id="patch_161">
    <path d="M 314.201224 225.799375 
L 318.11734 225.799375 
L 318.11734 225.331791 
L 314.201224 225.331791 
z
" clip-path="url(#p4fbc4fa077)" style="fill: #ff7f0e; opacity: 0.6; stroke: #000000; stroke-linejoin: miter"/>
   </g>
   <g id="patch_162">
    <path d="M 318.11734 225.799375 
L 322.033456 225.799375 
L 322.033456 225.799375 
L 318.11734 225.799375 
z
" clip-path="url(#p4fbc4fa077)" style="fill: #ff7f0e; opacity: 0.6; stroke: #000000; stroke-linejoin: miter"/>
   </g>
   <g id="patch_163">
    <path d="M 322.033456 225.799375 
L 325.949571 225.799375 
L 325.949571 225.799375 
L 322.033456 225.799375 
z
" clip-path="url(#p4fbc4fa077)" style="fill: #ff7f0e; opacity: 0.6; stroke: #000000; stroke-linejoin: miter"/>
   </g>
   <g id="patch_164">
    <path d="M 325.949571 225.799375 
L 329.865687 225.799375 
L 329.865687 225.799375 
L 325.949571 225.799375 
z
" clip-path="url(#p4fbc4fa077)" style="fill: #ff7f0e; opacity: 0.6; stroke: #000000; stroke-linejoin: miter"/>
   </g>
   <g id="patch_165">
    <path d="M 329.865687 225.799375 
L 333.781803 225.799375 
L 333.781803 225.799375 
L 329.865687 225.799375 
z
" clip-path="url(#p4fbc4fa077)" style="fill: #ff7f0e; opacity: 0.6; stroke: #000000; stroke-linejoin: miter"/>
   </g>
   <g id="patch_166">
    <path d="M 333.781803 225.799375 
L 337.697918 225.799375 
L 337.697918 225.799375 
L 333.781803 225.799375 
z
" clip-path="url(#p4fbc4fa077)" style="fill: #ff7f0e; opacity: 0.6; stroke: #000000; stroke-linejoin: miter"/>
   </g>
   <g id="patch_167">
    <path d="M 337.697918 225.799375 
L 341.614034 225.799375 
L 341.614034 225.799375 
L 337.697918 225.799375 
z
" clip-path="url(#p4fbc4fa077)" style="fill: #ff7f0e; opacity: 0.6; stroke: #000000; stroke-linejoin: miter"/>
   </g>
   <g id="patch_168">
    <path d="M 341.614034 225.799375 
L 345.53015 225.799375 
L 345.53015 225.799375 
L 341.614034 225.799375 
z
" clip-path="url(#p4fbc4fa077)" style="fill: #ff7f0e; opacity: 0.6; stroke: #000000; stroke-linejoin: miter"/>
   </g>
   <g id="patch_169">
    <path d="M 345.53015 225.799375 
L 349.446265 225.799375 
L 349.446265 225.799375 
L 345.53015 225.799375 
z
" clip-path="url(#p4fbc4fa077)" style="fill: #ff7f0e; opacity: 0.6; stroke: #000000; stroke-linejoin: miter"/>
   </g>
   <g id="patch_170">
    <path d="M 349.446265 225.799375 
L 353.362381 225.799375 
L 353.362381 225.799375 
L 349.446265 225.799375 
z
" clip-path="url(#p4fbc4fa077)" style="fill: #ff7f0e; opacity: 0.6; stroke: #000000; stroke-linejoin: miter"/>
   </g>
   <g id="patch_171">
    <path d="M 353.362381 225.799375 
L 357.278497 225.799375 
L 357.278497 225.799375 
L 353.362381 225.799375 
z
" clip-path="url(#p4fbc4fa077)" style="fill: #ff7f0e; opacity: 0.6; stroke: #000000; stroke-linejoin: miter"/>
   </g>
   <g id="patch_172">
    <path d="M 357.278497 225.799375 
L 361.194613 225.799375 
L 361.194613 225.799375 
L 357.278497 225.799375 
z
" clip-path="url(#p4fbc4fa077)" style="fill: #ff7f0e; opacity: 0.6; stroke: #000000; stroke-linejoin: miter"/>
   </g>
   <g id="patch_173">
    <path d="M 361.194613 225.799375 
L 365.110728 225.799375 
L 365.110728 225.799375 
L 361.194613 225.799375 
z
" clip-path="url(#p4fbc4fa077)" style="fill: #ff7f0e; opacity: 0.6; stroke: #000000; stroke-linejoin: miter"/>
   </g>
   <g id="patch_174">
    <path d="M 365.110728 225.799375 
L 369.026844 225.799375 
L 369.026844 225.799375 
L 365.110728 225.799375 
z
" clip-path="url(#p4fbc4fa077)" style="fill: #ff7f0e; opacity: 0.6; stroke: #000000; stroke-linejoin: miter"/>
   </g>
   <g id="patch_175">
    <path d="M 369.026844 225.799375 
L 372.94296 225.799375 
L 372.94296 225.799375 
L 369.026844 225.799375 
z
" clip-path="url(#p4fbc4fa077)" style="fill: #ff7f0e; opacity: 0.6; stroke: #000000; stroke-linejoin: miter"/>
   </g>
   <g id="patch_176">
    <path d="M 372.94296 225.799375 
L 376.859075 225.799375 
L 376.859075 225.799375 
L 372.94296 225.799375 
z
" clip-path="url(#p4fbc4fa077)" style="fill: #ff7f0e; opacity: 0.6; stroke: #000000; stroke-linejoin: miter"/>
   </g>
   <g id="patch_177">
    <path d="M 376.859075 225.799375 
L 380.775191 225.799375 
L 380.775191 225.799375 
L 376.859075 225.799375 
z
" clip-path="url(#p4fbc4fa077)" style="fill: #ff7f0e; opacity: 0.6; stroke: #000000; stroke-linejoin: miter"/>
   </g>
   <g id="patch_178">
    <path d="M 380.775191 225.799375 
L 384.691307 225.799375 
L 384.691307 225.799375 
L 380.775191 225.799375 
z
" clip-path="url(#p4fbc4fa077)" style="fill: #ff7f0e; opacity: 0.6; stroke: #000000; stroke-linejoin: miter"/>
   </g>
   <g id="patch_179">
    <path d="M 384.691307 225.799375 
L 388.607423 225.799375 
L 388.607423 225.799375 
L 384.691307 225.799375 
z
" clip-path="url(#p4fbc4fa077)" style="fill: #ff7f0e; opacity: 0.6; stroke: #000000; stroke-linejoin: miter"/>
   </g>
   <g id="patch_180">
    <path d="M 388.607423 225.799375 
L 392.523538 225.799375 
L 392.523538 225.799375 
L 388.607423 225.799375 
z
" clip-path="url(#p4fbc4fa077)" style="fill: #ff7f0e; opacity: 0.6; stroke: #000000; stroke-linejoin: miter"/>
   </g>
   <g id="patch_181">
    <path d="M 392.523538 225.799375 
L 396.439654 225.799375 
L 396.439654 225.799375 
L 392.523538 225.799375 
z
" clip-path="url(#p4fbc4fa077)" style="fill: #ff7f0e; opacity: 0.6; stroke: #000000; stroke-linejoin: miter"/>
   </g>
   <g id="patch_182">
    <path d="M 396.439654 225.799375 
L 400.35577 225.799375 
L 400.35577 225.799375 
L 396.439654 225.799375 
z
" clip-path="url(#p4fbc4fa077)" style="fill: #ff7f0e; opacity: 0.6; stroke: #000000; stroke-linejoin: miter"/>
   </g>
   <g id="patch_183">
    <path d="M 400.35577 225.799375 
L 404.271885 225.799375 
L 404.271885 225.799375 
L 400.35577 225.799375 
z
" clip-path="url(#p4fbc4fa077)" style="fill: #ff7f0e; opacity: 0.6; stroke: #000000; stroke-linejoin: miter"/>
   </g>
   <g id="patch_184">
    <path d="M 404.271885 225.799375 
L 408.188001 225.799375 
L 408.188001 225.331791 
L 404.271885 225.331791 
z
" clip-path="url(#p4fbc4fa077)" style="fill: #ff7f0e; opacity: 0.6; stroke: #000000; stroke-linejoin: miter"/>
   </g>
   <g id="patch_185">
    <path d="M 408.188001 225.799375 
L 412.104117 225.799375 
L 412.104117 225.799375 
L 408.188001 225.799375 
z
" clip-path="url(#p4fbc4fa077)" style="fill: #ff7f0e; opacity: 0.6; stroke: #000000; stroke-linejoin: miter"/>
   </g>
   <g id="patch_186">
    <path d="M 412.104117 225.799375 
L 416.020232 225.799375 
L 416.020232 225.799375 
L 412.104117 225.799375 
z
" clip-path="url(#p4fbc4fa077)" style="fill: #ff7f0e; opacity: 0.6; stroke: #000000; stroke-linejoin: miter"/>
   </g>
   <g id="patch_187">
    <path d="M 416.020232 225.799375 
L 419.936348 225.799375 
L 419.936348 225.331791 
L 416.020232 225.331791 
z
" clip-path="url(#p4fbc4fa077)" style="fill: #ff7f0e; opacity: 0.6; stroke: #000000; stroke-linejoin: miter"/>
   </g>
   <g id="patch_188">
    <path d="M 419.936348 225.799375 
L 423.852464 225.799375 
L 423.852464 225.799375 
L 419.936348 225.799375 
z
" clip-path="url(#p4fbc4fa077)" style="fill: #ff7f0e; opacity: 0.6; stroke: #000000; stroke-linejoin: miter"/>
   </g>
   <g id="patch_189">
    <path d="M 423.852464 225.799375 
L 427.76858 225.799375 
L 427.76858 225.799375 
L 423.852464 225.799375 
z
" clip-path="url(#p4fbc4fa077)" style="fill: #ff7f0e; opacity: 0.6; stroke: #000000; stroke-linejoin: miter"/>
   </g>
   <g id="patch_190">
    <path d="M 427.76858 225.799375 
L 431.684695 225.799375 
L 431.684695 225.799375 
L 427.76858 225.799375 
z
" clip-path="url(#p4fbc4fa077)" style="fill: #ff7f0e; opacity: 0.6; stroke: #000000; stroke-linejoin: miter"/>
   </g>
   <g id="patch_191">
    <path d="M 431.684695 225.799375 
L 435.600811 225.799375 
L 435.600811 225.799375 
L 431.684695 225.799375 
z
" clip-path="url(#p4fbc4fa077)" style="fill: #ff7f0e; opacity: 0.6; stroke: #000000; stroke-linejoin: miter"/>
   </g>
   <g id="patch_192">
    <path d="M 435.600811 225.799375 
L 439.516927 225.799375 
L 439.516927 225.799375 
L 435.600811 225.799375 
z
" clip-path="url(#p4fbc4fa077)" style="fill: #ff7f0e; opacity: 0.6; stroke: #000000; stroke-linejoin: miter"/>
   </g>
   <g id="patch_193">
    <path d="M 439.516927 225.799375 
L 443.433042 225.799375 
L 443.433042 225.799375 
L 439.516927 225.799375 
z
" clip-path="url(#p4fbc4fa077)" style="fill: #ff7f0e; opacity: 0.6; stroke: #000000; stroke-linejoin: miter"/>
   </g>
   <g id="patch_194">
    <path d="M 443.433042 225.799375 
L 447.349158 225.799375 
L 447.349158 225.799375 
L 443.433042 225.799375 
z
" clip-path="url(#p4fbc4fa077)" style="fill: #ff7f0e; opacity: 0.6; stroke: #000000; stroke-linejoin: miter"/>
   </g>
   <g id="patch_195">
    <path d="M 447.349158 225.799375 
L 451.265274 225.799375 
L 451.265274 225.799375 
L 447.349158 225.799375 
z
" clip-path="url(#p4fbc4fa077)" style="fill: #ff7f0e; opacity: 0.6; stroke: #000000; stroke-linejoin: miter"/>
   </g>
   <g id="patch_196">
    <path d="M 451.265274 225.799375 
L 455.181389 225.799375 
L 455.181389 225.799375 
L 451.265274 225.799375 
z
" clip-path="url(#p4fbc4fa077)" style="fill: #ff7f0e; opacity: 0.6; stroke: #000000; stroke-linejoin: miter"/>
   </g>
   <g id="patch_197">
    <path d="M 455.181389 225.799375 
L 459.097505 225.799375 
L 459.097505 225.799375 
L 455.181389 225.799375 
z
" clip-path="url(#p4fbc4fa077)" style="fill: #ff7f0e; opacity: 0.6; stroke: #000000; stroke-linejoin: miter"/>
   </g>
   <g id="patch_198">
    <path d="M 459.097505 225.799375 
L 463.013621 225.799375 
L 463.013621 225.799375 
L 459.097505 225.799375 
z
" clip-path="url(#p4fbc4fa077)" style="fill: #ff7f0e; opacity: 0.6; stroke: #000000; stroke-linejoin: miter"/>
   </g>
   <g id="patch_199">
    <path d="M 463.013621 225.799375 
L 466.929737 225.799375 
L 466.929737 225.799375 
L 463.013621 225.799375 
z
" clip-path="url(#p4fbc4fa077)" style="fill: #ff7f0e; opacity: 0.6; stroke: #000000; stroke-linejoin: miter"/>
   </g>
   <g id="patch_200">
    <path d="M 466.929737 225.799375 
L 470.845852 225.799375 
L 470.845852 225.799375 
L 466.929737 225.799375 
z
" clip-path="url(#p4fbc4fa077)" style="fill: #ff7f0e; opacity: 0.6; stroke: #000000; stroke-linejoin: miter"/>
   </g>
   <g id="matplotlib.axis_1">
    <g id="xtick_1">
     <g id="line2d_1">
      <path d="M 82.891752 225.799375 
L 82.891752 26.959375 
" clip-path="url(#p4fbc4fa077)" style="fill: none; stroke-dasharray: 3.7,1.6; stroke-dashoffset: 0; stroke: #b0b0b0; stroke-opacity: 0.4"/>
     </g>
     <g id="line2d_2">
      <defs>
       <path id="m7a6eda6ed0" d="M 0 0 
L 0 -6 
" style="stroke: #000000"/>
      </defs>
      <g>
       <use xlink:href="#m7a6eda6ed0" x="82.891752" y="225.799375" style="stroke: #000000"/>
      </g>
     </g>
     <g id="line2d_3">
      <defs>
       <path id="m1c6698834e" d="M 0 0 
L 0 6 
" style="stroke: #000000"/>
      </defs>
      <g>
       <use xlink:href="#m1c6698834e" x="82.891752" y="26.959375" style="stroke: #000000"/>
      </g>
     </g>
     <g id="text_1">
      <!-- 0 -->
      <g transform="translate(77.891752 247.686875) scale(0.2 -0.2)">
       <defs>
        <path id="TimesNewRomanPSMT-30" d="M 231 2094 
Q 231 2819 450 3342 
Q 669 3866 1031 4122 
Q 1313 4325 1613 4325 
Q 2100 4325 2488 3828 
Q 2972 3213 2972 2159 
Q 2972 1422 2759 906 
Q 2547 391 2217 158 
Q 1888 -75 1581 -75 
Q 975 -75 572 641 
Q 231 1244 231 2094 
z
M 844 2016 
Q 844 1141 1059 588 
Q 1238 122 1591 122 
Q 1759 122 1940 273 
Q 2122 425 2216 781 
Q 2359 1319 2359 2297 
Q 2359 3022 2209 3506 
Q 2097 3866 1919 4016 
Q 1791 4119 1609 4119 
Q 1397 4119 1231 3928 
Q 1006 3669 925 3112 
Q 844 2556 844 2016 
z
" transform="scale(0.015625)"/>
       </defs>
       <use xlink:href="#TimesNewRomanPSMT-30"/>
      </g>
     </g>
    </g>
    <g id="xtick_2">
     <g id="line2d_4">
      <path d="M 153.500876 225.799375 
L 153.500876 26.959375 
" clip-path="url(#p4fbc4fa077)" style="fill: none; stroke-dasharray: 3.7,1.6; stroke-dashoffset: 0; stroke: #b0b0b0; stroke-opacity: 0.4"/>
     </g>
     <g id="line2d_5">
      <g>
       <use xlink:href="#m7a6eda6ed0" x="153.500876" y="225.799375" style="stroke: #000000"/>
      </g>
     </g>
     <g id="line2d_6">
      <g>
       <use xlink:href="#m1c6698834e" x="153.500876" y="26.959375" style="stroke: #000000"/>
      </g>
     </g>
     <g id="text_2">
      <!-- 2000 -->
      <g transform="translate(133.500876 247.686875) scale(0.2 -0.2)">
       <defs>
        <path id="TimesNewRomanPSMT-32" d="M 2934 816 
L 2638 0 
L 138 0 
L 138 116 
Q 1241 1122 1691 1759 
Q 2141 2397 2141 2925 
Q 2141 3328 1894 3587 
Q 1647 3847 1303 3847 
Q 991 3847 742 3664 
Q 494 3481 375 3128 
L 259 3128 
Q 338 3706 661 4015 
Q 984 4325 1469 4325 
Q 1984 4325 2329 3994 
Q 2675 3663 2675 3213 
Q 2675 2891 2525 2569 
Q 2294 2063 1775 1497 
Q 997 647 803 472 
L 1909 472 
Q 2247 472 2383 497 
Q 2519 522 2628 598 
Q 2738 675 2819 816 
L 2934 816 
z
" transform="scale(0.015625)"/>
       </defs>
       <use xlink:href="#TimesNewRomanPSMT-32"/>
       <use xlink:href="#TimesNewRomanPSMT-30" transform="translate(50 0)"/>
       <use xlink:href="#TimesNewRomanPSMT-30" transform="translate(100 0)"/>
       <use xlink:href="#TimesNewRomanPSMT-30" transform="translate(150 0)"/>
      </g>
     </g>
    </g>
    <g id="xtick_3">
     <g id="line2d_7">
      <path d="M 224.110001 225.799375 
L 224.110001 26.959375 
" clip-path="url(#p4fbc4fa077)" style="fill: none; stroke-dasharray: 3.7,1.6; stroke-dashoffset: 0; stroke: #b0b0b0; stroke-opacity: 0.4"/>
     </g>
     <g id="line2d_8">
      <g>
       <use xlink:href="#m7a6eda6ed0" x="224.110001" y="225.799375" style="stroke: #000000"/>
      </g>
     </g>
     <g id="line2d_9">
      <g>
       <use xlink:href="#m1c6698834e" x="224.110001" y="26.959375" style="stroke: #000000"/>
      </g>
     </g>
     <g id="text_3">
      <!-- 4000 -->
      <g transform="translate(204.110001 247.686875) scale(0.2 -0.2)">
       <defs>
        <path id="TimesNewRomanPSMT-34" d="M 2978 1563 
L 2978 1119 
L 2409 1119 
L 2409 0 
L 1894 0 
L 1894 1119 
L 100 1119 
L 100 1519 
L 2066 4325 
L 2409 4325 
L 2409 1563 
L 2978 1563 
z
M 1894 1563 
L 1894 3666 
L 406 1563 
L 1894 1563 
z
" transform="scale(0.015625)"/>
       </defs>
       <use xlink:href="#TimesNewRomanPSMT-34"/>
       <use xlink:href="#TimesNewRomanPSMT-30" transform="translate(50 0)"/>
       <use xlink:href="#TimesNewRomanPSMT-30" transform="translate(100 0)"/>
       <use xlink:href="#TimesNewRomanPSMT-30" transform="translate(150 0)"/>
      </g>
     </g>
    </g>
    <g id="xtick_4">
     <g id="line2d_10">
      <path d="M 294.719125 225.799375 
L 294.719125 26.959375 
" clip-path="url(#p4fbc4fa077)" style="fill: none; stroke-dasharray: 3.7,1.6; stroke-dashoffset: 0; stroke: #b0b0b0; stroke-opacity: 0.4"/>
     </g>
     <g id="line2d_11">
      <g>
       <use xlink:href="#m7a6eda6ed0" x="294.719125" y="225.799375" style="stroke: #000000"/>
      </g>
     </g>
     <g id="line2d_12">
      <g>
       <use xlink:href="#m1c6698834e" x="294.719125" y="26.959375" style="stroke: #000000"/>
      </g>
     </g>
     <g id="text_4">
      <!-- 6000 -->
      <g transform="translate(274.719125 247.686875) scale(0.2 -0.2)">
       <defs>
        <path id="TimesNewRomanPSMT-36" d="M 2869 4325 
L 2869 4209 
Q 2456 4169 2195 4045 
Q 1934 3922 1679 3669 
Q 1425 3416 1258 3105 
Q 1091 2794 978 2366 
Q 1428 2675 1881 2675 
Q 2316 2675 2634 2325 
Q 2953 1975 2953 1425 
Q 2953 894 2631 456 
Q 2244 -75 1606 -75 
Q 1172 -75 869 213 
Q 275 772 275 1663 
Q 275 2231 503 2743 
Q 731 3256 1154 3653 
Q 1578 4050 1965 4187 
Q 2353 4325 2688 4325 
L 2869 4325 
z
M 925 2138 
Q 869 1716 869 1456 
Q 869 1156 980 804 
Q 1091 453 1309 247 
Q 1469 100 1697 100 
Q 1969 100 2183 356 
Q 2397 613 2397 1088 
Q 2397 1622 2184 2012 
Q 1972 2403 1581 2403 
Q 1463 2403 1327 2353 
Q 1191 2303 925 2138 
z
" transform="scale(0.015625)"/>
       </defs>
       <use xlink:href="#TimesNewRomanPSMT-36"/>
       <use xlink:href="#TimesNewRomanPSMT-30" transform="translate(50 0)"/>
       <use xlink:href="#TimesNewRomanPSMT-30" transform="translate(100 0)"/>
       <use xlink:href="#TimesNewRomanPSMT-30" transform="translate(150 0)"/>
      </g>
     </g>
    </g>
    <g id="xtick_5">
     <g id="line2d_13">
      <path d="M 365.328249 225.799375 
L 365.328249 26.959375 
" clip-path="url(#p4fbc4fa077)" style="fill: none; stroke-dasharray: 3.7,1.6; stroke-dashoffset: 0; stroke: #b0b0b0; stroke-opacity: 0.4"/>
     </g>
     <g id="line2d_14">
      <g>
       <use xlink:href="#m7a6eda6ed0" x="365.328249" y="225.799375" style="stroke: #000000"/>
      </g>
     </g>
     <g id="line2d_15">
      <g>
       <use xlink:href="#m1c6698834e" x="365.328249" y="26.959375" style="stroke: #000000"/>
      </g>
     </g>
     <g id="text_5">
      <!-- 8000 -->
      <g transform="translate(345.328249 247.686875) scale(0.2 -0.2)">
       <defs>
        <path id="TimesNewRomanPSMT-38" d="M 1228 2134 
Q 725 2547 579 2797 
Q 434 3047 434 3316 
Q 434 3728 753 4026 
Q 1072 4325 1600 4325 
Q 2113 4325 2425 4047 
Q 2738 3769 2738 3413 
Q 2738 3175 2569 2928 
Q 2400 2681 1866 2347 
Q 2416 1922 2594 1678 
Q 2831 1359 2831 1006 
Q 2831 559 2490 242 
Q 2150 -75 1597 -75 
Q 994 -75 656 303 
Q 388 606 388 966 
Q 388 1247 577 1523 
Q 766 1800 1228 2134 
z
M 1719 2469 
Q 2094 2806 2194 3001 
Q 2294 3197 2294 3444 
Q 2294 3772 2109 3958 
Q 1925 4144 1606 4144 
Q 1288 4144 1088 3959 
Q 888 3775 888 3528 
Q 888 3366 970 3203 
Q 1053 3041 1206 2894 
L 1719 2469 
z
M 1375 2016 
Q 1116 1797 991 1539 
Q 866 1281 866 981 
Q 866 578 1086 336 
Q 1306 94 1647 94 
Q 1984 94 2187 284 
Q 2391 475 2391 747 
Q 2391 972 2272 1150 
Q 2050 1481 1375 2016 
z
" transform="scale(0.015625)"/>
       </defs>
       <use xlink:href="#TimesNewRomanPSMT-38"/>
       <use xlink:href="#TimesNewRomanPSMT-30" transform="translate(50 0)"/>
       <use xlink:href="#TimesNewRomanPSMT-30" transform="translate(100 0)"/>
       <use xlink:href="#TimesNewRomanPSMT-30" transform="translate(150 0)"/>
      </g>
     </g>
    </g>
    <g id="xtick_6">
     <g id="line2d_16">
      <path d="M 435.937373 225.799375 
L 435.937373 26.959375 
" clip-path="url(#p4fbc4fa077)" style="fill: none; stroke-dasharray: 3.7,1.6; stroke-dashoffset: 0; stroke: #b0b0b0; stroke-opacity: 0.4"/>
     </g>
     <g id="line2d_17">
      <g>
       <use xlink:href="#m7a6eda6ed0" x="435.937373" y="225.799375" style="stroke: #000000"/>
      </g>
     </g>
     <g id="line2d_18">
      <g>
       <use xlink:href="#m1c6698834e" x="435.937373" y="26.959375" style="stroke: #000000"/>
      </g>
     </g>
     <g id="text_6">
      <!-- 10000 -->
      <g transform="translate(410.937373 247.686875) scale(0.2 -0.2)">
       <defs>
        <path id="TimesNewRomanPSMT-31" d="M 750 3822 
L 1781 4325 
L 1884 4325 
L 1884 747 
Q 1884 391 1914 303 
Q 1944 216 2037 169 
Q 2131 122 2419 116 
L 2419 0 
L 825 0 
L 825 116 
Q 1125 122 1212 167 
Q 1300 213 1334 289 
Q 1369 366 1369 747 
L 1369 3034 
Q 1369 3497 1338 3628 
Q 1316 3728 1258 3775 
Q 1200 3822 1119 3822 
Q 1003 3822 797 3725 
L 750 3822 
z
" transform="scale(0.015625)"/>
       </defs>
       <use xlink:href="#TimesNewRomanPSMT-31"/>
       <use xlink:href="#TimesNewRomanPSMT-30" transform="translate(50 0)"/>
       <use xlink:href="#TimesNewRomanPSMT-30" transform="translate(100 0)"/>
       <use xlink:href="#TimesNewRomanPSMT-30" transform="translate(150 0)"/>
       <use xlink:href="#TimesNewRomanPSMT-30" transform="translate(200 0)"/>
      </g>
     </g>
    </g>
    <g id="xtick_7">
     <g id="line2d_19">
      <defs>
       <path id="m7dc468fbd0" d="M 0 0 
L 0 -3 
" style="stroke: #000000"/>
      </defs>
      <g>
       <use xlink:href="#m7dc468fbd0" x="65.239471" y="225.799375" style="stroke: #000000"/>
      </g>
     </g>
     <g id="line2d_20">
      <defs>
       <path id="m08adb82500" d="M 0 0 
L 0 3 
" style="stroke: #000000"/>
      </defs>
      <g>
       <use xlink:href="#m08adb82500" x="65.239471" y="26.959375" style="stroke: #000000"/>
      </g>
     </g>
    </g>
    <g id="xtick_8">
     <g id="line2d_21">
      <g>
       <use xlink:href="#m7dc468fbd0" x="100.544033" y="225.799375" style="stroke: #000000"/>
      </g>
     </g>
     <g id="line2d_22">
      <g>
       <use xlink:href="#m08adb82500" x="100.544033" y="26.959375" style="stroke: #000000"/>
      </g>
     </g>
    </g>
    <g id="xtick_9">
     <g id="line2d_23">
      <g>
       <use xlink:href="#m7dc468fbd0" x="118.196314" y="225.799375" style="stroke: #000000"/>
      </g>
     </g>
     <g id="line2d_24">
      <g>
       <use xlink:href="#m08adb82500" x="118.196314" y="26.959375" style="stroke: #000000"/>
      </g>
     </g>
    </g>
    <g id="xtick_10">
     <g id="line2d_25">
      <g>
       <use xlink:href="#m7dc468fbd0" x="135.848595" y="225.799375" style="stroke: #000000"/>
      </g>
     </g>
     <g id="line2d_26">
      <g>
       <use xlink:href="#m08adb82500" x="135.848595" y="26.959375" style="stroke: #000000"/>
      </g>
     </g>
    </g>
    <g id="xtick_11">
     <g id="line2d_27">
      <g>
       <use xlink:href="#m7dc468fbd0" x="171.153158" y="225.799375" style="stroke: #000000"/>
      </g>
     </g>
     <g id="line2d_28">
      <g>
       <use xlink:href="#m08adb82500" x="171.153158" y="26.959375" style="stroke: #000000"/>
      </g>
     </g>
    </g>
    <g id="xtick_12">
     <g id="line2d_29">
      <g>
       <use xlink:href="#m7dc468fbd0" x="188.805439" y="225.799375" style="stroke: #000000"/>
      </g>
     </g>
     <g id="line2d_30">
      <g>
       <use xlink:href="#m08adb82500" x="188.805439" y="26.959375" style="stroke: #000000"/>
      </g>
     </g>
    </g>
    <g id="xtick_13">
     <g id="line2d_31">
      <g>
       <use xlink:href="#m7dc468fbd0" x="206.45772" y="225.799375" style="stroke: #000000"/>
      </g>
     </g>
     <g id="line2d_32">
      <g>
       <use xlink:href="#m08adb82500" x="206.45772" y="26.959375" style="stroke: #000000"/>
      </g>
     </g>
    </g>
    <g id="xtick_14">
     <g id="line2d_33">
      <g>
       <use xlink:href="#m7dc468fbd0" x="241.762282" y="225.799375" style="stroke: #000000"/>
      </g>
     </g>
     <g id="line2d_34">
      <g>
       <use xlink:href="#m08adb82500" x="241.762282" y="26.959375" style="stroke: #000000"/>
      </g>
     </g>
    </g>
    <g id="xtick_15">
     <g id="line2d_35">
      <g>
       <use xlink:href="#m7dc468fbd0" x="259.414563" y="225.799375" style="stroke: #000000"/>
      </g>
     </g>
     <g id="line2d_36">
      <g>
       <use xlink:href="#m08adb82500" x="259.414563" y="26.959375" style="stroke: #000000"/>
      </g>
     </g>
    </g>
    <g id="xtick_16">
     <g id="line2d_37">
      <g>
       <use xlink:href="#m7dc468fbd0" x="277.066844" y="225.799375" style="stroke: #000000"/>
      </g>
     </g>
     <g id="line2d_38">
      <g>
       <use xlink:href="#m08adb82500" x="277.066844" y="26.959375" style="stroke: #000000"/>
      </g>
     </g>
    </g>
    <g id="xtick_17">
     <g id="line2d_39">
      <g>
       <use xlink:href="#m7dc468fbd0" x="312.371406" y="225.799375" style="stroke: #000000"/>
      </g>
     </g>
     <g id="line2d_40">
      <g>
       <use xlink:href="#m08adb82500" x="312.371406" y="26.959375" style="stroke: #000000"/>
      </g>
     </g>
    </g>
    <g id="xtick_18">
     <g id="line2d_41">
      <g>
       <use xlink:href="#m7dc468fbd0" x="330.023687" y="225.799375" style="stroke: #000000"/>
      </g>
     </g>
     <g id="line2d_42">
      <g>
       <use xlink:href="#m08adb82500" x="330.023687" y="26.959375" style="stroke: #000000"/>
      </g>
     </g>
    </g>
    <g id="xtick_19">
     <g id="line2d_43">
      <g>
       <use xlink:href="#m7dc468fbd0" x="347.675968" y="225.799375" style="stroke: #000000"/>
      </g>
     </g>
     <g id="line2d_44">
      <g>
       <use xlink:href="#m08adb82500" x="347.675968" y="26.959375" style="stroke: #000000"/>
      </g>
     </g>
    </g>
    <g id="xtick_20">
     <g id="line2d_45">
      <g>
       <use xlink:href="#m7dc468fbd0" x="382.98053" y="225.799375" style="stroke: #000000"/>
      </g>
     </g>
     <g id="line2d_46">
      <g>
       <use xlink:href="#m08adb82500" x="382.98053" y="26.959375" style="stroke: #000000"/>
      </g>
     </g>
    </g>
    <g id="xtick_21">
     <g id="line2d_47">
      <g>
       <use xlink:href="#m7dc468fbd0" x="400.632811" y="225.799375" style="stroke: #000000"/>
      </g>
     </g>
     <g id="line2d_48">
      <g>
       <use xlink:href="#m08adb82500" x="400.632811" y="26.959375" style="stroke: #000000"/>
      </g>
     </g>
    </g>
    <g id="xtick_22">
     <g id="line2d_49">
      <g>
       <use xlink:href="#m7dc468fbd0" x="418.285092" y="225.799375" style="stroke: #000000"/>
      </g>
     </g>
     <g id="line2d_50">
      <g>
       <use xlink:href="#m08adb82500" x="418.285092" y="26.959375" style="stroke: #000000"/>
      </g>
     </g>
    </g>
    <g id="xtick_23">
     <g id="line2d_51">
      <g>
       <use xlink:href="#m7dc468fbd0" x="453.589654" y="225.799375" style="stroke: #000000"/>
      </g>
     </g>
     <g id="line2d_52">
      <g>
       <use xlink:href="#m08adb82500" x="453.589654" y="26.959375" style="stroke: #000000"/>
      </g>
     </g>
    </g>
    <g id="xtick_24">
     <g id="line2d_53">
      <g>
       <use xlink:href="#m7dc468fbd0" x="471.241935" y="225.799375" style="stroke: #000000"/>
      </g>
     </g>
     <g id="line2d_54">
      <g>
       <use xlink:href="#m08adb82500" x="471.241935" y="26.959375" style="stroke: #000000"/>
      </g>
     </g>
    </g>
    <g id="xtick_25">
     <g id="line2d_55">
      <g>
       <use xlink:href="#m7dc468fbd0" x="488.894216" y="225.799375" style="stroke: #000000"/>
      </g>
     </g>
     <g id="line2d_56">
      <g>
       <use xlink:href="#m08adb82500" x="488.894216" y="26.959375" style="stroke: #000000"/>
      </g>
     </g>
    </g>
    <g id="text_7">
     <!-- Variance -->
     <g transform="translate(242.024688 269.8525) scale(0.2 -0.2)">
      <defs>
       <path id="TimesNewRomanPSMT-56" d="M 4544 4238 
L 4544 4122 
Q 4319 4081 4203 3978 
Q 4038 3825 3909 3509 
L 2431 -97 
L 2316 -97 
L 728 3556 
Q 606 3838 556 3900 
Q 478 3997 364 4051 
Q 250 4106 56 4122 
L 56 4238 
L 1788 4238 
L 1788 4122 
Q 1494 4094 1406 4022 
Q 1319 3950 1319 3838 
Q 1319 3681 1463 3350 
L 2541 866 
L 3541 3319 
Q 3688 3681 3688 3822 
Q 3688 3913 3597 3995 
Q 3506 4078 3291 4113 
Q 3275 4116 3238 4122 
L 3238 4238 
L 4544 4238 
z
" transform="scale(0.015625)"/>
       <path id="TimesNewRomanPSMT-61" d="M 1822 413 
Q 1381 72 1269 19 
Q 1100 -59 909 -59 
Q 613 -59 420 144 
Q 228 347 228 678 
Q 228 888 322 1041 
Q 450 1253 767 1440 
Q 1084 1628 1822 1897 
L 1822 2009 
Q 1822 2438 1686 2597 
Q 1550 2756 1291 2756 
Q 1094 2756 978 2650 
Q 859 2544 859 2406 
L 866 2225 
Q 866 2081 792 2003 
Q 719 1925 600 1925 
Q 484 1925 411 2006 
Q 338 2088 338 2228 
Q 338 2497 613 2722 
Q 888 2947 1384 2947 
Q 1766 2947 2009 2819 
Q 2194 2722 2281 2516 
Q 2338 2381 2338 1966 
L 2338 994 
Q 2338 584 2353 492 
Q 2369 400 2405 369 
Q 2441 338 2488 338 
Q 2538 338 2575 359 
Q 2641 400 2828 588 
L 2828 413 
Q 2478 -56 2159 -56 
Q 2006 -56 1915 50 
Q 1825 156 1822 413 
z
M 1822 616 
L 1822 1706 
Q 1350 1519 1213 1441 
Q 966 1303 859 1153 
Q 753 1003 753 825 
Q 753 600 887 451 
Q 1022 303 1197 303 
Q 1434 303 1822 616 
z
" transform="scale(0.015625)"/>
       <path id="TimesNewRomanPSMT-72" d="M 1038 2947 
L 1038 2303 
Q 1397 2947 1775 2947 
Q 1947 2947 2059 2842 
Q 2172 2738 2172 2600 
Q 2172 2478 2090 2393 
Q 2009 2309 1897 2309 
Q 1788 2309 1652 2417 
Q 1516 2525 1450 2525 
Q 1394 2525 1328 2463 
Q 1188 2334 1038 2041 
L 1038 669 
Q 1038 431 1097 309 
Q 1138 225 1241 169 
Q 1344 113 1538 113 
L 1538 0 
L 72 0 
L 72 113 
Q 291 113 397 181 
Q 475 231 506 341 
Q 522 394 522 644 
L 522 1753 
Q 522 2253 501 2348 
Q 481 2444 426 2487 
Q 372 2531 291 2531 
Q 194 2531 72 2484 
L 41 2597 
L 906 2947 
L 1038 2947 
z
" transform="scale(0.015625)"/>
       <path id="TimesNewRomanPSMT-69" d="M 928 4444 
Q 1059 4444 1151 4351 
Q 1244 4259 1244 4128 
Q 1244 3997 1151 3903 
Q 1059 3809 928 3809 
Q 797 3809 703 3903 
Q 609 3997 609 4128 
Q 609 4259 701 4351 
Q 794 4444 928 4444 
z
M 1188 2947 
L 1188 647 
Q 1188 378 1227 289 
Q 1266 200 1342 156 
Q 1419 113 1622 113 
L 1622 0 
L 231 0 
L 231 113 
Q 441 113 512 153 
Q 584 194 626 287 
Q 669 381 669 647 
L 669 1750 
Q 669 2216 641 2353 
Q 619 2453 572 2492 
Q 525 2531 444 2531 
Q 356 2531 231 2484 
L 188 2597 
L 1050 2947 
L 1188 2947 
z
" transform="scale(0.015625)"/>
       <path id="TimesNewRomanPSMT-6e" d="M 1034 2341 
Q 1538 2947 1994 2947 
Q 2228 2947 2397 2830 
Q 2566 2713 2666 2444 
Q 2734 2256 2734 1869 
L 2734 647 
Q 2734 375 2778 278 
Q 2813 200 2889 156 
Q 2966 113 3172 113 
L 3172 0 
L 1756 0 
L 1756 113 
L 1816 113 
Q 2016 113 2095 173 
Q 2175 234 2206 353 
Q 2219 400 2219 647 
L 2219 1819 
Q 2219 2209 2117 2386 
Q 2016 2563 1775 2563 
Q 1403 2563 1034 2156 
L 1034 647 
Q 1034 356 1069 288 
Q 1113 197 1189 155 
Q 1266 113 1500 113 
L 1500 0 
L 84 0 
L 84 113 
L 147 113 
Q 366 113 442 223 
Q 519 334 519 647 
L 519 1709 
Q 519 2225 495 2337 
Q 472 2450 423 2490 
Q 375 2531 294 2531 
Q 206 2531 84 2484 
L 38 2597 
L 900 2947 
L 1034 2947 
L 1034 2341 
z
" transform="scale(0.015625)"/>
       <path id="TimesNewRomanPSMT-63" d="M 2631 1088 
Q 2516 522 2178 217 
Q 1841 -88 1431 -88 
Q 944 -88 581 321 
Q 219 731 219 1428 
Q 219 2103 620 2525 
Q 1022 2947 1584 2947 
Q 2006 2947 2278 2723 
Q 2550 2500 2550 2259 
Q 2550 2141 2473 2067 
Q 2397 1994 2259 1994 
Q 2075 1994 1981 2113 
Q 1928 2178 1911 2362 
Q 1894 2547 1784 2644 
Q 1675 2738 1481 2738 
Q 1169 2738 978 2506 
Q 725 2200 725 1697 
Q 725 1184 976 792 
Q 1228 400 1656 400 
Q 1963 400 2206 609 
Q 2378 753 2541 1131 
L 2631 1088 
z
" transform="scale(0.015625)"/>
       <path id="TimesNewRomanPSMT-65" d="M 681 1784 
Q 678 1147 991 784 
Q 1303 422 1725 422 
Q 2006 422 2214 576 
Q 2422 731 2563 1106 
L 2659 1044 
Q 2594 616 2278 264 
Q 1963 -88 1488 -88 
Q 972 -88 605 314 
Q 238 716 238 1394 
Q 238 2128 614 2539 
Q 991 2950 1559 2950 
Q 2041 2950 2350 2633 
Q 2659 2316 2659 1784 
L 681 1784 
z
M 681 1966 
L 2006 1966 
Q 1991 2241 1941 2353 
Q 1863 2528 1708 2628 
Q 1553 2728 1384 2728 
Q 1125 2728 920 2526 
Q 716 2325 681 1966 
z
" transform="scale(0.015625)"/>
      </defs>
      <use xlink:href="#TimesNewRomanPSMT-56"/>
      <use xlink:href="#TimesNewRomanPSMT-61" transform="translate(61.091797 0)"/>
      <use xlink:href="#TimesNewRomanPSMT-72" transform="translate(105.476562 0)"/>
      <use xlink:href="#TimesNewRomanPSMT-69" transform="translate(138.777344 0)"/>
      <use xlink:href="#TimesNewRomanPSMT-61" transform="translate(166.560547 0)"/>
      <use xlink:href="#TimesNewRomanPSMT-6e" transform="translate(210.945312 0)"/>
      <use xlink:href="#TimesNewRomanPSMT-63" transform="translate(260.945312 0)"/>
      <use xlink:href="#TimesNewRomanPSMT-65" transform="translate(305.330078 0)"/>
     </g>
    </g>
   </g>
   <g id="matplotlib.axis_2">
    <g id="ytick_1">
     <g id="line2d_57">
      <path d="M 63.765625 225.799375 
L 490.230625 225.799375 
" clip-path="url(#p4fbc4fa077)" style="fill: none; stroke-dasharray: 3.7,1.6; stroke-dashoffset: 0; stroke: #b0b0b0; stroke-opacity: 0.4"/>
     </g>
     <g id="line2d_58">
      <defs>
       <path id="m1eb5821e3c" d="M 0 0 
L 6 0 
" style="stroke: #000000"/>
      </defs>
      <g>
       <use xlink:href="#m1eb5821e3c" x="63.765625" y="225.799375" style="stroke: #000000"/>
      </g>
     </g>
     <g id="line2d_59">
      <defs>
       <path id="m3085241e28" d="M 0 0 
L -6 0 
" style="stroke: #000000"/>
      </defs>
      <g>
       <use xlink:href="#m3085241e28" x="490.230625" y="225.799375" style="stroke: #000000"/>
      </g>
     </g>
     <g id="text_8">
      <!-- 0 -->
      <g transform="translate(45.765625 232.743125) scale(0.2 -0.2)">
       <use xlink:href="#TimesNewRomanPSMT-30"/>
      </g>
     </g>
    </g>
    <g id="ytick_2">
     <g id="line2d_60">
      <path d="M 63.765625 132.28262 
L 490.230625 132.28262 
" clip-path="url(#p4fbc4fa077)" style="fill: none; stroke-dasharray: 3.7,1.6; stroke-dashoffset: 0; stroke: #b0b0b0; stroke-opacity: 0.4"/>
     </g>
     <g id="line2d_61">
      <g>
       <use xlink:href="#m1eb5821e3c" x="63.765625" y="132.28262" style="stroke: #000000"/>
      </g>
     </g>
     <g id="line2d_62">
      <g>
       <use xlink:href="#m3085241e28" x="490.230625" y="132.28262" style="stroke: #000000"/>
      </g>
     </g>
     <g id="text_9">
      <!-- 200 -->
      <g transform="translate(25.765625 139.22637) scale(0.2 -0.2)">
       <use xlink:href="#TimesNewRomanPSMT-32"/>
       <use xlink:href="#TimesNewRomanPSMT-30" transform="translate(50 0)"/>
       <use xlink:href="#TimesNewRomanPSMT-30" transform="translate(100 0)"/>
      </g>
     </g>
    </g>
    <g id="ytick_3">
     <g id="line2d_63">
      <path d="M 63.765625 38.765865 
L 490.230625 38.765865 
" clip-path="url(#p4fbc4fa077)" style="fill: none; stroke-dasharray: 3.7,1.6; stroke-dashoffset: 0; stroke: #b0b0b0; stroke-opacity: 0.4"/>
     </g>
     <g id="line2d_64">
      <g>
       <use xlink:href="#m1eb5821e3c" x="63.765625" y="38.765865" style="stroke: #000000"/>
      </g>
     </g>
     <g id="line2d_65">
      <g>
       <use xlink:href="#m3085241e28" x="490.230625" y="38.765865" style="stroke: #000000"/>
      </g>
     </g>
     <g id="text_10">
      <!-- 400 -->
      <g transform="translate(25.765625 45.709615) scale(0.2 -0.2)">
       <use xlink:href="#TimesNewRomanPSMT-34"/>
       <use xlink:href="#TimesNewRomanPSMT-30" transform="translate(50 0)"/>
       <use xlink:href="#TimesNewRomanPSMT-30" transform="translate(100 0)"/>
      </g>
     </g>
    </g>
    <g id="ytick_4">
     <g id="line2d_66">
      <defs>
       <path id="me79df6a217" d="M 0 0 
L 3 0 
" style="stroke: #000000"/>
      </defs>
      <g>
       <use xlink:href="#me79df6a217" x="63.765625" y="202.420186" style="stroke: #000000"/>
      </g>
     </g>
     <g id="line2d_67">
      <defs>
       <path id="m9c53cc8d58" d="M 0 0 
L -3 0 
" style="stroke: #000000"/>
      </defs>
      <g>
       <use xlink:href="#m9c53cc8d58" x="490.230625" y="202.420186" style="stroke: #000000"/>
      </g>
     </g>
    </g>
    <g id="ytick_5">
     <g id="line2d_68">
      <g>
       <use xlink:href="#me79df6a217" x="63.765625" y="179.040998" style="stroke: #000000"/>
      </g>
     </g>
     <g id="line2d_69">
      <g>
       <use xlink:href="#m9c53cc8d58" x="490.230625" y="179.040998" style="stroke: #000000"/>
      </g>
     </g>
    </g>
    <g id="ytick_6">
     <g id="line2d_70">
      <g>
       <use xlink:href="#me79df6a217" x="63.765625" y="155.661809" style="stroke: #000000"/>
      </g>
     </g>
     <g id="line2d_71">
      <g>
       <use xlink:href="#m9c53cc8d58" x="490.230625" y="155.661809" style="stroke: #000000"/>
      </g>
     </g>
    </g>
    <g id="ytick_7">
     <g id="line2d_72">
      <g>
       <use xlink:href="#me79df6a217" x="63.765625" y="108.903431" style="stroke: #000000"/>
      </g>
     </g>
     <g id="line2d_73">
      <g>
       <use xlink:href="#m9c53cc8d58" x="490.230625" y="108.903431" style="stroke: #000000"/>
      </g>
     </g>
    </g>
    <g id="ytick_8">
     <g id="line2d_74">
      <g>
       <use xlink:href="#me79df6a217" x="63.765625" y="85.524243" style="stroke: #000000"/>
      </g>
     </g>
     <g id="line2d_75">
      <g>
       <use xlink:href="#m9c53cc8d58" x="490.230625" y="85.524243" style="stroke: #000000"/>
      </g>
     </g>
    </g>
    <g id="ytick_9">
     <g id="line2d_76">
      <g>
       <use xlink:href="#me79df6a217" x="63.765625" y="62.145054" style="stroke: #000000"/>
      </g>
     </g>
     <g id="line2d_77">
      <g>
       <use xlink:href="#m9c53cc8d58" x="490.230625" y="62.145054" style="stroke: #000000"/>
      </g>
     </g>
    </g>
    <g id="text_11">
     <!-- Frequency -->
     <g transform="translate(17.45 168.587187) rotate(-90) scale(0.2 -0.2)">
      <defs>
       <path id="TimesNewRomanPSMT-46" d="M 1309 4006 
L 1309 2341 
L 2081 2341 
Q 2347 2341 2470 2458 
Q 2594 2575 2634 2922 
L 2750 2922 
L 2750 1488 
L 2634 1488 
Q 2631 1734 2570 1850 
Q 2509 1966 2401 2023 
Q 2294 2081 2081 2081 
L 1309 2081 
L 1309 750 
Q 1309 428 1350 325 
Q 1381 247 1481 191 
Q 1619 116 1769 116 
L 1922 116 
L 1922 0 
L 103 0 
L 103 116 
L 253 116 
Q 516 116 634 269 
Q 709 369 709 750 
L 709 3488 
Q 709 3809 669 3913 
Q 638 3991 541 4047 
Q 406 4122 253 4122 
L 103 4122 
L 103 4238 
L 3256 4238 
L 3297 3306 
L 3188 3306 
Q 3106 3603 2998 3742 
Q 2891 3881 2733 3943 
Q 2575 4006 2244 4006 
L 1309 4006 
z
" transform="scale(0.015625)"/>
       <path id="TimesNewRomanPSMT-71" d="M 2734 2947 
L 2734 -734 
Q 2734 -1009 2771 -1087 
Q 2809 -1166 2889 -1209 
Q 2969 -1253 3200 -1253 
L 3200 -1369 
L 1756 -1369 
L 1756 -1253 
L 1816 -1253 
Q 1991 -1253 2081 -1203 
Q 2144 -1169 2181 -1080 
Q 2219 -991 2219 -734 
L 2219 497 
Q 1934 159 1721 35 
Q 1509 -88 1281 -88 
Q 866 -88 539 290 
Q 213 669 213 1303 
Q 213 2031 644 2489 
Q 1075 2947 1684 2947 
Q 1863 2947 2013 2897 
Q 2163 2847 2281 2747 
Q 2463 2834 2628 2947 
L 2734 2947 
z
M 2219 694 
L 2219 2038 
Q 2219 2272 2158 2406 
Q 2097 2541 1940 2634 
Q 1784 2728 1588 2728 
Q 1238 2728 988 2431 
Q 738 2134 738 1531 
Q 738 953 992 653 
Q 1247 353 1606 353 
Q 1791 353 1934 433 
Q 2078 513 2219 694 
z
" transform="scale(0.015625)"/>
       <path id="TimesNewRomanPSMT-75" d="M 2709 2863 
L 2709 1128 
Q 2709 631 2732 520 
Q 2756 409 2807 365 
Q 2859 322 2928 322 
Q 3025 322 3147 375 
L 3191 266 
L 2334 -88 
L 2194 -88 
L 2194 519 
Q 1825 119 1631 15 
Q 1438 -88 1222 -88 
Q 981 -88 804 51 
Q 628 191 559 409 
Q 491 628 491 1028 
L 491 2306 
Q 491 2509 447 2587 
Q 403 2666 317 2708 
Q 231 2750 6 2747 
L 6 2863 
L 1009 2863 
L 1009 947 
Q 1009 547 1148 422 
Q 1288 297 1484 297 
Q 1619 297 1789 381 
Q 1959 466 2194 703 
L 2194 2325 
Q 2194 2569 2105 2655 
Q 2016 2741 1734 2747 
L 1734 2863 
L 2709 2863 
z
" transform="scale(0.015625)"/>
       <path id="TimesNewRomanPSMT-79" d="M 38 2863 
L 1372 2863 
L 1372 2747 
L 1306 2747 
Q 1166 2747 1095 2686 
Q 1025 2625 1025 2534 
Q 1025 2413 1128 2197 
L 1825 753 
L 2466 2334 
Q 2519 2463 2519 2588 
Q 2519 2644 2497 2672 
Q 2472 2706 2419 2726 
Q 2366 2747 2231 2747 
L 2231 2863 
L 3163 2863 
L 3163 2747 
Q 3047 2734 2984 2696 
Q 2922 2659 2847 2556 
Q 2819 2513 2741 2316 
L 1575 -541 
Q 1406 -956 1132 -1168 
Q 859 -1381 606 -1381 
Q 422 -1381 303 -1275 
Q 184 -1169 184 -1031 
Q 184 -900 270 -820 
Q 356 -741 506 -741 
Q 609 -741 788 -809 
Q 913 -856 944 -856 
Q 1038 -856 1148 -759 
Q 1259 -663 1372 -384 
L 1575 113 
L 547 2272 
Q 500 2369 397 2513 
Q 319 2622 269 2659 
Q 197 2709 38 2747 
L 38 2863 
z
" transform="scale(0.015625)"/>
      </defs>
      <use xlink:href="#TimesNewRomanPSMT-46"/>
      <use xlink:href="#TimesNewRomanPSMT-72" transform="translate(55.615234 0)"/>
      <use xlink:href="#TimesNewRomanPSMT-65" transform="translate(88.916016 0)"/>
      <use xlink:href="#TimesNewRomanPSMT-71" transform="translate(133.300781 0)"/>
      <use xlink:href="#TimesNewRomanPSMT-75" transform="translate(183.300781 0)"/>
      <use xlink:href="#TimesNewRomanPSMT-65" transform="translate(233.300781 0)"/>
      <use xlink:href="#TimesNewRomanPSMT-6e" transform="translate(277.685547 0)"/>
      <use xlink:href="#TimesNewRomanPSMT-63" transform="translate(327.685547 0)"/>
      <use xlink:href="#TimesNewRomanPSMT-79" transform="translate(372.070312 0)"/>
     </g>
    </g>
   </g>
   <g id="patch_201">
    <path d="M 63.765625 225.799375 
L 63.765625 26.959375 
" style="fill: none; stroke: #000000; stroke-linejoin: miter; stroke-linecap: square"/>
   </g>
   <g id="patch_202">
    <path d="M 490.230625 225.799375 
L 490.230625 26.959375 
" style="fill: none; stroke: #000000; stroke-linejoin: miter; stroke-linecap: square"/>
   </g>
   <g id="patch_203">
    <path d="M 63.765625 225.799375 
L 490.230625 225.799375 
" style="fill: none; stroke: #000000; stroke-linejoin: miter; stroke-linecap: square"/>
   </g>
   <g id="patch_204">
    <path d="M 63.765625 26.959375 
L 490.230625 26.959375 
" style="fill: none; stroke: #000000; stroke-linejoin: miter; stroke-linecap: square"/>
   </g>
   <g id="text_12">
    <!-- Distribution of the final variance values -->
    <g transform="translate(78.099688 20.959375) scale(0.25 -0.25)">
     <defs>
      <path id="TimesNewRomanPSMT-44" d="M 109 0 
L 109 116 
L 269 116 
Q 538 116 650 288 
Q 719 391 719 750 
L 719 3488 
Q 719 3884 631 3984 
Q 509 4122 269 4122 
L 109 4122 
L 109 4238 
L 1834 4238 
Q 2784 4238 3279 4022 
Q 3775 3806 4076 3303 
Q 4378 2800 4378 2141 
Q 4378 1256 3841 663 
Q 3238 0 2003 0 
L 109 0 
z
M 1319 306 
Q 1716 219 1984 219 
Q 2709 219 3187 728 
Q 3666 1238 3666 2109 
Q 3666 2988 3187 3494 
Q 2709 4000 1959 4000 
Q 1678 4000 1319 3909 
L 1319 306 
z
" transform="scale(0.015625)"/>
      <path id="TimesNewRomanPSMT-73" d="M 2050 2947 
L 2050 1972 
L 1947 1972 
Q 1828 2431 1642 2597 
Q 1456 2763 1169 2763 
Q 950 2763 815 2647 
Q 681 2531 681 2391 
Q 681 2216 781 2091 
Q 878 1963 1175 1819 
L 1631 1597 
Q 2266 1288 2266 781 
Q 2266 391 1970 151 
Q 1675 -88 1309 -88 
Q 1047 -88 709 6 
Q 606 38 541 38 
Q 469 38 428 -44 
L 325 -44 
L 325 978 
L 428 978 
Q 516 541 762 319 
Q 1009 97 1316 97 
Q 1531 97 1667 223 
Q 1803 350 1803 528 
Q 1803 744 1651 891 
Q 1500 1038 1047 1263 
Q 594 1488 453 1669 
Q 313 1847 313 2119 
Q 313 2472 555 2709 
Q 797 2947 1181 2947 
Q 1350 2947 1591 2875 
Q 1750 2828 1803 2828 
Q 1853 2828 1881 2850 
Q 1909 2872 1947 2947 
L 2050 2947 
z
" transform="scale(0.015625)"/>
      <path id="TimesNewRomanPSMT-74" d="M 1031 3803 
L 1031 2863 
L 1700 2863 
L 1700 2644 
L 1031 2644 
L 1031 788 
Q 1031 509 1111 412 
Q 1191 316 1316 316 
Q 1419 316 1516 380 
Q 1613 444 1666 569 
L 1788 569 
Q 1678 263 1478 108 
Q 1278 -47 1066 -47 
Q 922 -47 784 33 
Q 647 113 581 261 
Q 516 409 516 719 
L 516 2644 
L 63 2644 
L 63 2747 
Q 234 2816 414 2980 
Q 594 3144 734 3369 
Q 806 3488 934 3803 
L 1031 3803 
z
" transform="scale(0.015625)"/>
      <path id="TimesNewRomanPSMT-62" d="M 984 2369 
Q 1400 2947 1881 2947 
Q 2322 2947 2650 2570 
Q 2978 2194 2978 1541 
Q 2978 778 2472 313 
Q 2038 -88 1503 -88 
Q 1253 -88 995 3 
Q 738 94 469 275 
L 469 3241 
Q 469 3728 445 3840 
Q 422 3953 372 3993 
Q 322 4034 247 4034 
Q 159 4034 28 3984 
L -16 4094 
L 844 4444 
L 984 4444 
L 984 2369 
z
M 984 2169 
L 984 456 
Q 1144 300 1314 220 
Q 1484 141 1663 141 
Q 1947 141 2192 453 
Q 2438 766 2438 1363 
Q 2438 1913 2192 2208 
Q 1947 2503 1634 2503 
Q 1469 2503 1303 2419 
Q 1178 2356 984 2169 
z
" transform="scale(0.015625)"/>
      <path id="TimesNewRomanPSMT-6f" d="M 1600 2947 
Q 2250 2947 2644 2453 
Q 2978 2031 2978 1484 
Q 2978 1100 2793 706 
Q 2609 313 2286 112 
Q 1963 -88 1566 -88 
Q 919 -88 538 428 
Q 216 863 216 1403 
Q 216 1797 411 2186 
Q 606 2575 925 2761 
Q 1244 2947 1600 2947 
z
M 1503 2744 
Q 1338 2744 1170 2645 
Q 1003 2547 900 2300 
Q 797 2053 797 1666 
Q 797 1041 1045 587 
Q 1294 134 1700 134 
Q 2003 134 2200 384 
Q 2397 634 2397 1244 
Q 2397 2006 2069 2444 
Q 1847 2744 1503 2744 
z
" transform="scale(0.015625)"/>
      <path id="TimesNewRomanPSMT-20" transform="scale(0.015625)"/>
      <path id="TimesNewRomanPSMT-66" d="M 1319 2638 
L 1319 756 
Q 1319 356 1406 250 
Q 1522 113 1716 113 
L 1975 113 
L 1975 0 
L 266 0 
L 266 113 
L 394 113 
Q 519 113 622 175 
Q 725 238 764 344 
Q 803 450 803 756 
L 803 2638 
L 247 2638 
L 247 2863 
L 803 2863 
L 803 3050 
Q 803 3478 940 3775 
Q 1078 4072 1361 4255 
Q 1644 4438 1997 4438 
Q 2325 4438 2600 4225 
Q 2781 4084 2781 3909 
Q 2781 3816 2700 3733 
Q 2619 3650 2525 3650 
Q 2453 3650 2373 3701 
Q 2294 3753 2178 3923 
Q 2063 4094 1966 4153 
Q 1869 4213 1750 4213 
Q 1606 4213 1506 4136 
Q 1406 4059 1362 3898 
Q 1319 3738 1319 3069 
L 1319 2863 
L 2056 2863 
L 2056 2638 
L 1319 2638 
z
" transform="scale(0.015625)"/>
      <path id="TimesNewRomanPSMT-68" d="M 1041 4444 
L 1041 2350 
Q 1388 2731 1591 2839 
Q 1794 2947 1997 2947 
Q 2241 2947 2416 2812 
Q 2591 2678 2675 2391 
Q 2734 2191 2734 1659 
L 2734 647 
Q 2734 375 2778 275 
Q 2809 200 2884 156 
Q 2959 113 3159 113 
L 3159 0 
L 1753 0 
L 1753 113 
L 1819 113 
Q 2019 113 2097 173 
Q 2175 234 2206 353 
Q 2216 403 2216 647 
L 2216 1659 
Q 2216 2128 2167 2275 
Q 2119 2422 2012 2495 
Q 1906 2569 1756 2569 
Q 1603 2569 1437 2487 
Q 1272 2406 1041 2159 
L 1041 647 
Q 1041 353 1073 281 
Q 1106 209 1195 161 
Q 1284 113 1503 113 
L 1503 0 
L 84 0 
L 84 113 
Q 275 113 384 172 
Q 447 203 484 290 
Q 522 378 522 647 
L 522 3238 
Q 522 3728 498 3840 
Q 475 3953 426 3993 
Q 378 4034 297 4034 
Q 231 4034 84 3984 
L 41 4094 
L 897 4444 
L 1041 4444 
z
" transform="scale(0.015625)"/>
      <path id="TimesNewRomanPSMT-6c" d="M 1184 4444 
L 1184 647 
Q 1184 378 1223 290 
Q 1263 203 1344 158 
Q 1425 113 1647 113 
L 1647 0 
L 244 0 
L 244 113 
Q 441 113 512 153 
Q 584 194 625 287 
Q 666 381 666 647 
L 666 3247 
Q 666 3731 644 3842 
Q 622 3953 573 3993 
Q 525 4034 450 4034 
Q 369 4034 244 3984 
L 191 4094 
L 1044 4444 
L 1184 4444 
z
" transform="scale(0.015625)"/>
      <path id="TimesNewRomanPSMT-76" d="M 53 2863 
L 1400 2863 
L 1400 2747 
L 1313 2747 
Q 1191 2747 1127 2687 
Q 1063 2628 1063 2528 
Q 1063 2419 1128 2269 
L 1794 688 
L 2463 2328 
Q 2534 2503 2534 2594 
Q 2534 2638 2509 2666 
Q 2475 2713 2422 2730 
Q 2369 2747 2206 2747 
L 2206 2863 
L 3141 2863 
L 3141 2747 
Q 2978 2734 2916 2681 
Q 2806 2588 2719 2369 
L 1703 -88 
L 1575 -88 
L 553 2328 
Q 484 2497 421 2570 
Q 359 2644 263 2694 
Q 209 2722 53 2747 
L 53 2863 
z
" transform="scale(0.015625)"/>
     </defs>
     <use xlink:href="#TimesNewRomanPSMT-44"/>
     <use xlink:href="#TimesNewRomanPSMT-69" transform="translate(72.216797 0)"/>
     <use xlink:href="#TimesNewRomanPSMT-73" transform="translate(100 0)"/>
     <use xlink:href="#TimesNewRomanPSMT-74" transform="translate(138.916016 0)"/>
     <use xlink:href="#TimesNewRomanPSMT-72" transform="translate(166.699219 0)"/>
     <use xlink:href="#TimesNewRomanPSMT-69" transform="translate(200 0)"/>
     <use xlink:href="#TimesNewRomanPSMT-62" transform="translate(227.783203 0)"/>
     <use xlink:href="#TimesNewRomanPSMT-75" transform="translate(277.783203 0)"/>
     <use xlink:href="#TimesNewRomanPSMT-74" transform="translate(327.783203 0)"/>
     <use xlink:href="#TimesNewRomanPSMT-69" transform="translate(355.566406 0)"/>
     <use xlink:href="#TimesNewRomanPSMT-6f" transform="translate(383.349609 0)"/>
     <use xlink:href="#TimesNewRomanPSMT-6e" transform="translate(433.349609 0)"/>
     <use xlink:href="#TimesNewRomanPSMT-20" transform="translate(483.349609 0)"/>
     <use xlink:href="#TimesNewRomanPSMT-6f" transform="translate(508.349609 0)"/>
     <use xlink:href="#TimesNewRomanPSMT-66" transform="translate(558.349609 0)"/>
     <use xlink:href="#TimesNewRomanPSMT-20" transform="translate(591.650391 0)"/>
     <use xlink:href="#TimesNewRomanPSMT-74" transform="translate(616.650391 0)"/>
     <use xlink:href="#TimesNewRomanPSMT-68" transform="translate(644.433594 0)"/>
     <use xlink:href="#TimesNewRomanPSMT-65" transform="translate(694.433594 0)"/>
     <use xlink:href="#TimesNewRomanPSMT-20" transform="translate(738.818359 0)"/>
     <use xlink:href="#TimesNewRomanPSMT-66" transform="translate(763.818359 0)"/>
     <use xlink:href="#TimesNewRomanPSMT-69" transform="translate(797.119141 0)"/>
     <use xlink:href="#TimesNewRomanPSMT-6e" transform="translate(824.902344 0)"/>
     <use xlink:href="#TimesNewRomanPSMT-61" transform="translate(874.902344 0)"/>
     <use xlink:href="#TimesNewRomanPSMT-6c" transform="translate(919.287109 0)"/>
     <use xlink:href="#TimesNewRomanPSMT-20" transform="translate(947.070312 0)"/>
     <use xlink:href="#TimesNewRomanPSMT-76" transform="translate(972.070312 0)"/>
     <use xlink:href="#TimesNewRomanPSMT-61" transform="translate(1022.070312 0)"/>
     <use xlink:href="#TimesNewRomanPSMT-72" transform="translate(1066.455078 0)"/>
     <use xlink:href="#TimesNewRomanPSMT-69" transform="translate(1099.755859 0)"/>
     <use xlink:href="#TimesNewRomanPSMT-61" transform="translate(1127.539062 0)"/>
     <use xlink:href="#TimesNewRomanPSMT-6e" transform="translate(1171.923828 0)"/>
     <use xlink:href="#TimesNewRomanPSMT-63" transform="translate(1221.923828 0)"/>
     <use xlink:href="#TimesNewRomanPSMT-65" transform="translate(1266.308594 0)"/>
     <use xlink:href="#TimesNewRomanPSMT-20" transform="translate(1310.693359 0)"/>
     <use xlink:href="#TimesNewRomanPSMT-76" transform="translate(1335.693359 0)"/>
     <use xlink:href="#TimesNewRomanPSMT-61" transform="translate(1385.693359 0)"/>
     <use xlink:href="#TimesNewRomanPSMT-6c" transform="translate(1430.078125 0)"/>
     <use xlink:href="#TimesNewRomanPSMT-75" transform="translate(1457.861328 0)"/>
     <use xlink:href="#TimesNewRomanPSMT-65" transform="translate(1507.861328 0)"/>
     <use xlink:href="#TimesNewRomanPSMT-73" transform="translate(1552.246094 0)"/>
    </g>
   </g>
   <g id="legend_1">
    <g id="patch_205">
     <path d="M 264.58375 58.959375 
L 304.58375 58.959375 
L 304.58375 44.959375 
L 264.58375 44.959375 
z
" style="fill: #1f77b4; opacity: 0.6; stroke: #000000; stroke-linejoin: miter"/>
    </g>
    <g id="text_13">
     <!-- Success estimation -->
     <g transform="translate(320.58375 58.959375) scale(0.2 -0.2)">
      <defs>
       <path id="TimesNewRomanPSMT-53" d="M 2934 4334 
L 2934 2869 
L 2819 2869 
Q 2763 3291 2617 3541 
Q 2472 3791 2203 3937 
Q 1934 4084 1647 4084 
Q 1322 4084 1109 3886 
Q 897 3688 897 3434 
Q 897 3241 1031 3081 
Q 1225 2847 1953 2456 
Q 2547 2138 2764 1967 
Q 2981 1797 3098 1565 
Q 3216 1334 3216 1081 
Q 3216 600 2842 251 
Q 2469 -97 1881 -97 
Q 1697 -97 1534 -69 
Q 1438 -53 1133 45 
Q 828 144 747 144 
Q 669 144 623 97 
Q 578 50 556 -97 
L 441 -97 
L 441 1356 
L 556 1356 
Q 638 900 775 673 
Q 913 447 1195 297 
Q 1478 147 1816 147 
Q 2206 147 2432 353 
Q 2659 559 2659 841 
Q 2659 997 2573 1156 
Q 2488 1316 2306 1453 
Q 2184 1547 1640 1851 
Q 1097 2156 867 2337 
Q 638 2519 519 2737 
Q 400 2956 400 3219 
Q 400 3675 750 4004 
Q 1100 4334 1641 4334 
Q 1978 4334 2356 4169 
Q 2531 4091 2603 4091 
Q 2684 4091 2736 4139 
Q 2788 4188 2819 4334 
L 2934 4334 
z
" transform="scale(0.015625)"/>
       <path id="TimesNewRomanPSMT-6d" d="M 1050 2338 
Q 1363 2650 1419 2697 
Q 1559 2816 1721 2881 
Q 1884 2947 2044 2947 
Q 2313 2947 2506 2790 
Q 2700 2634 2766 2338 
Q 3088 2713 3309 2830 
Q 3531 2947 3766 2947 
Q 3994 2947 4170 2830 
Q 4347 2713 4450 2447 
Q 4519 2266 4519 1878 
L 4519 647 
Q 4519 378 4559 278 
Q 4591 209 4675 161 
Q 4759 113 4950 113 
L 4950 0 
L 3538 0 
L 3538 113 
L 3597 113 
Q 3781 113 3884 184 
Q 3956 234 3988 344 
Q 4000 397 4000 647 
L 4000 1878 
Q 4000 2228 3916 2372 
Q 3794 2572 3525 2572 
Q 3359 2572 3192 2489 
Q 3025 2406 2788 2181 
L 2781 2147 
L 2788 2013 
L 2788 647 
Q 2788 353 2820 281 
Q 2853 209 2943 161 
Q 3034 113 3253 113 
L 3253 0 
L 1806 0 
L 1806 113 
Q 2044 113 2133 169 
Q 2222 225 2256 338 
Q 2272 391 2272 647 
L 2272 1878 
Q 2272 2228 2169 2381 
Q 2031 2581 1784 2581 
Q 1616 2581 1450 2491 
Q 1191 2353 1050 2181 
L 1050 647 
Q 1050 366 1089 281 
Q 1128 197 1204 155 
Q 1281 113 1516 113 
L 1516 0 
L 100 0 
L 100 113 
Q 297 113 375 155 
Q 453 197 493 289 
Q 534 381 534 647 
L 534 1741 
Q 534 2213 506 2350 
Q 484 2453 437 2492 
Q 391 2531 309 2531 
Q 222 2531 100 2484 
L 53 2597 
L 916 2947 
L 1050 2947 
L 1050 2338 
z
" transform="scale(0.015625)"/>
      </defs>
      <use xlink:href="#TimesNewRomanPSMT-53"/>
      <use xlink:href="#TimesNewRomanPSMT-75" transform="translate(55.615234 0)"/>
      <use xlink:href="#TimesNewRomanPSMT-63" transform="translate(105.615234 0)"/>
      <use xlink:href="#TimesNewRomanPSMT-63" transform="translate(150 0)"/>
      <use xlink:href="#TimesNewRomanPSMT-65" transform="translate(194.384766 0)"/>
      <use xlink:href="#TimesNewRomanPSMT-73" transform="translate(238.769531 0)"/>
      <use xlink:href="#TimesNewRomanPSMT-73" transform="translate(277.685547 0)"/>
      <use xlink:href="#TimesNewRomanPSMT-20" transform="translate(316.601562 0)"/>
      <use xlink:href="#TimesNewRomanPSMT-65" transform="translate(341.601562 0)"/>
      <use xlink:href="#TimesNewRomanPSMT-73" transform="translate(385.986328 0)"/>
      <use xlink:href="#TimesNewRomanPSMT-74" transform="translate(424.902344 0)"/>
      <use xlink:href="#TimesNewRomanPSMT-69" transform="translate(452.685547 0)"/>
      <use xlink:href="#TimesNewRomanPSMT-6d" transform="translate(480.46875 0)"/>
      <use xlink:href="#TimesNewRomanPSMT-61" transform="translate(558.251953 0)"/>
      <use xlink:href="#TimesNewRomanPSMT-74" transform="translate(602.636719 0)"/>
      <use xlink:href="#TimesNewRomanPSMT-69" transform="translate(630.419922 0)"/>
      <use xlink:href="#TimesNewRomanPSMT-6f" transform="translate(658.203125 0)"/>
      <use xlink:href="#TimesNewRomanPSMT-6e" transform="translate(708.203125 0)"/>
     </g>
    </g>
    <g id="patch_206">
     <path d="M 264.58375 87.2375 
L 304.58375 87.2375 
L 304.58375 73.2375 
L 264.58375 73.2375 
z
" style="fill: #ff7f0e; opacity: 0.6; stroke: #000000; stroke-linejoin: miter"/>
    </g>
    <g id="text_14">
     <!-- Failure estimation -->
     <g transform="translate(320.58375 87.2375) scale(0.2 -0.2)">
      <use xlink:href="#TimesNewRomanPSMT-46"/>
      <use xlink:href="#TimesNewRomanPSMT-61" transform="translate(55.615234 0)"/>
      <use xlink:href="#TimesNewRomanPSMT-69" transform="translate(100 0)"/>
      <use xlink:href="#TimesNewRomanPSMT-6c" transform="translate(127.783203 0)"/>
      <use xlink:href="#TimesNewRomanPSMT-75" transform="translate(155.566406 0)"/>
      <use xlink:href="#TimesNewRomanPSMT-72" transform="translate(205.566406 0)"/>
      <use xlink:href="#TimesNewRomanPSMT-65" transform="translate(238.867188 0)"/>
      <use xlink:href="#TimesNewRomanPSMT-20" transform="translate(283.251953 0)"/>
      <use xlink:href="#TimesNewRomanPSMT-65" transform="translate(308.251953 0)"/>
      <use xlink:href="#TimesNewRomanPSMT-73" transform="translate(352.636719 0)"/>
      <use xlink:href="#TimesNewRomanPSMT-74" transform="translate(391.552734 0)"/>
      <use xlink:href="#TimesNewRomanPSMT-69" transform="translate(419.335938 0)"/>
      <use xlink:href="#TimesNewRomanPSMT-6d" transform="translate(447.119141 0)"/>
      <use xlink:href="#TimesNewRomanPSMT-61" transform="translate(524.902344 0)"/>
      <use xlink:href="#TimesNewRomanPSMT-74" transform="translate(569.287109 0)"/>
      <use xlink:href="#TimesNewRomanPSMT-69" transform="translate(597.070312 0)"/>
      <use xlink:href="#TimesNewRomanPSMT-6f" transform="translate(624.853516 0)"/>
      <use xlink:href="#TimesNewRomanPSMT-6e" transform="translate(674.853516 0)"/>
     </g>
    </g>
   </g>
  </g>
 </g>
 <defs>
  <clipPath id="p4fbc4fa077">
   <rect x="63.765625" y="26.959375" width="426.465" height="198.84"/>
  </clipPath>
 </defs>
</svg>
